<svg id="a" data-name="Layer 1" viewBox="0 0 3414.38 309.14">
  <defs>
    <style>
      .d {
        fill: #383838;
      }

      .d, .e, .f, .g, .h, .i, .j, .k, .l, .m, .n {
        stroke-width: 0px;
      }

      .e {
        fill: #060707;
      }

      .f {
        fill: #000;
      }

      .g {
        fill: #aaaaab;
      }

      .h {
        fill: #37383c;
      }

      .i {
        fill: #c8c7c7;
      }

      .j {
        fill: #746242;
      }

      .k {
        fill: #61735b;
      }

      .l {
        fill: #dadcde;
      }

      .m {
        fill: #fff;
      }

      .n {
        fill: #363636;
      }
    </style>
  </defs>
  <path class="l" d="M3376.95,0H37.42C16.76,0,0,16.76,0,37.42v234.29c0,20.67,16.76,37.42,37.42,37.42h3339.53c20.67,0,37.42-16.76,37.42-37.42V37.42c0-20.67-16.76-37.42-37.42-37.42ZM109.32,265.87c0,13.5-10.94,24.44-24.44,24.44h-23.12c-13.5,0-24.44-10.94-24.44-24.44h0c0-13.5,10.94-24.44,24.44-24.44h23.12c13.5,0,24.44,10.94,24.44,24.44h0ZM109.32,43.27c0,13.5-10.94,24.44-24.44,24.44h-23.12c-13.5,0-24.44-10.94-24.44-24.44h0c0-13.5,10.94-24.44,24.44-24.44h23.12c13.5,0,24.44,10.94,24.44,24.44h0ZM3377.06,265.87c0,13.5-10.94,24.44-24.44,24.44h-23.12c-13.5,0-24.44-10.94-24.44-24.44h0c0-13.5,10.94-24.44,24.44-24.44h23.12c13.5,0,24.44,10.94,24.44,24.44h0ZM3377.06,43.27c0,13.5-10.94,24.44-24.44,24.44h-23.12c-13.5,0-24.44-10.94-24.44-24.44h0c0-13.5,10.94-24.44,24.44-24.44h23.12c13.5,0,24.44,10.94,24.44,24.44h0Z" />
  <g>
    <path class="d" d="M2879.87,36.03c0-.36-.08-.64-.24-.85-.18-.25-.51-.48-.99-.69-.48-.21-1.21-.45-2.18-.72-1.3-.36-2.19-.8-2.68-1.33-.4-.43-.6-1-.6-1.73,0-.87.38-1.56,1.14-2.07.7-.47,1.61-.71,2.73-.71,1.25,0,2.27.29,3.05.88.7.52,1.11,1.2,1.23,2.04h-1.58c-.09-.57-.39-1-.9-1.28-.45-.26-1.05-.39-1.8-.39-.84,0-1.46.16-1.86.48-.32.25-.48.58-.48.98,0,.26.04.47.13.64s.23.31.44.44c.39.26,1.14.54,2.26.85,1.56.44,2.62.94,3.17,1.5.46.46.69,1.09.69,1.89,0,.95-.42,1.73-1.25,2.35-.78.57-1.77.86-2.97.86s-2.29-.33-3.11-1c-.71-.58-1.13-1.33-1.27-2.25h1.57c.1.66.42,1.17.95,1.51.48.32,1.09.48,1.83.48.92,0,1.62-.21,2.12-.63.4-.34.6-.76.6-1.26Z" />
    <path class="d" d="M2889.29,33.12v1.28h-4.56v4.56h-1.53v-10.8h6.62v1.29h-5.08v3.67h4.56Z" />
    <path class="d" d="M2891.61,28.16h3.51c1.45,0,2.54.34,3.27,1.02.64.6.96,1.43.96,2.49,0,1.18-.41,2.07-1.23,2.66-.73.52-1.75.78-3.06.78h-1.92v3.85h-1.53v-10.8ZM2895.15,29.4h-2.01v4.46h1.95c.99,0,1.7-.21,2.13-.65.36-.35.54-.86.54-1.54,0-.77-.26-1.35-.77-1.74-.45-.35-1.06-.53-1.84-.53Z" />
    <path class="d" d="M2903.78,37.28v-2.5h-2.48v-1.28h2.48v-2.52h1.37v2.52h2.46v1.28h-2.46v2.5h-1.37Z" />
    <path class="d" d="M2915.87,31.2h-1.51c.12-.93.55-1.67,1.29-2.22.66-.5,1.46-.75,2.4-.75,1.07,0,1.92.3,2.57.9.57.55.85,1.25.85,2.08,0,.74-.21,1.43-.63,2.06-.34.53-.96,1.22-1.88,2.08l-2.4,2.28h4.86v1.32h-6.81v-1.32l3.42-3.29c.76-.73,1.28-1.31,1.55-1.75.27-.43.41-.89.41-1.37,0-.58-.2-1.03-.6-1.35-.35-.29-.81-.43-1.38-.43-.64,0-1.15.17-1.54.53-.34.31-.54.72-.6,1.23Z" />
    <path class="d" d="M2923.22,36.41h1.53c.11.49.37.88.78,1.16.39.27.87.4,1.44.4.71,0,1.28-.24,1.71-.73.38-.44.57-1.02.57-1.74,0-.81-.24-1.42-.71-1.84-.39-.36-.91-.54-1.54-.54-.86,0-1.56.32-2.1.96h-1.28l.22-5.61h6.45v1.21h-5.14l-.12,3.08c.64-.51,1.4-.76,2.29-.76,1.04,0,1.88.34,2.5,1.02.6.65.9,1.5.9,2.55s-.38,1.98-1.12,2.67c-.69.64-1.58.96-2.66.96s-2-.32-2.71-.96c-.56-.5-.9-1.11-1.02-1.82Z" />
  </g>
  <g>
    <path class="d" d="M2979.64,36.03c0-.36-.08-.64-.24-.85-.18-.25-.51-.48-.99-.69-.48-.21-1.21-.45-2.18-.72-1.3-.36-2.19-.8-2.68-1.33-.4-.43-.6-1-.6-1.73,0-.87.38-1.56,1.14-2.07.7-.47,1.61-.71,2.73-.71,1.25,0,2.27.29,3.05.88.7.52,1.11,1.2,1.23,2.04h-1.58c-.09-.57-.39-1-.9-1.28-.45-.26-1.05-.39-1.8-.39-.84,0-1.46.16-1.86.48-.32.25-.48.58-.48.98,0,.26.04.47.13.64s.23.31.44.44c.39.26,1.14.54,2.26.85,1.56.44,2.62.94,3.17,1.5.46.46.69,1.09.69,1.89,0,.95-.42,1.73-1.25,2.35-.78.57-1.77.86-2.97.86s-2.29-.33-3.11-1c-.71-.58-1.13-1.33-1.27-2.25h1.57c.1.66.42,1.17.95,1.51.48.32,1.09.48,1.83.48.92,0,1.62-.21,2.12-.63.4-.34.6-.76.6-1.26Z" />
    <path class="d" d="M2989.06,33.12v1.28h-4.56v4.56h-1.53v-10.8h6.62v1.29h-5.08v3.67h4.56Z" />
    <path class="d" d="M2991.39,28.16h3.51c1.45,0,2.54.34,3.27,1.02.64.6.96,1.43.96,2.49,0,1.18-.41,2.07-1.23,2.66-.73.52-1.75.78-3.06.78h-1.92v3.85h-1.53v-10.8ZM2994.93,29.4h-2.01v4.46h1.95c.99,0,1.7-.21,2.13-.65.36-.35.54-.86.54-1.54,0-.77-.26-1.35-.77-1.74-.45-.35-1.06-.53-1.84-.53Z" />
    <path class="d" d="M3003.55,37.28v-2.5h-2.48v-1.28h2.48v-2.52h1.37v2.52h2.46v1.28h-2.46v2.5h-1.37Z" />
    <path class="d" d="M3015.64,31.2h-1.51c.12-.93.55-1.67,1.29-2.22.66-.5,1.46-.75,2.4-.75,1.07,0,1.92.3,2.57.9.57.55.85,1.25.85,2.08,0,.74-.21,1.43-.63,2.06-.34.53-.96,1.22-1.88,2.08l-2.4,2.28h4.86v1.32h-6.81v-1.32l3.42-3.29c.76-.73,1.28-1.31,1.55-1.75.27-.43.41-.89.41-1.37,0-.58-.2-1.03-.6-1.35-.35-.29-.81-.43-1.38-.43-.64,0-1.15.17-1.54.53-.34.31-.54.72-.6,1.23Z" />
    <path class="d" d="M3030.03,29.75l-4.29,9.21h-1.63l4.39-9.21h-5.14v-1.29h6.67v1.29Z" />
  </g>
  <g>
    <path class="d" d="M2879.87,268c0-.36-.08-.65-.24-.85-.18-.25-.51-.48-.99-.69-.48-.21-1.21-.45-2.18-.72-1.3-.36-2.19-.8-2.68-1.33-.4-.43-.6-1-.6-1.73,0-.87.38-1.56,1.14-2.07.7-.47,1.61-.71,2.73-.71,1.25,0,2.27.29,3.05.88.7.52,1.11,1.2,1.23,2.04h-1.58c-.09-.57-.39-.99-.9-1.27-.45-.26-1.05-.39-1.8-.39-.84,0-1.46.16-1.86.48-.32.25-.48.58-.48.98,0,.26.04.47.13.64s.23.31.44.44c.39.26,1.14.54,2.26.85,1.56.44,2.62.94,3.17,1.5.46.46.69,1.09.69,1.89,0,.95-.42,1.73-1.25,2.35-.78.57-1.77.85-2.97.85s-2.29-.33-3.11-1c-.71-.58-1.13-1.33-1.27-2.25h1.57c.1.66.42,1.17.95,1.51.48.32,1.09.48,1.83.48.92,0,1.62-.21,2.12-.63.4-.34.6-.76.6-1.26Z" />
    <path class="d" d="M2889.29,265.09v1.27h-4.56v4.56h-1.53v-10.8h6.62v1.29h-5.08v3.67h4.56Z" />
    <path class="d" d="M2891.61,260.12h3.51c1.45,0,2.54.34,3.27,1.02.64.6.96,1.43.96,2.49,0,1.18-.41,2.06-1.23,2.66-.73.52-1.75.78-3.06.78h-1.92v3.85h-1.53v-10.8ZM2895.15,261.37h-2.01v4.46h1.95c.99,0,1.7-.21,2.13-.65.36-.35.54-.86.54-1.54,0-.77-.26-1.35-.77-1.74-.45-.35-1.06-.53-1.84-.53Z" />
    <path class="d" d="M2903.78,269.24v-2.5h-2.48v-1.27h2.48v-2.52h1.37v2.52h2.46v1.27h-2.46v2.5h-1.37Z" />
    <path class="d" d="M2915.87,263.17h-1.51c.12-.93.55-1.67,1.29-2.22.66-.5,1.46-.75,2.4-.75,1.07,0,1.92.3,2.57.9.57.55.85,1.25.85,2.08,0,.74-.21,1.43-.63,2.06-.34.53-.96,1.23-1.88,2.08l-2.4,2.28h4.86v1.32h-6.81v-1.32l3.42-3.29c.76-.73,1.28-1.31,1.55-1.75.27-.44.41-.89.41-1.37,0-.58-.2-1.03-.6-1.35-.35-.29-.81-.43-1.38-.43-.64,0-1.15.17-1.54.52-.34.31-.54.72-.6,1.23Z" />
    <path class="d" d="M2927.43,264.05c1.08,0,1.92.38,2.52,1.12.5.63.75,1.43.75,2.4,0,1.21-.42,2.15-1.25,2.81-.64.51-1.39.77-2.26.77-1.29,0-2.25-.5-2.88-1.48-.54-.85-.81-2.04-.81-3.57,0-2.29.45-3.92,1.33-4.89.62-.67,1.45-1,2.49-1,.85,0,1.57.23,2.16.68.52.4.85.92,1,1.54h-1.59c-.09-.33-.28-.59-.56-.77-.28-.19-.62-.28-1.03-.28-1.45,0-2.25,1.35-2.39,4.05.27-.43.62-.77,1.07-1,.44-.24.92-.36,1.44-.36ZM2925.08,267.53c0,.81.23,1.44.69,1.88.37.36.84.54,1.42.54.64,0,1.15-.23,1.53-.67.35-.42.53-.96.53-1.62,0-.79-.21-1.4-.63-1.83-.37-.38-.85-.57-1.44-.57-.72,0-1.27.25-1.65.77-.3.41-.45.91-.45,1.51Z" />
  </g>
  <g>
    <path class="d" d="M2979.64,268c0-.36-.08-.65-.24-.85-.18-.25-.51-.48-.99-.69-.48-.21-1.21-.45-2.18-.72-1.3-.36-2.19-.8-2.68-1.33-.4-.43-.6-1-.6-1.73,0-.87.38-1.56,1.14-2.07.7-.47,1.61-.71,2.73-.71,1.25,0,2.27.29,3.05.88.7.52,1.11,1.2,1.23,2.04h-1.58c-.09-.57-.39-.99-.9-1.27-.45-.26-1.05-.39-1.8-.39-.84,0-1.46.16-1.86.48-.32.25-.48.58-.48.98,0,.26.04.47.13.64s.23.31.44.44c.39.26,1.14.54,2.26.85,1.56.44,2.62.94,3.17,1.5.46.46.69,1.09.69,1.89,0,.95-.42,1.73-1.25,2.35-.78.57-1.77.85-2.97.85s-2.29-.33-3.11-1c-.71-.58-1.13-1.33-1.27-2.25h1.57c.1.66.42,1.17.95,1.51.48.32,1.09.48,1.83.48.92,0,1.62-.21,2.12-.63.4-.34.6-.76.6-1.26Z" />
    <path class="d" d="M2989.06,265.09v1.27h-4.56v4.56h-1.53v-10.8h6.62v1.29h-5.08v3.67h4.56Z" />
    <path class="d" d="M2991.39,260.12h3.51c1.45,0,2.54.34,3.27,1.02.64.6.96,1.43.96,2.49,0,1.18-.41,2.06-1.23,2.66-.73.52-1.75.78-3.06.78h-1.92v3.85h-1.53v-10.8ZM2994.93,261.37h-2.01v4.46h1.95c.99,0,1.7-.21,2.13-.65.36-.35.54-.86.54-1.54,0-.77-.26-1.35-.77-1.74-.45-.35-1.06-.53-1.84-.53Z" />
    <path class="d" d="M3003.55,269.24v-2.5h-2.48v-1.27h2.48v-2.52h1.37v2.52h2.46v1.27h-2.46v2.5h-1.37Z" />
    <path class="d" d="M3015.64,263.17h-1.51c.12-.93.55-1.67,1.29-2.22.66-.5,1.46-.75,2.4-.75,1.07,0,1.92.3,2.57.9.57.55.85,1.25.85,2.08,0,.74-.21,1.43-.63,2.06-.34.53-.96,1.23-1.88,2.08l-2.4,2.28h4.86v1.32h-6.81v-1.32l3.42-3.29c.76-.73,1.28-1.31,1.55-1.75.27-.44.41-.89.41-1.37,0-.58-.2-1.03-.6-1.35-.35-.29-.81-.43-1.38-.43-.64,0-1.15.17-1.54.52-.34.31-.54.72-.6,1.23Z" />
    <path class="d" d="M3030.16,262.9c0,.49-.15.94-.45,1.36-.3.42-.73.78-1.28,1.06,1.41.62,2.12,1.54,2.12,2.76,0,.96-.4,1.73-1.19,2.31-.7.5-1.58.75-2.64.75-1.22,0-2.19-.31-2.91-.95-.61-.54-.92-1.21-.92-2.01s.25-1.42.75-1.94c.34-.36.78-.64,1.31-.84-1.11-.52-1.67-1.33-1.67-2.42,0-.97.39-1.71,1.17-2.22.61-.39,1.36-.58,2.26-.58,1.05,0,1.89.24,2.52.72.61.48.92,1.14.92,1.98ZM3029.02,268.09c0-.77-.33-1.33-.97-1.69-.32-.18-.87-.35-1.64-.53-.58.17-1.04.43-1.39.78-.39.4-.58.88-.58,1.44s.21,1.04.64,1.38c.4.33.95.5,1.65.5.79,0,1.39-.2,1.8-.6.33-.32.5-.74.5-1.27ZM3024.7,262.93c0,.74.31,1.28.92,1.62.35.19.82.33,1.41.4,1.13-.44,1.7-1.11,1.7-2.02,0-.52-.22-.93-.66-1.23-.37-.25-.82-.38-1.33-.38-.62,0-1.12.15-1.5.45-.35.29-.53.67-.53,1.15Z" />
  </g>
  <g>
    <path class="d" d="M1868.06,29.13h3.51c1.45,0,2.54.34,3.27,1.02.64.6.96,1.43.96,2.49,0,1.18-.41,2.06-1.23,2.66-.73.52-1.75.78-3.06.78h-1.92v3.85h-1.53v-10.8ZM1871.6,30.38h-2.01v4.46h1.95c.99,0,1.7-.21,2.13-.65.36-.35.54-.86.54-1.54,0-.77-.26-1.35-.77-1.74-.45-.35-1.06-.53-1.84-.53Z" />
    <path class="d" d="M1876.77,36.03c0-1.43.43-2.51,1.28-3.24.68-.59,1.54-.88,2.58-.88,1.21,0,2.16.38,2.85,1.15.66.72.99,1.71.99,2.97,0,1.41-.42,2.48-1.25,3.23-.68.6-1.55.9-2.61.9-1.21,0-2.17-.4-2.87-1.2-.65-.73-.98-1.7-.98-2.92ZM1878.27,36.03c0,1,.26,1.77.77,2.29.42.44.96.66,1.6.66.76,0,1.34-.29,1.75-.85.38-.52.57-1.22.57-2.1,0-1.02-.25-1.79-.75-2.31-.41-.43-.94-.65-1.59-.65-.75,0-1.33.29-1.75.85-.4.52-.6,1.22-.6,2.1Z" />
    <path class="d" d="M1892.49,33.81v1.26h-4.77v3.57h5.21v1.29h-6.74v-10.8h6.74v1.29h-5.21v3.39h4.77Z" />
    <path class="d" d="M1897.5,38.25v-2.5h-2.48v-1.27h2.48v-2.52h1.37v2.52h2.46v1.27h-2.46v2.5h-1.37Z" />
    <path class="d" d="M1917.29,34.13v5.81h-1.12l-.21-1.29c-.36.51-.86.9-1.49,1.16-.55.24-1.16.36-1.83.36-1.49,0-2.68-.55-3.57-1.65-.81-1.02-1.21-2.35-1.21-3.99,0-1.9.54-3.36,1.63-4.38.88-.82,1.99-1.23,3.32-1.23s2.36.37,3.21,1.11c.72.62,1.14,1.38,1.26,2.28h-1.5c-.14-.71-.5-1.25-1.09-1.62-.51-.33-1.13-.5-1.88-.5-1.07,0-1.91.4-2.52,1.21-.58.77-.87,1.81-.87,3.12,0,1.48.39,2.62,1.17,3.42.61.64,1.35.96,2.23.96s1.68-.28,2.28-.85c.54-.5.81-1.11.81-1.84v-.84h-3.17v-1.23h4.54Z" />
    <path class="d" d="M1920.48,39.93h-1.19v-10.8h1.44v4.08c.61-.87,1.48-1.3,2.61-1.3s1.99.4,2.61,1.2c.55.72.83,1.68.83,2.87,0,1.41-.38,2.49-1.12,3.24-.63.63-1.44.95-2.42.95-1.11,0-1.96-.42-2.54-1.26l-.22,1.04ZM1925.28,35.94c0-.98-.25-1.71-.74-2.2-.39-.4-.9-.6-1.53-.6-.73,0-1.31.27-1.74.79-.41.51-.62,1.18-.62,2.01,0,1,.25,1.77.74,2.3.41.46.95.69,1.62.69.75,0,1.32-.27,1.71-.83.37-.51.55-1.23.55-2.16Z" />
    <path class="d" d="M1934.81,33.81v1.26h-4.77v3.57h5.21v1.29h-6.74v-10.8h6.74v1.29h-5.21v3.39h4.77Z" />
  </g>
  <g>
    <path class="d" d="M2483.81,29.13h3.51c1.45,0,2.54.34,3.27,1.02.64.6.96,1.43.96,2.49,0,1.18-.41,2.06-1.23,2.66-.73.52-1.75.78-3.06.78h-1.92v3.85h-1.53v-10.8ZM2487.35,30.38h-2.01v4.46h1.95c.99,0,1.7-.21,2.13-.65.36-.35.54-.86.54-1.54,0-.77-.26-1.35-.77-1.74-.45-.35-1.06-.53-1.84-.53Z" />
    <path class="d" d="M2492.52,36.03c0-1.43.43-2.51,1.28-3.24.68-.59,1.54-.88,2.58-.88,1.21,0,2.16.38,2.85,1.15.66.72.99,1.71.99,2.97,0,1.41-.42,2.48-1.25,3.23-.68.6-1.55.9-2.61.9-1.21,0-2.17-.4-2.87-1.2-.65-.73-.98-1.7-.98-2.92ZM2494.02,36.03c0,1,.26,1.77.77,2.29.42.44.96.66,1.6.66.76,0,1.34-.29,1.75-.85.38-.52.57-1.22.57-2.1,0-1.02-.25-1.79-.75-2.31-.41-.43-.94-.65-1.59-.65-.75,0-1.33.29-1.75.85-.4.52-.6,1.22-.6,2.1Z" />
    <path class="d" d="M2508.24,33.81v1.26h-4.77v3.57h5.21v1.29h-6.74v-10.8h6.74v1.29h-5.21v3.39h4.77Z" />
    <path class="d" d="M2513.25,38.25v-2.5h-2.48v-1.27h2.48v-2.52h1.37v2.52h2.46v1.27h-2.46v2.5h-1.37Z" />
    <path class="d" d="M2533.04,34.13v5.81h-1.12l-.21-1.29c-.36.51-.86.9-1.49,1.16-.55.24-1.16.36-1.83.36-1.49,0-2.68-.55-3.57-1.65-.81-1.02-1.21-2.35-1.21-3.99,0-1.9.54-3.36,1.63-4.38.88-.82,1.99-1.23,3.32-1.23s2.36.37,3.21,1.11c.72.62,1.14,1.38,1.26,2.28h-1.5c-.14-.71-.5-1.25-1.09-1.62-.51-.33-1.13-.5-1.88-.5-1.07,0-1.91.4-2.52,1.21-.58.77-.87,1.81-.87,3.12,0,1.48.39,2.62,1.17,3.42.61.64,1.35.96,2.23.96s1.68-.28,2.28-.85c.54-.5.81-1.11.81-1.84v-.84h-3.17v-1.23h4.54Z" />
    <path class="d" d="M2536.23,39.93h-1.19v-10.8h1.44v4.08c.61-.87,1.48-1.3,2.61-1.3s1.99.4,2.61,1.2c.55.72.83,1.68.83,2.87,0,1.41-.38,2.49-1.12,3.24-.63.63-1.44.95-2.42.95-1.11,0-1.96-.42-2.54-1.26l-.22,1.04ZM2541.03,35.94c0-.98-.25-1.71-.74-2.2-.39-.4-.9-.6-1.53-.6-.73,0-1.31.27-1.74.79-.41.51-.62,1.18-.62,2.01,0,1,.25,1.77.74,2.3.41.46.95.69,1.62.69.75,0,1.32-.27,1.71-.83.37-.51.55-1.23.55-2.16Z" />
    <path class="d" d="M2550.56,33.81v1.26h-4.77v3.57h5.21v1.29h-6.74v-10.8h6.74v1.29h-5.21v3.39h4.77Z" />
  </g>
  <g>
    <path class="d" d="M2133.33,37.38h1.53c.11.49.37.88.78,1.15.39.27.87.4,1.44.4.71,0,1.28-.24,1.71-.73.38-.44.57-1.02.57-1.74,0-.81-.24-1.43-.71-1.85-.39-.36-.91-.54-1.54-.54-.86,0-1.56.32-2.1.96h-1.28l.22-5.61h6.45v1.21h-5.14l-.12,3.08c.64-.51,1.4-.77,2.29-.77,1.04,0,1.88.34,2.5,1.02.6.65.9,1.5.9,2.55s-.38,1.98-1.12,2.67c-.69.64-1.58.96-2.66.96s-2-.32-2.71-.96c-.56-.5-.9-1.1-1.02-1.81Z" />
    <path class="d" d="M2146.06,40.16c-1.2,0-2.13-.51-2.8-1.53-.63-.96-.95-2.28-.95-3.97,0-1.96.41-3.41,1.21-4.35.64-.73,1.49-1.1,2.54-1.1,1.21,0,2.14.49,2.8,1.46.63.94.95,2.27.95,3.99,0,1.93-.41,3.38-1.21,4.33-.65.78-1.5,1.17-2.54,1.17ZM2146.06,38.96c.82,0,1.42-.4,1.79-1.2.33-.7.5-1.73.5-3.1,0-1.55-.22-2.67-.65-3.36-.37-.59-.92-.88-1.63-.88-.82,0-1.42.39-1.79,1.17-.33.69-.5,1.72-.5,3.08,0,1.56.21,2.69.65,3.39.37.61.92.92,1.63.92Z" />
    <path class="d" d="M2158.77,29.13h1.5l-3.87,10.8h-1.91l-3.93-10.8h1.62l3.27,9.36,3.32-9.36Z" />
    <path class="d" d="M2167.05,34.31h-1.53c.08-.78.45-1.38,1.11-1.81.59-.39,1.33-.58,2.23-.58,1.07,0,1.89.28,2.46.84.48.48.72,1.1.72,1.86v5.33h-1.19l-.18-1.06c-.61.86-1.48,1.29-2.61,1.29-.89,0-1.58-.24-2.08-.72-.41-.4-.62-.9-.62-1.51,0-.77.27-1.37.79-1.79.47-.37,1.19-.64,2.16-.81l2.28-.39v-.39c0-.51-.17-.9-.53-1.16-.31-.23-.73-.34-1.27-.34-1.06,0-1.65.42-1.75,1.26ZM2168.41,38.94c.61,0,1.14-.2,1.59-.6.4-.37.6-.79.6-1.28v-1l-1.93.35c-.71.12-1.2.31-1.46.55-.21.2-.32.47-.32.81,0,.38.13.67.39.87.26.2.64.3,1.12.3Z" />
    <path class="d" d="M2177.55,38.78v1.23c-.37.1-.73.15-1.07.15-.72,0-1.26-.23-1.62-.68-.31-.37-.46-.86-.46-1.48v-4.63h-1.16v-1.23h1.16l.09-1.88h1.35v1.88h1.68v1.23h-1.68v4.67c0,.58.27.87.82.87.26,0,.56-.04.89-.12Z" />
    <path class="d" d="M2186.85,40.16c-1.2,0-2.13-.51-2.8-1.53-.63-.96-.95-2.28-.95-3.97,0-1.96.41-3.41,1.21-4.35.64-.73,1.49-1.1,2.54-1.1,1.21,0,2.14.49,2.8,1.46.63.94.95,2.27.95,3.99,0,1.93-.41,3.38-1.21,4.33-.65.78-1.5,1.17-2.54,1.17ZM2186.85,38.96c.82,0,1.42-.4,1.79-1.2.33-.7.5-1.73.5-3.1,0-1.55-.22-2.67-.65-3.36-.37-.59-.92-.88-1.63-.88-.82,0-1.42.39-1.79,1.17-.33.69-.5,1.72-.5,3.08,0,1.56.21,2.69.65,3.39.37.61.92.92,1.63.92Z" />
    <path class="d" d="M2194.47,39.93h-1.74v-1.74h1.74v1.74Z" />
    <path class="d" d="M2200.83,33.06c1.08,0,1.92.38,2.52,1.12.5.63.75,1.43.75,2.4,0,1.21-.42,2.15-1.25,2.81-.64.51-1.39.77-2.26.77-1.29,0-2.25-.5-2.88-1.48-.54-.85-.81-2.04-.81-3.57,0-2.29.45-3.92,1.33-4.89.62-.67,1.45-1,2.49-1,.85,0,1.57.23,2.16.68.52.4.85.92,1,1.54h-1.59c-.09-.33-.28-.59-.56-.77-.28-.19-.62-.28-1.03-.28-1.45,0-2.25,1.35-2.39,4.05.27-.43.62-.77,1.07-1,.44-.24.92-.36,1.44-.36ZM2198.47,36.54c0,.81.23,1.44.69,1.88.37.36.84.54,1.42.54.64,0,1.15-.23,1.53-.67.35-.42.53-.96.53-1.62,0-.79-.21-1.4-.63-1.83-.37-.38-.85-.57-1.44-.57-.72,0-1.27.25-1.65.77-.3.41-.45.91-.45,1.51Z" />
    <path class="d" d="M2215.43,39.93h-1.7l-1.06-2.73h-5.15l-1.08,2.73h-1.61l4.44-10.8h1.72l4.42,10.8ZM2210.13,30.66l-2.1,5.29h4.16l-2.05-5.29Z" />
    <path class="d" d="M2218.55,38.19v1.52c0,.83-.24,1.46-.71,1.91-.33.32-.75.51-1.26.57v-.75c.62-.13.93-.63.93-1.5h-.71v-1.74h1.74Z" />
    <path class="d" d="M2225.2,37.38h1.53c.11.49.37.88.78,1.15.39.27.87.4,1.44.4.71,0,1.28-.24,1.71-.73.38-.44.57-1.02.57-1.74,0-.81-.24-1.43-.71-1.85-.39-.36-.91-.54-1.54-.54-.86,0-1.56.32-2.1.96h-1.28l.22-5.61h6.45v1.21h-5.14l-.12,3.08c.64-.51,1.4-.77,2.29-.77,1.04,0,1.88.34,2.5,1.02.6.65.9,1.5.9,2.55s-.38,1.98-1.12,2.67c-.69.64-1.58.96-2.66.96s-2-.32-2.71-.96c-.56-.5-.9-1.1-1.02-1.81Z" />
    <path class="d" d="M2241.23,30.72l-4.29,9.21h-1.63l4.39-9.21h-5.14v-1.29h6.67v1.29Z" />
    <path class="d" d="M2250.64,29.13h1.5l-3.87,10.8h-1.91l-3.93-10.8h1.62l3.27,9.36,3.32-9.36Z" />
    <path class="d" d="M2264.02,39.93h-1.44l-3.33-8.46v8.46h-1.49v-10.8h2.13l3.44,9,3.24-9h2.01v10.8h-1.44v-8.38l-3.12,8.38Z" />
    <path class="d" d="M2271.98,34.31h-1.53c.08-.78.45-1.38,1.11-1.81.59-.39,1.33-.58,2.23-.58,1.07,0,1.89.28,2.46.84.48.48.72,1.1.72,1.86v5.33h-1.19l-.18-1.06c-.61.86-1.48,1.29-2.61,1.29-.89,0-1.58-.24-2.08-.72-.41-.4-.62-.9-.62-1.51,0-.77.27-1.37.79-1.79.47-.37,1.19-.64,2.16-.81l2.28-.39v-.39c0-.51-.17-.9-.53-1.16-.31-.23-.73-.34-1.27-.34-1.06,0-1.65.42-1.75,1.26ZM2273.35,38.94c.61,0,1.14-.2,1.59-.6.4-.37.6-.79.6-1.28v-1l-1.93.35c-.71.12-1.2.31-1.46.55-.21.2-.32.47-.32.81,0,.38.13.67.39.87.26.2.64.3,1.12.3Z" />
    <path class="d" d="M2285.29,32.13l-2.61,3.65,3.06,4.15h-1.75l-2.12-3.02-2.07,3.02h-1.69l2.91-4.05-2.73-3.75h1.72l1.86,2.62,1.77-2.62h1.65Z" />
  </g>
  <g>
    <g>
      <g>
        <polygon class="d" points="1644.42 267.58 1636.01 267.58 1640.22 261.51 1640.22 261.51 1644.42 267.58" />
        <polygon class="d" points="1686.55 264.85 1694.95 264.85 1690.75 270.92 1690.75 270.92 1686.55 264.85" />
      </g>
      <g>
        <polygon class="d" points="1744.04 267.58 1735.64 267.58 1739.84 261.51 1739.84 261.51 1744.04 267.58" />
        <polygon class="d" points="1786.17 264.85 1794.58 264.85 1790.37 270.92 1790.37 270.92 1786.17 264.85" />
      </g>
      <g>
        <polygon class="d" points="1841.61 267.58 1833.2 267.58 1837.41 261.51 1837.41 261.51 1841.61 267.58" />
        <polygon class="d" points="1883.74 264.85 1892.14 264.85 1887.94 270.92 1887.94 270.92 1883.74 264.85" />
      </g>
      <g>
        <polygon class="d" points="1939.27 267.58 1930.87 267.58 1935.07 261.51 1935.07 261.51 1939.27 267.58" />
        <polygon class="d" points="1981.4 264.85 1989.8 264.85 1985.6 270.92 1985.6 270.92 1981.4 264.85" />
      </g>
      <polygon class="d" points="2035.32 267.58 2026.92 267.58 2031.12 261.51 2031.12 261.51 2035.32 267.58" />
      <polygon class="d" points="2079.95 264.85 2088.35 264.85 2084.15 270.92 2084.15 270.92 2079.95 264.85" />
      <polygon class="d" points="2138.72 267.58 2130.32 267.58 2134.52 261.51 2134.52 261.51 2138.72 267.58" />
      <polygon class="d" points="2179.72 264.3 2188.12 264.3 2183.92 270.36 2183.92 270.36 2179.72 264.3" />
      <polygon class="d" points="2263.59 267.58 2255.18 267.58 2259.39 261.51 2259.39 261.51 2263.59 267.58" />
      <polygon class="d" points="2304.2 264.85 2312.6 264.85 2308.4 270.92 2308.4 270.92 2304.2 264.85" />
      <g>
        <polygon class="d" points="2360.64 267.58 2352.24 267.58 2356.44 261.51 2356.44 261.51 2360.64 267.58" />
        <polygon class="d" points="2402.77 264.85 2411.17 264.85 2406.97 270.92 2406.97 270.92 2402.77 264.85" />
      </g>
      <polygon class="d" points="2459.03 267.58 2450.63 267.58 2454.83 261.51 2454.83 261.51 2459.03 267.58" />
      <polygon class="d" points="2500.33 264.85 2508.73 264.85 2504.53 270.92 2504.53 270.92 2500.33 264.85" />
      <polygon class="d" points="2556.39 267.58 2547.99 267.58 2552.19 261.51 2552.19 261.51 2556.39 267.58" />
      <polygon class="d" points="2597.96 264.85 2606.36 264.85 2602.16 270.92 2602.16 270.92 2597.96 264.85" />
      <polygon class="d" points="2656.17 267.58 2647.77 267.58 2651.97 261.51 2651.97 261.51 2656.17 267.58" />
      <polygon class="d" points="2696.78 264.85 2705.19 264.85 2700.98 270.92 2700.98 270.92 2696.78 264.85" />
      <g>
        <polygon class="d" points="2752.68 267.58 2744.28 267.58 2748.48 261.51 2748.48 261.51 2752.68 267.58" />
        <polygon class="d" points="2794.82 264.85 2803.22 264.85 2799.02 270.92 2799.02 270.92 2794.82 264.85" />
      </g>
    </g>
    <path class="d" d="M1630,270.92v-8.43l-2.21,1.14v-1.39l2.22-1.15h1.32v9.84h-1.33Z" />
    <path class="d" d="M1675.75,263.66c.06-.39.18-.76.36-1.1.18-.34.42-.63.72-.88.3-.25.65-.45,1.05-.59s.84-.21,1.33-.21c.46,0,.88.07,1.27.2.39.13.73.32,1.01.55s.51.53.67.88c.16.35.25.74.25,1.17,0,.34-.04.65-.12.93-.08.29-.21.58-.39.87-.18.3-.42.61-.72.94s-.67.71-1.11,1.13l-2.25,2.14h4.55v1.24h-6.38v-1.24l3.2-3.08c.34-.32.62-.61.85-.86.23-.26.42-.5.57-.72.15-.23.26-.44.32-.65.07-.21.1-.44.1-.68,0-.51-.16-.91-.48-1.22-.32-.3-.78-.46-1.37-.46s-1.02.15-1.38.44c-.36.29-.57.69-.63,1.21h-1.42Z" />
    <path class="d" d="M1731.83,268.24c0,.42-.08.81-.25,1.16s-.4.66-.7.91c-.3.26-.67.46-1.1.6-.43.14-.91.21-1.43.21-1.03,0-1.85-.24-2.46-.73-.61-.49-.97-1.12-1.08-1.91h1.43c.11.5.34.87.67,1.13.34.26.81.39,1.4.39.67,0,1.2-.16,1.57-.49.37-.33.56-.76.56-1.29,0-.34-.06-.62-.18-.86-.12-.23-.27-.43-.46-.58-.19-.15-.4-.26-.63-.32-.23-.06-.46-.1-.68-.1h-.82v-1.17h.79c.19,0,.38-.03.57-.1.19-.06.37-.16.53-.29.16-.13.29-.3.39-.51.1-.21.15-.46.15-.74,0-.26-.05-.49-.16-.69-.11-.2-.25-.36-.42-.48-.17-.13-.37-.22-.6-.28-.23-.06-.46-.09-.7-.09-.55,0-1,.13-1.35.39-.35.26-.56.6-.63,1.02h-1.42c.06-.38.18-.73.38-1.04.2-.31.44-.57.74-.79.3-.22.65-.39,1.05-.51.4-.12.83-.18,1.3-.18.41,0,.81.05,1.19.15.38.1.72.26,1.02.47.3.21.53.48.71.8.18.32.27.71.27,1.15,0,.53-.17,1-.5,1.41-.33.4-.76.68-1.27.84.28.06.55.15.8.29.25.14.48.31.67.52s.35.46.46.75c.12.29.18.62.18.98Z" />
    <path class="d" d="M1779.55,261.09v6.83h1.59v1.15h-1.59v1.85h-1.31v-1.85h-4.31v-1.25l4.22-6.73h1.4ZM1778.25,267.91v-4.65l-2.81,4.65h2.81Z" />
    <path class="d" d="M1824.67,268.53c.09.4.31.75.66,1.03.35.29.82.43,1.42.43.3,0,.58-.05.84-.15.26-.1.49-.25.68-.45.19-.2.34-.44.45-.73.11-.29.16-.62.16-.98,0-.73-.19-1.29-.58-1.67s-.89-.57-1.53-.57c-.34,0-.68.07-1.03.21-.35.14-.66.37-.93.69h-1.19l.21-5.25h6.04v1.14h-4.82l-.11,2.88c.27-.22.58-.39.93-.52.35-.13.76-.2,1.22-.2.43,0,.84.07,1.22.21s.72.35,1.01.63.52.63.7,1.05c.17.42.26.9.26,1.45,0,.46-.08.89-.24,1.31-.16.41-.39.77-.69,1.08-.3.31-.67.55-1.11.74-.44.18-.94.27-1.5.27-.51,0-.96-.07-1.37-.22-.41-.15-.76-.34-1.05-.58-.29-.24-.53-.52-.72-.83-.18-.31-.3-.63-.36-.97h1.43Z" />
    <path class="d" d="M1876.38,264.49c.48,0,.91.08,1.29.25.38.16.7.39.96.68.26.29.46.64.6,1.05.14.41.21.85.21,1.33,0,.56-.1,1.05-.29,1.48-.19.42-.44.77-.75,1.05-.31.28-.66.48-1.05.62-.39.14-.79.2-1.19.2-1.14,0-2-.4-2.59-1.21-.58-.81-.87-1.98-.87-3.53,0-1.1.1-2.01.3-2.73.2-.71.47-1.27.81-1.69.34-.41.72-.7,1.15-.86.43-.16.87-.25,1.32-.25.75,0,1.39.19,1.93.55.53.37.88.88,1.04,1.52h-1.49c-.08-.3-.25-.54-.51-.72-.25-.18-.58-.27-.98-.27-.28,0-.55.06-.8.18-.25.12-.48.33-.67.63-.2.29-.36.69-.5,1.17-.14.49-.22,1.09-.26,1.81.15-.23.32-.43.51-.6.19-.16.38-.3.59-.39.21-.1.42-.17.63-.22.22-.05.42-.07.62-.07ZM1874.18,267.75c0,.73.19,1.29.57,1.68.38.39.85.58,1.41.58.26,0,.51-.05.74-.14.23-.09.44-.23.62-.41s.32-.41.41-.67.15-.57.15-.92c0-.7-.18-1.25-.53-1.65-.35-.4-.82-.6-1.41-.6-.33,0-.62.06-.86.18-.25.12-.45.27-.62.47-.16.2-.29.42-.37.68-.08.26-.12.53-.12.81Z" />
    <path class="d" d="M1922.68,270.92h-1.53l4.12-8.63h-4.82v-1.21h6.25v1.21l-4.02,8.63Z" />
    <path class="d" d="M1975.81,263.4c0,.28-.05.54-.14.77-.09.23-.22.45-.37.63-.15.19-.33.35-.52.5-.19.14-.39.27-.58.37.23.1.47.23.7.38.23.15.44.33.63.54.19.21.34.45.46.73.12.28.18.59.18.93,0,.42-.09.81-.26,1.16-.17.35-.42.65-.73.91-.31.25-.69.45-1.13.59s-.93.21-1.46.21-1.02-.07-1.46-.2-.82-.33-1.13-.58c-.31-.25-.56-.54-.73-.88-.17-.34-.26-.71-.26-1.11,0-.37.06-.7.18-.99.12-.29.27-.53.46-.74.19-.21.39-.39.62-.53.23-.14.45-.25.67-.34-.19-.08-.37-.19-.56-.32-.19-.13-.35-.29-.5-.47-.15-.18-.26-.4-.36-.64-.09-.24-.14-.52-.14-.83,0-.45.09-.84.27-1.17.18-.33.41-.61.71-.82.29-.22.64-.37,1.03-.48.39-.1.79-.15,1.22-.15s.83.05,1.22.15c.39.1.73.25,1.03.45.3.2.53.46.71.78.18.32.27.7.27,1.15ZM1974.74,268.27c0-.39-.08-.71-.23-.95s-.34-.43-.58-.58c-.24-.15-.5-.26-.79-.34s-.57-.15-.84-.2c-.21.06-.42.14-.63.25-.22.11-.41.25-.6.42-.18.17-.33.37-.45.6s-.18.51-.18.81c0,.24.04.47.13.68.09.21.22.4.39.55.17.16.4.29.67.38.27.09.59.14.96.14.72,0,1.26-.16,1.62-.49s.53-.75.53-1.26ZM1970.69,263.43c0,.37.07.68.22.91.15.23.33.42.55.55.22.14.45.23.7.3.25.06.49.1.7.13.18-.06.36-.15.55-.27.19-.11.36-.25.51-.4s.28-.33.38-.53c.1-.2.15-.43.15-.7,0-.23-.05-.44-.15-.63-.1-.18-.23-.34-.4-.47-.17-.13-.37-.23-.6-.3-.23-.07-.47-.11-.72-.11s-.49.03-.72.09c-.23.06-.43.15-.6.28-.17.13-.31.28-.41.47-.1.19-.15.41-.15.66Z" />
    <path class="d" d="M2019.87,267.52c-.45,0-.86-.07-1.24-.23-.38-.15-.7-.37-.97-.65-.27-.29-.48-.63-.63-1.04s-.23-.87-.23-1.38.08-.97.25-1.38c.17-.41.4-.76.7-1.05.29-.29.64-.52,1.04-.68.4-.16.83-.24,1.3-.24,1.14,0,2,.39,2.59,1.17.58.78.87,1.97.87,3.56,0,1.08-.1,1.97-.29,2.68s-.46,1.28-.79,1.7c-.33.42-.71.72-1.15.89-.44.17-.9.25-1.39.25-.76,0-1.4-.19-1.94-.57-.53-.38-.88-.89-1.04-1.54h1.49c.09.32.27.57.53.74.26.18.6.27,1.02.27.3,0,.58-.06.83-.18.25-.12.48-.33.67-.62.2-.29.36-.68.48-1.17.12-.49.2-1.09.24-1.81-.15.23-.32.43-.51.6-.19.16-.38.29-.59.39-.21.1-.41.17-.62.21-.21.04-.42.06-.61.06ZM2022.08,264.26c0-.73-.19-1.29-.57-1.68s-.85-.58-1.41-.58c-.27,0-.52.05-.76.15-.23.1-.44.24-.61.42-.17.18-.31.41-.41.67-.1.27-.15.57-.15.91,0,.37.05.69.15.97.1.28.23.52.41.71.17.19.38.33.62.43.24.09.49.14.77.14.33,0,.62-.06.86-.18.25-.12.45-.27.62-.47s.29-.42.37-.68c.08-.26.12-.53.12-.81Z" />
    <g>
      <path class="d" d="M2064.51,270.92v-8.43l-2.21,1.14v-1.39l2.22-1.15h1.32v9.84h-1.34Z" />
      <path class="d" d="M2073.08,271.13c-.5,0-.96-.1-1.39-.31-.43-.21-.8-.52-1.12-.95-.31-.43-.56-.96-.74-1.61s-.27-1.41-.27-2.29.09-1.68.27-2.33c.18-.64.43-1.17.74-1.58.32-.41.69-.71,1.12-.91s.89-.29,1.38-.29.96.1,1.38.29.8.49,1.12.91.57.94.74,1.58c.18.64.27,1.42.27,2.33s-.09,1.64-.27,2.29-.42,1.18-.74,1.61c-.31.43-.69.74-1.12.95-.43.21-.89.31-1.39.31ZM2073.08,270.01c.72,0,1.26-.32,1.61-.98.35-.65.53-1.67.53-3.06s-.18-2.38-.53-3.02c-.35-.64-.89-.96-1.61-.96s-1.26.32-1.61.96c-.35.64-.53,1.64-.53,3.02s.18,2.4.53,3.06c.35.65.89.98,1.61.98Z" />
    </g>
    <g>
      <path class="d" d="M2114.37,270.92v-8.43l-2.21,1.14v-1.39l2.22-1.15h1.32v9.84h-1.34Z" />
      <path class="d" d="M2122.8,270.92v-8.43l-2.21,1.14v-1.39l2.22-1.15h1.32v9.84h-1.34Z" />
    </g>
    <g>
      <path class="d" d="M2164.67,270.92v-8.43l-2.21,1.14v-1.39l2.22-1.15h1.32v9.84h-1.34Z" />
      <path class="d" d="M2169.86,263.66c.06-.39.18-.76.36-1.1.18-.34.42-.63.72-.88.3-.25.65-.45,1.05-.59s.84-.21,1.33-.21c.46,0,.88.07,1.27.2.39.13.73.32,1.01.55s.51.53.67.88c.16.35.25.74.25,1.17,0,.34-.04.65-.12.93-.08.29-.21.58-.39.87-.18.3-.42.61-.72.94s-.67.71-1.11,1.13l-2.25,2.14h4.55v1.24h-6.38v-1.24l3.2-3.08c.34-.32.62-.61.85-.86.23-.26.42-.5.57-.72.15-.23.26-.44.32-.65.07-.21.1-.44.1-.68,0-.51-.16-.91-.48-1.22-.32-.3-.78-.46-1.37-.46s-1.02.15-1.38.44c-.36.29-.57.69-.63,1.21h-1.42Z" />
    </g>
    <g>
      <path class="d" d="M2238.47,270.92v-8.43l-2.21,1.14v-1.39l2.22-1.15h1.32v9.84h-1.34Z" />
      <path class="d" d="M2250.54,268.24c0,.42-.08.81-.25,1.16s-.4.66-.7.91c-.3.26-.67.46-1.1.6-.43.14-.91.21-1.43.21-1.03,0-1.85-.24-2.46-.73-.61-.49-.97-1.12-1.08-1.91h1.43c.11.5.34.87.67,1.13.34.26.81.39,1.4.39.67,0,1.2-.16,1.57-.49.37-.33.56-.76.56-1.29,0-.34-.06-.62-.18-.86-.12-.23-.27-.43-.46-.58-.19-.15-.4-.26-.63-.32-.23-.06-.46-.1-.68-.1h-.82v-1.17h.79c.19,0,.38-.03.57-.1.19-.06.37-.16.53-.29.16-.13.29-.3.39-.51.1-.21.15-.46.15-.74,0-.26-.05-.49-.16-.69-.11-.2-.25-.36-.42-.48-.17-.13-.37-.22-.6-.28-.23-.06-.46-.09-.7-.09-.55,0-1,.13-1.35.39-.35.26-.56.6-.63,1.02h-1.42c.06-.38.18-.73.38-1.04.2-.31.44-.57.74-.79.3-.22.65-.39,1.05-.51.4-.12.83-.18,1.3-.18.41,0,.81.05,1.19.15.38.1.72.26,1.02.47.3.21.53.48.71.8.18.32.27.71.27,1.15,0,.53-.17,1-.5,1.41-.33.4-.76.68-1.27.84.28.06.55.15.8.29.25.14.48.31.67.52s.35.46.46.75c.12.29.18.62.18.98Z" />
    </g>
    <g>
      <path class="d" d="M2286.89,270.92v-8.43l-2.21,1.14v-1.39l2.22-1.15h1.32v9.84h-1.34Z" />
      <path class="d" d="M2297.49,261.09v6.83h1.59v1.15h-1.59v1.85h-1.31v-1.85h-4.31v-1.25l4.22-6.73h1.4ZM2296.18,267.91v-4.65l-2.81,4.65h2.81Z" />
    </g>
    <g>
      <path class="d" d="M2336.1,270.92v-8.43l-2.21,1.14v-1.39l2.22-1.15h1.32v9.84h-1.34Z" />
      <path class="d" d="M2342.6,268.53c.09.4.31.75.66,1.03.35.29.82.43,1.42.43.3,0,.58-.05.84-.15.26-.1.49-.25.68-.45.19-.2.34-.44.45-.73.11-.29.16-.62.16-.98,0-.73-.19-1.29-.58-1.67s-.89-.57-1.53-.57c-.34,0-.68.07-1.03.21-.35.14-.66.37-.93.69h-1.19l.21-5.25h6.04v1.14h-4.82l-.11,2.88c.27-.22.58-.39.93-.52.35-.13.76-.2,1.22-.2.43,0,.84.07,1.22.21s.72.35,1.01.63.52.63.7,1.05c.17.42.26.9.26,1.45,0,.46-.08.89-.24,1.31-.16.41-.39.77-.69,1.08-.3.31-.67.55-1.11.74-.44.18-.94.27-1.5.27-.51,0-.96-.07-1.37-.22-.41-.15-.76-.34-1.05-.58-.29-.24-.53-.52-.72-.83-.18-.31-.3-.63-.36-.97h1.43Z" />
    </g>
    <g>
      <path class="d" d="M2385.3,270.92v-8.43l-2.21,1.14v-1.39l2.22-1.15h1.32v9.84h-1.34Z" />
      <path class="d" d="M2394.32,264.49c.48,0,.91.08,1.29.25.38.16.7.39.96.68.26.29.46.64.6,1.05.14.41.21.85.21,1.33,0,.56-.1,1.05-.29,1.48-.19.42-.44.77-.75,1.05-.31.28-.66.48-1.05.62-.39.14-.79.2-1.19.2-1.14,0-2-.4-2.59-1.21-.58-.81-.87-1.98-.87-3.53,0-1.1.1-2.01.3-2.73.2-.71.47-1.27.81-1.69.34-.41.72-.7,1.15-.86.43-.16.87-.25,1.32-.25.75,0,1.39.19,1.93.55.53.37.88.88,1.04,1.52h-1.49c-.08-.3-.25-.54-.51-.72-.25-.18-.58-.27-.98-.27-.28,0-.55.06-.8.18-.25.12-.48.33-.67.63-.2.29-.36.69-.5,1.17-.14.49-.22,1.09-.26,1.81.15-.23.32-.43.51-.6.19-.16.38-.3.59-.39.21-.1.42-.17.63-.22.22-.05.42-.07.62-.07ZM2392.11,267.75c0,.73.19,1.29.57,1.68.38.39.85.58,1.41.58.26,0,.51-.05.74-.14.23-.09.44-.23.62-.41s.32-.41.41-.67.15-.57.15-.92c0-.7-.18-1.25-.53-1.65-.35-.4-.82-.6-1.41-.6-.33,0-.62.06-.86.18-.25.12-.45.27-.62.47-.16.2-.29.42-.37.68-.08.26-.12.53-.12.81Z" />
    </g>
    <g>
      <path class="d" d="M2434.5,270.92v-8.43l-2.21,1.14v-1.39l2.22-1.15h1.32v9.84h-1.33Z" />
      <path class="d" d="M2442.15,270.92h-1.53l4.12-8.63h-4.82v-1.21h6.25v1.21l-4.02,8.63Z" />
    </g>
    <g>
      <path class="d" d="M2483.7,270.92v-8.43l-2.21,1.14v-1.39l2.22-1.15h1.32v9.84h-1.34Z" />
      <path class="d" d="M2495.49,263.4c0,.28-.05.54-.14.77-.09.23-.22.45-.37.63-.15.19-.33.35-.52.5-.19.14-.39.27-.58.37.23.1.47.23.7.38.23.15.44.33.63.54.19.21.34.45.46.73.12.28.18.59.18.93,0,.42-.09.81-.26,1.16-.17.35-.42.65-.73.91-.31.25-.69.45-1.13.59s-.93.21-1.46.21-1.02-.07-1.46-.2-.82-.33-1.13-.58c-.31-.25-.56-.54-.73-.88-.17-.34-.26-.71-.26-1.11,0-.37.06-.7.18-.99.12-.29.27-.53.46-.74.19-.21.39-.39.62-.53.23-.14.45-.25.67-.34-.19-.08-.37-.19-.56-.32-.19-.13-.35-.29-.5-.47-.15-.18-.26-.4-.36-.64-.09-.24-.14-.52-.14-.83,0-.45.09-.84.27-1.17.18-.33.41-.61.71-.82.29-.22.64-.37,1.03-.48.39-.1.79-.15,1.22-.15s.83.05,1.22.15c.39.1.73.25,1.03.45.3.2.53.46.71.78.18.32.27.7.27,1.15ZM2494.42,268.27c0-.39-.08-.71-.23-.95s-.34-.43-.58-.58c-.24-.15-.5-.26-.79-.34s-.57-.15-.84-.2c-.21.06-.42.14-.63.25-.22.11-.41.25-.6.42-.18.17-.33.37-.45.6s-.18.51-.18.81c0,.24.04.47.13.68.09.21.22.4.39.55.17.16.4.29.67.38.27.09.59.14.96.14.72,0,1.26-.16,1.62-.49s.53-.75.53-1.26ZM2490.38,263.43c0,.37.07.68.22.91.15.23.33.42.55.55.22.14.45.23.7.3.25.06.49.1.7.13.18-.06.36-.15.55-.27.19-.11.36-.25.51-.4s.28-.33.38-.53c.1-.2.15-.43.15-.7,0-.23-.05-.44-.15-.63-.1-.18-.23-.34-.4-.47-.17-.13-.37-.23-.6-.3-.23-.07-.47-.11-.72-.11s-.49.03-.72.09c-.23.06-.43.15-.6.28-.17.13-.31.28-.41.47-.1.19-.15.41-.15.66Z" />
    </g>
    <g>
      <path class="d" d="M2531.38,270.92v-8.43l-2.21,1.14v-1.39l2.22-1.15h1.32v9.84h-1.34Z" />
      <path class="d" d="M2539.78,267.52c-.45,0-.86-.07-1.24-.23-.37-.15-.7-.37-.97-.65-.27-.29-.48-.63-.63-1.04-.15-.41-.23-.87-.23-1.38s.08-.97.25-1.38c.17-.41.4-.76.7-1.05.29-.29.64-.52,1.04-.68.4-.16.83-.24,1.3-.24,1.14,0,2,.39,2.59,1.17.58.78.87,1.97.87,3.56,0,1.08-.1,1.97-.29,2.68s-.46,1.28-.79,1.7c-.33.42-.71.72-1.15.89-.44.17-.9.25-1.39.25-.76,0-1.4-.19-1.94-.57-.53-.38-.88-.89-1.04-1.54h1.49c.09.32.27.57.53.74.26.18.6.27,1.02.27.3,0,.58-.06.83-.18.25-.12.48-.33.67-.62.2-.29.36-.68.48-1.17s.2-1.09.24-1.81c-.15.23-.32.43-.51.6-.19.16-.38.29-.59.39-.21.1-.41.17-.63.21-.21.04-.41.06-.61.06ZM2541.98,264.26c0-.73-.19-1.29-.57-1.68s-.85-.58-1.41-.58c-.27,0-.52.05-.76.15s-.44.24-.61.42c-.17.18-.31.41-.41.67s-.15.57-.15.91c0,.37.05.69.15.97s.23.52.41.71c.17.19.38.33.62.43.24.09.49.14.77.14.33,0,.62-.06.86-.18.25-.12.45-.27.62-.47.16-.2.29-.42.37-.68.08-.26.12-.53.12-.81Z" />
    </g>
    <g>
      <path class="d" d="M2577.41,263.66c.06-.39.18-.76.36-1.1.18-.34.42-.63.72-.88.3-.25.65-.45,1.05-.59s.84-.21,1.33-.21c.46,0,.88.07,1.27.2.39.13.73.32,1.01.55s.51.53.67.88c.16.35.25.74.25,1.17,0,.34-.04.65-.12.93-.08.29-.21.58-.39.87-.18.3-.42.61-.72.94s-.67.71-1.11,1.13l-2.25,2.14h4.55v1.24h-6.38v-1.24l3.2-3.08c.34-.32.62-.61.85-.86.23-.26.42-.5.57-.72.15-.23.26-.44.32-.65.07-.21.1-.44.1-.68,0-.51-.16-.91-.48-1.22-.32-.3-.78-.46-1.37-.46s-1.02.15-1.38.44c-.36.29-.57.69-.63,1.21h-1.42Z" />
      <path class="d" d="M2589.21,271.13c-.5,0-.96-.1-1.39-.31-.43-.21-.8-.52-1.12-.95-.31-.43-.56-.96-.74-1.61s-.27-1.41-.27-2.29.09-1.68.27-2.33c.18-.64.43-1.17.74-1.58.32-.41.69-.71,1.12-.91s.89-.29,1.38-.29.96.1,1.38.29.8.49,1.12.91.57.94.74,1.58c.18.64.27,1.42.27,2.33s-.09,1.64-.27,2.29-.42,1.18-.74,1.61c-.31.43-.69.74-1.12.95-.43.21-.89.31-1.39.31ZM2589.21,270.01c.72,0,1.26-.32,1.61-.98.35-.65.53-1.67.53-3.06s-.18-2.38-.53-3.02c-.35-.64-.89-.96-1.61-.96s-1.26.32-1.61.96c-.35.64-.53,1.64-.53,3.02s.18,2.4.53,3.06c.35.65.89.98,1.61.98Z" />
    </g>
    <g>
      <path class="d" d="M2627.93,263.66c.06-.39.18-.76.36-1.1.18-.34.42-.63.72-.88.3-.25.65-.45,1.05-.59s.84-.21,1.33-.21c.46,0,.88.07,1.27.2.39.13.73.32,1.01.55s.51.53.67.88c.16.35.25.74.25,1.17,0,.34-.04.65-.12.93-.08.29-.21.58-.39.87-.18.3-.42.61-.72.94s-.67.71-1.11,1.13l-2.25,2.14h4.55v1.24h-6.38v-1.24l3.2-3.08c.34-.32.62-.61.85-.86.23-.26.42-.5.57-.72.15-.23.26-.44.32-.65.07-.21.1-.44.1-.68,0-.51-.16-.91-.48-1.22-.32-.3-.78-.46-1.37-.46s-1.02.15-1.38.44c-.36.29-.57.69-.63,1.21h-1.42Z" />
      <path class="d" d="M2639.59,270.92v-8.43l-2.21,1.14v-1.39l2.22-1.15h1.32v9.84h-1.34Z" />
    </g>
    <g>
      <path class="d" d="M2675.33,263.66c.06-.39.18-.76.36-1.1.18-.34.42-.63.72-.88.3-.25.65-.45,1.05-.59s.84-.21,1.33-.21c.46,0,.88.07,1.27.2.39.13.73.32,1.01.55s.51.53.67.88c.16.35.25.74.25,1.17,0,.34-.04.65-.12.93-.08.29-.21.58-.39.87-.18.3-.42.61-.72.94s-.67.71-1.11,1.13l-2.25,2.14h4.55v1.24h-6.38v-1.24l3.2-3.08c.34-.32.62-.61.85-.86.23-.26.42-.5.57-.72.15-.23.26-.44.32-.65.07-.21.1-.44.1-.68,0-.51-.16-.91-.48-1.22-.32-.3-.78-.46-1.37-.46s-1.02.15-1.38.44c-.36.29-.57.69-.63,1.21h-1.42Z" />
      <path class="d" d="M2683.76,263.66c.06-.39.18-.76.36-1.1.18-.34.42-.63.72-.88.3-.25.65-.45,1.05-.59s.84-.21,1.33-.21c.46,0,.88.07,1.27.2.39.13.73.32,1.01.55s.51.53.67.88c.16.35.25.74.25,1.17,0,.34-.04.65-.12.93-.08.29-.21.58-.39.87-.18.3-.42.61-.72.94s-.67.71-1.11,1.13l-2.25,2.14h4.55v1.24h-6.38v-1.24l3.2-3.08c.34-.32.62-.61.85-.86.23-.26.42-.5.57-.72.15-.23.26-.44.32-.65.07-.21.1-.44.1-.68,0-.51-.16-.91-.48-1.22-.32-.3-.78-.46-1.37-.46s-1.02.15-1.38.44c-.36.29-.57.69-.63,1.21h-1.42Z" />
    </g>
    <g>
      <path class="d" d="M2725.18,263.66c.06-.39.18-.76.36-1.1.18-.34.42-.63.72-.88.3-.25.65-.45,1.05-.59s.84-.21,1.33-.21c.46,0,.88.07,1.27.2.39.13.73.32,1.01.55s.51.53.67.88c.16.35.25.74.25,1.17,0,.34-.04.65-.12.93-.08.29-.21.58-.39.87-.18.3-.42.61-.72.94s-.67.71-1.11,1.13l-2.25,2.14h4.55v1.24h-6.38v-1.24l3.2-3.08c.34-.32.62-.61.85-.86.23-.26.42-.5.57-.72.15-.23.26-.44.32-.65.07-.21.1-.44.1-.68,0-.51-.16-.91-.48-1.22-.32-.3-.78-.46-1.37-.46s-1.02.15-1.38.44c-.36.29-.57.69-.63,1.21h-1.42Z" />
      <path class="d" d="M2740.48,268.24c0,.42-.08.81-.25,1.16s-.4.66-.7.91c-.3.26-.67.46-1.1.6-.43.14-.91.21-1.43.21-1.03,0-1.85-.24-2.46-.73-.61-.49-.97-1.12-1.08-1.91h1.43c.11.5.34.87.67,1.13.34.26.81.39,1.4.39.67,0,1.2-.16,1.57-.49.37-.33.56-.76.56-1.29,0-.34-.06-.62-.18-.86-.12-.23-.27-.43-.46-.58-.19-.15-.4-.26-.63-.32-.23-.06-.46-.1-.68-.1h-.82v-1.17h.79c.19,0,.38-.03.57-.1.19-.06.37-.16.53-.29.16-.13.29-.3.39-.51.1-.21.15-.46.15-.74,0-.26-.05-.49-.16-.69-.11-.2-.25-.36-.42-.48-.17-.13-.37-.22-.6-.28-.23-.06-.46-.09-.7-.09-.55,0-1,.13-1.35.39-.35.26-.56.6-.63,1.02h-1.42c.06-.38.18-.73.38-1.04.2-.31.44-.57.74-.79.3-.22.65-.39,1.05-.51.4-.12.83-.18,1.3-.18.41,0,.81.05,1.19.15.38.1.72.26,1.02.47.3.21.53.48.71.8.18.32.27.71.27,1.15,0,.53-.17,1-.5,1.41-.33.4-.76.68-1.27.84.28.06.55.15.8.29.25.14.48.31.67.52s.35.46.46.75c.12.29.18.62.18.98Z" />
    </g>
    <g>
      <path class="d" d="M2775.48,263.66c.06-.39.18-.76.36-1.1.18-.34.42-.63.72-.88.3-.25.65-.45,1.05-.59s.84-.21,1.33-.21c.46,0,.88.07,1.27.2.39.13.73.32,1.01.55s.51.53.67.88c.16.35.25.74.25,1.17,0,.34-.04.65-.12.93-.08.29-.21.58-.39.87-.18.3-.42.61-.72.94s-.67.71-1.11,1.13l-2.25,2.14h4.55v1.24h-6.38v-1.24l3.2-3.08c.34-.32.62-.61.85-.86.23-.26.42-.5.57-.72.15-.23.26-.44.32-.65.07-.21.1-.44.1-.68,0-.51-.16-.91-.48-1.22-.32-.3-.78-.46-1.37-.46s-1.02.15-1.38.44c-.36.29-.57.69-.63,1.21h-1.42Z" />
      <path class="d" d="M2789.3,261.09v6.83h1.59v1.15h-1.59v1.85h-1.31v-1.85h-4.31v-1.25l4.22-6.73h1.4ZM2788,267.91v-4.65l-2.81,4.65h2.81Z" />
    </g>
  </g>
  <g>
    <rect class="h" x="1593.9" y="57.4" width="1231.33" height="182.33" />
    <path class="g" d="M2208.01,61.34v174.45c0,.55-.45,1-1,1h-41.94c-.55,0-1-.45-1-1v-11c0-.55.45-1,1-1h3.22c.55,0,1-.45,1-1v-9.67c0-.55.45-1,1-1h17.94c.55,0,1-.45,1-1v-49.78c0-.55-.45-1-1-1h-82.88c-.55,0-1,.45-1,1v49.78c0,.55.45,1,1,1h17.94c.55,0,1,.45,1,1v9.67c0,.55.45,1,1,1h3.22c.55,0,1,.45,1,1v11c0,.55-.45,1-1,1h-61.29c-.55,0-1-.45-1-1v-11c0-.55.45-1,1-1h3.22c.55,0,1-.45,1-1v-9.67c0-.55.45-1,1-1h17.94c.55,0,1-.45,1-1v-49.78c0-.55-.45-1-1-1h-82.88c-.55,0-1,.45-1,1v49.78c0,.55.45,1,1,1h17.94c.55,0,1,.45,1,1v9.67c0,.55.45,1,1,1h3.22c.55,0,1,.45,1,1v11c0,.55-.45,1-1,1h-61.29c-.55,0-1-.45-1-1v-11c0-.55.45-1,1-1h3.22c.55,0,1-.45,1-1v-9.67c0-.55.45-1,1-1h17.94c.55,0,1-.45,1-1v-49.78c0-.55-.45-1-1-1h-82.88c-.55,0-1,.45-1,1v49.78c0,.55.45,1,1,1h17.94c.55,0,1,.45,1,1v9.67c0,.55.45,1,1,1h3.22c.55,0,1,.45,1,1v11c0,.55-.45,1-1,1h-61.29c-.55,0-1-.45-1-1v-11c0-.55.45-1,1-1h3.22c.55,0,1-.45,1-1v-9.67c0-.55.45-1,1-1h17.94c.55,0,1-.45,1-1v-49.78c0-.55-.45-1-1-1h-82.88c-.55,0-1,.45-1,1v49.78c0,.55.45,1,1,1h17.94c.55,0,1,.45,1,1v9.67c0,.55.45,1,1,1h3.22c.55,0,1,.45,1,1v11c0,.55-.45,1-1,1h-61.3c-.55,0-1-.45-1-1v-11c0-.55.45-1,1-1h3.22c.55,0,1-.45,1-1v-9.67c0-.55.45-1,1-1h17.94c.55,0,1-.45,1-1v-49.78c0-.55-.45-1-1-1h-82.88c-.55,0-1,.45-1,1v49.78c0,.55.45,1,1,1h17.94c.55,0,1,.45,1,1v9.67c0,.55.45,1,1,1h3.22c.55,0,1,.45,1,1v11c0,.55-.45,1-1,1h-61.29c-.55,0-1-.45-1-1v-11c0-.55.45-1,1-1h3.22c.55,0,1-.45,1-1v-9.67c0-.55.45-1,1-1h17.94c.55,0,1-.45,1-1v-49.78c0-.55-.45-1-1-1h-82.88c-.55,0-1,.45-1,1v49.78c0,.55.45,1,1,1h17.94c.55,0,1,.45,1,1v9.67c0,.55.45,1,1,1h3.22c.55,0,1,.45,1,1v11c0,.55-.45,1-1,1h-42.02c-.55,0-1-.45-1-1V61.34c0-.55.45-1,1-1h42.02c.55,0,1,.45,1,1v11c0,.55-.45,1-1,1h-3.22c-.55,0-1,.45-1,1v9.67c0,.55-.45,1-1,1h-17.94c-.55,0-1,.45-1,1v49.78c0,.55.45,1,1,1h82.88c.55,0,1-.45,1-1v-49.78c0-.55-.45-1-1-1h-17.94c-.55,0-1-.45-1-1v-9.67c0-.55-.45-1-1-1h-3.22c-.55,0-1-.45-1-1v-11c0-.55.45-1,1-1h61.29c.55,0,1,.45,1,1v11c0,.55-.45,1-1,1h-3.22c-.55,0-1,.45-1,1v9.67c0,.55-.45,1-1,1h-17.94c-.55,0-1,.45-1,1v49.78c0,.55.45,1,1,1h82.88c.55,0,1-.45,1-1v-49.78c0-.55-.45-1-1-1h-17.94c-.55,0-1-.45-1-1v-9.67c0-.55-.45-1-1-1h-3.22c-.55,0-1-.45-1-1v-11c0-.55.45-1,1-1h61.3c.55,0,1,.45,1,1v11c0,.55-.45,1-1,1h-3.22c-.55,0-1,.45-1,1v9.67c0,.55-.45,1-1,1h-17.94c-.55,0-1,.45-1,1v49.78c0,.55.45,1,1,1h82.88c.55,0,1-.45,1-1v-49.78c0-.55-.45-1-1-1h-17.94c-.55,0-1-.45-1-1v-9.67c0-.55-.45-1-1-1h-3.22c-.55,0-1-.45-1-1v-11c0-.55.45-1,1-1h61.29c.55,0,1,.45,1,1v11c0,.55-.45,1-1,1h-3.22c-.55,0-1,.45-1,1v9.67c0,.55-.45,1-1,1h-17.94c-.55,0-1,.45-1,1v49.78c0,.55.45,1,1,1h82.88c.55,0,1-.45,1-1v-49.78c0-.55-.45-1-1-1h-17.94c-.55,0-1-.45-1-1v-9.67c0-.55-.45-1-1-1h-3.22c-.55,0-1-.45-1-1v-11c0-.55.45-1,1-1h61.29c.55,0,1,.45,1,1v11c0,.55-.45,1-1,1h-3.22c-.55,0-1,.45-1,1v9.67c0,.55-.45,1-1,1h-17.94c-.55,0-1,.45-1,1v49.78c0,.55.45,1,1,1h82.88c.55,0,1-.45,1-1v-49.78c0-.55-.45-1-1-1h-17.94c-.55,0-1-.45-1-1v-9.67c0-.55-.45-1-1-1h-3.22c-.55,0-1-.45-1-1v-11c0-.55.45-1,1-1h61.29c.55,0,1,.45,1,1v11c0,.55-.45,1-1,1h-3.22c-.55,0-1,.45-1,1v9.67c0,.55-.45,1-1,1h-17.94c-.55,0-1,.45-1,1v49.78c0,.55.45,1,1,1h82.88c.55,0,1-.45,1-1v-49.78c0-.55-.45-1-1-1h-17.94c-.55,0-1-.45-1-1v-9.67c0-.55-.45-1-1-1h-3.22c-.55,0-1-.45-1-1v-11c0-.55.45-1,1-1h41.94c.55,0,1,.45,1,1Z" />
    <path class="g" d="M2822.9,61.34v174.45c0,.55-.45,1-1,1h-41.94c-.55,0-1-.45-1-1v-11c0-.55.45-1,1-1h3.22c.55,0,1-.45,1-1v-9.67c0-.55.45-1,1-1h17.94c.55,0,1-.45,1-1v-49.78c0-.55-.45-1-1-1h-82.88c-.55,0-1,.45-1,1v49.78c0,.55.45,1,1,1h17.94c.55,0,1,.45,1,1v9.67c0,.55.45,1,1,1h3.22c.55,0,1,.45,1,1v11c0,.55-.45,1-1,1h-61.29c-.55,0-1-.45-1-1v-11c0-.55.45-1,1-1h3.22c.55,0,1-.45,1-1v-9.67c0-.55.45-1,1-1h17.94c.55,0,1-.45,1-1v-49.78c0-.55-.45-1-1-1h-82.88c-.55,0-1,.45-1,1v49.78c0,.55.45,1,1,1h17.94c.55,0,1,.45,1,1v9.67c0,.55.45,1,1,1h3.22c.55,0,1,.45,1,1v11c0,.55-.45,1-1,1h-61.29c-.55,0-1-.45-1-1v-11c0-.55.45-1,1-1h3.22c.55,0,1-.45,1-1v-9.67c0-.55.45-1,1-1h17.94c.55,0,1-.45,1-1v-49.78c0-.55-.45-1-1-1h-82.88c-.55,0-1,.45-1,1v49.78c0,.55.45,1,1,1h17.94c.55,0,1,.45,1,1v9.67c0,.55.45,1,1,1h3.22c.55,0,1,.45,1,1v11c0,.55-.45,1-1,1h-61.29c-.55,0-1-.45-1-1v-11c0-.55.45-1,1-1h3.22c.55,0,1-.45,1-1v-9.67c0-.55.45-1,1-1h17.94c.55,0,1-.45,1-1v-49.78c0-.55-.45-1-1-1h-82.88c-.55,0-1,.45-1,1v49.78c0,.55.45,1,1,1h17.94c.55,0,1,.45,1,1v9.67c0,.55.45,1,1,1h3.22c.55,0,1,.45,1,1v11c0,.55-.45,1-1,1h-61.3c-.55,0-1-.45-1-1v-11c0-.55.45-1,1-1h3.22c.55,0,1-.45,1-1v-9.67c0-.55.45-1,1-1h17.94c.55,0,1-.45,1-1v-49.78c0-.55-.45-1-1-1h-82.88c-.55,0-1,.45-1,1v49.78c0,.55.45,1,1,1h17.94c.55,0,1,.45,1,1v9.67c0,.55.45,1,1,1h3.22c.55,0,1,.45,1,1v11c0,.55-.45,1-1,1h-61.29c-.55,0-1-.45-1-1v-11c0-.55.45-1,1-1h3.22c.55,0,1-.45,1-1v-9.67c0-.55.45-1,1-1h17.94c.55,0,1-.45,1-1v-49.78c0-.55-.45-1-1-1h-82.88c-.55,0-1,.45-1,1v49.78c0,.55.45,1,1,1h17.94c.55,0,1,.45,1,1v9.67c0,.55.45,1,1,1h3.22c.55,0,1,.45,1,1v11c0,.55-.45,1-1,1h-42.02c-.55,0-1-.45-1-1V61.34c0-.55.45-1,1-1h42.02c.55,0,1,.45,1,1v11c0,.55-.45,1-1,1h-3.22c-.55,0-1,.45-1,1v9.67c0,.55-.45,1-1,1h-17.94c-.55,0-1,.45-1,1v49.78c0,.55.45,1,1,1h82.88c.55,0,1-.45,1-1v-49.78c0-.55-.45-1-1-1h-17.94c-.55,0-1-.45-1-1v-9.67c0-.55-.45-1-1-1h-3.22c-.55,0-1-.45-1-1v-11c0-.55.45-1,1-1h61.29c.55,0,1,.45,1,1v11c0,.55-.45,1-1,1h-3.22c-.55,0-1,.45-1,1v9.67c0,.55-.45,1-1,1h-17.94c-.55,0-1,.45-1,1v49.78c0,.55.45,1,1,1h82.88c.55,0,1-.45,1-1v-49.78c0-.55-.45-1-1-1h-17.94c-.55,0-1-.45-1-1v-9.67c0-.55-.45-1-1-1h-3.22c-.55,0-1-.45-1-1v-11c0-.55.45-1,1-1h61.3c.55,0,1,.45,1,1v11c0,.55-.45,1-1,1h-3.22c-.55,0-1,.45-1,1v9.67c0,.55-.45,1-1,1h-17.94c-.55,0-1,.45-1,1v49.78c0,.55.45,1,1,1h82.88c.55,0,1-.45,1-1v-49.78c0-.55-.45-1-1-1h-17.94c-.55,0-1-.45-1-1v-9.67c0-.55-.45-1-1-1h-3.22c-.55,0-1-.45-1-1v-11c0-.55.45-1,1-1h61.29c.55,0,1,.45,1,1v11c0,.55-.45,1-1,1h-3.22c-.55,0-1,.45-1,1v9.67c0,.55-.45,1-1,1h-17.94c-.55,0-1,.45-1,1v49.78c0,.55.45,1,1,1h82.88c.55,0,1-.45,1-1v-49.78c0-.55-.45-1-1-1h-17.94c-.55,0-1-.45-1-1v-9.67c0-.55-.45-1-1-1h-3.22c-.55,0-1-.45-1-1v-11c0-.55.45-1,1-1h61.29c.55,0,1,.45,1,1v11c0,.55-.45,1-1,1h-3.22c-.55,0-1,.45-1,1v9.67c0,.55-.45,1-1,1h-17.94c-.55,0-1,.45-1,1v49.78c0,.55.45,1,1,1h82.88c.55,0,1-.45,1-1v-49.78c0-.55-.45-1-1-1h-17.94c-.55,0-1-.45-1-1v-9.67c0-.55-.45-1-1-1h-3.22c-.55,0-1-.45-1-1v-11c0-.55.45-1,1-1h61.29c.55,0,1,.45,1,1v11c0,.55-.45,1-1,1h-3.22c-.55,0-1,.45-1,1v9.67c0,.55-.45,1-1,1h-17.94c-.55,0-1,.45-1,1v49.78c0,.55.45,1,1,1h82.88c.55,0,1-.45,1-1v-49.78c0-.55-.45-1-1-1h-17.94c-.55,0-1-.45-1-1v-9.67c0-.55-.45-1-1-1h-3.22c-.55,0-1-.45-1-1v-11c0-.55.45-1,1-1h41.94c.55,0,1,.45,1,1Z" />
    <g>
      <g>
        <rect class="j" x="1683.76" y="69.46" width="19.33" height="11.22" rx=".88" ry=".88" />
        <rect class="k" x="1611.98" y="69.46" width="19.33" height="11.22" rx=".88" ry=".88" />
      </g>
      <g>
        <rect class="j" x="1781.61" y="69.46" width="19.33" height="11.22" rx=".88" ry=".88" />
        <rect class="k" x="1709.83" y="69.46" width="19.33" height="11.22" rx=".88" ry=".88" />
      </g>
      <g>
        <rect class="j" x="1879.46" y="69.46" width="19.33" height="11.22" rx=".88" ry=".88" />
        <rect class="k" x="1807.68" y="69.46" width="19.33" height="11.22" rx=".88" ry=".88" />
      </g>
      <g>
        <rect class="j" x="1977.31" y="69.46" width="19.33" height="11.22" rx=".88" ry=".88" />
        <rect class="k" x="1905.54" y="69.46" width="19.33" height="11.22" rx=".88" ry=".88" />
      </g>
      <g>
        <rect class="j" x="2075.17" y="69.46" width="19.33" height="11.22" rx=".88" ry=".88" />
        <rect class="k" x="2003.39" y="69.46" width="19.33" height="11.22" rx=".88" ry=".88" />
      </g>
      <g>
        <rect class="j" x="2173.02" y="69.46" width="19.33" height="11.22" rx=".88" ry=".88" />
        <rect class="k" x="2101.24" y="69.46" width="19.33" height="11.22" rx=".88" ry=".88" />
      </g>
      <g>
        <rect class="j" x="1683.76" y="216.46" width="19.33" height="11.22" rx=".88" ry=".88" />
        <rect class="k" x="1611.98" y="216.46" width="19.33" height="11.22" rx=".88" ry=".88" />
      </g>
      <g>
        <rect class="j" x="1781.61" y="216.46" width="19.33" height="11.22" rx=".88" ry=".88" />
        <rect class="k" x="1709.83" y="216.46" width="19.33" height="11.22" rx=".88" ry=".88" />
      </g>
      <g>
        <rect class="j" x="1879.46" y="216.46" width="19.33" height="11.22" rx=".88" ry=".88" />
        <rect class="k" x="1807.68" y="216.46" width="19.33" height="11.22" rx=".88" ry=".88" />
      </g>
      <g>
        <rect class="j" x="1977.31" y="216.46" width="19.33" height="11.22" rx=".88" ry=".88" />
        <rect class="k" x="1905.54" y="216.46" width="19.33" height="11.22" rx=".88" ry=".88" />
      </g>
      <g>
        <rect class="j" x="2075.17" y="216.46" width="19.33" height="11.22" rx=".88" ry=".88" />
        <rect class="k" x="2003.39" y="216.46" width="19.33" height="11.22" rx=".88" ry=".88" />
      </g>
      <g>
        <rect class="j" x="2173.02" y="216.46" width="19.33" height="11.22" rx=".88" ry=".88" />
        <rect class="k" x="2101.24" y="216.46" width="19.33" height="11.22" rx=".88" ry=".88" />
      </g>
    </g>
    <g>
      <g>
        <rect class="j" x="2298.6" y="69.46" width="19.33" height="11.22" rx=".88" ry=".88" />
        <rect class="k" x="2226.83" y="69.46" width="19.33" height="11.22" rx=".88" ry=".88" />
      </g>
      <g>
        <rect class="j" x="2396.46" y="69.46" width="19.33" height="11.22" rx=".88" ry=".88" />
        <rect class="k" x="2324.68" y="69.46" width="19.33" height="11.22" rx=".88" ry=".88" />
      </g>
      <g>
        <rect class="j" x="2494.31" y="69.46" width="19.33" height="11.22" rx=".88" ry=".88" />
        <rect class="k" x="2422.53" y="69.46" width="19.33" height="11.22" rx=".88" ry=".88" />
      </g>
      <g>
        <rect class="j" x="2592.16" y="69.46" width="19.33" height="11.22" rx=".88" ry=".88" />
        <rect class="k" x="2520.38" y="69.46" width="19.33" height="11.22" rx=".88" ry=".88" />
      </g>
      <g>
        <rect class="j" x="2690.01" y="69.46" width="19.33" height="11.22" rx=".88" ry=".88" />
        <rect class="k" x="2618.24" y="69.46" width="19.33" height="11.22" rx=".88" ry=".88" />
      </g>
      <g>
        <rect class="j" x="2787.87" y="69.46" width="19.33" height="11.22" rx=".88" ry=".88" />
        <rect class="k" x="2716.09" y="69.46" width="19.33" height="11.22" rx=".88" ry=".88" />
      </g>
      <g>
        <rect class="j" x="2298.6" y="216.46" width="19.33" height="11.22" rx=".88" ry=".88" />
        <rect class="k" x="2226.83" y="216.46" width="19.33" height="11.22" rx=".88" ry=".88" />
      </g>
      <g>
        <rect class="j" x="2396.46" y="216.46" width="19.33" height="11.22" rx=".88" ry=".88" />
        <rect class="k" x="2324.68" y="216.46" width="19.33" height="11.22" rx=".88" ry=".88" />
      </g>
      <g>
        <rect class="j" x="2494.31" y="216.46" width="19.33" height="11.22" rx=".88" ry=".88" />
        <rect class="k" x="2422.53" y="216.46" width="19.33" height="11.22" rx=".88" ry=".88" />
      </g>
      <g>
        <rect class="j" x="2592.16" y="216.46" width="19.33" height="11.22" rx=".88" ry=".88" />
        <rect class="k" x="2520.38" y="216.46" width="19.33" height="11.22" rx=".88" ry=".88" />
      </g>
      <g>
        <rect class="j" x="2690.01" y="216.46" width="19.33" height="11.22" rx=".88" ry=".88" />
        <rect class="k" x="2618.24" y="216.46" width="19.33" height="11.22" rx=".88" ry=".88" />
      </g>
      <g>
        <rect class="j" x="2787.87" y="216.46" width="19.33" height="11.22" rx=".88" ry=".88" />
        <rect class="k" x="2716.09" y="216.46" width="19.33" height="11.22" rx=".88" ry=".88" />
      </g>
    </g>
  </g>
  <g id="b" data-name="lights">
    <circle class="m" cx="230.97" cy="96.01" r="6.17" />
    <circle class="f" cx="230.97" cy="209.62" r="5.44" />
    <path class="f" d="M231.85,229.6v-3.24l-4.73,3.74,4.73,3.74v-3.24c4.7,0,8.53,3.83,8.53,8.53s-3.83,8.53-8.53,8.53-8.53-3.83-8.53-8.53h-1c0,5.25,4.27,9.53,9.53,9.53s9.53-4.27,9.53-9.53-4.27-9.53-9.53-9.53Z" />
  </g>
  <g>
    <rect class="h" x="2848.27" y="57.4" width="207.86" height="182.33" />
    <rect class="g" x="2849.37" y="58.87" width="205.66" height="179.39" rx=".95" ry=".95" />
    <g>
      <polygon class="e" points="2950.55 61.74 2851.69 61.74 2851.69 125.15 2880.1 125.15 2880.1 132.2 2922.15 132.2 2922.15 125.15 2950.55 125.15 2950.55 61.74" />
      <path class="i" d="M2883.73,120.42h34.79v1.86c0,2.01-1.63,3.65-3.65,3.65h-27.5c-2.01,0-3.65-1.63-3.65-3.65v-1.86h0Z" />
    </g>
    <g>
      <polygon class="e" points="2851.69 235.24 2950.55 235.24 2950.55 171.83 2922.15 171.83 2922.15 164.79 2880.1 164.79 2880.1 171.83 2851.69 171.83 2851.69 235.24" />
      <path class="i" d="M2883.73,171.06h34.79v1.86c0,2.01-1.63,3.65-3.65,3.65h-27.5c-2.01,0-3.65-1.63-3.65-3.65v-1.86h0Z" transform="translate(5802.25 347.63) rotate(180)" />
    </g>
    <g>
      <polygon class="n" points="2894.93 155.92 2882.38 155.92 2888.66 140.57 2888.66 140.57 2894.93 155.92" />
      <polygon class="n" points="2907.32 140.57 2919.87 140.57 2913.59 155.92 2913.59 155.92 2907.32 140.57" />
    </g>
    <g>
      <polygon class="e" points="2953.42 61.74 3052.28 61.74 3052.28 125.15 3023.88 125.15 3023.88 132.2 2981.82 132.2 2981.82 125.15 2953.42 125.15 2953.42 61.74" />
      <path class="i" d="M2989.1,120.42h27.5c2.01,0,3.65,1.63,3.65,3.65v1.86h-34.79v-1.86c0-2.01,1.63-3.65,3.65-3.65Z" transform="translate(6005.7 246.34) rotate(180)" />
    </g>
    <g>
      <polygon class="e" points="3052.28 235.24 2953.42 235.24 2953.42 171.83 2981.82 171.83 2981.82 164.79 3023.88 164.79 3023.88 171.83 3052.28 171.83 3052.28 235.24" />
      <path class="i" d="M2989.1,171.06h27.5c2.01,0,3.65,1.63,3.65,3.65v1.86h-34.79v-1.86c0-2.01,1.63-3.65,3.65-3.65Z" />
    </g>
    <g>
      <polygon class="n" points="3009.04 140.57 3021.59 140.57 3015.32 155.92 3015.32 155.92 3009.04 140.57" />
      <polygon class="n" points="2996.66 155.92 2984.11 155.92 2990.38 140.57 2990.38 140.57 2996.66 155.92" />
    </g>
  </g>
  <g>
    <path class="f" d="M2231.94,133.5v-45.41c0-.65.53-1.18,1.18-1.18h17.57c.65,0,1.18-.53,1.18-1.18v-9.3c0-.65.53-1.18,1.18-1.18h2.85c.65,0,1.18-.53,1.18-1.18v-9.63c0-.65.53-1.18,1.18-1.18h28.19c.65,0,1.18.53,1.18,1.18v9.63c0,.65.53,1.18,1.18,1.18h2.85c.65,0,1.18.53,1.18,1.18v9.3c0,.65.53,1.18,1.18,1.18h17.57c.65,0,1.18.53,1.18,1.18v45.41c0,.65-.53,1.18-1.18,1.18h-78.51c-.65,0-1.18-.53-1.18-1.18Z" />
    <path class="f" d="M2329.8,133.5v-45.41c0-.65.53-1.18,1.18-1.18h17.57c.65,0,1.18-.53,1.18-1.18v-9.3c0-.65.53-1.18,1.18-1.18h2.85c.65,0,1.18-.53,1.18-1.18v-9.63c0-.65.53-1.18,1.18-1.18h28.19c.65,0,1.18.53,1.18,1.18v9.63c0,.65.53,1.18,1.18,1.18h2.85c.65,0,1.18.53,1.18,1.18v9.3c0,.65.53,1.18,1.18,1.18h17.57c.65,0,1.18.53,1.18,1.18v45.41c0,.65-.53,1.18-1.18,1.18h-78.51c-.65,0-1.18-.53-1.18-1.18Z" />
    <path class="f" d="M2427.65,133.5v-45.41c0-.65.53-1.18,1.18-1.18h17.57c.65,0,1.18-.53,1.18-1.18v-9.3c0-.65.53-1.18,1.18-1.18h2.85c.65,0,1.18-.53,1.18-1.18v-9.63c0-.65.53-1.18,1.18-1.18h28.19c.65,0,1.18.53,1.18,1.18v9.63c0,.65.53,1.18,1.18,1.18h2.85c.65,0,1.18.53,1.18,1.18v9.3c0,.65.53,1.18,1.18,1.18h17.57c.65,0,1.18.53,1.18,1.18v45.41c0,.65-.53,1.18-1.18,1.18h-78.51c-.65,0-1.18-.53-1.18-1.18Z" />
    <path class="f" d="M2525.5,133.5v-45.41c0-.65.53-1.18,1.18-1.18h17.57c.65,0,1.18-.53,1.18-1.18v-9.3c0-.65.53-1.18,1.18-1.18h2.85c.65,0,1.18-.53,1.18-1.18v-9.63c0-.65.53-1.18,1.18-1.18h28.19c.65,0,1.18.53,1.18,1.18v9.63c0,.65.53,1.18,1.18,1.18h2.85c.65,0,1.18.53,1.18,1.18v9.3c0,.65.53,1.18,1.18,1.18h17.57c.65,0,1.18.53,1.18,1.18v45.41c0,.65-.53,1.18-1.18,1.18h-78.51c-.65,0-1.18-.53-1.18-1.18Z" />
    <path class="f" d="M2623.35,133.5v-45.41c0-.65.53-1.18,1.18-1.18h17.57c.65,0,1.18-.53,1.18-1.18v-9.3c0-.65.53-1.18,1.18-1.18h2.85c.65,0,1.18-.53,1.18-1.18v-9.63c0-.65.53-1.18,1.18-1.18h28.19c.65,0,1.18.53,1.18,1.18v9.63c0,.65.53,1.18,1.18,1.18h2.85c.65,0,1.18.53,1.18,1.18v9.3c0,.65.53,1.18,1.18,1.18h17.57c.65,0,1.18.53,1.18,1.18v45.41c0,.65-.53,1.18-1.18,1.18h-78.51c-.65,0-1.18-.53-1.18-1.18Z" />
    <path class="f" d="M2721.2,133.5v-45.41c0-.65.53-1.18,1.18-1.18h17.57c.65,0,1.18-.53,1.18-1.18v-9.3c0-.65.53-1.18,1.18-1.18h2.85c.65,0,1.18-.53,1.18-1.18v-9.63c0-.65.53-1.18,1.18-1.18h28.19c.65,0,1.18.53,1.18,1.18v9.63c0,.65.53,1.18,1.18,1.18h2.85c.65,0,1.18.53,1.18,1.18v9.3c0,.65.53,1.18,1.18,1.18h17.57c.65,0,1.18.53,1.18,1.18v45.41c0,.65-.53,1.18-1.18,1.18h-78.51c-.65,0-1.18-.53-1.18-1.18Z" />
    <path class="f" d="M2231.94,163.64v45.41c0,.65.53,1.18,1.18,1.18h17.57c.65,0,1.18.53,1.18,1.18v9.3c0,.65.53,1.18,1.18,1.18h2.85c.65,0,1.18.53,1.18,1.18v9.63c0,.65.53,1.18,1.18,1.18h28.19c.65,0,1.18-.53,1.18-1.18v-9.63c0-.65.53-1.18,1.18-1.18h2.85c.65,0,1.18-.53,1.18-1.18v-9.3c0-.65.53-1.18,1.18-1.18h17.57c.65,0,1.18-.53,1.18-1.18v-45.41c0-.65-.53-1.18-1.18-1.18h-78.51c-.65,0-1.18.53-1.18,1.18Z" />
    <path class="f" d="M2329.8,163.64v45.41c0,.65.53,1.18,1.18,1.18h17.57c.65,0,1.18.53,1.18,1.18v9.3c0,.65.53,1.18,1.18,1.18h2.85c.65,0,1.18.53,1.18,1.18v9.63c0,.65.53,1.18,1.18,1.18h28.19c.65,0,1.18-.53,1.18-1.18v-9.63c0-.65.53-1.18,1.18-1.18h2.85c.65,0,1.18-.53,1.18-1.18v-9.3c0-.65.53-1.18,1.18-1.18h17.57c.65,0,1.18-.53,1.18-1.18v-45.41c0-.65-.53-1.18-1.18-1.18h-78.51c-.65,0-1.18.53-1.18,1.18Z" />
    <path class="f" d="M2427.65,163.64v45.41c0,.65.53,1.18,1.18,1.18h17.57c.65,0,1.18.53,1.18,1.18v9.3c0,.65.53,1.18,1.18,1.18h2.85c.65,0,1.18.53,1.18,1.18v9.63c0,.65.53,1.18,1.18,1.18h28.19c.65,0,1.18-.53,1.18-1.18v-9.63c0-.65.53-1.18,1.18-1.18h2.85c.65,0,1.18-.53,1.18-1.18v-9.3c0-.65.53-1.18,1.18-1.18h17.57c.65,0,1.18-.53,1.18-1.18v-45.41c0-.65-.53-1.18-1.18-1.18h-78.51c-.65,0-1.18.53-1.18,1.18Z" />
    <path class="f" d="M2525.5,163.64v45.41c0,.65.53,1.18,1.18,1.18h17.57c.65,0,1.18.53,1.18,1.18v9.3c0,.65.53,1.18,1.18,1.18h2.85c.65,0,1.18.53,1.18,1.18v9.63c0,.65.53,1.18,1.18,1.18h28.19c.65,0,1.18-.53,1.18-1.18v-9.63c0-.65.53-1.18,1.18-1.18h2.85c.65,0,1.18-.53,1.18-1.18v-9.3c0-.65.53-1.18,1.18-1.18h17.57c.65,0,1.18-.53,1.18-1.18v-45.41c0-.65-.53-1.18-1.18-1.18h-78.51c-.65,0-1.18.53-1.18,1.18Z" />
    <path class="f" d="M2623.35,163.64v45.41c0,.65.53,1.18,1.18,1.18h17.57c.65,0,1.18.53,1.18,1.18v9.3c0,.65.53,1.18,1.18,1.18h2.85c.65,0,1.18.53,1.18,1.18v9.63c0,.65.53,1.18,1.18,1.18h28.19c.65,0,1.18-.53,1.18-1.18v-9.63c0-.65.53-1.18,1.18-1.18h2.85c.65,0,1.18-.53,1.18-1.18v-9.3c0-.65.53-1.18,1.18-1.18h17.57c.65,0,1.18-.53,1.18-1.18v-45.41c0-.65-.53-1.18-1.18-1.18h-78.51c-.65,0-1.18.53-1.18,1.18Z" />
    <path class="f" d="M2721.2,163.64v45.41c0,.65.53,1.18,1.18,1.18h17.57c.65,0,1.18.53,1.18,1.18v9.3c0,.65.53,1.18,1.18,1.18h2.85c.65,0,1.18.53,1.18,1.18v9.63c0,.65.53,1.18,1.18,1.18h28.19c.65,0,1.18-.53,1.18-1.18v-9.63c0-.65.53-1.18,1.18-1.18h2.85c.65,0,1.18-.53,1.18-1.18v-9.3c0-.65.53-1.18,1.18-1.18h17.57c.65,0,1.18-.53,1.18-1.18v-45.41c0-.65-.53-1.18-1.18-1.18h-78.51c-.65,0-1.18.53-1.18,1.18Z" />
    <g>
      <path class="f" d="M1617.1,133.5v-45.41c0-.65.53-1.18,1.18-1.18h17.57c.65,0,1.18-.53,1.18-1.18v-9.3c0-.65.53-1.18,1.18-1.18h2.85c.65,0,1.18-.53,1.18-1.18v-9.63c0-.65.53-1.18,1.18-1.18h28.19c.65,0,1.18.53,1.18,1.18v9.63c0,.65.53,1.18,1.18,1.18h2.85c.65,0,1.18.53,1.18,1.18v9.3c0,.65.53,1.18,1.18,1.18h17.57c.65,0,1.18.53,1.18,1.18v45.41c0,.65-.53,1.18-1.18,1.18h-78.51c-.65,0-1.18-.53-1.18-1.18Z" />
      <path class="f" d="M1714.95,133.5v-45.41c0-.65.53-1.18,1.18-1.18h17.57c.65,0,1.18-.53,1.18-1.18v-9.3c0-.65.53-1.18,1.18-1.18h2.85c.65,0,1.18-.53,1.18-1.18v-9.63c0-.65.53-1.18,1.18-1.18h28.19c.65,0,1.18.53,1.18,1.18v9.63c0,.65.53,1.18,1.18,1.18h2.85c.65,0,1.18.53,1.18,1.18v9.3c0,.65.53,1.18,1.18,1.18h17.57c.65,0,1.18.53,1.18,1.18v45.41c0,.65-.53,1.18-1.18,1.18h-78.51c-.65,0-1.18-.53-1.18-1.18Z" />
      <path class="f" d="M1812.8,133.5v-45.41c0-.65.53-1.18,1.18-1.18h17.57c.65,0,1.18-.53,1.18-1.18v-9.3c0-.65.53-1.18,1.18-1.18h2.85c.65,0,1.18-.53,1.18-1.18v-9.63c0-.65.53-1.18,1.18-1.18h28.19c.65,0,1.18.53,1.18,1.18v9.63c0,.65.53,1.18,1.18,1.18h2.85c.65,0,1.18.53,1.18,1.18v9.3c0,.65.53,1.18,1.18,1.18h17.57c.65,0,1.18.53,1.18,1.18v45.41c0,.65-.53,1.18-1.18,1.18h-78.51c-.65,0-1.18-.53-1.18-1.18Z" />
      <path class="f" d="M1910.65,133.5v-45.41c0-.65.53-1.18,1.18-1.18h17.57c.65,0,1.18-.53,1.18-1.18v-9.3c0-.65.53-1.18,1.18-1.18h2.85c.65,0,1.18-.53,1.18-1.18v-9.63c0-.65.53-1.18,1.18-1.18h28.19c.65,0,1.18.53,1.18,1.18v9.63c0,.65.53,1.18,1.18,1.18h2.85c.65,0,1.18.53,1.18,1.18v9.3c0,.65.53,1.18,1.18,1.18h17.57c.65,0,1.18.53,1.18,1.18v45.41c0,.65-.53,1.18-1.18,1.18h-78.51c-.65,0-1.18-.53-1.18-1.18Z" />
      <path class="f" d="M2008.5,133.5v-45.41c0-.65.53-1.18,1.18-1.18h17.57c.65,0,1.18-.53,1.18-1.18v-9.3c0-.65.53-1.18,1.18-1.18h2.85c.65,0,1.18-.53,1.18-1.18v-9.63c0-.65.53-1.18,1.18-1.18h28.19c.65,0,1.18.53,1.18,1.18v9.63c0,.65.53,1.18,1.18,1.18h2.85c.65,0,1.18.53,1.18,1.18v9.3c0,.65.53,1.18,1.18,1.18h17.57c.65,0,1.18.53,1.18,1.18v45.41c0,.65-.53,1.18-1.18,1.18h-78.51c-.65,0-1.18-.53-1.18-1.18Z" />
      <path class="f" d="M2106.35,133.5v-45.41c0-.65.53-1.18,1.18-1.18h17.57c.65,0,1.18-.53,1.18-1.18v-9.3c0-.65.53-1.18,1.18-1.18h2.85c.65,0,1.18-.53,1.18-1.18v-9.63c0-.65.53-1.18,1.18-1.18h28.19c.65,0,1.18.53,1.18,1.18v9.63c0,.65.53,1.18,1.18,1.18h2.85c.65,0,1.18.53,1.18,1.18v9.3c0,.65.53,1.18,1.18,1.18h17.57c.65,0,1.18.53,1.18,1.18v45.41c0,.65-.53,1.18-1.18,1.18h-78.51c-.65,0-1.18-.53-1.18-1.18Z" />
      <path class="f" d="M1617.1,163.64v45.41c0,.65.53,1.18,1.18,1.18h17.57c.65,0,1.18.53,1.18,1.18v9.3c0,.65.53,1.18,1.18,1.18h2.85c.65,0,1.18.53,1.18,1.18v9.63c0,.65.53,1.18,1.18,1.18h28.19c.65,0,1.18-.53,1.18-1.18v-9.63c0-.65.53-1.18,1.18-1.18h2.85c.65,0,1.18-.53,1.18-1.18v-9.3c0-.65.53-1.18,1.18-1.18h17.57c.65,0,1.18-.53,1.18-1.18v-45.41c0-.65-.53-1.18-1.18-1.18h-78.51c-.65,0-1.18.53-1.18,1.18Z" />
      <path class="f" d="M1714.95,163.64v45.41c0,.65.53,1.18,1.18,1.18h17.57c.65,0,1.18.53,1.18,1.18v9.3c0,.65.53,1.18,1.18,1.18h2.85c.65,0,1.18.53,1.18,1.18v9.63c0,.65.53,1.18,1.18,1.18h28.19c.65,0,1.18-.53,1.18-1.18v-9.63c0-.65.53-1.18,1.18-1.18h2.85c.65,0,1.18-.53,1.18-1.18v-9.3c0-.65.53-1.18,1.18-1.18h17.57c.65,0,1.18-.53,1.18-1.18v-45.41c0-.65-.53-1.18-1.18-1.18h-78.51c-.65,0-1.18.53-1.18,1.18Z" />
      <path class="f" d="M1812.8,163.64v45.41c0,.65.53,1.18,1.18,1.18h17.57c.65,0,1.18.53,1.18,1.18v9.3c0,.65.53,1.18,1.18,1.18h2.85c.65,0,1.18.53,1.18,1.18v9.63c0,.65.53,1.18,1.18,1.18h28.19c.65,0,1.18-.53,1.18-1.18v-9.63c0-.65.53-1.18,1.18-1.18h2.85c.65,0,1.18-.53,1.18-1.18v-9.3c0-.65.53-1.18,1.18-1.18h17.57c.65,0,1.18-.53,1.18-1.18v-45.41c0-.65-.53-1.18-1.18-1.18h-78.51c-.65,0-1.18.53-1.18,1.18Z" />
      <path class="f" d="M1910.65,163.64v45.41c0,.65.53,1.18,1.18,1.18h17.57c.65,0,1.18.53,1.18,1.18v9.3c0,.65.53,1.18,1.18,1.18h2.85c.65,0,1.18.53,1.18,1.18v9.63c0,.65.53,1.18,1.18,1.18h28.19c.65,0,1.18-.53,1.18-1.18v-9.63c0-.65.53-1.18,1.18-1.18h2.85c.65,0,1.18-.53,1.18-1.18v-9.3c0-.65.53-1.18,1.18-1.18h17.57c.65,0,1.18-.53,1.18-1.18v-45.41c0-.65-.53-1.18-1.18-1.18h-78.51c-.65,0-1.18.53-1.18,1.18Z" />
      <path class="f" d="M2008.5,163.64v45.41c0,.65.53,1.18,1.18,1.18h17.57c.65,0,1.18.53,1.18,1.18v9.3c0,.65.53,1.18,1.18,1.18h2.85c.65,0,1.18.53,1.18,1.18v9.63c0,.65.53,1.18,1.18,1.18h28.19c.65,0,1.18-.53,1.18-1.18v-9.63c0-.65.53-1.18,1.18-1.18h2.85c.65,0,1.18-.53,1.18-1.18v-9.3c0-.65.53-1.18,1.18-1.18h17.57c.65,0,1.18-.53,1.18-1.18v-45.41c0-.65-.53-1.18-1.18-1.18h-78.51c-.65,0-1.18.53-1.18,1.18Z" />
      <path class="f" d="M2106.35,163.64v45.41c0,.65.53,1.18,1.18,1.18h17.57c.65,0,1.18.53,1.18,1.18v9.3c0,.65.53,1.18,1.18,1.18h2.85c.65,0,1.18.53,1.18,1.18v9.63c0,.65.53,1.18,1.18,1.18h28.19c.65,0,1.18-.53,1.18-1.18v-9.63c0-.65.53-1.18,1.18-1.18h2.85c.65,0,1.18-.53,1.18-1.18v-9.3c0-.65.53-1.18,1.18-1.18h17.57c.65,0,1.18-.53,1.18-1.18v-45.41c0-.65-.53-1.18-1.18-1.18h-78.51c-.65,0-1.18.53-1.18,1.18Z" />
    </g>
  </g>
  <g id="c" data-name="logo.cisco">
    <polygon class="d" points="3155.12 239.35 3149.13 239.35 3149.13 217.62 3155.12 217.62 3155.12 239.35 3155.12 239.35" />
    <path class="d" d="M3203.31,223.84c-.25-.11-2.18-1.16-5.03-1.16-3.87,0-6.55,2.47-6.55,5.79,0,3.24,2.56,5.8,6.55,5.8,2.81,0,4.77-1.02,5.03-1.15v5.83c-.75.2-2.8.78-5.45.78-6.73,0-12.63-4.25-12.63-11.26,0-6.48,5.34-11.24,12.63-11.24,2.8,0,4.88.62,5.45.78v5.83h0Z" />
    <path class="d" d="M3140.93,223.84c-.24-.11-2.16-1.16-5.02-1.16-3.87,0-6.55,2.47-6.55,5.79,0,3.24,2.56,5.8,6.55,5.8,2.81,0,4.77-1.02,5.02-1.15v5.83c-.74.2-2.79.78-5.46.78-6.72,0-12.6-4.25-12.6-11.26,0-6.48,5.33-11.24,12.6-11.24,2.83,0,4.89.62,5.46.78v5.83h0Z" />
    <path class="d" d="M3234.61,228.48c0,6.22-5.23,11.26-12.51,11.26-7.28,0-12.5-5.04-12.5-11.26,0-6.2,5.22-11.24,12.5-11.24,7.28,0,12.51,5.04,12.51,11.24h0ZM3222.09,222.77c-3.54,0-6.17,2.55-6.17,5.71s2.63,5.72,6.17,5.72,6.18-2.55,6.18-5.72c0-3.15-2.64-5.71-6.18-5.71h0Z" />
    <path class="d" d="M3177.77,222.56c-.08-.03-2.6-.66-4.67-.66-2.39,0-3.69.73-3.69,1.78,0,1.32,1.75,1.77,2.73,2.07l1.66.48c3.87,1.13,5.64,3.57,5.64,6.21,0,5.46-5.24,7.29-9.8,7.29-3.18,0-6.15-.54-6.45-.59v-5c.53.12,3.03.81,5.64.81,2.96,0,4.34-.8,4.34-2.04,0-1.1-1.18-1.73-2.67-2.16-.36-.11-.9-.27-1.28-.37-3.32-.97-6.09-2.77-6.09-6.36,0-4.07,3.31-6.79,8.83-6.79,2.91,0,5.64.64,5.82.68v4.64h0Z" />
    <path class="d" d="M3117.24,194.26c0-1.66-1.31-3.01-2.94-3.01-1.6,0-2.92,1.35-2.92,3.01v6.33c0,1.68,1.32,3.02,2.92,3.02,1.63,0,2.94-1.34,2.94-3.02v-6.33h0Z" />
    <path class="d" d="M3133.35,185.93c0-1.66-1.31-3.01-2.92-3.01-1.63,0-2.94,1.34-2.94,3.01v14.65c0,1.68,1.32,3.02,2.94,3.02s2.92-1.34,2.92-3.02v-14.65h0Z" />
    <path class="d" d="M3149.46,174.56c0-1.67-1.31-3.02-2.93-3.02s-2.94,1.35-2.94,3.02v32.05c0,1.67,1.32,3.03,2.94,3.03,1.62,0,2.93-1.36,2.93-3.03v-32.05h0Z" />
    <path class="d" d="M3165.57,185.93c0-1.66-1.31-3.01-2.92-3.01s-2.94,1.34-2.94,3.01v14.65c0,1.68,1.31,3.02,2.94,3.02s2.92-1.34,2.92-3.02v-14.65h0Z" />
    <path class="d" d="M3181.66,194.26c0-1.66-1.3-3.01-2.92-3.01s-2.93,1.35-2.93,3.01v6.33c0,1.68,1.32,3.02,2.93,3.02s2.92-1.34,2.92-3.02v-6.33h0Z" />
    <path class="d" d="M3197.78,185.93c0-1.66-1.31-3.01-2.93-3.01-1.61,0-2.92,1.34-2.92,3.01v14.65c0,1.68,1.31,3.02,2.92,3.02,1.62,0,2.93-1.34,2.93-3.02v-14.65h0Z" />
    <path class="d" d="M3213.89,174.56c0-1.67-1.3-3.02-2.93-3.02-1.6,0-2.92,1.35-2.92,3.02v32.05c0,1.67,1.32,3.03,2.92,3.03,1.63,0,2.93-1.36,2.93-3.03v-32.05h0Z" />
    <path class="d" d="M3230.01,185.93c0-1.66-1.32-3.01-2.97-3.01-1.6,0-2.92,1.34-2.92,3.01v14.65c0,1.68,1.32,3.02,2.92,3.02,1.65,0,2.97-1.34,2.97-3.02v-14.65h0Z" />
    <path class="d" d="M3246.1,194.26c0-1.66-1.32-3.01-2.93-3.01-1.62,0-2.92,1.35-2.92,3.01v6.33c0,1.68,1.31,3.02,2.92,3.02,1.61,0,2.93-1.34,2.93-3.02v-6.33h0Z" />
  </g>
</svg>