<svg id="a" data-name="Layer 1" viewBox="0 0 1556.92 195.24">
  <defs>
    <style>
      .d {
        fill: #383838;
      }

      .d, .e, .f, .g, .h, .i, .j, .k, .l, .m {
        stroke-width: 0px;
      }

      .e {
        fill: #060707;
      }

      .f {
        fill: #000;
      }

      .g {
        fill: #aaaaab;
      }

      .h {
        fill: #37383c;
      }

      .i {
        fill: #c8c7c7;
      }

      .j {
        fill: #3f7747;
      }

      .k {
        fill: #a59934;
      }

      .l {
        fill: #dadcde;
      }

      .m {
        fill: #fff;
      }
    </style>
  </defs>
  <path class="l" d="M1556.92,23.35v148.53c0,12.9-10.45,23.35-23.35,23.35H23.34c-12.89,0-23.34-10.45-23.34-23.34V23.34C0,10.45,10.45,0,23.34,0h1510.23c12.9,0,23.35,10.45,23.35,23.35Z" />
  <rect class="h" x="272.98" y="49.06" width="788.03" height="91.4" />
  <rect class="g" x="275.09" y="52.67" width="783.83" height="85.83" rx="2.61" ry="2.61" />
  <path class="f" d="M285.26,121.94v-45.41c0-.65.53-1.18,1.18-1.18h17.57c.65,0,1.18-.53,1.18-1.18v-9.3c0-.65.53-1.18,1.18-1.18h2.85c.65,0,1.18-.53,1.18-1.18v-9.63c0-.65.53-1.18,1.18-1.18h28.19c.65,0,1.18.53,1.18,1.18v9.63c0,.65.53,1.18,1.18,1.18h2.85c.65,0,1.18.53,1.18,1.18v9.3c0,.65.53,1.18,1.18,1.18h17.57c.65,0,1.18.53,1.18,1.18v45.41c0,.65-.53,1.18-1.18,1.18h-78.51c-.65,0-1.18-.53-1.18-1.18Z" />
  <path class="f" d="M382.6,121.94v-45.41c0-.65.53-1.18,1.18-1.18h17.57c.65,0,1.18-.53,1.18-1.18v-9.3c0-.65.53-1.18,1.18-1.18h2.85c.65,0,1.18-.53,1.18-1.18v-9.63c0-.65.53-1.18,1.18-1.18h28.19c.65,0,1.18.53,1.18,1.18v9.63c0,.65.53,1.18,1.18,1.18h2.85c.65,0,1.18.53,1.18,1.18v9.3c0,.65.53,1.18,1.18,1.18h17.57c.65,0,1.18.53,1.18,1.18v45.41c0,.65-.53,1.18-1.18,1.18h-78.51c-.65,0-1.18-.53-1.18-1.18Z" />
  <path class="f" d="M479.93,121.94v-45.41c0-.65.53-1.18,1.18-1.18h17.57c.65,0,1.18-.53,1.18-1.18v-9.3c0-.65.53-1.18,1.18-1.18h2.85c.65,0,1.18-.53,1.18-1.18v-9.63c0-.65.53-1.18,1.18-1.18h28.19c.65,0,1.18.53,1.18,1.18v9.63c0,.65.53,1.18,1.18,1.18h2.85c.65,0,1.18.53,1.18,1.18v9.3c0,.65.53,1.18,1.18,1.18h17.57c.65,0,1.18.53,1.18,1.18v45.41c0,.65-.53,1.18-1.18,1.18h-78.51c-.65,0-1.18-.53-1.18-1.18Z" />
  <path class="f" d="M577.26,121.94v-45.41c0-.65.53-1.18,1.18-1.18h17.57c.65,0,1.18-.53,1.18-1.18v-9.3c0-.65.53-1.18,1.18-1.18h2.85c.65,0,1.18-.53,1.18-1.18v-9.63c0-.65.53-1.18,1.18-1.18h28.19c.65,0,1.18.53,1.18,1.18v9.63c0,.65.53,1.18,1.18,1.18h2.85c.65,0,1.18.53,1.18,1.18v9.3c0,.65.53,1.18,1.18,1.18h17.57c.65,0,1.18.53,1.18,1.18v45.41c0,.65-.53,1.18-1.18,1.18h-78.51c-.65,0-1.18-.53-1.18-1.18Z" />
  <path class="f" d="M674.6,121.94v-45.41c0-.65.53-1.18,1.18-1.18h17.57c.65,0,1.18-.53,1.18-1.18v-9.3c0-.65.53-1.18,1.18-1.18h2.85c.65,0,1.18-.53,1.18-1.18v-9.63c0-.65.53-1.18,1.18-1.18h28.19c.65,0,1.18.53,1.18,1.18v9.63c0,.65.53,1.18,1.18,1.18h2.85c.65,0,1.18.53,1.18,1.18v9.3c0,.65.53,1.18,1.18,1.18h17.57c.65,0,1.18.53,1.18,1.18v45.41c0,.65-.53,1.18-1.18,1.18h-78.51c-.65,0-1.18-.53-1.18-1.18Z" />
  <path class="f" d="M771.93,121.94v-45.41c0-.65.53-1.18,1.18-1.18h17.57c.65,0,1.18-.53,1.18-1.18v-9.3c0-.65.53-1.18,1.18-1.18h2.85c.65,0,1.18-.53,1.18-1.18v-9.63c0-.65.53-1.18,1.18-1.18h28.19c.65,0,1.18.53,1.18,1.18v9.63c0,.65.53,1.18,1.18,1.18h2.85c.65,0,1.18.53,1.18,1.18v9.3c0,.65.53,1.18,1.18,1.18h17.57c.65,0,1.18.53,1.18,1.18v45.41c0,.65-.53,1.18-1.18,1.18h-78.51c-.65,0-1.18-.53-1.18-1.18Z" />
  <path class="f" d="M869.26,121.94v-45.41c0-.65.53-1.18,1.18-1.18h17.57c.65,0,1.18-.53,1.18-1.18v-9.3c0-.65.53-1.18,1.18-1.18h2.85c.65,0,1.18-.53,1.18-1.18v-9.63c0-.65.53-1.18,1.18-1.18h28.19c.65,0,1.18.53,1.18,1.18v9.63c0,.65.53,1.18,1.18,1.18h2.85c.65,0,1.18.53,1.18,1.18v9.3c0,.65.53,1.18,1.18,1.18h17.57c.65,0,1.18.53,1.18,1.18v45.41c0,.65-.53,1.18-1.18,1.18h-78.51c-.65,0-1.18-.53-1.18-1.18Z" />
  <path class="f" d="M966.6,121.94v-45.41c0-.65.53-1.18,1.18-1.18h17.57c.65,0,1.18-.53,1.18-1.18v-9.3c0-.65.53-1.18,1.18-1.18h2.85c.65,0,1.18-.53,1.18-1.18v-9.63c0-.65.53-1.18,1.18-1.18h28.19c.65,0,1.18.53,1.18,1.18v9.63c0,.65.53,1.18,1.18,1.18h2.85c.65,0,1.18.53,1.18,1.18v9.3c0,.65.53,1.18,1.18,1.18h17.57c.65,0,1.18.53,1.18,1.18v45.41c0,.65-.53,1.18-1.18,1.18h-78.51c-.65,0-1.18-.53-1.18-1.18Z" />
  <rect class="h" x="1093.2" y="73.51" width="199.5" height="68.37" />
  <rect class="g" x="1095.03" y="75.28" width="195.83" height="64.83" rx="4.07" ry="4.07" />
  <g>
    <path class="e" d="M1126.17,143.8v-4.35c0-.74-.6-1.35-1.35-1.35h-25.71c-.74,0-1.35-.6-1.35-1.35v-54.71c0-.74.6-1.35,1.35-1.35h90.16c.74,0,1.35.6,1.35,1.35v54.71c0,.74-.6,1.35-1.35,1.35h-25.71c-.74,0-1.35.6-1.35,1.35v4.35c0,.74-.6,1.35-1.35,1.35h-33.36c-.74,0-1.35-.6-1.35-1.35Z" />
    <path class="i" d="M1126.8,136.37h34.79v1.86c0,2.01-1.63,3.65-3.65,3.65h-27.5c-2.01,0-3.65-1.63-3.65-3.65v-1.86h0Z" />
  </g>
  <g>
    <path class="e" d="M1223,143.8v-4.35c0-.74-.6-1.35-1.35-1.35h-25.71c-.74,0-1.35-.6-1.35-1.35v-54.71c0-.74.6-1.35,1.35-1.35h90.16c.74,0,1.35.6,1.35,1.35v54.71c0,.74-.6,1.35-1.35,1.35h-25.71c-.74,0-1.35.6-1.35,1.35v4.35c0,.74-.6,1.35-1.35,1.35h-33.36c-.74,0-1.35-.6-1.35-1.35Z" />
    <path class="i" d="M1223.64,136.37h34.79v1.86c0,2.01-1.63,3.65-3.65,3.65h-27.5c-2.01,0-3.65-1.63-3.65-3.65v-1.86h0Z" />
  </g>
  <g>
    <path class="d" d="M524.58,23.07h3.51c1.45,0,2.54.34,3.27,1.02.64.6.96,1.43.96,2.49,0,1.18-.41,2.06-1.23,2.66-.73.52-1.75.78-3.06.78h-1.92v3.85h-1.53v-10.8ZM528.12,24.31h-2.01v4.46h1.95c.99,0,1.7-.21,2.13-.65.36-.35.54-.86.54-1.54,0-.77-.26-1.35-.77-1.74-.45-.35-1.06-.53-1.84-.53Z" />
    <path class="d" d="M533.29,29.97c0-1.43.43-2.51,1.28-3.24.68-.59,1.54-.88,2.58-.88,1.21,0,2.16.38,2.85,1.15.66.72.99,1.71.99,2.97,0,1.41-.42,2.48-1.25,3.23-.68.6-1.55.9-2.61.9-1.21,0-2.17-.4-2.87-1.2-.65-.73-.98-1.7-.98-2.92ZM534.79,29.97c0,1,.26,1.77.77,2.29.42.44.96.66,1.6.66.76,0,1.34-.29,1.75-.85.38-.52.57-1.22.57-2.1,0-1.02-.25-1.79-.75-2.31-.41-.43-.94-.65-1.59-.65-.75,0-1.33.29-1.75.85-.4.52-.6,1.22-.6,2.1Z" />
    <path class="d" d="M549.01,27.75v1.26h-4.77v3.57h5.21v1.29h-6.74v-10.8h6.74v1.29h-5.21v3.39h4.77Z" />
    <path class="d" d="M554.02,32.19v-2.5h-2.48v-1.27h2.48v-2.52h1.37v2.52h2.46v1.27h-2.46v2.5h-1.37Z" />
    <path class="d" d="M573.81,28.06v5.81h-1.12l-.21-1.29c-.36.51-.86.9-1.49,1.16-.55.24-1.16.36-1.83.36-1.49,0-2.68-.55-3.57-1.65-.81-1.02-1.21-2.35-1.21-3.99,0-1.9.54-3.36,1.63-4.38.88-.82,1.99-1.23,3.32-1.23s2.36.37,3.21,1.11c.72.62,1.14,1.38,1.26,2.28h-1.5c-.14-.71-.5-1.25-1.09-1.62-.51-.33-1.13-.5-1.88-.5-1.07,0-1.91.4-2.52,1.21-.58.77-.87,1.81-.87,3.12,0,1.48.39,2.62,1.17,3.42.61.64,1.35.96,2.23.96s1.68-.28,2.28-.85c.54-.5.81-1.11.81-1.84v-.84h-3.17v-1.23h4.54Z" />
    <path class="d" d="M577,33.87h-1.19v-10.8h1.44v4.08c.61-.87,1.48-1.3,2.61-1.3s1.99.4,2.61,1.2c.55.72.83,1.68.83,2.87,0,1.41-.38,2.49-1.12,3.24-.63.63-1.44.95-2.42.95-1.11,0-1.96-.42-2.54-1.26l-.22,1.04ZM581.8,29.88c0-.98-.25-1.71-.74-2.2-.39-.4-.9-.6-1.53-.6-.73,0-1.31.27-1.74.79-.41.51-.62,1.18-.62,2.01,0,1,.25,1.77.74,2.3.41.46.95.69,1.62.69.75,0,1.32-.27,1.71-.83.37-.51.55-1.23.55-2.16Z" />
    <path class="d" d="M591.33,27.75v1.26h-4.77v3.57h5.21v1.29h-6.74v-10.8h6.74v1.29h-5.21v3.39h4.77Z" />
    <path class="d" d="M597.78,31.32h1.53c.11.49.37.88.78,1.15.39.27.87.4,1.44.4.71,0,1.28-.24,1.71-.73.38-.44.57-1.02.57-1.74,0-.81-.24-1.43-.71-1.85-.39-.36-.91-.54-1.54-.54-.86,0-1.56.32-2.1.96h-1.28l.22-5.61h6.45v1.21h-5.14l-.12,3.08c.64-.51,1.4-.77,2.29-.77,1.04,0,1.88.34,2.5,1.02.6.65.9,1.5.9,2.55s-.38,1.98-1.12,2.67c-.69.64-1.58.96-2.66.96s-2-.32-2.71-.96c-.56-.5-.9-1.1-1.02-1.81Z" />
    <path class="d" d="M610.51,34.09c-1.2,0-2.13-.51-2.8-1.53-.63-.96-.95-2.28-.95-3.97,0-1.96.41-3.41,1.21-4.35.64-.73,1.49-1.1,2.54-1.1,1.21,0,2.14.49,2.8,1.46.63.94.95,2.27.95,3.99,0,1.93-.41,3.38-1.21,4.33-.65.78-1.5,1.17-2.54,1.17ZM610.51,32.89c.82,0,1.42-.4,1.79-1.2.33-.7.5-1.73.5-3.1,0-1.55-.22-2.67-.65-3.36-.37-.59-.92-.88-1.63-.88-.82,0-1.42.39-1.79,1.17-.33.69-.5,1.72-.5,3.08,0,1.56.21,2.69.65,3.39.37.61.92.92,1.63.92Z" />
    <path class="d" d="M623.22,23.07h1.5l-3.87,10.8h-1.91l-3.93-10.8h1.62l3.27,9.36,3.32-9.36Z" />
    <path class="d" d="M631.5,28.24h-1.53c.08-.78.45-1.38,1.11-1.81.59-.39,1.33-.58,2.23-.58,1.07,0,1.89.28,2.46.84.48.48.72,1.1.72,1.86v5.33h-1.19l-.18-1.06c-.61.86-1.48,1.29-2.61,1.29-.89,0-1.58-.24-2.08-.72-.41-.4-.62-.9-.62-1.51,0-.77.27-1.37.79-1.79.47-.37,1.19-.64,2.16-.81l2.28-.39v-.39c0-.51-.17-.9-.53-1.16-.31-.23-.73-.34-1.27-.34-1.06,0-1.65.42-1.75,1.26ZM632.86,32.88c.61,0,1.14-.2,1.59-.6.4-.37.6-.79.6-1.28v-1l-1.93.35c-.71.12-1.2.31-1.46.55-.21.2-.32.47-.32.81,0,.38.13.67.39.87.26.2.64.3,1.12.3Z" />
    <path class="d" d="M642,32.71v1.23c-.37.1-.73.15-1.07.15-.72,0-1.26-.23-1.62-.68-.31-.37-.46-.86-.46-1.48v-4.63h-1.16v-1.23h1.16l.09-1.88h1.35v1.88h1.68v1.23h-1.68v4.67c0,.58.27.87.82.87.26,0,.56-.04.89-.12Z" />
    <path class="d" d="M651.3,34.09c-1.2,0-2.13-.51-2.8-1.53-.63-.96-.95-2.28-.95-3.97,0-1.96.41-3.41,1.21-4.35.64-.73,1.49-1.1,2.54-1.1,1.21,0,2.14.49,2.8,1.46.63.94.95,2.27.95,3.99,0,1.93-.41,3.38-1.21,4.33-.65.78-1.5,1.17-2.54,1.17ZM651.3,32.89c.82,0,1.42-.4,1.79-1.2.33-.7.5-1.73.5-3.1,0-1.55-.22-2.67-.65-3.36-.37-.59-.92-.88-1.63-.88-.82,0-1.42.39-1.79,1.17-.33.69-.5,1.72-.5,3.08,0,1.56.21,2.69.65,3.39.37.61.92.92,1.63.92Z" />
    <path class="d" d="M658.92,33.87h-1.74v-1.74h1.74v1.74Z" />
    <path class="d" d="M665.27,27c1.08,0,1.92.38,2.52,1.12.5.63.75,1.43.75,2.4,0,1.21-.42,2.15-1.25,2.81-.64.51-1.39.77-2.26.77-1.29,0-2.25-.5-2.88-1.48-.54-.85-.81-2.04-.81-3.57,0-2.29.45-3.92,1.33-4.89.62-.67,1.45-1,2.49-1,.85,0,1.57.23,2.16.68.52.4.85.92,1,1.54h-1.59c-.09-.33-.28-.59-.56-.77-.28-.19-.62-.28-1.03-.28-1.45,0-2.25,1.35-2.39,4.05.27-.43.62-.77,1.07-1,.44-.24.92-.36,1.44-.36ZM662.92,30.48c0,.81.23,1.44.69,1.88.37.36.84.54,1.42.54.64,0,1.15-.23,1.53-.67.35-.42.53-.96.53-1.62,0-.79-.21-1.4-.63-1.83-.37-.38-.85-.57-1.44-.57-.72,0-1.27.25-1.65.77-.3.41-.45.91-.45,1.51Z" />
    <path class="d" d="M679.88,33.87h-1.7l-1.06-2.73h-5.15l-1.08,2.73h-1.61l4.44-10.8h1.72l4.42,10.8ZM674.57,24.6l-2.1,5.29h4.16l-2.05-5.29Z" />
    <path class="d" d="M683,32.13v1.52c0,.83-.24,1.46-.71,1.91-.33.32-.75.51-1.26.57v-.75c.62-.13.93-.63.93-1.5h-.71v-1.74h1.74Z" />
    <path class="d" d="M689.65,31.32h1.53c.11.49.37.88.78,1.15.39.27.87.4,1.44.4.71,0,1.28-.24,1.71-.73.38-.44.57-1.02.57-1.74,0-.81-.24-1.43-.71-1.85-.39-.36-.91-.54-1.54-.54-.86,0-1.56.32-2.1.96h-1.28l.22-5.61h6.45v1.21h-5.14l-.12,3.08c.64-.51,1.4-.77,2.29-.77,1.04,0,1.88.34,2.5,1.02.6.65.9,1.5.9,2.55s-.38,1.98-1.12,2.67c-.69.64-1.58.96-2.66.96s-2-.32-2.71-.96c-.56-.5-.9-1.1-1.02-1.81Z" />
    <path class="d" d="M705.68,24.66l-4.29,9.21h-1.63l4.39-9.21h-5.14v-1.29h6.67v1.29Z" />
    <path class="d" d="M715.09,23.07h1.5l-3.87,10.8h-1.91l-3.93-10.8h1.62l3.27,9.36,3.32-9.36Z" />
    <path class="d" d="M728.47,33.87h-1.44l-3.33-8.46v8.46h-1.49v-10.8h2.13l3.44,9,3.24-9h2.01v10.8h-1.44v-8.38l-3.12,8.38Z" />
    <path class="d" d="M736.43,28.24h-1.53c.08-.78.45-1.38,1.11-1.81.59-.39,1.33-.58,2.23-.58,1.07,0,1.89.28,2.46.84.48.48.72,1.1.72,1.86v5.33h-1.19l-.18-1.06c-.61.86-1.48,1.29-2.61,1.29-.89,0-1.58-.24-2.08-.72-.41-.4-.62-.9-.62-1.51,0-.77.27-1.37.79-1.79.47-.37,1.19-.64,2.16-.81l2.28-.39v-.39c0-.51-.17-.9-.53-1.16-.31-.23-.73-.34-1.27-.34-1.06,0-1.65.42-1.75,1.26ZM737.8,32.88c.61,0,1.14-.2,1.59-.6.4-.37.6-.79.6-1.28v-1l-1.93.35c-.71.12-1.2.31-1.46.55-.21.2-.32.47-.32.81,0,.38.13.67.39.87.26.2.64.3,1.12.3Z" />
    <path class="d" d="M749.74,26.07l-2.61,3.65,3.06,4.15h-1.75l-2.12-3.02-2.07,3.02h-1.69l2.91-4.05-2.73-3.75h1.72l1.86,2.62,1.77-2.62h1.65Z" />
  </g>
  <path class="d" d="M330.14,166.12h-1.43v-9l-2.35,1.21v-1.48l2.37-1.23h1.41v10.5Z" />
  <path class="d" d="M423.45,158.36h-1.51c.12-.93.55-1.67,1.29-2.22.66-.5,1.46-.75,2.4-.75,1.07,0,1.92.3,2.57.9.57.55.85,1.25.85,2.08,0,.74-.21,1.43-.63,2.06-.34.53-.96,1.23-1.88,2.08l-2.4,2.28h4.86v1.32h-6.81v-1.32l3.42-3.29c.76-.73,1.28-1.31,1.55-1.75.27-.44.41-.89.41-1.37,0-.58-.2-1.03-.6-1.35-.35-.29-.81-.43-1.38-.43-.64,0-1.15.17-1.54.52-.34.31-.54.72-.6,1.23Z" />
  <path class="d" d="M526.94,163.25c0,.97-.39,1.75-1.16,2.33-.67.5-1.53.75-2.57.75-1.15,0-2.06-.29-2.75-.88-.58-.49-.92-1.14-1.03-1.94h1.53c.25,1.08.99,1.62,2.22,1.62.76,0,1.34-.2,1.75-.6.35-.34.52-.77.52-1.31,0-.7-.25-1.23-.75-1.59-.37-.26-.81-.39-1.32-.39h-.87v-1.25h.84c.49,0,.9-.16,1.23-.48.34-.32.51-.74.51-1.27,0-.56-.24-1-.71-1.31-.36-.23-.79-.34-1.31-.34-.62,0-1.12.16-1.51.46-.33.27-.53.62-.6,1.04h-1.52c.14-.88.58-1.56,1.33-2.06.65-.43,1.44-.65,2.37-.65,1.02,0,1.85.25,2.49.77.61.49.92,1.15.92,1.98,0,.6-.2,1.12-.6,1.58-.34.39-.77.67-1.29.82.69.15,1.24.47,1.65.96.4.48.6,1.06.6,1.75Z" />
  <path class="d" d="M620.86,155.62h1.5v7.29h1.7v1.23h-1.7v1.98h-1.4v-1.98h-4.6v-1.33l4.5-7.19ZM617.97,162.91h3v-4.96l-3,4.96Z" />
  <path class="d" d="M713.8,163.57h1.53c.11.49.37.88.78,1.15.39.27.87.4,1.44.4.71,0,1.28-.24,1.71-.73.38-.44.57-1.02.57-1.74,0-.81-.24-1.43-.71-1.85-.39-.36-.91-.54-1.54-.54-.86,0-1.56.32-2.1.96h-1.28l.22-5.61h6.45v1.21h-5.14l-.12,3.08c.64-.51,1.4-.77,2.29-.77,1.04,0,1.88.34,2.5,1.02.6.65.9,1.5.9,2.55s-.38,1.98-1.12,2.67c-.69.64-1.58.96-2.66.96s-2-.32-2.71-.96c-.56-.5-.9-1.1-1.02-1.81Z" />
  <path class="d" d="M815.35,159.25c1.08,0,1.92.38,2.52,1.12.5.63.75,1.43.75,2.4,0,1.21-.42,2.15-1.25,2.81-.64.51-1.39.77-2.26.77-1.29,0-2.25-.5-2.88-1.48-.54-.85-.81-2.04-.81-3.57,0-2.29.45-3.92,1.33-4.89.62-.67,1.45-1,2.49-1,.85,0,1.57.23,2.16.68.52.4.85.92,1,1.54h-1.59c-.09-.33-.28-.59-.56-.77-.28-.19-.62-.28-1.03-.28-1.45,0-2.25,1.35-2.39,4.05.27-.43.62-.77,1.07-1,.44-.24.92-.36,1.44-.36ZM812.99,162.73c0,.81.23,1.44.69,1.88.37.36.84.54,1.42.54.64,0,1.15-.23,1.53-.67.35-.42.53-.96.53-1.62,0-.79-.21-1.4-.63-1.83-.37-.38-.85-.57-1.44-.57-.72,0-1.27.25-1.65.77-.3.41-.45.91-.45,1.51Z" />
  <path class="d" d="M915.17,156.91l-4.29,9.21h-1.63l4.39-9.21h-5.14v-1.29h6.67v1.29Z" />
  <path class="d" d="M1013.3,158.09c0,.49-.15.94-.45,1.36-.3.42-.73.78-1.28,1.06,1.41.62,2.12,1.54,2.12,2.76,0,.96-.4,1.73-1.19,2.31-.7.5-1.58.75-2.64.75-1.22,0-2.19-.31-2.91-.95-.61-.54-.92-1.21-.92-2.01s.25-1.42.75-1.94c.34-.36.78-.64,1.31-.84-1.11-.52-1.67-1.33-1.67-2.42,0-.97.39-1.71,1.17-2.22.61-.39,1.36-.58,2.26-.58,1.05,0,1.89.24,2.52.72.61.48.92,1.14.92,1.98ZM1012.16,163.28c0-.77-.33-1.33-.97-1.69-.32-.18-.87-.35-1.64-.53-.58.17-1.04.43-1.39.78-.39.4-.58.88-.58,1.44s.21,1.04.64,1.38c.4.33.95.5,1.65.5.79,0,1.39-.2,1.8-.6.33-.32.5-.74.5-1.27ZM1007.84,158.12c0,.74.31,1.28.92,1.62.35.19.82.33,1.41.4,1.13-.44,1.7-1.11,1.7-2.02,0-.52-.22-.93-.66-1.23-.37-.25-.82-.38-1.33-.38-.62,0-1.12.15-1.5.45-.35.29-.53.67-.53,1.15Z" />
  <g>
    <path class="d" d="M1127.74,58.86c0-.36-.08-.65-.24-.85-.18-.25-.51-.48-.99-.69-.48-.21-1.21-.45-2.18-.72-1.3-.36-2.19-.8-2.68-1.33-.4-.43-.6-1-.6-1.73,0-.87.38-1.56,1.14-2.07.7-.47,1.61-.71,2.73-.71,1.25,0,2.27.29,3.05.88.7.52,1.11,1.2,1.23,2.04h-1.58c-.09-.57-.39-.99-.9-1.27-.45-.26-1.05-.39-1.8-.39-.84,0-1.46.16-1.86.48-.32.25-.48.58-.48.98,0,.26.04.47.13.64s.23.31.44.44c.39.26,1.14.54,2.26.85,1.56.44,2.62.94,3.17,1.5.46.46.69,1.09.69,1.89,0,.95-.42,1.73-1.25,2.35-.78.57-1.77.85-2.97.85s-2.29-.33-3.11-1c-.71-.58-1.13-1.33-1.27-2.25h1.57c.1.66.42,1.17.95,1.51.48.32,1.09.48,1.83.48.92,0,1.62-.21,2.12-.63.4-.34.6-.76.6-1.26Z" />
    <path class="d" d="M1137.16,55.95v1.27h-4.56v4.56h-1.53v-10.8h6.62v1.29h-5.08v3.67h4.56Z" />
    <path class="d" d="M1139.48,50.98h3.51c1.45,0,2.54.34,3.27,1.02.64.6.96,1.43.96,2.49,0,1.18-.41,2.06-1.23,2.66-.73.52-1.75.78-3.06.78h-1.92v3.85h-1.53v-10.8ZM1143.02,52.23h-2.01v4.46h1.95c.99,0,1.7-.21,2.13-.65.36-.35.54-.86.54-1.54,0-.77-.26-1.35-.77-1.74-.45-.35-1.06-.53-1.84-.53Z" />
    <path class="d" d="M1151.65,60.1v-2.5h-2.48v-1.27h2.48v-2.52h1.37v2.52h2.46v1.27h-2.46v2.5h-1.37Z" />
    <path class="d" d="M1165.64,58.15c-1.04,0-1.86-.35-2.46-1.06-.54-.63-.81-1.45-.81-2.46,0-1.14.38-2.04,1.14-2.72.64-.57,1.43-.85,2.37-.85,2.46,0,3.69,1.69,3.69,5.06,0,3.93-1.29,5.9-3.87,5.9-.86,0-1.58-.23-2.17-.69-.51-.4-.85-.92-1-1.56h1.59c.21.72.76,1.08,1.65,1.08.74,0,1.3-.33,1.69-.99.38-.66.61-1.67.67-3.04-.27.43-.62.76-1.06,1-.44.23-.91.35-1.43.35ZM1168,54.67c0-.81-.23-1.44-.69-1.88-.37-.36-.85-.54-1.43-.54-.64,0-1.15.23-1.53.69-.35.41-.53.94-.53,1.6,0,.81.23,1.44.67,1.88.37.35.83.52,1.4.52.72,0,1.27-.25,1.65-.77.3-.41.45-.91.45-1.51Z" />
  </g>
  <g>
    <path class="d" d="M1221.15,58.86c0-.36-.08-.65-.24-.85-.18-.25-.51-.48-.99-.69-.48-.21-1.21-.45-2.18-.72-1.3-.36-2.19-.8-2.68-1.33-.4-.43-.6-1-.6-1.73,0-.87.38-1.56,1.14-2.07.7-.47,1.61-.71,2.73-.71,1.25,0,2.27.29,3.05.88.7.52,1.11,1.2,1.23,2.04h-1.58c-.09-.57-.39-.99-.9-1.27-.45-.26-1.05-.39-1.8-.39-.84,0-1.46.16-1.86.48-.32.25-.48.58-.48.98,0,.26.04.47.13.64s.23.31.44.44c.39.26,1.14.54,2.26.85,1.56.44,2.62.94,3.17,1.5.46.46.69,1.09.69,1.89,0,.95-.42,1.73-1.25,2.35-.78.57-1.77.85-2.97.85s-2.29-.33-3.11-1c-.71-.58-1.13-1.33-1.27-2.25h1.57c.1.66.42,1.17.95,1.51.48.32,1.09.48,1.83.48.92,0,1.62-.21,2.12-.63.4-.34.6-.76.6-1.26Z" />
    <path class="d" d="M1230.57,55.95v1.27h-4.56v4.56h-1.53v-10.8h6.62v1.29h-5.08v3.67h4.56Z" />
    <path class="d" d="M1232.9,50.98h3.51c1.45,0,2.54.34,3.27,1.02.64.6.96,1.43.96,2.49,0,1.18-.41,2.06-1.23,2.66-.73.52-1.75.78-3.06.78h-1.92v3.85h-1.53v-10.8ZM1236.44,52.23h-2.01v4.46h1.95c.99,0,1.7-.21,2.13-.65.36-.35.54-.86.54-1.54,0-.77-.26-1.35-.77-1.74-.45-.35-1.06-.53-1.84-.53Z" />
    <path class="d" d="M1245.06,60.1v-2.5h-2.48v-1.27h2.48v-2.52h1.37v2.52h2.46v1.27h-2.46v2.5h-1.37Z" />
    <path class="d" d="M1260.51,61.78h-1.43v-9l-2.35,1.21v-1.48l2.37-1.23h1.41v10.5Z" />
    <path class="d" d="M1268.24,62.01c-1.2,0-2.13-.51-2.8-1.53-.63-.96-.95-2.28-.95-3.97,0-1.96.41-3.41,1.21-4.35.64-.73,1.49-1.1,2.54-1.1,1.21,0,2.14.49,2.8,1.46.63.94.95,2.27.95,3.99,0,1.93-.41,3.38-1.21,4.33-.65.78-1.5,1.17-2.54,1.17ZM1268.24,60.81c.82,0,1.42-.4,1.79-1.2.33-.7.5-1.73.5-3.1,0-1.55-.22-2.67-.65-3.36-.37-.59-.92-.88-1.63-.88-.82,0-1.42.39-1.79,1.17-.33.69-.5,1.72-.5,3.08,0,1.56.21,2.69.65,3.39.37.61.92.92,1.63.92Z" />
  </g>
  <g id="b" data-name="lights">
    <circle class="m" cx="106.99" cy="77.42" r="6.17" />
    <circle class="f" cx="106.99" cy="116.49" r="5.44" />
    <path class="f" d="M107.87,137.58v-3.24l-4.73,3.74,4.73,3.74v-3.24c4.7,0,8.53,3.83,8.53,8.53s-3.83,8.53-8.53,8.53-8.53-3.83-8.53-8.53h-1c0,5.25,4.27,9.53,9.53,9.53s9.53-4.27,9.53-9.53-4.27-9.53-9.53-9.53Z" />
  </g>
  <rect class="j" x="279.59" y="60.4" width="22.96" height="10.86" rx="1.66" ry="1.66" />
  <rect class="k" x="348.63" y="60.4" width="22.96" height="10.86" rx="1.66" ry="1.66" transform="translate(720.21 131.66) rotate(180)" />
  <rect class="j" x="377.04" y="60.4" width="22.96" height="10.86" rx="1.66" ry="1.66" />
  <rect class="k" x="446.08" y="60.4" width="22.96" height="10.86" rx="1.66" ry="1.66" transform="translate(915.11 131.66) rotate(180)" />
  <rect class="j" x="474.49" y="60.4" width="22.96" height="10.86" rx="1.66" ry="1.66" />
  <rect class="k" x="543.53" y="60.4" width="22.96" height="10.86" rx="1.66" ry="1.66" transform="translate(1110.01 131.66) rotate(180)" />
  <rect class="j" x="571.94" y="60.4" width="22.96" height="10.86" rx="1.66" ry="1.66" />
  <rect class="k" x="640.98" y="60.4" width="22.96" height="10.86" rx="1.66" ry="1.66" transform="translate(1304.91 131.66) rotate(180)" />
  <rect class="j" x="669.39" y="60.4" width="22.96" height="10.86" rx="1.66" ry="1.66" />
  <rect class="k" x="738.43" y="60.4" width="22.96" height="10.86" rx="1.66" ry="1.66" transform="translate(1499.81 131.66) rotate(180)" />
  <rect class="j" x="766.84" y="60.4" width="22.96" height="10.86" rx="1.66" ry="1.66" />
  <rect class="k" x="835.88" y="60.4" width="22.96" height="10.86" rx="1.66" ry="1.66" transform="translate(1694.71 131.66) rotate(180)" />
  <rect class="j" x="864.29" y="60.4" width="22.96" height="10.86" rx="1.66" ry="1.66" />
  <rect class="k" x="933.33" y="60.4" width="22.96" height="10.86" rx="1.66" ry="1.66" transform="translate(1889.61 131.66) rotate(180)" />
  <rect class="j" x="961.73" y="60.4" width="22.96" height="10.86" rx="1.66" ry="1.66" />
  <rect class="k" x="1030.78" y="60.4" width="22.96" height="10.86" rx="1.66" ry="1.66" transform="translate(2084.51 131.66) rotate(180)" />
  <g id="c" data-name="logo.cisco">
    <polygon class="d" points="1402.57 141.49 1396.59 141.49 1396.59 119.77 1402.57 119.77 1402.57 141.49 1402.57 141.49" />
    <path class="d" d="M1450.76,125.99c-.25-.11-2.18-1.16-5.03-1.16-3.87,0-6.55,2.47-6.55,5.79,0,3.24,2.56,5.8,6.55,5.8,2.81,0,4.77-1.02,5.03-1.15v5.83c-.75.2-2.8.78-5.45.78-6.73,0-12.63-4.25-12.63-11.26,0-6.48,5.34-11.24,12.63-11.24,2.8,0,4.88.62,5.45.78v5.83h0Z" />
    <path class="d" d="M1388.38,125.99c-.24-.11-2.16-1.16-5.02-1.16-3.87,0-6.55,2.47-6.55,5.79,0,3.24,2.56,5.8,6.55,5.8,2.81,0,4.77-1.02,5.02-1.15v5.83c-.74.2-2.79.78-5.46.78-6.72,0-12.6-4.25-12.6-11.26,0-6.48,5.33-11.24,12.6-11.24,2.83,0,4.89.62,5.46.78v5.83h0Z" />
    <path class="d" d="M1482.06,130.62c0,6.22-5.23,11.26-12.51,11.26-7.28,0-12.5-5.04-12.5-11.26,0-6.2,5.22-11.24,12.5-11.24,7.28,0,12.51,5.04,12.51,11.24h0ZM1469.55,124.91c-3.54,0-6.17,2.55-6.17,5.71s2.63,5.72,6.17,5.72,6.18-2.55,6.18-5.72c0-3.15-2.64-5.71-6.18-5.71h0Z" />
    <path class="d" d="M1425.23,124.7c-.08-.03-2.6-.66-4.67-.66-2.39,0-3.69.73-3.69,1.78,0,1.32,1.75,1.77,2.73,2.07l1.66.48c3.87,1.13,5.64,3.57,5.64,6.21,0,5.46-5.24,7.29-9.8,7.29-3.18,0-6.15-.54-6.45-.59v-5c.53.12,3.03.81,5.64.81,2.96,0,4.34-.8,4.34-2.04,0-1.1-1.18-1.73-2.67-2.16-.36-.11-.9-.27-1.28-.37-3.32-.97-6.09-2.77-6.09-6.36,0-4.07,3.31-6.79,8.83-6.79,2.91,0,5.64.64,5.82.68v4.64h0Z" />
    <path class="d" d="M1364.7,96.4c0-1.66-1.31-3.01-2.94-3.01-1.6,0-2.92,1.35-2.92,3.01v6.33c0,1.68,1.32,3.02,2.92,3.02,1.63,0,2.94-1.34,2.94-3.02v-6.33h0Z" />
    <path class="d" d="M1380.81,88.08c0-1.66-1.31-3.01-2.92-3.01-1.63,0-2.94,1.34-2.94,3.01v14.65c0,1.68,1.32,3.02,2.94,3.02s2.92-1.34,2.92-3.02v-14.65h0Z" />
    <path class="d" d="M1396.91,76.7c0-1.67-1.31-3.02-2.93-3.02s-2.94,1.35-2.94,3.02v32.05c0,1.67,1.32,3.03,2.94,3.03,1.62,0,2.93-1.36,2.93-3.03v-32.05h0Z" />
    <path class="d" d="M1413.02,88.08c0-1.66-1.31-3.01-2.92-3.01s-2.94,1.34-2.94,3.01v14.65c0,1.68,1.31,3.02,2.94,3.02s2.92-1.34,2.92-3.02v-14.65h0Z" />
    <path class="d" d="M1429.11,96.4c0-1.66-1.3-3.01-2.92-3.01s-2.93,1.35-2.93,3.01v6.33c0,1.68,1.32,3.02,2.93,3.02s2.92-1.34,2.92-3.02v-6.33h0Z" />
    <path class="d" d="M1445.23,88.08c0-1.66-1.31-3.01-2.93-3.01-1.61,0-2.92,1.34-2.92,3.01v14.65c0,1.68,1.31,3.02,2.92,3.02,1.62,0,2.93-1.34,2.93-3.02v-14.65h0Z" />
    <path class="d" d="M1461.34,76.7c0-1.67-1.3-3.02-2.93-3.02-1.6,0-2.92,1.35-2.92,3.02v32.05c0,1.67,1.32,3.03,2.92,3.03,1.63,0,2.93-1.36,2.93-3.03v-32.05h0Z" />
    <path class="d" d="M1477.47,88.08c0-1.66-1.32-3.01-2.97-3.01-1.6,0-2.92,1.34-2.92,3.01v14.65c0,1.68,1.32,3.02,2.92,3.02,1.65,0,2.97-1.34,2.97-3.02v-14.65h0Z" />
    <path class="d" d="M1493.55,96.4c0-1.66-1.32-3.01-2.93-3.01-1.62,0-2.92,1.35-2.92,3.01v6.33c0,1.68,1.31,3.02,2.92,3.02,1.61,0,2.93-1.34,2.93-3.02v-6.33h0Z" />
  </g>
</svg>