<svg id="a" data-name="Layer 1" viewBox="0 0 1556.92 309.14">
  <defs>
    <style>
      .d {
        fill: #060707;
      }

      .e {
        fill: #fff;
      }

      .f {
        fill: #a59934;
      }

      .g {
        fill: #aaaaab;
      }

      .h {
        fill: #a4a8b3;
      }

      .i {
        fill: #dadcde;
      }

      .j {
        fill: #c8c7c7;
      }

      .k {
        fill: #3f7747;
      }

      .l {
        fill: #363636;
      }

      .m {
        fill: #37383c;
      }

      .n {
        fill: #2d3037;
      }

      .o {
        fill: #383838;
      }
    </style>
  </defs>
  <path class="i" d="m1556.92,23.35v262.44c0,12.9-10.45,23.35-23.35,23.35H23.34c-12.89,0-23.34-10.45-23.34-23.34V23.34C0,10.45,10.45,0,23.34,0h1510.23c12.9,0,23.35,10.45,23.35,23.35Z" />
  <rect class="m" x="366.86" y="61.78" width="597.92" height="174.75" />
  <rect class="g" x="368.98" y="65.39" width="593.72" height="167.53" rx="2.61" ry="2.61" />
  <path d="m379.15,134.66v-45.41c0-.65.53-1.18,1.18-1.18h17.57c.65,0,1.18-.53,1.18-1.18v-9.3c0-.65.53-1.18,1.18-1.18h2.85c.65,0,1.18-.53,1.18-1.18v-9.63c0-.65.53-1.18,1.18-1.18h28.19c.65,0,1.18.53,1.18,1.18v9.63c0,.65.53,1.18,1.18,1.18h2.85c.65,0,1.18.53,1.18,1.18v9.3c0,.65.53,1.18,1.18,1.18h17.57c.65,0,1.18.53,1.18,1.18v45.41c0,.65-.53,1.18-1.18,1.18h-78.51c-.65,0-1.18-.53-1.18-1.18Z" />
  <path d="m476.49,134.66v-45.41c0-.65.53-1.18,1.18-1.18h17.57c.65,0,1.18-.53,1.18-1.18v-9.3c0-.65.53-1.18,1.18-1.18h2.85c.65,0,1.18-.53,1.18-1.18v-9.63c0-.65.53-1.18,1.18-1.18h28.19c.65,0,1.18.53,1.18,1.18v9.63c0,.65.53,1.18,1.18,1.18h2.85c.65,0,1.18.53,1.18,1.18v9.3c0,.65.53,1.18,1.18,1.18h17.57c.65,0,1.18.53,1.18,1.18v45.41c0,.65-.53,1.18-1.18,1.18h-78.51c-.65,0-1.18-.53-1.18-1.18Z" />
  <path d="m573.82,134.66v-45.41c0-.65.53-1.18,1.18-1.18h17.57c.65,0,1.18-.53,1.18-1.18v-9.3c0-.65.53-1.18,1.18-1.18h2.85c.65,0,1.18-.53,1.18-1.18v-9.63c0-.65.53-1.18,1.18-1.18h28.19c.65,0,1.18.53,1.18,1.18v9.63c0,.65.53,1.18,1.18,1.18h2.85c.65,0,1.18.53,1.18,1.18v9.3c0,.65.53,1.18,1.18,1.18h17.57c.65,0,1.18.53,1.18,1.18v45.41c0,.65-.53,1.18-1.18,1.18h-78.51c-.65,0-1.18-.53-1.18-1.18Z" />
  <path d="m671.15,134.66v-45.41c0-.65.53-1.18,1.18-1.18h17.57c.65,0,1.18-.53,1.18-1.18v-9.3c0-.65.53-1.18,1.18-1.18h2.85c.65,0,1.18-.53,1.18-1.18v-9.63c0-.65.53-1.18,1.18-1.18h28.19c.65,0,1.18.53,1.18,1.18v9.63c0,.65.53,1.18,1.18,1.18h2.85c.65,0,1.18.53,1.18,1.18v9.3c0,.65.53,1.18,1.18,1.18h17.57c.65,0,1.18.53,1.18,1.18v45.41c0,.65-.53,1.18-1.18,1.18h-78.51c-.65,0-1.18-.53-1.18-1.18Z" />
  <path d="m768.49,134.66v-45.41c0-.65.53-1.18,1.18-1.18h17.57c.65,0,1.18-.53,1.18-1.18v-9.3c0-.65.53-1.18,1.18-1.18h2.85c.65,0,1.18-.53,1.18-1.18v-9.63c0-.65.53-1.18,1.18-1.18h28.19c.65,0,1.18.53,1.18,1.18v9.63c0,.65.53,1.18,1.18,1.18h2.85c.65,0,1.18.53,1.18,1.18v9.3c0,.65.53,1.18,1.18,1.18h17.57c.65,0,1.18.53,1.18,1.18v45.41c0,.65-.53,1.18-1.18,1.18h-78.51c-.65,0-1.18-.53-1.18-1.18Z" />
  <path d="m865.82,134.66v-45.41c0-.65.53-1.18,1.18-1.18h17.57c.65,0,1.18-.53,1.18-1.18v-9.3c0-.65.53-1.18,1.18-1.18h2.85c.65,0,1.18-.53,1.18-1.18v-9.63c0-.65.53-1.18,1.18-1.18h28.19c.65,0,1.18.53,1.18,1.18v9.63c0,.65.53,1.18,1.18,1.18h2.85c.65,0,1.18.53,1.18,1.18v9.3c0,.65.53,1.18,1.18,1.18h17.57c.65,0,1.18.53,1.18,1.18v45.41c0,.65-.53,1.18-1.18,1.18h-78.51c-.65,0-1.18-.53-1.18-1.18Z" />
  <rect class="n" x="763.27" y="26.62" width="184.56" height="29.61" rx="2.28" ry="2.28" />
  <g>
    <path class="h" d="m812.76,36.8h3.04c1.26,0,2.2.29,2.83.88.55.52.83,1.24.83,2.16,0,1.02-.36,1.79-1.07,2.3-.63.45-1.52.68-2.65.68h-1.66v3.34h-1.33v-9.36Zm3.07,1.08h-1.74v3.86h1.69c.86,0,1.47-.19,1.85-.56.31-.3.47-.75.47-1.34,0-.67-.22-1.17-.66-1.51-.39-.3-.92-.46-1.6-.46Z" />
    <path class="h" d="m820.31,42.78c0-1.24.37-2.18,1.11-2.81.59-.51,1.33-.77,2.24-.77,1.05,0,1.87.33,2.47,1,.57.62.86,1.48.86,2.57,0,1.22-.36,2.15-1.08,2.79-.59.52-1.34.78-2.26.78-1.05,0-1.88-.35-2.48-1.04-.56-.63-.85-1.48-.85-2.53Zm1.3,0c0,.87.22,1.53.66,1.99.36.38.83.57,1.39.57.66,0,1.17-.25,1.52-.74.33-.45.49-1.06.49-1.82,0-.88-.22-1.55-.65-2-.36-.37-.82-.56-1.38-.56-.65,0-1.16.25-1.52.74-.35.45-.52,1.06-.52,1.82Z" />
    <path class="h" d="m833.94,40.85v1.09h-4.13v3.09h4.51v1.12h-5.84v-9.36h5.84v1.12h-4.51v2.94h4.13Z" />
    <path class="h" d="m838.28,44.7v-2.17h-2.15v-1.11h2.15v-2.18h1.18v2.18h2.13v1.11h-2.13v2.17h-1.18Z" />
    <path class="h" d="m848.76,39.44h-1.31c.1-.81.48-1.45,1.12-1.92.57-.43,1.26-.65,2.08-.65.93,0,1.67.26,2.22.78.49.48.74,1.08.74,1.81,0,.64-.18,1.23-.55,1.78-.29.46-.84,1.06-1.62,1.81l-2.08,1.98h4.21v1.14h-5.9v-1.14l2.96-2.85c.66-.63,1.11-1.14,1.35-1.51s.36-.77.36-1.19c0-.5-.17-.89-.52-1.17-.3-.25-.7-.38-1.2-.38-.55,0-1,.15-1.34.46-.29.27-.47.62-.52,1.07Z" />
    <path class="h" d="m857.17,46.16h-1.51v-1.51h1.51v1.51Z" />
    <path class="h" d="m859.03,43.95h1.33c.09.42.32.76.68,1,.34.23.75.35,1.25.35.62,0,1.11-.21,1.48-.64.33-.38.49-.88.49-1.51,0-.7-.2-1.24-.61-1.6-.34-.31-.79-.47-1.34-.47-.75,0-1.35.28-1.82.83h-1.11l.2-4.86h5.59v1.05h-4.46l-.1,2.67c.55-.44,1.22-.66,1.99-.66.9,0,1.62.29,2.17.88.52.56.78,1.3.78,2.21s-.33,1.72-.97,2.31c-.6.56-1.37.83-2.3.83s-1.73-.28-2.35-.83c-.49-.43-.78-.96-.88-1.57Z" />
    <path class="h" d="m874.93,41.13v5.03h-.97l-.18-1.12c-.31.44-.74.78-1.29,1-.48.21-1.01.31-1.59.31-1.29,0-2.32-.48-3.09-1.43-.7-.88-1.05-2.04-1.05-3.46,0-1.65.47-2.91,1.42-3.8.76-.71,1.72-1.07,2.87-1.07s2.04.32,2.78.96c.62.54.99,1.2,1.09,1.98h-1.3c-.12-.62-.44-1.08-.95-1.4-.44-.29-.98-.43-1.62-.43-.93,0-1.66.35-2.18,1.05-.5.67-.75,1.57-.75,2.7,0,1.28.34,2.27,1.01,2.96.53.55,1.17.83,1.94.83s1.46-.25,1.98-.74c.47-.43.7-.97.7-1.6v-.73h-2.74v-1.07h3.94Z" />
    <path class="h" d="m877.69,46.16h-1.03v-9.36h1.25v3.54c.53-.75,1.28-1.13,2.26-1.13s1.72.35,2.26,1.04c.48.62.72,1.45.72,2.48,0,1.22-.33,2.16-.98,2.81-.55.55-1.24.82-2.09.82-.96,0-1.69-.36-2.2-1.09l-.2.9Zm4.16-3.46c0-.85-.21-1.49-.64-1.91-.34-.35-.78-.52-1.33-.52-.63,0-1.14.23-1.51.69-.36.44-.53,1.02-.53,1.74,0,.87.21,1.53.64,1.99.35.4.82.6,1.4.6.65,0,1.14-.24,1.48-.71.32-.44.48-1.07.48-1.87Z" />
    <path class="h" d="m890.11,40.85v1.09h-4.13v3.09h4.51v1.12h-5.84v-9.36h5.84v1.12h-4.51v2.94h4.13Z" />
  </g>
  <g>
    <polygon class="h" points="786.16 39.65 791.71 46.04 797.38 39.65 786.16 39.65" />
    <polygon class="h" points="909.24 39.65 914.8 46.04 920.46 39.65 909.24 39.65" />
  </g>
  <g>
    <path class="o" d="m453.73,35.55h3.51c1.45,0,2.54.34,3.27,1.02.64.6.96,1.43.96,2.49,0,1.18-.41,2.06-1.23,2.66-.73.52-1.75.78-3.06.78h-1.92v3.85h-1.53v-10.8Zm3.54,1.24h-2.01v4.46h1.95c.99,0,1.7-.21,2.13-.65.36-.35.54-.86.54-1.54,0-.77-.26-1.35-.77-1.74-.45-.35-1.06-.53-1.84-.53Z" />
    <path class="o" d="m462.45,42.45c0-1.43.43-2.51,1.28-3.24.68-.59,1.54-.88,2.58-.88,1.21,0,2.16.38,2.85,1.15.66.72.99,1.71.99,2.97,0,1.41-.42,2.48-1.25,3.23-.68.6-1.55.9-2.61.9-1.21,0-2.17-.4-2.87-1.2-.65-.73-.98-1.7-.98-2.92Zm1.5,0c0,1,.26,1.77.77,2.29.42.44.96.66,1.6.66.76,0,1.34-.29,1.75-.85.38-.52.57-1.22.57-2.1,0-1.02-.25-1.79-.75-2.31-.41-.43-.94-.65-1.59-.65-.75,0-1.33.29-1.75.85-.4.52-.6,1.22-.6,2.1Z" />
    <path class="o" d="m478.17,40.23v1.26h-4.77v3.57h5.21v1.29h-6.74v-10.8h6.74v1.29h-5.21v3.39h4.77Z" />
    <path class="o" d="m483.18,44.67v-2.5h-2.48v-1.27h2.48v-2.52h1.37v2.52h2.46v1.27h-2.46v2.5h-1.37Z" />
    <path class="o" d="m502.96,40.54v5.81h-1.12l-.21-1.29c-.36.51-.86.9-1.49,1.16-.55.24-1.16.36-1.83.36-1.49,0-2.68-.55-3.57-1.65-.81-1.02-1.21-2.35-1.21-3.99,0-1.9.54-3.36,1.63-4.38.88-.82,1.99-1.23,3.32-1.23s2.36.37,3.21,1.11c.72.62,1.14,1.38,1.26,2.28h-1.5c-.14-.71-.5-1.25-1.09-1.62-.51-.33-1.13-.5-1.88-.5-1.07,0-1.91.4-2.52,1.21-.58.77-.87,1.81-.87,3.12,0,1.48.39,2.62,1.17,3.42.61.64,1.35.96,2.23.96s1.68-.28,2.28-.85c.54-.5.81-1.11.81-1.84v-.84h-3.17v-1.23h4.54Z" />
    <path class="o" d="m506.16,46.35h-1.19v-10.8h1.44v4.08c.61-.87,1.48-1.3,2.61-1.3s1.99.4,2.61,1.2c.55.72.83,1.68.83,2.87,0,1.41-.38,2.49-1.12,3.24-.63.63-1.44.95-2.42.95-1.11,0-1.96-.42-2.54-1.26l-.22,1.04Zm4.8-3.99c0-.98-.25-1.71-.74-2.2-.39-.4-.9-.6-1.53-.6-.73,0-1.31.27-1.74.79-.41.51-.62,1.18-.62,2.01,0,1,.25,1.77.74,2.3.41.46.95.69,1.62.69.75,0,1.32-.27,1.71-.83.37-.51.55-1.23.55-2.16Z" />
    <path class="o" d="m520.48,40.23v1.26h-4.77v3.57h5.21v1.29h-6.74v-10.8h6.74v1.29h-5.21v3.39h4.77Z" />
    <path class="o" d="m526.93,43.8h1.53c.11.49.37.88.78,1.15.39.27.87.4,1.44.4.71,0,1.28-.24,1.71-.73.38-.44.57-1.02.57-1.74,0-.81-.24-1.43-.71-1.85-.39-.36-.91-.54-1.54-.54-.86,0-1.56.32-2.1.96h-1.28l.22-5.61h6.45v1.21h-5.14l-.12,3.08c.64-.51,1.4-.77,2.29-.77,1.04,0,1.88.34,2.5,1.02.6.65.9,1.5.9,2.55s-.38,1.98-1.12,2.67c-.69.64-1.58.96-2.66.96s-2-.32-2.71-.96c-.56-.5-.9-1.1-1.02-1.81Z" />
    <path class="o" d="m539.67,46.57c-1.2,0-2.13-.51-2.8-1.53-.63-.96-.95-2.28-.95-3.97,0-1.96.41-3.41,1.21-4.35.64-.73,1.49-1.1,2.54-1.1,1.21,0,2.14.49,2.8,1.46.63.94.95,2.27.95,3.99,0,1.93-.41,3.38-1.21,4.33-.65.78-1.5,1.17-2.54,1.17Zm0-1.2c.82,0,1.42-.4,1.79-1.2.33-.7.5-1.73.5-3.1,0-1.55-.22-2.67-.65-3.36-.37-.59-.92-.88-1.63-.88-.82,0-1.42.39-1.79,1.17-.33.69-.5,1.72-.5,3.08,0,1.56.21,2.69.65,3.39.37.61.92.92,1.63.92Z" />
    <path class="o" d="m552.37,35.55h1.5l-3.87,10.8h-1.91l-3.93-10.8h1.62l3.27,9.36,3.32-9.36Z" />
    <path class="o" d="m560.65,40.72h-1.53c.08-.78.45-1.38,1.11-1.81.59-.39,1.33-.58,2.23-.58,1.07,0,1.89.28,2.46.84.48.48.72,1.1.72,1.86v5.33h-1.19l-.18-1.06c-.61.86-1.48,1.29-2.61,1.29-.89,0-1.58-.24-2.08-.72-.41-.4-.62-.9-.62-1.51,0-.77.27-1.37.79-1.79.47-.37,1.19-.64,2.16-.81l2.28-.39v-.39c0-.51-.17-.9-.53-1.16-.31-.23-.73-.34-1.27-.34-1.06,0-1.65.42-1.75,1.26Zm1.36,4.63c.61,0,1.14-.2,1.59-.6.4-.37.6-.79.6-1.28v-1l-1.93.35c-.71.12-1.2.31-1.46.55-.21.2-.32.47-.32.81,0,.38.13.67.39.87.26.2.64.3,1.12.3Z" />
    <path class="o" d="m571.15,45.19v1.23c-.37.1-.73.15-1.07.15-.72,0-1.26-.23-1.62-.68-.31-.37-.46-.86-.46-1.48v-4.63h-1.16v-1.23h1.16l.09-1.88h1.35v1.88h1.68v1.23h-1.68v4.67c0,.58.27.87.82.87.26,0,.56-.04.89-.12Z" />
    <path class="o" d="m580.45,46.57c-1.2,0-2.13-.51-2.8-1.53-.63-.96-.95-2.28-.95-3.97,0-1.96.41-3.41,1.21-4.35.64-.73,1.49-1.1,2.54-1.1,1.21,0,2.14.49,2.8,1.46.63.94.95,2.27.95,3.99,0,1.93-.41,3.38-1.21,4.33-.65.78-1.5,1.17-2.54,1.17Zm0-1.2c.82,0,1.42-.4,1.79-1.2.33-.7.5-1.73.5-3.1,0-1.55-.22-2.67-.65-3.36-.37-.59-.92-.88-1.63-.88-.82,0-1.42.39-1.79,1.17-.33.69-.5,1.72-.5,3.08,0,1.56.21,2.69.65,3.39.37.61.92.92,1.63.92Z" />
    <path class="o" d="m588.07,46.35h-1.74v-1.74h1.74v1.74Z" />
    <path class="o" d="m594.43,39.48c1.08,0,1.92.38,2.52,1.12.5.63.75,1.43.75,2.4,0,1.21-.42,2.15-1.25,2.81-.64.51-1.39.77-2.26.77-1.29,0-2.25-.5-2.88-1.48-.54-.85-.81-2.04-.81-3.57,0-2.29.45-3.92,1.33-4.89.62-.67,1.45-1,2.49-1,.85,0,1.57.23,2.16.68.52.4.85.92,1,1.54h-1.59c-.09-.33-.28-.59-.56-.77-.28-.19-.62-.28-1.03-.28-1.45,0-2.25,1.35-2.39,4.05.27-.43.62-.77,1.07-1,.44-.24.92-.36,1.44-.36Zm-2.36,3.48c0,.81.23,1.44.69,1.88.37.36.84.54,1.42.54.64,0,1.15-.23,1.53-.67.35-.42.53-.96.53-1.62,0-.79-.21-1.4-.63-1.83-.37-.38-.85-.57-1.44-.57-.72,0-1.27.25-1.65.77-.3.41-.45.91-.45,1.51Z" />
    <path class="o" d="m609.04,46.35h-1.7l-1.06-2.73h-5.15l-1.08,2.73h-1.61l4.44-10.8h1.72l4.42,10.8Zm-5.31-9.27l-2.1,5.29h4.16l-2.05-5.29Z" />
    <path class="o" d="m612.16,44.61v1.52c0,.83-.24,1.46-.71,1.91-.33.32-.75.51-1.26.57v-.75c.62-.13.93-.63.93-1.5h-.71v-1.74h1.74Z" />
    <path class="o" d="m618.8,43.8h1.53c.11.49.37.88.78,1.15.39.27.87.4,1.44.4.71,0,1.28-.24,1.71-.73.38-.44.57-1.02.57-1.74,0-.81-.24-1.43-.71-1.85-.39-.36-.91-.54-1.54-.54-.86,0-1.56.32-2.1.96h-1.28l.22-5.61h6.45v1.21h-5.14l-.12,3.08c.64-.51,1.4-.77,2.29-.77,1.04,0,1.88.34,2.5,1.02.6.65.9,1.5.9,2.55s-.38,1.98-1.12,2.67c-.69.64-1.58.96-2.66.96s-2-.32-2.71-.96c-.56-.5-.9-1.1-1.02-1.81Z" />
    <path class="o" d="m634.84,37.14l-4.29,9.21h-1.63l4.39-9.21h-5.14v-1.29h6.67v1.29Z" />
    <path class="o" d="m644.24,35.55h1.5l-3.87,10.8h-1.91l-3.93-10.8h1.62l3.27,9.36,3.32-9.36Z" />
    <path class="o" d="m657.62,46.35h-1.44l-3.33-8.46v8.46h-1.49v-10.8h2.13l3.44,9,3.24-9h2.01v10.8h-1.44v-8.38l-3.12,8.38Z" />
    <path class="o" d="m665.59,40.72h-1.53c.08-.78.45-1.38,1.11-1.81.59-.39,1.33-.58,2.23-.58,1.07,0,1.89.28,2.46.84.48.48.72,1.1.72,1.86v5.33h-1.19l-.18-1.06c-.61.86-1.48,1.29-2.61,1.29-.89,0-1.58-.24-2.08-.72-.41-.4-.62-.9-.62-1.51,0-.77.27-1.37.79-1.79.47-.37,1.19-.64,2.16-.81l2.28-.39v-.39c0-.51-.17-.9-.53-1.16-.31-.23-.73-.34-1.27-.34-1.06,0-1.65.42-1.75,1.26Zm1.36,4.63c.61,0,1.14-.2,1.59-.6.4-.37.6-.79.6-1.28v-1l-1.93.35c-.71.12-1.2.31-1.46.55-.21.2-.32.47-.32.81,0,.38.13.67.39.87.26.2.64.3,1.12.3Z" />
    <path class="o" d="m678.89,38.55l-2.61,3.65,3.06,4.15h-1.75l-2.12-3.02-2.07,3.02h-1.69l2.91-4.05-2.73-3.75h1.72l1.86,2.62,1.77-2.62h1.65Z" />
  </g>
  <path class="o" d="m396.53,259.9h-1.43v-9l-2.35,1.21v-1.48l2.37-1.23h1.41v10.5Z" />
  <path class="o" d="m441.09,252.15h-1.51c.12-.93.55-1.67,1.29-2.22.66-.5,1.46-.75,2.4-.75,1.07,0,1.92.3,2.57.9.57.55.85,1.25.85,2.08,0,.74-.21,1.43-.63,2.06-.34.53-.96,1.23-1.88,2.08l-2.4,2.28h4.86v1.32h-6.81v-1.32l3.42-3.29c.76-.73,1.28-1.31,1.55-1.75.27-.44.41-.89.41-1.37,0-.58-.2-1.03-.6-1.35-.35-.29-.81-.43-1.38-.43-.64,0-1.15.17-1.54.52-.34.31-.54.72-.6,1.23Z" />
  <path class="o" d="m494.99,257.04c0,.97-.39,1.75-1.16,2.33-.67.5-1.53.75-2.57.75-1.15,0-2.06-.29-2.75-.88-.58-.49-.92-1.14-1.03-1.94h1.53c.25,1.08.99,1.62,2.22,1.62.76,0,1.34-.2,1.75-.6.35-.34.52-.77.52-1.31,0-.7-.25-1.23-.75-1.59-.37-.26-.81-.39-1.32-.39h-.87v-1.25h.84c.49,0,.9-.16,1.23-.48.34-.32.51-.74.51-1.27,0-.56-.24-1-.71-1.31-.36-.23-.79-.34-1.31-.34-.62,0-1.12.16-1.51.46-.33.27-.53.62-.6,1.04h-1.52c.14-.88.58-1.56,1.33-2.06.65-.43,1.44-.65,2.37-.65,1.02,0,1.85.25,2.49.77.61.49.92,1.15.92,1.98,0,.6-.2,1.12-.6,1.58-.34.39-.77.67-1.29.82.69.15,1.24.47,1.65.96.4.48.6,1.06.6,1.75Z" />
  <path class="o" d="m539.47,249.4h1.5v7.29h1.7v1.23h-1.7v1.98h-1.4v-1.98h-4.6v-1.33l4.5-7.19Zm-2.9,7.29h3v-4.96l-3,4.96Z" />
  <path class="o" d="m582.41,257.35h1.53c.11.49.37.88.78,1.15.39.27.87.4,1.44.4.71,0,1.28-.24,1.71-.73.38-.44.57-1.02.57-1.74,0-.81-.24-1.43-.71-1.85-.39-.36-.91-.54-1.54-.54-.86,0-1.56.32-2.1.96h-1.28l.22-5.61h6.45v1.21h-5.14l-.12,3.08c.64-.51,1.4-.77,2.29-.77,1.04,0,1.88.34,2.5,1.02.6.65.9,1.5.9,2.55s-.38,1.98-1.12,2.67c-.69.64-1.58.96-2.66.96s-2-.32-2.71-.96c-.56-.5-.9-1.1-1.02-1.81Z" />
  <path class="o" d="m634.18,253.03c1.08,0,1.92.38,2.52,1.12.5.63.75,1.43.75,2.4,0,1.21-.42,2.15-1.25,2.81-.64.51-1.39.77-2.26.77-1.29,0-2.25-.5-2.88-1.48-.54-.85-.81-2.04-.81-3.57,0-2.29.45-3.92,1.33-4.89.62-.67,1.45-1,2.49-1,.85,0,1.57.23,2.16.68.52.4.85.92,1,1.54h-1.59c-.09-.33-.28-.59-.56-.77-.28-.19-.62-.28-1.03-.28-1.45,0-2.25,1.35-2.39,4.05.27-.43.62-.77,1.07-1,.44-.24.92-.36,1.44-.36Zm-2.36,3.48c0,.81.23,1.44.69,1.88.37.36.84.54,1.42.54.64,0,1.15-.23,1.53-.67.35-.42.53-.96.53-1.62,0-.79-.21-1.4-.63-1.83-.37-.38-.85-.57-1.44-.57-.72,0-1.27.25-1.65.77-.3.41-.45.91-.45,1.51Z" />
  <path class="o" d="m685.1,250.69l-4.29,9.21h-1.63l4.39-9.21h-5.14v-1.29h6.67v1.29Z" />
  <path class="o" d="m732.86,252.36c0,.47-.14.91-.43,1.32s-.7.75-1.23,1.03c1.36.6,2.04,1.48,2.04,2.66,0,.93-.38,1.67-1.14,2.23-.68.48-1.52.72-2.54.72-1.18,0-2.11-.3-2.81-.91-.59-.52-.88-1.17-.88-1.94s.24-1.36.72-1.86c.33-.35.75-.62,1.26-.81-1.07-.5-1.61-1.28-1.61-2.33,0-.94.38-1.65,1.13-2.14.59-.38,1.32-.56,2.18-.56,1.01,0,1.82.23,2.43.69.59.46.88,1.1.88,1.91Zm-1.1,5c0-.74-.31-1.29-.94-1.63-.31-.17-.83-.34-1.58-.51-.56.16-1.01.41-1.34.75-.38.39-.56.85-.56,1.39s.21,1,.62,1.33c.39.32.92.48,1.59.48.76,0,1.34-.19,1.73-.58.32-.31.48-.72.48-1.23Zm-4.16-4.97c0,.71.29,1.23.88,1.56.34.18.79.31,1.36.39,1.09-.42,1.63-1.07,1.63-1.95,0-.5-.21-.9-.64-1.19-.36-.24-.79-.36-1.29-.36-.6,0-1.08.15-1.45.43-.34.28-.51.65-.51,1.11Z" />
  <path class="o" d="m774.96,256.6c-1,0-1.79-.34-2.37-1.03-.52-.61-.78-1.4-.78-2.37,0-1.1.37-1.97,1.1-2.62.62-.55,1.38-.82,2.29-.82,2.37,0,3.56,1.62,3.56,4.87,0,3.79-1.24,5.68-3.73,5.68-.83,0-1.53-.22-2.1-.67-.49-.39-.81-.89-.97-1.5h1.53c.2.69.73,1.04,1.59,1.04.71,0,1.26-.32,1.63-.95.37-.64.58-1.61.65-2.94-.26.41-.6.73-1.02.96-.42.23-.88.34-1.38.34Zm2.27-3.35c0-.78-.22-1.38-.67-1.81-.36-.35-.81-.52-1.37-.52-.62,0-1.11.22-1.47.67-.34.4-.51.91-.51,1.55,0,.78.22,1.38.65,1.81.36.34.8.51,1.34.51.69,0,1.22-.25,1.59-.74.29-.4.44-.88.44-1.46Z" />
  <g>
    <path class="o" d="m819.61,260.1h-1.37v-8.68l-2.27,1.17v-1.43l2.28-1.19h1.36v10.12Z" />
    <path class="o" d="m827.06,260.31c-1.16,0-2.06-.49-2.71-1.47-.61-.93-.91-2.2-.91-3.83,0-1.89.39-3.29,1.17-4.19.62-.7,1.43-1.06,2.44-1.06,1.17,0,2.07.47,2.7,1.4.61.91.91,2.19.91,3.85,0,1.86-.39,3.25-1.17,4.18-.63.75-1.44,1.13-2.44,1.13Zm0-1.16c.79,0,1.36-.39,1.72-1.16.32-.67.48-1.67.48-2.99,0-1.49-.21-2.57-.62-3.24-.36-.57-.88-.85-1.58-.85-.79,0-1.37.38-1.72,1.13-.32.67-.48,1.65-.48,2.96,0,1.5.21,2.59.62,3.27.36.59.88.88,1.58.88Z" />
  </g>
  <g>
    <path class="o" d="m868.95,260.1h-1.37v-8.68l-2.27,1.17v-1.43l2.28-1.19h1.36v10.12Z" />
    <path class="o" d="m877.62,260.1h-1.37v-8.68l-2.27,1.17v-1.43l2.28-1.19h1.36v10.12Z" />
  </g>
  <g>
    <path class="o" d="m916.39,260.1h-1.37v-8.68l-2.27,1.17v-1.43l2.28-1.19h1.36v10.12Z" />
    <path class="o" d="m921.83,252.62h-1.46c.12-.9.53-1.61,1.24-2.14.64-.48,1.41-.72,2.31-.72,1.03,0,1.86.29,2.47.87.55.53.82,1.2.82,2.01,0,.71-.2,1.37-.61,1.98-.33.51-.93,1.18-1.81,2.01l-2.31,2.2h4.68v1.27h-6.56v-1.27l3.3-3.17c.73-.7,1.23-1.27,1.5-1.68.26-.42.4-.86.4-1.32,0-.56-.19-.99-.58-1.3-.34-.28-.78-.42-1.33-.42-.62,0-1.11.17-1.49.51-.33.3-.52.69-.58,1.19Z" />
  </g>
  <g id="b" data-name="lights">
    <circle class="e" cx="107.22" cy="97.55" r="6.17" />
    <circle cx="107.22" cy="209.61" r="5.44" />
    <path d="m108.1,233.36v-3.24l-4.73,3.74,4.73,3.74v-3.24c4.7,0,8.53,3.83,8.53,8.53s-3.83,8.53-8.53,8.53-8.53-3.83-8.53-8.53h-1c0,5.25,4.27,9.53,9.53,9.53s9.53-4.27,9.53-9.53-4.27-9.53-9.53-9.53Z" />
  </g>
  <rect class="k" x="373.48" y="73.12" width="22.96" height="10.86" rx="1.66" ry="1.66" />
  <rect class="f" x="442.52" y="73.12" width="22.96" height="10.86" rx="1.66" ry="1.66" transform="translate(907.99 157.1) rotate(180)" />
  <rect class="k" x="470.93" y="73.12" width="22.96" height="10.86" rx="1.66" ry="1.66" />
  <rect class="f" x="539.97" y="73.12" width="22.96" height="10.86" rx="1.66" ry="1.66" transform="translate(1102.89 157.1) rotate(180)" />
  <rect class="k" x="568.37" y="73.12" width="22.96" height="10.86" rx="1.66" ry="1.66" />
  <rect class="f" x="637.42" y="73.12" width="22.96" height="10.86" rx="1.66" ry="1.66" transform="translate(1297.79 157.1) rotate(180)" />
  <rect class="k" x="665.82" y="73.12" width="22.96" height="10.86" rx="1.66" ry="1.66" />
  <rect class="f" x="734.87" y="73.12" width="22.96" height="10.86" rx="1.66" ry="1.66" transform="translate(1492.69 157.1) rotate(180)" />
  <rect class="k" x="763.27" y="73.12" width="22.96" height="10.86" rx="1.66" ry="1.66" />
  <rect class="f" x="832.32" y="73.12" width="22.96" height="10.86" rx="1.66" ry="1.66" transform="translate(1687.59 157.1) rotate(180)" />
  <rect class="k" x="860.72" y="73.12" width="22.96" height="10.86" rx="1.66" ry="1.66" />
  <rect class="f" x="929.77" y="73.12" width="22.96" height="10.86" rx="1.66" ry="1.66" transform="translate(1882.49 157.1) rotate(180)" />
  <path d="m379.15,163.65v45.41c0,.65.53,1.18,1.18,1.18h17.57c.65,0,1.18.53,1.18,1.18v9.3c0,.65.53,1.18,1.18,1.18h2.85c.65,0,1.18.53,1.18,1.18v9.63c0,.65.53,1.18,1.18,1.18h28.19c.65,0,1.18-.53,1.18-1.18v-9.63c0-.65.53-1.18,1.18-1.18h2.85c.65,0,1.18-.53,1.18-1.18v-9.3c0-.65.53-1.18,1.18-1.18h17.57c.65,0,1.18-.53,1.18-1.18v-45.41c0-.65-.53-1.18-1.18-1.18h-78.51c-.65,0-1.18.53-1.18,1.18Z" />
  <path d="m476.49,163.65v45.41c0,.65.53,1.18,1.18,1.18h17.57c.65,0,1.18.53,1.18,1.18v9.3c0,.65.53,1.18,1.18,1.18h2.85c.65,0,1.18.53,1.18,1.18v9.63c0,.65.53,1.18,1.18,1.18h28.19c.65,0,1.18-.53,1.18-1.18v-9.63c0-.65.53-1.18,1.18-1.18h2.85c.65,0,1.18-.53,1.18-1.18v-9.3c0-.65.53-1.18,1.18-1.18h17.57c.65,0,1.18-.53,1.18-1.18v-45.41c0-.65-.53-1.18-1.18-1.18h-78.51c-.65,0-1.18.53-1.18,1.18Z" />
  <path d="m573.82,163.65v45.41c0,.65.53,1.18,1.18,1.18h17.57c.65,0,1.18.53,1.18,1.18v9.3c0,.65.53,1.18,1.18,1.18h2.85c.65,0,1.18.53,1.18,1.18v9.63c0,.65.53,1.18,1.18,1.18h28.19c.65,0,1.18-.53,1.18-1.18v-9.63c0-.65.53-1.18,1.18-1.18h2.85c.65,0,1.18-.53,1.18-1.18v-9.3c0-.65.53-1.18,1.18-1.18h17.57c.65,0,1.18-.53,1.18-1.18v-45.41c0-.65-.53-1.18-1.18-1.18h-78.51c-.65,0-1.18.53-1.18,1.18Z" />
  <path d="m671.15,163.65v45.41c0,.65.53,1.18,1.18,1.18h17.57c.65,0,1.18.53,1.18,1.18v9.3c0,.65.53,1.18,1.18,1.18h2.85c.65,0,1.18.53,1.18,1.18v9.63c0,.65.53,1.18,1.18,1.18h28.19c.65,0,1.18-.53,1.18-1.18v-9.63c0-.65.53-1.18,1.18-1.18h2.85c.65,0,1.18-.53,1.18-1.18v-9.3c0-.65.53-1.18,1.18-1.18h17.57c.65,0,1.18-.53,1.18-1.18v-45.41c0-.65-.53-1.18-1.18-1.18h-78.51c-.65,0-1.18.53-1.18,1.18Z" />
  <path d="m768.49,163.65v45.41c0,.65.53,1.18,1.18,1.18h17.57c.65,0,1.18.53,1.18,1.18v9.3c0,.65.53,1.18,1.18,1.18h2.85c.65,0,1.18.53,1.18,1.18v9.63c0,.65.53,1.18,1.18,1.18h28.19c.65,0,1.18-.53,1.18-1.18v-9.63c0-.65.53-1.18,1.18-1.18h2.85c.65,0,1.18-.53,1.18-1.18v-9.3c0-.65.53-1.18,1.18-1.18h17.57c.65,0,1.18-.53,1.18-1.18v-45.41c0-.65-.53-1.18-1.18-1.18h-78.51c-.65,0-1.18.53-1.18,1.18Z" />
  <path d="m865.82,163.65v45.41c0,.65.53,1.18,1.18,1.18h17.57c.65,0,1.18.53,1.18,1.18v9.3c0,.65.53,1.18,1.18,1.18h2.85c.65,0,1.18.53,1.18,1.18v9.63c0,.65.53,1.18,1.18,1.18h28.19c.65,0,1.18-.53,1.18-1.18v-9.63c0-.65.53-1.18,1.18-1.18h2.85c.65,0,1.18-.53,1.18-1.18v-9.3c0-.65.53-1.18,1.18-1.18h17.57c.65,0,1.18-.53,1.18-1.18v-45.41c0-.65-.53-1.18-1.18-1.18h-78.51c-.65,0-1.18.53-1.18,1.18Z" />
  <rect class="k" x="373.48" y="214.34" width="22.96" height="10.86" rx="1.66" ry="1.66" />
  <rect class="f" x="442.52" y="214.34" width="22.96" height="10.86" rx="1.66" ry="1.66" transform="translate(907.99 439.53) rotate(-180)" />
  <rect class="k" x="470.93" y="214.34" width="22.96" height="10.86" rx="1.66" ry="1.66" />
  <rect class="f" x="539.97" y="214.34" width="22.96" height="10.86" rx="1.66" ry="1.66" transform="translate(1102.89 439.53) rotate(-180)" />
  <rect class="k" x="568.37" y="214.34" width="22.96" height="10.86" rx="1.66" ry="1.66" />
  <rect class="f" x="637.42" y="214.34" width="22.96" height="10.86" rx="1.66" ry="1.66" transform="translate(1297.79 439.53) rotate(-180)" />
  <rect class="k" x="665.82" y="214.34" width="22.96" height="10.86" rx="1.66" ry="1.66" />
  <rect class="f" x="734.87" y="214.34" width="22.96" height="10.86" rx="1.66" ry="1.66" transform="translate(1492.69 439.53) rotate(-180)" />
  <rect class="k" x="763.27" y="214.34" width="22.96" height="10.86" rx="1.66" ry="1.66" />
  <rect class="f" x="832.32" y="214.34" width="22.96" height="10.86" rx="1.66" ry="1.66" transform="translate(1687.59 439.53) rotate(-180)" />
  <rect class="k" x="860.72" y="214.34" width="22.96" height="10.86" rx="1.66" ry="1.66" />
  <rect class="f" x="929.77" y="214.34" width="22.96" height="10.86" rx="1.66" ry="1.66" transform="translate(1882.49 439.53) rotate(-180)" />
  <g id="c" data-name="logo.cisco">
    <polygon class="o" points="1355.46 236.14 1349.48 236.14 1349.48 214.42 1355.46 214.42 1355.46 236.14 1355.46 236.14" />
    <path class="o" d="m1403.65,220.64c-.25-.11-2.18-1.16-5.03-1.16-3.87,0-6.55,2.47-6.55,5.79,0,3.24,2.56,5.8,6.55,5.8,2.81,0,4.77-1.02,5.03-1.15v5.83c-.75.2-2.8.78-5.45.78-6.73,0-12.63-4.25-12.63-11.26,0-6.48,5.34-11.24,12.63-11.24,2.8,0,4.88.62,5.45.78v5.83h0Z" />
    <path class="o" d="m1341.27,220.64c-.24-.11-2.16-1.16-5.02-1.16-3.87,0-6.55,2.47-6.55,5.79,0,3.24,2.56,5.8,6.55,5.8,2.81,0,4.77-1.02,5.02-1.15v5.83c-.74.2-2.79.78-5.46.78-6.72,0-12.6-4.25-12.6-11.26,0-6.48,5.33-11.24,12.6-11.24,2.83,0,4.89.62,5.46.78v5.83h0Z" />
    <path class="o" d="m1434.95,225.27c0,6.22-5.23,11.26-12.51,11.26-7.28,0-12.5-5.04-12.5-11.26,0-6.2,5.22-11.24,12.5-11.24,7.28,0,12.51,5.04,12.51,11.24h0Zm-12.51-5.71c-3.54,0-6.17,2.55-6.17,5.71,0,3.17,2.63,5.72,6.17,5.72,3.55,0,6.18-2.55,6.18-5.72,0-3.15-2.64-5.71-6.18-5.71h0Z" />
    <path class="o" d="m1378.12,219.35c-.08-.03-2.6-.66-4.67-.66-2.39,0-3.69.73-3.69,1.78,0,1.32,1.75,1.77,2.73,2.07l1.66.48c3.87,1.13,5.64,3.57,5.64,6.21,0,5.46-5.24,7.29-9.8,7.29-3.18,0-6.15-.54-6.45-.59v-5c.53.12,3.03.81,5.64.81,2.96,0,4.34-.8,4.34-2.04,0-1.1-1.18-1.73-2.67-2.16-.36-.11-.9-.27-1.28-.37-3.32-.97-6.09-2.77-6.09-6.36,0-4.07,3.31-6.79,8.83-6.79,2.91,0,5.64.64,5.82.68v4.64h0Z" />
    <path class="o" d="m1317.58,191.05c0-1.66-1.31-3.01-2.94-3.01-1.6,0-2.92,1.35-2.92,3.01v6.33c0,1.68,1.32,3.02,2.92,3.02,1.63,0,2.94-1.34,2.94-3.02v-6.33h0Z" />
    <path class="o" d="m1333.69,182.73c0-1.66-1.31-3.01-2.92-3.01-1.63,0-2.94,1.34-2.94,3.01v14.65c0,1.68,1.32,3.02,2.94,3.02,1.61,0,2.92-1.34,2.92-3.02v-14.65h0Z" />
    <path class="o" d="m1349.8,171.36c0-1.67-1.31-3.02-2.93-3.02s-2.94,1.35-2.94,3.02v32.05c0,1.67,1.32,3.03,2.94,3.03,1.62,0,2.93-1.36,2.93-3.03v-32.05h0Z" />
    <path class="o" d="m1365.91,182.73c0-1.66-1.31-3.01-2.92-3.01-1.62,0-2.94,1.34-2.94,3.01v14.65c0,1.68,1.31,3.02,2.94,3.02,1.61,0,2.92-1.34,2.92-3.02v-14.65h0Z" />
    <path class="o" d="m1382,191.05c0-1.66-1.3-3.01-2.92-3.01s-2.93,1.35-2.93,3.01v6.33c0,1.68,1.32,3.02,2.93,3.02,1.61,0,2.92-1.34,2.92-3.02v-6.33h0Z" />
    <path class="o" d="m1398.12,182.73c0-1.66-1.31-3.01-2.93-3.01-1.61,0-2.92,1.34-2.92,3.01v14.65c0,1.68,1.31,3.02,2.92,3.02,1.62,0,2.93-1.34,2.93-3.02v-14.65h0Z" />
    <path class="o" d="m1414.23,171.36c0-1.67-1.3-3.02-2.93-3.02-1.6,0-2.92,1.35-2.92,3.02v32.05c0,1.67,1.32,3.03,2.92,3.03,1.63,0,2.93-1.36,2.93-3.03v-32.05h0Z" />
    <path class="o" d="m1430.36,182.73c0-1.66-1.32-3.01-2.97-3.01-1.6,0-2.92,1.34-2.92,3.01v14.65c0,1.68,1.32,3.02,2.92,3.02,1.65,0,2.97-1.34,2.97-3.02v-14.65h0Z" />
    <path class="o" d="m1446.44,191.05c0-1.66-1.32-3.01-2.93-3.01-1.62,0-2.92,1.35-2.92,3.01v6.33c0,1.68,1.31,3.02,2.92,3.02,1.61,0,2.93-1.34,2.93-3.02v-6.33h0Z" />
  </g>
  <polyline class="m" points="1162.87 237.53 1060.72 237.53 1060.72 61.78 1162.87 61.78" />
  <path class="g" d="m1160.9,236.11h-98.21c-.5,0-.91-.41-.91-.91V64.11c0-.5.41-.91.91-.91h98.21" />
  <g>
    <polygon class="d" points="1159.32 65.96 1064.02 65.96 1064.02 127.09 1091.4 127.09 1091.4 133.88 1131.94 133.88 1131.94 127.09 1159.32 127.09 1159.32 65.96" />
    <path class="j" d="m1094.9,122.52h33.53v1.79c0,1.94-1.57,3.51-3.51,3.51h-26.51c-1.94,0-3.51-1.57-3.51-3.51v-1.79h0Z" />
  </g>
  <g>
    <polygon class="d" points="1064.02 233.2 1159.32 233.2 1159.32 172.08 1131.94 172.08 1131.94 165.29 1091.4 165.29 1091.4 172.08 1064.02 172.08 1064.02 233.2" />
    <path class="j" d="m1094.9,171.34h33.53v1.79c0,1.94-1.57,3.51-3.51,3.51h-26.51c-1.94,0-3.51-1.57-3.51-3.51v-1.79h0Z" transform="translate(2223.34 347.98) rotate(180)" />
  </g>
  <g>
    <polygon class="l" points="1105.7 156.75 1093.6 156.75 1099.65 141.94 1099.65 141.94 1105.7 156.75" />
    <polygon class="l" points="1117.64 141.94 1129.74 141.94 1123.69 156.75 1123.69 156.75 1117.64 141.94" />
  </g>
  <g>
    <g>
      <polygon class="o" points="409.55 255.68 401.59 255.68 405.57 249.94 405.57 249.94 409.55 255.68" />
      <polygon class="o" points="450.24 253.92 458.19 253.92 454.21 259.66 454.21 259.66 450.24 253.92" />
    </g>
    <g>
      <polygon class="o" points="506.26 255.68 498.3 255.68 502.28 249.94 502.28 249.94 506.26 255.68" />
      <polygon class="o" points="546.26 253.11 554.21 253.11 550.24 258.85 550.24 258.85 546.26 253.11" />
    </g>
    <g>
      <polygon class="o" points="601.56 255.68 593.61 255.68 597.58 249.94 597.58 249.94 601.56 255.68" />
      <polygon class="o" points="641.02 253.11 648.97 253.11 645 258.85 645 258.85 641.02 253.11" />
    </g>
    <g>
      <polygon class="o" points="696 255.68 688.04 255.68 692.02 249.94 692.02 249.94 696 255.68" />
      <polygon class="o" points="736.62 253.11 744.58 253.11 740.6 258.85 740.6 258.85 736.62 253.11" />
    </g>
    <polygon class="o" points="790.24 255.68 782.29 255.68 786.27 249.94 786.27 249.94 790.24 255.68" />
    <polygon class="o" points="833.56 253.11 841.51 253.11 837.54 258.85 837.54 258.85 833.56 253.11" />
    <polygon class="o" points="890.94 255.68 882.98 255.68 886.96 249.94 886.96 249.94 890.94 255.68" />
    <polygon class="o" points="930.87 252.58 938.82 252.58 934.85 258.32 934.85 258.32 930.87 252.58" />
  </g>
</svg>