<svg id="products" viewBox="0 0 443.54 512.15"><defs><style>.cls-1{fill:url(#linear-gradient);}.cls-2{fill:url(#linear-gradient-2);}.cls-3{fill:#323232;}.cls-4{fill:url(#linear-gradient-3);}.cls-5{fill:none;stroke:#333534;stroke-miterlimit:10;stroke-width:9.64px;}.cls-6{fill:#333534;}</style><linearGradient id="linear-gradient" x1="368.39" y1="458.99" x2="84.84" y2="66.59" gradientUnits="userSpaceOnUse"><stop offset="0" stop-color="#7c38f3" /><stop offset="1" stop-color="#567afd" /></linearGradient><linearGradient id="linear-gradient-2" x1="378.53" y1="449.4" x2="64.79" y2="62.48" gradientUnits="userSpaceOnUse"><stop offset="0" stop-color="#474745" /><stop offset="1" stop-color="#827f82" /></linearGradient><linearGradient id="linear-gradient-3" x1="375.44" y1="459.92" x2="106.52" y2="103.19" href="#linear-gradient-2" /></defs><g id="MI"><polygon class="cls-1" points="443.54 384.12 443.54 128.04 221.77 0 0 128.04 0 384.12 221.77 512.15 443.54 384.12" /><polygon class="cls-2" points="9.12 378.85 9.12 133.3 221.77 10.53 434.42 133.3 434.42 378.85 221.77 501.63 9.12 378.85" /><polygon class="cls-3" points="18.23 373.59 18.23 138.56 221.77 21.05 425.31 138.56 425.31 373.59 221.77 491.1 18.23 373.59" /><polygon class="cls-4" points="36.46 363.06 36.46 149.09 221.77 42.1 407.08 149.09 407.08 363.06 221.77 470.05 36.46 363.06" /><line class="cls-5" x1="194.79" y1="109.32" x2="248.75" y2="109.32" /><line class="cls-5" x1="194.79" y1="401.1" x2="248.75" y2="401.1" /><line class="cls-5" x1="221.77" y1="319.81" x2="221.77" y2="109.32" /><line class="cls-5" x1="221.77" y1="401.1" x2="221.77" y2="373.66" /><path class="cls-6" d="M414.13,362c-14.55,0-26.42-2.57-36.28-7.86a54.54,54.54,0,0,1-23-24.08c-4.52-8.94-7.56-20-9.3-33.68-1.39-10.87-2-23.95-2-41.15,0-31.15-2.18-50.38-7.08-62.36-2.17-5.31-4.83-9-8.11-11.25s-7.93-3.47-13.87-3.47c-11,0-19.49,2.26-25.28,13.27-6.23,11.84-9.26,33-9.26,64.68,0,18-.76,32.55-2.3,44.53-1.73,13.41-4.52,24.07-8.53,32.61-4.59,9.76-11,17.14-19.16,21.93-7.81,4.6-17,6.83-28.13,6.83s-20.32-2.23-28.14-6.83c-8.12-4.79-14.56-12.17-19.15-21.93-4-8.54-6.8-19.2-8.53-32.61-1.55-12-2.3-26.55-2.3-44.53,0-31.68-3-52.84-9.26-64.68-5.79-11-14.3-13.27-25.28-13.27-5.94,0-10.48,1.14-13.87,3.47s-5.94,5.94-8.11,11.25c-4.9,12-7.08,31.21-7.08,62.36,0,17.2-.64,30.28-2,41.15-1.74,13.73-4.79,24.74-9.3,33.68a54.54,54.54,0,0,1-23,24.08C55.83,359.41,44,362,29.41,362V334.12c9.7,0,17.47-1.54,23.11-4.56,4.88-2.62,8.48-6.46,11.33-12.09,7.34-14.53,8.33-39.63,8.33-62.26,0-35.41,2.74-57.21,9.16-72.9C85.57,172,91.66,164,99.44,158.64c8.08-5.56,18.06-8.38,29.67-8.38s21.06,2.15,29.24,6.57c8.66,4.68,15.63,11.94,20.7,21.59,8.62,16.39,12.47,40.34,12.47,77.66,0,32.66,2.6,53.4,8.18,65.29,3.7,7.87,8.68,12.75,22.07,12.75s18.37-4.88,22.07-12.75c5.58-11.89,8.18-32.63,8.18-65.29,0-37.32,3.84-61.27,12.46-77.66,5.08-9.65,12-16.91,20.71-21.59,8.18-4.42,17.75-6.57,29.24-6.57s21.59,2.82,29.67,8.38C351.88,164,358,172,362.2,182.31c6.42,15.69,9.16,37.49,9.16,72.9,0,40.33,4.21,54.1,8.33,62.26,2.85,5.63,6.45,9.47,11.33,12.09,5.63,3,13.41,4.56,23.11,4.56Z" /></g></svg>