<svg id="a" width="690" height="458" viewBox="0 0 690 458"><defs><style>.d{fill:#b8d3dc;}.e{fill:#f5f1f0;}.f{fill:#fff;}.g{fill:#f7f8f8;}.h{fill:#68686d;}.i{fill:#009bdd;}.j{stroke:#f5f1f0;stroke-width:3px;}.j,.k,.l,.m{fill:none;}.j,.k,.m{stroke-miterlimit:10;}.n{fill:#5c5c5e;}.o{filter:url(#b);}.p{fill:#208b44;}.k{stroke:#009bdd;}.q{fill:#161616;}.r{fill:#e5e65d;}.s{fill:#c4c4c4;}.t{fill:#010101;}.u{fill:#3aab49;}.m{stroke:#5c5c5e;}</style><filter id="b" filterUnits="userSpaceOnUse"><feOffset dx="0" dy="7" /><feGaussianBlur result="c" stdDeviation="10" /><feFlood flood-color="#231f20" flood-opacity=".75" /><feComposite in2="c" operator="in" /><feComposite in="SourceGraphic" /></filter></defs><g class="o"><g><g><path class="t" d="M598.17,64.48V394.48c0,2.81-2.28,5.08-5.09,5.08H95.58c-3.34,0-6.08-2.73-6.08-6.08V64.48c0-8.85,7.18-16.03,16.03-16.03h476.61c8.85,0,16.03,7.18,16.03,16.03Z" /><path class="q" d="M598.17,384.23v10.25c0,2.81-2.28,5.08-5.09,5.08H95.58c-3.34,0-6.08-2.73-6.08-6.08v-9.25h508.67Z" /></g><path class="j" d="M598.17,64.48V394.48c0,2.81-2.28,5.08-5.09,5.08H95.58c-3.34,0-6.08-2.73-6.08-6.08V64.48c0-8.85,7.18-16.03,16.03-16.03h476.61c8.85,0,16.03,7.18,16.03,16.03Z" /><g><path class="e" d="M284.66,400c0,.3,.12,.59,.32,.86H29.13v-3.27h255.53v2.41Z" /><path class="e" d="M658.52,397.59v3.27h-253.5c.19-.27,.31-.56,.31-.86v-2.41h253.19Z" /></g><path class="h" d="M660.87,400.87s-15.13,4.69-23.58,5.8c-8.44,1.12-36.89,2.89-45.78,2.89H98.5c-8.89,0-37.33-1.77-45.78-2.89-8.44-1.11-23.58-5.8-23.58-5.8H660.87Z" /></g><g><path class="g" d="M582.56,71.32V367.87c0,.95-.77,1.73-1.72,1.73H109.17c-.95,0-1.72-.78-1.72-1.73V71.32c0-.95,.77-1.72,1.72-1.72h471.67c.95,0,1.72,.77,1.72,1.72Z" /><path class="u" d="M582.55,72.2v37.07s-475.11,0-475.11,0v-35.01c0-2.57-.52-4.65,1.72-4.65h471.67c1.27,.09,1.93,.86,1.72,2.6Z" /><rect class="p" x="437.67" y="79.26" width="111.33" height="20.17" rx="4.11" ry="4.11" /><g><circle class="s" cx="124.42" cy="129.73" r="6.42" /><circle class="s" cx="124.42" cy="152.65" r="6.42" /><circle class="s" cx="124.42" cy="175.57" r="6.42" /><circle class="s" cx="124.42" cy="198.48" r="6.42" /><circle class="s" cx="124.42" cy="221.4" r="6.42" /></g><g><path class="f" d="M155.51,91.29c0-.88-.72-1.6-1.6-1.6s-1.6,.72-1.6,1.6v3.36c0,.89,.72,1.6,1.6,1.6s1.6-.71,1.6-1.6v-3.36Z" /><path class="f" d="M164.31,86.88c0-.88-.72-1.59-1.6-1.59s-1.61,.71-1.61,1.59v7.76c0,.89,.72,1.6,1.61,1.6s1.6-.71,1.6-1.6v-7.76Z" /><path class="f" d="M173.12,80.85c0-.89-.71-1.6-1.6-1.6s-1.6,.71-1.6,1.6v16.98c0,.89,.72,1.6,1.6,1.6s1.6-.72,1.6-1.6v-16.98Z" /><path class="f" d="M181.92,86.88c0-.88-.72-1.59-1.6-1.59s-1.6,.71-1.6,1.59v7.76c0,.89,.72,1.6,1.6,1.6s1.6-.71,1.6-1.6v-7.76Z" /><path class="f" d="M190.71,91.29c0-.88-.71-1.6-1.59-1.6s-1.6,.72-1.6,1.6v3.36c0,.89,.72,1.6,1.6,1.6s1.59-.71,1.59-1.6v-3.36Z" /><path class="f" d="M199.52,86.88c0-.88-.71-1.59-1.6-1.59s-1.6,.71-1.6,1.59v7.76c0,.89,.71,1.6,1.6,1.6s1.6-.71,1.6-1.6v-7.76Z" /><path class="f" d="M208.33,80.85c0-.89-.71-1.6-1.6-1.6s-1.6,.71-1.6,1.6v16.98c0,.89,.72,1.6,1.6,1.6s1.6-.72,1.6-1.6v-16.98Z" /><path class="f" d="M217.14,86.88c0-.88-.72-1.59-1.62-1.59s-1.6,.71-1.6,1.59v7.76c0,.89,.72,1.6,1.6,1.6s1.62-.71,1.62-1.6v-7.76Z" /><path class="f" d="M225.92,91.29c0-.88-.72-1.6-1.6-1.6s-1.6,.72-1.6,1.6v3.36c0,.89,.71,1.6,1.6,1.6s1.6-.71,1.6-1.6v-3.36Z" /></g><line class="m" x1="208.33" y1="286.79" x2="549" y2="286.79" /><line class="m" x1="208.33" y1="286.79" x2="208.33" y2="182.29" /><g><g><g><rect class="f" x="152.31" y="123.32" width="396.69" height="180.95" rx="18.79" ry="18.79" /><polygon class="d" points="531.55 220.31 531.55 233.3 528.83 232.17 473.88 209.5 452.57 226.75 440.65 236.39 398.35 270.62 345.58 241.35 333.1 234.43 260.87 194.37 178.15 238.99 170.55 243.09 169.91 241.9 169.91 229.8 260.95 180.69 345.67 227.68 358.15 234.6 397.09 256.2 425.69 233.06 437.6 223.41 471.86 195.69 531.55 220.31" /><polygon class="r" points="531.55 231.79 531.55 243.91 496.71 248.86 440.65 236.39 425.69 233.06 379.98 222.89 358.15 234.6 345.58 241.35 317.74 256.29 229.84 241.06 169.91 252.83 169.91 240.61 178.15 238.99 229.71 228.86 315.71 243.76 333.1 234.43 345.67 227.68 378.24 210.2 437.6 223.41 452.57 226.75 497.19 236.68 528.83 232.17 531.55 231.79" /><rect class="l" x="169.91" y="171.96" width="361.64" height="110.67" /></g><rect class="n" x="172.98" y="136.81" width="57.4" height="14.23" rx="7.11" ry="7.11" /></g><rect class="f" x="153.03" y="320.38" width="395.97" height="37.94" rx="13.5" ry="13.5" /><line class="m" x1="166.16" y1="334" x2="539.03" y2="334" /><rect class="i" x="186.6" y="338.81" width="43.78" height="12.65" rx="6.32" ry="6.32" /><rect class="n" x="253" y="341.51" width="29.19" height="7.23" rx="3.62" ry="3.62" /><rect class="n" x="306.63" y="341.51" width="75.15" height="7.23" rx="3.62" ry="3.62" /><rect class="n" x="404.56" y="341.51" width="31.07" height="7.23" rx="2.33" ry="2.33" /></g><rect class="k" x="491.55" y="339.35" width="40" height="11.56" rx="2.22" ry="2.22" /></g><path class="e" d="M405.33,397.59v2.41c0,.3-.12,.59-.31,.86-.86,1.18-3.28,2.03-4.58,2.03h-110.89c-1.29,0-3.71-.85-4.57-2.03-.2-.27-.32-.56-.32-.86v-2.41h120.67Z" /></g></svg>