<svg id="a" width="510.32" height="284.94" viewBox="0 0 510.32 284.94"><defs><style>.b{fill:#f47b32;}.c{fill:#27215c;}</style></defs><circle class="c" cx="253.05" cy="142.31" r="29.11" /><path class="b" d="m414.97,142.31c-3.23,0-54.29,77.28-138.79,65.37,0,0,63.33-28.83,91.98-65.37-28.65-36.5-91.98-65.37-91.98-65.37,84.5-11.87,135.56,65.37,138.79,65.37Z" /><path class="b" d="m294.62,12.82c-49.64,0-99.25,7.27-206.08,129.5,106.84,122.23,156.44,129.49,206.08,129.49s99.25-7.26,206.08-129.49C393.87,20.09,344.26,12.82,294.62,12.82Zm0,219.05c-49.64,0-103.02-24.8-153.14-89.54,50.11-64.75,103.49-89.56,153.14-89.56s103.02,24.81,153.14,89.56c-50.11,64.75-103.49,89.54-153.14,89.54Z" /><path class="b" d="m204.74,271.83c-113.19,0-196.1-129.53-196.1-129.53,0,0,82.91-129.5,196.1-129.5,0,0-115.59,67.18-146.45,129.5,30.87,62.35,146.45,129.53,146.45,129.53Z" /></svg>