<svg id="products" viewBox="0 0 794.98 225.83"><defs><style>.cls-1{fill:url(#linear-gradient);}.cls-2{fill:#d5d5d5;}.cls-3{fill:#fcfbfc;}.cls-4{fill:#313131;}.cls-5{fill:#231f20;}.cls-6{fill:#343434;}.cls-7{fill:#666;}.cls-8{fill:#cbcbc9;}.cls-9{fill:#111;}.cls-10{fill:#84bc5f;}.cls-11{fill:#eff150;}.cls-12{fill:#565752;}.cls-13{fill:#ddd;}</style><linearGradient id="linear-gradient" x1="60.78" y1="71.34" x2="723.89" y2="71.34" gradientUnits="userSpaceOnUse"><stop offset="0" stop-color="#ccc" /><stop offset="0.33" stop-color="#e6e6e6" /><stop offset="1" stop-color="#d5d5d5" /></linearGradient></defs><g id="MS"><polygon class="cls-1" points="791.16 142.68 3.82 142.68 125.92 0 669.06 0 791.16 142.68" /><path class="cls-2" d="M765.43,224.76h-736A21.12,21.12,0,0,1,8.62,207.18L.25,157.11A21.07,21.07,0,0,1,21.1,132.62H773.8a21.07,21.07,0,0,1,20.85,24.49l-8.38,50.07A21.1,21.1,0,0,1,765.43,224.76Z" /><circle class="cls-3" cx="57.32" cy="172.12" r="5.23" /><circle class="cls-4" cx="59.11" cy="190.01" r="3.29" /><path class="cls-5" d="M60.36,213.53a4.27,4.27,0,0,1-4.27-4.27c0-.15,0-.3,0-.44l.9.09c0,.12,0,.23,0,.35a3.37,3.37,0,0,0,6.74,0,3.23,3.23,0,0,0-1.53-2.94,3.3,3.3,0,0,0-3.38.23l-.47-.77a4.24,4.24,0,0,1,4.29-.25,4.11,4.11,0,0,1,2,3.73A4.27,4.27,0,0,1,60.36,213.53Z" /><polygon class="cls-5" points="60.21 207.44 57.8 206.27 59.45 204.12 60.17 204.67 59.19 205.95 60.6 206.63 60.21 207.44" /><polygon class="cls-6" points="713.45 204.62 710.75 204.63 711.03 193.99 713.74 194 713.45 204.62 713.45 204.62" /><path class="cls-6" d="M735.23,197.09a4.71,4.71,0,0,0-2.21-.57,2.86,2.86,0,0,0-3,2.81,2.64,2.64,0,0,0,2.81,2.81,5,5,0,0,0,2.24-.56l-.09,2.81a8.33,8.33,0,0,1-2.43.38,5.15,5.15,0,0,1-5.43-5.44,5.58,5.58,0,0,1,5.8-5.45,8.09,8.09,0,0,1,2.41.39l-.1,2.82Z" /><path class="cls-6" d="M707.22,197a4.72,4.72,0,0,0-2.28-.58,2.89,2.89,0,0,0-3.06,2.85,2.73,2.73,0,0,0,2.92,2.85,4.94,4.94,0,0,0,2.3-.57l-.07,2.85a8.92,8.92,0,0,1-2.49.39,5.32,5.32,0,0,1-5.63-5.52,5.62,5.62,0,0,1,5.9-5.53,8.26,8.26,0,0,1,2.48.4l-.07,2.86Z" /><path class="cls-6" d="M748.9,199.34a5.6,5.6,0,0,1-5.67,5.41,5.13,5.13,0,0,1-5.3-5.42,5.59,5.59,0,0,1,5.7-5.41,5.11,5.11,0,0,1,5.27,5.42m-5.37-2.75a2.81,2.81,0,0,0-2.81,2.75,2.57,2.57,0,0,0,2.61,2.75,2.82,2.82,0,0,0,2.81-2.75,2.57,2.57,0,0,0-2.61-2.75" /><path class="cls-6" d="M723.88,196.44a9.34,9.34,0,0,0-2.09-.32c-1.07,0-1.67.35-1.68.86s.76.87,1.2,1l.73.24a3.07,3.07,0,0,1,2.44,3c-.08,2.65-2.45,3.54-4.5,3.54a15.28,15.28,0,0,1-2.89-.28l.07-2.43a10,10,0,0,0,2.53.39c1.33,0,2-.39,2-1s-.5-.84-1.16-1l-.57-.18c-1.48-.47-2.71-1.35-2.66-3.1.06-2,1.59-3.32,4.08-3.31a11.38,11.38,0,0,1,2.6.34l-.07,2.26Z" /><path class="cls-6" d="M696.35,182.35A1.34,1.34,0,0,0,695,181a1.39,1.39,0,0,0-1.4,1.34l-.06,2.84a1.34,1.34,0,0,0,1.34,1.37,1.38,1.38,0,0,0,1.4-1.34l.06-2.84Z" /><path class="cls-6" d="M704,178.69a1.34,1.34,0,0,0-1.33-1.36,1.39,1.39,0,0,0-1.41,1.33l-.15,6.56a1.34,1.34,0,0,0,1.34,1.36,1.38,1.38,0,0,0,1.39-1.34l.16-6.55Z" /><path class="cls-6" d="M711.56,173.69a1.33,1.33,0,0,0-1.32-1.37,1.38,1.38,0,0,0-1.4,1.33L708.48,188a1.31,1.31,0,0,0,1.32,1.35,1.37,1.37,0,0,0,1.38-1.33l.38-14.29Z" /><path class="cls-6" d="M718.83,178.86a1.32,1.32,0,0,0-1.3-1.36,1.39,1.39,0,0,0-1.39,1.33l-.18,6.51a1.32,1.32,0,0,0,1.31,1.35,1.38,1.38,0,0,0,1.37-1.33l.19-6.5Z" /><path class="cls-6" d="M726.06,182.62a1.28,1.28,0,0,0-1.28-1.34,1.37,1.37,0,0,0-1.38,1.32l-.08,2.8a1.3,1.3,0,0,0,1.29,1.34,1.38,1.38,0,0,0,1.37-1.32l.08-2.8Z" /><path class="cls-6" d="M733.48,179a1.28,1.28,0,0,0-1.27-1.35,1.38,1.38,0,0,0-1.37,1.32l-.21,6.46a1.28,1.28,0,0,0,1.27,1.34,1.37,1.37,0,0,0,1.37-1.32l.21-6.45Z" /><path class="cls-6" d="M740.91,174.09a1.28,1.28,0,0,0-1.26-1.35,1.36,1.36,0,0,0-1.36,1.31l-.5,14.1a1.27,1.27,0,0,0,1.26,1.33,1.36,1.36,0,0,0,1.36-1.31l.5-14.08Z" /><path class="cls-6" d="M747.93,179.18a1.28,1.28,0,0,0-1.27-1.34,1.36,1.36,0,0,0-1.35,1.31l-.24,6.42a1.25,1.25,0,0,0,1.25,1.32,1.36,1.36,0,0,0,1.37-1.3l.24-6.41Z" /><path class="cls-6" d="M754.91,182.89a1.26,1.26,0,0,0-1.24-1.33,1.35,1.35,0,0,0-1.34,1.3l-.11,2.76a1.24,1.24,0,0,0,1.24,1.32,1.34,1.34,0,0,0,1.34-1.3l.11-2.75Z" /><polygon class="cls-7" points="543.45 203.88 133.52 203.2 130.7 158.21 545.03 158.91 543.45 203.88" /><polygon class="cls-8" points="541.61 201.88 135.32 201.88 132.69 160.25 543.07 160.25 541.61 201.88" /><polygon class="cls-9" points="139.23 196.18 137.49 168.24 148.52 168.24 148.14 161.84 171.6 161.84 171.94 168.24 183.06 168.24 184.49 196.18 139.23 196.18" /><polygon class="cls-9" points="190.06 196.18 188.67 168.24 199.69 168.24 199.39 161.84 222.85 161.84 223.12 168.24 234.23 168.24 235.32 196.18 190.06 196.18" /><polygon class="cls-9" points="240.94 196.18 239.88 168.24 250.91 168.24 250.69 161.84 274.15 161.84 274.33 168.24 285.45 168.24 286.2 196.18 240.94 196.18" /><polygon class="cls-9" points="291.81 196.18 291.1 168.24 302.13 168.24 301.99 161.84 325.44 161.84 325.55 168.24 336.67 168.24 337.07 196.18 291.81 196.18" /><polygon class="cls-9" points="342.69 196.18 342.32 168.24 353.35 168.24 353.29 161.84 376.74 161.84 376.77 168.24 387.89 168.24 387.95 196.18 342.69 196.18" /><polygon class="cls-9" points="393.56 196.18 393.54 168.24 404.57 168.24 404.58 161.84 428.04 161.84 427.99 168.24 439.11 168.24 438.82 196.18 393.56 196.18" /><polygon class="cls-9" points="444.48 196.18 444.81 168.24 455.83 168.24 455.93 161.84 479.38 161.84 479.26 168.24 490.38 168.24 489.75 196.18 444.48 196.18" /><polygon class="cls-9" points="495.31 196.18 495.98 168.24 507.01 168.24 507.18 161.84 530.64 161.84 530.43 168.24 541.55 168.24 540.58 196.18 495.31 196.18" /><polygon class="cls-10" points="148.65 170.43 137.08 170.43 136.62 163.03 148.21 163.03 148.65 170.43" /><polygon class="cls-11" points="183.63 170.43 172.06 170.43 171.66 163.03 183.25 163.03 183.63 170.43" /><polygon class="cls-10" points="199.84 170.43 188.27 170.43 187.9 163.03 199.49 163.03 199.84 170.43" /><polygon class="cls-11" points="234.82 170.43 223.25 170.43 222.94 163.03 234.53 163.03 234.82 170.43" /><polygon class="cls-10" points="251.03 170.43 239.47 170.43 239.19 163.03 250.78 163.03 251.03 170.43" /><polygon class="cls-11" points="286.01 170.43 274.44 170.43 274.23 163.03 285.82 163.03 286.01 170.43" /><polygon class="cls-10" points="302.23 170.43 290.66 170.43 290.47 163.03 302.06 163.03 302.23 170.43" /><polygon class="cls-11" points="337.2 170.43 325.64 170.43 325.51 163.03 337.1 163.03 337.2 170.43" /><polygon class="cls-10" points="353.42 170.43 341.85 170.43 341.75 163.03 353.34 163.03 353.42 170.43" /><polygon class="cls-11" points="388.4 170.43 376.83 170.43 376.79 163.03 388.38 163.03 388.4 170.43" /><polygon class="cls-10" points="404.61 170.43 393.04 170.43 393.04 163.03 404.63 163.03 404.61 170.43" /><polygon class="cls-11" points="439.59 170.43 428.02 170.43 428.08 163.03 439.67 163.03 439.59 170.43" /><polygon class="cls-10" points="455.8 170.43 444.24 170.43 444.32 163.03 455.91 163.03 455.8 170.43" /><polygon class="cls-11" points="490.78 170.43 479.21 170.43 479.36 163.03 490.95 163.03 490.78 170.43" /><polygon class="cls-10" points="507 170.43 495.43 170.43 495.6 163.03 507.19 163.03 507 170.43" /><polygon class="cls-11" points="541.98 170.43 530.41 170.43 530.64 163.03 542.23 163.03 541.98 170.43" /><polygon class="cls-7" points="661.39 170.43 557 170.43 555.71 203.91 570.35 203.91 570.24 206.6 590.46 206.6 590.59 203.91 620.23 203.91 620.03 207.5 640.43 207.5 640.65 203.91 659.26 203.91 661.39 170.43" /><polygon class="cls-9" points="558.14 201.94 571.16 201.94 571 205.58 589.79 205.58 589.96 201.94 605.69 201.94 607.12 173.71 559.24 173.71 558.14 201.94" /><polygon class="cls-9" points="657.54 173.71 609.67 173.71 608.22 201.94 621.24 201.94 621.04 205.58 639.83 205.58 640.04 201.94 655.77 201.94 657.54 173.71" /><path d="M164.56,209.51l-1,1.08-.34-.35,1.41-1.48h.49v6.35h-.54Z" /><path d="M212.9,214.66c2.16-1.74,3.6-3,3.6-4.19a1.31,1.31,0,0,0-1.44-1.31,2.08,2.08,0,0,0-1.74.83l-.37-.34a2.55,2.55,0,0,1,2.11-1,1.82,1.82,0,0,1,2,1.8c0,1.38-1.47,2.66-3.31,4.14h3.34v.5H212.9Z" /><path d="M262.44,213.84a2.15,2.15,0,0,0,1.78.89c1,0,1.6-.52,1.6-1.36s-.75-1.28-1.7-1.28h-.59v-.51h.59c.83,0,1.6-.36,1.6-1.21s-.7-1.23-1.52-1.23a2.16,2.16,0,0,0-1.7.81l-.34-.34a2.61,2.61,0,0,1,2.07-1c1.1,0,2,.6,2,1.67a1.54,1.54,0,0,1-1.35,1.49,1.6,1.6,0,0,1,1.45,1.57c0,1-.79,1.82-2.14,1.82a2.5,2.5,0,0,1-2.16-1.06Z" /><path d="M315.67,213.37h-3v-.48l2.82-4.13h.73v4.12h.93v.49h-.93v1.74h-.54Zm-2.45-.49h2.45v-3.57Z" /><path d="M362.8,214.4a2,2,0,0,0,1.77.91,1.53,1.53,0,0,0,1.59-1.53,1.48,1.48,0,0,0-1.58-1.55,2.2,2.2,0,0,0-1.54.61l-.41-.17v-3.32h3.67v.49h-3.12v2.48a2.21,2.21,0,0,1,1.51-.59,1.94,1.94,0,0,1,2,2,2,2,0,0,1-2.14,2,2.35,2.35,0,0,1-2.13-1Z" /><path d="M414.11,209.25a2,2,0,0,1,1.71.81l-.32.4a1.6,1.6,0,0,0-1.39-.72c-1.37,0-1.87,1.44-1.87,2.79a2.71,2.71,0,0,0,0,.29,2.37,2.37,0,0,1,1.85-1,1.88,1.88,0,0,1,2,2,2,2,0,0,1-2.12,2c-1.72,0-2.33-1.58-2.33-3.28S412.36,209.25,414.11,209.25Zm-.1,3a2.06,2.06,0,0,0-1.73,1.09c.07.86.53,2,1.72,2a1.53,1.53,0,0,0,1.59-1.53A1.44,1.44,0,0,0,414,212.25Z" /><path d="M466.1,209.84h-3.51v-.49h4.15v.38l-2.7,6h-.6Z" /><path d="M513.82,212.42a1.71,1.71,0,0,1-1.48-1.53c0-1.13,1-1.64,2.06-1.64s2.05.51,2.05,1.64a1.71,1.71,0,0,1-1.47,1.53,1.88,1.88,0,0,1,1.57,1.68c0,1-.94,1.7-2.15,1.7s-2.16-.67-2.16-1.7A1.89,1.89,0,0,1,513.82,212.42Zm.58.24c-.39.05-1.61.44-1.61,1.4,0,.77.76,1.25,1.61,1.25s1.6-.48,1.6-1.25C516,213.1,514.78,212.71,514.4,212.66Zm0-2.92c-.84,0-1.5.45-1.5,1.2s1.12,1.17,1.5,1.25c.39-.08,1.5-.36,1.5-1.25S515.23,209.74,514.4,209.74Z" /><path class="cls-12" d="M583.52,212.27A3.53,3.53,0,0,1,580,215.6a3.18,3.18,0,0,1-3.22-3.33,3.55,3.55,0,0,1,3.52-3.34A3.17,3.17,0,0,1,583.52,212.27Z" /><path class="cls-12" d="M633.06,212.27a3.6,3.6,0,0,1-3.56,3.33,3.13,3.13,0,0,1-3.17-3.33,3.59,3.59,0,0,1,3.55-3.34A3.14,3.14,0,0,1,633.06,212.27Z" /><path d="M335.31,147a1.92,1.92,0,0,1,1.53.7l-.26.19a1.66,1.66,0,0,0-1.27-.57,1.79,1.79,0,0,0,0,3.58,1.72,1.72,0,0,0,1.2-.49v-1H335v-.32h1.9v1.43a2.09,2.09,0,0,1-1.55.67,2.11,2.11,0,0,1,0-4.22Z" /><path d="M337.73,147h.32v1.6a1.28,1.28,0,0,1,1-.55,1.37,1.37,0,0,1,1.32,1.55c0,1-.54,1.55-1.32,1.55a1.24,1.24,0,0,1-1-.55v.47h-.32ZM339,150.9c.66,0,1-.54,1-1.26s-.37-1.26-1-1.26a1.18,1.18,0,0,0-1,.54v1.45A1.19,1.19,0,0,0,339,150.9Z" /><path d="M341.23,147h2.58v.32h-2.23v1.51h2.19v.31h-2.19v1.62h2.23v.31h-2.58Z" /><path d="M578.75,163.52a1.67,1.67,0,0,0,1.27.59c.83,0,1.07-.46,1.07-.81,0-.58-.55-.73-1.11-.89s-1.33-.36-1.33-1.11a1.2,1.2,0,0,1,1.34-1.09,1.77,1.77,0,0,1,1.38.58l-.24.25a1.45,1.45,0,0,0-1.16-.51c-.54,0-1,.31-1,.75s.5.63,1.06.78,1.38.39,1.38,1.22c0,.52-.35,1.15-1.45,1.15a1.87,1.87,0,0,1-1.49-.65Z" /><path d="M582.29,160.28h2.59v.32h-2.24v1.51h2.19v.31h-2.19v1.93h-.35Z" /><path d="M585.6,160.28h1.53a1.19,1.19,0,1,1,0,2.38H586v1.69h-.35Zm1.49.32H586v1.75h1.14a.88.88,0,1,0,0-1.75Z" /><path d="M590.24,163.75H590v-1.33h-1.2v-.25H590v-1.29h.28v1.29h1.19v.25h-1.19Z" /><path d="M630.71,163.52a1.67,1.67,0,0,0,1.27.59c.84,0,1.08-.46,1.08-.81,0-.58-.55-.73-1.12-.89s-1.33-.36-1.33-1.11a1.2,1.2,0,0,1,1.34-1.09,1.77,1.77,0,0,1,1.38.58l-.23.25a1.48,1.48,0,0,0-1.17-.51c-.54,0-.95.31-.95.75s.51.63,1.06.78,1.38.39,1.38,1.22c0,.52-.35,1.15-1.45,1.15a1.85,1.85,0,0,1-1.48-.65Z" /><path d="M634.26,160.28h2.58v.32h-2.23v1.51h2.19v.31h-2.19v1.93h-.35Z" /><path d="M637.57,160.28h1.52a1.19,1.19,0,1,1,0,2.38h-1.18v1.69h-.34Zm1.49.32h-1.15v1.75h1.15a.88.88,0,1,0,0-1.75Z" /><path d="M642.2,163.75h-.28v-1.33h-1.2v-.25h1.2v-1.29h.28v1.29h1.2v.25h-1.2Z" /><polygon class="cls-13" points="375.33 87.79 369.72 87.79 373.19 79.7 378.1 79.7 375.33 87.79 375.33 87.79" /><path class="cls-13" d="M418.41,81.8a23.9,23.9,0,0,0-4.4-.4c-3.27,0-5.37.86-5.15,2.07s2.75,2.23,6.37,2.23a19.31,19.31,0,0,0,4.4-.45l.85,2.38a39.25,39.25,0,0,1-5,.33c-6.33,0-12-1.77-12.3-4.49-.21-2.31,4-3.9,10-3.9a42.53,42.53,0,0,1,4.55.25l.71,2Z" /><path class="cls-13" d="M365.3,81.8a17.55,17.55,0,0,0-4-.4c-3.27,0-6.16.86-7,2.07s.73,2.23,4.35,2.23a25.82,25.82,0,0,0,4.81-.45l-1.3,2.38a46.78,46.78,0,0,1-5.32.33c-6.31,0-10.42-1.77-8.22-4.49,1.87-2.31,7.52-3.9,13.47-3.9a35.73,35.73,0,0,1,4.34.25l-1.08,2Z" /><path class="cls-13" d="M446.4,83.47c1.94,2.4-1.29,4.49-8.14,4.49s-12.68-2.09-13.75-4.49c-1-2.22,2.53-3.9,8.49-3.9s11.61,1.68,13.4,3.9m-12.23-2c-3,0-4.74.89-4.12,2s3.56,2.2,6.78,2.2,4.89-1,4-2.2-3.69-2-6.69-2" /><path class="cls-13" d="M396.67,81.35c-.07,0-2.18-.22-3.92-.22-2,0-3.14.25-3.19.61s1.42.63,2.25.74l1.41.17c3.34.41,4.89,1.31,4.9,2.33,0,2.2-4.89,3-9.19,3-3,0-5.73-.24-6-.26l.47-2a49.48,49.48,0,0,0,5.07.32c2.7,0,4-.32,4-.81s-1-.67-2.31-.83l-1.11-.14c-2.88-.37-5.17-1-4.88-2.33s3.23-2.29,7.75-2.29c2.38,0,4.62.21,4.77.22l0,1.56Z" /><path class="cls-13" d="M352.45,73c.34-.37-.33-.68-1.51-.68a5,5,0,0,0-2.78.68l-1.46,1.49c-.41.41.28.74,1.5.74a4.84,4.84,0,0,0,2.91-.74L352.45,73Z" /><path class="cls-13" d="M365.46,71.15c.24-.35-.49-.63-1.61-.63a4,4,0,0,0-2.52.63l-2.49,3.32c-.31.41.45.74,1.69.74a4,4,0,0,0,2.73-.74l2.2-3.32Z" /><path class="cls-13" d="M377.81,68.86c.14-.32-.62-.57-1.7-.57s-2.07.25-2.24.57L370.22,76c-.23.43.63.79,1.9.79s2.46-.36,2.64-.79l3.05-7.11Z" /><path class="cls-13" d="M388.19,71.15c.07-.35-.79-.63-1.91-.63s-2.12.28-2.22.63l-.92,3.32c-.11.41.8.74,2,.74s2.3-.33,2.38-.74l.63-3.32Z" /><path class="cls-13" d="M399.63,73c0-.37-1-.68-2.14-.68s-2.13.31-2.15.68l-.06,1.49c0,.41,1,.74,2.21.74s2.22-.33,2.2-.74L399.63,73Z" /><path class="cls-13" d="M410.92,71.15c-.09-.35-1.08-.63-2.21-.63s-2,.28-1.91.63l.64,3.32c.08.41,1.14.74,2.38.74s2.14-.33,2-.74l-.93-3.32Z" /><path class="cls-13" d="M421.11,68.86c-.16-.32-1.16-.57-2.24-.57s-1.82.25-1.69.57L420.23,76c.19.43,1.38.79,2.64.79s2.12-.36,1.9-.79l-3.66-7.11Z" /><path class="cls-13" d="M433.67,71.15a4.05,4.05,0,0,0-2.54-.63c-1.12,0-1.85.28-1.62.63l2.2,3.32a4.06,4.06,0,0,0,2.73.74c1.26,0,2-.33,1.72-.74l-2.49-3.32Z" /><path class="cls-13" d="M446.82,73A5,5,0,0,0,444,72.3c-1.17,0-1.84.31-1.5.68l1.34,1.49a4.83,4.83,0,0,0,2.9.74c1.24,0,1.92-.33,1.51-.74L446.82,73Z" /></g></svg>