<svg viewBox="0 0 3414.38 309.14"><defs><style>.a{fill:#e4e4e4;}.b{fill:#251612;}.c{fill:#fff;}.d{fill:#191816;}.e{fill:#ececec;}.f{fill:#231f20;}.g{fill:#ababab;}.h{fill:#0f0f10;}.i{fill:#414042;}</style></defs><path class="a" d="M3377,0H37.42A37.43,37.43,0,0,0,0,37.42V271.71a37.43,37.43,0,0,0,37.42,37.43H3377a37.43,37.43,0,0,0,37.43-37.43V37.42A37.43,37.43,0,0,0,3377,0ZM109.32,265.87a24.44,24.44,0,0,1-24.44,24.44H61.76a24.44,24.44,0,0,1-24.44-24.44h0a24.44,24.44,0,0,1,24.44-24.44H84.88a24.44,24.44,0,0,1,24.44,24.44Zm0-222.6A24.44,24.44,0,0,1,84.88,67.71H61.76A24.44,24.44,0,0,1,37.32,43.27h0A24.44,24.44,0,0,1,61.76,18.83H84.88a24.44,24.44,0,0,1,24.44,24.44Zm3267.74,222.6a24.44,24.44,0,0,1-24.44,24.44H3329.5a24.44,24.44,0,0,1-24.44-24.44h0a24.44,24.44,0,0,1,24.44-24.44h23.12a24.44,24.44,0,0,1,24.44,24.44Zm0-222.6a24.45,24.45,0,0,1-24.44,24.44H3329.5a24.44,24.44,0,0,1-24.44-24.44h0a24.44,24.44,0,0,1,24.44-24.44h23.12a24.44,24.44,0,0,1,24.44,24.44Z" /><polygon class="b" points="3165.68 247.38 3159.51 247.38 3159.51 225.66 3165.68 225.66 3165.68 247.38 3165.68 247.38" /><path class="b" d="M3215.37,231.88a11.75,11.75,0,0,0-5.18-1.16c-4,0-6.75,2.47-6.75,5.79s2.64,5.8,6.75,5.8a11.9,11.9,0,0,0,5.18-1.15V247a21.5,21.5,0,0,1-5.62.78c-6.94,0-13-4.25-13-11.26,0-6.48,5.51-11.24,13-11.24a21.14,21.14,0,0,1,5.62.78v5.83Z" /><path class="b" d="M3151,231.88a11.59,11.59,0,0,0-5.17-1.16c-4,0-6.76,2.47-6.76,5.79s2.64,5.8,6.76,5.8a11.79,11.79,0,0,0,5.17-1.15V247a21.37,21.37,0,0,1-5.63.78c-6.92,0-13-4.25-13-11.26,0-6.48,5.5-11.24,13-11.24a20.93,20.93,0,0,1,5.63.78v5.83Z" /><path class="b" d="M3247.65,236.51c0,6.22-5.39,11.26-12.9,11.26s-12.89-5-12.89-11.26,5.38-11.24,12.89-11.24,12.9,5,12.9,11.24Zm-12.9-5.7c-3.65,0-6.36,2.55-6.36,5.7s2.71,5.72,6.36,5.72,6.38-2.55,6.38-5.72-2.72-5.7-6.38-5.7Z" /><path class="b" d="M3189,230.59a24.12,24.12,0,0,0-4.81-.65c-2.47,0-3.81.73-3.81,1.78,0,1.31,1.8,1.77,2.82,2.06l1.71.48c4,1.13,5.82,3.57,5.82,6.21,0,5.46-5.4,7.3-10.11,7.3a40.75,40.75,0,0,1-6.66-.6v-5a25.69,25.69,0,0,0,5.82.82c3.06,0,4.48-.8,4.48-2s-1.22-1.73-2.76-2.16c-.37-.11-.92-.27-1.32-.37-3.42-1-6.28-2.77-6.28-6.36,0-4.07,3.42-6.79,9.1-6.79a30,30,0,0,1,6,.68v4.64Z" /><path class="b" d="M3126.62,202.29a3,3,0,0,0-6,0v6.33a3,3,0,1,0,6,0v-6.33Z" /><path class="b" d="M3143.23,194a3,3,0,0,0-6.05,0v14.65a3,3,0,0,0,6.05,0V194Z" /><path class="b" d="M3159.84,182.6a3,3,0,1,0-6,0v32.05a3,3,0,1,0,6,0V182.6Z" /><path class="b" d="M3176.46,194a3,3,0,0,0-6,0v14.65a3,3,0,1,0,6,0V194Z" /><path class="b" d="M3193.05,202.29a3,3,0,0,0-6,0v6.33a3,3,0,1,0,6,0v-6.33Z" /><path class="b" d="M3209.67,194a3,3,0,0,0-6,0v14.65a3,3,0,1,0,6,0V194Z" /><path class="b" d="M3226.29,182.6a3,3,0,1,0-6,0v32.05a3,3,0,1,0,6,0V182.6Z" /><path class="b" d="M3242.92,194a3,3,0,0,0-6.08,0v14.65a3,3,0,0,0,6.08,0V194Z" /><path class="b" d="M3259.5,202.29a3,3,0,0,0-6,0v6.33a3,3,0,1,0,6,0v-6.33Z" /><circle class="c" cx="217.98" cy="159.26" r="6.61" /><rect class="d" x="2916.6" y="68.98" width="136.95" height="180.55" /><rect class="e" x="2917.1" y="136.03" width="135.96" height="46.45" /><path class="f" d="M3052.56,136.53V182h-135V136.53h135m1-1h-137V183h137V135.53Z" /><rect x="2924.14" y="147.49" width="13.21" height="8.42" /><rect x="2949.24" y="147.49" width="13.21" height="8.42" /><rect x="2968.73" y="147.49" width="13.21" height="8.42" /><rect x="2988.21" y="147.49" width="13.21" height="8.42" /><rect x="3007.7" y="147.49" width="13.21" height="8.42" /><rect x="3032.8" y="147.49" width="13.21" height="8.42" /><rect x="2924.14" y="162.6" width="13.21" height="8.42" /><rect x="2949.24" y="162.6" width="13.21" height="8.42" /><rect x="2968.73" y="162.6" width="13.21" height="8.42" /><rect x="2988.21" y="162.6" width="13.21" height="8.42" /><rect x="3007.7" y="162.6" width="13.21" height="8.42" /><rect x="3032.8" y="162.6" width="13.21" height="8.42" /><path class="f" d="M2959.77,49.06a6.11,6.11,0,0,1-2.3-.42,4.85,4.85,0,0,1-1.8-1.21,5.62,5.62,0,0,1-1.17-2,7.56,7.56,0,0,1-.43-2.65,7.38,7.38,0,0,1,.45-2.68,5.78,5.78,0,0,1,1.22-2,5.16,5.16,0,0,1,1.82-1.2,6,6,0,0,1,2.22-.41A6.24,6.24,0,0,1,2962,37a4.92,4.92,0,0,1,1.81,1.19,5.71,5.71,0,0,1,1.21,2,7.76,7.76,0,0,1,.44,2.72,7.39,7.39,0,0,1-.53,2.9,5.73,5.73,0,0,1-1.45,2l1.93,2.41-1.37.9-1.76-2.53A6,6,0,0,1,2959.77,49.06Zm0-1.38a4,4,0,0,0,1.6-.32,3.36,3.36,0,0,0,1.25-.93,4.51,4.51,0,0,0,.82-1.52,7.68,7.68,0,0,0,0-4.18,4.46,4.46,0,0,0-.82-1.53,3.36,3.36,0,0,0-1.25-.93,4.31,4.31,0,0,0-3.21,0,3.44,3.44,0,0,0-1.25.93,4.46,4.46,0,0,0-.82,1.53,7.68,7.68,0,0,0,0,4.18,4.51,4.51,0,0,0,.82,1.52,3.44,3.44,0,0,0,1.25.93A4,4,0,0,0,2959.77,47.68Z" /><path class="f" d="M2974.55,45.56a2,2,0,0,0-.13-.74,1.43,1.43,0,0,0-.54-.6,5.13,5.13,0,0,0-1.15-.56c-.5-.18-1.15-.39-2-.61a10,10,0,0,1-1.75-.62,4.27,4.27,0,0,1-1.12-.74,2.52,2.52,0,0,1-.6-.92,3.29,3.29,0,0,1-.17-1.12,2.68,2.68,0,0,1,1.11-2.19,4,4,0,0,1,1.35-.65,6.34,6.34,0,0,1,1.83-.24,6.67,6.67,0,0,1,1.78.23,4.74,4.74,0,0,1,1.44.64,3.64,3.64,0,0,1,1,1,3.48,3.48,0,0,1,.51,1.37h-1.75a1.92,1.92,0,0,0-.89-1.37,4,4,0,0,0-2.11-.48,4.44,4.44,0,0,0-1.17.13,2.33,2.33,0,0,0-.81.34,1.34,1.34,0,0,0-.47.51,1.4,1.4,0,0,0-.15.64,1.71,1.71,0,0,0,.11.62,1.23,1.23,0,0,0,.44.52,4.36,4.36,0,0,0,1,.48,15.13,15.13,0,0,0,1.65.52,15.55,15.55,0,0,1,2.07.73,5.08,5.08,0,0,1,1.32.82,2.38,2.38,0,0,1,.69,1,3.62,3.62,0,0,1,.2,1.24,3,3,0,0,1-.31,1.34A3.28,3.28,0,0,1,2975,48a4.48,4.48,0,0,1-1.47.79,6.41,6.41,0,0,1-2,.29,5.85,5.85,0,0,1-1.8-.26,5,5,0,0,1-1.47-.72,4.07,4.07,0,0,1-1.06-1.13,3.84,3.84,0,0,1-.53-1.5h1.75a2.36,2.36,0,0,0,.94,1.61,3.44,3.44,0,0,0,2.14.6,4.65,4.65,0,0,0,1.31-.16,2.84,2.84,0,0,0,.94-.46,2.1,2.1,0,0,0,.57-.67A1.73,1.73,0,0,0,2974.55,45.56Z" /><path class="f" d="M2985,43.75H2980v5.06h-1.7v-12h7.34v1.44H2980v4.07H2985Z" /><path class="f" d="M2991.49,36.82a5.35,5.35,0,0,1,3.48,1,3.53,3.53,0,0,1,1.21,2.91,3.44,3.44,0,0,1-1.19,2.82,5.47,5.47,0,0,1-3.57,1h-2.13v4.28h-1.7v-12Zm-2.2,1.38v4.95h2.16a3.36,3.36,0,0,0,2.28-.62,2.32,2.32,0,0,0,.69-1.81,2.37,2.37,0,0,0-.74-1.86,3.17,3.17,0,0,0-2.16-.66Z" /><path class="f" d="M2997.85,40.2a3.68,3.68,0,0,1,.42-1.3,3.61,3.61,0,0,1,.86-1,3.93,3.93,0,0,1,1.24-.69,4.62,4.62,0,0,1,1.57-.25,4.56,4.56,0,0,1,1.51.23,3.67,3.67,0,0,1,1.2.66,3.05,3.05,0,0,1,.8,1,3.25,3.25,0,0,1,.29,1.38,4.32,4.32,0,0,1-.14,1.11,4.08,4.08,0,0,1-.47,1,7.49,7.49,0,0,1-.86,1.12c-.35.39-.79.84-1.31,1.34l-2.67,2.53h5.4v1.46h-7.56V47.35l3.8-3.65c.4-.38.73-.72,1-1a8.42,8.42,0,0,0,.68-.86A3.1,3.1,0,0,0,3004,41a2.63,2.63,0,0,0,.12-.8,1.86,1.86,0,0,0-.58-1.44,2.26,2.26,0,0,0-1.62-.54,2.55,2.55,0,0,0-1.64.51,2,2,0,0,0-.74,1.43Z" /><path class="f" d="M3015.65,39.9a2.47,2.47,0,0,1-.17.92,2.79,2.79,0,0,1-.44.75,3.47,3.47,0,0,1-.62.59,4.23,4.23,0,0,1-.69.44,5.73,5.73,0,0,1,.84.45,3.74,3.74,0,0,1,.74.64,3,3,0,0,1,.55.87,2.6,2.6,0,0,1,.22,1.1,3,3,0,0,1-.31,1.38,3.16,3.16,0,0,1-.86,1.07,4.26,4.26,0,0,1-1.34.7,5.63,5.63,0,0,1-1.74.25,5.88,5.88,0,0,1-1.73-.24,4.12,4.12,0,0,1-1.34-.68,3.15,3.15,0,0,1-.86-1,2.79,2.79,0,0,1-.31-1.32,3.05,3.05,0,0,1,.21-1.17,2.89,2.89,0,0,1,.54-.88,3.34,3.34,0,0,1,.73-.63,4.27,4.27,0,0,1,.8-.4,5.13,5.13,0,0,1-.67-.38,2.84,2.84,0,0,1-.59-.56,2.92,2.92,0,0,1-.42-.76,2.72,2.72,0,0,1-.17-1,2.91,2.91,0,0,1,.32-1.39,2.82,2.82,0,0,1,.84-1,3.47,3.47,0,0,1,1.21-.57,6,6,0,0,1,2.88,0,4,4,0,0,1,1.22.53,2.68,2.68,0,0,1,.84.93A2.76,2.76,0,0,1,3015.65,39.9Zm-1.27,5.76a2.16,2.16,0,0,0-.26-1.12,2.2,2.2,0,0,0-.7-.69,3.48,3.48,0,0,0-.94-.41l-1-.24a4,4,0,0,0-.74.29,2.9,2.9,0,0,0-.71.49,2.24,2.24,0,0,0-.53.72,2.12,2.12,0,0,0-.21,1,2.16,2.16,0,0,0,.15.81,2,2,0,0,0,.47.66,2.24,2.24,0,0,0,.79.45,3.49,3.49,0,0,0,1.13.17,2.74,2.74,0,0,0,1.92-.59A1.94,1.94,0,0,0,3014.38,45.66Zm-4.79-5.72a2,2,0,0,0,.26,1.08,2.16,2.16,0,0,0,.65.66,3.18,3.18,0,0,0,.83.35c.3.07.58.12.84.16a4.86,4.86,0,0,0,.65-.32,3.09,3.09,0,0,0,.6-.48,2,2,0,0,0,.45-.63,1.8,1.8,0,0,0,.18-.82,1.47,1.47,0,0,0-.18-.74,1.59,1.59,0,0,0-.47-.56,2.07,2.07,0,0,0-.71-.36,3,3,0,0,0-.86-.13,3.35,3.35,0,0,0-.85.11,2.39,2.39,0,0,0-.72.34,1.72,1.72,0,0,0-.49.55A1.67,1.67,0,0,0,3009.59,39.94Z" /><rect class="g" x="2354.66" y="175.23" width="545.31" height="74.58" /><rect class="h" x="2362.39" y="183.19" width="130.21" height="58.66" /><rect class="h" x="2495.6" y="183.19" width="130.21" height="58.66" /><rect class="h" x="2762.02" y="183.19" width="130.22" height="58.66" /><path class="i" d="M2895.24,238.87v-52.2l3.52-3.52a4.13,4.13,0,0,0-5.84-5.84l-2.74,2.74H2764.65v-.69a4.13,4.13,0,1,0-8.25,0v.69h-125v-.69a4.13,4.13,0,0,0-4.13-4.13,4.13,4.13,0,0,0-4.12,4.13v.69h-125v-.69a4.13,4.13,0,1,0-8.25,0v.69H2364.44l-2.73-2.74a4.13,4.13,0,0,0-7.05,2.92,4.09,4.09,0,0,0,1.21,2.92l3.52,3.52v52.2l-3.52,3.52a4.13,4.13,0,0,0,0,5.84,4.13,4.13,0,0,0,5.84,0l3.51-3.52H2490v1a4.13,4.13,0,1,0,8.25,0v-1h125v1a4.13,4.13,0,1,0,8.25,0v-1h125v1a4.13,4.13,0,1,0,8.25,0v-1H2889.4l3.52,3.52a4.13,4.13,0,1,0,5.84-5.84Zm-402.64,2.84H2362.39V183.05H2492.6Zm133.21,0H2495.6V183.05h130.21Zm133.21,0H2628.81V183.05H2759Zm133.22,0H2762V183.05h130.22Z" /><rect class="h" x="2628.81" y="183.19" width="130.21" height="58.66" /><circle class="h" cx="2427.5" cy="267.94" r="6.55" /><circle class="h" cx="2560.71" cy="267.94" r="6.55" /><circle class="h" cx="2693.92" cy="267.94" r="6.55" /><circle class="h" cx="2827.13" cy="267.94" r="6.55" /><rect class="g" x="1791.59" y="175.23" width="545.31" height="74.58" /><rect class="h" x="1800.73" y="183.19" width="130.21" height="58.66" /><rect class="h" x="1933.94" y="183.19" width="130.21" height="58.66" /><rect class="h" x="2198.95" y="183.19" width="130.22" height="58.66" /><path class="i" d="M2332.17,238.87v-52.2l3.52-3.52a4.13,4.13,0,0,0-5.84-5.84l-2.74,2.74H2201.58v-.69a4.13,4.13,0,1,0-8.25,0v.69h-125v-.69a4.13,4.13,0,0,0-4.13-4.13,4.13,4.13,0,0,0-4.12,4.13v.69h-125v-.69a4.13,4.13,0,1,0-8.25,0v.69H1801.37l-2.73-2.74a4.13,4.13,0,0,0-7.05,2.92,4.09,4.09,0,0,0,1.21,2.92l3.52,3.52v52.2l-3.52,3.52a4.13,4.13,0,0,0,0,5.84,4.13,4.13,0,0,0,5.84,0l3.51-3.52h124.76v1a4.13,4.13,0,1,0,8.25,0v-1h125v1a4.13,4.13,0,1,0,8.25,0v-1h125v1a4.13,4.13,0,1,0,8.25,0v-1h124.75l3.52,3.52a4.13,4.13,0,1,0,5.84-5.84Zm-402.64,2.84H1799.32V183.05h130.21Zm133.21,0H1932.53V183.05h130.21Zm133.21,0H2065.74V183.05H2196Zm133.22,0H2199V183.05h130.22Z" /><rect class="h" x="2067.15" y="183.19" width="130.21" height="58.66" /><circle class="h" cx="1865.83" cy="267.94" r="6.55" /><circle class="h" cx="1999.04" cy="267.94" r="6.55" /><circle class="h" cx="2132.25" cy="267.94" r="6.55" /><circle class="h" cx="2265.46" cy="267.94" r="6.55" /><rect class="g" x="1228.35" y="175.23" width="545.31" height="74.58" /><rect class="h" x="1236.09" y="183.19" width="130.21" height="58.66" /><rect class="h" x="1369.3" y="183.19" width="130.21" height="58.66" /><rect class="h" x="1635.72" y="183.19" width="130.22" height="58.66" /><path class="i" d="M1768.93,238.87v-52.2l3.52-3.52a4.13,4.13,0,0,0-5.84-5.84l-2.74,2.74H1638.34v-.69a4.13,4.13,0,1,0-8.25,0v.69h-125v-.69a4.13,4.13,0,0,0-4.13-4.13,4.13,4.13,0,0,0-4.12,4.13v.69h-125v-.69a4.13,4.13,0,1,0-8.25,0v.69H1238.13l-2.73-2.74a4.13,4.13,0,0,0-7.05,2.92,4.09,4.09,0,0,0,1.21,2.92l3.52,3.52v52.2l-3.52,3.52a4.13,4.13,0,0,0,0,5.84,4.13,4.13,0,0,0,5.84,0l3.51-3.52h124.76v1a4.13,4.13,0,1,0,8.25,0v-1h125v1a4.13,4.13,0,1,0,8.25,0v-1h125v1a4.13,4.13,0,1,0,8.25,0v-1h124.75l3.52,3.52a4.13,4.13,0,1,0,5.84-5.84Zm-402.64,2.84H1236.08V183.05h130.21Zm133.21,0H1369.29V183.05H1499.5Zm133.21,0H1502.5V183.05h130.21Zm133.22,0H1635.71V183.05h130.22Z" /><rect class="h" x="1502.51" y="183.19" width="130.21" height="58.66" /><circle class="h" cx="1301.19" cy="267.94" r="6.55" /><circle class="h" cx="1434.4" cy="267.94" r="6.55" /><circle class="h" cx="1567.61" cy="267.94" r="6.55" /><circle class="h" cx="1700.82" cy="267.94" r="6.55" /><circle class="h" cx="2951.24" cy="267.94" r="6.55" /><circle class="h" cx="3018.92" cy="267.94" r="6.55" /><path class="f" d="M2607.38,142.94a6.15,6.15,0,0,1-2.3-.42,4.85,4.85,0,0,1-1.8-1.21,5.67,5.67,0,0,1-1.17-2,7.73,7.73,0,0,1-.43-2.64,7.47,7.47,0,0,1,.45-2.69,5.7,5.7,0,0,1,1.23-1.95,5,5,0,0,1,1.81-1.2,6.13,6.13,0,0,1,2.23-.41,6.32,6.32,0,0,1,2.22.39,4.94,4.94,0,0,1,1.8,1.18,5.46,5.46,0,0,1,1.21,2,7.53,7.53,0,0,1,.44,2.72,7.14,7.14,0,0,1-.53,2.89,5.53,5.53,0,0,1-1.45,2L2613,144l-1.36.9-1.77-2.53A5.94,5.94,0,0,1,2607.38,142.94Zm0-1.38a4,4,0,0,0,1.61-.32,3.41,3.41,0,0,0,1.24-.93,4.34,4.34,0,0,0,.82-1.52,7,7,0,0,0,.29-2.09,6.94,6.94,0,0,0-.29-2.09,4.3,4.3,0,0,0-.82-1.53,3.41,3.41,0,0,0-1.24-.93,4.21,4.21,0,0,0-3.22,0,3.44,3.44,0,0,0-1.25.93,4.29,4.29,0,0,0-.81,1.53,6.64,6.64,0,0,0-.29,2.09,6.73,6.73,0,0,0,.29,2.09,4.33,4.33,0,0,0,.81,1.52,3.44,3.44,0,0,0,1.25.93A4,4,0,0,0,2607.38,141.56Z" /><path class="f" d="M2622.17,139.44a2,2,0,0,0-.14-.74,1.51,1.51,0,0,0-.54-.61,5.65,5.65,0,0,0-1.15-.55,20,20,0,0,0-2-.61,10.73,10.73,0,0,1-1.74-.62,4.11,4.11,0,0,1-1.13-.75,2.41,2.41,0,0,1-.6-.91,3.6,3.6,0,0,1-.17-1.12,2.63,2.63,0,0,1,.28-1.21,2.9,2.9,0,0,1,.83-1,4.46,4.46,0,0,1,1.35-.65,6.83,6.83,0,0,1,1.83-.23,6.74,6.74,0,0,1,1.79.23,5,5,0,0,1,1.44.64,3.39,3.39,0,0,1,1.52,2.38H2622a1.88,1.88,0,0,0-.89-1.37,3.92,3.92,0,0,0-2.11-.48,4.5,4.5,0,0,0-1.17.13,2.33,2.33,0,0,0-.81.34,1.31,1.31,0,0,0-.46.51,1.4,1.4,0,0,0-.15.64,1.72,1.72,0,0,0,.1.62,1.32,1.32,0,0,0,.45.52,4.14,4.14,0,0,0,1,.48c.41.16,1,.33,1.64.52a15.25,15.25,0,0,1,2.08.73,5.28,5.28,0,0,1,1.31.81,2.41,2.41,0,0,1,.69,1,3.4,3.4,0,0,1,.2,1.24,3.15,3.15,0,0,1-.3,1.34,3.61,3.61,0,0,1-.91,1.14,4.62,4.62,0,0,1-1.48.79,6.37,6.37,0,0,1-2,.29,6,6,0,0,1-1.79-.26,5,5,0,0,1-1.48-.72,4,4,0,0,1-1.06-1.14,3.9,3.9,0,0,1-.53-1.49h1.75a2.38,2.38,0,0,0,.94,1.61,3.46,3.46,0,0,0,2.14.6,4.41,4.41,0,0,0,1.32-.17,2.94,2.94,0,0,0,.94-.45,2,2,0,0,0,.56-.67A1.73,1.73,0,0,0,2622.17,139.44Z" /><path class="f" d="M2632.62,137.63h-5.06v5.06h-1.7v-12h7.35v1.43h-5.65v4.08h5.06Z" /><path class="f" d="M2639.1,130.7a5.39,5.39,0,0,1,3.49,1,3.55,3.55,0,0,1,1.2,2.91,3.44,3.44,0,0,1-1.19,2.82,5.47,5.47,0,0,1-3.57,1h-2.13v4.28h-1.7v-12Zm-2.2,1.38V137h2.17a3.34,3.34,0,0,0,2.28-.63,2.31,2.31,0,0,0,.68-1.8,2.37,2.37,0,0,0-.74-1.86,3.15,3.15,0,0,0-2.16-.66Z" /><path class="f" d="M2648.71,138H2646v-1.41h2.75v-2.8h1.51v2.8H2653V138h-2.73v2.78h-1.51Z" /><path class="f" d="M2044.31,142.94a6.11,6.11,0,0,1-2.3-.42,4.85,4.85,0,0,1-1.8-1.21,5.67,5.67,0,0,1-1.17-2,8.29,8.29,0,0,1,0-5.33,5.7,5.7,0,0,1,1.23-1.95,5,5,0,0,1,1.81-1.2,6.08,6.08,0,0,1,2.22-.41,6.34,6.34,0,0,1,2.23.39,4.94,4.94,0,0,1,1.8,1.18,5.61,5.61,0,0,1,1.21,2,7.76,7.76,0,0,1,.44,2.72,7.31,7.31,0,0,1-.53,2.89,5.64,5.64,0,0,1-1.45,2L2050,144l-1.36.9-1.77-2.53A6,6,0,0,1,2044.31,142.94Zm0-1.38a4,4,0,0,0,1.6-.32,3.36,3.36,0,0,0,1.25-.93,4.51,4.51,0,0,0,.82-1.52,7,7,0,0,0,.29-2.09,6.94,6.94,0,0,0-.29-2.09,4.46,4.46,0,0,0-.82-1.53,3.36,3.36,0,0,0-1.25-.93,4.19,4.19,0,0,0-3.21,0,3.44,3.44,0,0,0-1.25.93,4.46,4.46,0,0,0-.82,1.53,6.94,6.94,0,0,0-.29,2.09,7,7,0,0,0,.29,2.09,4.51,4.51,0,0,0,.82,1.52,3.44,3.44,0,0,0,1.25.93A4,4,0,0,0,2044.31,141.56Z" /><path class="f" d="M2059.09,139.44a2,2,0,0,0-.13-.74,1.51,1.51,0,0,0-.54-.61,5.65,5.65,0,0,0-1.15-.55c-.49-.19-1.15-.39-2-.61a10.88,10.88,0,0,1-1.75-.62,4,4,0,0,1-1.12-.75,2.41,2.41,0,0,1-.6-.91,3.33,3.33,0,0,1-.17-1.12,2.63,2.63,0,0,1,.28-1.21,2.9,2.9,0,0,1,.83-1,4.46,4.46,0,0,1,1.35-.65,6.73,6.73,0,0,1,1.83-.23,6.61,6.61,0,0,1,1.78.23,4.74,4.74,0,0,1,1.44.64,3.39,3.39,0,0,1,1,1,3.48,3.48,0,0,1,.51,1.37H2059a1.9,1.9,0,0,0-.89-1.37,4,4,0,0,0-2.11-.48,4.5,4.5,0,0,0-1.17.13,2.33,2.33,0,0,0-.81.34,1.34,1.34,0,0,0-.47.51,1.4,1.4,0,0,0-.15.64,1.71,1.71,0,0,0,.11.62,1.29,1.29,0,0,0,.44.52,4.61,4.61,0,0,0,1,.48c.41.16,1,.33,1.65.52a15.06,15.06,0,0,1,2.07.73,5.35,5.35,0,0,1,1.32.81,2.41,2.41,0,0,1,.69,1,3.62,3.62,0,0,1,.2,1.24,3,3,0,0,1-.31,1.34,3.44,3.44,0,0,1-.9,1.14,4.73,4.73,0,0,1-1.48.79,6.37,6.37,0,0,1-2,.29,6.17,6.17,0,0,1-1.8-.26,5,5,0,0,1-1.47-.72,4,4,0,0,1-1.06-1.14,3.74,3.74,0,0,1-.53-1.49H2053a2.38,2.38,0,0,0,.94,1.61,3.46,3.46,0,0,0,2.14.6,4.29,4.29,0,0,0,1.31-.17,2.84,2.84,0,0,0,.94-.45,2.1,2.1,0,0,0,.57-.67A1.73,1.73,0,0,0,2059.09,139.44Z" /><path class="f" d="M2069.55,137.63h-5.06v5.06h-1.7v-12h7.34v1.43h-5.64v4.08h5.06Z" /><path class="f" d="M2076,130.7a5.39,5.39,0,0,1,3.49,1,3.55,3.55,0,0,1,1.2,2.91,3.44,3.44,0,0,1-1.19,2.82,5.47,5.47,0,0,1-3.57,1h-2.13v4.28h-1.7v-12Zm-2.2,1.38V137H2076a3.35,3.35,0,0,0,2.29-.63,2.31,2.31,0,0,0,.68-1.8,2.37,2.37,0,0,0-.74-1.86,3.17,3.17,0,0,0-2.16-.66Z" /><path class="f" d="M2085.63,138h-2.74v-1.41h2.74v-2.8h1.52v2.8h2.73V138h-2.73v2.78h-1.52Z" /><path class="f" d="M1481.07,142.94a6.15,6.15,0,0,1-2.3-.42,4.85,4.85,0,0,1-1.8-1.21,5.82,5.82,0,0,1-1.17-2,7.74,7.74,0,0,1-.42-2.64,7.47,7.47,0,0,1,.45-2.69,5.67,5.67,0,0,1,1.22-1.95,5.12,5.12,0,0,1,1.81-1.2,6.13,6.13,0,0,1,2.23-.41,6.24,6.24,0,0,1,2.22.39,5,5,0,0,1,1.81,1.18,5.59,5.59,0,0,1,1.2,2,7.53,7.53,0,0,1,.45,2.72,7.13,7.13,0,0,1-.54,2.89,5.53,5.53,0,0,1-1.45,2l1.94,2.42-1.37.9-1.77-2.53A5.94,5.94,0,0,1,1481.07,142.94Zm0-1.38a4,4,0,0,0,1.61-.32,3.44,3.44,0,0,0,1.25-.93,4.33,4.33,0,0,0,.81-1.52,6.73,6.73,0,0,0,.29-2.09,6.64,6.64,0,0,0-.29-2.09,4.29,4.29,0,0,0-.81-1.53,3.44,3.44,0,0,0-1.25-.93,4.21,4.21,0,0,0-3.22,0,3.33,3.33,0,0,0-1.24.93,4.15,4.15,0,0,0-.82,1.53,6.64,6.64,0,0,0-.29,2.09,6.73,6.73,0,0,0,.29,2.09,4.19,4.19,0,0,0,.82,1.52,3.33,3.33,0,0,0,1.24.93A4,4,0,0,0,1481.07,141.56Z" /><path class="f" d="M1495.86,139.44a2,2,0,0,0-.14-.74,1.51,1.51,0,0,0-.54-.61,5.4,5.4,0,0,0-1.15-.55c-.49-.19-1.14-.39-2-.61a10.54,10.54,0,0,1-1.75-.62,4.11,4.11,0,0,1-1.13-.75,2.41,2.41,0,0,1-.6-.91,3.6,3.6,0,0,1-.17-1.12,2.63,2.63,0,0,1,.28-1.21,2.82,2.82,0,0,1,.84-1,4.24,4.24,0,0,1,1.35-.65,7.2,7.2,0,0,1,3.61,0,5,5,0,0,1,1.44.64,3.47,3.47,0,0,1,1,1,3.33,3.33,0,0,1,.51,1.37h-1.75a1.88,1.88,0,0,0-.89-1.37,3.89,3.89,0,0,0-2.1-.48,4.52,4.52,0,0,0-1.18.13,2.5,2.5,0,0,0-.81.34,1.31,1.31,0,0,0-.46.51,1.4,1.4,0,0,0-.15.64,1.52,1.52,0,0,0,.11.62,1.29,1.29,0,0,0,.44.52,4.36,4.36,0,0,0,1,.48c.41.16,1,.33,1.65.52a15.55,15.55,0,0,1,2.07.73,5.09,5.09,0,0,1,1.31.81,2.41,2.41,0,0,1,.69,1,3.39,3.39,0,0,1,.21,1.24,3.17,3.17,0,0,1-.31,1.34,3.61,3.61,0,0,1-.91,1.14,4.68,4.68,0,0,1-1.47.79,6.46,6.46,0,0,1-2,.29,6.07,6.07,0,0,1-1.8-.26,5,5,0,0,1-1.48-.72,3.94,3.94,0,0,1-1-1.14,3.75,3.75,0,0,1-.54-1.49h1.75a2.42,2.42,0,0,0,.94,1.61,3.46,3.46,0,0,0,2.14.6,4.41,4.41,0,0,0,1.32-.17,2.84,2.84,0,0,0,.94-.45,2.1,2.1,0,0,0,.57-.67A1.86,1.86,0,0,0,1495.86,139.44Z" /><path class="f" d="M1506.31,137.63h-5.06v5.06h-1.7v-12h7.35v1.43h-5.65v4.08h5.06Z" /><path class="f" d="M1512.79,130.7a5.38,5.38,0,0,1,3.49,1,3.56,3.56,0,0,1,1.21,2.91,3.47,3.47,0,0,1-1.19,2.82,5.51,5.51,0,0,1-3.57,1h-2.14v4.28h-1.69v-12Zm-2.2,1.38V137h2.17a3.34,3.34,0,0,0,2.28-.63,2.31,2.31,0,0,0,.68-1.8,2.34,2.34,0,0,0-.74-1.86,3.14,3.14,0,0,0-2.16-.66Z" /><path class="f" d="M1522.4,138h-2.75v-1.41h2.75v-2.8h1.51v2.8h2.74V138h-2.74v2.78h-1.51Z" /></svg>