<svg viewBox="0 0 3414.38 309.14"><defs><style>.a{fill:#e4e4e4;}.b{fill:#251612;}.c{fill:#231f20;}.d{fill:#fff;}.e{fill:none;stroke:#1a1a1a;stroke-miterlimit:10;}.f{fill:#ececec;}.g{fill:#060707;}.h{fill:#333;}.i{fill:#191816;}</style></defs><path class="a" d="M3377,0H37.42A37.43,37.43,0,0,0,0,37.42V271.71a37.43,37.43,0,0,0,37.42,37.43H3377a37.43,37.43,0,0,0,37.43-37.43V37.42A37.43,37.43,0,0,0,3377,0ZM109.32,265.87a24.44,24.44,0,0,1-24.44,24.44H61.76a24.44,24.44,0,0,1-24.44-24.44h0a24.44,24.44,0,0,1,24.44-24.44H84.88a24.44,24.44,0,0,1,24.44,24.44Zm0-222.6A24.44,24.44,0,0,1,84.88,67.71H61.76A24.44,24.44,0,0,1,37.32,43.27h0A24.44,24.44,0,0,1,61.76,18.83H84.88a24.44,24.44,0,0,1,24.44,24.44Zm3267.74,222.6a24.44,24.44,0,0,1-24.44,24.44H3329.5a24.44,24.44,0,0,1-24.44-24.44h0a24.44,24.44,0,0,1,24.44-24.44h23.12a24.44,24.44,0,0,1,24.44,24.44Zm0-222.6a24.45,24.45,0,0,1-24.44,24.44H3329.5a24.44,24.44,0,0,1-24.44-24.44h0a24.44,24.44,0,0,1,24.44-24.44h23.12a24.44,24.44,0,0,1,24.44,24.44Z" /><polygon class="b" points="3165.68 247.38 3159.51 247.38 3159.51 225.66 3165.68 225.66 3165.68 247.38 3165.68 247.38" /><path class="b" d="M3215.37,231.88a11.75,11.75,0,0,0-5.18-1.16c-4,0-6.75,2.47-6.75,5.79s2.64,5.8,6.75,5.8a11.9,11.9,0,0,0,5.18-1.15V247a21.5,21.5,0,0,1-5.62.78c-6.94,0-13-4.25-13-11.26,0-6.48,5.51-11.24,13-11.24a21.14,21.14,0,0,1,5.62.78v5.83Z" /><path class="b" d="M3151,231.88a11.59,11.59,0,0,0-5.17-1.16c-4,0-6.76,2.47-6.76,5.79s2.64,5.8,6.76,5.8a11.79,11.79,0,0,0,5.17-1.15V247a21.37,21.37,0,0,1-5.63.78c-6.92,0-13-4.25-13-11.26,0-6.48,5.5-11.24,13-11.24a20.93,20.93,0,0,1,5.63.78v5.83Z" /><path class="b" d="M3247.65,236.51c0,6.22-5.39,11.26-12.9,11.26s-12.89-5-12.89-11.26,5.38-11.24,12.89-11.24,12.9,5,12.9,11.24Zm-12.9-5.7c-3.65,0-6.36,2.55-6.36,5.7s2.71,5.72,6.36,5.72,6.38-2.55,6.38-5.72-2.72-5.7-6.38-5.7Z" /><path class="b" d="M3189,230.59a24.12,24.12,0,0,0-4.81-.65c-2.47,0-3.81.73-3.81,1.78,0,1.31,1.8,1.77,2.82,2.06l1.71.48c4,1.13,5.82,3.57,5.82,6.21,0,5.46-5.4,7.3-10.11,7.3a40.75,40.75,0,0,1-6.66-.6v-5a25.69,25.69,0,0,0,5.82.82c3.06,0,4.48-.8,4.48-2s-1.22-1.73-2.76-2.16c-.37-.11-.92-.27-1.32-.37-3.42-1-6.28-2.77-6.28-6.36,0-4.07,3.42-6.79,9.1-6.79a30,30,0,0,1,6,.68v4.64Z" /><path class="b" d="M3126.62,202.29a3,3,0,0,0-6,0v6.33a3,3,0,1,0,6,0v-6.33Z" /><path class="b" d="M3143.23,194a3,3,0,0,0-6.05,0v14.65a3,3,0,0,0,6.05,0V194Z" /><path class="b" d="M3159.84,182.6a3,3,0,1,0-6,0v32.05a3,3,0,1,0,6,0V182.6Z" /><path class="b" d="M3176.46,194a3,3,0,0,0-6,0v14.65a3,3,0,1,0,6,0V194Z" /><path class="b" d="M3193.05,202.29a3,3,0,0,0-6,0v6.33a3,3,0,1,0,6,0v-6.33Z" /><path class="b" d="M3209.67,194a3,3,0,0,0-6,0v14.65a3,3,0,1,0,6,0V194Z" /><path class="b" d="M3226.29,182.6a3,3,0,1,0-6,0v32.05a3,3,0,1,0,6,0V182.6Z" /><path class="b" d="M3242.92,194a3,3,0,0,0-6.08,0v14.65a3,3,0,0,0,6.08,0V194Z" /><path class="b" d="M3259.5,202.29a3,3,0,0,0-6,0v6.33a3,3,0,1,0,6,0v-6.33Z" /><polygon class="c" points="2732.87 286.98 2724.41 286.98 2728.64 280.87 2728.64 280.87 2732.87 286.98" /><polygon class="c" points="2775.29 284.23 2783.75 284.23 2779.52 290.34 2779.52 290.34 2775.29 284.23" /><polygon class="c" points="2833.18 286.98 2824.72 286.98 2828.95 280.87 2828.95 280.87 2833.18 286.98" /><polygon class="c" points="2875.61 284.23 2884.07 284.23 2879.84 290.34 2879.84 290.34 2875.61 284.23" /><polygon class="c" points="2972.7 286.98 2964.24 286.98 2968.47 280.87 2968.47 280.87 2972.7 286.98" /><polygon class="c" points="3026.35 284.23 3034.81 284.23 3030.58 290.34 3030.58 290.34 3026.35 284.23" /><polygon class="c" points="1458.69 287.94 1450.23 287.94 1454.46 281.83 1454.46 281.83 1458.69 287.94" /><polygon class="c" points="1501.11 285.2 1509.57 285.2 1505.34 291.31 1505.34 291.31 1501.11 285.2" /><polygon class="c" points="1559 287.94 1550.54 287.94 1554.77 281.83 1554.77 281.83 1559 287.94" /><polygon class="c" points="1601.42 285.2 1609.88 285.2 1605.65 291.31 1605.65 291.31 1601.42 285.2" /><polygon class="c" points="1657.24 287.94 1648.78 287.94 1653.01 281.83 1653.01 281.83 1657.24 287.94" /><polygon class="c" points="1699.66 285.2 1708.12 285.2 1703.89 291.31 1703.89 291.31 1699.66 285.2" /><polygon class="c" points="1755.58 287.94 1747.11 287.94 1751.35 281.83 1751.35 281.83 1755.58 287.94" /><polygon class="c" points="1798 285.2 1806.46 285.2 1802.23 291.31 1802.23 291.31 1798 285.2" /><polygon class="c" points="1901.76 287.94 1893.3 287.94 1897.53 281.83 1897.53 281.83 1901.76 287.94" /><polygon class="c" points="1946.69 285.2 1955.15 285.2 1950.92 291.31 1950.92 291.31 1946.69 285.2" /><polygon class="c" points="2005.86 287.94 1997.4 287.94 2001.63 281.83 2001.63 281.83 2005.86 287.94" /><polygon class="c" points="2047.15 284.64 2055.61 284.64 2051.38 290.75 2051.38 290.75 2047.15 284.64" /><polygon class="c" points="2101.45 287.94 2092.99 287.94 2097.22 281.83 2097.22 281.83 2101.45 287.94" /><polygon class="c" points="2142.34 285.2 2150.8 285.2 2146.57 291.31 2146.57 291.31 2142.34 285.2" /><polygon class="c" points="2199.17 287.94 2190.71 287.94 2194.94 281.83 2194.94 281.83 2199.17 287.94" /><polygon class="c" points="2241.59 285.2 2250.05 285.2 2245.82 291.31 2245.82 291.31 2241.59 285.2" /><polygon class="c" points="2298.19 287.94 2289.72 287.94 2293.95 281.83 2293.95 281.83 2298.19 287.94" /><polygon class="c" points="2340.89 285.2 2349.35 285.2 2345.12 291.31 2345.12 291.31 2340.89 285.2" /><polygon class="c" points="2397.33 287.94 2388.87 287.94 2393.1 281.83 2393.1 281.83 2397.33 287.94" /><polygon class="c" points="2439.19 285.2 2447.65 285.2 2443.42 291.31 2443.42 291.31 2439.19 285.2" /><polygon class="c" points="2497.8 287.94 2489.34 287.94 2493.57 281.83 2493.57 281.83 2497.8 287.94" /><polygon class="c" points="2538.69 285.2 2547.16 285.2 2542.92 291.31 2542.92 291.31 2538.69 285.2" /><polygon class="c" points="2594.98 287.94 2586.52 287.94 2590.75 281.83 2590.75 281.83 2594.98 287.94" /><polygon class="c" points="2637.4 285.2 2645.86 285.2 2641.63 291.31 2641.63 291.31 2637.4 285.2" /><path class="c" d="M1444.18,291.31v-8.48L1442,284v-1.4l2.23-1.16h1.33v9.9Z" /><path class="c" d="M1490.24,284a3.39,3.39,0,0,1,.36-1.1,3.32,3.32,0,0,1,.73-.9,3.41,3.41,0,0,1,1.06-.59,4,4,0,0,1,1.33-.21,3.74,3.74,0,0,1,1.28.2,2.8,2.8,0,0,1,1,.56,2.46,2.46,0,0,1,.68.88A2.64,2.64,0,0,1,1497,284a3.45,3.45,0,0,1-.12.94,3.26,3.26,0,0,1-.4.88,6.06,6.06,0,0,1-.73.95q-.45.5-1.11,1.14l-2.27,2.15h4.59v1.24h-6.43v-1.24l3.23-3.1c.34-.32.62-.61.86-.87a6.4,6.4,0,0,0,.57-.73,2.23,2.23,0,0,0,.32-.66,2.15,2.15,0,0,0,.1-.68,1.63,1.63,0,0,0-.48-1.23,2,2,0,0,0-1.38-.46,2.19,2.19,0,0,0-1.4.44,1.78,1.78,0,0,0-.63,1.22Z" /><path class="c" d="M1546.7,288.61a2.81,2.81,0,0,1-.24,1.17,2.88,2.88,0,0,1-.71.92,3.29,3.29,0,0,1-1.11.6,4.75,4.75,0,0,1-1.45.21,3.84,3.84,0,0,1-2.47-.73,2.92,2.92,0,0,1-1.09-1.93h1.44a1.94,1.94,0,0,0,.68,1.14,2.28,2.28,0,0,0,1.42.39,2.32,2.32,0,0,0,1.58-.5,1.63,1.63,0,0,0,.57-1.3,1.88,1.88,0,0,0-.18-.86,1.67,1.67,0,0,0-.46-.58,1.9,1.9,0,0,0-.63-.33,2.72,2.72,0,0,0-.69-.09h-.82v-1.18h.8a1.67,1.67,0,0,0,.57-.1,1.62,1.62,0,0,0,.53-.29,1.58,1.58,0,0,0,.39-.52,1.72,1.72,0,0,0,.15-.74,1.42,1.42,0,0,0-.17-.7,1.39,1.39,0,0,0-.42-.48,1.72,1.72,0,0,0-.61-.29,2.74,2.74,0,0,0-.7-.09,2.22,2.22,0,0,0-1.36.39,1.54,1.54,0,0,0-.63,1h-1.43a2.5,2.5,0,0,1,.38-1.05,3,3,0,0,1,.75-.8,3.44,3.44,0,0,1,1-.52,4.56,4.56,0,0,1,1.31-.18,4.7,4.7,0,0,1,1.2.15,3.37,3.37,0,0,1,1,.48,2.27,2.27,0,0,1,.71.8,2.37,2.37,0,0,1,.27,1.16,2.1,2.1,0,0,1-.5,1.41,2.57,2.57,0,0,1-1.28.85,3,3,0,0,1,.81.29,2.62,2.62,0,0,1,.67.52,2.49,2.49,0,0,1,.64,1.75Z" /><path class="c" d="M1594.76,281.41v6.88h1.6v1.16h-1.6v1.86h-1.32v-1.86h-4.34v-1.26l4.24-6.78Zm-1.32,6.88V283.6l-2.83,4.69Z" /><path class="c" d="M1640.18,288.91a1.94,1.94,0,0,0,.67,1,2.16,2.16,0,0,0,1.43.43,2.22,2.22,0,0,0,.85-.16,1.84,1.84,0,0,0,.68-.45,1.88,1.88,0,0,0,.45-.73,2.86,2.86,0,0,0,.17-1,2.28,2.28,0,0,0-.58-1.68,2.11,2.11,0,0,0-1.54-.57,2.8,2.8,0,0,0-1,.21,2.42,2.42,0,0,0-1,.69h-1.2l.21-5.29h6.09v1.15h-4.85l-.12,2.9a3.75,3.75,0,0,1,.94-.53,3.57,3.57,0,0,1,1.23-.19,3.61,3.61,0,0,1,1.23.21,3,3,0,0,1,1,.63,3.32,3.32,0,0,1,.7,1.06,3.88,3.88,0,0,1,.26,1.46,3.68,3.68,0,0,1-.24,1.32,3.14,3.14,0,0,1-.7,1.09,3.23,3.23,0,0,1-1.11.74,4,4,0,0,1-1.52.28,4.25,4.25,0,0,1-1.38-.22,3.73,3.73,0,0,1-1.06-.59,3.18,3.18,0,0,1-.72-.84,2.93,2.93,0,0,1-.36-1Z" /><path class="c" d="M1692.26,284.83a3.3,3.3,0,0,1,1.29.25,2.85,2.85,0,0,1,1,.69,3,3,0,0,1,.61,1.05,4.14,4.14,0,0,1,.21,1.34,3.58,3.58,0,0,1-.29,1.48,3,3,0,0,1-.76,1.06,3.05,3.05,0,0,1-1.06.62,3.53,3.53,0,0,1-1.2.21,3,3,0,0,1-2.6-1.22,6,6,0,0,1-.88-3.55,10.52,10.52,0,0,1,.3-2.75,4.76,4.76,0,0,1,.82-1.69,2.66,2.66,0,0,1,1.16-.87,3.57,3.57,0,0,1,1.33-.25,3.29,3.29,0,0,1,1.94.56,2.55,2.55,0,0,1,1,1.53h-1.5a1.24,1.24,0,0,0-.51-.72,1.66,1.66,0,0,0-1-.27,1.71,1.71,0,0,0-.8.19,1.68,1.68,0,0,0-.68.63,3.84,3.84,0,0,0-.5,1.18,8.47,8.47,0,0,0-.27,1.82,3,3,0,0,1,.51-.6,2.85,2.85,0,0,1,.6-.4,3.62,3.62,0,0,1,.63-.22A3.57,3.57,0,0,1,1692.26,284.83Zm-2.22,3.29a2.34,2.34,0,0,0,.57,1.69,1.89,1.89,0,0,0,1.42.58,1.92,1.92,0,0,0,.75-.14,1.63,1.63,0,0,0,.62-.42,1.91,1.91,0,0,0,.42-.67,2.67,2.67,0,0,0,.15-.93,2.43,2.43,0,0,0-.53-1.66,1.81,1.81,0,0,0-1.42-.6,2,2,0,0,0-.87.17,1.89,1.89,0,0,0-.63.48,1.93,1.93,0,0,0-.36.68A2.76,2.76,0,0,0,1690,288.12Z" /><path class="c" d="M1738.87,291.31h-1.54l4.14-8.68h-4.85v-1.22h6.3v1.22Z" /><path class="c" d="M1792.36,283.75a1.92,1.92,0,0,1-.14.77,2.38,2.38,0,0,1-.37.64,2.78,2.78,0,0,1-.53.5,4.12,4.12,0,0,1-.58.38,5.49,5.49,0,0,1,.71.38,3.22,3.22,0,0,1,.63.54,2.82,2.82,0,0,1,.47.74,2.35,2.35,0,0,1,.18.94,2.57,2.57,0,0,1-.26,1.17,2.77,2.77,0,0,1-.73.91,3.62,3.62,0,0,1-1.14.59,4.62,4.62,0,0,1-1.47.22,5,5,0,0,1-1.48-.21,3.6,3.6,0,0,1-1.14-.58,2.67,2.67,0,0,1-.73-.88,2.37,2.37,0,0,1-.26-1.12,2.5,2.5,0,0,1,.63-1.75,2.86,2.86,0,0,1,.63-.53,3.93,3.93,0,0,1,.68-.34,3.27,3.27,0,0,1-.57-.32,2.28,2.28,0,0,1-.5-.48,2.3,2.3,0,0,1-.5-1.48,2.47,2.47,0,0,1,.26-1.18,2.5,2.5,0,0,1,.72-.83,3.37,3.37,0,0,1,1-.48,5.08,5.08,0,0,1,2.45,0,3.32,3.32,0,0,1,1,.45,2.25,2.25,0,0,1,.72.78A2.38,2.38,0,0,1,1792.36,283.75Zm-1.07,4.89a1.66,1.66,0,0,0-.81-1.54,3,3,0,0,0-.8-.35c-.3-.08-.58-.15-.85-.2a3.6,3.6,0,0,0-.64.24,2.49,2.49,0,0,0-.6.42,2.15,2.15,0,0,0-.45.61,1.77,1.77,0,0,0-.18.82,2,2,0,0,0,.13.69,1.66,1.66,0,0,0,.4.55,2.08,2.08,0,0,0,.67.39,3.15,3.15,0,0,0,1,.14,2.33,2.33,0,0,0,1.62-.5A1.64,1.64,0,0,0,1791.29,288.64Zm-4.07-4.87a1.67,1.67,0,0,0,.22.92,1.73,1.73,0,0,0,.55.56,2.34,2.34,0,0,0,.71.3c.26.06.49.1.71.13a2.53,2.53,0,0,0,.55-.27,2.49,2.49,0,0,0,.52-.4,1.94,1.94,0,0,0,.38-.54,1.54,1.54,0,0,0,.15-.7,1.33,1.33,0,0,0-.15-.63,1.64,1.64,0,0,0-.4-.47,1.93,1.93,0,0,0-.61-.3,2.17,2.17,0,0,0-.72-.11,2.86,2.86,0,0,0-.73.09,1.9,1.9,0,0,0-.61.28,1.38,1.38,0,0,0-.42.48A1.4,1.4,0,0,0,1787.22,283.77Z" /><path class="c" d="M1886.2,287.89a3.3,3.3,0,0,1-1.24-.23,2.76,2.76,0,0,1-1-.65,3.09,3.09,0,0,1-.64-1.05,4.05,4.05,0,0,1-.22-1.39,3.62,3.62,0,0,1,.25-1.39,3,3,0,0,1,.7-1.06,3.22,3.22,0,0,1,1-.68,3.51,3.51,0,0,1,1.31-.24,3,3,0,0,1,2.6,1.18,6,6,0,0,1,.88,3.59,10.27,10.27,0,0,1-.3,2.7,5,5,0,0,1-.79,1.71,2.73,2.73,0,0,1-1.16.89,3.91,3.91,0,0,1-1.4.26,3.32,3.32,0,0,1-2-.58,2.62,2.62,0,0,1-1-1.55h1.5a1.32,1.32,0,0,0,.53.75,1.76,1.76,0,0,0,1,.27,2,2,0,0,0,.84-.18,1.79,1.79,0,0,0,.68-.62,3.71,3.71,0,0,0,.48-1.18,10.21,10.21,0,0,0,.24-1.82,2.66,2.66,0,0,1-1.1,1,3.15,3.15,0,0,1-.63.22A3.42,3.42,0,0,1,1886.2,287.89Zm2.22-3.28a2.32,2.32,0,0,0-.57-1.69,1.92,1.92,0,0,0-1.42-.59,2,2,0,0,0-.77.15,1.85,1.85,0,0,0-.61.42,1.93,1.93,0,0,0-.41.68,2.63,2.63,0,0,0-.15.91,2.93,2.93,0,0,0,.15,1,2.12,2.12,0,0,0,.41.72,1.69,1.69,0,0,0,.62.43,2.19,2.19,0,0,0,.77.14,2,2,0,0,0,.87-.18,1.73,1.73,0,0,0,.62-.47,1.92,1.92,0,0,0,.37-.69A2.74,2.74,0,0,0,1888.42,284.61Z" /><path class="c" d="M1931.15,291.31v-8.48l-2.23,1.14v-1.4l2.24-1.16h1.33v9.9Z" /><path class="c" d="M1939.78,291.53a3.16,3.16,0,0,1-1.4-.32,2.91,2.91,0,0,1-1.13-.95,4.86,4.86,0,0,1-.74-1.62,8.72,8.72,0,0,1-.27-2.31,8.85,8.85,0,0,1,.27-2.34,4.7,4.7,0,0,1,.75-1.59,2.93,2.93,0,0,1,1.12-.91,3.28,3.28,0,0,1,1.4-.29,3.24,3.24,0,0,1,1.39.29,2.93,2.93,0,0,1,1.12.91A4.7,4.7,0,0,1,1943,284a8.85,8.85,0,0,1,.27,2.34,8.72,8.72,0,0,1-.27,2.31,4.86,4.86,0,0,1-.74,1.62,3,3,0,0,1-1.12.95A3.19,3.19,0,0,1,1939.78,291.53Zm0-1.14a1.73,1.73,0,0,0,1.62-1,6.83,6.83,0,0,0,.53-3.08,6.64,6.64,0,0,0-.53-3,1.75,1.75,0,0,0-1.62-1,1.73,1.73,0,0,0-1.62,1,6.51,6.51,0,0,0-.53,3,6.7,6.7,0,0,0,.53,3.08A1.71,1.71,0,0,0,1939.78,290.39Z" /><path class="c" d="M1981.35,291.31v-8.48l-2.22,1.14v-1.4l2.23-1.16h1.33v9.9Z" /><path class="c" d="M1989.84,291.31v-8.48l-2.23,1.14v-1.4l2.24-1.16h1.33v9.9Z" /><path class="c" d="M2032,291.31v-8.48l-2.22,1.14v-1.4l2.23-1.16h1.33v9.9Z" /><path class="c" d="M2037.22,284a3.39,3.39,0,0,1,.36-1.1,3.32,3.32,0,0,1,.73-.9,3.53,3.53,0,0,1,1.06-.59,4,4,0,0,1,1.33-.21,3.74,3.74,0,0,1,1.28.2,2.8,2.8,0,0,1,1,.56,2.46,2.46,0,0,1,.68.88,2.64,2.64,0,0,1,.25,1.17,3.45,3.45,0,0,1-.12.94,3.26,3.26,0,0,1-.4.88,6.61,6.61,0,0,1-.72.95c-.31.33-.68.71-1.12,1.14l-2.27,2.15h4.59v1.24h-6.43v-1.24l3.23-3.1c.34-.32.62-.61.86-.87a6.4,6.4,0,0,0,.57-.73,2.23,2.23,0,0,0,.32-.66,2.15,2.15,0,0,0,.1-.68,1.63,1.63,0,0,0-.48-1.23,2,2,0,0,0-1.38-.46,2.19,2.19,0,0,0-1.4.44,1.78,1.78,0,0,0-.63,1.22Z" /><path class="c" d="M2076.16,291.31v-8.48l-2.23,1.14v-1.4l2.24-1.16h1.33v9.9Z" /><path class="c" d="M2088.31,288.61a2.67,2.67,0,0,1-.25,1.17,2.62,2.62,0,0,1-.71.92,3.11,3.11,0,0,1-1.11.6,4.64,4.64,0,0,1-1.44.21,3.87,3.87,0,0,1-2.48-.73,3,3,0,0,1-1.09-1.93h1.45a1.89,1.89,0,0,0,.68,1.14,2.27,2.27,0,0,0,1.41.39,2.35,2.35,0,0,0,1.59-.5,1.66,1.66,0,0,0,.56-1.3,2,2,0,0,0-.17-.86,1.79,1.79,0,0,0-.46-.58,1.9,1.9,0,0,0-.63-.33,2.78,2.78,0,0,0-.69-.09h-.82v-1.18h.79a1.63,1.63,0,0,0,.57-.1,1.52,1.52,0,0,0,.53-.29,1.46,1.46,0,0,0,.39-.52,1.72,1.72,0,0,0,.15-.74,1.42,1.42,0,0,0-.16-.7,1.5,1.5,0,0,0-.42-.48,1.81,1.81,0,0,0-.61-.29,2.8,2.8,0,0,0-.7-.09,2.22,2.22,0,0,0-1.36.39,1.6,1.6,0,0,0-.64,1h-1.43a2.66,2.66,0,0,1,.39-1.05,2.72,2.72,0,0,1,.75-.8,3.44,3.44,0,0,1,1-.52,4.56,4.56,0,0,1,1.31-.18,4.81,4.81,0,0,1,1.2.15,3.37,3.37,0,0,1,1,.48,2.48,2.48,0,0,1,.71.8,2.37,2.37,0,0,1,.27,1.16,2.15,2.15,0,0,1-.5,1.41,2.61,2.61,0,0,1-1.28.85,2.84,2.84,0,0,1,.8.29,2.46,2.46,0,0,1,.67.52,2.55,2.55,0,0,1,.65,1.75Z" /><path class="c" d="M2124.92,291.31v-8.48l-2.23,1.14v-1.4l2.24-1.16h1.33v9.9Z" /><path class="c" d="M2135.58,281.41v6.88h1.6v1.16h-1.6v1.86h-1.31v-1.86h-4.35v-1.26l4.25-6.78Zm-1.31,6.88V283.6l-2.83,4.69Z" /><path class="c" d="M2174.46,291.31v-8.48l-2.22,1.14v-1.4l2.23-1.16h1.33v9.9Z" /><path class="c" d="M2181,288.91a1.87,1.87,0,0,0,.66,1,2.49,2.49,0,0,0,2.28.27,2,2,0,0,0,.69-.45,2.15,2.15,0,0,0,.45-.73,2.86,2.86,0,0,0,.16-1,2.24,2.24,0,0,0-.58-1.68,2.11,2.11,0,0,0-1.54-.57,2.8,2.8,0,0,0-1,.21,2.39,2.39,0,0,0-.94.69H2180l.21-5.29h6.08v1.15h-4.85l-.11,2.9a3.43,3.43,0,0,1,.94-.53,3.51,3.51,0,0,1,1.22-.19,3.61,3.61,0,0,1,1.23.21,2.82,2.82,0,0,1,1,.63,3.16,3.16,0,0,1,.7,1.06,3.88,3.88,0,0,1,.26,1.46,3.68,3.68,0,0,1-.24,1.32,3.14,3.14,0,0,1-1.81,1.83,4,4,0,0,1-1.51.28,4.25,4.25,0,0,1-1.38-.22,3.6,3.6,0,0,1-1.06-.59,3.23,3.23,0,0,1-.73-.84,2.93,2.93,0,0,1-.36-1Z" /><path class="c" d="M2224,291.31v-8.48l-2.22,1.14v-1.4l2.23-1.16h1.33v9.9Z" /><path class="c" d="M2233.08,284.83a3.3,3.3,0,0,1,1.29.25,2.76,2.76,0,0,1,1,.69,2.88,2.88,0,0,1,.61,1.05,4.14,4.14,0,0,1,.21,1.34,3.43,3.43,0,0,1-.29,1.48,3.08,3.08,0,0,1-.75,1.06,3.15,3.15,0,0,1-1.06.62,3.63,3.63,0,0,1-1.21.21,3,3,0,0,1-2.6-1.22,6.08,6.08,0,0,1-.88-3.55,10.07,10.07,0,0,1,.31-2.75,4.59,4.59,0,0,1,.81-1.69,2.72,2.72,0,0,1,1.16-.87,3.61,3.61,0,0,1,1.33-.25,3.26,3.26,0,0,1,1.94.56,2.52,2.52,0,0,1,1,1.53h-1.5a1.34,1.34,0,0,0-.51-.72,1.7,1.7,0,0,0-1-.27,1.72,1.72,0,0,0-1.49.82,4.1,4.1,0,0,0-.5,1.18,8.53,8.53,0,0,0-.26,1.82,3,3,0,0,1,.51-.6,2.79,2.79,0,0,1,.59-.4,3.72,3.72,0,0,1,.64-.22A3.37,3.37,0,0,1,2233.08,284.83Zm-2.22,3.29a2.34,2.34,0,0,0,.57,1.69,1.91,1.91,0,0,0,1.42.58,1.86,1.86,0,0,0,.75-.14,1.66,1.66,0,0,0,.63-.42,1.89,1.89,0,0,0,.41-.67,2.67,2.67,0,0,0,.15-.93,2.38,2.38,0,0,0-.53-1.66,1.8,1.8,0,0,0-1.42-.6,2,2,0,0,0-.87.17,1.75,1.75,0,0,0-.62.48,1.8,1.8,0,0,0-.37.68A2.76,2.76,0,0,0,2230.86,288.12Z" /><path class="c" d="M2273.48,291.31v-8.48l-2.22,1.14v-1.4l2.24-1.16h1.33v9.9Z" /><path class="c" d="M2281.18,291.31h-1.54l4.14-8.68h-4.85v-1.22h6.3v1.22Z" /><path class="c" d="M2324.15,291.31v-8.48l-2.22,1.14v-1.4l2.23-1.16h1.33v9.9Z" /><path class="c" d="M2336,283.75a2.11,2.11,0,0,1-.14.77,2.41,2.41,0,0,1-.38.64,2.73,2.73,0,0,1-.52.5,4.89,4.89,0,0,1-.59.38,4.91,4.91,0,0,1,.71.38,3,3,0,0,1,.63.54,2.82,2.82,0,0,1,.47.74,2.35,2.35,0,0,1,.19.94,2.58,2.58,0,0,1-.27,1.17,2.77,2.77,0,0,1-.73.91,3.62,3.62,0,0,1-1.14.59,4.54,4.54,0,0,1-1.47.22,4.83,4.83,0,0,1-1.47-.21,3.4,3.4,0,0,1-1.14-.58,2.7,2.7,0,0,1-.74-.88,2.49,2.49,0,0,1-.26-1.12,2.59,2.59,0,0,1,.18-1,2.36,2.36,0,0,1,.46-.75,2.81,2.81,0,0,1,.62-.53,4.31,4.31,0,0,1,.68-.34,3.27,3.27,0,0,1-.57-.32,2.52,2.52,0,0,1-.5-.48,2.21,2.21,0,0,1-.36-.64,2.42,2.42,0,0,1-.14-.84,2.41,2.41,0,0,1,1-2,3.37,3.37,0,0,1,1-.48,5,5,0,0,1,1.23-.15,4.91,4.91,0,0,1,1.22.15,3.22,3.22,0,0,1,1,.45,2.25,2.25,0,0,1,.72.78A2.38,2.38,0,0,1,2336,283.75Zm-1.08,4.89a1.8,1.8,0,0,0-.22-1,1.92,1.92,0,0,0-.59-.58,3,3,0,0,0-.8-.35c-.29-.08-.58-.15-.85-.2a3.6,3.6,0,0,0-.64.24,3,3,0,0,0-.6.42,2.15,2.15,0,0,0-.45.61,1.77,1.77,0,0,0-.18.82,1.81,1.81,0,0,0,.14.69,1.63,1.63,0,0,0,.39.55,2,2,0,0,0,.68.39,3,3,0,0,0,1,.14,2.31,2.31,0,0,0,1.62-.5A1.64,1.64,0,0,0,2334.94,288.64Zm-4.07-4.87a1.6,1.6,0,0,0,.78,1.48,2.18,2.18,0,0,0,.7.3c.26.06.49.1.71.13a2.53,2.53,0,0,0,.55-.27,2.49,2.49,0,0,0,.52-.4,1.94,1.94,0,0,0,.38-.54,1.54,1.54,0,0,0,.15-.7,1.33,1.33,0,0,0-.15-.63,1.5,1.5,0,0,0-.4-.47,1.88,1.88,0,0,0-.6-.3,2.23,2.23,0,0,0-.73-.11,2.86,2.86,0,0,0-.73.09,2,2,0,0,0-.61.28,1.62,1.62,0,0,0-.42.48A1.4,1.4,0,0,0,2330.87,283.77Z" /><path class="c" d="M2372.15,291.31v-8.48l-2.22,1.14v-1.4l2.23-1.16h1.33v9.9Z" /><path class="c" d="M2380.61,287.89a3.39,3.39,0,0,1-1.25-.23,2.81,2.81,0,0,1-1-.65,2.94,2.94,0,0,1-.64-1.05,4.05,4.05,0,0,1-.23-1.39,3.62,3.62,0,0,1,.26-1.39,3,3,0,0,1,.7-1.06,3.12,3.12,0,0,1,1.05-.68,3.46,3.46,0,0,1,1.3-.24,3,3,0,0,1,2.61,1.18,6,6,0,0,1,.87,3.59,10.31,10.31,0,0,1-.29,2.7,4.77,4.77,0,0,1-.8,1.71,2.71,2.71,0,0,1-1.15.89,4,4,0,0,1-1.41.26,3.31,3.31,0,0,1-1.95-.58,2.58,2.58,0,0,1-1-1.55h1.49a1.38,1.38,0,0,0,.54.75,1.74,1.74,0,0,0,1,.27,2,2,0,0,0,.84-.18,1.7,1.7,0,0,0,.67-.62,4,4,0,0,0,.49-1.18,10.21,10.21,0,0,0,.24-1.82,3,3,0,0,1-.51.6,2.8,2.8,0,0,1-.6.39,2.77,2.77,0,0,1-.63.22A3.23,3.23,0,0,1,2380.61,287.89Zm2.22-3.28a2.32,2.32,0,0,0-.57-1.69,2,2,0,0,0-2.19-.44,1.89,1.89,0,0,0-.62.42,2.09,2.09,0,0,0-.41.68,2.9,2.9,0,0,0-.14.91,3.22,3.22,0,0,0,.14,1,2.3,2.3,0,0,0,.41.72,1.81,1.81,0,0,0,.63.43,2.15,2.15,0,0,0,.77.14,2,2,0,0,0,.87-.18,1.73,1.73,0,0,0,.62-.47,1.92,1.92,0,0,0,.37-.69A2.74,2.74,0,0,0,2382.83,284.61Z" /><path class="c" d="M2418.5,284a3,3,0,0,1,.36-1.1,3.11,3.11,0,0,1,.72-.9,3.53,3.53,0,0,1,1.06-.59,4.05,4.05,0,0,1,1.34-.21,3.82,3.82,0,0,1,1.28.2,2.84,2.84,0,0,1,1,.56,2.46,2.46,0,0,1,.68.88,2.64,2.64,0,0,1,.25,1.17,3.45,3.45,0,0,1-.12.94,3.26,3.26,0,0,1-.4.88,6.61,6.61,0,0,1-.72.95c-.31.33-.68.71-1.12,1.14l-2.26,2.15h4.58v1.24h-6.42v-1.24L2422,287c.34-.32.63-.61.86-.87a6.4,6.4,0,0,0,.57-.73,2.55,2.55,0,0,0,.33-.66,2.48,2.48,0,0,0,.09-.68,1.63,1.63,0,0,0-.48-1.23,2,2,0,0,0-1.38-.46,2.19,2.19,0,0,0-1.4.44,1.78,1.78,0,0,0-.63,1.22Z" /><path class="c" d="M2430.38,291.53a3.16,3.16,0,0,1-1.4-.32,2.91,2.91,0,0,1-1.13-.95,5.06,5.06,0,0,1-.74-1.62,8.72,8.72,0,0,1-.27-2.31,8.85,8.85,0,0,1,.27-2.34,4.7,4.7,0,0,1,.75-1.59,3,3,0,0,1,1.13-.91,3.48,3.48,0,0,1,2.78,0,3,3,0,0,1,1.13.91,4.7,4.7,0,0,1,.75,1.59,8.85,8.85,0,0,1,.27,2.34,8.72,8.72,0,0,1-.27,2.31,4.86,4.86,0,0,1-.75,1.62,2.89,2.89,0,0,1-1.12.95A3.16,3.16,0,0,1,2430.38,291.53Zm0-1.14a1.71,1.71,0,0,0,1.62-1,6.83,6.83,0,0,0,.53-3.08,6.64,6.64,0,0,0-.53-3,1.85,1.85,0,0,0-3.24,0,6.64,6.64,0,0,0-.53,3,6.83,6.83,0,0,0,.53,3.08A1.71,1.71,0,0,0,2430.38,290.39Z" /><path class="c" d="M2469.36,284a3.39,3.39,0,0,1,.36-1.1,3.32,3.32,0,0,1,.73-.9,3.53,3.53,0,0,1,1.06-.59,4,4,0,0,1,1.33-.21,3.74,3.74,0,0,1,1.28.2,2.8,2.8,0,0,1,1,.56,2.46,2.46,0,0,1,.68.88,2.64,2.64,0,0,1,.25,1.17,3.45,3.45,0,0,1-.12.94,3.26,3.26,0,0,1-.4.88,6.61,6.61,0,0,1-.72.95c-.31.33-.68.71-1.12,1.14l-2.27,2.15H2476v1.24h-6.43v-1.24l3.23-3.1c.34-.32.62-.61.86-.87a6.4,6.4,0,0,0,.57-.73,2.23,2.23,0,0,0,.32-.66,2.15,2.15,0,0,0,.1-.68,1.63,1.63,0,0,0-.48-1.23,2,2,0,0,0-1.38-.46,2.19,2.19,0,0,0-1.4.44,1.78,1.78,0,0,0-.63,1.22Z" /><path class="c" d="M2481.11,291.31v-8.48l-2.22,1.14v-1.4l2.23-1.16h1.33v9.9Z" /><path class="c" d="M2517.09,284a3.39,3.39,0,0,1,.36-1.1,3.14,3.14,0,0,1,.73-.9,3.36,3.36,0,0,1,1.05-.59,4.05,4.05,0,0,1,1.34-.21,3.78,3.78,0,0,1,1.28.2,3,3,0,0,1,1,.56,2.57,2.57,0,0,1,.68.88,2.79,2.79,0,0,1,.25,1.17,3.89,3.89,0,0,1-.12.94,4,4,0,0,1-.4.88,6.74,6.74,0,0,1-.73.95c-.3.33-.67.71-1.12,1.14l-2.26,2.15h4.58v1.24h-6.42v-1.24l3.23-3.1c.33-.32.62-.61.85-.87a6.4,6.4,0,0,0,.57-.73,2.27,2.27,0,0,0,.33-.66,2.15,2.15,0,0,0,.1-.68,1.6,1.6,0,0,0-.49-1.23,2,2,0,0,0-1.38-.46,2.16,2.16,0,0,0-1.39.44,1.74,1.74,0,0,0-.63,1.22Z" /><path class="c" d="M2525.58,284a3,3,0,0,1,.36-1.1,3.14,3.14,0,0,1,.73-.9,3.36,3.36,0,0,1,1-.59,4.05,4.05,0,0,1,1.34-.21,3.78,3.78,0,0,1,1.28.2,3,3,0,0,1,1,.56,2.7,2.7,0,0,1,.68.88,2.78,2.78,0,0,1,.24,1.17,3.45,3.45,0,0,1-.12.94,3.55,3.55,0,0,1-.39.88,7.6,7.6,0,0,1-.73.95c-.3.33-.68.71-1.12,1.14l-2.26,2.15h4.58v1.24h-6.42v-1.24L2529,287c.34-.32.63-.61.86-.87a6.4,6.4,0,0,0,.57-.73,2.55,2.55,0,0,0,.33-.66,2.48,2.48,0,0,0,.1-.68,1.64,1.64,0,0,0-.49-1.23,2,2,0,0,0-1.38-.46,2.14,2.14,0,0,0-1.39.44A1.7,1.7,0,0,0,2527,284Z" /><path class="c" d="M2567.29,284a3.39,3.39,0,0,1,.36-1.1,3.32,3.32,0,0,1,.73-.9,3.36,3.36,0,0,1,1-.59,4.09,4.09,0,0,1,1.34-.21,3.78,3.78,0,0,1,1.28.2,3,3,0,0,1,1,.56,2.57,2.57,0,0,1,.68.88A2.79,2.79,0,0,1,2574,284a3.45,3.45,0,0,1-.12.94,3.6,3.6,0,0,1-.4.88,6.74,6.74,0,0,1-.73.95c-.3.33-.67.71-1.12,1.14l-2.26,2.15H2574v1.24h-6.42v-1.24l3.23-3.1c.34-.32.62-.61.85-.87a8,8,0,0,0,.58-.73,2.23,2.23,0,0,0,.32-.66,2.15,2.15,0,0,0,.1-.68,1.6,1.6,0,0,0-.49-1.23,2,2,0,0,0-1.38-.46,2.16,2.16,0,0,0-1.39.44,1.78,1.78,0,0,0-.63,1.22Z" /><path class="c" d="M2582.7,288.61a2.82,2.82,0,0,1-.25,1.17,2.75,2.75,0,0,1-.71.92,3.11,3.11,0,0,1-1.11.6,4.64,4.64,0,0,1-1.44.21,3.87,3.87,0,0,1-2.48-.73,3,3,0,0,1-1.09-1.93h1.45a1.89,1.89,0,0,0,.68,1.14,2.27,2.27,0,0,0,1.41.39,2.3,2.3,0,0,0,1.58-.5,1.63,1.63,0,0,0,.57-1.3,1.88,1.88,0,0,0-.18-.86,1.56,1.56,0,0,0-.46-.58,1.73,1.73,0,0,0-.63-.33,2.71,2.71,0,0,0-.68-.09h-.82v-1.18h.79a1.63,1.63,0,0,0,.57-.1,1.52,1.52,0,0,0,.53-.29,1.58,1.58,0,0,0,.39-.52,1.72,1.72,0,0,0,.15-.74,1.36,1.36,0,0,0-.59-1.18,1.68,1.68,0,0,0-.6-.29,2.86,2.86,0,0,0-.7-.09,2.22,2.22,0,0,0-1.36.39,1.6,1.6,0,0,0-.64,1h-1.43a2.81,2.81,0,0,1,.38-1.05,3,3,0,0,1,.75-.8,3.61,3.61,0,0,1,1.06-.52,4.51,4.51,0,0,1,1.31-.18,4.81,4.81,0,0,1,1.2.15,3.21,3.21,0,0,1,1,.48,2.4,2.4,0,0,1,.72.8,2.37,2.37,0,0,1,.27,1.16,2.15,2.15,0,0,1-.5,1.41,2.66,2.66,0,0,1-1.28.85,2.84,2.84,0,0,1,.8.29,2.46,2.46,0,0,1,.67.52,2.55,2.55,0,0,1,.65,1.75Z" /><path class="c" d="M2617.93,284a3.39,3.39,0,0,1,.36-1.1,3.32,3.32,0,0,1,.73-.9,3.41,3.41,0,0,1,1.06-.59,4,4,0,0,1,1.33-.21,3.74,3.74,0,0,1,1.28.2,3,3,0,0,1,1,.56,2.46,2.46,0,0,1,.68.88,2.64,2.64,0,0,1,.25,1.17,3.45,3.45,0,0,1-.12.94,3.26,3.26,0,0,1-.4.88,6.06,6.06,0,0,1-.73.95q-.45.5-1.11,1.14l-2.27,2.15h4.59v1.24h-6.43v-1.24l3.23-3.1c.34-.32.62-.61.86-.87a6.4,6.4,0,0,0,.57-.73,2.23,2.23,0,0,0,.32-.66,2.15,2.15,0,0,0,.1-.68,1.6,1.6,0,0,0-.49-1.23,1.94,1.94,0,0,0-1.37-.46,2.17,2.17,0,0,0-1.4.44,1.78,1.78,0,0,0-.63,1.22Z" /><path class="c" d="M2631.85,281.41v6.88h1.6v1.16h-1.6v1.86h-1.31v-1.86h-4.34v-1.26l4.24-6.78Zm-1.31,6.88V283.6l-2.83,4.69Z" /><path class="c" d="M2702.71,284.12a3.47,3.47,0,0,1,.36-1.1,3,3,0,0,1,.73-.89,3.2,3.2,0,0,1,1-.6,4.29,4.29,0,0,1,2.62,0,3.15,3.15,0,0,1,1,.56,2.57,2.57,0,0,1,.68.88,2.8,2.8,0,0,1,.24,1.18,3.24,3.24,0,0,1-.51,1.81,6.93,6.93,0,0,1-.73.95c-.3.34-.67.72-1.12,1.14l-2.26,2.15h4.58v1.24H2703v-1.24l3.22-3.1c.34-.32.63-.61.86-.87a6.4,6.4,0,0,0,.57-.73,2.66,2.66,0,0,0,.33-.65,2.26,2.26,0,0,0,.1-.69,1.57,1.57,0,0,0-.49-1.22,1.93,1.93,0,0,0-1.38-.46,2.14,2.14,0,0,0-1.39.43,1.7,1.7,0,0,0-.63,1.22Z" /><path class="c" d="M2712.51,289a1.9,1.9,0,0,0,.67,1,2.16,2.16,0,0,0,1.43.43,2.41,2.41,0,0,0,.85-.15,2,2,0,0,0,1.13-1.19,2.86,2.86,0,0,0,.17-1,2.28,2.28,0,0,0-.58-1.68,2.12,2.12,0,0,0-1.55-.57,2.88,2.88,0,0,0-1,.21,2.46,2.46,0,0,0-.94.69h-1.2l.21-5.29h6.09v1.15h-4.86l-.11,2.9a3.66,3.66,0,0,1,3.4-.51,2.88,2.88,0,0,1,1,.64,3.17,3.17,0,0,1,.7,1.05,3.88,3.88,0,0,1,.26,1.46,3.64,3.64,0,0,1-.24,1.32,3.14,3.14,0,0,1-.7,1.09,3.23,3.23,0,0,1-1.11.74,3.85,3.85,0,0,1-1.52.28,4.25,4.25,0,0,1-1.38-.22,3.51,3.51,0,0,1-1.06-.59,3.14,3.14,0,0,1-.72-.83,3.06,3.06,0,0,1-.36-1Z" /><path class="c" d="M2751.47,284.12a3.24,3.24,0,0,1,.36-1.1,3,3,0,0,1,.73-.89,3.2,3.2,0,0,1,1.05-.6,4.29,4.29,0,0,1,2.62,0,3.15,3.15,0,0,1,1,.56,2.57,2.57,0,0,1,.68.88,2.8,2.8,0,0,1,.24,1.18,3.24,3.24,0,0,1-.51,1.81,6.93,6.93,0,0,1-.73.95c-.3.34-.68.72-1.12,1.14l-2.26,2.15h4.58v1.24h-6.42v-1.24l3.22-3.1c.34-.32.63-.61.86-.87a6.4,6.4,0,0,0,.57-.73,2.66,2.66,0,0,0,.33-.65,2.61,2.61,0,0,0,.1-.69,1.57,1.57,0,0,0-.49-1.22,1.93,1.93,0,0,0-1.38-.46,2.14,2.14,0,0,0-1.39.43,1.7,1.7,0,0,0-.63,1.22Z" /><path class="c" d="M2763.8,285a3.31,3.31,0,0,1,1.3.24,3,3,0,0,1,1,.69,3,3,0,0,1,.61,1.05,4.14,4.14,0,0,1,.21,1.34,3.63,3.63,0,0,1-.29,1.49,3.16,3.16,0,0,1-.76,1.05,2.91,2.91,0,0,1-1.06.62,3.61,3.61,0,0,1-1.2.21,3,3,0,0,1-2.6-1.22,6,6,0,0,1-.88-3.55,10.39,10.39,0,0,1,.3-2.74,4.57,4.57,0,0,1,.82-1.7,2.61,2.61,0,0,1,1.16-.87,3.57,3.57,0,0,1,1.33-.25,3.3,3.3,0,0,1,1.93.56,2.52,2.52,0,0,1,1.05,1.53h-1.5a1.24,1.24,0,0,0-.51-.72,1.66,1.66,0,0,0-1-.27,1.78,1.78,0,0,0-.81.19,1.66,1.66,0,0,0-.67.63,4.09,4.09,0,0,0-.51,1.18,9.22,9.22,0,0,0-.26,1.82,3,3,0,0,1,.51-.6,2.46,2.46,0,0,1,.6-.39,2.36,2.36,0,0,1,.63-.22A2.81,2.81,0,0,1,2763.8,285Zm-2.22,3.28a2.3,2.3,0,0,0,.58,1.69,1.9,1.9,0,0,0,1.42.59,1.93,1.93,0,0,0,.75-.15,1.81,1.81,0,0,0,.62-.41,2,2,0,0,0,.42-.68,2.67,2.67,0,0,0,.15-.93,2.43,2.43,0,0,0-.53-1.66,1.82,1.82,0,0,0-1.43-.6,2.14,2.14,0,0,0-.87.17,1.85,1.85,0,0,0-.62.48,2,2,0,0,0-.37.68A2.76,2.76,0,0,0,2761.58,288.24Z" /><path class="c" d="M2801,284.12a3.47,3.47,0,0,1,.36-1.1,3,3,0,0,1,.73-.89,3.2,3.2,0,0,1,1.05-.6,4.29,4.29,0,0,1,2.62,0,3.15,3.15,0,0,1,1,.56,2.57,2.57,0,0,1,.68.88,2.8,2.8,0,0,1,.24,1.18,3.24,3.24,0,0,1-.51,1.81,6.93,6.93,0,0,1-.73.95c-.3.34-.67.72-1.12,1.14l-2.26,2.15h4.58v1.24h-6.42v-1.24l3.23-3.1c.33-.32.62-.61.85-.87a6.4,6.4,0,0,0,.57-.73,2.66,2.66,0,0,0,.33-.65,2.26,2.26,0,0,0,.1-.69,1.57,1.57,0,0,0-.49-1.22,1.92,1.92,0,0,0-1.38-.46,2.16,2.16,0,0,0-1.39.43,1.74,1.74,0,0,0-.63,1.22Z" /><path class="c" d="M2812,291.43h-1.54l4.14-8.68h-4.85v-1.22H2816v1.22Z" /><path class="c" d="M2850.55,284.12a3.47,3.47,0,0,1,.36-1.1,3.13,3.13,0,0,1,.73-.89,3.2,3.2,0,0,1,1.05-.6,4.29,4.29,0,0,1,2.62,0,3.15,3.15,0,0,1,1,.56,2.57,2.57,0,0,1,.68.88,2.8,2.8,0,0,1,.25,1.18,3.15,3.15,0,0,1-.52,1.81,6.22,6.22,0,0,1-.73.95c-.3.34-.67.72-1.12,1.14l-2.26,2.15h4.58v1.24h-6.42v-1.24l3.23-3.1c.34-.32.62-.61.85-.87a8,8,0,0,0,.58-.73,2.3,2.3,0,0,0,.32-.65,2.26,2.26,0,0,0,.1-.69,1.57,1.57,0,0,0-.49-1.22,1.9,1.9,0,0,0-1.38-.46,2.16,2.16,0,0,0-1.39.43,1.78,1.78,0,0,0-.63,1.22Z" /><path class="c" d="M2865.67,283.87a1.92,1.92,0,0,1-.14.77,2.38,2.38,0,0,1-.37.64,2.78,2.78,0,0,1-.53.5,4.12,4.12,0,0,1-.58.38,4.82,4.82,0,0,1,.7.38,3,3,0,0,1,.64.54,2.82,2.82,0,0,1,.47.74,2.35,2.35,0,0,1,.18.94,2.54,2.54,0,0,1-.26,1.17,2.59,2.59,0,0,1-.74.91,3.28,3.28,0,0,1-1.13.59,4.64,4.64,0,0,1-1.48.22,4.93,4.93,0,0,1-1.47-.21,3.41,3.41,0,0,1-1.14-.58,2.67,2.67,0,0,1-.73-.88,2.34,2.34,0,0,1-.26-1.12,2.79,2.79,0,0,1,.17-1,2.66,2.66,0,0,1,1.09-1.28,4.23,4.23,0,0,1,.67-.34,3.61,3.61,0,0,1-.56-.32,2.44,2.44,0,0,1-.86-1.12,2.16,2.16,0,0,1-.15-.83,2.49,2.49,0,0,1,.27-1.19,2.38,2.38,0,0,1,.72-.82,2.88,2.88,0,0,1,1-.48,4.49,4.49,0,0,1,1.22-.16,4.93,4.93,0,0,1,1.23.15,3.32,3.32,0,0,1,1,.45,2.28,2.28,0,0,1,.72.79A2.42,2.42,0,0,1,2865.67,283.87Zm-1.07,4.89a1.76,1.76,0,0,0-.23-.95,1.82,1.82,0,0,0-.58-.59,3.19,3.19,0,0,0-.8-.35c-.3-.08-.58-.15-.85-.2a3.6,3.6,0,0,0-.64.24,2.49,2.49,0,0,0-.6.42,2,2,0,0,0-.45.61,1.8,1.8,0,0,0-.18.82,1.77,1.77,0,0,0,.13.69,1.69,1.69,0,0,0,.4.56,2,2,0,0,0,.67.38,3.13,3.13,0,0,0,1,.14,2.34,2.34,0,0,0,1.63-.5A1.64,1.64,0,0,0,2864.6,288.76Zm-4.08-4.87a1.67,1.67,0,0,0,.23.92,1.73,1.73,0,0,0,.55.56,2.24,2.24,0,0,0,.71.3,5.12,5.12,0,0,0,.71.13,3,3,0,0,0,.55-.26,2.93,2.93,0,0,0,.52-.41,2,2,0,0,0,.38-.53,1.61,1.61,0,0,0,.15-.71,1.26,1.26,0,0,0-.15-.62,1.46,1.46,0,0,0-.41-.48,1.88,1.88,0,0,0-.6-.3,2.48,2.48,0,0,0-.73-.11,2.84,2.84,0,0,0-.72.09,1.65,1.65,0,0,0-.61.29,1.27,1.27,0,0,0-.42.47A1.4,1.4,0,0,0,2860.52,283.89Z" /><path class="c" d="M2941.37,284.12a3.47,3.47,0,0,1,.36-1.1,3,3,0,0,1,.73-.89,3.2,3.2,0,0,1,1.05-.6,4.29,4.29,0,0,1,2.62,0,3.15,3.15,0,0,1,1,.56,2.57,2.57,0,0,1,.68.88,2.8,2.8,0,0,1,.25,1.18,3.15,3.15,0,0,1-.52,1.81,6.22,6.22,0,0,1-.73.95c-.3.34-.67.72-1.12,1.14l-2.26,2.15H2948v1.24h-6.42v-1.24l3.23-3.1c.34-.32.62-.61.85-.87a6.4,6.4,0,0,0,.57-.73,2.35,2.35,0,0,0,.33-.65,2.26,2.26,0,0,0,.1-.69,1.57,1.57,0,0,0-.49-1.22,1.9,1.9,0,0,0-1.38-.46,2.16,2.16,0,0,0-1.39.43,1.7,1.7,0,0,0-.63,1.22Z" /><path class="c" d="M2953.08,288a3.15,3.15,0,0,1-1.24-.23,2.85,2.85,0,0,1-1-.65,3.06,3.06,0,0,1-.63-1.05,3.79,3.79,0,0,1-.23-1.39,3.66,3.66,0,0,1,.25-1.39,3.26,3.26,0,0,1,.7-1.06,3.22,3.22,0,0,1,1.05-.68,3.51,3.51,0,0,1,1.31-.24,3,3,0,0,1,2.6,1.18,6,6,0,0,1,.88,3.59,10.27,10.27,0,0,1-.3,2.7,4.86,4.86,0,0,1-.79,1.71,2.66,2.66,0,0,1-1.16.89,3.87,3.87,0,0,1-1.4.26,3.22,3.22,0,0,1-1.95-.58,2.57,2.57,0,0,1-1.05-1.55h1.5a1.26,1.26,0,0,0,.53.75,1.77,1.77,0,0,0,1,.27,1.9,1.9,0,0,0,.83-.18,1.73,1.73,0,0,0,.68-.62,3.71,3.71,0,0,0,.48-1.18,10.21,10.21,0,0,0,.24-1.82,3,3,0,0,1-.51.6,2.79,2.79,0,0,1-.59.4,3.11,3.11,0,0,1-.63.21A3.34,3.34,0,0,1,2953.08,288Zm2.22-3.28a2.32,2.32,0,0,0-.57-1.69,2,2,0,0,0-2.18-.44,1.79,1.79,0,0,0-.62.42,2.09,2.09,0,0,0-.41.68,2.65,2.65,0,0,0-.15.92,2.91,2.91,0,0,0,.15,1,2.19,2.19,0,0,0,.41.72,1.69,1.69,0,0,0,.62.43,2.19,2.19,0,0,0,.77.14,2,2,0,0,0,.87-.18,1.74,1.74,0,0,0,.63-.47,2.06,2.06,0,0,0,.36-.69A2.74,2.74,0,0,0,2955.3,284.73Z" /><path class="c" d="M3009.06,288.73a2.64,2.64,0,0,1-.25,1.17,2.72,2.72,0,0,1-.7.92,3.25,3.25,0,0,1-1.12.6,4.64,4.64,0,0,1-1.44.21,3.83,3.83,0,0,1-2.47-.73A2.86,2.86,0,0,1,3002,289h1.44a1.89,1.89,0,0,0,.68,1.14,2.27,2.27,0,0,0,1.41.39,2.35,2.35,0,0,0,1.59-.49,1.65,1.65,0,0,0,.56-1.31,1.89,1.89,0,0,0-.17-.86,1.77,1.77,0,0,0-.46-.58,1.71,1.71,0,0,0-.63-.32,2.35,2.35,0,0,0-.69-.1h-.82v-1.18h.79a1.73,1.73,0,0,0,.58-.1,1.62,1.62,0,0,0,.53-.29,1.48,1.48,0,0,0,.39-.52,1.72,1.72,0,0,0,.14-.74,1.42,1.42,0,0,0-.16-.7,1.5,1.5,0,0,0-.42-.48,1.81,1.81,0,0,0-.61-.29,2.8,2.8,0,0,0-.7-.09,2.22,2.22,0,0,0-1.36.39,1.6,1.6,0,0,0-.64,1H3002a2.5,2.5,0,0,1,.38-1.05,2.85,2.85,0,0,1,.75-.8,3.68,3.68,0,0,1,1-.52,4.56,4.56,0,0,1,1.31-.18,4.34,4.34,0,0,1,1.2.16,3.13,3.13,0,0,1,1,.47,2.33,2.33,0,0,1,1,2,2.15,2.15,0,0,1-.5,1.41,2.61,2.61,0,0,1-1.28.85,3.19,3.19,0,0,1,.8.29,2.5,2.5,0,0,1,.68.53,2.36,2.36,0,0,1,.46.75A2.57,2.57,0,0,1,3009.06,288.73Z" /><path class="c" d="M3014,291.65a3.3,3.3,0,0,1-1.4-.31,3,3,0,0,1-1.13-1,4.86,4.86,0,0,1-.74-1.62,8.69,8.69,0,0,1-.27-2.3,8.88,8.88,0,0,1,.27-2.35,4.7,4.7,0,0,1,.75-1.59,2.93,2.93,0,0,1,1.12-.91,3.44,3.44,0,0,1,1.4-.29,3.39,3.39,0,0,1,1.39.29,2.93,2.93,0,0,1,1.12.91,4.35,4.35,0,0,1,.75,1.59,8.88,8.88,0,0,1,.27,2.35,8.69,8.69,0,0,1-.27,2.3,4.67,4.67,0,0,1-.74,1.62,3,3,0,0,1-1.12,1A3.33,3.33,0,0,1,3014,291.65Zm0-1.13a1.74,1.74,0,0,0,1.62-1,6.79,6.79,0,0,0,.53-3.07,6.69,6.69,0,0,0-.53-3,1.75,1.75,0,0,0-1.62-1,1.73,1.73,0,0,0-1.62,1,6.56,6.56,0,0,0-.53,3,6.65,6.65,0,0,0,.53,3.07A1.72,1.72,0,0,0,3014,290.52Z" /><circle class="d" cx="217.98" cy="159.26" r="6.61" /><rect class="e" x="2687.34" y="68.98" width="207.63" height="180.55" /><rect class="f" x="2689.1" y="70.74" width="204.11" height="177.03" rx="4.92" /><polygon class="g" points="2789.72 72.72 2690.86 72.72 2690.86 136.14 2719.26 136.14 2719.26 143.18 2761.32 143.18 2761.32 136.14 2789.72 136.14 2789.72 72.72" /><path class="d" d="M2722.9,131.4h34.79a0,0,0,0,1,0,0v1.86a3.65,3.65,0,0,1-3.65,3.65h-27.5a3.65,3.65,0,0,1-3.65-3.65V131.4A0,0,0,0,1,2722.9,131.4Z" /><polygon class="g" points="2690.86 246.23 2789.72 246.23 2789.72 182.81 2761.32 182.81 2761.32 175.77 2719.26 175.77 2719.26 182.81 2690.86 182.81 2690.86 246.23" /><path class="d" d="M2722.9,182h34.79a0,0,0,0,1,0,0v1.86a3.65,3.65,0,0,1-3.65,3.65h-27.5a3.65,3.65,0,0,1-3.65-3.65V182A0,0,0,0,1,2722.9,182Z" transform="translate(5480.58 369.59) rotate(180)" /><polygon class="g" points="2792.58 72.72 2891.45 72.72 2891.45 136.14 2863.04 136.14 2863.04 143.18 2820.99 143.18 2820.99 136.14 2792.58 136.14 2792.58 72.72" /><path class="d" d="M2828.27,131.4h27.5a3.65,3.65,0,0,1,3.65,3.65v1.86a0,0,0,0,1,0,0h-34.79a0,0,0,0,1,0,0V135A3.65,3.65,0,0,1,2828.27,131.4Z" transform="translate(5684.03 268.31) rotate(180)" /><polygon class="g" points="2891.45 246.23 2792.58 246.23 2792.58 182.81 2820.99 182.81 2820.99 175.77 2863.04 175.77 2863.04 182.81 2891.45 182.81 2891.45 246.23" /><path class="d" d="M2828.27,182h27.5a3.65,3.65,0,0,1,3.65,3.65v1.86a0,0,0,0,1,0,0h-34.79a0,0,0,0,1,0,0v-1.86a3.65,3.65,0,0,1,3.65-3.65Z" /><rect class="h" x="1404.6" y="67.27" width="425.39" height="183.96" /><rect class="f" x="1410.05" y="72.06" width="414.49" height="174.38" rx="7.42" /><polygon class="g" points="1593.68 90.39 1593.68 77.84 1584.11 77.84 1584.11 71.57 1551.74 71.57 1551.74 77.84 1542.16 77.84 1542.16 90.39 1523.67 90.39 1523.67 147.2 1612.18 147.2 1612.18 90.39 1593.68 90.39" /><polygon class="g" points="1495.26 90.39 1495.26 77.84 1485.68 77.84 1485.68 71.57 1453.32 71.57 1453.32 77.84 1443.74 77.84 1443.74 90.39 1425.24 90.39 1425.24 147.2 1513.76 147.2 1513.76 90.39 1495.26 90.39" /><polygon class="g" points="1790.86 90.39 1790.86 77.84 1781.28 77.84 1781.28 71.57 1748.91 71.57 1748.91 77.84 1739.34 77.84 1739.34 90.39 1720.84 90.39 1720.84 147.2 1809.35 147.2 1809.35 90.39 1790.86 90.39" /><polygon class="g" points="1692.44 90.39 1692.44 77.84 1682.86 77.84 1682.86 71.57 1650.49 71.57 1650.49 77.84 1640.91 77.84 1640.91 90.39 1622.42 90.39 1622.42 147.2 1710.93 147.2 1710.93 90.39 1692.44 90.39" /><polygon class="g" points="1593.68 228.12 1593.68 240.67 1584.11 240.67 1584.11 246.94 1551.74 246.94 1551.74 240.67 1542.16 240.67 1542.16 228.12 1523.67 228.12 1523.67 171.31 1612.18 171.31 1612.18 228.12 1593.68 228.12" /><polygon class="g" points="1495.26 228.12 1495.26 240.67 1485.68 240.67 1485.68 246.94 1453.32 246.94 1453.32 240.67 1443.74 240.67 1443.74 228.12 1425.24 228.12 1425.24 171.31 1513.76 171.31 1513.76 228.12 1495.26 228.12" /><polygon class="g" points="1790.86 228.12 1790.86 240.67 1781.28 240.67 1781.28 246.94 1748.91 246.94 1748.91 240.67 1739.34 240.67 1739.34 228.12 1720.84 228.12 1720.84 171.31 1809.35 171.31 1809.35 228.12 1790.86 228.12" /><polygon class="g" points="1692.44 228.12 1692.44 240.67 1682.86 240.67 1682.86 246.94 1650.49 246.94 1650.49 240.67 1640.91 240.67 1640.91 228.12 1622.42 228.12 1622.42 171.31 1710.93 171.31 1710.93 228.12 1692.44 228.12" /><rect class="h" x="1849.99" y="67.27" width="816.85" height="183.96" /><rect class="f" x="1852.73" y="72.06" width="811.37" height="174.38" rx="10.38" /><polygon class="g" points="2039.08 90.39 2039.08 77.84 2029.5 77.84 2029.5 71.57 1997.13 71.57 1997.13 77.84 1987.55 77.84 1987.55 90.39 1969.06 90.39 1969.06 147.2 2057.57 147.2 2057.57 90.39 2039.08 90.39" /><polygon class="g" points="1940.65 90.39 1940.65 77.84 1931.08 77.84 1931.08 71.57 1898.71 71.57 1898.71 77.84 1889.13 77.84 1889.13 90.39 1870.63 90.39 1870.63 147.2 1959.15 147.2 1959.15 90.39 1940.65 90.39" /><polygon class="g" points="2236.25 90.39 2236.25 77.84 2226.67 77.84 2226.67 71.57 2194.3 71.57 2194.3 77.84 2184.73 77.84 2184.73 90.39 2166.23 90.39 2166.23 147.2 2254.74 147.2 2254.74 90.39 2236.25 90.39" /><polygon class="g" points="2137.83 90.39 2137.83 77.84 2128.25 77.84 2128.25 71.57 2095.88 71.57 2095.88 77.84 2086.3 77.84 2086.3 90.39 2067.81 90.39 2067.81 147.2 2156.32 147.2 2156.32 90.39 2137.83 90.39" /><polygon class="g" points="2039.08 228.12 2039.08 240.67 2029.5 240.67 2029.5 246.94 1997.13 246.94 1997.13 240.67 1987.55 240.67 1987.55 228.12 1969.06 228.12 1969.06 171.31 2057.57 171.31 2057.57 228.12 2039.08 228.12" /><polygon class="g" points="1940.65 228.12 1940.65 240.67 1931.08 240.67 1931.08 246.94 1898.71 246.94 1898.71 240.67 1889.13 240.67 1889.13 228.12 1870.63 228.12 1870.63 171.31 1959.15 171.31 1959.15 228.12 1940.65 228.12" /><polygon class="g" points="2236.25 228.12 2236.25 240.67 2226.67 240.67 2226.67 246.94 2194.3 246.94 2194.3 240.67 2184.73 240.67 2184.73 228.12 2166.23 228.12 2166.23 171.31 2254.74 171.31 2254.74 228.12 2236.25 228.12" /><polygon class="g" points="2137.83 228.12 2137.83 240.67 2128.25 240.67 2128.25 246.94 2095.88 246.94 2095.88 240.67 2086.3 240.67 2086.3 228.12 2067.81 228.12 2067.81 171.31 2156.32 171.31 2156.32 228.12 2137.83 228.12" /><polygon class="g" points="2430.52 90.39 2430.52 77.84 2420.94 77.84 2420.94 71.57 2388.58 71.57 2388.58 77.84 2379 77.84 2379 90.39 2360.5 90.39 2360.5 147.2 2449.02 147.2 2449.02 90.39 2430.52 90.39" /><polygon class="g" points="2332.1 90.39 2332.1 77.84 2322.52 77.84 2322.52 71.57 2290.15 71.57 2290.15 77.84 2280.58 77.84 2280.58 90.39 2262.08 90.39 2262.08 147.2 2350.59 147.2 2350.59 90.39 2332.1 90.39" /><polygon class="g" points="2627.7 90.39 2627.7 77.84 2618.12 77.84 2618.12 71.57 2585.75 71.57 2585.75 77.84 2576.17 77.84 2576.17 90.39 2557.68 90.39 2557.68 147.2 2646.19 147.2 2646.19 90.39 2627.7 90.39" /><polygon class="g" points="2529.27 90.39 2529.27 77.84 2519.7 77.84 2519.7 71.57 2487.33 71.57 2487.33 77.84 2477.75 77.84 2477.75 90.39 2459.26 90.39 2459.26 147.2 2547.77 147.2 2547.77 90.39 2529.27 90.39" /><polygon class="g" points="2430.52 228.12 2430.52 240.67 2420.94 240.67 2420.94 246.94 2388.58 246.94 2388.58 240.67 2379 240.67 2379 228.12 2360.5 228.12 2360.5 171.31 2449.02 171.31 2449.02 228.12 2430.52 228.12" /><polygon class="g" points="2332.1 228.12 2332.1 240.67 2322.52 240.67 2322.52 246.94 2290.15 246.94 2290.15 240.67 2280.58 240.67 2280.58 228.12 2262.08 228.12 2262.08 171.31 2350.59 171.31 2350.59 228.12 2332.1 228.12" /><polygon class="g" points="2627.7 228.12 2627.7 240.67 2618.12 240.67 2618.12 246.94 2585.75 246.94 2585.75 240.67 2576.17 240.67 2576.17 228.12 2557.68 228.12 2557.68 171.31 2646.19 171.31 2646.19 228.12 2627.7 228.12" /><polygon class="g" points="2529.27 228.12 2529.27 240.67 2519.7 240.67 2519.7 246.94 2487.33 246.94 2487.33 240.67 2477.75 240.67 2477.75 228.12 2459.26 228.12 2459.26 171.31 2547.77 171.31 2547.77 228.12 2529.27 228.12" /><rect class="i" x="2916.6" y="68.98" width="136.95" height="180.55" /><rect class="f" x="2916.21" y="135.53" width="137.73" height="47.45" /><rect x="2929.75" y="147.49" width="13.21" height="8.42" /><rect x="2949.24" y="147.49" width="13.21" height="8.42" /><rect x="2968.73" y="147.49" width="13.21" height="8.42" /><rect x="2988.21" y="147.49" width="13.21" height="8.42" /><rect x="3007.7" y="147.49" width="13.21" height="8.42" /><rect x="3027.19" y="147.49" width="13.21" height="8.42" /><rect x="2929.75" y="162.6" width="13.21" height="8.42" /><rect x="2949.24" y="162.6" width="13.21" height="8.42" /><rect x="2968.73" y="162.6" width="13.21" height="8.42" /><rect x="2988.21" y="162.6" width="13.21" height="8.42" /><rect x="3007.7" y="162.6" width="13.21" height="8.42" /><rect x="3027.19" y="162.6" width="13.21" height="8.42" /><path class="c" d="M1588.18,37.58v8.29a2.6,2.6,0,0,0,.8,2,3.89,3.89,0,0,0,4.62,0,2.6,2.6,0,0,0,.8-2V37.58h1.68v8.14a4.46,4.46,0,0,1-.35,1.83,3.84,3.84,0,0,1-1,1.37,4.21,4.21,0,0,1-1.51.85,6.12,6.12,0,0,1-2,.3,6,6,0,0,1-2-.31,4.21,4.21,0,0,1-1.52-.87,3.88,3.88,0,0,1-1-1.38,4.46,4.46,0,0,1-.34-1.79V37.58Z" /><path class="c" d="M1602.52,37.58a5.51,5.51,0,0,1,3.56,1,3.64,3.64,0,0,1,1.23,3,3.54,3.54,0,0,1-1.21,2.88,5.64,5.64,0,0,1-3.65,1h-2.17v4.37h-1.73V37.58ZM1600.28,39v5h2.21a3.4,3.4,0,0,0,2.33-.64,2.78,2.78,0,0,0-.06-3.73,3.22,3.22,0,0,0-2.2-.68Z" /><path class="c" d="M1608.42,45.4a5.69,5.69,0,0,1,.34-2.07,4.11,4.11,0,0,1,1-1.46,3.54,3.54,0,0,1,1.38-.86,5,5,0,0,1,1.69-.28,5,5,0,0,1,1.7.28,3.65,3.65,0,0,1,1.39.86,4.05,4.05,0,0,1,.92,1.46,6.44,6.44,0,0,1,0,4.1,4.09,4.09,0,0,1-.92,1.46,3.71,3.71,0,0,1-1.38.88,4.93,4.93,0,0,1-1.74.3,4.8,4.8,0,0,1-1.71-.3,3.72,3.72,0,0,1-1.39-.89,4.16,4.16,0,0,1-.91-1.46A5.67,5.67,0,0,1,1608.42,45.4Zm1.69,0a4.55,4.55,0,0,0,.21,1.44,3.06,3.06,0,0,0,.56,1.06,2.28,2.28,0,0,0,.85.63,2.69,2.69,0,0,0,1.07.22,2.41,2.41,0,0,0,1.9-.85,3.73,3.73,0,0,0,.73-2.5,4.91,4.91,0,0,0-.2-1.46,3.23,3.23,0,0,0-.56-1.06,2.19,2.19,0,0,0-.84-.62,2.63,2.63,0,0,0-1-.21,2.66,2.66,0,0,0-1,.21,2.42,2.42,0,0,0-.85.64,2.92,2.92,0,0,0-.56,1.05A4.48,4.48,0,0,0,1610.11,45.4Z" /><path class="c" d="M1626.22,44.31h-5.4v4h5.89v1.47h-7.62V37.58h7.62V39h-5.89v3.84h5.4Z" /><path class="c" d="M1644.11,49.82h-1.28l-.24-1.47a3.74,3.74,0,0,1-1.55,1.27,5.18,5.18,0,0,1-2.2.45,5.4,5.4,0,0,1-2.13-.42,4.66,4.66,0,0,1-1.73-1.23,6,6,0,0,1-1.14-2,8.22,8.22,0,0,1-.42-2.74,8.09,8.09,0,0,1,.44-2.77,5.89,5.89,0,0,1,1.2-2,4.79,4.79,0,0,1,1.78-1.2,5.88,5.88,0,0,1,2.19-.4,5.94,5.94,0,0,1,1.92.3,5.24,5.24,0,0,1,1.54.81,4.48,4.48,0,0,1,1.08,1.22,3.83,3.83,0,0,1,.52,1.51h-1.7a2.81,2.81,0,0,0-1.12-1.76,3.78,3.78,0,0,0-2.24-.64,3.84,3.84,0,0,0-1.51.3,3.26,3.26,0,0,0-1.22.91,4.41,4.41,0,0,0-.81,1.54,7,7,0,0,0-.3,2.16,6.75,6.75,0,0,0,.32,2.17,4.65,4.65,0,0,0,.86,1.54,3.55,3.55,0,0,0,1.23.94,3.5,3.5,0,0,0,1.45.31,4.07,4.07,0,0,0,1.35-.22,3.21,3.21,0,0,0,1.11-.63,2.91,2.91,0,0,0,.75-1,2.72,2.72,0,0,0,.28-1.24v-1H1639V43.24h5.15Z" /><path class="c" d="M1646.38,49.82V37.58H1648v4.63a3.42,3.42,0,0,1,1.19-1.07,3.62,3.62,0,0,1,1.77-.41,4.09,4.09,0,0,1,1.59.3,3.41,3.41,0,0,1,1.23.89,4.3,4.3,0,0,1,.79,1.45,6.18,6.18,0,0,1,.28,2,6.35,6.35,0,0,1-.3,2,4,4,0,0,1-.83,1.48,3.71,3.71,0,0,1-1.27.91,4.09,4.09,0,0,1-1.61.31,3.33,3.33,0,0,1-2.87-1.43l-.25,1.18Zm6.78-4.52a4.5,4.5,0,0,0-.19-1.41,2.91,2.91,0,0,0-.55-1,2.09,2.09,0,0,0-.81-.58,2.59,2.59,0,0,0-1-.19,2.7,2.7,0,0,0-1,.2,2.53,2.53,0,0,0-.85.6,2.82,2.82,0,0,0-.58,1,4.23,4.23,0,0,0-.21,1.39,3.77,3.77,0,0,0,.73,2.49,2.39,2.39,0,0,0,1.94.89,2.32,2.32,0,0,0,1.86-.82A3.86,3.86,0,0,0,1653.16,45.3Z" /><path class="c" d="M1664,44.31h-5.4v4h5.89v1.47h-7.63V37.58h7.63V39h-5.89v3.84h5.4Z" /><path class="c" d="M2221.65,37.58v8.29a2.6,2.6,0,0,0,.8,2,3.89,3.89,0,0,0,4.62,0,2.6,2.6,0,0,0,.8-2V37.58h1.68v8.14a4.63,4.63,0,0,1-.35,1.83,3.87,3.87,0,0,1-1,1.37,4.13,4.13,0,0,1-1.51.85,6.08,6.08,0,0,1-2,.3,5.94,5.94,0,0,1-2-.31,4.12,4.12,0,0,1-1.52-.87,3.76,3.76,0,0,1-1-1.38,4.46,4.46,0,0,1-.34-1.79V37.58Z" /><path class="c" d="M2236,37.58a5.51,5.51,0,0,1,3.56,1,3.64,3.64,0,0,1,1.23,3,3.54,3.54,0,0,1-1.22,2.88,5.6,5.6,0,0,1-3.64,1h-2.17v4.37H2232V37.58ZM2233.75,39v5h2.2a3.38,3.38,0,0,0,2.33-.64,2.75,2.75,0,0,0-.06-3.73A3.18,3.18,0,0,0,2236,39Z" /><path class="c" d="M2241.88,45.4a5.68,5.68,0,0,1,.35-2.07,4.09,4.09,0,0,1,.94-1.46,3.65,3.65,0,0,1,1.39-.86,5,5,0,0,1,1.69-.28,5,5,0,0,1,1.7.28,3.54,3.54,0,0,1,1.38.86,4.07,4.07,0,0,1,.93,1.46,5.91,5.91,0,0,1,.34,2.07,5.72,5.72,0,0,1-.33,2,4.09,4.09,0,0,1-.92,1.46,3.67,3.67,0,0,1-1.39.88,4.87,4.87,0,0,1-1.73.3,4.8,4.8,0,0,1-1.71-.3,3.57,3.57,0,0,1-1.39-.89,4.18,4.18,0,0,1-.92-1.46A5.67,5.67,0,0,1,2241.88,45.4Zm1.7,0a4.55,4.55,0,0,0,.21,1.44,3.06,3.06,0,0,0,.56,1.06,2.2,2.2,0,0,0,.85.63,2.66,2.66,0,0,0,1.07.22,2.41,2.41,0,0,0,1.9-.85,3.73,3.73,0,0,0,.73-2.5,4.91,4.91,0,0,0-.2-1.46,3.25,3.25,0,0,0-.57-1.06,2.05,2.05,0,0,0-.84-.62,2.58,2.58,0,0,0-1-.21,2.63,2.63,0,0,0-1.05.21,2.33,2.33,0,0,0-.85.64,2.92,2.92,0,0,0-.56,1.05A4.48,4.48,0,0,0,2243.58,45.4Z" /><path class="c" d="M2259.69,44.31h-5.41v4h5.9v1.47h-7.63V37.58h7.63V39h-5.9v3.84h5.41Z" /><path class="c" d="M2271.48,45.11l3.46,4.71h-2l-2.39-3.42-2.35,3.42h-1.92l3.3-4.59L2266.5,41h1.95l2.11,3,2-3h1.87Z" /><path class="c" d="M2286.56,49.82h-1.27l-.24-1.47a3.77,3.77,0,0,1-1.56,1.27,5.18,5.18,0,0,1-2.2.45,5.43,5.43,0,0,1-2.13-.42,4.55,4.55,0,0,1-1.72-1.23,5.84,5.84,0,0,1-1.15-2,8.23,8.23,0,0,1-.41-2.74,7.86,7.86,0,0,1,.44-2.77,5.72,5.72,0,0,1,1.19-2,4.88,4.88,0,0,1,1.78-1.2,5.88,5.88,0,0,1,2.19-.4,5.94,5.94,0,0,1,1.92.3,5.43,5.43,0,0,1,1.55.81,4.48,4.48,0,0,1,1.08,1.22,3.81,3.81,0,0,1,.51,1.51h-1.7a2.77,2.77,0,0,0-1.12-1.76,4.1,4.1,0,0,0-3.74-.34,3.29,3.29,0,0,0-1.23.91,4.58,4.58,0,0,0-.81,1.54,7,7,0,0,0-.3,2.16,6.75,6.75,0,0,0,.32,2.17,4.83,4.83,0,0,0,.86,1.54,3.55,3.55,0,0,0,1.23.94,3.5,3.5,0,0,0,1.45.31,4.07,4.07,0,0,0,1.35-.22,3.21,3.21,0,0,0,1.11-.63,3.08,3.08,0,0,0,.76-1,2.86,2.86,0,0,0,.28-1.24v-1h-3.59V43.24h5.15Z" /><path class="c" d="M2288.84,49.82V37.58h1.63v4.63a3.39,3.39,0,0,1,1.18-1.07,3.62,3.62,0,0,1,1.77-.41,4.09,4.09,0,0,1,1.59.3,3.41,3.41,0,0,1,1.23.89,4.13,4.13,0,0,1,.79,1.45,6.18,6.18,0,0,1,.28,2,6.65,6.65,0,0,1-.29,2,4.18,4.18,0,0,1-.84,1.48,3.61,3.61,0,0,1-1.27.91,4.05,4.05,0,0,1-1.61.31,3.42,3.42,0,0,1-1.72-.4,3.46,3.46,0,0,1-1.15-1l-.25,1.18Zm6.78-4.52a4.48,4.48,0,0,0-.2-1.41,2.9,2.9,0,0,0-.54-1,2.2,2.2,0,0,0-.82-.58,2.59,2.59,0,0,0-1-.19,2.74,2.74,0,0,0-1,.2,2.63,2.63,0,0,0-.85.6,3,3,0,0,0-.58,1,4.23,4.23,0,0,0-.21,1.39,3.83,3.83,0,0,0,.73,2.49,2.41,2.41,0,0,0,1.94.89,2.32,2.32,0,0,0,1.86-.82A3.86,3.86,0,0,0,2295.62,45.3Z" /><path class="c" d="M2306.4,44.31H2301v4h5.89v1.47h-7.62V37.58h7.62V39H2301v3.84h5.4Z" /><path class="c" d="M2780.2,46.5a2,2,0,0,0-.13-.75,1.5,1.5,0,0,0-.55-.62,4.81,4.81,0,0,0-1.18-.57c-.5-.19-1.17-.4-2-.62a10.17,10.17,0,0,1-1.79-.63,4.2,4.2,0,0,1-1.14-.77,2.28,2.28,0,0,1-.61-.93,3.41,3.41,0,0,1-.18-1.14,2.66,2.66,0,0,1,.29-1.24,2.85,2.85,0,0,1,.84-1,4.42,4.42,0,0,1,1.38-.66,6.63,6.63,0,0,1,1.87-.24,7,7,0,0,1,1.82.23,5.17,5.17,0,0,1,1.47.65,3.64,3.64,0,0,1,1,1,3.43,3.43,0,0,1,.52,1.39h-1.78a1.94,1.94,0,0,0-.91-1.39,4,4,0,0,0-2.15-.49,5.29,5.29,0,0,0-1.2.12,2.85,2.85,0,0,0-.82.35,1.34,1.34,0,0,0-.48.53,1.43,1.43,0,0,0-.15.64,1.83,1.83,0,0,0,.11.64,1.21,1.21,0,0,0,.45.53,4.55,4.55,0,0,0,1,.49q.63.24,1.68.54a13.48,13.48,0,0,1,2.12.74,5.23,5.23,0,0,1,1.34.83,2.47,2.47,0,0,1,.7,1,3.54,3.54,0,0,1,.21,1.26,3.1,3.1,0,0,1-.32,1.37,3.54,3.54,0,0,1-.92,1.17,4.43,4.43,0,0,1-1.51.8,6.8,6.8,0,0,1-3.86,0,5.25,5.25,0,0,1-1.5-.74,4,4,0,0,1-1.08-1.16,3.74,3.74,0,0,1-.55-1.53H2774a2.41,2.41,0,0,0,1,1.65,3.49,3.49,0,0,0,2.18.61,4.5,4.5,0,0,0,1.34-.17,2.86,2.86,0,0,0,1-.46,2,2,0,0,0,.58-.68A1.81,1.81,0,0,0,2780.2,46.5Z" /><path class="c" d="M2790.87,44.65h-5.16v5.17H2784V37.58h7.49V39h-5.76v4.17h5.16Z" /><path class="c" d="M2797.48,37.58a5.51,5.51,0,0,1,3.56,1,3.64,3.64,0,0,1,1.23,3,3.54,3.54,0,0,1-1.21,2.88,5.64,5.64,0,0,1-3.65,1h-2.17v4.37h-1.74V37.58ZM2795.24,39v5h2.21a3.37,3.37,0,0,0,2.32-.64,2.75,2.75,0,0,0-.06-3.73,3.18,3.18,0,0,0-2.2-.68Z" /><path class="c" d="M2807.28,45.08h-2.8V43.63h2.8V40.78h1.55v2.85h2.78v1.45h-2.78v2.83h-1.55Z" /><path class="c" d="M2970.4,50.07a6.32,6.32,0,0,1-2.34-.42,5.11,5.11,0,0,1-1.84-1.24,5.74,5.74,0,0,1-1.19-2,8.45,8.45,0,0,1,0-5.44,5.82,5.82,0,0,1,1.25-2,5.11,5.11,0,0,1,1.85-1.22,6.14,6.14,0,0,1,2.27-.42,6.34,6.34,0,0,1,2.27.4,5.06,5.06,0,0,1,1.84,1.2,5.83,5.83,0,0,1,1.23,2,7.81,7.81,0,0,1,.45,2.77,7.48,7.48,0,0,1-.54,3,5.83,5.83,0,0,1-1.48,2.07l2,2.46-1.39.92-1.8-2.58A6.07,6.07,0,0,1,2970.4,50.07Zm0-1.41a4.14,4.14,0,0,0,1.64-.32,3.6,3.6,0,0,0,1.28-1,4.63,4.63,0,0,0,.83-1.56,7.71,7.71,0,0,0,0-4.26,4.63,4.63,0,0,0-.83-1.56,3.6,3.6,0,0,0-1.28-.95,4.36,4.36,0,0,0-3.28,0,3.57,3.57,0,0,0-1.27.95,4.3,4.3,0,0,0-.83,1.56,7.71,7.71,0,0,0,0,4.26,4.3,4.3,0,0,0,.83,1.56,3.57,3.57,0,0,0,1.27,1A4.17,4.17,0,0,0,2970.4,48.66Z" /><path class="c" d="M2985.49,46.5a2,2,0,0,0-.14-.75,1.43,1.43,0,0,0-.55-.62,4.9,4.9,0,0,0-1.17-.57c-.51-.19-1.17-.4-2-.62a10,10,0,0,1-1.78-.63,4.11,4.11,0,0,1-1.15-.77,2.39,2.39,0,0,1-.61-.93,3.41,3.41,0,0,1-.18-1.14,2.79,2.79,0,0,1,.29-1.24,2.88,2.88,0,0,1,.85-1,4.26,4.26,0,0,1,1.37-.66,6.68,6.68,0,0,1,1.87-.24,6.92,6.92,0,0,1,1.82.23,4.93,4.93,0,0,1,1.47.65,3.68,3.68,0,0,1,1,1,3.58,3.58,0,0,1,.52,1.39h-1.79a1.91,1.91,0,0,0-.91-1.39,4,4,0,0,0-2.15-.49,5.13,5.13,0,0,0-1.19.12,2.92,2.92,0,0,0-.83.35,1.39,1.39,0,0,0-.47.53,1.32,1.32,0,0,0-.16.64,1.83,1.83,0,0,0,.11.64,1.36,1.36,0,0,0,.45.53,4.55,4.55,0,0,0,1,.49q.63.24,1.68.54a13.48,13.48,0,0,1,2.12.74,5.06,5.06,0,0,1,1.34.83,2.5,2.5,0,0,1,.71,1,3.78,3.78,0,0,1,.2,1.26,3.09,3.09,0,0,1-.31,1.37A3.44,3.44,0,0,1,2986,49a4.47,4.47,0,0,1-1.5.8,6.83,6.83,0,0,1-3.87,0,5.39,5.39,0,0,1-1.5-.74,4,4,0,0,1-1.08-1.16,3.88,3.88,0,0,1-.54-1.53h1.78a2.41,2.41,0,0,0,1,1.65,3.53,3.53,0,0,0,2.18.61,4.5,4.5,0,0,0,1.34-.17,2.86,2.86,0,0,0,1-.46,2,2,0,0,0,.58-.68A1.82,1.82,0,0,0,2985.49,46.5Z" /><path class="c" d="M2996.16,44.65H2991v5.17h-1.73V37.58h7.49V39H2991v4.17h5.17Z" /><path class="c" d="M3002.76,37.58a5.49,5.49,0,0,1,3.56,1,3.64,3.64,0,0,1,1.23,3,3.54,3.54,0,0,1-1.21,2.88,5.6,5.6,0,0,1-3.64,1h-2.18v4.37h-1.73V37.58ZM3000.52,39v5h2.21a3.4,3.4,0,0,0,2.33-.64,2.78,2.78,0,0,0-.06-3.73,3.22,3.22,0,0,0-2.2-.68Z" /><path class="c" d="M3012.57,45.08h-2.81V43.63h2.81V40.78h1.54v2.85h2.79v1.45h-2.79v2.83h-1.54Z" /><circle class="c" cx="1446.2" cy="268.85" r="6.17" /><circle class="c" cx="1495.25" cy="268.85" r="6.17" /><circle class="c" cx="1544.31" cy="268.85" r="6.17" /><circle class="c" cx="1593.37" cy="268.85" r="6.17" /><circle class="c" cx="1642.42" cy="268.85" r="6.17" /><circle class="c" cx="1691.48" cy="268.85" r="6.17" /><circle class="c" cx="1740.54" cy="268.85" r="6.17" /><circle class="c" cx="1789.59" cy="268.85" r="6.17" /><circle class="c" cx="1888.11" cy="268.85" r="6.17" /><circle class="c" cx="1937.17" cy="268.85" r="6.17" /><circle class="c" cx="1986.23" cy="268.85" r="6.17" /><circle class="c" cx="2035.28" cy="268.85" r="6.17" /><circle class="c" cx="2084.34" cy="268.85" r="6.17" /><circle class="c" cx="2133.39" cy="268.85" r="6.17" /><circle class="c" cx="2182.45" cy="268.85" r="6.17" /><circle class="c" cx="2231.51" cy="268.85" r="6.17" /><circle class="c" cx="2280.2" cy="268.85" r="6.17" /><circle class="c" cx="2330.37" cy="268.85" r="6.17" /><circle class="c" cx="2379.41" cy="268.85" r="6.17" /><circle class="c" cx="2428.46" cy="268.85" r="6.17" /><circle class="c" cx="2477.5" cy="268.85" r="6.17" /><circle class="c" cx="2526.55" cy="268.85" r="6.17" /><circle class="c" cx="2575.59" cy="268.85" r="6.17" /><circle class="c" cx="2624.64" cy="268.85" r="6.17" /><circle class="c" cx="2715.72" cy="268.85" r="6.17" /><circle class="c" cx="2764.77" cy="268.85" r="6.17" /><circle class="c" cx="2813.81" cy="268.85" r="6.17" /><circle class="c" cx="2862.86" cy="268.85" r="6.17" /><circle class="c" cx="2953.18" cy="268.85" r="6.17" /><circle class="c" cx="3013.46" cy="268.85" r="6.17" /></svg>