<svg viewBox="0 0 3414.38 309.14"><defs><style>.a{fill:#e4e4e4;}.b{fill:#251612;}.c{fill:#231f20;}.d{fill:none;stroke:#1a1a1a;stroke-miterlimit:10;}.e{fill:#ececec;}.f{fill:#060707;}.g{fill:#fff;}.h{fill:#333;}.i{fill:#191816;}</style></defs><path class="a" d="M3377,0H37.42A37.43,37.43,0,0,0,0,37.42V271.71a37.43,37.43,0,0,0,37.42,37.43H3377a37.43,37.43,0,0,0,37.43-37.43V37.42A37.43,37.43,0,0,0,3377,0ZM109.32,265.87a24.44,24.44,0,0,1-24.44,24.44H61.76a24.44,24.44,0,0,1-24.44-24.44h0a24.44,24.44,0,0,1,24.44-24.44H84.88a24.44,24.44,0,0,1,24.44,24.44Zm0-222.6A24.44,24.44,0,0,1,84.88,67.71H61.76A24.44,24.44,0,0,1,37.32,43.27h0A24.44,24.44,0,0,1,61.76,18.83H84.88a24.44,24.44,0,0,1,24.44,24.44Zm3267.74,222.6a24.44,24.44,0,0,1-24.44,24.44H3329.5a24.44,24.44,0,0,1-24.44-24.44h0a24.44,24.44,0,0,1,24.44-24.44h23.12a24.44,24.44,0,0,1,24.44,24.44Zm0-222.6a24.45,24.45,0,0,1-24.44,24.44H3329.5a24.44,24.44,0,0,1-24.44-24.44h0a24.44,24.44,0,0,1,24.44-24.44h23.12a24.44,24.44,0,0,1,24.44,24.44Z" /><polygon class="b" points="3287.68 190.29 3281.51 190.29 3281.51 168.56 3287.68 168.56 3287.68 190.29 3287.68 190.29" /><path class="b" d="M3337.38,174.78a12,12,0,0,0-5.19-1.16c-4,0-6.75,2.47-6.75,5.79s2.64,5.81,6.75,5.81a11.79,11.79,0,0,0,5.19-1.16v5.84a22.27,22.27,0,0,1-5.62.77c-7,0-13-4.25-13-11.26,0-6.48,5.5-11.24,13-11.24a21.22,21.22,0,0,1,5.62.78v5.83Z" /><path class="b" d="M3273.05,174.78a11.81,11.81,0,0,0-5.18-1.16c-4,0-6.76,2.47-6.76,5.79s2.64,5.81,6.76,5.81a11.68,11.68,0,0,0,5.18-1.16v5.84a22.13,22.13,0,0,1-5.63.77c-6.93,0-13-4.25-13-11.26,0-6.48,5.5-11.24,13-11.24a21,21,0,0,1,5.63.78v5.83Z" /><path class="b" d="M3369.65,179.41c0,6.22-5.39,11.26-12.9,11.26s-12.88-5-12.88-11.26,5.38-11.24,12.88-11.24,12.9,5,12.9,11.24Zm-12.9-5.7c-3.65,0-6.36,2.55-6.36,5.7s2.71,5.73,6.36,5.73,6.38-2.56,6.38-5.73-2.72-5.7-6.38-5.7Z" /><path class="b" d="M3311.05,173.5a23.2,23.2,0,0,0-4.82-.66c-2.47,0-3.81.73-3.81,1.78,0,1.32,1.81,1.77,2.82,2.07l1.71.48c4,1.12,5.82,3.57,5.82,6.21,0,5.46-5.4,7.29-10.11,7.29a42.41,42.41,0,0,1-6.65-.59v-5a25.67,25.67,0,0,0,5.81.81c3.06,0,4.48-.8,4.48-2s-1.21-1.73-2.75-2.16l-1.32-.37c-3.43-1-6.29-2.77-6.29-6.36,0-4.06,3.42-6.79,9.11-6.79a29,29,0,0,1,6,.69v4.64Z" /><path class="b" d="M3248.62,145.19a3,3,0,0,0-6,0v6.33a3,3,0,1,0,6,0v-6.33Z" /><path class="b" d="M3265.24,136.87a3,3,0,0,0-6,0v14.65a3,3,0,1,0,6,0V136.87Z" /><path class="b" d="M3281.84,125.5a3,3,0,1,0-6,0v32.05a3,3,0,1,0,6,0V125.5Z" /><path class="b" d="M3298.46,136.87a3,3,0,0,0-6,0v14.65a3,3,0,1,0,6,0V136.87Z" /><path class="b" d="M3315.05,145.19a3,3,0,0,0-6,0v6.33a3,3,0,1,0,6,0v-6.33Z" /><path class="b" d="M3331.68,136.87a3,3,0,0,0-6,0v14.65a3,3,0,1,0,6,0V136.87Z" /><path class="b" d="M3348.29,125.5a3,3,0,1,0-6,0v32.05a3,3,0,1,0,6,0V125.5Z" /><path class="b" d="M3364.92,136.87a3,3,0,0,0-6.08,0v14.65a3,3,0,0,0,6.08,0V136.87Z" /><path class="b" d="M3381.5,145.19a3,3,0,0,0-6,0v6.33a3,3,0,1,0,6,0v-6.33Z" /><polygon class="c" points="1616.42 286.98 1607.96 286.98 1612.19 280.87 1612.19 280.87 1616.42 286.98" /><polygon class="c" points="1658.85 284.23 1667.31 284.23 1663.08 290.34 1663.08 290.34 1658.85 284.23" /><polygon class="c" points="1716.74 286.98 1708.28 286.98 1712.51 280.87 1712.51 280.87 1716.74 286.98" /><polygon class="c" points="1759.16 284.23 1767.62 284.23 1763.39 290.34 1763.39 290.34 1759.16 284.23" /><polygon class="c" points="1814.97 286.98 1806.51 286.98 1810.74 280.87 1810.74 280.87 1814.97 286.98" /><polygon class="c" points="1857.39 284.23 1865.86 284.23 1861.63 290.34 1861.63 290.34 1857.39 284.23" /><polygon class="c" points="1913.31 286.98 1904.85 286.98 1909.08 280.87 1909.08 280.87 1913.31 286.98" /><polygon class="c" points="1955.73 284.23 1964.19 284.23 1959.96 290.34 1959.96 290.34 1955.73 284.23" /><polygon class="c" points="2058.38 287.69 2049.92 287.69 2054.15 281.58 2054.15 281.58 2058.38 287.69" /><polygon class="c" points="2103.31 284.95 2111.77 284.95 2107.54 291.06 2107.54 291.06 2103.31 284.95" /><polygon class="c" points="2162.49 287.69 2154.03 287.69 2158.26 281.58 2158.26 281.58 2162.49 287.69" /><polygon class="c" points="2203.77 284.39 2212.23 284.39 2208 290.5 2208 290.5 2203.77 284.39" /><polygon class="c" points="2254.42 287.69 2245.96 287.69 2250.19 281.58 2250.19 281.58 2254.42 287.69" /><polygon class="c" points="2295.31 284.95 2303.77 284.95 2299.54 291.06 2299.54 291.06 2295.31 284.95" /><polygon class="c" points="2352.14 287.69 2343.68 287.69 2347.91 281.58 2347.91 281.58 2352.14 287.69" /><polygon class="c" points="2394.56 284.95 2403.02 284.95 2398.79 291.06 2398.79 291.06 2394.56 284.95" /><polygon class="c" points="2451.14 287.69 2442.68 287.69 2446.91 281.58 2446.91 281.58 2451.14 287.69" /><polygon class="c" points="2492.72 284.95 2501.18 284.95 2496.95 291.06 2496.95 291.06 2492.72 284.95" /><polygon class="c" points="2549.16 287.69 2540.7 287.69 2544.93 281.58 2544.93 281.58 2549.16 287.69" /><polygon class="c" points="2591.02 284.95 2599.48 284.95 2595.25 291.06 2595.25 291.06 2591.02 284.95" /><polygon class="c" points="2649.63 287.69 2641.17 287.69 2645.4 281.58 2645.4 281.58 2649.63 287.69" /><polygon class="c" points="2690.52 284.95 2698.98 284.95 2694.75 291.06 2694.75 291.06 2690.52 284.95" /><polygon class="c" points="2746.81 287.69 2738.35 287.69 2742.58 281.58 2742.58 281.58 2746.81 287.69" /><polygon class="c" points="2785.36 284.95 2793.82 284.95 2789.59 291.06 2789.59 291.06 2785.36 284.95" /><rect class="d" x="2840.97" y="68.98" width="207.63" height="180.55" /><rect class="e" x="2842.73" y="70.74" width="204.11" height="177.03" rx="4.92" /><polygon class="f" points="2943.36 72.72 2844.49 72.72 2844.49 136.14 2872.9 136.14 2872.9 143.18 2914.95 143.18 2914.95 136.14 2943.36 136.14 2943.36 72.72" /><path class="g" d="M2876.53,131.4h34.79a0,0,0,0,1,0,0v1.86a3.65,3.65,0,0,1-3.65,3.65h-27.5a3.65,3.65,0,0,1-3.65-3.65V131.4A0,0,0,0,1,2876.53,131.4Z" /><polygon class="f" points="2844.49 246.23 2943.36 246.23 2943.36 182.81 2914.95 182.81 2914.95 175.77 2872.9 175.77 2872.9 182.81 2844.49 182.81 2844.49 246.23" /><path class="g" d="M2876.53,182h34.79a0,0,0,0,1,0,0v1.86a3.65,3.65,0,0,1-3.65,3.65h-27.5a3.65,3.65,0,0,1-3.65-3.65V182A0,0,0,0,1,2876.53,182Z" transform="translate(5787.85 369.59) rotate(180)" /><polygon class="f" points="2946.22 72.72 3045.08 72.72 3045.08 136.14 3016.68 136.14 3016.68 143.18 2974.62 143.18 2974.62 136.14 2946.22 136.14 2946.22 72.72" /><path class="g" d="M2981.9,131.4h27.5A3.65,3.65,0,0,1,3013,135v1.86a0,0,0,0,1,0,0h-34.79a0,0,0,0,1,0,0V135A3.65,3.65,0,0,1,2981.9,131.4Z" transform="translate(5991.3 268.31) rotate(180)" /><polygon class="f" points="3045.08 246.23 2946.22 246.23 2946.22 182.81 2974.62 182.81 2974.62 175.77 3016.68 175.77 3016.68 182.81 3045.08 182.81 3045.08 246.23" /><path class="g" d="M2981.9,182h27.5a3.65,3.65,0,0,1,3.65,3.65v1.86a0,0,0,0,1,0,0h-34.79a0,0,0,0,1,0,0v-1.86A3.65,3.65,0,0,1,2981.9,182Z" /><polygon class="c" points="334.84 287.94 326.38 287.94 330.61 281.83 330.61 281.83 334.84 287.94" /><polygon class="c" points="377.26 285.2 385.72 285.2 381.49 291.31 381.49 291.31 377.26 285.2" /><polygon class="c" points="435.15 287.94 426.69 287.94 430.92 281.83 430.92 281.83 435.15 287.94" /><polygon class="c" points="477.57 285.2 486.03 285.2 481.8 291.31 481.8 291.31 477.57 285.2" /><polygon class="c" points="533.39 287.94 524.93 287.94 529.16 281.83 529.16 281.83 533.39 287.94" /><polygon class="c" points="575.81 285.2 584.27 285.2 580.04 291.31 580.04 291.31 575.81 285.2" /><polygon class="c" points="631.72 287.94 623.26 287.94 627.49 281.83 627.49 281.83 631.72 287.94" /><polygon class="c" points="674.15 285.2 682.61 285.2 678.38 291.31 678.38 291.31 674.15 285.2" /><polygon class="c" points="728.44 287.94 719.98 287.94 724.21 281.83 724.21 281.83 728.44 287.94" /><polygon class="c" points="773.37 285.2 781.83 285.2 777.6 291.31 777.6 291.31 773.37 285.2" /><polygon class="c" points="832.55 287.94 824.09 287.94 828.32 281.83 828.32 281.83 832.55 287.94" /><polygon class="c" points="873.83 284.64 882.29 284.64 878.06 290.75 878.06 290.75 873.83 284.64" /><polygon class="c" points="928.13 287.94 919.67 287.94 923.9 281.83 923.9 281.83 928.13 287.94" /><polygon class="c" points="969.02 285.2 977.49 285.2 973.25 291.31 973.25 291.31 969.02 285.2" /><polygon class="c" points="1025.85 287.94 1017.39 287.94 1021.62 281.83 1021.62 281.83 1025.85 287.94" /><polygon class="c" points="1068.27 285.2 1076.73 285.2 1072.5 291.31 1072.5 291.31 1068.27 285.2" /><polygon class="c" points="1174.83 287.94 1166.37 287.94 1170.6 281.83 1170.6 281.83 1174.83 287.94" /><polygon class="c" points="1216.41 285.2 1224.87 285.2 1220.64 291.31 1220.64 291.31 1216.41 285.2" /><polygon class="c" points="1272.85 287.94 1264.39 287.94 1268.62 281.83 1268.62 281.83 1272.85 287.94" /><polygon class="c" points="1314.71 285.2 1323.17 285.2 1318.94 291.31 1318.94 291.31 1314.71 285.2" /><polygon class="c" points="1373.32 287.94 1364.86 287.94 1369.09 281.83 1369.09 281.83 1373.32 287.94" /><polygon class="c" points="1414.21 285.2 1422.68 285.2 1418.45 291.31 1418.45 291.31 1414.21 285.2" /><polygon class="c" points="1470.5 287.94 1462.04 287.94 1466.27 281.83 1466.27 281.83 1470.5 287.94" /><polygon class="c" points="1512.92 285.2 1521.38 285.2 1517.15 291.31 1517.15 291.31 1512.92 285.2" /><path class="c" d="M320.33,291.31v-8.48L318.1,284v-1.4l2.24-1.16h1.33v9.9Z" /><path class="c" d="M366.39,284a3.39,3.39,0,0,1,.36-1.1,3.32,3.32,0,0,1,.73-.9,3.41,3.41,0,0,1,1.06-.59,4,4,0,0,1,1.33-.21,3.74,3.74,0,0,1,1.28.2,3,3,0,0,1,1,.56,2.46,2.46,0,0,1,.68.88,2.64,2.64,0,0,1,.25,1.17,3.45,3.45,0,0,1-.12.94,3.26,3.26,0,0,1-.4.88,6.06,6.06,0,0,1-.73.95q-.45.5-1.11,1.14l-2.27,2.15h4.59v1.24h-6.43v-1.24l3.23-3.1c.34-.32.62-.61.86-.87a6.4,6.4,0,0,0,.57-.73,2.23,2.23,0,0,0,.32-.66,2.15,2.15,0,0,0,.1-.68,1.6,1.6,0,0,0-.49-1.23,1.94,1.94,0,0,0-1.37-.46,2.17,2.17,0,0,0-1.4.44,1.78,1.78,0,0,0-.63,1.22Z" /><path class="c" d="M422.85,288.61a2.67,2.67,0,0,1-.25,1.17,2.72,2.72,0,0,1-.7.92,3.29,3.29,0,0,1-1.11.6,4.75,4.75,0,0,1-1.45.21,3.84,3.84,0,0,1-2.47-.73,2.88,2.88,0,0,1-1.09-1.93h1.44a1.89,1.89,0,0,0,.68,1.14,2.28,2.28,0,0,0,1.42.39,2.34,2.34,0,0,0,1.58-.5,1.63,1.63,0,0,0,.57-1.3,1.88,1.88,0,0,0-.18-.86,1.67,1.67,0,0,0-.46-.58,1.9,1.9,0,0,0-.63-.33,2.72,2.72,0,0,0-.69-.09h-.82v-1.18h.8a1.71,1.71,0,0,0,.57-.1,1.62,1.62,0,0,0,.53-.29,1.58,1.58,0,0,0,.39-.52,1.72,1.72,0,0,0,.15-.74,1.42,1.42,0,0,0-.17-.7,1.5,1.5,0,0,0-.42-.48,1.81,1.81,0,0,0-.61-.29,2.74,2.74,0,0,0-.7-.09,2.22,2.22,0,0,0-1.36.39,1.54,1.54,0,0,0-.63,1h-1.43a2.5,2.5,0,0,1,.38-1.05,3,3,0,0,1,.75-.8,3.44,3.44,0,0,1,1.05-.52,4.56,4.56,0,0,1,1.31-.18,4.7,4.7,0,0,1,1.2.15,3.37,3.37,0,0,1,1,.48,2.3,2.3,0,0,1,1,2,2.1,2.1,0,0,1-.5,1.41,2.57,2.57,0,0,1-1.28.85,3,3,0,0,1,.81.29,2.62,2.62,0,0,1,.67.52,2.49,2.49,0,0,1,.64,1.75Z" /><path class="c" d="M470.91,281.41v6.88h1.6v1.16h-1.6v1.86h-1.32v-1.86h-4.34v-1.26l4.24-6.78Zm-1.32,6.88V283.6l-2.83,4.69Z" /><path class="c" d="M516.33,288.91a1.94,1.94,0,0,0,.67,1,2.16,2.16,0,0,0,1.43.43,2.13,2.13,0,0,0,.84-.16,1.8,1.8,0,0,0,.69-.45,2,2,0,0,0,.45-.73,2.86,2.86,0,0,0,.17-1,2.28,2.28,0,0,0-.58-1.68,2.12,2.12,0,0,0-1.55-.57,2.88,2.88,0,0,0-1,.21,2.46,2.46,0,0,0-.94.69h-1.2l.21-5.29h6.09v1.15h-4.86l-.11,2.9A3.66,3.66,0,0,1,520,285a3,3,0,0,1,1,.63,3.32,3.32,0,0,1,.7,1.06,3.88,3.88,0,0,1,.26,1.46,3.68,3.68,0,0,1-.24,1.32,3.14,3.14,0,0,1-.7,1.09,3.23,3.23,0,0,1-1.11.74,4,4,0,0,1-1.52.28,4.25,4.25,0,0,1-1.38-.22,3.73,3.73,0,0,1-1.06-.59,3,3,0,0,1-.72-.84,2.93,2.93,0,0,1-.36-1Z" /><path class="c" d="M568.41,284.83a3.3,3.3,0,0,1,1.29.25,2.85,2.85,0,0,1,1,.69,3,3,0,0,1,.61,1.05,4.14,4.14,0,0,1,.21,1.34,3.58,3.58,0,0,1-.29,1.48,3.1,3.1,0,0,1-.76,1.06,3.05,3.05,0,0,1-1.06.62,3.57,3.57,0,0,1-1.2.21,3,3,0,0,1-2.6-1.22,6,6,0,0,1-.88-3.55A10.52,10.52,0,0,1,565,284a4.76,4.76,0,0,1,.82-1.69,2.66,2.66,0,0,1,1.16-.87,3.57,3.57,0,0,1,1.33-.25,3.29,3.29,0,0,1,1.94.56,2.55,2.55,0,0,1,1,1.53h-1.5a1.24,1.24,0,0,0-.51-.72,1.66,1.66,0,0,0-1-.27,1.71,1.71,0,0,0-.8.19,1.68,1.68,0,0,0-.68.63,3.84,3.84,0,0,0-.5,1.18,8.47,8.47,0,0,0-.27,1.82,3,3,0,0,1,.51-.6,2.85,2.85,0,0,1,.6-.4,3.62,3.62,0,0,1,.63-.22A3.57,3.57,0,0,1,568.41,284.83Zm-2.23,3.29a2.34,2.34,0,0,0,.58,1.69,1.89,1.89,0,0,0,1.42.58,1.92,1.92,0,0,0,.75-.14,1.63,1.63,0,0,0,.62-.42,1.91,1.91,0,0,0,.42-.67,2.67,2.67,0,0,0,.15-.93,2.43,2.43,0,0,0-.53-1.66,1.81,1.81,0,0,0-1.42-.6,1.93,1.93,0,0,0-.87.17,1.89,1.89,0,0,0-.63.48,1.93,1.93,0,0,0-.36.68A2.47,2.47,0,0,0,566.18,288.12Z" /><path class="c" d="M615,291.31h-1.54l4.14-8.68h-4.85v-1.22h6.3v1.22Z" /><path class="c" d="M668.51,283.75a1.92,1.92,0,0,1-.14.77,2.38,2.38,0,0,1-.37.64,2.78,2.78,0,0,1-.53.5,4.12,4.12,0,0,1-.58.38,4.82,4.82,0,0,1,.7.38,3,3,0,0,1,.64.54,2.82,2.82,0,0,1,.47.74,2.35,2.35,0,0,1,.18.94,2.71,2.71,0,0,1-.26,1.17,2.68,2.68,0,0,1-.74.91,3.46,3.46,0,0,1-1.13.59,4.64,4.64,0,0,1-1.48.22,4.93,4.93,0,0,1-1.47-.21,3.6,3.6,0,0,1-1.14-.58,2.67,2.67,0,0,1-.73-.88,2.37,2.37,0,0,1-.26-1.12,2.79,2.79,0,0,1,.17-1,2.56,2.56,0,0,1,.46-.75,2.86,2.86,0,0,1,.63-.53,4.23,4.23,0,0,1,.67-.34,3.61,3.61,0,0,1-.56-.32,2.28,2.28,0,0,1-.5-.48,2.38,2.38,0,0,1-.51-1.48,2.48,2.48,0,0,1,.27-1.18,2.5,2.5,0,0,1,.72-.83,3.26,3.26,0,0,1,1-.48,5.08,5.08,0,0,1,2.45,0,3.32,3.32,0,0,1,1,.45,2.25,2.25,0,0,1,.72.78A2.5,2.5,0,0,1,668.51,283.75Zm-1.07,4.89a1.66,1.66,0,0,0-.81-1.54,3.19,3.19,0,0,0-.8-.35c-.3-.08-.58-.15-.85-.2a3.6,3.6,0,0,0-.64.24,2.49,2.49,0,0,0-.6.42,2,2,0,0,0-.45.61,1.77,1.77,0,0,0-.18.82,1.8,1.8,0,0,0,.13.69,1.66,1.66,0,0,0,.4.55,2,2,0,0,0,.67.39,3.13,3.13,0,0,0,1,.14,2.34,2.34,0,0,0,1.63-.5A1.64,1.64,0,0,0,667.44,288.64Zm-4.08-4.87a1.67,1.67,0,0,0,.23.92,1.73,1.73,0,0,0,.55.56,2.34,2.34,0,0,0,.71.3,7.2,7.2,0,0,0,.71.13,2.53,2.53,0,0,0,.55-.27,2.49,2.49,0,0,0,.52-.4,1.94,1.94,0,0,0,.38-.54,1.54,1.54,0,0,0,.15-.7,1.33,1.33,0,0,0-.15-.63,1.53,1.53,0,0,0-.41-.47,1.88,1.88,0,0,0-.6-.3,2.19,2.19,0,0,0-.73-.11,2.84,2.84,0,0,0-.72.09,1.81,1.81,0,0,0-.61.28,1.38,1.38,0,0,0-.42.48A1.4,1.4,0,0,0,663.36,283.77Z" /><path class="c" d="M712.88,287.89a3.34,3.34,0,0,1-1.24-.23,2.85,2.85,0,0,1-1-.65A3.06,3.06,0,0,1,710,286a4.05,4.05,0,0,1-.23-1.39,3.62,3.62,0,0,1,.25-1.39,3.16,3.16,0,0,1,.7-1.06,3.22,3.22,0,0,1,1-.68,3.51,3.51,0,0,1,1.31-.24,3,3,0,0,1,2.6,1.18,6,6,0,0,1,.88,3.59,10.27,10.27,0,0,1-.3,2.7,4.77,4.77,0,0,1-.79,1.71,2.73,2.73,0,0,1-1.16.89,3.87,3.87,0,0,1-1.4.26,3.31,3.31,0,0,1-2-.58,2.59,2.59,0,0,1-1-1.55h1.5a1.37,1.37,0,0,0,.53.75,1.77,1.77,0,0,0,1,.27,1.9,1.9,0,0,0,.83-.18,1.73,1.73,0,0,0,.68-.62,3.71,3.71,0,0,0,.48-1.18,9.37,9.37,0,0,0,.24-1.82,3,3,0,0,1-.51.6,2.74,2.74,0,0,1-.59.39,3.15,3.15,0,0,1-.63.22A3.34,3.34,0,0,1,712.88,287.89Zm2.23-3.28a2.32,2.32,0,0,0-.58-1.69,2,2,0,0,0-2.8,0,2.09,2.09,0,0,0-.41.68,2.63,2.63,0,0,0-.15.91,2.93,2.93,0,0,0,.15,1,2.3,2.3,0,0,0,.41.72,1.77,1.77,0,0,0,.62.43,2.21,2.21,0,0,0,.78.14,2,2,0,0,0,.87-.18,1.92,1.92,0,0,0,.62-.47,2.09,2.09,0,0,0,.37-.69A2.74,2.74,0,0,0,715.11,284.61Z" /><path class="c" d="M757.83,291.31v-8.48L755.61,284v-1.4l2.23-1.16h1.33v9.9Z" /><path class="c" d="M766.46,291.53a3.16,3.16,0,0,1-1.4-.32,3,3,0,0,1-1.13-.95,5.06,5.06,0,0,1-.74-1.62,8.72,8.72,0,0,1-.27-2.31,8.85,8.85,0,0,1,.27-2.34,4.7,4.7,0,0,1,.75-1.59,3,3,0,0,1,1.13-.91,3.48,3.48,0,0,1,2.78,0,3,3,0,0,1,1.13.91,4.7,4.7,0,0,1,.75,1.59,8.85,8.85,0,0,1,.27,2.34,8.72,8.72,0,0,1-.27,2.31,4.86,4.86,0,0,1-.75,1.62,2.89,2.89,0,0,1-1.12.95A3.16,3.16,0,0,1,766.46,291.53Zm0-1.14a1.71,1.71,0,0,0,1.62-1,6.83,6.83,0,0,0,.53-3.08,6.64,6.64,0,0,0-.53-3,1.85,1.85,0,0,0-3.24,0,6.64,6.64,0,0,0-.53,3,6.83,6.83,0,0,0,.53,3.08A1.71,1.71,0,0,0,766.46,290.39Z" /><path class="c" d="M808,291.31v-8.48L805.81,284v-1.4l2.24-1.16h1.33v9.9Z" /><path class="c" d="M816.52,291.31v-8.48L814.3,284v-1.4l2.23-1.16h1.33v9.9Z" /><path class="c" d="M858.67,291.31v-8.48L856.45,284v-1.4l2.24-1.16H860v9.9Z" /><path class="c" d="M863.91,284a3,3,0,0,1,.36-1.1,3.14,3.14,0,0,1,.73-.9,3.36,3.36,0,0,1,1-.59,4.05,4.05,0,0,1,1.34-.21,3.78,3.78,0,0,1,1.28.2,3,3,0,0,1,1,.56,2.7,2.7,0,0,1,.68.88,2.78,2.78,0,0,1,.24,1.17,3.45,3.45,0,0,1-.12.94,3.55,3.55,0,0,1-.39.88,7.6,7.6,0,0,1-.73.95c-.3.33-.68.71-1.12,1.14L866,290.07h4.58v1.24h-6.42v-1.24l3.22-3.1c.34-.32.63-.61.86-.87a6.4,6.4,0,0,0,.57-.73,2.55,2.55,0,0,0,.33-.66,2.48,2.48,0,0,0,.1-.68,1.64,1.64,0,0,0-.49-1.23,2,2,0,0,0-1.38-.46,2.14,2.14,0,0,0-1.39.44,1.7,1.7,0,0,0-.63,1.22Z" /><path class="c" d="M902.84,291.31v-8.48L900.62,284v-1.4l2.23-1.16h1.33v9.9Z" /><path class="c" d="M915,288.61a2.67,2.67,0,0,1-.25,1.17,2.72,2.72,0,0,1-.7.92,3.29,3.29,0,0,1-1.11.6,4.75,4.75,0,0,1-1.45.21,3.84,3.84,0,0,1-2.47-.73,2.88,2.88,0,0,1-1.09-1.93h1.44A1.89,1.89,0,0,0,910,290a2.28,2.28,0,0,0,1.42.39,2.34,2.34,0,0,0,1.58-.5,1.63,1.63,0,0,0,.57-1.3,1.88,1.88,0,0,0-.18-.86,1.67,1.67,0,0,0-.46-.58,1.9,1.9,0,0,0-.63-.33,2.72,2.72,0,0,0-.69-.09h-.82v-1.18h.79a1.73,1.73,0,0,0,.58-.1,1.62,1.62,0,0,0,.53-.29,1.58,1.58,0,0,0,.39-.52,1.72,1.72,0,0,0,.15-.74,1.42,1.42,0,0,0-.17-.7,1.5,1.5,0,0,0-.42-.48,1.81,1.81,0,0,0-.61-.29,2.74,2.74,0,0,0-.7-.09,2.22,2.22,0,0,0-1.36.39,1.54,1.54,0,0,0-.63,1H908a2.5,2.5,0,0,1,.38-1.05,3,3,0,0,1,.75-.8,3.44,3.44,0,0,1,1-.52,4.56,4.56,0,0,1,1.31-.18,4.7,4.7,0,0,1,1.2.15,3.37,3.37,0,0,1,1,.48,2.3,2.3,0,0,1,1,2,2.15,2.15,0,0,1-.5,1.41,2.57,2.57,0,0,1-1.28.85,3,3,0,0,1,.81.29,2.81,2.81,0,0,1,.67.52,2.53,2.53,0,0,1,.46.76A2.57,2.57,0,0,1,915,288.61Z" /><path class="c" d="M951.6,291.31v-8.48L949.38,284v-1.4l2.23-1.16h1.33v9.9Z" /><path class="c" d="M962.27,281.41v6.88h1.59v1.16h-1.59v1.86H961v-1.86h-4.34v-1.26l4.24-6.78ZM961,288.29V283.6l-2.83,4.69Z" /><path class="c" d="M1001.14,291.31v-8.48L998.92,284v-1.4l2.23-1.16h1.33v9.9Z" /><path class="c" d="M1007.69,288.91a1.88,1.88,0,0,0,.67,1,2.47,2.47,0,0,0,2.27.27,1.8,1.8,0,0,0,.69-.45,2.15,2.15,0,0,0,.45-.73,2.86,2.86,0,0,0,.16-1,2.24,2.24,0,0,0-.58-1.68,2.09,2.09,0,0,0-1.54-.57,2.84,2.84,0,0,0-1,.21,2.46,2.46,0,0,0-.94.69h-1.2l.21-5.29h6.08v1.15h-4.85l-.11,2.9a3.58,3.58,0,0,1,.94-.53,3.85,3.85,0,0,1,2.45,0,2.82,2.82,0,0,1,1,.63,3,3,0,0,1,.7,1.06,4,4,0,0,1,0,2.78,3.26,3.26,0,0,1-.69,1.09,3.18,3.18,0,0,1-1.12.74,4,4,0,0,1-1.51.28,4.25,4.25,0,0,1-1.38-.22,3.73,3.73,0,0,1-1.06-.59,3,3,0,0,1-.72-.84,2.54,2.54,0,0,1-.36-1Z" /><path class="c" d="M1050.68,291.31v-8.48l-2.22,1.14v-1.4l2.24-1.16H1052v9.9Z" /><path class="c" d="M1059.76,284.83a3.35,3.35,0,0,1,1.3.25,3,3,0,0,1,1,.69,3.19,3.19,0,0,1,.61,1.05,4.14,4.14,0,0,1,.21,1.34,3.58,3.58,0,0,1-.29,1.48,3.24,3.24,0,0,1-.76,1.06,3.05,3.05,0,0,1-1.06.62,3.61,3.61,0,0,1-1.2.21,3,3,0,0,1-2.61-1.22,6.08,6.08,0,0,1-.87-3.55,10.52,10.52,0,0,1,.3-2.75,4.75,4.75,0,0,1,.81-1.69,2.72,2.72,0,0,1,1.16-.87,3.65,3.65,0,0,1,1.33-.25,3.24,3.24,0,0,1,1.94.56,2.52,2.52,0,0,1,1.05,1.53h-1.5a1.24,1.24,0,0,0-.51-.72,1.66,1.66,0,0,0-1-.27,1.78,1.78,0,0,0-.81.19,1.66,1.66,0,0,0-.67.63,4.09,4.09,0,0,0-.51,1.18,9.22,9.22,0,0,0-.26,1.82,3,3,0,0,1,.51-.6,3.07,3.07,0,0,1,.59-.4,3.72,3.72,0,0,1,.64-.22A3.57,3.57,0,0,1,1059.76,284.83Zm-2.22,3.29a2.3,2.3,0,0,0,.58,1.69,1.89,1.89,0,0,0,1.42.58,1.92,1.92,0,0,0,.75-.14,1.71,1.71,0,0,0,.62-.42,1.91,1.91,0,0,0,.42-.67,2.67,2.67,0,0,0,.15-.93,2.43,2.43,0,0,0-.53-1.66,1.82,1.82,0,0,0-1.43-.6,2,2,0,0,0-.87.17,1.85,1.85,0,0,0-.62.48,1.94,1.94,0,0,0-.37.68A2.76,2.76,0,0,0,1057.54,288.12Z" /><path class="c" d="M1150.13,291.31v-8.48l-2.22,1.14v-1.4l2.23-1.16h1.33v9.9Z" /><path class="c" d="M1157.82,291.31h-1.54l4.15-8.68h-4.86v-1.22h6.3v1.22Z" /><path class="c" d="M1199.67,291.31v-8.48l-2.22,1.14v-1.4l2.23-1.16H1201v9.9Z" /><path class="c" d="M1211.54,283.75a2.11,2.11,0,0,1-.14.77,2.41,2.41,0,0,1-.38.64,2.73,2.73,0,0,1-.52.5,4.21,4.21,0,0,1-.59.38,4.91,4.91,0,0,1,.71.38,3.28,3.28,0,0,1,.64.54,3.08,3.08,0,0,1,.46.74,2.35,2.35,0,0,1,.19.94,2.58,2.58,0,0,1-.27,1.17,2.65,2.65,0,0,1-.73.91,3.62,3.62,0,0,1-1.14.59,4.54,4.54,0,0,1-1.47.22,4.83,4.83,0,0,1-1.47-.21,3.4,3.4,0,0,1-1.14-.58,2.7,2.7,0,0,1-.74-.88,2.49,2.49,0,0,1-.26-1.12,2.59,2.59,0,0,1,.18-1,2.56,2.56,0,0,1,.46-.75,2.81,2.81,0,0,1,.62-.53,4.31,4.31,0,0,1,.68-.34,3.27,3.27,0,0,1-.57-.32,2.83,2.83,0,0,1-.5-.48,2.47,2.47,0,0,1-.36-.64,2.42,2.42,0,0,1-.14-.84,2.48,2.48,0,0,1,.27-1.18,2.59,2.59,0,0,1,.71-.83,3.32,3.32,0,0,1,1-.48,4.85,4.85,0,0,1,1.22-.15,4.91,4.91,0,0,1,1.22.15,3.38,3.38,0,0,1,1,.45,2.32,2.32,0,0,1,.71.78A2.38,2.38,0,0,1,1211.54,283.75Zm-1.08,4.89a1.8,1.8,0,0,0-.22-1,1.82,1.82,0,0,0-.59-.58,3,3,0,0,0-.8-.35c-.29-.08-.57-.15-.85-.2a3.25,3.25,0,0,0-.63.24,2.76,2.76,0,0,0-.61.42,2.15,2.15,0,0,0-.45.61,1.77,1.77,0,0,0-.18.82,1.81,1.81,0,0,0,.14.69,1.53,1.53,0,0,0,.4.55,1.88,1.88,0,0,0,.67.39,3,3,0,0,0,1,.14,2.35,2.35,0,0,0,1.63-.5A1.67,1.67,0,0,0,1210.46,288.64Zm-4.07-4.87a1.59,1.59,0,0,0,.23.92,1.64,1.64,0,0,0,.55.56,2.18,2.18,0,0,0,.7.3c.26.06.49.1.71.13a2.53,2.53,0,0,0,.55-.27,2.49,2.49,0,0,0,.52-.4,1.75,1.75,0,0,0,.38-.54,1.54,1.54,0,0,0,.15-.7,1.33,1.33,0,0,0-.15-.63,1.5,1.5,0,0,0-.4-.47,1.88,1.88,0,0,0-.6-.3,2.23,2.23,0,0,0-.73-.11,2.86,2.86,0,0,0-.73.09,2,2,0,0,0-.61.28,1.62,1.62,0,0,0-.42.48A1.4,1.4,0,0,0,1206.39,283.77Z" /><path class="c" d="M1247.67,291.31v-8.48l-2.22,1.14v-1.4l2.23-1.16H1249v9.9Z" /><path class="c" d="M1256.13,287.89a3.39,3.39,0,0,1-1.25-.23,2.81,2.81,0,0,1-1-.65,2.94,2.94,0,0,1-.64-1.05,4.05,4.05,0,0,1-.23-1.39,3.62,3.62,0,0,1,.26-1.39,3,3,0,0,1,.7-1.06,3.22,3.22,0,0,1,1-.68,3.47,3.47,0,0,1,1.31-.24,3,3,0,0,1,2.6,1.18,6,6,0,0,1,.88,3.59,10.27,10.27,0,0,1-.3,2.7,5,5,0,0,1-.79,1.71,2.73,2.73,0,0,1-1.16.89,3.91,3.91,0,0,1-1.4.26,3.32,3.32,0,0,1-2-.58,2.62,2.62,0,0,1-1-1.55h1.5a1.32,1.32,0,0,0,.53.75,1.76,1.76,0,0,0,1,.27,2,2,0,0,0,.84-.18,1.79,1.79,0,0,0,.68-.62,4.24,4.24,0,0,0,.48-1.18,10.21,10.21,0,0,0,.24-1.82,3,3,0,0,1-.51.6,2.8,2.8,0,0,1-.6.39,2.77,2.77,0,0,1-.63.22A3.23,3.23,0,0,1,1256.13,287.89Zm2.22-3.28a2.32,2.32,0,0,0-.57-1.69,1.92,1.92,0,0,0-1.42-.59,2,2,0,0,0-.77.15,1.85,1.85,0,0,0-.61.42,1.93,1.93,0,0,0-.41.68,2.63,2.63,0,0,0-.15.91,2.93,2.93,0,0,0,.15,1,2.12,2.12,0,0,0,.41.72,1.69,1.69,0,0,0,.62.43,2.19,2.19,0,0,0,.77.14,2,2,0,0,0,.87-.18,1.73,1.73,0,0,0,.62-.47,1.92,1.92,0,0,0,.37-.69A2.74,2.74,0,0,0,1258.35,284.61Z" /><path class="c" d="M1294,284a3.19,3.19,0,0,1,1.09-2,3.36,3.36,0,0,1,1.05-.59,4.05,4.05,0,0,1,1.34-.21,3.78,3.78,0,0,1,1.28.2,3,3,0,0,1,1,.56,2.7,2.7,0,0,1,.68.88,2.78,2.78,0,0,1,.24,1.17,3.45,3.45,0,0,1-.12.94,3.55,3.55,0,0,1-.39.88,7.6,7.6,0,0,1-.73.95c-.3.33-.68.71-1.12,1.14l-2.26,2.15h4.58v1.24h-6.42v-1.24l3.22-3.1c.34-.32.63-.61.86-.87a6.4,6.4,0,0,0,.57-.73,2.55,2.55,0,0,0,.33-.66,2.48,2.48,0,0,0,.1-.68,1.64,1.64,0,0,0-.49-1.23,2,2,0,0,0-1.38-.46,2.14,2.14,0,0,0-1.39.44,1.7,1.7,0,0,0-.63,1.22Z" /><path class="c" d="M1305.9,291.53a3.16,3.16,0,0,1-1.4-.32,2.89,2.89,0,0,1-1.12-.95,4.86,4.86,0,0,1-.75-1.62,8.72,8.72,0,0,1-.27-2.31,8.85,8.85,0,0,1,.27-2.34,4.7,4.7,0,0,1,.75-1.59,3,3,0,0,1,1.13-.91,3.48,3.48,0,0,1,2.78,0,3,3,0,0,1,1.13.91,4.7,4.7,0,0,1,.75,1.59,8.85,8.85,0,0,1,.27,2.34,8.72,8.72,0,0,1-.27,2.31,5.06,5.06,0,0,1-.74,1.62,3,3,0,0,1-1.13.95A3.16,3.16,0,0,1,1305.9,291.53Zm0-1.14a1.71,1.71,0,0,0,1.62-1,6.83,6.83,0,0,0,.53-3.08,6.64,6.64,0,0,0-.53-3,1.85,1.85,0,0,0-3.24,0,6.64,6.64,0,0,0-.53,3,6.83,6.83,0,0,0,.53,3.08A1.71,1.71,0,0,0,1305.9,290.39Z" /><path class="c" d="M1344.89,284a3,3,0,0,1,.36-1.1,3.11,3.11,0,0,1,.72-.9,3.53,3.53,0,0,1,1.06-.59,4.05,4.05,0,0,1,1.34-.21,3.82,3.82,0,0,1,1.28.2,2.84,2.84,0,0,1,1,.56,2.46,2.46,0,0,1,.68.88,2.64,2.64,0,0,1,.25,1.17,3.45,3.45,0,0,1-.12.94,3.26,3.26,0,0,1-.4.88,6.61,6.61,0,0,1-.72.95c-.31.33-.68.71-1.12,1.14l-2.26,2.15h4.58v1.24h-6.42v-1.24l3.22-3.1c.34-.32.63-.61.86-.87a6.4,6.4,0,0,0,.57-.73,2.55,2.55,0,0,0,.33-.66,2.48,2.48,0,0,0,.09-.68,1.63,1.63,0,0,0-.48-1.23,2,2,0,0,0-1.38-.46,2.19,2.19,0,0,0-1.4.44,1.78,1.78,0,0,0-.63,1.22Z" /><path class="c" d="M1356.63,291.31v-8.48l-2.22,1.14v-1.4l2.23-1.16H1358v9.9Z" /><path class="c" d="M1392.61,284a3.39,3.39,0,0,1,.36-1.1,3.32,3.32,0,0,1,.73-.9,3.36,3.36,0,0,1,1-.59,4.05,4.05,0,0,1,1.34-.21,3.78,3.78,0,0,1,1.28.2,3,3,0,0,1,1,.56,2.57,2.57,0,0,1,.68.88,2.79,2.79,0,0,1,.25,1.17,3.45,3.45,0,0,1-.12.94,3.6,3.6,0,0,1-.4.88,6.74,6.74,0,0,1-.73.95c-.3.33-.67.71-1.12,1.14l-2.26,2.15h4.58v1.24h-6.42v-1.24l3.23-3.1c.34-.32.62-.61.85-.87a8,8,0,0,0,.58-.73,2.5,2.5,0,0,0,.32-.66,2.15,2.15,0,0,0,.1-.68,1.6,1.6,0,0,0-.49-1.23,2,2,0,0,0-1.38-.46,2.16,2.16,0,0,0-1.39.44A1.78,1.78,0,0,0,1394,284Z" /><path class="c" d="M1401.1,284a3.39,3.39,0,0,1,.36-1.1,3.14,3.14,0,0,1,.73-.9,3.36,3.36,0,0,1,1-.59,4.05,4.05,0,0,1,1.34-.21,3.78,3.78,0,0,1,1.28.2,3,3,0,0,1,1,.56,2.57,2.57,0,0,1,.68.88,2.78,2.78,0,0,1,.24,1.17,3.45,3.45,0,0,1-.12.94,3.55,3.55,0,0,1-.39.88,7.6,7.6,0,0,1-.73.95c-.3.33-.67.71-1.12,1.14l-2.26,2.15h4.58v1.24h-6.42v-1.24l3.22-3.1c.34-.32.63-.61.86-.87a6.4,6.4,0,0,0,.57-.73,2.55,2.55,0,0,0,.33-.66,2.15,2.15,0,0,0,.1-.68,1.6,1.6,0,0,0-.49-1.23,2,2,0,0,0-1.38-.46,2.14,2.14,0,0,0-1.39.44,1.7,1.7,0,0,0-.63,1.22Z" /><path class="c" d="M1442.81,284a3.39,3.39,0,0,1,.36-1.1,3.13,3.13,0,0,1,1.79-1.49,4,4,0,0,1,1.33-.21,3.78,3.78,0,0,1,1.28.2,3,3,0,0,1,1,.56,2.46,2.46,0,0,1,.68.88,2.64,2.64,0,0,1,.25,1.17,3.45,3.45,0,0,1-.12.94,3.26,3.26,0,0,1-.4.88,6.74,6.74,0,0,1-.73.95q-.45.5-1.11,1.14l-2.27,2.15h4.59v1.24h-6.43v-1.24l3.23-3.1c.34-.32.62-.61.85-.87a5.58,5.58,0,0,0,.58-.73,2.23,2.23,0,0,0,.32-.66,2.15,2.15,0,0,0,.1-.68,1.6,1.6,0,0,0-.49-1.23,2,2,0,0,0-1.38-.46,2.16,2.16,0,0,0-1.39.44,1.78,1.78,0,0,0-.63,1.22Z" /><path class="c" d="M1458.22,288.61a2.67,2.67,0,0,1-.25,1.17,2.62,2.62,0,0,1-.71.92,3.11,3.11,0,0,1-1.11.6,4.64,4.64,0,0,1-1.44.21,3.87,3.87,0,0,1-2.48-.73,2.91,2.91,0,0,1-1.08-1.93h1.44a1.89,1.89,0,0,0,.68,1.14,2.27,2.27,0,0,0,1.41.39,2.35,2.35,0,0,0,1.59-.5,1.66,1.66,0,0,0,.56-1.3,2,2,0,0,0-.17-.86,1.79,1.79,0,0,0-.46-.58,1.9,1.9,0,0,0-.63-.33,2.78,2.78,0,0,0-.69-.09h-.82v-1.18h.79a1.63,1.63,0,0,0,.57-.1,1.66,1.66,0,0,0,.54-.29,1.43,1.43,0,0,0,.38-.52,1.72,1.72,0,0,0,.15-.74,1.42,1.42,0,0,0-.16-.7,1.5,1.5,0,0,0-.42-.48,1.81,1.81,0,0,0-.61-.29,2.8,2.8,0,0,0-.7-.09,2.22,2.22,0,0,0-1.36.39,1.6,1.6,0,0,0-.64,1h-1.43a2.66,2.66,0,0,1,.39-1.05,2.72,2.72,0,0,1,.75-.8,3.44,3.44,0,0,1,1-.52,4.56,4.56,0,0,1,1.31-.18,4.81,4.81,0,0,1,1.2.15,3.37,3.37,0,0,1,1,.48,2.48,2.48,0,0,1,.71.8,2.37,2.37,0,0,1,.27,1.16,2.15,2.15,0,0,1-.5,1.41,2.61,2.61,0,0,1-1.28.85,2.84,2.84,0,0,1,.8.29,2.46,2.46,0,0,1,.67.52,2.55,2.55,0,0,1,.65,1.75Z" /><path class="c" d="M1493.45,284a3.39,3.39,0,0,1,.36-1.1,3.32,3.32,0,0,1,.73-.9,3.53,3.53,0,0,1,1.06-.59,4,4,0,0,1,1.33-.21,3.74,3.74,0,0,1,1.28.2,2.8,2.8,0,0,1,1,.56,2.46,2.46,0,0,1,.68.88,2.64,2.64,0,0,1,.25,1.17,3.45,3.45,0,0,1-.12.94,3.26,3.26,0,0,1-.4.88,6.61,6.61,0,0,1-.72.95c-.31.33-.68.71-1.12,1.14l-2.27,2.15h4.59v1.24h-6.43v-1.24l3.23-3.1c.34-.32.62-.61.86-.87a6.4,6.4,0,0,0,.57-.73,2.23,2.23,0,0,0,.32-.66,2.15,2.15,0,0,0,.1-.68,1.63,1.63,0,0,0-.48-1.23,2,2,0,0,0-1.38-.46,2.19,2.19,0,0,0-1.4.44,1.78,1.78,0,0,0-.63,1.22Z" /><path class="c" d="M1507.38,281.41v6.88H1509v1.16h-1.59v1.86h-1.32v-1.86h-4.34v-1.26l4.24-6.78Zm-1.32,6.88V283.6l-2.83,4.69Z" /><path class="c" d="M1586.26,284.12a3.47,3.47,0,0,1,.36-1.1,3.13,3.13,0,0,1,.73-.89,3.2,3.2,0,0,1,1.05-.6,4.09,4.09,0,0,1,1.34-.21,4,4,0,0,1,1.28.2,3.15,3.15,0,0,1,1,.56,2.57,2.57,0,0,1,.68.88,2.8,2.8,0,0,1,.25,1.18,3.15,3.15,0,0,1-.52,1.81,6.22,6.22,0,0,1-.73.95c-.3.34-.67.72-1.12,1.14l-2.26,2.15h4.58v1.24h-6.42v-1.24l3.23-3.1c.34-.32.62-.61.85-.87a6.57,6.57,0,0,0,.58-.73,2.3,2.3,0,0,0,.32-.65,2.26,2.26,0,0,0,.1-.69,1.57,1.57,0,0,0-.49-1.22,1.9,1.9,0,0,0-1.38-.46,2.16,2.16,0,0,0-1.39.43,1.78,1.78,0,0,0-.63,1.22Z" /><path class="c" d="M1596.07,289a1.83,1.83,0,0,0,.66,1,2.18,2.18,0,0,0,1.43.43,2.41,2.41,0,0,0,.85-.15,2,2,0,0,0,.68-.46,2,2,0,0,0,.46-.73,2.86,2.86,0,0,0,.16-1,2.24,2.24,0,0,0-.58-1.68,2.11,2.11,0,0,0-1.54-.57,2.8,2.8,0,0,0-1,.21,2.32,2.32,0,0,0-.94.69H1595l.22-5.29h6.08v1.15h-4.85l-.12,2.9a3.75,3.75,0,0,1,.94-.53,3.88,3.88,0,0,1,2.46,0,2.72,2.72,0,0,1,1,.64,3.17,3.17,0,0,1,.7,1.05,3.88,3.88,0,0,1,.26,1.46,3.64,3.64,0,0,1-.24,1.32,3.26,3.26,0,0,1-.69,1.09,3.37,3.37,0,0,1-1.12.74,3.82,3.82,0,0,1-1.52.28,4.23,4.23,0,0,1-1.37-.22,3.56,3.56,0,0,1-1.07-.59,3.34,3.34,0,0,1-.72-.83,3.06,3.06,0,0,1-.36-1Z" /><path class="c" d="M1635,284.12a3.47,3.47,0,0,1,.36-1.1,3.13,3.13,0,0,1,.73-.89,3.2,3.2,0,0,1,1.05-.6,4.09,4.09,0,0,1,1.34-.21,4,4,0,0,1,1.28.2,3.15,3.15,0,0,1,1,.56,2.57,2.57,0,0,1,.68.88,2.8,2.8,0,0,1,.25,1.18,3.15,3.15,0,0,1-.52,1.81,6.22,6.22,0,0,1-.73.95c-.3.34-.67.72-1.12,1.14l-2.26,2.15h4.58v1.24h-6.42v-1.24l3.23-3.1c.34-.32.62-.61.85-.87a8,8,0,0,0,.58-.73,2.6,2.6,0,0,0,.32-.65,2.26,2.26,0,0,0,.1-.69,1.57,1.57,0,0,0-.49-1.22,1.9,1.9,0,0,0-1.38-.46,2.16,2.16,0,0,0-1.39.43,1.78,1.78,0,0,0-.63,1.22Z" /><path class="c" d="M1647.36,285a3.3,3.3,0,0,1,1.29.24,2.85,2.85,0,0,1,1,.69,3,3,0,0,1,.61,1.05,4.14,4.14,0,0,1,.21,1.34,3.63,3.63,0,0,1-.29,1.49,3,3,0,0,1-.76,1.05,2.91,2.91,0,0,1-1.06.62,3.53,3.53,0,0,1-1.2.21,3,3,0,0,1-2.6-1.22,6,6,0,0,1-.88-3.55,10.39,10.39,0,0,1,.3-2.74,4.73,4.73,0,0,1,.82-1.7,2.66,2.66,0,0,1,1.16-.87,3.61,3.61,0,0,1,1.33-.25,3.36,3.36,0,0,1,1.94.56,2.55,2.55,0,0,1,1,1.53h-1.5a1.24,1.24,0,0,0-.51-.72,1.66,1.66,0,0,0-1-.27,1.71,1.71,0,0,0-.8.19,1.68,1.68,0,0,0-.68.63,3.84,3.84,0,0,0-.5,1.18,7.93,7.93,0,0,0-.26,1.82,3.32,3.32,0,0,1,.5-.6,2.46,2.46,0,0,1,.6-.39,2.63,2.63,0,0,1,.63-.22A2.83,2.83,0,0,1,1647.36,285Zm-2.22,3.28a2.34,2.34,0,0,0,.57,1.69,2,2,0,0,0,2.17.44,1.72,1.72,0,0,0,.62-.41,2,2,0,0,0,.42-.68,2.67,2.67,0,0,0,.15-.93,2.43,2.43,0,0,0-.53-1.66,1.81,1.81,0,0,0-1.42-.6,2.14,2.14,0,0,0-.87.17,1.89,1.89,0,0,0-.63.48,2,2,0,0,0-.36.68A2.76,2.76,0,0,0,1645.14,288.24Z" /><path class="c" d="M1684.56,284.12a3.47,3.47,0,0,1,.36-1.1,3.13,3.13,0,0,1,.73-.89,3.2,3.2,0,0,1,1-.6,4.09,4.09,0,0,1,1.34-.21,4,4,0,0,1,1.28.2,3.15,3.15,0,0,1,1,.56,2.46,2.46,0,0,1,.68.88,2.65,2.65,0,0,1,.25,1.18,3.51,3.51,0,0,1-.12.94,3.2,3.2,0,0,1-.4.87,6.22,6.22,0,0,1-.73.95q-.45.51-1.11,1.14l-2.27,2.15h4.59v1.24h-6.43v-1.24l3.23-3.1c.34-.32.62-.61.85-.87a5.58,5.58,0,0,0,.58-.73,2.3,2.3,0,0,0,.32-.65,2.26,2.26,0,0,0,.1-.69,1.57,1.57,0,0,0-.49-1.22,1.9,1.9,0,0,0-1.38-.46,2.16,2.16,0,0,0-1.39.43,1.78,1.78,0,0,0-.63,1.22Z" /><path class="c" d="M1695.51,291.43H1694l4.15-8.68h-4.86v-1.22h6.3v1.22Z" /><path class="c" d="M1734.1,284.12a3.47,3.47,0,0,1,.36-1.1,3.13,3.13,0,0,1,.73-.89,3.25,3.25,0,0,1,1.06-.6,4.26,4.26,0,0,1,2.61,0,3.15,3.15,0,0,1,1,.56,2.46,2.46,0,0,1,.68.88,2.65,2.65,0,0,1,.25,1.18,3.51,3.51,0,0,1-.12.94,3.2,3.2,0,0,1-.4.87,5.63,5.63,0,0,1-.73.95q-.45.51-1.11,1.14l-2.27,2.15h4.59v1.24h-6.43v-1.24l3.23-3.1c.34-.32.62-.61.86-.87a6.4,6.4,0,0,0,.57-.73,2.3,2.3,0,0,0,.32-.65,2.26,2.26,0,0,0,.1-.69,1.57,1.57,0,0,0-.49-1.22,1.89,1.89,0,0,0-1.37-.46,2.17,2.17,0,0,0-1.4.43,1.78,1.78,0,0,0-.63,1.22Z" /><path class="c" d="M1749.23,283.87a1.92,1.92,0,0,1-.15.77,2.14,2.14,0,0,1-.37.64,3.06,3.06,0,0,1-.52.5,4.89,4.89,0,0,1-.59.38,4.91,4.91,0,0,1,.71.38,3.22,3.22,0,0,1,.63.54,2.82,2.82,0,0,1,.47.74,2.35,2.35,0,0,1,.18.94,2.54,2.54,0,0,1-.26,1.17,2.67,2.67,0,0,1-.73.91,3.42,3.42,0,0,1-1.14.59,4.62,4.62,0,0,1-1.47.22,4.83,4.83,0,0,1-1.47-.21,3.23,3.23,0,0,1-1.14-.58,2.7,2.7,0,0,1-.74-.88,2.46,2.46,0,0,1-.26-1.12,2.65,2.65,0,0,1,1.26-2.28,4.31,4.31,0,0,1,.68-.34,3.27,3.27,0,0,1-.57-.32,2.27,2.27,0,0,1-.5-.48,2.09,2.09,0,0,1-.36-.64,2.16,2.16,0,0,1-.14-.83,2.49,2.49,0,0,1,.27-1.19,2.35,2.35,0,0,1,.71-.82,3,3,0,0,1,1-.48,4.51,4.51,0,0,1,1.23-.16,4.91,4.91,0,0,1,1.22.15,3.22,3.22,0,0,1,1,.45,2.28,2.28,0,0,1,.72.79A2.31,2.31,0,0,1,1749.23,283.87Zm-1.08,4.89a1.67,1.67,0,0,0-.23-.95,1.82,1.82,0,0,0-.58-.59,3,3,0,0,0-.8-.35c-.29-.08-.58-.15-.85-.2a3.6,3.6,0,0,0-.64.24,3,3,0,0,0-.6.42,2.15,2.15,0,0,0-.45.61,1.8,1.8,0,0,0-.18.82,1.77,1.77,0,0,0,.14.69,1.67,1.67,0,0,0,.39.56,2,2,0,0,0,.68.38,3,3,0,0,0,1,.14,2.31,2.31,0,0,0,1.62-.5A1.64,1.64,0,0,0,1748.15,288.76Zm-4.07-4.87a1.6,1.6,0,0,0,.78,1.48,2.18,2.18,0,0,0,.7.3,5.4,5.4,0,0,0,.71.13,3,3,0,0,0,.55-.26,2.93,2.93,0,0,0,.52-.41,2,2,0,0,0,.38-.53,1.61,1.61,0,0,0,.15-.71,1.26,1.26,0,0,0-.15-.62,1.43,1.43,0,0,0-.4-.48,1.88,1.88,0,0,0-.6-.3,2.58,2.58,0,0,0-.73-.11,2.86,2.86,0,0,0-.73.09,1.72,1.72,0,0,0-.61.29,1.47,1.47,0,0,0-.42.47A1.4,1.4,0,0,0,1744.08,283.89Z" /><path class="c" d="M1783.64,284.12a3.47,3.47,0,0,1,.36-1.1,3.13,3.13,0,0,1,.73-.89,3.35,3.35,0,0,1,1.06-.6,4,4,0,0,1,1.33-.21,4.1,4.1,0,0,1,1.29.2,3,3,0,0,1,1,.56,2.46,2.46,0,0,1,.68.88,2.65,2.65,0,0,1,.25,1.18,3.51,3.51,0,0,1-.12.94,3.2,3.2,0,0,1-.4.87,6.1,6.1,0,0,1-.72.95c-.31.34-.68.72-1.12,1.14l-2.27,2.15h4.59v1.24h-6.43v-1.24l3.23-3.1c.34-.32.63-.61.86-.87a6.4,6.4,0,0,0,.57-.73,2.66,2.66,0,0,0,.33-.65,2.61,2.61,0,0,0,.09-.69,1.6,1.6,0,0,0-.48-1.22,1.93,1.93,0,0,0-1.38-.46,2.19,2.19,0,0,0-1.4.43,1.78,1.78,0,0,0-.63,1.22Z" /><path class="c" d="M1795.36,288a3.2,3.2,0,0,1-1.25-.23,2.81,2.81,0,0,1-1-.65,2.94,2.94,0,0,1-.64-1.05,4,4,0,0,1-.23-1.39,3.66,3.66,0,0,1,.26-1.39,3.08,3.08,0,0,1,1.75-1.74,3.46,3.46,0,0,1,1.3-.24,3,3,0,0,1,2.61,1.18,6,6,0,0,1,.87,3.59,10.31,10.31,0,0,1-.29,2.7,4.86,4.86,0,0,1-.79,1.71,2.66,2.66,0,0,1-1.16.89,3.92,3.92,0,0,1-1.41.26,3.24,3.24,0,0,1-2-.58,2.55,2.55,0,0,1-1-1.55h1.49a1.32,1.32,0,0,0,.54.75,1.74,1.74,0,0,0,1,.27,2,2,0,0,0,.84-.18,1.79,1.79,0,0,0,.68-.62,4.24,4.24,0,0,0,.48-1.18,10.21,10.21,0,0,0,.24-1.82,3,3,0,0,1-.51.6,2.85,2.85,0,0,1-.6.4,2.74,2.74,0,0,1-.63.21A3.23,3.23,0,0,1,1795.36,288Zm2.22-3.28A2.32,2.32,0,0,0,1797,283a2,2,0,0,0-2.19-.44,1.89,1.89,0,0,0-.62.42,2.09,2.09,0,0,0-.41.68,2.91,2.91,0,0,0-.14.92,3.2,3.2,0,0,0,.14,1,2.19,2.19,0,0,0,.41.72,1.81,1.81,0,0,0,.63.43,2.19,2.19,0,0,0,.77.14,2,2,0,0,0,.87-.18,1.62,1.62,0,0,0,.62-.47,1.92,1.92,0,0,0,.37-.69A2.74,2.74,0,0,0,1797.58,284.73Z" /><path class="c" d="M1840.1,288.73a2.78,2.78,0,0,1-.24,1.17,2.88,2.88,0,0,1-.71.92,3.29,3.29,0,0,1-1.11.6,4.75,4.75,0,0,1-1.45.21,3.84,3.84,0,0,1-2.47-.73A2.9,2.9,0,0,1,1833,289h1.44a1.94,1.94,0,0,0,.68,1.14,2.28,2.28,0,0,0,1.42.39,2.32,2.32,0,0,0,1.58-.49,1.65,1.65,0,0,0,.57-1.31,1.88,1.88,0,0,0-.18-.86,1.77,1.77,0,0,0-.46-.58,1.71,1.71,0,0,0-.63-.32,2.35,2.35,0,0,0-.69-.1h-.82v-1.18h.8a1.67,1.67,0,0,0,.57-.1,1.62,1.62,0,0,0,.53-.29,1.48,1.48,0,0,0,.39-.52,1.72,1.72,0,0,0,.15-.74,1.42,1.42,0,0,0-.17-.7,1.39,1.39,0,0,0-.42-.48,1.72,1.72,0,0,0-.61-.29,2.74,2.74,0,0,0-.7-.09,2.22,2.22,0,0,0-1.36.39,1.54,1.54,0,0,0-.63,1h-1.43a2.65,2.65,0,0,1,.38-1.05,3,3,0,0,1,.75-.8,3.68,3.68,0,0,1,1-.52,4.56,4.56,0,0,1,1.31-.18,4.29,4.29,0,0,1,1.2.16,3.13,3.13,0,0,1,1,.47,2.34,2.34,0,0,1,.72.81,2.44,2.44,0,0,1,.26,1.15,2.1,2.1,0,0,1-.5,1.41,2.57,2.57,0,0,1-1.28.85,3.41,3.41,0,0,1,.81.29,2.45,2.45,0,0,1,.67.53,2.58,2.58,0,0,1,.47.75A2.78,2.78,0,0,1,1840.1,288.73Z" /><path class="c" d="M1845.07,291.65a3.3,3.3,0,0,1-1.4-.31,3,3,0,0,1-1.13-1,5.06,5.06,0,0,1-.74-1.62,8.69,8.69,0,0,1-.27-2.3,8.88,8.88,0,0,1,.27-2.35,4.7,4.7,0,0,1,.75-1.59,3,3,0,0,1,1.13-.91,3.36,3.36,0,0,1,1.39-.29,3.39,3.39,0,0,1,1.39.29,3,3,0,0,1,1.13.91,4.7,4.7,0,0,1,.75,1.59,8.88,8.88,0,0,1,.27,2.35,8.69,8.69,0,0,1-.27,2.3,4.86,4.86,0,0,1-.75,1.62,3,3,0,0,1-1.12,1A3.3,3.3,0,0,1,1845.07,291.65Zm0-1.13a1.74,1.74,0,0,0,1.62-1,6.79,6.79,0,0,0,.53-3.07,6.69,6.69,0,0,0-.53-3,1.75,1.75,0,0,0-1.62-1,1.73,1.73,0,0,0-1.62,1,6.69,6.69,0,0,0-.53,3,6.79,6.79,0,0,0,.53,3.07A1.72,1.72,0,0,0,1845.07,290.52Z" /><path class="c" d="M1888.1,288.73a2.78,2.78,0,0,1-.24,1.17,2.88,2.88,0,0,1-.71.92,3.29,3.29,0,0,1-1.11.6,4.75,4.75,0,0,1-1.45.21,3.84,3.84,0,0,1-2.47-.73A2.9,2.9,0,0,1,1881,289h1.44a1.94,1.94,0,0,0,.68,1.14,2.28,2.28,0,0,0,1.42.39,2.32,2.32,0,0,0,1.58-.49,1.65,1.65,0,0,0,.57-1.31,1.88,1.88,0,0,0-.18-.86,1.77,1.77,0,0,0-.46-.58,1.71,1.71,0,0,0-.63-.32,2.35,2.35,0,0,0-.69-.1h-.82v-1.18h.8a1.67,1.67,0,0,0,.57-.1,1.62,1.62,0,0,0,.53-.29,1.48,1.48,0,0,0,.39-.52,1.72,1.72,0,0,0,.15-.74,1.42,1.42,0,0,0-.17-.7,1.39,1.39,0,0,0-.42-.48,1.72,1.72,0,0,0-.61-.29,2.74,2.74,0,0,0-.7-.09,2.22,2.22,0,0,0-1.36.39,1.54,1.54,0,0,0-.63,1h-1.43a2.65,2.65,0,0,1,.38-1.05,3,3,0,0,1,.75-.8,3.68,3.68,0,0,1,1-.52,4.56,4.56,0,0,1,1.31-.18,4.29,4.29,0,0,1,1.2.16,3.13,3.13,0,0,1,1,.47,2.34,2.34,0,0,1,.72.81,2.44,2.44,0,0,1,.26,1.15,2.1,2.1,0,0,1-.5,1.41,2.57,2.57,0,0,1-1.28.85,3.41,3.41,0,0,1,.81.29,2.45,2.45,0,0,1,.67.53,2.58,2.58,0,0,1,.47.75A2.78,2.78,0,0,1,1888.1,288.73Z" /><path class="c" d="M1892.93,291.43V283l-2.22,1.14v-1.4l2.23-1.16h1.33v9.9Z" /><path class="c" d="M1937.7,288.73a2.78,2.78,0,0,1-.24,1.17,2.75,2.75,0,0,1-.71.92,3.29,3.29,0,0,1-1.11.6,4.64,4.64,0,0,1-1.44.21,3.85,3.85,0,0,1-2.48-.73,2.94,2.94,0,0,1-1.09-1.93h1.45a1.88,1.88,0,0,0,.67,1.14,2.79,2.79,0,0,0,3-.1,1.65,1.65,0,0,0,.57-1.31,1.88,1.88,0,0,0-.18-.86,1.77,1.77,0,0,0-.46-.58,1.71,1.71,0,0,0-.63-.32,2.33,2.33,0,0,0-.68-.1h-.82v-1.18h.79a1.82,1.82,0,0,0,1.1-.39,1.48,1.48,0,0,0,.39-.52,1.72,1.72,0,0,0,.15-.74,1.54,1.54,0,0,0-.16-.7,1.42,1.42,0,0,0-.43-.48,1.65,1.65,0,0,0-.61-.29,2.74,2.74,0,0,0-.7-.09,2.18,2.18,0,0,0-1.35.39,1.56,1.56,0,0,0-.64,1h-1.43a2.65,2.65,0,0,1,.38-1.05,3,3,0,0,1,.75-.8,3.74,3.74,0,0,1,1.06-.52,4.49,4.49,0,0,1,1.3-.18,4.42,4.42,0,0,1,1.21.16,3.08,3.08,0,0,1,1,.47,2.31,2.31,0,0,1,1,2,2.11,2.11,0,0,1-.51,1.41,2.57,2.57,0,0,1-1.28.85,3.26,3.26,0,0,1,.81.29,2.45,2.45,0,0,1,.67.53,2.44,2.44,0,0,1,.64,1.74Z" /><path class="c" d="M1939.28,284.12a3,3,0,0,1,.36-1.1,2.83,2.83,0,0,1,.73-.89,3.2,3.2,0,0,1,1.05-.6,4.29,4.29,0,0,1,2.62,0,3,3,0,0,1,1,.56,2.46,2.46,0,0,1,.68.88,2.65,2.65,0,0,1,.25,1.18,3.51,3.51,0,0,1-.12.94,3.2,3.2,0,0,1-.4.87,6.1,6.1,0,0,1-.72.95c-.31.34-.68.72-1.12,1.14l-2.26,2.15h4.58v1.24h-6.42v-1.24l3.22-3.1c.34-.32.63-.61.86-.87a6.4,6.4,0,0,0,.57-.73,2.66,2.66,0,0,0,.33-.65,2.61,2.61,0,0,0,.09-.69,1.6,1.6,0,0,0-.48-1.22,1.93,1.93,0,0,0-1.38-.46,2.19,2.19,0,0,0-1.4.43,1.78,1.78,0,0,0-.63,1.22Z" /><path class="c" d="M2036.93,289.45a2.64,2.64,0,0,1-.25,1.17,2.72,2.72,0,0,1-.7.92,3.25,3.25,0,0,1-1.12.6,4.64,4.64,0,0,1-1.44.21,3.83,3.83,0,0,1-2.47-.73,2.86,2.86,0,0,1-1.09-1.93h1.44a1.89,1.89,0,0,0,.68,1.14,2.27,2.27,0,0,0,1.41.39,2.35,2.35,0,0,0,1.59-.49,1.68,1.68,0,0,0,.56-1.31,1.89,1.89,0,0,0-.17-.86,1.77,1.77,0,0,0-.46-.58,1.71,1.71,0,0,0-.63-.32,2.35,2.35,0,0,0-.69-.1h-.82v-1.18h.79a1.73,1.73,0,0,0,.58-.1,1.62,1.62,0,0,0,.53-.29,1.58,1.58,0,0,0,.39-.52,1.72,1.72,0,0,0,.14-.74,1.42,1.42,0,0,0-.16-.7,1.5,1.5,0,0,0-.42-.48,1.81,1.81,0,0,0-.61-.29,2.8,2.8,0,0,0-.7-.09,2.22,2.22,0,0,0-1.36.39,1.6,1.6,0,0,0-.64,1h-1.42a2.5,2.5,0,0,1,.38-1,2.85,2.85,0,0,1,.75-.8,3.68,3.68,0,0,1,1-.52,4.56,4.56,0,0,1,1.31-.18,4.75,4.75,0,0,1,1.2.15,3.37,3.37,0,0,1,1,.48,2.3,2.3,0,0,1,1,2,2.15,2.15,0,0,1-.5,1.41,2.61,2.61,0,0,1-1.28.85,3.19,3.19,0,0,1,.8.29,2.5,2.5,0,0,1,.68.53,2.36,2.36,0,0,1,.46.75A2.57,2.57,0,0,1,2036.93,289.45Z" /><path class="c" d="M2045.42,289.45a2.66,2.66,0,0,1-1,2.09,3.11,3.11,0,0,1-1.11.6,4.64,4.64,0,0,1-1.44.21,3.87,3.87,0,0,1-2.48-.73,2.94,2.94,0,0,1-1.09-1.93h1.45a1.89,1.89,0,0,0,.68,1.14,2.27,2.27,0,0,0,1.41.39,2.35,2.35,0,0,0,1.59-.49,1.68,1.68,0,0,0,.56-1.31,2,2,0,0,0-.17-.86,1.91,1.91,0,0,0-.46-.58,1.71,1.71,0,0,0-.63-.32,2.4,2.4,0,0,0-.69-.1h-.82v-1.18h.79a1.63,1.63,0,0,0,.57-.1,1.57,1.57,0,0,0,.54-.29,1.43,1.43,0,0,0,.38-.52,1.72,1.72,0,0,0,.15-.74,1.42,1.42,0,0,0-.16-.7,1.5,1.5,0,0,0-.42-.48,1.81,1.81,0,0,0-.61-.29,2.8,2.8,0,0,0-.7-.09,2.22,2.22,0,0,0-1.36.39,1.6,1.6,0,0,0-.64,1h-1.43a2.66,2.66,0,0,1,.39-1,2.72,2.72,0,0,1,.75-.8,3.68,3.68,0,0,1,1-.52,4.56,4.56,0,0,1,1.31-.18,4.81,4.81,0,0,1,1.2.15,3.37,3.37,0,0,1,1,.48,2.48,2.48,0,0,1,.71.8,2.37,2.37,0,0,1,.27,1.16,2.15,2.15,0,0,1-.5,1.41,2.61,2.61,0,0,1-1.28.85,3.19,3.19,0,0,1,.8.29,2.31,2.31,0,0,1,.67.53,2.39,2.39,0,0,1,.47.75A2.57,2.57,0,0,1,2045.42,289.45Z" /><path class="c" d="M2084.66,289.45a2.79,2.79,0,0,1-.25,1.17,2.75,2.75,0,0,1-.71.92,3.29,3.29,0,0,1-1.11.6,4.64,4.64,0,0,1-1.44.21,3.85,3.85,0,0,1-2.48-.73,2.94,2.94,0,0,1-1.09-1.93H2079a1.88,1.88,0,0,0,.67,1.14,2.79,2.79,0,0,0,3-.1,1.65,1.65,0,0,0,.57-1.31,1.88,1.88,0,0,0-.18-.86,1.77,1.77,0,0,0-.46-.58,1.71,1.71,0,0,0-.63-.32,2.33,2.33,0,0,0-.68-.1h-.82v-1.18h.79a1.82,1.82,0,0,0,1.1-.39,1.58,1.58,0,0,0,.39-.52,1.72,1.72,0,0,0,.15-.74,1.36,1.36,0,0,0-.59-1.18,1.65,1.65,0,0,0-.61-.29,2.74,2.74,0,0,0-.7-.09,2.18,2.18,0,0,0-1.35.39,1.56,1.56,0,0,0-.64,1h-1.43a2.65,2.65,0,0,1,.38-1,3,3,0,0,1,.75-.8,3.74,3.74,0,0,1,1.06-.52,4.49,4.49,0,0,1,1.3-.18,4.83,4.83,0,0,1,1.21.15,3.31,3.31,0,0,1,1,.48,2.4,2.4,0,0,1,.72.8,2.37,2.37,0,0,1,.27,1.16,2.11,2.11,0,0,1-.51,1.41,2.57,2.57,0,0,1-1.28.85,3.12,3.12,0,0,1,.81.29,2.45,2.45,0,0,1,.67.53,2.39,2.39,0,0,1,.47.75A2.57,2.57,0,0,1,2084.66,289.45Z" /><path class="c" d="M2091.66,282.25v6.88h1.6v1.16h-1.6v1.86h-1.32v-1.86H2086V289l4.24-6.78Zm-1.32,6.88v-4.69l-2.83,4.69Z" /><path class="c" d="M2134.86,289.45a2.79,2.79,0,0,1-.25,1.17,2.75,2.75,0,0,1-.71.92,3.11,3.11,0,0,1-1.11.6,4.64,4.64,0,0,1-1.44.21,3.87,3.87,0,0,1-2.48-.73,2.94,2.94,0,0,1-1.09-1.93h1.45a1.89,1.89,0,0,0,.68,1.14,2.27,2.27,0,0,0,1.41.39,2.35,2.35,0,0,0,1.59-.49,1.68,1.68,0,0,0,.56-1.31,1.88,1.88,0,0,0-.18-.86,1.65,1.65,0,0,0-.46-.58,1.6,1.6,0,0,0-.62-.32,2.4,2.4,0,0,0-.69-.1h-.82v-1.18h.79a1.63,1.63,0,0,0,.57-.1,1.52,1.52,0,0,0,.53-.29,1.58,1.58,0,0,0,.39-.52,1.72,1.72,0,0,0,.15-.74,1.36,1.36,0,0,0-.59-1.18,1.68,1.68,0,0,0-.6-.29,2.8,2.8,0,0,0-.7-.09,2.22,2.22,0,0,0-1.36.39,1.6,1.6,0,0,0-.64,1h-1.43a2.81,2.81,0,0,1,.38-1,3,3,0,0,1,.75-.8,3.88,3.88,0,0,1,1.06-.52,4.56,4.56,0,0,1,1.31-.18,4.81,4.81,0,0,1,1.2.15,3.21,3.21,0,0,1,1,.48,2.4,2.4,0,0,1,.72.8,2.37,2.37,0,0,1,.27,1.16,2.15,2.15,0,0,1-.5,1.41,2.66,2.66,0,0,1-1.28.85,3.19,3.19,0,0,1,.8.29,2.31,2.31,0,0,1,.67.53,2.39,2.39,0,0,1,.47.75A2.57,2.57,0,0,1,2134.86,289.45Z" /><path class="c" d="M2137.74,289.75a1.9,1.9,0,0,0,.67,1,2.16,2.16,0,0,0,1.43.43,2.41,2.41,0,0,0,.85-.15,2,2,0,0,0,.68-.46,2,2,0,0,0,.46-.73,3.11,3.11,0,0,0,.16-1,2.28,2.28,0,0,0-.58-1.68,2.11,2.11,0,0,0-1.54-.57,2.8,2.8,0,0,0-1,.21,2.42,2.42,0,0,0-.95.69h-1.2l.21-5.29H2143v1.15h-4.85l-.12,2.9a3.75,3.75,0,0,1,.94-.53,3.57,3.57,0,0,1,1.23-.19,3.61,3.61,0,0,1,1.23.21,3,3,0,0,1,1,.63,3.32,3.32,0,0,1,.7,1.06,3.88,3.88,0,0,1,.26,1.46,3.64,3.64,0,0,1-.24,1.32,3.14,3.14,0,0,1-.7,1.09,3.23,3.23,0,0,1-1.11.74,4,4,0,0,1-1.52.28,4.25,4.25,0,0,1-1.38-.22,3.51,3.51,0,0,1-1.06-.59,3.14,3.14,0,0,1-.72-.83,3.06,3.06,0,0,1-.36-1Z" /><path class="c" d="M2185.5,289.45a2.64,2.64,0,0,1-.25,1.17,2.72,2.72,0,0,1-.7.92,3.25,3.25,0,0,1-1.12.6,4.64,4.64,0,0,1-1.44.21,3.83,3.83,0,0,1-2.47-.73,2.86,2.86,0,0,1-1.09-1.93h1.44a1.89,1.89,0,0,0,.68,1.14,2.27,2.27,0,0,0,1.41.39,2.35,2.35,0,0,0,1.59-.49,1.68,1.68,0,0,0,.56-1.31,2,2,0,0,0-.17-.86,1.77,1.77,0,0,0-.46-.58,1.71,1.71,0,0,0-.63-.32,2.35,2.35,0,0,0-.69-.1h-.82v-1.18h.79a1.73,1.73,0,0,0,.58-.1,1.62,1.62,0,0,0,.53-.29,1.58,1.58,0,0,0,.39-.52,1.88,1.88,0,0,0,.14-.74,1.42,1.42,0,0,0-.16-.7,1.5,1.5,0,0,0-.42-.48,1.81,1.81,0,0,0-.61-.29,2.8,2.8,0,0,0-.7-.09,2.22,2.22,0,0,0-1.36.39,1.6,1.6,0,0,0-.64,1h-1.43a2.66,2.66,0,0,1,.39-1,2.72,2.72,0,0,1,.75-.8,3.68,3.68,0,0,1,1-.52A4.56,4.56,0,0,1,2182,282a4.81,4.81,0,0,1,1.2.15,3.37,3.37,0,0,1,1,.48,2.48,2.48,0,0,1,.71.8,2.37,2.37,0,0,1,.27,1.16,2.15,2.15,0,0,1-.5,1.41,2.61,2.61,0,0,1-1.28.85,3.19,3.19,0,0,1,.8.29,2.5,2.5,0,0,1,.68.53,2.36,2.36,0,0,1,.46.75A2.57,2.57,0,0,1,2185.5,289.45Z" /><path class="c" d="M2190.92,285.67a3.3,3.3,0,0,1,1.29.25,2.84,2.84,0,0,1,1.58,1.74A4.14,4.14,0,0,1,2194,289a3.48,3.48,0,0,1-.29,1.49,3.13,3.13,0,0,1-.75,1.05,3.19,3.19,0,0,1-1.07.62,3.53,3.53,0,0,1-1.2.21,3,3,0,0,1-2.6-1.22,6,6,0,0,1-.88-3.55,10.07,10.07,0,0,1,.31-2.75,4.59,4.59,0,0,1,.81-1.69,2.66,2.66,0,0,1,1.16-.87,3.61,3.61,0,0,1,1.33-.25,3.36,3.36,0,0,1,1.94.56,2.51,2.51,0,0,1,1,1.53h-1.5a1.27,1.27,0,0,0-.5-.72,1.89,1.89,0,0,0-1.8-.08,1.68,1.68,0,0,0-.68.63,3.84,3.84,0,0,0-.5,1.18,7.93,7.93,0,0,0-.26,1.82,3.32,3.32,0,0,1,.5-.6,2.85,2.85,0,0,1,.6-.4,3,3,0,0,1,.64-.21A2.7,2.7,0,0,1,2190.92,285.67ZM2188.7,289a2.34,2.34,0,0,0,.57,1.69,1.91,1.91,0,0,0,1.42.58,1.86,1.86,0,0,0,.75-.14,1.72,1.72,0,0,0,.62-.41,2,2,0,0,0,.42-.68,2.67,2.67,0,0,0,.15-.93,2.43,2.43,0,0,0-.53-1.66,1.8,1.8,0,0,0-1.42-.6,2.14,2.14,0,0,0-.87.17,1.89,1.89,0,0,0-.63.48,2,2,0,0,0-.36.68A2.76,2.76,0,0,0,2188.7,289Z" /><path class="c" d="M2232.81,289.45a2.79,2.79,0,0,1-.25,1.17,2.75,2.75,0,0,1-.71.92,3.29,3.29,0,0,1-1.11.6,4.64,4.64,0,0,1-1.44.21,3.87,3.87,0,0,1-2.48-.73,2.94,2.94,0,0,1-1.09-1.93h1.45a1.89,1.89,0,0,0,.68,1.14,2.25,2.25,0,0,0,1.41.39,2.3,2.3,0,0,0,1.58-.49,1.65,1.65,0,0,0,.57-1.31,1.88,1.88,0,0,0-.18-.86,1.77,1.77,0,0,0-.46-.58,1.71,1.71,0,0,0-.63-.32,2.33,2.33,0,0,0-.68-.1h-.82v-1.18h.79a1.63,1.63,0,0,0,.57-.1,1.52,1.52,0,0,0,.53-.29,1.58,1.58,0,0,0,.39-.52,1.72,1.72,0,0,0,.15-.74,1.36,1.36,0,0,0-.59-1.18,1.65,1.65,0,0,0-.61-.29,2.74,2.74,0,0,0-.7-.09,2.2,2.2,0,0,0-1.35.39,1.6,1.6,0,0,0-.64,1h-1.43a2.81,2.81,0,0,1,.38-1,3,3,0,0,1,.75-.8,3.74,3.74,0,0,1,1.06-.52,4.51,4.51,0,0,1,1.31-.18,4.81,4.81,0,0,1,1.2.15,3.31,3.31,0,0,1,1,.48,2.4,2.4,0,0,1,.72.8,2.37,2.37,0,0,1,.27,1.16A2.11,2.11,0,0,1,2232,286a2.57,2.57,0,0,1-1.28.85,3.12,3.12,0,0,1,.81.29,2.31,2.31,0,0,1,.67.53,2.39,2.39,0,0,1,.47.75A2.57,2.57,0,0,1,2232.81,289.45Z" /><path class="c" d="M2236.84,292.15h-1.54l4.14-8.68h-4.85v-1.22h6.29v1.22Z" /><path class="c" d="M2281.57,289.45a2.79,2.79,0,0,1-.25,1.17,2.75,2.75,0,0,1-.71.92,3.29,3.29,0,0,1-1.11.6,4.64,4.64,0,0,1-1.44.21,3.85,3.85,0,0,1-2.48-.73,2.94,2.94,0,0,1-1.09-1.93h1.45a1.88,1.88,0,0,0,.67,1.14,2.79,2.79,0,0,0,3-.1,1.65,1.65,0,0,0,.57-1.31,1.88,1.88,0,0,0-.18-.86,1.77,1.77,0,0,0-.46-.58,1.71,1.71,0,0,0-.63-.32,2.33,2.33,0,0,0-.68-.1h-.82v-1.18h.79a1.82,1.82,0,0,0,1.1-.39,1.58,1.58,0,0,0,.39-.52,1.72,1.72,0,0,0,.15-.74,1.36,1.36,0,0,0-.59-1.18,1.65,1.65,0,0,0-.61-.29,2.74,2.74,0,0,0-.7-.09,2.18,2.18,0,0,0-1.35.39,1.56,1.56,0,0,0-.64,1h-1.43a2.65,2.65,0,0,1,.38-1,3,3,0,0,1,.75-.8,3.74,3.74,0,0,1,1.06-.52,4.49,4.49,0,0,1,1.3-.18,4.83,4.83,0,0,1,1.21.15,3.31,3.31,0,0,1,1,.48,2.4,2.4,0,0,1,.72.8,2.37,2.37,0,0,1,.27,1.16,2.11,2.11,0,0,1-.51,1.41,2.57,2.57,0,0,1-1.28.85,3.12,3.12,0,0,1,.81.29,2.45,2.45,0,0,1,.67.53,2.39,2.39,0,0,1,.47.75A2.57,2.57,0,0,1,2281.57,289.45Z" /><path class="c" d="M2289.77,284.59a2.11,2.11,0,0,1-.14.77,2.17,2.17,0,0,1-.38.64,2.73,2.73,0,0,1-.52.5,4.21,4.21,0,0,1-.59.38,4.44,4.44,0,0,1,.71.38,3,3,0,0,1,.64.54,2.79,2.79,0,0,1,.46.74,2.19,2.19,0,0,1,.19.94,2.58,2.58,0,0,1-1,2.08,3.41,3.41,0,0,1-1.14.59,4.54,4.54,0,0,1-1.47.22,4.83,4.83,0,0,1-1.47-.21,3.6,3.6,0,0,1-1.14-.58,2.67,2.67,0,0,1-.73-.88,2.35,2.35,0,0,1-.27-1.12,2.59,2.59,0,0,1,.18-1,2.85,2.85,0,0,1,.46-.75,3.06,3.06,0,0,1,.62-.53,4.79,4.79,0,0,1,.68-.34,2.87,2.87,0,0,1-.56-.32,2.31,2.31,0,0,1-.51-.48,2.81,2.81,0,0,1-.36-.64,2.42,2.42,0,0,1-.14-.84,2.48,2.48,0,0,1,.27-1.18,2.38,2.38,0,0,1,.72-.82,3.07,3.07,0,0,1,1-.49,4.91,4.91,0,0,1,1.22-.15,4.85,4.85,0,0,1,1.22.15,3.28,3.28,0,0,1,1,.45,2.26,2.26,0,0,1,.71.79A2.31,2.31,0,0,1,2289.77,284.59Zm-1.07,4.89a1.76,1.76,0,0,0-.23-1,1.85,1.85,0,0,0-.59-.59,2.9,2.9,0,0,0-.8-.35c-.29-.08-.57-.15-.85-.2a3.51,3.51,0,0,0-.63.24,2.49,2.49,0,0,0-.6.42,2,2,0,0,0-.46.61,1.94,1.94,0,0,0-.17.82,1.77,1.77,0,0,0,.13.69,1.56,1.56,0,0,0,.4.56,2,2,0,0,0,.67.38,3,3,0,0,0,1,.14,2.34,2.34,0,0,0,1.63-.5A1.64,1.64,0,0,0,2288.7,289.48Zm-4.08-4.87a1.67,1.67,0,0,0,.23.92,1.64,1.64,0,0,0,.55.56,2.24,2.24,0,0,0,.71.3,5.27,5.27,0,0,0,.7.13,3.09,3.09,0,0,0,.56-.26,2.87,2.87,0,0,0,.51-.41,1.6,1.6,0,0,0,.38-.54,1.54,1.54,0,0,0,.15-.7,1.33,1.33,0,0,0-.15-.63,1.38,1.38,0,0,0-.4-.47,1.88,1.88,0,0,0-.6-.3,2.48,2.48,0,0,0-.73-.11,2.92,2.92,0,0,0-.73.09,2,2,0,0,0-.61.28,1.46,1.46,0,0,0-.41.48A1.29,1.29,0,0,0,2284.62,284.61Z" /><path class="c" d="M2331.11,289.45a2.79,2.79,0,0,1-.25,1.17,2.75,2.75,0,0,1-.71.92,3.11,3.11,0,0,1-1.11.6,4.64,4.64,0,0,1-1.44.21,3.87,3.87,0,0,1-2.48-.73,2.94,2.94,0,0,1-1.09-1.93h1.45a1.89,1.89,0,0,0,.68,1.14,2.27,2.27,0,0,0,1.41.39,2.35,2.35,0,0,0,1.59-.49,1.68,1.68,0,0,0,.56-1.31,1.88,1.88,0,0,0-.18-.86,1.65,1.65,0,0,0-.46-.58,1.57,1.57,0,0,0-.63-.32,2.29,2.29,0,0,0-.68-.1H2327v-1.18h.79a1.63,1.63,0,0,0,.57-.1,1.52,1.52,0,0,0,.53-.29,1.58,1.58,0,0,0,.39-.52,1.72,1.72,0,0,0,.15-.74,1.36,1.36,0,0,0-.59-1.18,1.68,1.68,0,0,0-.6-.29,2.86,2.86,0,0,0-.7-.09,2.22,2.22,0,0,0-1.36.39,1.6,1.6,0,0,0-.64,1h-1.43a2.81,2.81,0,0,1,.38-1,3,3,0,0,1,.75-.8,3.88,3.88,0,0,1,1.06-.52,4.51,4.51,0,0,1,1.31-.18,4.81,4.81,0,0,1,1.2.15,3.21,3.21,0,0,1,1,.48,2.4,2.4,0,0,1,.72.8,2.37,2.37,0,0,1,.27,1.16,2.15,2.15,0,0,1-.5,1.41,2.66,2.66,0,0,1-1.28.85,3.19,3.19,0,0,1,.8.29,2.31,2.31,0,0,1,.67.53,2.39,2.39,0,0,1,.47.75A2.57,2.57,0,0,1,2331.11,289.45Z" /><path class="c" d="M2335.9,288.73a3.15,3.15,0,0,1-1.24-.23,2.85,2.85,0,0,1-1-.65,3.06,3.06,0,0,1-.63-1.05,3.83,3.83,0,0,1-.23-1.39,3.62,3.62,0,0,1,.25-1.39,3.16,3.16,0,0,1,.7-1.06,3.22,3.22,0,0,1,1.05-.68,3.51,3.51,0,0,1,1.31-.24,3,3,0,0,1,2.6,1.18,6,6,0,0,1,.88,3.59,10.27,10.27,0,0,1-.3,2.7,4.86,4.86,0,0,1-.79,1.71,2.73,2.73,0,0,1-1.16.89,3.87,3.87,0,0,1-1.4.26,3.22,3.22,0,0,1-1.95-.58,2.57,2.57,0,0,1-1.05-1.55h1.5a1.26,1.26,0,0,0,.53.75,1.77,1.77,0,0,0,1,.27,1.9,1.9,0,0,0,.83-.18,1.73,1.73,0,0,0,.68-.62,3.71,3.71,0,0,0,.48-1.18,10.21,10.21,0,0,0,.24-1.82,3,3,0,0,1-.51.6,2.79,2.79,0,0,1-.59.4,3.11,3.11,0,0,1-.63.21A3.34,3.34,0,0,1,2335.9,288.73Zm2.22-3.28a2.32,2.32,0,0,0-.57-1.69,2,2,0,0,0-2.18-.44,1.79,1.79,0,0,0-.62.42,2.09,2.09,0,0,0-.41.68,2.65,2.65,0,0,0-.15.92,2.91,2.91,0,0,0,.15,1,2.3,2.3,0,0,0,.41.72,1.69,1.69,0,0,0,.62.43,2.19,2.19,0,0,0,.77.14,2,2,0,0,0,.87-.18,1.86,1.86,0,0,0,.63-.47,2.06,2.06,0,0,0,.36-.69A2.74,2.74,0,0,0,2338.12,285.45Z" /><path class="c" d="M2379.16,282.25v6.88h1.6v1.16h-1.6v1.86h-1.31v-1.86h-4.35V289l4.25-6.78Zm-1.31,6.88v-4.69l-2.83,4.69Z" /><path class="c" d="M2385.61,292.37a3.33,3.33,0,0,1-1.4-.31,3,3,0,0,1-1.12-1,4.86,4.86,0,0,1-.74-1.62,8.72,8.72,0,0,1-.27-2.31,8.85,8.85,0,0,1,.27-2.34,4.7,4.7,0,0,1,.75-1.59,2.93,2.93,0,0,1,1.12-.91,3.39,3.39,0,0,1,1.39-.29,3.44,3.44,0,0,1,1.4.29,2.93,2.93,0,0,1,1.12.91,4.7,4.7,0,0,1,.75,1.59,8.85,8.85,0,0,1,.27,2.34,8.72,8.72,0,0,1-.27,2.31,5.06,5.06,0,0,1-.74,1.62,3,3,0,0,1-1.13,1A3.3,3.3,0,0,1,2385.61,292.37Zm0-1.14a1.71,1.71,0,0,0,1.62-1,6.67,6.67,0,0,0,.53-3.08,6.51,6.51,0,0,0-.53-3,1.73,1.73,0,0,0-1.62-1,1.75,1.75,0,0,0-1.62,1,6.64,6.64,0,0,0-.53,3,6.81,6.81,0,0,0,.53,3.08A1.73,1.73,0,0,0,2385.61,291.23Z" /><path class="c" d="M2428.63,282.25v6.88h1.6v1.16h-1.6v1.86h-1.32v-1.86H2423V289l4.25-6.78Zm-1.32,6.88v-4.69l-2.82,4.69Z" /><path class="c" d="M2434.94,292.15v-8.48l-2.22,1.14v-1.4l2.23-1.16h1.33v9.9Z" /><path class="c" d="M2478.17,282.25v6.88h1.6v1.16h-1.6v1.86h-1.31v-1.86h-4.35V289l4.25-6.78Zm-1.31,6.88v-4.69l-2.83,4.69Z" /><path class="c" d="M2481.23,284.84a3,3,0,0,1,.36-1.1,2.83,2.83,0,0,1,.73-.89,3.2,3.2,0,0,1,1-.6,4.29,4.29,0,0,1,2.62,0,3.15,3.15,0,0,1,1,.56,2.7,2.7,0,0,1,.68.88,2.78,2.78,0,0,1,.24,1.17,3.58,3.58,0,0,1-.12.95,3.49,3.49,0,0,1-.39.87,6.93,6.93,0,0,1-.73.95c-.3.34-.68.72-1.12,1.14l-2.26,2.15h4.58v1.24h-6.42v-1.24l3.22-3.1c.34-.32.63-.61.86-.87a6.4,6.4,0,0,0,.57-.73,2.55,2.55,0,0,0,.33-.66,2.48,2.48,0,0,0,.1-.68,1.64,1.64,0,0,0-.49-1.23,2,2,0,0,0-1.38-.46,2.14,2.14,0,0,0-1.39.44,1.7,1.7,0,0,0-.63,1.22Z" /><path class="c" d="M2526.17,282.25v6.88h1.6v1.16h-1.6v1.86h-1.31v-1.86h-4.35V289l4.25-6.78Zm-1.31,6.88v-4.69l-2.83,4.69Z" /><path class="c" d="M2536.14,289.45a2.78,2.78,0,0,1-.24,1.17,2.75,2.75,0,0,1-.71.92,3.29,3.29,0,0,1-1.11.6,4.64,4.64,0,0,1-1.44.21,3.85,3.85,0,0,1-2.48-.73,2.9,2.9,0,0,1-1.09-1.93h1.44a1.94,1.94,0,0,0,.68,1.14,2.79,2.79,0,0,0,3-.1,1.65,1.65,0,0,0,.57-1.31,1.88,1.88,0,0,0-.18-.86,1.77,1.77,0,0,0-.46-.58,1.71,1.71,0,0,0-.63-.32,2.33,2.33,0,0,0-.68-.1H2532v-1.18h.79a1.82,1.82,0,0,0,1.1-.39,1.58,1.58,0,0,0,.39-.52,1.72,1.72,0,0,0,.15-.74,1.54,1.54,0,0,0-.16-.7,1.42,1.42,0,0,0-.43-.48,1.65,1.65,0,0,0-.61-.29,2.74,2.74,0,0,0-.7-.09,2.18,2.18,0,0,0-1.35.39,1.56,1.56,0,0,0-.64,1h-1.43a2.65,2.65,0,0,1,.38-1,3,3,0,0,1,.75-.8,3.61,3.61,0,0,1,1.06-.52,4.49,4.49,0,0,1,1.3-.18,4.83,4.83,0,0,1,1.21.15,3.31,3.31,0,0,1,1,.48,2.4,2.4,0,0,1,.72.8,2.37,2.37,0,0,1,.27,1.16,2.11,2.11,0,0,1-.51,1.41,2.57,2.57,0,0,1-1.28.85,3.26,3.26,0,0,1,.81.29,2.45,2.45,0,0,1,.67.53,2.44,2.44,0,0,1,.64,1.74Z" /><path class="c" d="M2575.77,282.25v6.88h1.6v1.16h-1.6v1.86h-1.31v-1.86h-4.35V289l4.25-6.78Zm-1.31,6.88v-4.69l-2.83,4.69Z" /><path class="c" d="M2584.26,282.25v6.88h1.6v1.16h-1.6v1.86H2583v-1.86h-4.35V289l4.25-6.78Zm-1.31,6.88v-4.69l-2.83,4.69Z" /><path class="c" d="M2626.64,282.25v6.88h1.6v1.16h-1.6v1.86h-1.31v-1.86H2621V289l4.25-6.78Zm-1.31,6.88v-4.69l-2.83,4.69Z" /><path class="c" d="M2631,289.75a1.9,1.9,0,0,0,.67,1,2.16,2.16,0,0,0,1.43.43,2.41,2.41,0,0,0,.85-.15,2,2,0,0,0,.68-.46,1.88,1.88,0,0,0,.45-.73,2.86,2.86,0,0,0,.17-1,2.28,2.28,0,0,0-.58-1.68,2.12,2.12,0,0,0-1.55-.57,2.88,2.88,0,0,0-1,.21,2.46,2.46,0,0,0-.94.69H2630l.21-5.29h6.09v1.15h-4.86l-.11,2.9a3.66,3.66,0,0,1,3.4-.51,3,3,0,0,1,1,.63,3.32,3.32,0,0,1,.7,1.06,3.88,3.88,0,0,1,.26,1.46,3.64,3.64,0,0,1-.24,1.32,3.14,3.14,0,0,1-.7,1.09,3.23,3.23,0,0,1-1.11.74,4,4,0,0,1-1.52.28,4.25,4.25,0,0,1-1.38-.22,3.51,3.51,0,0,1-1.06-.59,3.14,3.14,0,0,1-.72-.83,3.06,3.06,0,0,1-.36-1Z" /><path class="c" d="M2674.37,282.25v6.88H2676v1.16h-1.59v1.86h-1.32v-1.86h-4.34V289l4.24-6.78Zm-1.32,6.88v-4.69l-2.83,4.69Z" /><path class="c" d="M2681.27,285.67a3.3,3.3,0,0,1,1.29.25,2.76,2.76,0,0,1,1,.69,2.88,2.88,0,0,1,.61,1.05,4.14,4.14,0,0,1,.21,1.34,3.48,3.48,0,0,1-.29,1.49,3,3,0,0,1-1.81,1.67,3.63,3.63,0,0,1-1.21.21,3,3,0,0,1-2.6-1.22,6.05,6.05,0,0,1-.88-3.55,10.47,10.47,0,0,1,.31-2.75,4.59,4.59,0,0,1,.81-1.69,2.72,2.72,0,0,1,1.16-.87,3.65,3.65,0,0,1,1.33-.25,3.34,3.34,0,0,1,1.94.56,2.52,2.52,0,0,1,1,1.53h-1.5a1.34,1.34,0,0,0-.51-.72,1.7,1.7,0,0,0-1-.27,1.78,1.78,0,0,0-.81.19,1.75,1.75,0,0,0-.68.63,4.1,4.1,0,0,0-.5,1.18,8.53,8.53,0,0,0-.26,1.82,3,3,0,0,1,.51-.6,2.79,2.79,0,0,1,.59-.4,3,3,0,0,1,.64-.21A2.78,2.78,0,0,1,2681.27,285.67Zm-2.22,3.29a2.34,2.34,0,0,0,.57,1.69,1.91,1.91,0,0,0,1.42.58,1.86,1.86,0,0,0,.75-.14,1.76,1.76,0,0,0,.63-.41,1.93,1.93,0,0,0,.41-.68,2.67,2.67,0,0,0,.15-.93,2.38,2.38,0,0,0-.53-1.66,1.79,1.79,0,0,0-1.42-.6,2.14,2.14,0,0,0-.87.17,1.75,1.75,0,0,0-.62.48,1.87,1.87,0,0,0-.37.68A2.76,2.76,0,0,0,2679.05,289Z" /><path class="c" d="M2724.57,282.25v6.88h1.6v1.16h-1.6v1.86h-1.32v-1.86h-4.34V289l4.24-6.78Zm-1.32,6.88v-4.69l-2.83,4.69Z" /><path class="c" d="M2730.09,292.15h-1.55l4.15-8.68h-4.85v-1.22h6.29v1.22Z" /><path class="c" d="M2771.34,282.25v6.88h1.6v1.16h-1.6v1.86H2770v-1.86h-4.34V289l4.25-6.78Zm-1.32,6.88v-4.69l-2.82,4.69Z" /><path class="c" d="M2781,284.59a2.11,2.11,0,0,1-.14.77,2.17,2.17,0,0,1-.38.64,2.73,2.73,0,0,1-.52.5,4.21,4.21,0,0,1-.59.38,4.44,4.44,0,0,1,.71.38,3,3,0,0,1,.64.54,3.11,3.11,0,0,1,.47.74,2.35,2.35,0,0,1,.18.94,2.58,2.58,0,0,1-1,2.08,3.51,3.51,0,0,1-1.14.59,4.54,4.54,0,0,1-1.47.22,4.83,4.83,0,0,1-1.47-.21,3.6,3.6,0,0,1-1.14-.58,2.67,2.67,0,0,1-.73-.88,2.35,2.35,0,0,1-.27-1.12,2.59,2.59,0,0,1,.18-1,2.85,2.85,0,0,1,.46-.75,3.06,3.06,0,0,1,.62-.53,4.79,4.79,0,0,1,.68-.34,3.2,3.2,0,0,1-.56-.32,2.31,2.31,0,0,1-.51-.48,2.81,2.81,0,0,1-.36-.64,2.42,2.42,0,0,1-.14-.84,2.48,2.48,0,0,1,.27-1.18,2.38,2.38,0,0,1,.72-.82,3.07,3.07,0,0,1,1-.49,4.91,4.91,0,0,1,1.22-.15,4.85,4.85,0,0,1,1.22.15,3.28,3.28,0,0,1,1,.45,2.26,2.26,0,0,1,.71.79A2.31,2.31,0,0,1,2781,284.59Zm-1.07,4.89a1.76,1.76,0,0,0-.23-1,1.85,1.85,0,0,0-.59-.59,2.9,2.9,0,0,0-.8-.35c-.29-.08-.57-.15-.84-.2a3.6,3.6,0,0,0-.64.24,2.49,2.49,0,0,0-.6.42,2,2,0,0,0-.46.61,1.94,1.94,0,0,0-.17.82,1.77,1.77,0,0,0,.13.69,1.56,1.56,0,0,0,.4.56,2,2,0,0,0,.67.38,3,3,0,0,0,1,.14,2.34,2.34,0,0,0,1.63-.5A1.64,1.64,0,0,0,2780,289.48Zm-4.08-4.87a1.67,1.67,0,0,0,.23.92,1.64,1.64,0,0,0,.55.56,2.24,2.24,0,0,0,.71.3,5.12,5.12,0,0,0,.71.13,3.36,3.36,0,0,0,.55-.26,2.55,2.55,0,0,0,.51-.41,1.6,1.6,0,0,0,.38-.54,1.54,1.54,0,0,0,.15-.7,1.33,1.33,0,0,0-.15-.63,1.38,1.38,0,0,0-.4-.47,1.88,1.88,0,0,0-.6-.3,2.48,2.48,0,0,0-.73-.11,2.92,2.92,0,0,0-.73.09,2,2,0,0,0-.61.28,1.46,1.46,0,0,0-.41.48A1.29,1.29,0,0,0,2775.88,284.61Z" /><rect class="h" x="1558.24" y="67.27" width="425.39" height="183.96" /><rect class="e" x="1563.68" y="72.06" width="414.49" height="174.38" rx="7.42" /><polygon class="f" points="1747.32 90.39 1747.32 77.84 1737.74 77.84 1737.74 71.57 1705.37 71.57 1705.37 77.84 1695.8 77.84 1695.8 90.39 1677.3 90.39 1677.3 147.2 1765.81 147.2 1765.81 90.39 1747.32 90.39" /><polygon class="f" points="1648.9 90.39 1648.9 77.84 1639.32 77.84 1639.32 71.57 1606.95 71.57 1606.95 77.84 1597.37 77.84 1597.37 90.39 1578.88 90.39 1578.88 147.2 1667.39 147.2 1667.39 90.39 1648.9 90.39" /><polygon class="f" points="1944.49 90.39 1944.49 77.84 1934.91 77.84 1934.91 71.57 1902.55 71.57 1902.55 77.84 1892.97 77.84 1892.97 90.39 1874.47 90.39 1874.47 147.2 1962.99 147.2 1962.99 90.39 1944.49 90.39" /><polygon class="f" points="1846.07 90.39 1846.07 77.84 1836.49 77.84 1836.49 71.57 1804.13 71.57 1804.13 77.84 1794.55 77.84 1794.55 90.39 1776.05 90.39 1776.05 147.2 1864.57 147.2 1864.57 90.39 1846.07 90.39" /><polygon class="f" points="1747.32 228.12 1747.32 240.67 1737.74 240.67 1737.74 246.94 1705.37 246.94 1705.37 240.67 1695.8 240.67 1695.8 228.12 1677.3 228.12 1677.3 171.31 1765.81 171.31 1765.81 228.12 1747.32 228.12" /><polygon class="f" points="1648.9 228.12 1648.9 240.67 1639.32 240.67 1639.32 246.94 1606.95 246.94 1606.95 240.67 1597.37 240.67 1597.37 228.12 1578.88 228.12 1578.88 171.31 1667.39 171.31 1667.39 228.12 1648.9 228.12" /><polygon class="f" points="1944.49 228.12 1944.49 240.67 1934.91 240.67 1934.91 246.94 1902.55 246.94 1902.55 240.67 1892.97 240.67 1892.97 228.12 1874.47 228.12 1874.47 171.31 1962.99 171.31 1962.99 228.12 1944.49 228.12" /><polygon class="f" points="1846.07 228.12 1846.07 240.67 1836.49 240.67 1836.49 246.94 1804.13 246.94 1804.13 240.67 1794.55 240.67 1794.55 228.12 1776.05 228.12 1776.05 171.31 1864.57 171.31 1864.57 228.12 1846.07 228.12" /><rect class="h" x="1114.35" y="67.27" width="425.39" height="183.96" /><rect class="e" x="1119.8" y="72.06" width="414.49" height="174.38" rx="7.42" /><polygon class="f" points="1303.43 90.39 1303.43 77.84 1293.85 77.84 1293.85 71.57 1261.48 71.57 1261.48 77.84 1251.91 77.84 1251.91 90.39 1233.41 90.39 1233.41 147.2 1321.92 147.2 1321.92 90.39 1303.43 90.39" /><polygon class="f" points="1205.01 90.39 1205.01 77.84 1195.43 77.84 1195.43 71.57 1163.06 71.57 1163.06 77.84 1153.48 77.84 1153.48 90.39 1134.99 90.39 1134.99 147.2 1223.5 147.2 1223.5 90.39 1205.01 90.39" /><polygon class="f" points="1500.6 90.39 1500.6 77.84 1491.02 77.84 1491.02 71.57 1458.66 71.57 1458.66 77.84 1449.08 77.84 1449.08 90.39 1430.58 90.39 1430.58 147.2 1519.1 147.2 1519.1 90.39 1500.6 90.39" /><polygon class="f" points="1402.18 90.39 1402.18 77.84 1392.6 77.84 1392.6 71.57 1360.24 71.57 1360.24 77.84 1350.66 77.84 1350.66 90.39 1332.16 90.39 1332.16 147.2 1420.68 147.2 1420.68 90.39 1402.18 90.39" /><polygon class="f" points="1303.43 228.12 1303.43 240.67 1293.85 240.67 1293.85 246.94 1261.48 246.94 1261.48 240.67 1251.91 240.67 1251.91 228.12 1233.41 228.12 1233.41 171.31 1321.92 171.31 1321.92 228.12 1303.43 228.12" /><polygon class="f" points="1205.01 228.12 1205.01 240.67 1195.43 240.67 1195.43 246.94 1163.06 246.94 1163.06 240.67 1153.48 240.67 1153.48 228.12 1134.99 228.12 1134.99 171.31 1223.5 171.31 1223.5 228.12 1205.01 228.12" /><polygon class="f" points="1500.6 228.12 1500.6 240.67 1491.02 240.67 1491.02 246.94 1458.66 246.94 1458.66 240.67 1449.08 240.67 1449.08 228.12 1430.58 228.12 1430.58 171.31 1519.1 171.31 1519.1 228.12 1500.6 228.12" /><polygon class="f" points="1402.18 228.12 1402.18 240.67 1392.6 240.67 1392.6 246.94 1360.24 246.94 1360.24 240.67 1350.66 240.67 1350.66 228.12 1332.16 228.12 1332.16 171.31 1420.68 171.31 1420.68 228.12 1402.18 228.12" /><rect class="h" x="2003.63" y="67.27" width="816.85" height="183.96" /><rect class="e" x="2006.37" y="72.06" width="811.37" height="174.38" rx="10.38" /><polygon class="f" points="2192.71 90.39 2192.71 77.84 2183.13 77.84 2183.13 71.57 2150.76 71.57 2150.76 77.84 2141.19 77.84 2141.19 90.39 2122.69 90.39 2122.69 147.2 2211.2 147.2 2211.2 90.39 2192.71 90.39" /><polygon class="f" points="2094.29 90.39 2094.29 77.84 2084.71 77.84 2084.71 71.57 2052.34 71.57 2052.34 77.84 2042.76 77.84 2042.76 90.39 2024.27 90.39 2024.27 147.2 2112.78 147.2 2112.78 90.39 2094.29 90.39" /><polygon class="f" points="2389.88 90.39 2389.88 77.84 2380.3 77.84 2380.3 71.57 2347.94 71.57 2347.94 77.84 2338.36 77.84 2338.36 90.39 2319.86 90.39 2319.86 147.2 2408.38 147.2 2408.38 90.39 2389.88 90.39" /><polygon class="f" points="2291.46 90.39 2291.46 77.84 2281.88 77.84 2281.88 71.57 2249.52 71.57 2249.52 77.84 2239.94 77.84 2239.94 90.39 2221.44 90.39 2221.44 147.2 2309.96 147.2 2309.96 90.39 2291.46 90.39" /><polygon class="f" points="2192.71 228.12 2192.71 240.67 2183.13 240.67 2183.13 246.94 2150.76 246.94 2150.76 240.67 2141.19 240.67 2141.19 228.12 2122.69 228.12 2122.69 171.31 2211.2 171.31 2211.2 228.12 2192.71 228.12" /><polygon class="f" points="2094.29 228.12 2094.29 240.67 2084.71 240.67 2084.71 246.94 2052.34 246.94 2052.34 240.67 2042.76 240.67 2042.76 228.12 2024.27 228.12 2024.27 171.31 2112.78 171.31 2112.78 228.12 2094.29 228.12" /><polygon class="f" points="2389.88 228.12 2389.88 240.67 2380.3 240.67 2380.3 246.94 2347.94 246.94 2347.94 240.67 2338.36 240.67 2338.36 228.12 2319.86 228.12 2319.86 171.31 2408.38 171.31 2408.38 228.12 2389.88 228.12" /><polygon class="f" points="2291.46 228.12 2291.46 240.67 2281.88 240.67 2281.88 246.94 2249.52 246.94 2249.52 240.67 2239.94 240.67 2239.94 228.12 2221.44 228.12 2221.44 171.31 2309.96 171.31 2309.96 228.12 2291.46 228.12" /><polygon class="f" points="2584.16 90.39 2584.16 77.84 2574.58 77.84 2574.58 71.57 2542.21 71.57 2542.21 77.84 2532.63 77.84 2532.63 90.39 2514.14 90.39 2514.14 147.2 2602.65 147.2 2602.65 90.39 2584.16 90.39" /><polygon class="f" points="2485.73 90.39 2485.73 77.84 2476.16 77.84 2476.16 71.57 2443.79 71.57 2443.79 77.84 2434.21 77.84 2434.21 90.39 2415.72 90.39 2415.72 147.2 2504.23 147.2 2504.23 90.39 2485.73 90.39" /><polygon class="f" points="2781.33 90.39 2781.33 77.84 2771.75 77.84 2771.75 71.57 2739.38 71.57 2739.38 77.84 2729.81 77.84 2729.81 90.39 2711.31 90.39 2711.31 147.2 2799.82 147.2 2799.82 90.39 2781.33 90.39" /><polygon class="f" points="2682.91 90.39 2682.91 77.84 2673.33 77.84 2673.33 71.57 2640.96 71.57 2640.96 77.84 2631.38 77.84 2631.38 90.39 2612.89 90.39 2612.89 147.2 2701.4 147.2 2701.4 90.39 2682.91 90.39" /><polygon class="f" points="2584.16 228.12 2584.16 240.67 2574.58 240.67 2574.58 246.94 2542.21 246.94 2542.21 240.67 2532.63 240.67 2532.63 228.12 2514.14 228.12 2514.14 171.31 2602.65 171.31 2602.65 228.12 2584.16 228.12" /><polygon class="f" points="2485.73 228.12 2485.73 240.67 2476.16 240.67 2476.16 246.94 2443.79 246.94 2443.79 240.67 2434.21 240.67 2434.21 228.12 2415.72 228.12 2415.72 171.31 2504.23 171.31 2504.23 228.12 2485.73 228.12" /><polygon class="f" points="2781.33 228.12 2781.33 240.67 2771.75 240.67 2771.75 246.94 2739.38 246.94 2739.38 240.67 2729.81 240.67 2729.81 228.12 2711.31 228.12 2711.31 171.31 2799.82 171.31 2799.82 228.12 2781.33 228.12" /><polygon class="f" points="2682.91 228.12 2682.91 240.67 2673.33 240.67 2673.33 246.94 2640.96 246.94 2640.96 240.67 2631.38 240.67 2631.38 228.12 2612.89 228.12 2612.89 171.31 2701.4 171.31 2701.4 228.12 2682.91 228.12" /><rect class="h" x="280.54" y="67.27" width="816.85" height="183.96" /><rect class="e" x="283.28" y="72.06" width="811.37" height="174.38" rx="10.38" /><polygon class="f" points="469.62 90.39 469.62 77.84 460.04 77.84 460.04 71.57 427.67 71.57 427.67 77.84 418.09 77.84 418.09 90.39 399.6 90.39 399.6 147.2 488.11 147.2 488.11 90.39 469.62 90.39" /><polygon class="f" points="371.19 90.39 371.19 77.84 361.62 77.84 361.62 71.57 329.25 71.57 329.25 77.84 319.67 77.84 319.67 90.39 301.18 90.39 301.18 147.2 389.69 147.2 389.69 90.39 371.19 90.39" /><polygon class="f" points="666.79 90.39 666.79 77.84 657.21 77.84 657.21 71.57 624.85 71.57 624.85 77.84 615.27 77.84 615.27 90.39 596.77 90.39 596.77 147.2 685.29 147.2 685.29 90.39 666.79 90.39" /><polygon class="f" points="568.37 90.39 568.37 77.84 558.79 77.84 558.79 71.57 526.42 71.57 526.42 77.84 516.85 77.84 516.85 90.39 498.35 90.39 498.35 147.2 586.87 147.2 586.87 90.39 568.37 90.39" /><polygon class="f" points="469.62 228.12 469.62 240.67 460.04 240.67 460.04 246.94 427.67 246.94 427.67 240.67 418.09 240.67 418.09 228.12 399.6 228.12 399.6 171.31 488.11 171.31 488.11 228.12 469.62 228.12" /><polygon class="f" points="371.19 228.12 371.19 240.67 361.62 240.67 361.62 246.94 329.25 246.94 329.25 240.67 319.67 240.67 319.67 228.12 301.18 228.12 301.18 171.31 389.69 171.31 389.69 228.12 371.19 228.12" /><polygon class="f" points="666.79 228.12 666.79 240.67 657.21 240.67 657.21 246.94 624.85 246.94 624.85 240.67 615.27 240.67 615.27 228.12 596.77 228.12 596.77 171.31 685.29 171.31 685.29 228.12 666.79 228.12" /><polygon class="f" points="568.37 228.12 568.37 240.67 558.79 240.67 558.79 246.94 526.42 246.94 526.42 240.67 516.85 240.67 516.85 228.12 498.35 228.12 498.35 171.31 586.87 171.31 586.87 228.12 568.37 228.12" /><polygon class="f" points="861.06 90.39 861.06 77.84 851.49 77.84 851.49 71.57 819.12 71.57 819.12 77.84 809.54 77.84 809.54 90.39 791.04 90.39 791.04 147.2 879.56 147.2 879.56 90.39 861.06 90.39" /><polygon class="f" points="762.64 90.39 762.64 77.84 753.06 77.84 753.06 71.57 720.7 71.57 720.7 77.84 711.12 77.84 711.12 90.39 692.62 90.39 692.62 147.2 781.14 147.2 781.14 90.39 762.64 90.39" /><polygon class="f" points="1058.24 90.39 1058.24 77.84 1048.66 77.84 1048.66 71.57 1016.29 71.57 1016.29 77.84 1006.71 77.84 1006.71 90.39 988.22 90.39 988.22 147.2 1076.73 147.2 1076.73 90.39 1058.24 90.39" /><polygon class="f" points="959.82 90.39 959.82 77.84 950.24 77.84 950.24 71.57 917.87 71.57 917.87 77.84 908.29 77.84 908.29 90.39 889.8 90.39 889.8 147.2 978.31 147.2 978.31 90.39 959.82 90.39" /><polygon class="f" points="861.06 228.12 861.06 240.67 851.49 240.67 851.49 246.94 819.12 246.94 819.12 240.67 809.54 240.67 809.54 228.12 791.04 228.12 791.04 171.31 879.56 171.31 879.56 228.12 861.06 228.12" /><polygon class="f" points="762.64 228.12 762.64 240.67 753.06 240.67 753.06 246.94 720.7 246.94 720.7 240.67 711.12 240.67 711.12 228.12 692.62 228.12 692.62 171.31 781.14 171.31 781.14 228.12 762.64 228.12" /><polygon class="f" points="1058.24 228.12 1058.24 240.67 1048.66 240.67 1048.66 246.94 1016.29 246.94 1016.29 240.67 1006.71 240.67 1006.71 228.12 988.22 228.12 988.22 171.31 1076.73 171.31 1076.73 228.12 1058.24 228.12" /><polygon class="f" points="959.82 228.12 959.82 240.67 950.24 240.67 950.24 246.94 917.87 246.94 917.87 240.67 908.29 240.67 908.29 228.12 889.8 228.12 889.8 171.31 978.31 171.31 978.31 228.12 959.82 228.12" /><circle class="g" cx="217.98" cy="159.26" r="6.61" /><rect class="i" x="3070.23" y="68.98" width="136.95" height="180.55" /><rect class="e" x="3069.85" y="135.53" width="137.73" height="47.45" /><rect x="3083.39" y="147.49" width="13.21" height="8.42" /><rect x="3102.87" y="147.49" width="13.21" height="8.42" /><rect x="3122.36" y="147.49" width="13.21" height="8.42" /><rect x="3141.85" y="147.49" width="13.21" height="8.42" /><rect x="3161.33" y="147.49" width="13.21" height="8.42" /><rect x="3180.82" y="147.49" width="13.21" height="8.42" /><rect x="3083.39" y="162.6" width="13.21" height="8.42" /><rect x="3102.87" y="162.6" width="13.21" height="8.42" /><rect x="3122.36" y="162.6" width="13.21" height="8.42" /><rect x="3141.85" y="162.6" width="13.21" height="8.42" /><rect x="3161.33" y="162.6" width="13.21" height="8.42" /><rect x="3180.82" y="162.6" width="13.21" height="8.42" /><path class="c" d="M1741.82,37.58v8.29a2.56,2.56,0,0,0,.8,2,3.2,3.2,0,0,0,2.31.76,3.23,3.23,0,0,0,2.31-.76,2.6,2.6,0,0,0,.8-2V37.58h1.68v8.14a4.63,4.63,0,0,1-.35,1.83,3.87,3.87,0,0,1-1,1.37,4.21,4.21,0,0,1-1.51.85,6.12,6.12,0,0,1-2,.3,6,6,0,0,1-2-.31,4.29,4.29,0,0,1-1.52-.87,3.88,3.88,0,0,1-1-1.38,4.64,4.64,0,0,1-.34-1.79V37.58Z" /><path class="c" d="M1756.16,37.58a5.48,5.48,0,0,1,3.55,1,3.61,3.61,0,0,1,1.24,3,3.54,3.54,0,0,1-1.22,2.88,5.6,5.6,0,0,1-3.64,1h-2.18v4.37h-1.73V37.58ZM1753.91,39v5h2.21a3.4,3.4,0,0,0,2.33-.64,2.75,2.75,0,0,0-.06-3.73,3.2,3.2,0,0,0-2.2-.68Z" /><path class="c" d="M1762.05,45.4a5.68,5.68,0,0,1,.35-2.07,4,4,0,0,1,.94-1.46,3.65,3.65,0,0,1,1.39-.86,5.24,5.24,0,0,1,3.38,0,3.51,3.51,0,0,1,1.39.86,3.92,3.92,0,0,1,.92,1.46,6.44,6.44,0,0,1,0,4.1,4.07,4.07,0,0,1-.91,1.46,3.75,3.75,0,0,1-1.39.88,5.11,5.11,0,0,1-3.45,0,3.61,3.61,0,0,1-1.38-.89,4.18,4.18,0,0,1-.92-1.46A5.67,5.67,0,0,1,1762.05,45.4Zm1.7,0a4.86,4.86,0,0,0,.2,1.44,3.43,3.43,0,0,0,.56,1.06,2.28,2.28,0,0,0,.85.63,2.73,2.73,0,0,0,1.07.22,2.4,2.4,0,0,0,1.9-.85,3.73,3.73,0,0,0,.74-2.5,4.59,4.59,0,0,0-.21-1.46,3.06,3.06,0,0,0-.56-1.06,2.19,2.19,0,0,0-.84-.62,2.58,2.58,0,0,0-1-.21,2.67,2.67,0,0,0-1.06.21,2.42,2.42,0,0,0-.85.64A3.27,3.27,0,0,0,1764,44,4.79,4.79,0,0,0,1763.75,45.4Z" /><path class="c" d="M1779.85,44.31h-5.4v4h5.9v1.47h-7.63V37.58h7.63V39h-5.9v3.84h5.4Z" /><path class="c" d="M1797.74,49.82h-1.27l-.24-1.47a3.77,3.77,0,0,1-1.56,1.27,5.18,5.18,0,0,1-2.2.45,5.43,5.43,0,0,1-2.13-.42,4.62,4.62,0,0,1-1.72-1.23,5.84,5.84,0,0,1-1.15-2,8.23,8.23,0,0,1-.41-2.74,7.86,7.86,0,0,1,.44-2.77,5.72,5.72,0,0,1,1.19-2,4.88,4.88,0,0,1,1.78-1.2,5.88,5.88,0,0,1,2.19-.4,5.94,5.94,0,0,1,1.92.3,5.3,5.3,0,0,1,1.55.81,4.48,4.48,0,0,1,1.08,1.22,3.81,3.81,0,0,1,.51,1.51H1796a2.83,2.83,0,0,0-1.13-1.76,4.1,4.1,0,0,0-3.74-.34,3.29,3.29,0,0,0-1.23.91,4.58,4.58,0,0,0-.81,1.54,7,7,0,0,0-.3,2.16,6.75,6.75,0,0,0,.32,2.17,4.83,4.83,0,0,0,.86,1.54,3.55,3.55,0,0,0,1.23.94,3.5,3.5,0,0,0,1.45.31,4.07,4.07,0,0,0,1.35-.22,3.21,3.21,0,0,0,1.11-.63,3.08,3.08,0,0,0,.76-1,2.86,2.86,0,0,0,.28-1.24v-1h-3.59V43.24h5.15Z" /><path class="c" d="M1800,49.82V37.58h1.63v4.63a3.39,3.39,0,0,1,1.18-1.07,3.62,3.62,0,0,1,1.77-.41,4.09,4.09,0,0,1,1.59.3,3.41,3.41,0,0,1,1.23.89,4.13,4.13,0,0,1,.79,1.45,6.18,6.18,0,0,1,.28,2,6.36,6.36,0,0,1-.29,2,4.18,4.18,0,0,1-.84,1.48,3.61,3.61,0,0,1-1.27.91,4,4,0,0,1-1.6.31,3.33,3.33,0,0,1-2.88-1.43l-.25,1.18Zm6.78-4.52a4.48,4.48,0,0,0-.2-1.41,2.9,2.9,0,0,0-.54-1,2.2,2.2,0,0,0-.82-.58,2.59,2.59,0,0,0-1-.19,2.78,2.78,0,0,0-1,.2,2.63,2.63,0,0,0-.85.6,2.8,2.8,0,0,0-.57,1,4,4,0,0,0-.22,1.39,3.83,3.83,0,0,0,.73,2.49,2.41,2.41,0,0,0,1.94.89,2.32,2.32,0,0,0,1.86-.82A3.86,3.86,0,0,0,1806.8,45.3Z" /><path class="c" d="M1817.58,44.31h-5.4v4h5.9v1.47h-7.63V37.58h7.63V39h-5.9v3.84h5.4Z" /><path class="c" d="M2375.28,37.58v8.29a2.6,2.6,0,0,0,.8,2,3.89,3.89,0,0,0,4.62,0,2.56,2.56,0,0,0,.8-2V37.58h1.68v8.14a4.46,4.46,0,0,1-.35,1.83,3.84,3.84,0,0,1-1,1.37,4.21,4.21,0,0,1-1.51.85,6.12,6.12,0,0,1-2,.3,6,6,0,0,1-2-.31,4.29,4.29,0,0,1-1.52-.87,3.88,3.88,0,0,1-1-1.38,4.46,4.46,0,0,1-.34-1.79V37.58Z" /><path class="c" d="M2389.62,37.58a5.51,5.51,0,0,1,3.56,1,3.64,3.64,0,0,1,1.23,3,3.54,3.54,0,0,1-1.21,2.88,5.64,5.64,0,0,1-3.65,1h-2.17v4.37h-1.73V37.58ZM2387.38,39v5h2.21a3.4,3.4,0,0,0,2.33-.64,2.78,2.78,0,0,0-.06-3.73,3.22,3.22,0,0,0-2.2-.68Z" /><path class="c" d="M2395.52,45.4a5.69,5.69,0,0,1,.34-2.07,4.11,4.11,0,0,1,.95-1.46,3.61,3.61,0,0,1,1.38-.86,5,5,0,0,1,1.69-.28,5,5,0,0,1,1.7.28,3.58,3.58,0,0,1,1.39.86,3.92,3.92,0,0,1,.92,1.46,6.44,6.44,0,0,1,0,4.1,4.09,4.09,0,0,1-.92,1.46,3.71,3.71,0,0,1-1.38.88,4.87,4.87,0,0,1-1.73.3,4.82,4.82,0,0,1-1.72-.3,3.72,3.72,0,0,1-1.39-.89,4.16,4.16,0,0,1-.91-1.46A5.67,5.67,0,0,1,2395.52,45.4Zm1.69,0a4.55,4.55,0,0,0,.21,1.44,3.06,3.06,0,0,0,.56,1.06,2.28,2.28,0,0,0,.85.63,2.69,2.69,0,0,0,1.07.22,2.41,2.41,0,0,0,1.9-.85,3.73,3.73,0,0,0,.73-2.5,4.91,4.91,0,0,0-.2-1.46,3.23,3.23,0,0,0-.56-1.06,2.19,2.19,0,0,0-.84-.62,2.63,2.63,0,0,0-1-.21,2.66,2.66,0,0,0-1.05.21,2.42,2.42,0,0,0-.85.64,2.92,2.92,0,0,0-.56,1.05A4.48,4.48,0,0,0,2397.21,45.4Z" /><path class="c" d="M2413.32,44.31h-5.4v4h5.89v1.47h-7.62V37.58h7.62V39h-5.89v3.84h5.4Z" /><path class="c" d="M2425.11,45.11l3.46,4.71h-2l-2.4-3.42-2.34,3.42h-1.92l3.29-4.59L2420.13,41h1.95l2.11,3,2-3h1.87Z" /><path class="c" d="M2440.19,49.82h-1.27l-.24-1.47a3.74,3.74,0,0,1-1.55,1.27,5.21,5.21,0,0,1-2.2.45,5.4,5.4,0,0,1-2.13-.42,4.58,4.58,0,0,1-1.73-1.23,5.84,5.84,0,0,1-1.15-2,8.49,8.49,0,0,1-.41-2.74,8.09,8.09,0,0,1,.44-2.77,5.74,5.74,0,0,1,1.2-2,4.76,4.76,0,0,1,1.77-1.2,6.24,6.24,0,0,1,4.11-.1,5.3,5.3,0,0,1,1.55.81,4.48,4.48,0,0,1,1.08,1.22,3.83,3.83,0,0,1,.52,1.51h-1.7a2.81,2.81,0,0,0-1.12-1.76,4.12,4.12,0,0,0-3.75-.34,3.18,3.18,0,0,0-1.22.91,4.42,4.42,0,0,0-.82,1.54,7,7,0,0,0-.29,2.16,6.48,6.48,0,0,0,.32,2.17,4.48,4.48,0,0,0,.86,1.54,3.38,3.38,0,0,0,1.23.94,3.42,3.42,0,0,0,1.44.31,4,4,0,0,0,1.35-.22,3,3,0,0,0,1.11-.63,3.08,3.08,0,0,0,.76-1,2.72,2.72,0,0,0,.28-1.24v-1h-3.58V43.24h5.14Z" /><path class="c" d="M2442.47,49.82V37.58h1.63v4.63a3.48,3.48,0,0,1,1.18-1.07,3.66,3.66,0,0,1,1.78-.41,4.17,4.17,0,0,1,1.59.3,3.41,3.41,0,0,1,1.23.89,4.3,4.3,0,0,1,.79,1.45,6.48,6.48,0,0,1,.28,2,6.35,6.35,0,0,1-.3,2,4.32,4.32,0,0,1-.83,1.48,3.65,3.65,0,0,1-1.28.91,4,4,0,0,1-1.6.31,3.43,3.43,0,0,1-1.73-.4,3.33,3.33,0,0,1-1.14-1l-.26,1.18Zm6.78-4.52a4.48,4.48,0,0,0-.2-1.41,2.9,2.9,0,0,0-.54-1,2.05,2.05,0,0,0-.82-.58,2.56,2.56,0,0,0-1-.19,2.69,2.69,0,0,0-1,.2,2.43,2.43,0,0,0-.85.6,2.68,2.68,0,0,0-.58,1,4.23,4.23,0,0,0-.21,1.39,3.77,3.77,0,0,0,.73,2.49,2.37,2.37,0,0,0,1.93.89,2.32,2.32,0,0,0,1.86-.82A3.86,3.86,0,0,0,2449.25,45.3Z" /><path class="c" d="M2460,44.31h-5.41v4h5.9v1.47h-7.63V37.58h7.63V39h-5.9v3.84H2460Z" /><path class="c" d="M2933.84,46.5a2,2,0,0,0-.14-.75,1.43,1.43,0,0,0-.55-.62,4.9,4.9,0,0,0-1.17-.57c-.51-.19-1.17-.4-2-.62a10,10,0,0,1-1.78-.63,4.11,4.11,0,0,1-1.15-.77,2.39,2.39,0,0,1-.61-.93,3.41,3.41,0,0,1-.18-1.14,2.79,2.79,0,0,1,.29-1.24,2.88,2.88,0,0,1,.85-1,4.22,4.22,0,0,1,1.38-.66,6.56,6.56,0,0,1,1.86-.24,6.92,6.92,0,0,1,1.82.23,4.93,4.93,0,0,1,1.47.65,3.68,3.68,0,0,1,1,1,3.58,3.58,0,0,1,.52,1.39h-1.79a1.91,1.91,0,0,0-.91-1.39,4,4,0,0,0-2.15-.49,5.13,5.13,0,0,0-1.19.12,2.92,2.92,0,0,0-.83.35,1.39,1.39,0,0,0-.47.53,1.32,1.32,0,0,0-.16.64,1.83,1.83,0,0,0,.11.64,1.36,1.36,0,0,0,.45.53,4.55,4.55,0,0,0,1,.49c.42.16,1,.34,1.69.54a13.7,13.7,0,0,1,2.11.74,5.06,5.06,0,0,1,1.34.83,2.5,2.5,0,0,1,.71,1,3.78,3.78,0,0,1,.2,1.26,3.23,3.23,0,0,1-.31,1.37,3.44,3.44,0,0,1-.93,1.17,4.47,4.47,0,0,1-1.5.8,6.83,6.83,0,0,1-3.87,0,5.39,5.39,0,0,1-1.5-.74,4,4,0,0,1-1.08-1.16,3.88,3.88,0,0,1-.54-1.53h1.78a2.41,2.41,0,0,0,1,1.65,3.53,3.53,0,0,0,2.18.61,4.61,4.61,0,0,0,1.35-.17,2.9,2.9,0,0,0,.95-.46,2,2,0,0,0,.58-.68A1.82,1.82,0,0,0,2933.84,46.5Z" /><path class="c" d="M2944.51,44.65h-5.17v5.17h-1.73V37.58h7.49V39h-5.76v4.17h5.17Z" /><path class="c" d="M2951.11,37.58a5.49,5.49,0,0,1,3.56,1,3.64,3.64,0,0,1,1.23,3,3.54,3.54,0,0,1-1.21,2.88,5.6,5.6,0,0,1-3.64,1h-2.18v4.37h-1.73V37.58ZM2948.87,39v5h2.21a3.4,3.4,0,0,0,2.33-.64,2.78,2.78,0,0,0-.06-3.73,3.22,3.22,0,0,0-2.2-.68Z" /><path class="c" d="M2960.92,45.08h-2.81V43.63h2.81V40.78h1.54v2.85h2.79v1.45h-2.79v2.83h-1.54Z" /><path class="c" d="M3124,50.07a6.42,6.42,0,0,1-2.35-.42,5.16,5.16,0,0,1-1.83-1.24,5.91,5.91,0,0,1-1.2-2,8.63,8.63,0,0,1,0-5.44,6,6,0,0,1,1.25-2,5.14,5.14,0,0,1,1.86-1.22,6.05,6.05,0,0,1,2.26-.42,6.3,6.3,0,0,1,2.27.4,5.06,5.06,0,0,1,1.84,1.2,5.7,5.7,0,0,1,1.24,2,7.81,7.81,0,0,1,.45,2.77,7.31,7.31,0,0,1-.55,3,5.71,5.71,0,0,1-1.48,2.07l2,2.46-1.39.92-1.8-2.58A6.06,6.06,0,0,1,3124,50.07Zm0-1.41a4.17,4.17,0,0,0,1.64-.32,3.57,3.57,0,0,0,1.27-1,4.46,4.46,0,0,0,.83-1.56,7.71,7.71,0,0,0,0-4.26A4.46,4.46,0,0,0,3127,40a3.57,3.57,0,0,0-1.27-.95,4.36,4.36,0,0,0-3.28,0,3.52,3.52,0,0,0-1.28.95,4.63,4.63,0,0,0-.83,1.56,7.71,7.71,0,0,0,0,4.26,4.63,4.63,0,0,0,.83,1.56,3.52,3.52,0,0,0,1.28,1A4.14,4.14,0,0,0,3124,48.66Z" /><path class="c" d="M3139.12,46.5a2,2,0,0,0-.13-.75,1.53,1.53,0,0,0-.56-.62,4.72,4.72,0,0,0-1.17-.57,20.89,20.89,0,0,0-2-.62,10.34,10.34,0,0,1-1.78-.63,4.27,4.27,0,0,1-1.15-.77,2.5,2.5,0,0,1-.61-.93,3.41,3.41,0,0,1-.18-1.14,2.79,2.79,0,0,1,.29-1.24,3,3,0,0,1,.85-1,4.42,4.42,0,0,1,1.38-.66,6.63,6.63,0,0,1,1.87-.24,7,7,0,0,1,1.82.23,5,5,0,0,1,1.46.65,3.68,3.68,0,0,1,1,1,3.43,3.43,0,0,1,.52,1.39H3139a2,2,0,0,0-.91-1.39,4,4,0,0,0-2.15-.49,5.17,5.17,0,0,0-1.2.12,2.85,2.85,0,0,0-.82.35,1.34,1.34,0,0,0-.48.53,1.43,1.43,0,0,0-.15.64,1.62,1.62,0,0,0,.11.64,1.21,1.21,0,0,0,.45.53,4.32,4.32,0,0,0,1,.49q.63.24,1.68.54a13.33,13.33,0,0,1,2.11.74,5.3,5.3,0,0,1,1.35.83,2.57,2.57,0,0,1,.7,1,3.55,3.55,0,0,1,.2,1.26,3.09,3.09,0,0,1-.31,1.37,3.44,3.44,0,0,1-.93,1.17,4.29,4.29,0,0,1-1.5.8,6.8,6.8,0,0,1-3.86,0,5.45,5.45,0,0,1-1.51-.74,4.27,4.27,0,0,1-1.08-1.16,3.88,3.88,0,0,1-.54-1.53h1.78a2.48,2.48,0,0,0,1,1.65,3.54,3.54,0,0,0,2.19.61,4.54,4.54,0,0,0,1.34-.17,3.06,3.06,0,0,0,1-.46,2.17,2.17,0,0,0,.58-.68A1.81,1.81,0,0,0,3139.12,46.5Z" /><path class="c" d="M3149.79,44.65h-5.16v5.17h-1.74V37.58h7.49V39h-5.75v4.17h5.16Z" /><path class="c" d="M3156.4,37.58a5.51,5.51,0,0,1,3.56,1,3.64,3.64,0,0,1,1.23,3,3.54,3.54,0,0,1-1.22,2.88,5.6,5.6,0,0,1-3.64,1h-2.17v4.37h-1.74V37.58ZM3154.16,39v5h2.2a3.38,3.38,0,0,0,2.33-.64,2.75,2.75,0,0,0-.06-3.73,3.2,3.2,0,0,0-2.2-.68Z" /><path class="c" d="M3166.2,45.08h-2.8V43.63h2.8V40.78h1.55v2.85h2.78v1.45h-2.78v2.83h-1.55Z" /><path class="c" d="M1297,37.58v8.29a2.6,2.6,0,0,0,.8,2,3.23,3.23,0,0,0,2.31.76,3.2,3.2,0,0,0,2.31-.76,2.56,2.56,0,0,0,.8-2V37.58h1.68v8.14a4.63,4.63,0,0,1-.34,1.83,4,4,0,0,1-1,1.37,4.21,4.21,0,0,1-1.51.85,6.12,6.12,0,0,1-2,.3,6,6,0,0,1-2-.31,4.29,4.29,0,0,1-1.52-.87,3.88,3.88,0,0,1-1-1.38,4.46,4.46,0,0,1-.34-1.79V37.58Z" /><path class="c" d="M1311.38,37.58a5.51,5.51,0,0,1,3.56,1,3.64,3.64,0,0,1,1.23,3,3.54,3.54,0,0,1-1.21,2.88,5.64,5.64,0,0,1-3.65,1h-2.17v4.37h-1.73V37.58ZM1309.14,39v5h2.21a3.4,3.4,0,0,0,2.33-.64,2.78,2.78,0,0,0-.06-3.73,3.22,3.22,0,0,0-2.2-.68Z" /><path class="c" d="M1317.28,45.4a5.69,5.69,0,0,1,.34-2.07,4.11,4.11,0,0,1,1-1.46A3.61,3.61,0,0,1,1320,41a5,5,0,0,1,1.69-.28,5,5,0,0,1,1.7.28,3.58,3.58,0,0,1,1.39.86,3.92,3.92,0,0,1,.92,1.46,6.44,6.44,0,0,1,0,4.1,4.09,4.09,0,0,1-.92,1.46,3.71,3.71,0,0,1-1.38.88,4.87,4.87,0,0,1-1.73.3,4.82,4.82,0,0,1-1.72-.3,3.72,3.72,0,0,1-1.39-.89,4.16,4.16,0,0,1-.91-1.46A5.67,5.67,0,0,1,1317.28,45.4Zm1.7,0a4.56,4.56,0,0,0,.2,1.44,3.06,3.06,0,0,0,.56,1.06,2.28,2.28,0,0,0,.85.63,2.69,2.69,0,0,0,1.07.22,2.41,2.41,0,0,0,1.9-.85,3.73,3.73,0,0,0,.73-2.5,4.6,4.6,0,0,0-.2-1.46,3.23,3.23,0,0,0-.56-1.06,2.19,2.19,0,0,0-.84-.62,2.63,2.63,0,0,0-1-.21,2.66,2.66,0,0,0-1.05.21,2.42,2.42,0,0,0-.85.64,2.92,2.92,0,0,0-.56,1.05A4.5,4.5,0,0,0,1319,45.4Z" /><path class="c" d="M1335.08,44.31h-5.4v4h5.89v1.47H1328V37.58h7.62V39h-5.89v3.84h5.4Z" /><path class="c" d="M1353,49.82h-1.28l-.23-1.47a3.83,3.83,0,0,1-1.56,1.27,5.18,5.18,0,0,1-2.2.45,5.4,5.4,0,0,1-2.13-.42,4.55,4.55,0,0,1-1.72-1.23,5.84,5.84,0,0,1-1.15-2,8.22,8.22,0,0,1-.42-2.74,8.09,8.09,0,0,1,.44-2.77,5.89,5.89,0,0,1,1.2-2,4.88,4.88,0,0,1,1.78-1.2,5.88,5.88,0,0,1,2.19-.4,5.94,5.94,0,0,1,1.92.3,5.24,5.24,0,0,1,1.54.81,4.32,4.32,0,0,1,1.08,1.22,3.83,3.83,0,0,1,.52,1.51h-1.7a2.81,2.81,0,0,0-1.12-1.76,4.1,4.1,0,0,0-3.74-.34,3.29,3.29,0,0,0-1.23.91,4.41,4.41,0,0,0-.81,1.54,7,7,0,0,0-.3,2.16,6.75,6.75,0,0,0,.32,2.17,4.65,4.65,0,0,0,.86,1.54,3.55,3.55,0,0,0,1.23.94,3.5,3.5,0,0,0,1.45.31,4.07,4.07,0,0,0,1.35-.22,3.21,3.21,0,0,0,1.11-.63,2.91,2.91,0,0,0,.75-1,2.72,2.72,0,0,0,.28-1.24v-1h-3.58V43.24H1353Z" /><path class="c" d="M1355.24,49.82V37.58h1.64v4.63a3.31,3.31,0,0,1,1.18-1.07,3.62,3.62,0,0,1,1.77-.41,4.09,4.09,0,0,1,1.59.3,3.41,3.41,0,0,1,1.23.89,4.3,4.3,0,0,1,.79,1.45,6.18,6.18,0,0,1,.28,2,6.35,6.35,0,0,1-.3,2,4,4,0,0,1-.83,1.48,3.71,3.71,0,0,1-1.27.91,4.09,4.09,0,0,1-1.61.31,3.39,3.39,0,0,1-1.72-.4,3.46,3.46,0,0,1-1.15-1l-.25,1.18ZM1362,45.3a4.5,4.5,0,0,0-.19-1.41,2.76,2.76,0,0,0-.55-1,2.09,2.09,0,0,0-.81-.58,2.59,2.59,0,0,0-1-.19,2.74,2.74,0,0,0-1,.2,2.53,2.53,0,0,0-.85.6,2.82,2.82,0,0,0-.58,1,4.23,4.23,0,0,0-.21,1.39,3.77,3.77,0,0,0,.73,2.49,2.39,2.39,0,0,0,1.94.89,2.32,2.32,0,0,0,1.86-.82A3.86,3.86,0,0,0,1362,45.3Z" /><path class="c" d="M1372.81,44.31h-5.4v4h5.89v1.47h-7.62V37.58h7.62V39h-5.89v3.84h5.4Z" /><path class="c" d="M660.71,37.58v8.29a2.6,2.6,0,0,0,.8,2,3.89,3.89,0,0,0,4.62,0,2.6,2.6,0,0,0,.8-2V37.58h1.68v8.14a4.46,4.46,0,0,1-.35,1.83,3.84,3.84,0,0,1-1,1.37,4.25,4.25,0,0,1-1.52.85,6,6,0,0,1-2,.3,5.94,5.94,0,0,1-2-.31,4.21,4.21,0,0,1-1.52-.87,3.76,3.76,0,0,1-1-1.38,4.46,4.46,0,0,1-.34-1.79V37.58Z" /><path class="c" d="M675.05,37.58a5.51,5.51,0,0,1,3.56,1,3.64,3.64,0,0,1,1.23,3,3.54,3.54,0,0,1-1.21,2.88,5.64,5.64,0,0,1-3.65,1h-2.17v4.37h-1.73V37.58ZM672.81,39v5H675a3.37,3.37,0,0,0,2.32-.64,2.75,2.75,0,0,0-.06-3.73,3.18,3.18,0,0,0-2.2-.68Z" /><path class="c" d="M680.94,45.4a5.68,5.68,0,0,1,.35-2.07,4,4,0,0,1,1-1.46,3.54,3.54,0,0,1,1.38-.86,5,5,0,0,1,1.69-.28A5,5,0,0,1,687,41a3.54,3.54,0,0,1,1.38.86,4.07,4.07,0,0,1,.93,1.46,6.44,6.44,0,0,1,0,4.1,4.09,4.09,0,0,1-.92,1.46,3.71,3.71,0,0,1-1.38.88,4.93,4.93,0,0,1-1.74.3,4.8,4.8,0,0,1-1.71-.3,3.57,3.57,0,0,1-1.39-.89,4.16,4.16,0,0,1-.91-1.46A5.45,5.45,0,0,1,680.94,45.4Zm1.7,0a4.55,4.55,0,0,0,.21,1.44,3.06,3.06,0,0,0,.56,1.06,2.28,2.28,0,0,0,.85.63,2.66,2.66,0,0,0,1.07.22,2.41,2.41,0,0,0,1.9-.85,3.73,3.73,0,0,0,.73-2.5,4.91,4.91,0,0,0-.2-1.46,3.43,3.43,0,0,0-.56-1.06,2.15,2.15,0,0,0-.85-.62,2.58,2.58,0,0,0-1-.21,2.63,2.63,0,0,0-1,.21,2.42,2.42,0,0,0-.85.64,2.92,2.92,0,0,0-.56,1.05A4.48,4.48,0,0,0,682.64,45.4Z" /><path class="c" d="M698.75,44.31h-5.4v4h5.89v1.47h-7.63V37.58h7.63V39h-5.89v3.84h5.4Z" /><path class="c" d="M716.64,49.82h-1.28l-.24-1.47a3.74,3.74,0,0,1-1.55,1.27,5.21,5.21,0,0,1-2.2.45,5.4,5.4,0,0,1-2.13-.42,4.58,4.58,0,0,1-1.73-1.23,5.82,5.82,0,0,1-1.14-2,8.22,8.22,0,0,1-.42-2.74,8.09,8.09,0,0,1,.44-2.77,5.74,5.74,0,0,1,1.2-2,4.84,4.84,0,0,1,1.77-1.2,6.27,6.27,0,0,1,4.12-.1,5.37,5.37,0,0,1,1.54.81,4.48,4.48,0,0,1,1.08,1.22,3.83,3.83,0,0,1,.52,1.51h-1.7a2.81,2.81,0,0,0-1.12-1.76,4.12,4.12,0,0,0-3.75-.34,3.18,3.18,0,0,0-1.22.91,4.42,4.42,0,0,0-.82,1.54,7.33,7.33,0,0,0-.29,2.16,6.48,6.48,0,0,0,.32,2.17,4.48,4.48,0,0,0,.86,1.54,3.38,3.38,0,0,0,1.23.94,3.42,3.42,0,0,0,1.44.31,4,4,0,0,0,1.35-.22,3.16,3.16,0,0,0,1.12-.63,3,3,0,0,0,.75-1,2.72,2.72,0,0,0,.28-1.24v-1h-3.58V43.24h5.15Z" /><path class="c" d="M718.91,49.82V37.58h1.63v4.63a3.48,3.48,0,0,1,1.18-1.07,3.69,3.69,0,0,1,1.78-.41,4.09,4.09,0,0,1,1.59.3,3.41,3.41,0,0,1,1.23.89,4.3,4.3,0,0,1,.79,1.45,6.48,6.48,0,0,1,.28,2,6.35,6.35,0,0,1-.3,2,4.17,4.17,0,0,1-.83,1.48,3.71,3.71,0,0,1-1.27.91,4.09,4.09,0,0,1-1.61.31,3.33,3.33,0,0,1-2.87-1.43l-.26,1.18Zm6.78-4.52a4.5,4.5,0,0,0-.19-1.41,3.09,3.09,0,0,0-.55-1,2.09,2.09,0,0,0-.81-.58,2.63,2.63,0,0,0-1-.19,2.7,2.7,0,0,0-1,.2,2.43,2.43,0,0,0-.85.6,2.68,2.68,0,0,0-.58,1,4.23,4.23,0,0,0-.21,1.39,3.77,3.77,0,0,0,.73,2.49,2.38,2.38,0,0,0,1.94.89,2.35,2.35,0,0,0,1.86-.82A3.86,3.86,0,0,0,725.69,45.3Z" /><path class="c" d="M736.48,44.31h-5.4v4H737v1.47h-7.63V37.58H737V39h-5.89v3.84h5.4Z" /><polygon class="c" points="2883.72 287.69 2875.26 287.69 2879.49 281.58 2879.49 281.58 2883.72 287.69" /><polygon class="c" points="2925 284.95 2933.46 284.95 2929.23 291.06 2929.23 291.06 2925 284.95" /><polygon class="c" points="2983.96 287.69 2975.5 287.69 2979.73 281.58 2979.73 281.58 2983.96 287.69" /><polygon class="c" points="3025.23 284.95 3033.7 284.95 3029.46 291.06 3029.46 291.06 3025.23 284.95" /><path class="c" d="M2862,282.33v6.74h1.57v1.13H2862V292h-1.29V290.2h-4.25V289l4.15-6.64Zm-1.29,6.74v-4.59l-2.77,4.59Z" /><path class="c" d="M2868.19,288.68a3.36,3.36,0,0,1-1.22-.22,2.76,2.76,0,0,1-1.58-1.67,3.94,3.94,0,0,1-.23-1.37,3.7,3.7,0,0,1,.25-1.36,3.26,3.26,0,0,1,.69-1,3,3,0,0,1,1-.66,3.32,3.32,0,0,1,1.28-.24,3,3,0,0,1,2.55,1.16,5.89,5.89,0,0,1,.86,3.51,10.28,10.28,0,0,1-.29,2.65,5.05,5.05,0,0,1-.78,1.68,2.65,2.65,0,0,1-1.14.87,3.7,3.7,0,0,1-1.37.25,3.22,3.22,0,0,1-1.91-.56,2.57,2.57,0,0,1-1-1.52h1.47a1.33,1.33,0,0,0,.52.74,1.78,1.78,0,0,0,1,.26,1.85,1.85,0,0,0,.81-.18,1.74,1.74,0,0,0,.67-.61,3.76,3.76,0,0,0,.47-1.15,9.84,9.84,0,0,0,.24-1.79,2.68,2.68,0,0,1-1.08,1,3,3,0,0,1-.62.21A3.21,3.21,0,0,1,2868.19,288.68Zm2.17-3.22a2.27,2.27,0,0,0-.56-1.65,2,2,0,0,0-2.14-.43,1.65,1.65,0,0,0-.6.41,1.8,1.8,0,0,0-.41.67,2.72,2.72,0,0,0-.14.89,3.13,3.13,0,0,0,.14,1,1.93,1.93,0,0,0,.41.7,1.52,1.52,0,0,0,.61.42,2.15,2.15,0,0,0,1.6,0,1.69,1.69,0,0,0,.61-.47,1.81,1.81,0,0,0,.36-.67A2.63,2.63,0,0,0,2870.36,285.46Z" /><path class="c" d="M2907.87,289.68a1.83,1.83,0,0,0,.65,1,2.09,2.09,0,0,0,1.4.43,2.27,2.27,0,0,0,.83-.15,1.84,1.84,0,0,0,.67-.45,2,2,0,0,0,.45-.72,2.94,2.94,0,0,0,.16-1,2.19,2.19,0,0,0-.57-1.64,2,2,0,0,0-1.51-.56,2.74,2.74,0,0,0-1,.21,2.28,2.28,0,0,0-.92.67h-1.18l.21-5.18h6v1.12h-4.76l-.11,2.84a3.57,3.57,0,0,1,.92-.51,3.73,3.73,0,0,1,2.41,0,2.67,2.67,0,0,1,1,.62,3.14,3.14,0,0,1,.68,1,3.74,3.74,0,0,1,.26,1.44,3.52,3.52,0,0,1-.24,1.29,3.08,3.08,0,0,1-.67,1.06,3.26,3.26,0,0,1-1.1.73,3.83,3.83,0,0,1-1.48.27,4.07,4.07,0,0,1-1.35-.21,3.47,3.47,0,0,1-1-.58,3.06,3.06,0,0,1-.71-.82,2.61,2.61,0,0,1-.35-.95Z" /><path class="c" d="M2918.22,292.24a3.19,3.19,0,0,1-1.37-.3,3.06,3.06,0,0,1-1.1-.94,4.88,4.88,0,0,1-.73-1.59,8.78,8.78,0,0,1-.26-2.26,8.91,8.91,0,0,1,.26-2.29,4.53,4.53,0,0,1,.74-1.56,2.82,2.82,0,0,1,1.1-.89,3.25,3.25,0,0,1,1.36-.29,3.3,3.3,0,0,1,1.37.29,2.82,2.82,0,0,1,1.1.89,4.71,4.71,0,0,1,.74,1.56,8.91,8.91,0,0,1,.26,2.29,8.78,8.78,0,0,1-.26,2.26,4.88,4.88,0,0,1-.73,1.59,3.06,3.06,0,0,1-1.1.94A3.23,3.23,0,0,1,2918.22,292.24Zm0-1.11a1.7,1.7,0,0,0,1.59-1,6.6,6.6,0,0,0,.52-3,6.43,6.43,0,0,0-.52-3,1.72,1.72,0,0,0-1.59-.94,1.7,1.7,0,0,0-1.58.94,6.43,6.43,0,0,0-.52,3,6.6,6.6,0,0,0,.52,3A1.68,1.68,0,0,0,2918.22,291.13Z" /><path class="c" d="M2957.08,289.68a1.83,1.83,0,0,0,.65,1,2.09,2.09,0,0,0,1.4.43,2.23,2.23,0,0,0,.83-.15,2,2,0,0,0,.68-.45,2,2,0,0,0,.44-.72,2.7,2.7,0,0,0,.16-1,2.19,2.19,0,0,0-.57-1.64,2,2,0,0,0-1.51-.56,2.74,2.74,0,0,0-1,.21,2.28,2.28,0,0,0-.92.67H2956l.21-5.18h6v1.12h-4.75l-.12,2.84a3.47,3.47,0,0,1,.93-.51,3.34,3.34,0,0,1,1.19-.19,3.46,3.46,0,0,1,1.21.21,2.67,2.67,0,0,1,1,.62,3,3,0,0,1,.68,1,3.56,3.56,0,0,1,.26,1.44,3.73,3.73,0,0,1-.23,1.29,3.27,3.27,0,0,1-.68,1.06,3.16,3.16,0,0,1-1.1.73,3.83,3.83,0,0,1-1.48.27,4.07,4.07,0,0,1-1.35-.21,3.6,3.6,0,0,1-1-.58,3.06,3.06,0,0,1-.71-.82,2.61,2.61,0,0,1-.35-.95Z" /><path class="c" d="M2967.3,292v-8.31l-2.18,1.12v-1.37l2.19-1.14h1.3V292Z" /><path class="c" d="M3006.29,289.68a1.83,1.83,0,0,0,.65,1,2.11,2.11,0,0,0,1.4.43,2.23,2.23,0,0,0,.83-.15,2,2,0,0,0,.68-.45,2,2,0,0,0,.44-.72,2.7,2.7,0,0,0,.16-1,2.19,2.19,0,0,0-.57-1.64,2,2,0,0,0-1.51-.56,2.74,2.74,0,0,0-1,.21,2.35,2.35,0,0,0-.92.67h-1.18l.21-5.18h6v1.12h-4.75l-.12,2.84a3.47,3.47,0,0,1,.93-.51,3.36,3.36,0,0,1,1.2-.19,3.44,3.44,0,0,1,1.2.21,2.67,2.67,0,0,1,1,.62,3,3,0,0,1,.68,1,3.56,3.56,0,0,1,.26,1.44,3.73,3.73,0,0,1-.23,1.29,3.27,3.27,0,0,1-.68,1.06,3.16,3.16,0,0,1-1.1.73,3.83,3.83,0,0,1-1.48.27A4.07,4.07,0,0,1,3007,292a3.6,3.6,0,0,1-1-.58,3.06,3.06,0,0,1-.71-.82,2.61,2.61,0,0,1-.35-.95Z" /><path class="c" d="M3013.32,284.87a3.12,3.12,0,0,1,1.06-2,3.4,3.4,0,0,1,1-.58,4.1,4.1,0,0,1,2.56,0,3.09,3.09,0,0,1,1,.54,2.74,2.74,0,0,1,.67.87,2.69,2.69,0,0,1,.24,1.15,3.36,3.36,0,0,1-.12.92,3.43,3.43,0,0,1-.39.86,7.21,7.21,0,0,1-.71.93c-.3.33-.66.7-1.1,1.12l-2.21,2.1h4.49V292h-6.3v-1.22l3.16-3c.34-.32.62-.6.84-.85a5.94,5.94,0,0,0,.56-.72,2.39,2.39,0,0,0,.32-.64,2.11,2.11,0,0,0,.1-.68,1.56,1.56,0,0,0-.48-1.19,1.85,1.85,0,0,0-1.35-.45,2.07,2.07,0,0,0-1.36.43,1.64,1.64,0,0,0-.62,1.19Z" /><polygon class="c" points="3120.58 287.69 3112.12 287.69 3116.35 281.58 3116.35 281.58 3120.58 287.69" /><polygon class="c" points="3177.76 284.95 3186.22 284.95 3181.99 291.06 3181.99 291.06 3177.76 284.95" /><path class="c" d="M3093.32,289.68a1.83,1.83,0,0,0,.65,1,2.09,2.09,0,0,0,1.4.43,2.31,2.31,0,0,0,.83-.15,1.93,1.93,0,0,0,.67-.45,1.86,1.86,0,0,0,.44-.72,2.7,2.7,0,0,0,.16-1,2.23,2.23,0,0,0-.56-1.64,2,2,0,0,0-1.51-.56,2.66,2.66,0,0,0-1,.21,2.31,2.31,0,0,0-.93.67h-1.17l.2-5.18h6v1.12h-4.75l-.11,2.84a3.26,3.26,0,0,1,2.12-.7,3.46,3.46,0,0,1,1.21.21,2.63,2.63,0,0,1,1,.62,3,3,0,0,1,.69,1,3.74,3.74,0,0,1,.26,1.44,3.52,3.52,0,0,1-.24,1.29,3.16,3.16,0,0,1-1.77,1.79,3.88,3.88,0,0,1-1.49.27A4.07,4.07,0,0,1,3094,292a3.6,3.6,0,0,1-1-.58,3,3,0,0,1-.7-.82,2.82,2.82,0,0,1-.36-.95Z" /><path class="c" d="M3107.12,289.39a2.71,2.71,0,0,1-.24,1.14,2.53,2.53,0,0,1-.69.9,3.46,3.46,0,0,1-1.09.59,4.55,4.55,0,0,1-1.42.21,3.77,3.77,0,0,1-2.42-.72,2.85,2.85,0,0,1-1.07-1.89h1.41a2,2,0,0,0,.67,1.12,2.71,2.71,0,0,0,2.94-.11,1.6,1.6,0,0,0,.55-1.27,1.82,1.82,0,0,0-.17-.85,1.84,1.84,0,0,0-.45-.57,1.81,1.81,0,0,0-.62-.31,2.22,2.22,0,0,0-.67-.1h-.8v-1.15h.77a1.84,1.84,0,0,0,.56-.1,1.48,1.48,0,0,0,.52-.29,1.32,1.32,0,0,0,.38-.51,1.62,1.62,0,0,0,.15-.72,1.34,1.34,0,0,0-.16-.68,1.31,1.31,0,0,0-.42-.48,1.61,1.61,0,0,0-.59-.28,2.72,2.72,0,0,0-.69-.09,2.21,2.21,0,0,0-1.33.38,1.55,1.55,0,0,0-.62,1h-1.4a2.6,2.6,0,0,1,.37-1,3,3,0,0,1,.74-.78,3.31,3.31,0,0,1,1-.51,4.35,4.35,0,0,1,1.28-.18,4.6,4.6,0,0,1,1.18.15,3.35,3.35,0,0,1,1,.47,2.42,2.42,0,0,1,.7.79,2.36,2.36,0,0,1,.26,1.13,2.16,2.16,0,0,1-.49,1.39,2.66,2.66,0,0,1-1.26.83,2.76,2.76,0,0,1,.79.28,2.38,2.38,0,0,1,1.12,1.26A2.63,2.63,0,0,1,3107.12,289.39Z" /><path class="c" d="M3160.14,289.68a1.83,1.83,0,0,0,.65,1,2.09,2.09,0,0,0,1.4.43,2.23,2.23,0,0,0,.83-.15,2,2,0,0,0,.68-.45,2,2,0,0,0,.44-.72,2.7,2.7,0,0,0,.16-1,2.19,2.19,0,0,0-.57-1.64,2,2,0,0,0-1.51-.56,2.74,2.74,0,0,0-1,.21,2.35,2.35,0,0,0-.92.67h-1.18l.21-5.18h6v1.12h-4.75l-.12,2.84a3.47,3.47,0,0,1,.93-.51,3.36,3.36,0,0,1,1.2-.19,3.44,3.44,0,0,1,1.2.21,2.67,2.67,0,0,1,1,.62,3.16,3.16,0,0,1,.69,1,4,4,0,0,1,0,2.73,3.27,3.27,0,0,1-.68,1.06,3.16,3.16,0,0,1-1.1.73,3.83,3.83,0,0,1-1.48.27,4.07,4.07,0,0,1-1.35-.21,3.6,3.6,0,0,1-1-.58,3.06,3.06,0,0,1-.71-.82,2.61,2.61,0,0,1-.35-.95Z" /><path class="c" d="M3172.49,282.33v6.74h1.57v1.13h-1.57V292h-1.29V290.2H3167V289l4.15-6.64Zm-1.29,6.74v-4.59l-2.77,4.59Z" /><circle class="c" cx="322.35" cy="268.85" r="6.17" /><circle class="c" cx="371.4" cy="268.85" r="6.17" /><circle class="c" cx="420.46" cy="268.85" r="6.17" /><circle class="c" cx="469.52" cy="268.85" r="6.17" /><circle class="c" cx="518.57" cy="268.85" r="6.17" /><circle class="c" cx="567.63" cy="268.85" r="6.17" /><circle class="c" cx="616.68" cy="268.85" r="6.17" /><circle class="c" cx="665.74" cy="268.85" r="6.17" /><circle class="c" cx="714.8" cy="268.85" r="6.17" /><circle class="c" cx="763.85" cy="268.85" r="6.17" /><circle class="c" cx="812.91" cy="268.85" r="6.17" /><circle class="c" cx="861.97" cy="268.85" r="6.17" /><circle class="c" cx="911.02" cy="268.85" r="6.17" /><circle class="c" cx="960.08" cy="268.85" r="6.17" /><circle class="c" cx="1009.13" cy="268.85" r="6.17" /><circle class="c" cx="1058.19" cy="268.85" r="6.17" /><circle class="c" cx="1156.84" cy="268.85" r="6.17" /><circle class="c" cx="1205.89" cy="268.85" r="6.17" /><circle class="c" cx="1254.93" cy="268.85" r="6.17" /><circle class="c" cx="1303.98" cy="268.85" r="6.17" /><circle class="c" cx="1353.02" cy="268.85" r="6.17" /><circle class="c" cx="1402.07" cy="268.85" r="6.17" /><circle class="c" cx="1451.11" cy="268.85" r="6.17" /><circle class="c" cx="1500.16" cy="268.85" r="6.17" /><circle class="c" cx="1599.27" cy="268.85" r="6.17" /><circle class="c" cx="1648.32" cy="268.85" r="6.17" /><circle class="c" cx="1697.36" cy="268.85" r="6.17" /><circle class="c" cx="1746.41" cy="268.85" r="6.17" /><circle class="c" cx="1795.45" cy="268.85" r="6.17" /><circle class="c" cx="1844.5" cy="268.85" r="6.17" /><circle class="c" cx="1893.55" cy="268.85" r="6.17" /><circle class="c" cx="1942.59" cy="268.85" r="6.17" /><circle class="c" cx="2871.22" cy="268.85" r="6.17" /><circle class="c" cx="2920.26" cy="268.85" r="6.17" /><circle class="c" cx="2969.31" cy="268.85" r="6.17" /><circle class="c" cx="3018.35" cy="268.85" r="6.17" /><circle class="c" cx="3103.91" cy="268.85" r="6.17" /><circle class="c" cx="3170.58" cy="268.85" r="6.17" /><circle class="c" cx="2042.34" cy="268.85" r="6.17" /><circle class="c" cx="2091.39" cy="268.85" r="6.17" /><circle class="c" cx="2140.45" cy="268.85" r="6.17" /><circle class="c" cx="2189.51" cy="268.85" r="6.17" /><circle class="c" cx="2238.56" cy="268.85" r="6.17" /><circle class="c" cx="2287.62" cy="268.85" r="6.17" /><circle class="c" cx="2336.67" cy="268.85" r="6.17" /><circle class="c" cx="2385.73" cy="268.85" r="6.17" /><circle class="c" cx="2434.79" cy="268.85" r="6.17" /><circle class="c" cx="2483.84" cy="268.85" r="6.17" /><circle class="c" cx="2532.9" cy="268.85" r="6.17" /><circle class="c" cx="2581.96" cy="268.85" r="6.17" /><circle class="c" cx="2631.01" cy="268.85" r="6.17" /><circle class="c" cx="2680.07" cy="268.85" r="6.17" /><circle class="c" cx="2729.12" cy="268.85" r="6.17" /><circle class="c" cx="2778.18" cy="268.85" r="6.17" /></svg>