<svg id="products" viewBox="0 0 976.02 89.31"><defs><style>.cls-1{fill:#cdc9c5;}.cls-2,.cls-4{fill:none;stroke:#231f20;stroke-miterlimit:10;}.cls-2{stroke-width:1.71px;}.cls-3{fill:#231f20;}.cls-4{stroke-width:0.67px;}.cls-5{fill:#f2f2f2;}.cls-6{fill:#c6bcb3;}.cls-7{fill:#524e4c;}</style></defs><g id="MS390-24"><rect class="cls-1" x="32.55" width="911.29" height="89.31" rx="4.19" /><line class="cls-2" x1="782.58" x2="782.58" y2="89.31" /><path class="cls-3" d="M657,4.25H606.9a5.94,5.94,0,0,0-6.06,5.82v.35a5.94,5.94,0,0,0,6.06,5.82H657Z" /><rect class="cls-3" x="659.51" y="4.25" width="54.97" height="11.99" /><path class="cls-3" d="M767.55,4.25H717v12h50.53a5.94,5.94,0,0,0,6.06-5.82v-.35A5.94,5.94,0,0,0,767.55,4.25Z" /><path class="cls-3" d="M472.12,4.25H422.05A5.94,5.94,0,0,0,416,10.07v.35a5.94,5.94,0,0,0,6.06,5.82h50.07Z" /><rect class="cls-3" x="474.66" y="4.25" width="54.97" height="11.99" /><path class="cls-3" d="M582.7,4.25H532.17v12H582.7a5.94,5.94,0,0,0,6-5.82v-.35A5.94,5.94,0,0,0,582.7,4.25Z" /><path class="cls-3" d="M287.27,4.25H237.2a5.94,5.94,0,0,0-6.06,5.82v.35a5.94,5.94,0,0,0,6.06,5.82h50.07Z" /><rect class="cls-3" x="289.81" y="4.25" width="54.97" height="11.99" /><path class="cls-3" d="M397.85,4.25H347.32v12h50.53a5.94,5.94,0,0,0,6-5.82v-.35A5.94,5.94,0,0,0,397.85,4.25Z" /><path class="cls-4" d="M83.15,9.61a2.59,2.59,0,0,1,4.14,2.29,2.83,2.83,0,0,1-5.66,0,2.64,2.64,0,0,1,0-.29" /><polyline class="cls-4" points="84.12 8.34 83.14 9.61 84.56 10.29" /><circle class="cls-3" cx="76.1" cy="11.63" r="2.12" /><circle class="cls-5" cx="48.02" cy="11.63" r="2.12" /><g id="logo.cisco"><polygon class="cls-3" points="58.7 16.03 57.88 16.03 57.88 13.13 58.7 13.13 58.7 16.03 58.7 16.03" /><path class="cls-3" d="M65.32,14a1.68,1.68,0,0,0-.69-.15.78.78,0,1,0,0,1.54,1.57,1.57,0,0,0,.69-.15V16a3.21,3.21,0,0,1-.75.1,1.58,1.58,0,0,1-1.73-1.5,1.58,1.58,0,0,1,1.73-1.5,2.35,2.35,0,0,1,.75.11V14Z" /><path class="cls-3" d="M56.75,14a1.74,1.74,0,0,0-.69-.15.78.78,0,1,0,0,1.54,1.61,1.61,0,0,0,.69-.15V16a3.31,3.31,0,0,1-.75.1,1.52,1.52,0,1,1,0-3,2.35,2.35,0,0,1,.75.11V14Z" /><path class="cls-3" d="M69.62,14.58a1.73,1.73,0,0,1-3.43,0,1.73,1.73,0,0,1,3.43,0Zm-1.72-.76a.76.76,0,1,0,.85.76.8.8,0,0,0-.85-.76Z" /><path class="cls-3" d="M61.81,13.79a3.36,3.36,0,0,0-.64-.09c-.33,0-.51.1-.51.24s.24.24.38.28l.23.06c.53.15.77.48.77.83,0,.72-.72,1-1.35,1a5.14,5.14,0,0,1-.88-.08v-.67a3.08,3.08,0,0,0,.77.11c.41,0,.6-.1.6-.27s-.16-.23-.37-.29l-.17-.05c-.46-.13-.84-.37-.84-.84s.45-.91,1.21-.91a4.47,4.47,0,0,1,.8.09v.62Z" /><path class="cls-3" d="M53.49,10a.4.4,0,0,0-.8,0v.84a.4.4,0,1,0,.8,0V10Z" /><path class="cls-3" d="M55.71,8.91a.41.41,0,0,0-.81,0v1.95a.41.41,0,1,0,.81,0V8.91Z" /><path class="cls-3" d="M57.92,7.39a.4.4,0,0,0-.4-.4.41.41,0,0,0-.41.4v4.28a.41.41,0,0,0,.41.4.4.4,0,0,0,.4-.4V7.39Z" /><path class="cls-3" d="M60.13,8.91a.4.4,0,1,0-.8,0v1.95a.4.4,0,1,0,.8,0V8.91Z" /><path class="cls-3" d="M62.35,10a.41.41,0,0,0-.81,0v.84a.41.41,0,1,0,.81,0V10Z" /><path class="cls-3" d="M64.56,8.91a.4.4,0,1,0-.8,0v1.95a.4.4,0,1,0,.8,0V8.91Z" /><path class="cls-3" d="M66.78,7.39a.41.41,0,0,0-.81,0v4.28a.41.41,0,0,0,.81,0V7.39Z" /><path class="cls-3" d="M69,8.91a.41.41,0,0,0-.81,0v1.95a.41.41,0,1,0,.81,0V8.91Z" /><path class="cls-3" d="M71.2,10a.4.4,0,0,0-.8,0v.84a.4.4,0,1,0,.8,0V10Z" /></g><rect class="cls-6" x="416.35" y="20.92" width="171.59" height="52.35" /><polygon class="cls-3" points="436.25 27.9 436.25 23.7 433.49 23.7 433.49 21.38 425.55 21.38 425.55 23.7 422.78 23.7 422.78 27.9 416.58 27.9 416.58 41.09 442.45 41.09 442.45 27.9 436.25 27.9" /><polygon class="cls-3" points="465.39 27.9 465.39 23.7 462.63 23.7 462.63 21.38 454.69 21.38 454.69 23.7 451.92 23.7 451.92 27.9 445.72 27.9 445.72 41.09 471.6 41.09 471.6 27.9 465.39 27.9" /><polygon class="cls-3" points="494.54 27.9 494.54 23.7 491.77 23.7 491.77 21.38 483.83 21.38 483.83 23.7 481.07 23.7 481.07 27.9 474.87 27.9 474.87 41.09 500.74 41.09 500.74 27.9 494.54 27.9" /><polygon class="cls-3" points="523.68 27.9 523.68 23.7 520.92 23.7 520.92 21.38 512.98 21.38 512.98 23.7 510.21 23.7 510.21 27.9 504.01 27.9 504.01 41.09 529.88 41.09 529.88 27.9 523.68 27.9" /><polygon class="cls-3" points="552.83 27.9 552.83 23.7 550.06 23.7 550.06 21.38 542.12 21.38 542.12 23.7 539.35 23.7 539.35 27.9 533.15 27.9 533.15 41.09 559.03 41.09 559.03 27.9 552.83 27.9" /><polygon class="cls-3" points="581.97 27.9 581.97 23.7 579.2 23.7 579.2 21.38 571.26 21.38 571.26 23.7 568.5 23.7 568.5 27.9 562.3 27.9 562.3 41.09 588.17 41.09 588.17 27.9 581.97 27.9" /><polygon class="cls-3" points="568.5 66.24 568.5 70.44 571.26 70.44 571.26 72.76 579.2 72.76 579.2 70.44 581.97 70.44 581.97 66.24 588.17 66.24 588.17 53.05 562.3 53.05 562.3 66.24 568.5 66.24" /><polygon class="cls-3" points="539.35 66.24 539.35 70.44 542.12 70.44 542.12 72.76 550.06 72.76 550.06 70.44 552.83 70.44 552.83 66.24 559.03 66.24 559.03 53.05 533.15 53.05 533.15 66.24 539.35 66.24" /><polygon class="cls-3" points="510.21 66.24 510.21 70.44 512.98 70.44 512.98 72.76 520.92 72.76 520.92 70.44 523.68 70.44 523.68 66.24 529.88 66.24 529.88 53.05 504.01 53.05 504.01 66.24 510.21 66.24" /><polygon class="cls-3" points="481.07 66.24 481.07 70.44 483.83 70.44 483.83 72.76 491.77 72.76 491.77 70.44 494.54 70.44 494.54 66.24 500.74 66.24 500.74 53.05 474.87 53.05 474.87 66.24 481.07 66.24" /><polygon class="cls-3" points="451.92 66.24 451.92 70.44 454.69 70.44 454.69 72.76 462.63 72.76 462.63 70.44 465.39 70.44 465.39 66.24 471.6 66.24 471.6 53.05 445.72 53.05 445.72 66.24 451.92 66.24" /><polygon class="cls-3" points="422.78 66.24 422.78 70.44 425.55 70.44 425.55 72.76 433.49 72.76 433.49 70.44 436.25 70.44 436.25 66.24 442.45 66.24 442.45 53.05 416.58 53.05 416.58 66.24 422.78 66.24" /><rect class="cls-6" x="601.43" y="20.92" width="171.59" height="52.35" /><polygon class="cls-3" points="621.1 27.9 621.1 23.7 618.34 23.7 618.34 21.38 610.39 21.38 610.39 23.7 607.63 23.7 607.63 27.9 601.43 27.9 601.43 41.09 627.3 41.09 627.3 27.9 621.1 27.9" /><polygon class="cls-3" points="650.25 27.9 650.25 23.7 647.48 23.7 647.48 21.38 639.54 21.38 639.54 23.7 636.77 23.7 636.77 27.9 630.57 27.9 630.57 41.09 656.45 41.09 656.45 27.9 650.25 27.9" /><polygon class="cls-3" points="679.39 27.9 679.39 23.7 676.62 23.7 676.62 21.38 668.68 21.38 668.68 23.7 665.92 23.7 665.92 27.9 659.72 27.9 659.72 41.09 685.59 41.09 685.59 27.9 679.39 27.9" /><polygon class="cls-3" points="708.53 27.9 708.53 23.7 705.77 23.7 705.77 21.38 697.83 21.38 697.83 23.7 695.06 23.7 695.06 27.9 688.86 27.9 688.86 41.09 714.73 41.09 714.73 27.9 708.53 27.9" /><polygon class="cls-3" points="737.68 27.9 737.68 23.7 734.91 23.7 734.91 21.38 726.97 21.38 726.97 23.7 724.21 23.7 724.21 27.9 718 27.9 718 41.09 743.88 41.09 743.88 27.9 737.68 27.9" /><polygon class="cls-3" points="766.82 27.9 766.82 23.7 764.05 23.7 764.05 21.38 756.11 21.38 756.11 23.7 753.35 23.7 753.35 27.9 747.15 27.9 747.15 41.09 773.02 41.09 773.02 27.9 766.82 27.9" /><polygon class="cls-3" points="753.35 66.24 753.35 70.44 756.11 70.44 756.11 72.76 764.05 72.76 764.05 70.44 766.82 70.44 766.82 66.24 773.02 66.24 773.02 53.05 747.15 53.05 747.15 66.24 753.35 66.24" /><polygon class="cls-3" points="724.21 66.24 724.21 70.44 726.97 70.44 726.97 72.76 734.91 72.76 734.91 70.44 737.68 70.44 737.68 66.24 743.88 66.24 743.88 53.05 718 53.05 718 66.24 724.21 66.24" /><polygon class="cls-3" points="695.06 66.24 695.06 70.44 697.83 70.44 697.83 72.76 705.77 72.76 705.77 70.44 708.53 70.44 708.53 66.24 714.73 66.24 714.73 53.05 688.86 53.05 688.86 66.24 695.06 66.24" /><polygon class="cls-3" points="665.92 66.24 665.92 70.44 668.68 70.44 668.68 72.76 676.62 72.76 676.62 70.44 679.39 70.44 679.39 66.24 685.59 66.24 685.59 53.05 659.72 53.05 659.72 66.24 665.92 66.24" /><polygon class="cls-3" points="636.77 66.24 636.77 70.44 639.54 70.44 639.54 72.76 647.48 72.76 647.48 70.44 650.25 70.44 650.25 66.24 656.45 66.24 656.45 53.05 630.57 53.05 630.57 66.24 636.77 66.24" /><polygon class="cls-3" points="607.63 66.24 607.63 70.44 610.39 70.44 610.39 72.76 618.34 72.76 618.34 70.44 621.1 70.44 621.1 66.24 627.3 66.24 627.3 53.05 601.43 53.05 601.43 66.24 607.63 66.24" /><circle class="cls-3" cx="425.16" cy="81.46" r="2.14" /><circle class="cls-3" cx="436.27" cy="81.46" r="2.14" /><circle class="cls-3" cx="453.82" cy="81.46" r="2.14" /><circle class="cls-3" cx="464.94" cy="81.46" r="2.14" /><circle class="cls-3" cx="482.49" cy="81.46" r="2.14" /><circle class="cls-3" cx="493.6" cy="81.46" r="2.14" /><circle class="cls-3" cx="511.15" cy="81.46" r="2.14" /><circle class="cls-3" cx="522.26" cy="81.46" r="2.14" /><circle class="cls-3" cx="539.81" cy="81.46" r="2.14" /><circle class="cls-3" cx="550.93" cy="81.46" r="2.14" /><circle class="cls-3" cx="568.48" cy="81.46" r="2.14" /><circle class="cls-3" cx="579.59" cy="81.46" r="2.14" /><circle class="cls-3" cx="799.55" cy="81.46" r="2.14" /><circle class="cls-3" cx="810.66" cy="81.46" r="2.14" /><circle class="cls-3" cx="828.21" cy="81.46" r="2.14" /><circle class="cls-3" cx="839.33" cy="81.46" r="2.14" /><circle class="cls-3" cx="856.88" cy="81.46" r="2.14" /><circle class="cls-3" cx="867.99" cy="81.46" r="2.14" /><circle class="cls-3" cx="885.54" cy="81.46" r="2.14" /><circle class="cls-3" cx="896.65" cy="81.46" r="2.14" /><circle class="cls-3" cx="610.01" cy="81.46" r="2.14" /><circle class="cls-3" cx="621.12" cy="81.46" r="2.14" /><circle class="cls-3" cx="638.67" cy="81.46" r="2.14" /><circle class="cls-3" cx="649.79" cy="81.46" r="2.14" /><circle class="cls-3" cx="667.34" cy="81.46" r="2.14" /><circle class="cls-3" cx="678.45" cy="81.46" r="2.14" /><circle class="cls-3" cx="696" cy="81.46" r="2.14" /><circle class="cls-3" cx="707.11" cy="81.46" r="2.14" /><circle class="cls-3" cx="724.66" cy="81.46" r="2.14" /><circle class="cls-3" cx="735.78" cy="81.46" r="2.14" /><circle class="cls-3" cx="753.33" cy="81.46" r="2.14" /><circle class="cls-3" cx="764.44" cy="81.46" r="2.14" /><rect class="cls-7" x="792.18" y="21.8" width="111.85" height="50.88" rx="2.71" /><polygon class="cls-3" points="819.57 51.66 792.81 51.66 792.81 70.52 800.48 70.52 800.48 73.25 811.21 73.25 811.21 70.52 819.57 70.52 819.57 51.66" /><polygon class="cls-3" points="847.51 51.66 820.75 51.66 820.75 70.52 828.43 70.52 828.43 73.25 839.15 73.25 839.15 70.52 847.51 70.52 847.51 51.66" /><polygon class="cls-3" points="875.45 51.66 848.7 51.66 848.7 70.52 856.37 70.52 856.37 73.25 867.1 73.25 867.1 70.52 875.45 70.52 875.45 51.66" /><polygon class="cls-3" points="903.4 51.66 876.64 51.66 876.64 70.52 884.32 70.52 884.32 73.25 895.04 73.25 895.04 70.52 903.4 70.52 903.4 51.66" /><polygon class="cls-3" points="876.64 42.48 903.4 42.48 903.4 23.62 895.72 23.62 895.72 20.89 884.99 20.89 884.99 23.62 876.64 23.62 876.64 42.48" /><polygon class="cls-3" points="848.7 42.48 875.45 42.48 875.45 23.62 867.78 23.62 867.78 20.89 857.05 20.89 857.05 23.62 848.7 23.62 848.7 42.48" /><polygon class="cls-3" points="820.75 42.48 847.51 42.48 847.51 23.62 839.83 23.62 839.83 20.89 829.11 20.89 829.11 23.62 820.75 23.62 820.75 42.48" /><polygon class="cls-3" points="792.81 42.48 819.57 42.48 819.57 23.62 811.89 23.62 811.89 20.89 801.16 20.89 801.16 23.62 792.81 23.62 792.81 42.48" /><path class="cls-3" d="M846.21,3.22H806a7,7,0,1,0,0,14h40.23Z" /><path class="cls-3" d="M889.31,3.22H849.08v14h40.23a7,7,0,1,0,0-14Z" /><circle class="cls-3" cx="923.07" cy="16.53" r="6.73" /><path class="cls-1" d="M943.66,4.28V85a4.27,4.27,0,0,0,4.27,4.28h23.82A4.27,4.27,0,0,0,976,85V4.28A4.28,4.28,0,0,0,971.75,0H947.93A4.28,4.28,0,0,0,943.66,4.28Zm24.17,78.23h-16a4.88,4.88,0,0,1,0-9.75h16a4.88,4.88,0,1,1,0,9.75ZM957,44.66a2.81,2.81,0,1,1,2.81,2.8A2.81,2.81,0,0,1,957,44.66Zm10.8-28.11h-16a4.88,4.88,0,0,1,0-9.75h16a4.88,4.88,0,1,1,0,9.75Z" /><path class="cls-1" d="M0,4.28V85a4.28,4.28,0,0,0,4.28,4.28H28.09A4.28,4.28,0,0,0,32.37,85V4.28A4.28,4.28,0,0,0,28.09,0H4.28A4.28,4.28,0,0,0,0,4.28ZM24.18,82.51h-16a4.88,4.88,0,1,1,0-9.75h16a4.88,4.88,0,0,1,0,9.75ZM13.38,44.66a2.81,2.81,0,1,1,2.8,2.8A2.81,2.81,0,0,1,13.38,44.66Zm10.8-28.11h-16a4.88,4.88,0,1,1,0-9.75h16a4.88,4.88,0,0,1,0,9.75Z" /></g></svg>