<svg viewBox="0 0 3414.38 309.14"><defs><style>.a{fill:#d0d0d0;}.b{fill:#1a1a1a;}.c{fill:#0f0f10;}.d{fill:#cbc6c3;}.e{fill:#060606;}.f{fill:#eee9e5;}.g{fill:#060707;}.h{fill:#fff;}.i{fill:#231f20;}.j,.m{fill:#afaaa7;stroke:#231f20;stroke-miterlimit:10;}.k{fill:#020202;}.l{fill:#b4afac;}.m{stroke-width:0.94px;}.n{fill:#443a38;}.o{fill:#3f4040;}.p{fill:#9c9c9c;}</style></defs><path class="a" d="M3377,0H37.42A37.43,37.43,0,0,0,0,37.42V271.71a37.43,37.43,0,0,0,37.42,37.43H3377a37.43,37.43,0,0,0,37.43-37.43V37.42A37.43,37.43,0,0,0,3377,0ZM109.32,265.87a24.44,24.44,0,0,1-24.44,24.44H61.76a24.44,24.44,0,0,1-24.44-24.44h0a24.44,24.44,0,0,1,24.44-24.44H84.88a24.44,24.44,0,0,1,24.44,24.44Zm0-222.6A24.44,24.44,0,0,1,84.88,67.71H61.76A24.44,24.44,0,0,1,37.32,43.27h0A24.44,24.44,0,0,1,61.76,18.83H84.88a24.44,24.44,0,0,1,24.44,24.44Zm3267.74,222.6a24.44,24.44,0,0,1-24.44,24.44H3329.5a24.44,24.44,0,0,1-24.44-24.44h0a24.44,24.44,0,0,1,24.44-24.44h23.12a24.44,24.44,0,0,1,24.44,24.44Zm0-222.6a24.45,24.45,0,0,1-24.44,24.44H3329.5a24.44,24.44,0,0,1-24.44-24.44h0a24.44,24.44,0,0,1,24.44-24.44h23.12a24.44,24.44,0,0,1,24.44,24.44Z" /><rect class="b" x="1904.36" y="66.05" width="409.54" height="184.07" /><rect class="b" x="1459.97" y="66.05" width="419.75" height="184.07" /><rect class="c" x="1142.75" y="149.94" width="120.55" height="100.07" /><rect class="d" x="1146.63" y="154.07" width="112.79" height="93.8" /><rect class="e" x="990.49" y="194.86" width="101.06" height="49.21" /><rect class="f" x="1003.32" y="206.42" width="77.28" height="13.32" /><path class="f" d="M1082.08,199H1000a5,5,0,0,0-5,5v32.39a5,5,0,0,0,5,5h82.11a5,5,0,0,0,5-5V203.93A5,5,0,0,0,1082.08,199Zm3,37.37a3,3,0,0,1-3,3h-14.14v-6.58h-10.35v6.58h-31.26v-6.58H1016v6.58h-16a3,3,0,0,1-3-3V203.93a3,3,0,0,1,3-3h82.11a3,3,0,0,1,3,3Z" /><path class="e" d="M1057.32,177l-4.51-2.25v1.48H1035.5l3.8-3.27H1044a2,2,0,1,0,0-1.69h-5.27l-5.77,5h-.79a3.75,3.75,0,1,0,0,1.69h6l4.67,4.67h4.08v.94h3.71v-3.71h-3.71v1.08h-3.38l-3-3h12.31v1.34Z" /><polygon class="g" points="1225.48 181.49 1225.48 169.27 1217.06 169.27 1217.06 160.51 1188.66 160.51 1188.66 169.27 1180.24 169.27 1180.24 181.49 1160.75 181.49 1160.75 229.71 1245.3 229.71 1245.3 181.49 1225.48 181.49" /><rect class="d" x="1461.94" y="68.7" width="415.82" height="178.79" rx="2.75" /><polygon class="g" points="1545.66 91.65 1545.66 79.43 1537.24 79.43 1537.24 70.68 1508.84 70.68 1508.84 79.43 1500.42 79.43 1500.42 91.65 1480.93 91.65 1480.93 139.87 1565.48 139.87 1565.48 91.65 1545.66 91.65" /><polygon class="g" points="1643.42 91.65 1643.42 79.43 1635 79.43 1635 70.68 1606.6 70.68 1606.6 79.43 1598.18 79.43 1598.18 91.65 1578.69 91.65 1578.69 139.87 1663.24 139.87 1663.24 91.65 1643.42 91.65" /><polygon class="g" points="1741.19 91.65 1741.19 79.43 1732.77 79.43 1732.77 70.68 1704.36 70.68 1704.36 79.43 1695.94 79.43 1695.94 91.65 1676.45 91.65 1676.45 139.87 1761 139.87 1761 91.65 1741.19 91.65" /><polygon class="g" points="1838.95 91.65 1838.95 79.43 1830.53 79.43 1830.53 70.68 1802.12 70.68 1802.12 79.43 1793.7 79.43 1793.7 91.65 1774.21 91.65 1774.21 139.87 1858.77 139.87 1858.77 91.65 1838.95 91.65" /><polygon class="g" points="1794.03 224.53 1794.03 236.75 1802.45 236.75 1802.45 245.5 1830.86 245.5 1830.86 236.75 1839.28 236.75 1839.28 224.53 1858.77 224.53 1858.77 176.31 1774.21 176.31 1774.21 224.53 1794.03 224.53" /><polygon class="g" points="1696.27 224.53 1696.27 236.75 1704.69 236.75 1704.69 245.5 1733.1 245.5 1733.1 236.75 1741.52 236.75 1741.52 224.53 1761 224.53 1761 176.31 1676.45 176.31 1676.45 224.53 1696.27 224.53" /><polygon class="g" points="1598.51 224.53 1598.51 236.75 1606.93 236.75 1606.93 245.5 1635.33 245.5 1635.33 236.75 1643.76 236.75 1643.76 224.53 1663.24 224.53 1663.24 176.31 1578.69 176.31 1578.69 224.53 1598.51 224.53" /><polygon class="g" points="1500.75 224.53 1500.75 236.75 1509.17 236.75 1509.17 245.5 1537.57 245.5 1537.57 236.75 1545.99 236.75 1545.99 224.53 1565.48 224.53 1565.48 176.31 1480.93 176.31 1480.93 224.53 1500.75 224.53" /><circle class="h" cx="300.05" cy="214.84" r="7.93" /><circle class="e" cx="356.53" cy="214.84" r="5.76" /><circle class="e" cx="412.35" cy="214.84" r="5.5" /><path class="e" d="M300.05,199.49a8.92,8.92,0,0,1-5.83-15.68l1.31,1.52a6.93,6.93,0,1,0,9.05,0l1.31-1.52a8.93,8.93,0,0,1-5.84,15.68Z" /><rect class="e" x="299.05" y="181.38" width="2" height="10.46" /><path class="e" d="M412.35,183.38a7.14,7.14,0,0,0-1.79.23l1.05-1.6-.84-.55L409,184.23a.91.91,0,0,0-.17.09l.05.09-.27.42.69.33,0,0h0l2.76,1.3.43-.91-1.94-.91a6.11,6.11,0,0,1,1.81-.28,6.27,6.27,0,1,1-6.27,6.27h-1a7.27,7.27,0,1,0,7.27-7.27Z" /><path class="i" d="M354.87,186.78v10.65h-1.52v-4.75h-5.21v4.75h-1.51V186.78h1.51v4.63h5.21v-4.63Z" /><path class="i" d="M364.76,197.43l-1.05-2.69h-5.08l-1.06,2.69H356l4.38-10.65h1.71l4.36,10.65Zm-5.64-3.92h4.1l-2-5.22Z" /><rect class="b" x="1308.22" y="65.39" width="112.62" height="92.64" /><rect class="b" x="1308.22" y="158.04" width="112.62" height="92.64" /><rect class="j" x="1311.13" y="68.04" width="106.79" height="90.05" rx="2.99" /><rect class="j" x="1311.13" y="158.09" width="106.79" height="90.05" rx="3.16" /><polygon class="k" points="1413.8 70.68 1315.26 70.68 1315.26 134.2 1343.61 134.2 1343.61 147.52 1385.45 147.52 1385.45 134.2 1413.8 134.2 1413.8 70.68" /><path class="l" d="M1347.41,129.47h34.24a0,0,0,0,1,0,0v.75a6.52,6.52,0,0,1-6.52,6.52h-21.2a6.52,6.52,0,0,1-6.52-6.52v-.75A0,0,0,0,1,1347.41,129.47Z" /><rect class="m" x="1907.51" y="70.56" width="100.81" height="85.02" rx="2.82" /><polygon class="k" points="2004.42 73.05 1911.4 73.05 1911.4 133.02 1938.17 133.02 1938.17 145.59 1977.66 145.59 1977.66 133.02 2004.42 133.02 2004.42 73.05" /><path class="l" d="M1941.75,128.55h32.32a0,0,0,0,1,0,0v.7a6.15,6.15,0,0,1-6.15,6.15h-20a6.15,6.15,0,0,1-6.15-6.15v-.7A0,0,0,0,1,1941.75,128.55Z" /><rect class="m" x="2008.32" y="70.56" width="100.81" height="85.02" rx="2.82" /><polygon class="k" points="2105.24 73.05 2012.22 73.05 2012.22 133.02 2038.98 133.02 2038.98 145.59 2078.47 145.59 2078.47 133.02 2105.24 133.02 2105.24 73.05" /><path class="l" d="M2042.57,128.55h32.32a0,0,0,0,1,0,0v.7a6.15,6.15,0,0,1-6.15,6.15h-20a6.15,6.15,0,0,1-6.15-6.15v-.7A0,0,0,0,1,2042.57,128.55Z" /><rect class="m" x="2109.13" y="70.56" width="100.81" height="85.02" rx="2.82" /><polygon class="k" points="2206.05 73.05 2113.03 73.05 2113.03 133.02 2139.79 133.02 2139.79 145.59 2179.29 145.59 2179.29 133.02 2206.05 133.02 2206.05 73.05" /><path class="l" d="M2143.38,128.55h32.32a0,0,0,0,1,0,0v.7a6.15,6.15,0,0,1-6.15,6.15h-20a6.15,6.15,0,0,1-6.15-6.15v-.7A0,0,0,0,1,2143.38,128.55Z" /><rect class="m" x="2209.95" y="70.56" width="100.81" height="85.02" rx="2.82" /><polygon class="k" points="2306.86 73.05 2213.84 73.05 2213.84 133.02 2240.61 133.02 2240.61 145.59 2280.1 145.59 2280.1 133.02 2306.86 133.02 2306.86 73.05" /><path class="l" d="M2244.19,128.55h32.32a0,0,0,0,1,0,0v.7a6.15,6.15,0,0,1-6.15,6.15h-20a6.15,6.15,0,0,1-6.15-6.15v-.7A0,0,0,0,1,2244.19,128.55Z" /><rect class="m" x="2209.95" y="160.61" width="100.81" height="85.02" rx="2.82" /><polygon class="k" points="2213.84 243.13 2306.86 243.13 2306.86 183.16 2280.1 183.16 2280.1 170.59 2240.61 170.59 2240.61 183.16 2213.84 183.16 2213.84 243.13" /><path class="l" d="M2244.19,180.77h32.32a0,0,0,0,1,0,0v.7a6.15,6.15,0,0,1-6.15,6.15h-20a6.15,6.15,0,0,1-6.15-6.15v-.7A0,0,0,0,1,2244.19,180.77Z" transform="translate(4520.7 368.41) rotate(180)" /><rect class="m" x="2109.13" y="160.61" width="100.81" height="85.02" rx="2.82" /><polygon class="k" points="2113.03 243.13 2206.05 243.13 2206.05 183.16 2179.29 183.16 2179.29 170.59 2139.79 170.59 2139.79 183.16 2113.03 183.16 2113.03 243.13" /><path class="l" d="M2143.38,180.77h32.32a0,0,0,0,1,0,0v.7a6.15,6.15,0,0,1-6.15,6.15h-20a6.15,6.15,0,0,1-6.15-6.15v-.7A0,0,0,0,1,2143.38,180.77Z" transform="translate(4319.08 368.41) rotate(180)" /><rect class="m" x="2008.32" y="160.61" width="100.81" height="85.02" rx="2.82" /><polygon class="k" points="2012.22 243.13 2105.24 243.13 2105.24 183.16 2078.47 183.16 2078.47 170.59 2038.98 170.59 2038.98 183.16 2012.22 183.16 2012.22 243.13" /><path class="l" d="M2042.57,180.77h32.32a0,0,0,0,1,0,0v.7a6.15,6.15,0,0,1-6.15,6.15h-20a6.15,6.15,0,0,1-6.15-6.15v-.7A0,0,0,0,1,2042.57,180.77Z" transform="translate(4117.45 368.41) rotate(180)" /><rect class="m" x="1907.51" y="160.61" width="100.81" height="85.02" rx="2.82" /><polygon class="k" points="1911.4 243.13 2004.42 243.13 2004.42 183.16 1977.66 183.16 1977.66 170.59 1938.17 170.59 1938.17 183.16 1911.4 183.16 1911.4 243.13" /><path class="l" d="M1941.75,180.77h32.32a0,0,0,0,1,0,0v.7a6.15,6.15,0,0,1-6.15,6.15h-20a6.15,6.15,0,0,1-6.15-6.15v-.7A0,0,0,0,1,1941.75,180.77Z" transform="translate(3915.83 368.41) rotate(180)" /><rect class="b" x="2339.33" y="66.05" width="409.54" height="184.07" /><rect class="m" x="2342.48" y="70.56" width="100.81" height="85.02" rx="2.82" /><polygon class="k" points="2439.39 73.05 2346.38 73.05 2346.38 133.02 2373.14 133.02 2373.14 145.59 2412.63 145.59 2412.63 133.02 2439.39 133.02 2439.39 73.05" /><path class="l" d="M2376.72,128.55H2409a0,0,0,0,1,0,0v.7a6.15,6.15,0,0,1-6.15,6.15h-20a6.15,6.15,0,0,1-6.15-6.15v-.7A0,0,0,0,1,2376.72,128.55Z" /><rect class="m" x="2443.29" y="70.56" width="100.81" height="85.02" rx="2.82" /><polygon class="k" points="2540.21 73.05 2447.19 73.05 2447.19 133.02 2473.95 133.02 2473.95 145.59 2513.45 145.59 2513.45 133.02 2540.21 133.02 2540.21 73.05" /><path class="l" d="M2477.54,128.55h32.32a0,0,0,0,1,0,0v.7a6.15,6.15,0,0,1-6.15,6.15h-20a6.15,6.15,0,0,1-6.15-6.15v-.7A0,0,0,0,1,2477.54,128.55Z" /><rect class="m" x="2544.1" y="70.56" width="100.81" height="85.02" rx="2.82" /><polygon class="k" points="2641.02 73.05 2548 73.05 2548 133.02 2574.76 133.02 2574.76 145.59 2614.26 145.59 2614.26 133.02 2641.02 133.02 2641.02 73.05" /><path class="l" d="M2578.35,128.55h32.32a0,0,0,0,1,0,0v.7a6.15,6.15,0,0,1-6.15,6.15h-20a6.15,6.15,0,0,1-6.15-6.15v-.7A0,0,0,0,1,2578.35,128.55Z" /><rect class="m" x="2644.92" y="70.56" width="100.81" height="85.02" rx="2.82" /><polygon class="k" points="2741.83 73.05 2648.82 73.05 2648.82 133.02 2675.58 133.02 2675.58 145.59 2715.07 145.59 2715.07 133.02 2741.83 133.02 2741.83 73.05" /><path class="l" d="M2679.16,128.55h32.32a0,0,0,0,1,0,0v.7a6.15,6.15,0,0,1-6.15,6.15h-20a6.15,6.15,0,0,1-6.15-6.15v-.7A0,0,0,0,1,2679.16,128.55Z" /><rect class="m" x="2644.92" y="160.61" width="100.81" height="85.02" rx="2.82" /><polygon class="k" points="2648.82 243.13 2741.83 243.13 2741.83 183.16 2715.07 183.16 2715.07 170.59 2675.58 170.59 2675.58 183.16 2648.82 183.16 2648.82 243.13" /><path class="l" d="M2679.16,180.77h32.32a0,0,0,0,1,0,0v.7a6.15,6.15,0,0,1-6.15,6.15h-20a6.15,6.15,0,0,1-6.15-6.15v-.7A0,0,0,0,1,2679.16,180.77Z" transform="translate(5390.65 368.41) rotate(180)" /><rect class="m" x="2544.1" y="160.61" width="100.81" height="85.02" rx="2.82" /><polygon class="k" points="2548 243.13 2641.02 243.13 2641.02 183.16 2614.26 183.16 2614.26 170.59 2574.76 170.59 2574.76 183.16 2548 183.16 2548 243.13" /><path class="l" d="M2578.35,180.77h32.32a0,0,0,0,1,0,0v.7a6.15,6.15,0,0,1-6.15,6.15h-20a6.15,6.15,0,0,1-6.15-6.15v-.7A0,0,0,0,1,2578.35,180.77Z" transform="translate(5189.02 368.41) rotate(180)" /><rect class="m" x="2443.29" y="160.61" width="100.81" height="85.02" rx="2.82" /><polygon class="k" points="2447.19 243.13 2540.21 243.13 2540.21 183.16 2513.45 183.16 2513.45 170.59 2473.95 170.59 2473.95 183.16 2447.19 183.16 2447.19 243.13" /><path class="l" d="M2477.54,180.77h32.32a0,0,0,0,1,0,0v.7a6.15,6.15,0,0,1-6.15,6.15h-20a6.15,6.15,0,0,1-6.15-6.15v-.7A0,0,0,0,1,2477.54,180.77Z" transform="translate(4987.4 368.41) rotate(180)" /><rect class="m" x="2342.48" y="160.61" width="100.81" height="85.02" rx="2.82" /><polygon class="k" points="2346.38 243.13 2439.39 243.13 2439.39 183.16 2412.63 183.16 2412.63 170.59 2373.14 170.59 2373.14 183.16 2346.38 183.16 2346.38 243.13" /><path class="l" d="M2376.72,180.77H2409a0,0,0,0,1,0,0v.7a6.15,6.15,0,0,1-6.15,6.15h-20a6.15,6.15,0,0,1-6.15-6.15v-.7A0,0,0,0,1,2376.72,180.77Z" transform="translate(4785.77 368.41) rotate(180)" /><polygon class="k" points="1413.8 245.5 1315.26 245.5 1315.26 181.98 1343.61 181.98 1343.61 168.66 1385.45 168.66 1385.45 181.98 1413.8 181.98 1413.8 245.5" /><path class="l" d="M1353.93,179.45h21.2a6.52,6.52,0,0,1,6.52,6.52v.75a0,0,0,0,1,0,0h-34.24a0,0,0,0,1,0,0V186A6.52,6.52,0,0,1,1353.93,179.45Z" /><path class="i" d="M1162.32,127.29l-3.38-8.59v8.59h-1.51v-11h2.17l3.48,9.13,3.29-9.13h2v11H1167v-8.51l-3.17,8.51Z" /><path class="i" d="M1170.31,121.58a2.5,2.5,0,0,1,1-1.77,3.89,3.89,0,0,1,2.38-.67,4.46,4.46,0,0,1,1.38.2,2.82,2.82,0,0,1,1,.56,2.53,2.53,0,0,1,.62.87,2.72,2.72,0,0,1,.22,1.11v5.41h-1.21l-.18-1.08a3.49,3.49,0,0,1-1,.93,3.17,3.17,0,0,1-1.61.38,3.49,3.49,0,0,1-1.16-.18,2.47,2.47,0,0,1-.86-.48,2.07,2.07,0,0,1-.54-.71,2.26,2.26,0,0,1-.18-.9,2.23,2.23,0,0,1,.7-1.72,4.63,4.63,0,0,1,2.3-.92l2.32-.39v-.4a1.36,1.36,0,0,0-.48-1.12,2.53,2.53,0,0,0-2.63-.06,1.39,1.39,0,0,0-.5.94Zm2.94,4.7a2.57,2.57,0,0,0,.82-.14,2.28,2.28,0,0,0,.71-.41,2.09,2.09,0,0,0,.51-.6,1.58,1.58,0,0,0,.19-.75v-1l-2,.35a4.37,4.37,0,0,0-.87.22,1.89,1.89,0,0,0-.55.31.86.86,0,0,0-.29.38,1.24,1.24,0,0,0-.09.48,1.06,1.06,0,0,0,.4.88A1.86,1.86,0,0,0,1173.25,126.28Z" /><path class="i" d="M1179,127.29v-7.92h1.21l.16,1a3,3,0,0,1,1.07-.93,3.06,3.06,0,0,1,1.34-.31,2.8,2.8,0,0,1,2,.76,3.05,3.05,0,0,1,.75,2.23v5.16h-1.46v-5.15a1.8,1.8,0,0,0-.43-1.32,1.7,1.7,0,0,0-1.26-.43,2,2,0,0,0-.75.14,1.86,1.86,0,0,0-.63.39,2.06,2.06,0,0,0-.43.64,2.21,2.21,0,0,0-.16.84v4.89Z" /><path class="i" d="M1187.32,121.58a2.49,2.49,0,0,1,1-1.77,3.94,3.94,0,0,1,2.39-.67,4.44,4.44,0,0,1,1.37.2,2.86,2.86,0,0,1,1,.56,2.53,2.53,0,0,1,.62.87,2.89,2.89,0,0,1,.21,1.11v5.41h-1.2l-.18-1.08a3.61,3.61,0,0,1-1,.93,3.2,3.2,0,0,1-1.61.38,3.41,3.41,0,0,1-1.16-.18,2.52,2.52,0,0,1-.87-.48,2,2,0,0,1-.53-.71,2.26,2.26,0,0,1-.18-.9,2.2,2.2,0,0,1,.7-1.72,4.58,4.58,0,0,1,2.3-.92l2.31-.39v-.4a1.35,1.35,0,0,0-.47-1.12,2.53,2.53,0,0,0-2.63-.06,1.4,1.4,0,0,0-.51.94Zm2.94,4.7a2.51,2.51,0,0,0,.81-.14,2.32,2.32,0,0,0,.72-.41,1.91,1.91,0,0,0,.5-.6,1.47,1.47,0,0,0,.19-.75v-1l-2,.35a4.49,4.49,0,0,0-.88.22,1.83,1.83,0,0,0-.54.31.86.86,0,0,0-.29.38,1.24,1.24,0,0,0-.09.48,1,1,0,0,0,.4.88A1.84,1.84,0,0,0,1190.26,126.28Z" /><path class="i" d="M1197.48,127.82a1.39,1.39,0,0,0,.6.94,2.34,2.34,0,0,0,1.36.34,2.4,2.4,0,0,0,1.68-.53,2,2,0,0,0,.56-1.53v-1a2.73,2.73,0,0,1-1.06.76,4,4,0,0,1-1.57.28,3.55,3.55,0,0,1-1.34-.26,3.21,3.21,0,0,1-1.11-.75,3.79,3.79,0,0,1-.77-1.23,4.57,4.57,0,0,1-.29-1.67,5.2,5.2,0,0,1,.26-1.68,3.7,3.7,0,0,1,.73-1.26,3.12,3.12,0,0,1,1.14-.79,3.67,3.67,0,0,1,1.47-.28,3.1,3.1,0,0,1,1.56.36,3,3,0,0,1,1,.92l.23-1h1.2v7.75a3.24,3.24,0,0,1-.24,1.25,2.82,2.82,0,0,1-.71,1,3.34,3.34,0,0,1-1.14.65,4.65,4.65,0,0,1-1.56.24,4,4,0,0,1-2.49-.67,2.69,2.69,0,0,1-1.09-1.77Zm-.41-4.64a3.29,3.29,0,0,0,.18,1.12,2.61,2.61,0,0,0,.49.83,2.29,2.29,0,0,0,.73.51,2.44,2.44,0,0,0,.9.17,2.24,2.24,0,0,0,1.76-.69,2.72,2.72,0,0,0,.63-1.9,3,3,0,0,0-.67-2.11,2.22,2.22,0,0,0-1.72-.72,2.18,2.18,0,0,0-1.66.69A3,3,0,0,0,1197.07,123.18Z" /><path class="i" d="M1212.25,125a3.56,3.56,0,0,1-.46,1,3.12,3.12,0,0,1-.75.79,3.77,3.77,0,0,1-1,.53,4.38,4.38,0,0,1-1.3.19,4.56,4.56,0,0,1-1.56-.26,3.33,3.33,0,0,1-1.23-.79,3.58,3.58,0,0,1-.8-1.31,5.89,5.89,0,0,1,0-3.65,3.64,3.64,0,0,1,.79-1.31,3.18,3.18,0,0,1,1.2-.79,4.19,4.19,0,0,1,1.52-.27,4.55,4.55,0,0,1,1.51.25,2.88,2.88,0,0,1,1.17.8,3.76,3.76,0,0,1,.76,1.4,6.58,6.58,0,0,1,.28,2.06h-6a2.9,2.9,0,0,0,.77,2,2.34,2.34,0,0,0,1.66.63,2.12,2.12,0,0,0,1.25-.36,1.73,1.73,0,0,0,.67-.92Zm-3.6-4.69a2.15,2.15,0,0,0-1.5.55,2.59,2.59,0,0,0-.78,1.63h4.48a2.33,2.33,0,0,0-.68-1.64A2.19,2.19,0,0,0,1208.65,120.31Z" /><path class="i" d="M1214.09,127.29v-7.92h1.2l.15.93a2.47,2.47,0,0,1,1-.9,3.33,3.33,0,0,1,1.28-.26,3.1,3.1,0,0,1,1.4.31,2.17,2.17,0,0,1,.93.94,2.37,2.37,0,0,1,1.16-1,3.93,3.93,0,0,1,1.42-.27,2.7,2.7,0,0,1,2,.71,2.89,2.89,0,0,1,.73,2.14v5.3h-1.47V122.1a1.82,1.82,0,0,0-.38-1.31,1.5,1.5,0,0,0-1.15-.4,1.74,1.74,0,0,0-.8.18,2.06,2.06,0,0,0-.6.45,2.15,2.15,0,0,0-.38.66,2.55,2.55,0,0,0-.13.78v4.83H1219V122.1a1.82,1.82,0,0,0-.39-1.31,1.52,1.52,0,0,0-1.15-.4,1.7,1.7,0,0,0-.74.16,1.92,1.92,0,0,0-.61.43,2,2,0,0,0-.4.64,2.11,2.11,0,0,0-.15.8v4.87Z" /><path class="i" d="M1234.39,125a3.86,3.86,0,0,1-.46,1,3.16,3.16,0,0,1-.76.79,3.58,3.58,0,0,1-1,.53,4.43,4.43,0,0,1-1.3.19,4.56,4.56,0,0,1-1.56-.26,3.25,3.25,0,0,1-1.23-.79,3.73,3.73,0,0,1-.81-1.31,5.89,5.89,0,0,1,0-3.65,3.81,3.81,0,0,1,.8-1.31,3.18,3.18,0,0,1,1.2-.79,4.19,4.19,0,0,1,1.52-.27,4.55,4.55,0,0,1,1.51.25,2.88,2.88,0,0,1,1.17.8,3.76,3.76,0,0,1,.76,1.4,6.58,6.58,0,0,1,.28,2.06h-6a2.86,2.86,0,0,0,.77,2,2.34,2.34,0,0,0,1.66.63,2.09,2.09,0,0,0,1.24-.36,1.75,1.75,0,0,0,.68-.92Zm-3.6-4.69a2.15,2.15,0,0,0-1.5.55,2.59,2.59,0,0,0-.78,1.63H1233a2.29,2.29,0,0,0-.67-1.64A2.19,2.19,0,0,0,1230.79,120.31Z" /><path class="i" d="M1236.23,127.29v-7.92h1.2l.17,1a2.93,2.93,0,0,1,1.06-.93,3.1,3.1,0,0,1,1.34-.31,2.77,2.77,0,0,1,2,.76,3.06,3.06,0,0,1,.76,2.23v5.16h-1.47v-5.15a1.76,1.76,0,0,0-.43-1.32,1.7,1.7,0,0,0-1.26-.43,2.12,2.12,0,0,0-.75.14,1.72,1.72,0,0,0-.62.39,2.06,2.06,0,0,0-.43.64,2,2,0,0,0-.16.84v4.89Z" /><path class="i" d="M1248.39,127.36a3.77,3.77,0,0,1-1.08.16,2,2,0,0,1-1.58-.6,2.33,2.33,0,0,1-.53-1.6v-4.7H1244v-1.25h1.18l.09-1.9h1.37v1.9h1.7v1.25h-1.7v4.73c0,.59.28.89.84.89a2.43,2.43,0,0,0,.38,0,4,4,0,0,0,.51-.09Z" /><path class="i" d="M1339.32,29.36v11h-1.56v-11Z" /><path class="i" d="M1341.52,40.33V32.41h1.21l.16,1a3,3,0,0,1,1.07-.92,3.06,3.06,0,0,1,1.34-.31,2.79,2.79,0,0,1,2,.76,3.05,3.05,0,0,1,.75,2.23v5.16h-1.46V35.18a1.76,1.76,0,0,0-.43-1.32,1.7,1.7,0,0,0-1.26-.43,2.08,2.08,0,0,0-.75.14,1.86,1.86,0,0,0-.63.39,1.93,1.93,0,0,0-.42.63,2.11,2.11,0,0,0-.16.85v4.89Z" /><path class="i" d="M1353.69,40.4a4.28,4.28,0,0,1-1.08.16A2,2,0,0,1,1351,40a2.33,2.33,0,0,1-.53-1.59v-4.7h-1.17V32.41h1.17l.09-1.9H1352v1.9h1.71v1.25H1352v4.73c0,.59.28.89.84.89a2.34,2.34,0,0,0,.38,0,3,3,0,0,0,.52-.1Z" /><path class="i" d="M1362,38a3.56,3.56,0,0,1-.46,1,3.12,3.12,0,0,1-.75.79,3.77,3.77,0,0,1-1,.53,4.38,4.38,0,0,1-1.3.19,4.56,4.56,0,0,1-1.56-.26,3.47,3.47,0,0,1-1.23-.79,3.58,3.58,0,0,1-.8-1.31,5.89,5.89,0,0,1,0-3.65,3.64,3.64,0,0,1,.79-1.31,3.18,3.18,0,0,1,1.2-.79,4.23,4.23,0,0,1,1.52-.27,4.31,4.31,0,0,1,1.51.25,2.88,2.88,0,0,1,1.17.8,3.76,3.76,0,0,1,.76,1.4,6.58,6.58,0,0,1,.28,2.06h-6a2.9,2.9,0,0,0,.77,2,2.36,2.36,0,0,0,1.67.63,2.11,2.11,0,0,0,1.24-.36,1.73,1.73,0,0,0,.67-.92Zm-3.6-4.69a2.23,2.23,0,0,0-1.5.54,2.62,2.62,0,0,0-.78,1.64h4.48a2.29,2.29,0,0,0-.68-1.64A2.19,2.19,0,0,0,1358.36,33.35Z" /><path class="i" d="M1363.8,40.33V32.41h1.2l.2,1.17a2.16,2.16,0,0,1,2-1.4,2.64,2.64,0,0,1,.51,0l.36.07v1.46l-.44-.1a3.89,3.89,0,0,0-.49,0,1.75,1.75,0,0,0-.72.15,1.5,1.5,0,0,0-.61.47,2.69,2.69,0,0,0-.41.85,4.71,4.71,0,0,0-.15,1.27v4Z" /><path class="i" d="M1369.22,40.33V32.41h1.2l.17,1a2.94,2.94,0,0,1,1.07-.92,3,3,0,0,1,1.34-.31,2.76,2.76,0,0,1,2,.76,3,3,0,0,1,.76,2.23v5.16h-1.46V35.18a1.76,1.76,0,0,0-.44-1.32,1.7,1.7,0,0,0-1.25-.43,2.14,2.14,0,0,0-.76.14,1.81,1.81,0,0,0-.62.39,2.13,2.13,0,0,0-.43.63,2.3,2.3,0,0,0-.16.85v4.89Z" /><path class="i" d="M1384.83,38a3.56,3.56,0,0,1-.46,1,3.12,3.12,0,0,1-.75.79,3.77,3.77,0,0,1-1,.53,4.38,4.38,0,0,1-1.3.19,4.56,4.56,0,0,1-1.56-.26,3.47,3.47,0,0,1-1.23-.79,3.58,3.58,0,0,1-.8-1.31,5.89,5.89,0,0,1,0-3.65,3.64,3.64,0,0,1,.79-1.31,3.18,3.18,0,0,1,1.2-.79,4.19,4.19,0,0,1,1.52-.27,4.31,4.31,0,0,1,1.51.25,2.88,2.88,0,0,1,1.17.8,3.76,3.76,0,0,1,.76,1.4,6.58,6.58,0,0,1,.28,2.06h-6a2.9,2.9,0,0,0,.77,2,2.34,2.34,0,0,0,1.66.63,2.12,2.12,0,0,0,1.25-.36,1.73,1.73,0,0,0,.67-.92Zm-3.6-4.69a2.19,2.19,0,0,0-1.5.54,2.62,2.62,0,0,0-.78,1.64h4.48a2.29,2.29,0,0,0-.68-1.64A2.19,2.19,0,0,0,1381.23,33.35Z" /><path class="i" d="M1390.2,40.4a4.16,4.16,0,0,1-1.08.16,2,2,0,0,1-1.58-.61,2.29,2.29,0,0,1-.54-1.59v-4.7h-1.17V32.41H1387l.1-1.9h1.37v1.9h1.7v1.25h-1.7v4.73c0,.59.27.89.83.89a2.34,2.34,0,0,0,.38,0,2.86,2.86,0,0,0,.52-.1Z" /><path class="i" d="M1666.15,40.33H1665l-.22-1.31a3.46,3.46,0,0,1-1.39,1.13,4.63,4.63,0,0,1-2,.41,4.86,4.86,0,0,1-1.91-.38,4.23,4.23,0,0,1-1.55-1.1,5.44,5.44,0,0,1-1-1.8,7.65,7.65,0,0,1-.37-2.45,7,7,0,0,1,.4-2.48,5.06,5.06,0,0,1,1.07-1.78,4.32,4.32,0,0,1,1.59-1.08,5.55,5.55,0,0,1,2-.35,5.3,5.3,0,0,1,1.72.26,4.65,4.65,0,0,1,1.38.73,4,4,0,0,1,1,1.09,3.43,3.43,0,0,1,.46,1.36h-1.52a2.54,2.54,0,0,0-1-1.58,3.7,3.7,0,0,0-3.36-.3,2.89,2.89,0,0,0-1.1.81,4.11,4.11,0,0,0-.73,1.38,6.27,6.27,0,0,0-.27,1.94,6,6,0,0,0,.29,1.94,4.3,4.3,0,0,0,.77,1.39,3.24,3.24,0,0,0,2.4,1.12,3.7,3.7,0,0,0,1.21-.2,3.15,3.15,0,0,0,1-.56,3,3,0,0,0,.68-.87,2.58,2.58,0,0,0,.25-1.11v-.86h-3.21V34.43h4.61Z" /><path class="i" d="M1668.19,40.33v-11h1.46v4.15a3.08,3.08,0,0,1,1.06-1,3.28,3.28,0,0,1,1.59-.37,3.46,3.46,0,0,1,1.42.28,3,3,0,0,1,1.11.79,4,4,0,0,1,.71,1.3,5.89,5.89,0,0,1,.25,1.76,5.58,5.58,0,0,1-.27,1.82,3.82,3.82,0,0,1-.75,1.33,3.17,3.17,0,0,1-1.14.81,3.6,3.6,0,0,1-1.44.29,3.05,3.05,0,0,1-1.54-.36,3.16,3.16,0,0,1-1-.92l-.23,1Zm6.07-4a4,4,0,0,0-.17-1.27,2.63,2.63,0,0,0-.49-.89,1.85,1.85,0,0,0-.73-.52,2.46,2.46,0,0,0-.91-.17,2.39,2.39,0,0,0-.92.18,2.12,2.12,0,0,0-.76.54,2.49,2.49,0,0,0-.52.89,3.89,3.89,0,0,0-.19,1.24,3.42,3.42,0,0,0,.66,2.24,2.16,2.16,0,0,0,1.73.79,2.11,2.11,0,0,0,1.67-.73A3.49,3.49,0,0,0,1674.26,36.28Z" /><path class="i" d="M1683.93,35.39h-4.84V39h5.28v1.31h-6.83v-11h6.83v1.31h-5.28v3.44h4.84Z" /><path class="i" d="M2099.55,37.36a1.79,1.79,0,0,0-.12-.68,1.32,1.32,0,0,0-.49-.56,5.15,5.15,0,0,0-1.05-.51c-.46-.16-1-.35-1.79-.55a9.43,9.43,0,0,1-1.6-.56,4,4,0,0,1-1-.69,2.15,2.15,0,0,1-.55-.84,3.21,3.21,0,0,1-.16-1,2.51,2.51,0,0,1,.26-1.11,2.69,2.69,0,0,1,.76-.9,3.86,3.86,0,0,1,1.24-.59,6.74,6.74,0,0,1,3.3,0,4.42,4.42,0,0,1,1.32.59,3.08,3.08,0,0,1,1.39,2.18h-1.6a1.71,1.71,0,0,0-.81-1.25,3.54,3.54,0,0,0-1.93-.44,4.19,4.19,0,0,0-1.07.11,2.42,2.42,0,0,0-.74.31,1.28,1.28,0,0,0-.43.47,1.33,1.33,0,0,0-.13.58,1.62,1.62,0,0,0,.09.57,1.12,1.12,0,0,0,.41.47,3.83,3.83,0,0,0,.87.45q.55.21,1.5.48a12.46,12.46,0,0,1,1.9.66,5.07,5.07,0,0,1,1.2.74,2.24,2.24,0,0,1,.63.9,3.1,3.1,0,0,1,.19,1.14,2.9,2.9,0,0,1-.28,1.22,3.3,3.3,0,0,1-.83,1,4.33,4.33,0,0,1-1.35.72,5.71,5.71,0,0,1-1.82.27,5.48,5.48,0,0,1-1.65-.24,4.79,4.79,0,0,1-1.34-.66,3.69,3.69,0,0,1-1-1,3.45,3.45,0,0,1-.49-1.37h1.6a2.2,2.2,0,0,0,.86,1.48,3.21,3.21,0,0,0,2,.55,4,4,0,0,0,1.2-.16,2.65,2.65,0,0,0,.86-.41,2,2,0,0,0,.52-.61A1.58,1.58,0,0,0,2099.55,37.36Z" /><path class="i" d="M2109.12,35.7h-4.63v4.63h-1.56v-11h6.72v1.31h-5.16V34.4h4.63Z" /><path class="i" d="M2115,29.36a5,5,0,0,1,3.19.91,3.25,3.25,0,0,1,1.1,2.66,3.17,3.17,0,0,1-1.09,2.58,5,5,0,0,1-3.26.9H2113v3.92h-1.55v-11Zm-2,1.27v4.52h2a3,3,0,0,0,2.08-.57,2.11,2.11,0,0,0,.63-1.65,2.16,2.16,0,0,0-.68-1.7,2.88,2.88,0,0,0-2-.6Z" /><path class="i" d="M2527.59,37.36a1.79,1.79,0,0,0-.12-.68,1.35,1.35,0,0,0-.5-.56,5.15,5.15,0,0,0-1-.51c-.45-.16-1.05-.35-1.79-.55a9.76,9.76,0,0,1-1.6-.56,3.94,3.94,0,0,1-1-.69A2,2,0,0,1,2521,33a3,3,0,0,1-.16-1,2.38,2.38,0,0,1,.26-1.11,2.58,2.58,0,0,1,.76-.9,3.71,3.71,0,0,1,1.23-.59,6.13,6.13,0,0,1,1.68-.21,6,6,0,0,1,1.63.2,4.48,4.48,0,0,1,1.31.59,3.17,3.17,0,0,1,.93.93,3,3,0,0,1,.47,1.25h-1.6a1.72,1.72,0,0,0-.82-1.25,3.5,3.5,0,0,0-1.92-.44,4.27,4.27,0,0,0-1.08.11,2.54,2.54,0,0,0-.74.31,1.25,1.25,0,0,0-.42.47,1.34,1.34,0,0,0-.14.58,1.42,1.42,0,0,0,.1.57,1.09,1.09,0,0,0,.4.47,4.31,4.31,0,0,0,.87.45c.38.14.88.3,1.51.48a12.69,12.69,0,0,1,1.89.66,5,5,0,0,1,1.21.74,2.24,2.24,0,0,1,.63.9,3.33,3.33,0,0,1,.18,1.14,2.76,2.76,0,0,1-.28,1.22,3.16,3.16,0,0,1-.83,1,4.12,4.12,0,0,1-1.35.72,5.66,5.66,0,0,1-1.82.27,5.42,5.42,0,0,1-1.64-.24,4.72,4.72,0,0,1-1.35-.66,3.84,3.84,0,0,1-1-1,3.44,3.44,0,0,1-.48-1.37h1.6a2.16,2.16,0,0,0,.86,1.48,3.18,3.18,0,0,0,1.95.55,4,4,0,0,0,1.21-.16,2.75,2.75,0,0,0,.86-.41,1.93,1.93,0,0,0,.51-.61A1.59,1.59,0,0,0,2527.59,37.36Z" /><path class="i" d="M2537.15,35.7h-4.63v4.63H2531v-11h6.71v1.31h-5.16V34.4h4.63Z" /><path class="i" d="M2543.07,29.36a4.93,4.93,0,0,1,3.19.91,3.23,3.23,0,0,1,1.11,2.66,3.2,3.2,0,0,1-1.09,2.58,5.06,5.06,0,0,1-3.27.9h-2v3.92h-1.55v-11Zm-2,1.27v4.52h2a3.07,3.07,0,0,0,2.09-.57,2.11,2.11,0,0,0,.62-1.65,2.16,2.16,0,0,0-.67-1.7,2.91,2.91,0,0,0-2-.6Z" /><path class="i" d="M2551.86,36.08h-2.51v-1.3h2.51V32.23h1.39v2.55h2.49v1.3h-2.49v2.54h-1.39Z" /><polygon class="n" points="3093.45 194.4 3086.81 194.4 3086.81 171.02 3093.45 171.02 3093.45 194.4 3093.45 194.4" /><path class="n" d="M3146.93,177.71a12.85,12.85,0,0,0-5.59-1.25c-4.29,0-7.26,2.66-7.26,6.24s2.84,6.24,7.26,6.24a12.94,12.94,0,0,0,5.59-1.24V194a23.69,23.69,0,0,1-6,.83c-7.47,0-14-4.57-14-12.11,0-7,5.92-12.1,14-12.1a22.42,22.42,0,0,1,6,.84v6.27Z" /><path class="n" d="M3077.7,177.71a12.67,12.67,0,0,0-5.57-1.25c-4.3,0-7.27,2.66-7.27,6.24s2.83,6.24,7.27,6.24a12.71,12.71,0,0,0,5.57-1.24V194a23.48,23.48,0,0,1-6.06.83c-7.46,0-14-4.57-14-12.11,0-7,5.91-12.1,14-12.1a22.22,22.22,0,0,1,6.06.84v6.27Z" /><path class="n" d="M3181.66,182.7c0,6.69-5.8,12.11-13.88,12.11s-13.87-5.42-13.87-12.11,5.79-12.1,13.87-12.1,13.88,5.42,13.88,12.1Zm-13.88-6.14c-3.93,0-6.85,2.74-6.85,6.14s2.92,6.15,6.85,6.15,6.86-2.75,6.86-6.15-2.92-6.14-6.86-6.14Z" /><path class="n" d="M3118.59,176.33a25,25,0,0,0-5.18-.71c-2.65,0-4.1.79-4.1,1.92,0,1.41,1.94,1.91,3,2.22l1.84.52c4.3,1.21,6.27,3.84,6.27,6.68,0,5.88-5.81,7.85-10.88,7.85a44.55,44.55,0,0,1-7.16-.64v-5.38a27.43,27.43,0,0,0,6.26.88c3.29,0,4.82-.87,4.82-2.2,0-1.18-1.31-1.86-3-2.32-.4-.12-1-.29-1.42-.4-3.69-1-6.76-3-6.76-6.84,0-4.38,3.67-7.31,9.79-7.31a32.58,32.58,0,0,1,6.46.73v5Z" /><path class="n" d="M3051.42,145.87a3.26,3.26,0,0,0-6.51,0v6.81a3.26,3.26,0,0,0,6.51,0v-6.81Z" /><path class="n" d="M3069.29,136.91a3.26,3.26,0,0,0-6.51,0v15.77a3.26,3.26,0,0,0,6.51,0V136.91Z" /><path class="n" d="M3087.17,124.67a3.26,3.26,0,0,0-6.51,0v34.5a3.26,3.26,0,1,0,6.51,0v-34.5Z" /><path class="n" d="M3105.05,136.91a3.25,3.25,0,0,0-6.5,0v15.77a3.25,3.25,0,0,0,6.5,0V136.91Z" /><path class="n" d="M3122.9,145.87a3.25,3.25,0,0,0-6.49,0v6.81a3.25,3.25,0,1,0,6.49,0v-6.81Z" /><path class="n" d="M3140.79,136.91a3.24,3.24,0,0,0-6.48,0v15.77a3.24,3.24,0,1,0,6.48,0V136.91Z" /><path class="n" d="M3158.68,124.67a3.25,3.25,0,0,0-6.49,0v34.5a3.25,3.25,0,1,0,6.49,0v-34.5Z" /><path class="n" d="M3176.57,136.91a3.27,3.27,0,0,0-6.54,0v15.77a3.27,3.27,0,0,0,6.54,0V136.91Z" /><path class="n" d="M3194.42,145.87a3.25,3.25,0,0,0-6.5,0v6.81a3.25,3.25,0,1,0,6.5,0v-6.81Z" /><circle class="o" cx="1041.27" cy="267.36" r="5.45" /><circle class="p" cx="1041.27" cy="267.36" r="3.88" /><circle class="o" cx="1203.03" cy="267.36" r="5.45" /><circle class="p" cx="1203.03" cy="267.36" r="3.88" /><circle class="o" cx="1339.21" cy="267.36" r="5.45" /><circle class="p" cx="1339.21" cy="267.36" r="3.88" /><circle class="o" cx="1389.85" cy="267.36" r="5.45" /><circle class="p" cx="1389.85" cy="267.36" r="3.88" /><circle class="o" cx="1492.06" cy="267.36" r="5.45" /><circle class="p" cx="1492.06" cy="267.36" r="3.88" /><circle class="o" cx="1542.71" cy="267.36" r="5.45" /><circle class="p" cx="1542.71" cy="267.36" r="3.88" /><circle class="o" cx="1593.71" cy="267.36" r="5.45" /><circle class="p" cx="1593.71" cy="267.36" r="3.88" /><circle class="o" cx="1644.35" cy="267.36" r="5.45" /><circle class="p" cx="1644.35" cy="267.36" r="3.88" /><circle class="o" cx="1695.35" cy="267.36" r="5.45" /><circle class="p" cx="1695.35" cy="267.36" r="3.88" /><circle class="o" cx="1745.99" cy="267.36" r="5.45" /><circle class="p" cx="1745.99" cy="267.36" r="3.88" /><circle class="o" cx="1796.99" cy="267.36" r="5.45" /><circle class="p" cx="1796.99" cy="267.36" r="3.88" /><circle class="o" cx="1847.63" cy="267.36" r="5.45" /><circle class="p" cx="1847.63" cy="267.36" r="3.88" /><circle class="o" cx="1931.35" cy="267.36" r="5.45" /><circle class="p" cx="1931.35" cy="267.36" r="3.88" /><circle class="o" cx="1981.99" cy="267.36" r="5.45" /><circle class="p" cx="1981.99" cy="267.36" r="3.88" /><circle class="o" cx="2032.99" cy="267.36" r="5.45" /><circle class="p" cx="2032.99" cy="267.36" r="3.88" /><circle class="o" cx="2083.63" cy="267.36" r="5.45" /><circle class="p" cx="2083.63" cy="267.36" r="3.88" /><circle class="o" cx="2134.63" cy="267.36" r="5.45" /><circle class="p" cx="2134.63" cy="267.36" r="3.88" /><circle class="o" cx="2185.28" cy="267.36" r="5.45" /><circle class="p" cx="2185.28" cy="267.36" r="3.88" /><circle class="o" cx="2236.28" cy="267.36" r="5.45" /><circle class="p" cx="2236.28" cy="267.36" r="3.88" /><circle class="o" cx="2286.92" cy="267.36" r="5.45" /><circle class="p" cx="2286.92" cy="267.36" r="3.88" /><circle class="o" cx="2366.32" cy="267.36" r="5.45" /><circle class="p" cx="2366.32" cy="267.36" r="3.88" /><circle class="o" cx="2416.96" cy="267.36" r="5.45" /><circle class="p" cx="2416.96" cy="267.36" r="3.88" /><circle class="o" cx="2467.96" cy="267.36" r="5.45" /><circle class="p" cx="2467.96" cy="267.36" r="3.88" /><circle class="o" cx="2518.6" cy="267.36" r="5.45" /><circle class="p" cx="2518.6" cy="267.36" r="3.88" /><circle class="o" cx="2569.6" cy="267.36" r="5.45" /><circle class="p" cx="2569.6" cy="267.36" r="3.88" /><circle class="o" cx="2620.25" cy="267.36" r="5.45" /><circle class="p" cx="2620.25" cy="267.36" r="3.88" /><circle class="o" cx="2671.25" cy="267.36" r="5.45" /><circle class="p" cx="2671.25" cy="267.36" r="3.88" /><circle class="o" cx="2721.89" cy="267.36" r="5.45" /><circle class="p" cx="2721.89" cy="267.36" r="3.88" /><path class="i" d="M1331.36,295.81v-9.75l-2.55,1.31v-1.6l2.57-1.34h1.52v11.38Z" /><path class="i" d="M1380.47,287.41a3.64,3.64,0,0,1,.41-1.27,3.42,3.42,0,0,1,.84-1,3.89,3.89,0,0,1,1.21-.69,4.94,4.94,0,0,1,3,0,3.53,3.53,0,0,1,1.16.64,2.86,2.86,0,0,1,.78,1,3.17,3.17,0,0,1,.29,1.35,4.09,4.09,0,0,1-.14,1.08,3.88,3.88,0,0,1-.45,1,8.69,8.69,0,0,1-.84,1.09c-.35.38-.78.82-1.28,1.31l-2.6,2.47h5.26v1.43h-7.37v-1.43l3.7-3.56c.39-.37.72-.7,1-1a7,7,0,0,0,.66-.84,2.89,2.89,0,0,0,.37-.75,2.56,2.56,0,0,0,.12-.79A1.87,1.87,0,0,0,1386,286a2.26,2.26,0,0,0-1.59-.52,2.45,2.45,0,0,0-1.6.5,2,2,0,0,0-.72,1.4Z" /><path class="i" d="M1496.62,292.7a3.1,3.1,0,0,1-.29,1.34,3,3,0,0,1-.81,1.06,3.61,3.61,0,0,1-1.27.69,5.41,5.41,0,0,1-1.66.24,4.43,4.43,0,0,1-2.84-.84,3.32,3.32,0,0,1-1.25-2.21h1.65a2.21,2.21,0,0,0,.78,1.31,3.21,3.21,0,0,0,3.45-.13,1.87,1.87,0,0,0,.65-1.49,2.13,2.13,0,0,0-.21-1,2,2,0,0,0-.52-.67,2.19,2.19,0,0,0-.73-.37,2.63,2.63,0,0,0-.78-.11h-1v-1.35h.91a1.92,1.92,0,0,0,.66-.12,1.84,1.84,0,0,0,.61-.34,1.81,1.81,0,0,0,.45-.59,2,2,0,0,0,.17-.85,1.69,1.69,0,0,0-.19-.8,1.66,1.66,0,0,0-.49-.56,2,2,0,0,0-.7-.32,2.71,2.71,0,0,0-.8-.11,2.53,2.53,0,0,0-1.56.45,1.81,1.81,0,0,0-.73,1.17h-1.64a2.94,2.94,0,0,1,.44-1.2,3.57,3.57,0,0,1,.86-.92,4.13,4.13,0,0,1,1.21-.59,5.13,5.13,0,0,1,1.5-.21,5.22,5.22,0,0,1,1.38.18,3.65,3.65,0,0,1,1.18.54,2.93,2.93,0,0,1,.82.93,2.63,2.63,0,0,1,.31,1.32,2.47,2.47,0,0,1-.58,1.63,3,3,0,0,1-1.47,1,3.34,3.34,0,0,1,.93.34,2.63,2.63,0,0,1,.77.6,2.92,2.92,0,0,1,.54.87A3.08,3.08,0,0,1,1496.62,292.7Z" /><path class="i" d="M1544.25,284.43v7.9h1.83v1.33h-1.83v2.15h-1.51v-2.15h-5v-1.44l4.87-7.79Zm-1.51,7.9V287l-3.25,5.38Z" /><path class="i" d="M1591.21,293a2.16,2.16,0,0,0,.76,1.2,2.51,2.51,0,0,0,1.64.49,2.67,2.67,0,0,0,1-.18,2.18,2.18,0,0,0,.79-.52,2.35,2.35,0,0,0,.52-.84,3.37,3.37,0,0,0,.18-1.14,2.6,2.6,0,0,0-.66-1.92,2.42,2.42,0,0,0-1.77-.66,3.29,3.29,0,0,0-1.2.24,2.93,2.93,0,0,0-1.08.8H1590l.24-6.08h7v1.32h-5.57l-.13,3.33a3.77,3.77,0,0,1,1.08-.6,4,4,0,0,1,1.4-.23,4.19,4.19,0,0,1,1.42.24,3.42,3.42,0,0,1,1.17.74,3.5,3.5,0,0,1,.8,1.21,4.34,4.34,0,0,1,.3,1.68,4,4,0,0,1-.28,1.51,3.69,3.69,0,0,1-.79,1.25,3.77,3.77,0,0,1-1.29.85,4.45,4.45,0,0,1-1.73.32,4.91,4.91,0,0,1-1.59-.25,4.23,4.23,0,0,1-1.22-.68,3.55,3.55,0,0,1-.82-1,3.12,3.12,0,0,1-.42-1.12Z" /><path class="i" d="M1645,288.36a3.74,3.74,0,0,1,1.49.29,3.26,3.26,0,0,1,1.11.79,3.6,3.6,0,0,1,.7,1.21,4.72,4.72,0,0,1,.24,1.53,4.14,4.14,0,0,1-.33,1.71,3.65,3.65,0,0,1-.87,1.21,3.49,3.49,0,0,1-1.22.71,4.18,4.18,0,0,1-1.38.24,3.45,3.45,0,0,1-3-1.4,6.94,6.94,0,0,1-1-4.08,12,12,0,0,1,.35-3.15,5.37,5.37,0,0,1,.94-1.95,3.23,3.23,0,0,1,1.33-1,4.26,4.26,0,0,1,1.52-.28,3.81,3.81,0,0,1,2.23.64,2.91,2.91,0,0,1,1.2,1.76h-1.72a1.47,1.47,0,0,0-.58-.82,1.94,1.94,0,0,0-1.14-.31,2.14,2.14,0,0,0-.93.21,2,2,0,0,0-.78.72,4.83,4.83,0,0,0-.57,1.36,9.41,9.41,0,0,0-.3,2.09,3,3,0,0,1,.58-.69,3.12,3.12,0,0,1,1.41-.7A3.08,3.08,0,0,1,1645,288.36Zm-2.55,3.77a2.64,2.64,0,0,0,.66,1.94,2.17,2.17,0,0,0,1.63.68,2.48,2.48,0,0,0,.86-.16,2,2,0,0,0,.71-.48,2.06,2.06,0,0,0,.48-.78,3,3,0,0,0,.17-1.07,2.75,2.75,0,0,0-.61-1.9,2.07,2.07,0,0,0-1.63-.7,2.26,2.26,0,0,0-1,.21,2,2,0,0,0-.71.54,2.22,2.22,0,0,0-.42.79A2.91,2.91,0,0,0,1642.43,292.13Z" /><path class="i" d="M1694.41,295.81h-1.77l4.76-10h-5.57v-1.4h7.23v1.4Z" /><path class="i" d="M1750.23,287.11a2.36,2.36,0,0,1-.16.9,2.81,2.81,0,0,1-.43.73,3.65,3.65,0,0,1-.6.58,6.28,6.28,0,0,1-.67.43,5.3,5.3,0,0,1,.81.43,4,4,0,0,1,.73.63,3.78,3.78,0,0,1,.54.84,2.67,2.67,0,0,1,.21,1.08,3,3,0,0,1-.3,1.34,3.08,3.08,0,0,1-.85,1.05,4,4,0,0,1-1.31.69,6.07,6.07,0,0,1-3.38,0,4,4,0,0,1-1.3-.66,3.05,3.05,0,0,1-.85-1,2.77,2.77,0,0,1-.3-1.28,3.15,3.15,0,0,1,.2-1.15,3.37,3.37,0,0,1,.53-.86,3.76,3.76,0,0,1,.72-.61,4.73,4.73,0,0,1,.78-.39,3.28,3.28,0,0,1-.65-.37,2.7,2.7,0,0,1-.58-.54,2.77,2.77,0,0,1-.58-1.7,2.93,2.93,0,0,1,.31-1.36,2.9,2.9,0,0,1,.82-.95,3.52,3.52,0,0,1,1.19-.55,5.43,5.43,0,0,1,1.4-.18,5.92,5.92,0,0,1,1.41.17,3.62,3.62,0,0,1,1.18.52,2.45,2.45,0,0,1,.82.9A2.64,2.64,0,0,1,1750.23,287.11Zm-1.23,5.62a2,2,0,0,0-.26-1.09,2.17,2.17,0,0,0-.67-.68,3.59,3.59,0,0,0-.92-.39c-.34-.1-.66-.17-1-.24a4.73,4.73,0,0,0-.73.28,3.28,3.28,0,0,0-.69.48,2.61,2.61,0,0,0-.52.7,2.16,2.16,0,0,0-.2.94,2,2,0,0,0,.15.79,1.84,1.84,0,0,0,.46.64,2.05,2.05,0,0,0,.77.44,3.3,3.3,0,0,0,1.1.17,2.67,2.67,0,0,0,1.87-.57A1.92,1.92,0,0,0,1749,292.73Zm-4.68-5.58a1.87,1.87,0,0,0,.89,1.69,2.86,2.86,0,0,0,.82.35,7.05,7.05,0,0,0,.81.15,4.07,4.07,0,0,0,.63-.31,3,3,0,0,0,.6-.46,2.45,2.45,0,0,0,.43-.62,1.71,1.71,0,0,0,.17-.8,1.48,1.48,0,0,0-.17-.73,1.58,1.58,0,0,0-.46-.54,2,2,0,0,0-.69-.35,2.89,2.89,0,0,0-.84-.12,3.2,3.2,0,0,0-.83.1,2,2,0,0,0-.7.33,1.66,1.66,0,0,0-.48.54A1.57,1.57,0,0,0,1744.32,287.15Z" /><path class="i" d="M1796.69,291.87a3.68,3.68,0,0,1-1.43-.26,3.11,3.11,0,0,1-1.13-.75,3.61,3.61,0,0,1-.73-1.2,4.71,4.71,0,0,1-.26-1.6,4.11,4.11,0,0,1,.3-1.6,3.5,3.5,0,0,1,.8-1.21,3.46,3.46,0,0,1,1.2-.78,3.9,3.9,0,0,1,1.51-.28,3.46,3.46,0,0,1,3,1.36,6.8,6.8,0,0,1,1,4.11,11.84,11.84,0,0,1-.34,3.11,5.59,5.59,0,0,1-.91,2,3.11,3.11,0,0,1-1.33,1,4.59,4.59,0,0,1-1.61.29,3.76,3.76,0,0,1-2.24-.66,3,3,0,0,1-1.2-1.78H1795a1.51,1.51,0,0,0,.61.86,2,2,0,0,0,1.18.31,2.17,2.17,0,0,0,1-.21,1.94,1.94,0,0,0,.78-.71,4.5,4.5,0,0,0,.56-1.35,11.12,11.12,0,0,0,.27-2.1,3.31,3.31,0,0,1-.58.69,3.54,3.54,0,0,1-.68.46,3.28,3.28,0,0,1-.73.24A3.46,3.46,0,0,1,1796.69,291.87Zm2.55-3.76a2.68,2.68,0,0,0-.66-1.95,2.18,2.18,0,0,0-1.63-.67,2.3,2.3,0,0,0-.88.17,2.06,2.06,0,0,0-.71.49,2.17,2.17,0,0,0-.47.78,3.12,3.12,0,0,0-.17,1.05,3.51,3.51,0,0,0,.17,1.12,2.45,2.45,0,0,0,.47.82,1.89,1.89,0,0,0,.72.49,2.33,2.33,0,0,0,.88.16,2.26,2.26,0,0,0,1-.2,2.07,2.07,0,0,0,.72-.54,2.22,2.22,0,0,0,.42-.79A3.22,3.22,0,0,0,1799.24,288.11Z" /><path class="i" d="M1842.46,295.81v-9.75l-2.55,1.31v-1.6l2.57-1.34H1844v11.38Z" /><path class="i" d="M1852.37,296.05a3.68,3.68,0,0,1-1.61-.36,3.43,3.43,0,0,1-1.29-1.09,5.67,5.67,0,0,1-.85-1.87,9.76,9.76,0,0,1-.31-2.64,10,10,0,0,1,.31-2.69,5.18,5.18,0,0,1,.86-1.83,3.47,3.47,0,0,1,1.29-1.05,4,4,0,0,1,3.2,0,3.47,3.47,0,0,1,1.29,1.05,5.18,5.18,0,0,1,.86,1.83,10,10,0,0,1,.31,2.69,9.76,9.76,0,0,1-.31,2.64,5.67,5.67,0,0,1-.85,1.87,3.43,3.43,0,0,1-1.29,1.09A3.68,3.68,0,0,1,1852.37,296.05Zm0-1.3a2,2,0,0,0,1.86-1.13,7.7,7.7,0,0,0,.61-3.53,7.53,7.53,0,0,0-.61-3.5,2.12,2.12,0,0,0-3.72,0,7.53,7.53,0,0,0-.61,3.5,7.7,7.7,0,0,0,.61,3.53A2,2,0,0,0,1852.37,294.75Z" /><polygon class="i" points="1346.69 291.92 1337.78 291.92 1342.24 285.48 1342.24 285.48 1346.69 291.92" /><polygon class="i" points="1391.4 289.03 1400.32 289.03 1395.86 295.47 1395.86 295.47 1391.4 289.03" /><polygon class="i" points="1507.54 291.92 1498.62 291.92 1503.08 285.48 1503.08 285.48 1507.54 291.92" /><polygon class="i" points="1552.25 289.03 1561.17 289.03 1556.71 295.47 1556.71 295.47 1552.25 289.03" /><polygon class="i" points="1609.37 291.92 1600.45 291.92 1604.91 285.48 1604.91 285.48 1609.37 291.92" /><polygon class="i" points="1654.08 289.03 1663 289.03 1658.54 295.47 1658.54 295.47 1654.08 289.03" /><polygon class="i" points="1711.87 291.92 1702.95 291.92 1707.41 285.48 1707.41 285.48 1711.87 291.92" /><polygon class="i" points="1756.58 289.03 1765.5 289.03 1761.04 295.47 1761.04 295.47 1756.58 289.03" /><polygon class="i" points="1815.39 291.92 1806.48 291.92 1810.94 285.48 1810.94 285.48 1815.39 291.92" /><polygon class="i" points="1860.11 289.03 1869.02 289.03 1864.56 295.47 1864.56 295.47 1860.11 289.03" /><path class="i" d="M1914.85,295.81v-9.75l-2.55,1.31v-1.6l2.57-1.34h1.53v11.38Z" /><path class="i" d="M1924.6,295.81v-9.75l-2.55,1.31v-1.6l2.57-1.34h1.52v11.38Z" /><path class="i" d="M1964.75,295.81v-9.75l-2.55,1.31v-1.6l2.57-1.34h1.52v11.38Z" /><path class="i" d="M1970.76,287.41a3.64,3.64,0,0,1,.41-1.27,3.42,3.42,0,0,1,.84-1,3.89,3.89,0,0,1,1.21-.69,4.94,4.94,0,0,1,3,0,3.69,3.69,0,0,1,1.17.64,3,3,0,0,1,.78,1,3.33,3.33,0,0,1,.28,1.35,4.09,4.09,0,0,1-.14,1.08,3.88,3.88,0,0,1-.45,1,7.83,7.83,0,0,1-.84,1.09c-.35.38-.77.82-1.28,1.31l-2.6,2.47h5.26v1.43H1971v-1.43l3.7-3.56c.39-.37.72-.7,1-1a7,7,0,0,0,.66-.84,2.89,2.89,0,0,0,.37-.75,2.56,2.56,0,0,0,.12-.79,1.87,1.87,0,0,0-.56-1.41,2.24,2.24,0,0,0-1.59-.52,2.45,2.45,0,0,0-1.6.5,2,2,0,0,0-.72,1.4Z" /><path class="i" d="M2016.44,295.81v-9.75l-2.55,1.31v-1.6l2.56-1.34H2018v11.38Z" /><path class="i" d="M2030.39,292.7a3.09,3.09,0,0,1-.28,1.34,3,3,0,0,1-.82,1.06,3.61,3.61,0,0,1-1.27.69,5.41,5.41,0,0,1-1.66.24,4.43,4.43,0,0,1-2.84-.84,3.36,3.36,0,0,1-1.25-2.21h1.66a2.21,2.21,0,0,0,.78,1.31,3.2,3.2,0,0,0,3.44-.13,1.87,1.87,0,0,0,.65-1.49,2.27,2.27,0,0,0-.2-1,2.22,2.22,0,0,0-.53-.67,2.19,2.19,0,0,0-.73-.37,2.63,2.63,0,0,0-.78-.11h-.94v-1.35h.9a1.92,1.92,0,0,0,.66-.12,1.84,1.84,0,0,0,.61-.34,1.68,1.68,0,0,0,.45-.59,2,2,0,0,0,.17-.85,1.58,1.58,0,0,0-.19-.8,1.66,1.66,0,0,0-.49-.56,2,2,0,0,0-.69-.32,2.82,2.82,0,0,0-.81-.11,2.53,2.53,0,0,0-1.56.45,1.81,1.81,0,0,0-.73,1.17h-1.64a3.1,3.1,0,0,1,.44-1.2,3.57,3.57,0,0,1,.86-.92,4.13,4.13,0,0,1,1.21-.59,5.13,5.13,0,0,1,1.5-.21,5.22,5.22,0,0,1,1.38.18,3.65,3.65,0,0,1,1.18.54,2.81,2.81,0,0,1,.82.93,2.63,2.63,0,0,1,.31,1.32,2.47,2.47,0,0,1-.58,1.63,3,3,0,0,1-1.47,1,3.34,3.34,0,0,1,.93.34,2.63,2.63,0,0,1,.77.6,2.92,2.92,0,0,1,.54.87A3.08,3.08,0,0,1,2030.39,292.7Z" /><path class="i" d="M2067.86,295.81v-9.75l-2.55,1.31v-1.6l2.57-1.34h1.52v11.38Z" /><path class="i" d="M2080.11,284.43v7.9H2082v1.33h-1.84v2.15h-1.51v-2.15h-5v-1.44l4.88-7.79Zm-1.51,7.9V287l-3.25,5.38Z" /><path class="i" d="M2121.19,295.81v-9.75l-2.55,1.31v-1.6l2.57-1.34h1.52v11.38Z" /><path class="i" d="M2128.71,293a2.16,2.16,0,0,0,.76,1.2,2.51,2.51,0,0,0,1.64.49,2.63,2.63,0,0,0,1-.18,2.09,2.09,0,0,0,.79-.52,2.35,2.35,0,0,0,.52-.84,3.37,3.37,0,0,0,.18-1.14,2.6,2.6,0,0,0-.66-1.92,2.42,2.42,0,0,0-1.77-.66,3.29,3.29,0,0,0-1.2.24,2.93,2.93,0,0,0-1.08.8h-1.38l.25-6.08h7v1.32h-5.57l-.13,3.33a3.77,3.77,0,0,1,1.08-.6,4,4,0,0,1,1.4-.23,4.19,4.19,0,0,1,1.42.24,3.42,3.42,0,0,1,1.17.74,3.5,3.5,0,0,1,.8,1.21,4.34,4.34,0,0,1,.3,1.68,4.25,4.25,0,0,1-.27,1.51,3.66,3.66,0,0,1-2.08,2.1,4.54,4.54,0,0,1-1.74.32,5,5,0,0,1-1.59-.25,4,4,0,0,1-1.21-.68,3.59,3.59,0,0,1-.83-1,3.31,3.31,0,0,1-.42-1.12Z" /><path class="i" d="M2173.76,295.81v-9.75l-2.55,1.31v-1.6l2.56-1.34h1.53v11.38Z" /><path class="i" d="M2184.19,288.36a3.69,3.69,0,0,1,1.48.29,3.21,3.21,0,0,1,1.12.79,3.42,3.42,0,0,1,.69,1.21,4.47,4.47,0,0,1,.25,1.53,4,4,0,0,1-.34,1.71,3.63,3.63,0,0,1-.86,1.21,3.49,3.49,0,0,1-1.22.71,4.18,4.18,0,0,1-1.38.24,3.45,3.45,0,0,1-3-1.4,6.94,6.94,0,0,1-1-4.08,12,12,0,0,1,.35-3.15,5.37,5.37,0,0,1,.93-1.95,3.26,3.26,0,0,1,1.34-1,4.18,4.18,0,0,1,1.52-.28,3.81,3.81,0,0,1,2.23.64,2.91,2.91,0,0,1,1.2,1.76h-1.72a1.44,1.44,0,0,0-.59-.82,1.89,1.89,0,0,0-1.13-.31,2.11,2.11,0,0,0-.93.21,2,2,0,0,0-.78.72,4.83,4.83,0,0,0-.58,1.36,10.76,10.76,0,0,0-.3,2.09,3.35,3.35,0,0,1,.59-.69,3.12,3.12,0,0,1,1.41-.7A3.08,3.08,0,0,1,2184.19,288.36Zm-2.55,3.77a2.67,2.67,0,0,0,.65,1.94,2.21,2.21,0,0,0,1.64.68,2.48,2.48,0,0,0,.86-.16,2,2,0,0,0,.71-.48,2.06,2.06,0,0,0,.48-.78,3,3,0,0,0,.17-1.07,2.75,2.75,0,0,0-.61-1.9,2.07,2.07,0,0,0-1.63-.7,2.26,2.26,0,0,0-1,.21,1.92,1.92,0,0,0-.71.54,2.42,2.42,0,0,0-.43.79A3.22,3.22,0,0,0,2181.64,292.13Z" /><path class="i" d="M2224.46,295.81v-9.75l-2.56,1.31v-1.6l2.57-1.34H2226v11.38Z" /><path class="i" d="M2233.29,295.81h-1.77l4.76-10h-5.57v-1.4h7.23v1.4Z" /><path class="i" d="M2276.8,295.81v-9.75l-2.55,1.31v-1.6l2.57-1.34h1.53v11.38Z" /><path class="i" d="M2290.43,287.11a2.36,2.36,0,0,1-.16.9,2.81,2.81,0,0,1-.43.73,3.65,3.65,0,0,1-.6.58,5.52,5.52,0,0,1-.68.43,5.39,5.39,0,0,1,.82.43,4,4,0,0,1,.73.63,3.42,3.42,0,0,1,.53.84,2.67,2.67,0,0,1,.21,1.08,3,3,0,0,1-.3,1.34,3.05,3.05,0,0,1-.84,1.05,4,4,0,0,1-1.31.69,6.07,6.07,0,0,1-3.38,0,3.88,3.88,0,0,1-1.3-.66,3.05,3.05,0,0,1-.85-1,2.77,2.77,0,0,1-.3-1.28,3.15,3.15,0,0,1,.2-1.15,3.11,3.11,0,0,1,.53-.86,3.76,3.76,0,0,1,.72-.61,4.73,4.73,0,0,1,.78-.39,3.28,3.28,0,0,1-.65-.37,2.7,2.7,0,0,1-.58-.54,2.77,2.77,0,0,1-.58-1.7,2.93,2.93,0,0,1,.31-1.36,2.9,2.9,0,0,1,.82-.95,3.52,3.52,0,0,1,1.19-.55,5.43,5.43,0,0,1,1.4-.18,5.92,5.92,0,0,1,1.41.17,3.62,3.62,0,0,1,1.18.52,2.54,2.54,0,0,1,.82.9A2.64,2.64,0,0,1,2290.43,287.11Zm-1.23,5.62a2,2,0,0,0-.26-1.09,2.21,2.21,0,0,0-.68-.68,3.38,3.38,0,0,0-.91-.39c-.34-.1-.66-.17-1-.24a4.73,4.73,0,0,0-.73.28,3.28,3.28,0,0,0-.69.48,2.61,2.61,0,0,0-.52.7,2.24,2.24,0,0,0,0,1.73,1.72,1.72,0,0,0,.46.64,2.05,2.05,0,0,0,.77.44,3.3,3.3,0,0,0,1.1.17,2.67,2.67,0,0,0,1.87-.57A1.92,1.92,0,0,0,2289.2,292.73Zm-4.68-5.58a1.87,1.87,0,0,0,.89,1.69,2.86,2.86,0,0,0,.82.35,7.05,7.05,0,0,0,.81.15,4.56,4.56,0,0,0,.63-.31,2.93,2.93,0,0,0,.59-.46,2.26,2.26,0,0,0,.44-.62,1.71,1.71,0,0,0,.17-.8,1.48,1.48,0,0,0-.17-.73,1.7,1.7,0,0,0-.46-.54,2.24,2.24,0,0,0-.69-.35,2.94,2.94,0,0,0-.84-.12,3.2,3.2,0,0,0-.83.1,2,2,0,0,0-.7.33,1.66,1.66,0,0,0-.48.54A1.57,1.57,0,0,0,2284.52,287.15Z" /><polygon class="i" points="1938.8 291.92 1929.88 291.92 1934.34 285.48 1934.34 285.48 1938.8 291.92" /><polygon class="i" points="1983.51 289.03 1992.43 289.03 1987.97 295.47 1987.97 295.47 1983.51 289.03" /><polygon class="i" points="2040.63 291.92 2031.71 291.92 2036.17 285.48 2036.17 285.48 2040.63 291.92" /><polygon class="i" points="2085.34 289.03 2094.26 289.03 2089.8 295.47 2089.8 295.47 2085.34 289.03" /><polygon class="i" points="2147.11 291.92 2138.2 291.92 2142.66 285.48 2142.66 285.48 2147.11 291.92" /><polygon class="i" points="2190.22 289.03 2199.13 289.03 2194.67 295.47 2194.67 295.47 2190.22 289.03" /><polygon class="i" points="2249.54 291.92 2240.62 291.92 2245.08 285.48 2245.08 285.48 2249.54 291.92" /><polygon class="i" points="2294.25 289.03 2303.17 289.03 2298.71 295.47 2298.71 295.47 2294.25 289.03" /><path class="i" d="M2345.09,295.81v-9.75l-2.55,1.31v-1.6l2.57-1.34h1.52v11.38Z" /><path class="i" d="M2354.8,291.87a3.63,3.63,0,0,1-1.42-.26,3.11,3.11,0,0,1-1.13-.75,3.61,3.61,0,0,1-.73-1.2,4.71,4.71,0,0,1-.26-1.6,4.11,4.11,0,0,1,.3-1.6,3.5,3.5,0,0,1,.8-1.21,3.46,3.46,0,0,1,1.2-.78,3.89,3.89,0,0,1,1.5-.28,3.46,3.46,0,0,1,3,1.36,6.87,6.87,0,0,1,1,4.11,11.84,11.84,0,0,1-.34,3.11,5.59,5.59,0,0,1-.91,2,3.11,3.11,0,0,1-1.33,1,4.59,4.59,0,0,1-1.61.29,3.76,3.76,0,0,1-2.24-.66,3,3,0,0,1-1.2-1.78h1.72a1.51,1.51,0,0,0,.61.86,2,2,0,0,0,1.17.31,2.18,2.18,0,0,0,1-.21,2,2,0,0,0,.78-.71,4.26,4.26,0,0,0,.55-1.35,10.28,10.28,0,0,0,.28-2.1,3.06,3.06,0,0,1-1.27,1.15,3.21,3.21,0,0,1-.72.24A3.49,3.49,0,0,1,2354.8,291.87Zm2.55-3.76a2.67,2.67,0,0,0-.65-1.95,2.2,2.2,0,0,0-1.64-.67,2.29,2.29,0,0,0-.87.17,2.06,2.06,0,0,0-.71.49,2.17,2.17,0,0,0-.47.78,3.12,3.12,0,0,0-.17,1.05,3.51,3.51,0,0,0,.17,1.12,2.45,2.45,0,0,0,.47.82,1.89,1.89,0,0,0,.72.49,2.33,2.33,0,0,0,.88.16,2.26,2.26,0,0,0,1-.2,2,2,0,0,0,.71-.54,2.42,2.42,0,0,0,.43-.79A3.22,3.22,0,0,0,2357.35,288.11Z" /><path class="i" d="M2391.25,287.41a3.66,3.66,0,0,1,.42-1.27,3.39,3.39,0,0,1,.83-1,3.89,3.89,0,0,1,1.21-.69,4.94,4.94,0,0,1,3,0,3.48,3.48,0,0,1,1.17.64,3,3,0,0,1,.78,1,3.17,3.17,0,0,1,.28,1.35,4.09,4.09,0,0,1-.14,1.08,3.88,3.88,0,0,1-.45,1,7.83,7.83,0,0,1-.84,1.09c-.35.38-.77.82-1.28,1.31l-2.6,2.47h5.26v1.43h-7.37v-1.43l3.7-3.56c.39-.37.72-.7,1-1a7,7,0,0,0,.66-.84,2.89,2.89,0,0,0,.37-.75,2.56,2.56,0,0,0,.12-.79,1.87,1.87,0,0,0-.56-1.41,2.24,2.24,0,0,0-1.59-.52,2.45,2.45,0,0,0-1.6.5,2,2,0,0,0-.72,1.4Z" /><path class="i" d="M2404.9,296.05a3.65,3.65,0,0,1-1.61-.36,3.43,3.43,0,0,1-1.29-1.09,5.68,5.68,0,0,1-.86-1.87,10.17,10.17,0,0,1-.31-2.64,10.42,10.42,0,0,1,.31-2.69,5.56,5.56,0,0,1,.86-1.83,3.42,3.42,0,0,1,1.3-1.05,3.85,3.85,0,0,1,1.6-.33,3.92,3.92,0,0,1,1.6.33,3.47,3.47,0,0,1,1.29,1.05,5.36,5.36,0,0,1,.86,1.83,10.42,10.42,0,0,1,.31,2.69,10.17,10.17,0,0,1-.31,2.64,5.68,5.68,0,0,1-.86,1.87,3.43,3.43,0,0,1-1.29,1.09A3.61,3.61,0,0,1,2404.9,296.05Zm0-1.3a2,2,0,0,0,1.86-1.13,7.84,7.84,0,0,0,.61-3.53,7.66,7.66,0,0,0-.61-3.5,2,2,0,0,0-1.86-1.1,2,2,0,0,0-1.86,1.1,7.53,7.53,0,0,0-.61,3.5,7.7,7.7,0,0,0,.61,3.53A2,2,0,0,0,2404.9,294.75Z" /><path class="i" d="M2442.94,287.41a3.64,3.64,0,0,1,.41-1.27,3.42,3.42,0,0,1,.84-1,3.89,3.89,0,0,1,1.21-.69,4.63,4.63,0,0,1,1.53-.24,4.58,4.58,0,0,1,1.47.23,3.48,3.48,0,0,1,1.17.64,3,3,0,0,1,.78,1,3.17,3.17,0,0,1,.29,1.35,4.09,4.09,0,0,1-.14,1.08,3.61,3.61,0,0,1-.46,1,7.69,7.69,0,0,1-.83,1.09c-.35.38-.78.82-1.28,1.31l-2.6,2.47h5.26v1.43h-7.38v-1.43l3.71-3.56c.39-.37.72-.7,1-1a7,7,0,0,0,.66-.84,2.89,2.89,0,0,0,.37-.75,2.56,2.56,0,0,0,.12-.79,1.87,1.87,0,0,0-.56-1.41,2.26,2.26,0,0,0-1.59-.52,2.45,2.45,0,0,0-1.6.5,2,2,0,0,0-.72,1.4Z" /><path class="i" d="M2456.42,295.81v-9.75l-2.55,1.31v-1.6l2.57-1.34H2458v11.38Z" /><path class="i" d="M2494.36,287.41a3.88,3.88,0,0,1,.42-1.27,3.55,3.55,0,0,1,.83-1,3.89,3.89,0,0,1,1.21-.69,4.94,4.94,0,0,1,3,0,3.48,3.48,0,0,1,1.17.64,3,3,0,0,1,.78,1,3.17,3.17,0,0,1,.28,1.35,3.71,3.71,0,0,1-.14,1.08,3.88,3.88,0,0,1-.45,1,7.83,7.83,0,0,1-.84,1.09c-.34.38-.77.82-1.28,1.31l-2.6,2.47H2502v1.43h-7.37v-1.43l3.7-3.56c.39-.37.72-.7,1-1a8,8,0,0,0,.65-.84,3,3,0,0,0,.38-.75,2.9,2.9,0,0,0,.11-.79,1.87,1.87,0,0,0-.56-1.41,2.21,2.21,0,0,0-1.58-.52,2.43,2.43,0,0,0-1.6.5,2,2,0,0,0-.73,1.4Z" /><path class="i" d="M2504.11,287.41a3.64,3.64,0,0,1,.41-1.27,3.42,3.42,0,0,1,.84-1,3.89,3.89,0,0,1,1.21-.69,4.94,4.94,0,0,1,3,0,3.69,3.69,0,0,1,1.17.64,3,3,0,0,1,.77,1,3.17,3.17,0,0,1,.29,1.35,4.09,4.09,0,0,1-.14,1.08,3.88,3.88,0,0,1-.45,1,8.69,8.69,0,0,1-.84,1.09c-.35.38-.78.82-1.28,1.31l-2.6,2.47h5.26v1.43h-7.38v-1.43l3.71-3.56c.39-.37.72-.7,1-1a7,7,0,0,0,.66-.84,2.89,2.89,0,0,0,.37-.75,2.56,2.56,0,0,0,.12-.79,1.87,1.87,0,0,0-.56-1.41,2.26,2.26,0,0,0-1.59-.52,2.45,2.45,0,0,0-1.6.5,2,2,0,0,0-.72,1.4Z" /><path class="i" d="M2547.69,287.41a3.64,3.64,0,0,1,.41-1.27,3.58,3.58,0,0,1,.84-1,3.89,3.89,0,0,1,1.21-.69,4.94,4.94,0,0,1,3,0,3.48,3.48,0,0,1,1.17.64,3,3,0,0,1,.78,1,3.33,3.33,0,0,1,.28,1.35,4.09,4.09,0,0,1-.14,1.08,3.88,3.88,0,0,1-.45,1,7.83,7.83,0,0,1-.84,1.09c-.35.38-.77.82-1.28,1.31l-2.6,2.47h5.26v1.43H2548v-1.43l3.7-3.56c.39-.37.72-.7,1-1a7,7,0,0,0,.66-.84,2.89,2.89,0,0,0,.37-.75,2.56,2.56,0,0,0,.12-.79,1.87,1.87,0,0,0-.56-1.41,2.24,2.24,0,0,0-1.59-.52,2.45,2.45,0,0,0-1.6.5,2,2,0,0,0-.72,1.4Z" /><path class="i" d="M2565.38,292.7a3.09,3.09,0,0,1-.28,1.34,3,3,0,0,1-.82,1.06,3.61,3.61,0,0,1-1.27.69,5.41,5.41,0,0,1-1.66.24,4.43,4.43,0,0,1-2.84-.84,3.32,3.32,0,0,1-1.25-2.21h1.66a2.11,2.11,0,0,0,.78,1.31,3.2,3.2,0,0,0,3.44-.13,1.87,1.87,0,0,0,.65-1.49,2.27,2.27,0,0,0-.2-1,2.22,2.22,0,0,0-.53-.67,2.19,2.19,0,0,0-.73-.37,2.63,2.63,0,0,0-.78-.11h-1v-1.35h.91a1.92,1.92,0,0,0,.66-.12,1.84,1.84,0,0,0,.61-.34,1.68,1.68,0,0,0,.45-.59,2,2,0,0,0,.17-.85,1.58,1.58,0,0,0-.19-.8,1.66,1.66,0,0,0-.49-.56,2,2,0,0,0-.69-.32,2.82,2.82,0,0,0-.81-.11,2.53,2.53,0,0,0-1.56.45,1.81,1.81,0,0,0-.73,1.17h-1.64a3.1,3.1,0,0,1,.44-1.2,3.57,3.57,0,0,1,.86-.92,4.13,4.13,0,0,1,1.21-.59,5.13,5.13,0,0,1,1.5-.21,5.22,5.22,0,0,1,1.38.18,3.65,3.65,0,0,1,1.18.54,2.81,2.81,0,0,1,.82.93,2.63,2.63,0,0,1,.31,1.32,2.47,2.47,0,0,1-.58,1.63,3,3,0,0,1-1.47,1,3.34,3.34,0,0,1,.93.34,2.63,2.63,0,0,1,.77.6,2.92,2.92,0,0,1,.54.87A3.08,3.08,0,0,1,2565.38,292.7Z" /><path class="i" d="M2600.26,287.41a3.64,3.64,0,0,1,.41-1.27,3.42,3.42,0,0,1,.84-1,3.89,3.89,0,0,1,1.21-.69,4.94,4.94,0,0,1,3,0,3.69,3.69,0,0,1,1.17.64,2.84,2.84,0,0,1,.77,1,3.17,3.17,0,0,1,.29,1.35,4.09,4.09,0,0,1-.14,1.08,3.88,3.88,0,0,1-.45,1,7.83,7.83,0,0,1-.84,1.09c-.35.38-.78.82-1.28,1.31l-2.6,2.47h5.26v1.43h-7.37v-1.43l3.7-3.56c.39-.37.72-.7,1-1a7,7,0,0,0,.66-.84,2.89,2.89,0,0,0,.37-.75,2.56,2.56,0,0,0,.12-.79,1.87,1.87,0,0,0-.56-1.41,2.24,2.24,0,0,0-1.59-.52,2.45,2.45,0,0,0-1.6.5,2,2,0,0,0-.72,1.4Z" /><path class="i" d="M2616.24,284.43v7.9h1.84v1.33h-1.84v2.15h-1.51v-2.15h-5v-1.44l4.87-7.79Zm-1.51,7.9V287l-3.25,5.38Z" /><path class="i" d="M2651,287.41a3.64,3.64,0,0,1,.41-1.27,3.42,3.42,0,0,1,.84-1,3.78,3.78,0,0,1,1.21-.69,4.9,4.9,0,0,1,3,0,3.48,3.48,0,0,1,1.17.64,3,3,0,0,1,.78,1,3.17,3.17,0,0,1,.29,1.35,4.09,4.09,0,0,1-.14,1.08,3.92,3.92,0,0,1-.46,1,8.53,8.53,0,0,1-.83,1.09c-.35.38-.78.82-1.29,1.31l-2.6,2.47h5.27v1.43h-7.38v-1.43l3.71-3.56c.39-.37.71-.7,1-1a9.94,9.94,0,0,0,.66-.84,2.89,2.89,0,0,0,.37-.75,2.56,2.56,0,0,0,.11-.79,1.83,1.83,0,0,0-.56-1.41,2.21,2.21,0,0,0-1.58-.52,2.45,2.45,0,0,0-1.6.5,2,2,0,0,0-.72,1.4Z" /><path class="i" d="M2662.21,293a2.18,2.18,0,0,0,.77,1.2,2.49,2.49,0,0,0,1.64.49,2.61,2.61,0,0,0,1-.18,2,2,0,0,0,.79-.52,2.22,2.22,0,0,0,.52-.84,3.36,3.36,0,0,0,.19-1.14,2.56,2.56,0,0,0-.67-1.92,2.39,2.39,0,0,0-1.77-.66,3.2,3.2,0,0,0-1.19.24,2.77,2.77,0,0,0-1.08.8H2661l.24-6.08h7v1.32h-5.57l-.13,3.33a3.88,3.88,0,0,1,2.49-.83,4.09,4.09,0,0,1,1.41.24,3.33,3.33,0,0,1,1.17.74,3.37,3.37,0,0,1,.8,1.21,4.34,4.34,0,0,1,.31,1.68,4.26,4.26,0,0,1-.28,1.51,3.57,3.57,0,0,1-.8,1.25,3.63,3.63,0,0,1-1.28.85,4.54,4.54,0,0,1-1.74.32,4.89,4.89,0,0,1-1.58-.25,4.11,4.11,0,0,1-1.22-.68,3.59,3.59,0,0,1-.83-1,3.1,3.1,0,0,1-.41-1.12Z" /><path class="i" d="M2703.3,287.41a3.88,3.88,0,0,1,.42-1.27,3.42,3.42,0,0,1,.84-1,3.68,3.68,0,0,1,1.21-.69,4.9,4.9,0,0,1,3,0,3.48,3.48,0,0,1,1.17.64,3,3,0,0,1,.78,1,3.17,3.17,0,0,1,.28,1.35,4.1,4.1,0,0,1-.13,1.08,4.29,4.29,0,0,1-.46,1,8.53,8.53,0,0,1-.83,1.09c-.35.38-.78.82-1.29,1.31l-2.6,2.47H2711v1.43h-7.38v-1.43l3.71-3.56c.38-.37.71-.7,1-1a9.94,9.94,0,0,0,.66-.84,3.25,3.25,0,0,0,.37-.75,2.56,2.56,0,0,0,.11-.79,1.83,1.83,0,0,0-.56-1.41,2.21,2.21,0,0,0-1.58-.52,2.43,2.43,0,0,0-1.6.5,2,2,0,0,0-.72,1.4Z" /><path class="i" d="M2717.47,288.36a3.74,3.74,0,0,1,1.49.29,3.17,3.17,0,0,1,1.11.79,3.44,3.44,0,0,1,.7,1.21,4.72,4.72,0,0,1,.24,1.53,4.14,4.14,0,0,1-.33,1.71,3.48,3.48,0,0,1-2.09,1.92,4.09,4.09,0,0,1-1.38.24,3.45,3.45,0,0,1-3-1.4,6.94,6.94,0,0,1-1-4.08,12,12,0,0,1,.35-3.15,5.54,5.54,0,0,1,.94-1.95,3.23,3.23,0,0,1,1.33-1,4.27,4.27,0,0,1,1.53-.28,3.79,3.79,0,0,1,2.22.64,2.91,2.91,0,0,1,1.2,1.76h-1.72a1.47,1.47,0,0,0-.58-.82,1.92,1.92,0,0,0-1.14-.31,2.18,2.18,0,0,0-.93.21,2,2,0,0,0-.78.72,4.83,4.83,0,0,0-.57,1.36,9.41,9.41,0,0,0-.3,2.09,3,3,0,0,1,.58-.69,3.08,3.08,0,0,1,.68-.45,3.75,3.75,0,0,1,1.45-.34Zm-2.55,3.77a2.64,2.64,0,0,0,.66,1.94,2.19,2.19,0,0,0,1.63.68,2.48,2.48,0,0,0,.86-.16,2.16,2.16,0,0,0,.72-.48,2.34,2.34,0,0,0,.48-.78,3.2,3.2,0,0,0,.17-1.07,2.8,2.8,0,0,0-.61-1.9,2.09,2.09,0,0,0-1.64-.7,2.19,2.19,0,0,0-1,.21,2,2,0,0,0-.72.54,2.22,2.22,0,0,0-.42.79A2.91,2.91,0,0,0,2714.92,292.13Z" /><polygon class="i" points="2369.03 291.92 2360.12 291.92 2364.58 285.48 2364.58 285.48 2369.03 291.92" /><polygon class="i" points="2413.75 289.03 2422.66 289.03 2418.2 295.47 2418.2 295.47 2413.75 289.03" /><polygon class="i" points="2470.87 291.92 2461.95 291.92 2466.41 285.48 2466.41 285.48 2470.87 291.92" /><polygon class="i" points="2515.58 289.03 2524.5 289.03 2520.04 295.47 2520.04 295.47 2515.58 289.03" /><polygon class="i" points="2577.35 291.92 2568.43 291.92 2572.89 285.48 2572.89 285.48 2577.35 291.92" /><polygon class="i" points="2620.45 289.03 2629.37 289.03 2624.91 295.47 2624.91 295.47 2620.45 289.03" /><polygon class="i" points="2679.78 291.92 2670.86 291.92 2675.32 285.48 2675.32 285.48 2679.78 291.92" /><polygon class="i" points="2724.49 289.03 2733.41 289.03 2728.95 295.47 2728.95 295.47 2724.49 289.03" /></svg>