<svg viewBox="0 0 1150.18 119.86"><defs><style>.a{fill:#98999c;}.b{fill:#babcc0;}.c{fill:#0e0e0f;}.d{fill:#fff;}</style></defs><path class="a" d="M-6668.4,3312.09v74.09a31.51,31.51,0,0,1-.16,3.66c-.53,4.74-2.86,7.1-12.27,8.16a208.91,208.91,0,0,1-21.6.76l-541.06-.39-541.06.39a209,209,0,0,1-21.6-.76c-9.41-1.06-11.73-3.42-12.26-8.16a31.36,31.36,0,0,1-.17-3.66v-74.09Z" transform="translate(7818.58 -3295.08)" /><path class="b" d="M-6668.4,3312.09H-7818.58l81.63-15.77a51.65,51.65,0,0,1,9.69-.93l483.77-.31,483.77.31a51.83,51.83,0,0,1,9.7.93Z" transform="translate(7818.58 -3295.08)" /><path class="c" d="M-6803,3410.24c48.57-1.44,99.36-4.77,122.21-12.24a208.91,208.91,0,0,1-21.6.76l-541.06-.39-541.06.39a209,209,0,0,1-21.6-.76c22.72,7.42,73,10.76,121.36,12.21a31.15,31.15,0,0,0,16.42,4.73,48,48,0,0,0,18.54-4c38.77.56,70.77.15,77.72.13h657.25c6.9,0,38.52.43,76.92-.12a48,48,0,0,0,18.52,4A31.22,31.22,0,0,0-6803,3410.24Z" transform="translate(7818.58 -3295.08)" /><rect class="d" x="114.68" y="78.67" width="33.72" height="9.97" rx="4.99" /></svg>