<svg viewBox="0 0 1154.13 411.19"><defs><style>.a{fill:#0e0e0f;}.b{fill:#98999c;}.c{fill:#babcc0;}.d{fill:#fff;}</style></defs><path class="a" d="M952.16,324.25h35.61l-2-309.32A15,15,0,0,0,970.75,0h0a15,15,0,0,0-15,14.85Z" /><path class="a" d="M202,324.25H166.36l2-309.32A15,15,0,0,1,183.38,0h0a15,15,0,0,1,15,14.85Z" /><path class="b" d="M1154.13,308v74.34A31.77,31.77,0,0,1,1154,386c-.54,4.76-2.87,7.12-12.31,8.19A210.42,210.42,0,0,1,1120,395l-542.92-.39L34.15,395a210.42,210.42,0,0,1-21.68-.76C3,393.12.69,390.76.16,386A31.77,31.77,0,0,1,0,382.32V308Z" /><path class="c" d="M1154.13,308H0l81.9-15.82a51.32,51.32,0,0,1,9.73-.93l485.43-.32,485.44.32a51.14,51.14,0,0,1,9.72.93Z" /><path class="a" d="M1019,406.47c48.75-1.45,99.71-4.79,122.64-12.28A210.42,210.42,0,0,1,1120,395l-542.92-.39L34.15,395a210.42,210.42,0,0,1-21.68-.76c22.8,7.45,73.29,10.79,121.77,12.25a31.38,31.38,0,0,0,16.48,4.75,48.1,48.1,0,0,0,18.61-4c38.89.57,71,.15,78,.13H906.82c6.92,0,38.65.43,77.19-.12a48,48,0,0,0,18.58,4A31.38,31.38,0,0,0,1019,406.47Z" /><rect class="d" x="115.08" y="369.85" width="33.83" height="10.01" rx="5" /></svg>