<svg version="1.1" id="Layer_1" x="0px" y="0px" viewBox="0 0 909.3 393.1" style="enable-background:new 0 0 909.3 393.1;" space="preserve">
<style type="text/css">
	.st0{fill:#0C0F12;}
	.st1{fill:url(#SVGID_1_);}
	.st2{fill:#2C2D32;}
	.st3{fill:none;stroke:#0C0F12;stroke-width:0.25;stroke-miterlimit:10;}
	.st4{fill:#ACACAA;}
	.st5{fill:#655D39;}
	.st6{fill:#4D683E;}
	.st7{fill:url(#SVGID_00000156584484770868172630000018430836835495459988_);}
</style>
<g>
	<ellipse class="st0" cx="113.3" cy="379.3" rx="23.6" ry="13.8" />
	<ellipse class="st0" cx="796" cy="379.3" rx="23.6" ry="13.8" />
</g>
<path class="st0" d="M909.3,371.1c0,0-5.5,3.3-15.2,4.5c-41.4,5.2-64.9,6-96.2,6.6H111.4c-31.2-0.6-54.8-1.4-96.2-6.6  C5.5,374.4,0,371.1,0,371.1H909.3z" />
<linearGradient id="SVGID_1_" gradientUnits="userSpaceOnUse" x1="0" y1="-612.1942" x2="909.28" y2="-612.1942" gradientTransform="matrix(1 0 0 -1 0 -280)">
	<stop offset="0" style="stop-color:#88898B" />
	<stop offset="0" style="stop-color:#929395" />
	<stop offset="1.000000e-02" style="stop-color:#A4A6A6" />
	<stop offset="1.000000e-02" style="stop-color:#B1B3B3" />
	<stop offset="2.000000e-02" style="stop-color:#B9BBBA" />
	<stop offset="3.000000e-02" style="stop-color:#BBBDBC" />
	<stop offset="0.5" style="stop-color:#C7C9C7" />
	<stop offset="0.97" style="stop-color:#CED0CF" />
	<stop offset="0.98" style="stop-color:#CBCDCD" />
	<stop offset="0.99" style="stop-color:#C1C5C5" />
	<stop offset="1" style="stop-color:#B1B6B9" />
	<stop offset="1" style="stop-color:#AFB4B7" />
</linearGradient>
<rect y="293.3" class="st1" width="909.3" height="77.8" />
<g>
	<rect x="204.8" y="321.3" class="st0" width="52.5" height="21.9" />
	<rect x="209.2" y="326.5" class="st2" width="5.7" height="3.2" />
	<rect x="218.7" y="326.5" class="st2" width="5.7" height="3.2" />
	<rect x="209.2" y="341" class="st2" width="43.7" height="1.2" />
	<rect x="228.2" y="326.5" class="st2" width="5.7" height="3.2" />
	<rect x="237.7" y="326.5" class="st2" width="5.7" height="3.2" />
	<rect x="247.2" y="326.5" class="st2" width="5.7" height="3.2" />
	<path class="st0" d="M240.2,352.3l-2.4-1.2v0.8h-9.3l2-1.7h2.5c0.3,0.5,0.9,0.7,1.4,0.5c0.5-0.3,0.7-0.9,0.5-1.4   c-0.2-0.3-0.5-0.6-0.9-0.6c-0.4,0-0.8,0.2-0.9,0.6h-2.8l-3.1,2.6h-0.4c-0.2-1.1-1.3-1.8-2.4-1.5c-1.1,0.2-1.8,1.3-1.5,2.4   s1.3,1.8,2.4,1.5c0.8-0.2,1.3-0.8,1.5-1.5h3.2l2.5,2.6h2.2v0.5h2v-2.1h-2v0.6h-1.8l-1.6-1.6h6.6v0.7L240.2,352.3z" />
	<polygon class="st0" points="699.1,351.7 697.9,351.7 697.9,352.7 696.9,352.7 696.9,353.9 697.9,353.9 697.9,354.9 699.1,354.9    699.1,353.9 700.1,353.9 700.1,352.7 699.1,352.7  " />
	<rect x="677.7" y="352.6" class="st0" width="2.5" height="1.2" />
	<path class="st0" d="M698.5,349c-2.2,0-4,1.6-4.3,3.7h-3.9c-0.3-0.9-1.3-1.4-2.3-1.1c-0.5,0.2-0.9,0.6-1.1,1.1   c-0.1,0.2-0.1,0.4-0.1,0.6c0,0.2,0,0.4,0.1,0.6c0.3,0.9,1.3,1.4,2.3,1.1c0.5-0.2,0.9-0.6,1.1-1.1h3.9c0.3,2.4,2.5,4,4.9,3.7   s4-2.5,3.7-4.9C702.5,350.6,700.6,349,698.5,349z M698.5,356.5c-1.7,0-3.1-1.4-3.1-3.2s1.4-3.1,3.2-3.1c1.7,0,3.1,1.4,3.1,3.1   S700.2,356.5,698.5,356.5L698.5,356.5z" />
	<circle class="st0" cx="688.9" cy="331.2" r="11.2" />
	<path class="st0" d="M688.7,356.5c-1.7,0-3.2-1.4-3.2-3.2c0-0.2,0-0.4,0.1-0.6c0-0.1,0-0.2,0.1-0.3c0.5-1.7,2.2-2.7,3.9-2.2   c0.7,0.2,1.3,0.6,1.7,1.2l0,0l1-0.7c-1.4-1.9-4.1-2.4-6-1.1c-1,0.7-1.6,1.8-1.8,3h-1.2c-0.3-2.4-2.5-4-4.9-3.7s-4,2.5-3.7,4.9   c0.3,2.4,2.5,4,4.9,3.7c1.9-0.3,3.4-1.8,3.7-3.7h1.2c0.3,2.4,2.5,4,4.8,3.7c1.1-0.1,2-0.7,2.7-1.5l-0.9-0.8   C690.6,356,689.7,356.5,688.7,356.5z M679,356.5c-1.7,0-3.1-1.4-3.1-3.2s1.4-3.1,3.2-3.1c1.7,0,3.1,1.4,3.1,3.1   C682.1,355.1,680.7,356.5,679,356.5z" />
	<circle class="st3" cx="688.9" cy="331.2" r="14.3" />
	<circle class="st0" cx="727.7" cy="329.4" r="2.8" />
	<path class="st0" d="M728.4,337.6v-1.3l-2.4,1.9l2.4,1.9v-1.8c1.9,0.1,3.3,1.6,3.2,3.5s-1.6,3.3-3.5,3.2c-1.8-0.1-3.3-1.6-3.2-3.4   h-0.9c0,2.3,1.9,4.2,4.2,4.3s4.2-1.9,4.3-4.2C732.6,339.6,730.7,337.7,728.4,337.6L728.4,337.6z" />
	<g>
		<rect x="408.5" y="308.9" class="st0" width="244.1" height="45.6" />
		<rect x="409.3" y="311.2" class="st4" width="242.4" height="41.8" />
		<rect x="432.4" y="310.6" class="st4" width="15.7" height="0.6" />
		<polygon class="st0" points="467.9,330.3 467.9,340.2 466.6,340.2 466.6,349.2 414,349.2 414,340.2 412.7,340.2 412.7,330.3     414,330.3 414,321.3 427.4,321.3 427.4,314.7 432.4,314.7 432.4,311.2 448.1,311.2 448.1,314.7 453.3,314.7 453.3,321.3     466.6,321.3 466.6,330.3   " />
		<rect x="454.6" y="312.8" class="st5" width="13.6" height="6.8" />
		<rect x="412.4" y="312.8" class="st6" width="13.6" height="6.8" />
		<polygon class="st0" points="472.4,330.3 472.4,340.2 473.7,340.2 473.7,349.2 526.3,349.2 526.3,340.2 527.6,340.2 527.6,330.3     526.3,330.3 526.3,321.3 513,321.3 513,314.7 507.9,314.7 507.9,311.2 492.2,311.2 492.2,314.7 487,314.7 487,321.3 473.7,321.3     473.7,330.3   " />
		<rect x="472.1" y="312.8" class="st6" width="13.6" height="6.8" />
		<rect x="514.3" y="312.8" class="st5" width="13.6" height="6.8" />
		<rect x="492.2" y="310.6" class="st4" width="15.7" height="0.6" />
		<rect x="551.7" y="310.6" class="st4" width="15.7" height="0.6" />
		<polygon class="st0" points="587.2,330.3 587.2,340.2 585.9,340.2 585.9,349.2 533.3,349.2 533.3,340.2 532,340.2 532,330.3     533.3,330.3 533.3,321.3 546.7,321.3 546.7,314.7 551.7,314.7 551.7,311.2 567.4,311.2 567.4,314.7 572.6,314.7 572.6,321.3     585.9,321.3 585.9,330.3   " />
		<rect x="573.9" y="312.8" class="st5" width="13.6" height="6.8" />
		<rect x="531.7" y="312.8" class="st6" width="13.6" height="6.8" />
		<polygon class="st0" points="591.7,330.3 591.7,340.2 593,340.2 593,349.2 645.6,349.2 645.6,340.2 646.9,340.2 646.9,330.3     645.6,330.3 645.6,321.3 632.3,321.3 632.3,314.7 627.2,314.7 627.2,311.2 611.5,311.2 611.5,314.7 606.3,314.7 606.3,321.3     593,321.3 593,330.3   " />
		<rect x="591.4" y="312.8" class="st6" width="13.6" height="6.8" />
		<rect x="633.6" y="312.8" class="st5" width="13.6" height="6.8" />
		<rect x="611.5" y="310.6" class="st4" width="15.7" height="0.6" />
	</g>
	<g>
		<rect x="329.2" y="308.9" class="st0" width="65.7" height="46.9" />
		<rect x="330" y="311.3" class="st4" width="64" height="43" />
		<rect x="353.8" y="310.7" class="st4" width="16.1" height="0.6" />
		<polygon class="st0" points="390.4,330.9 390.4,341.1 389,341.1 389,350.4 334.8,350.4 334.8,341.1 333.5,341.1 333.5,330.9     334.8,330.9 334.8,321.7 348.6,321.7 348.6,314.9 353.8,314.9 353.8,311.3 369.9,311.3 369.9,314.9 375.3,314.9 375.3,321.7     389,321.7 389,330.9   " />
		<rect x="376.6" y="312.9" class="st5" width="14" height="7" />
		<rect x="333.2" y="312.9" class="st6" width="14" height="7" />
	</g>
</g>
<linearGradient id="SVGID_00000039812472995318397130000015817444593683210138_" gradientUnits="userSpaceOnUse" x1="685.6254" y1="331.2444" x2="692.2654" y2="331.2444">
	<stop offset="0" style="stop-color:#88898B" />
	<stop offset="0" style="stop-color:#929395" />
	<stop offset="1.000000e-02" style="stop-color:#A4A6A6" />
	<stop offset="1.000000e-02" style="stop-color:#B1B3B3" />
	<stop offset="2.000000e-02" style="stop-color:#B9BBBA" />
	<stop offset="3.000000e-02" style="stop-color:#BBBDBC" />
	<stop offset="0.5" style="stop-color:#C7C9C7" />
	<stop offset="0.97" style="stop-color:#CED0CF" />
	<stop offset="0.98" style="stop-color:#CBCDCD" />
	<stop offset="0.99" style="stop-color:#C1C5C5" />
	<stop offset="1" style="stop-color:#B1B6B9" />
	<stop offset="1" style="stop-color:#AFB4B7" />
</linearGradient>
<circle style="fill:url(#SVGID_00000039812472995318397130000015817444593683210138_);" cx="688.9" cy="331.2" r="3.3" />
<g>
	<path class="st0" d="M94.9,345.5l0,4.6c0,1.6-1.2,2.8-2.8,2.8h-4.3c-4.1,2.7-9,4.3-14.4,4.3c-5.4,0-10.4-1.6-14.4-4.3h-4.3   c-1.6,0-2.8-1.3-2.8-2.8l0-4.6c-2.1-3.4-3.2-7.3-3.2-11.5c0-4.3,1.2-8.3,3.4-11.8l2.5-302.7c0.7-4.5,3-8.5,6.4-11.4   c3.3-2.9,7.7-4.6,12.4-4.6c9.4,0,17.4,6.9,18.8,16l2.5,302.7c2.2,3.5,3.4,7.5,3.4,11.8C98.1,338.2,97,342.1,94.9,345.5z" />
	<path class="st0" d="M814.4,345.5l0,4.2c0,1.7,1.4,3.1,3.1,3.1h4c4.1,2.7,9,4.3,14.4,4.3c5.4,0,10.4-1.6,14.4-4.3h4   c1.7,0,3.1-1.4,3.1-3.1l0-4.2c2.1-3.4,3.2-7.3,3.2-11.5c0-4.3-1.2-8.3-3.4-11.8l-2.5-302.7c-0.7-4.5-3-8.5-6.4-11.4   c-3.3-2.9-7.7-4.6-12.4-4.6c-9.4,0-17.4,6.9-18.8,16l-2.5,302.7c-2.2,3.5-3.4,7.5-3.4,11.8C811.1,338.2,812.3,342.1,814.4,345.5z" />
</g>
</svg>