<svg viewBox="0 0 1232.08 128.4"><defs><style>.a{fill:#98999c;}.b{fill:#babcc0;}.c{fill:#0e0e0f;}.d{fill:#fff;}</style></defs><path class="a" d="M1232.08,18.23V97.59a33.45,33.45,0,0,1-.18,3.92c-.56,5.08-3.06,7.61-13.14,8.74a224,224,0,0,1-23.14.81L616,110.65l-579.59.41a224.13,224.13,0,0,1-23.14-.81C3.23,109.12.74,106.59.17,101.51A33.6,33.6,0,0,1,0,97.59V18.23Z" /><path class="b" d="M1232.08,18.23H0L87.44,1.33a54.81,54.81,0,0,1,10.38-1L616,0l518.22.34a54.81,54.81,0,0,1,10.38,1Z" /><path class="c" d="M1087.85,123.36c52-1.54,106.44-5.11,130.91-13.11a224,224,0,0,1-23.14.81L616,110.65l-579.59.41a224.13,224.13,0,0,1-23.14-.81c24.34,8,78.24,11.53,130,13.08a33.38,33.38,0,0,0,17.59,5.07,51.49,51.49,0,0,0,19.86-4.24c41.53.6,75.81.16,83.25.13H968.07c7.38,0,41.26.46,82.4-.12a51.43,51.43,0,0,0,19.83,4.23A33.44,33.44,0,0,0,1087.85,123.36Z" /><rect class="d" x="122.85" y="84.27" width="36.12" height="10.68" rx="5.34" /></svg>