<svg viewBox="0 0 1228.74 437.77"><defs><style>.a{fill:#0e0e0f;}.b{fill:#98999c;}.c{fill:#babcc0;}.d{fill:#fff;}</style></defs><path class="a" d="M1013.71,345.21h37.92l-2.12-329.32a16,16,0,0,0-16-15.89h0a16,16,0,0,0-16,15.81Z" /><path class="a" d="M215,345.21H177.12l2.11-329.32A16,16,0,0,1,195.23,0h0a16,16,0,0,1,16,15.81Z" /><path class="b" d="M1228.74,327.9V407a33.6,33.6,0,0,1-.17,3.92c-.57,5.06-3,7.58-13.11,8.71a222.71,222.71,0,0,1-23.07.81l-578-.42-578,.42a222.71,222.71,0,0,1-23.07-.81C3.22,418.54.74,416,.17,411A33.6,33.6,0,0,1,0,407V327.9Z" /><path class="c" d="M1228.74,327.9H0l87.2-16.85a54.59,54.59,0,0,1,10.35-1l516.82-.33,516.82.33a54.51,54.51,0,0,1,10.35,1Z" /><path class="a" d="M1084.9,432.75c51.9-1.54,106.15-5.1,130.56-13.08a222.71,222.71,0,0,1-23.07.81l-578-.42-578,.42a222.71,222.71,0,0,1-23.07-.81c24.27,7.93,78,11.49,129.64,13.05a33.37,33.37,0,0,0,17.54,5,51.23,51.23,0,0,0,19.81-4.23c41.42.6,75.61.16,83,.14H965.44c7.37,0,41.15.45,82.18-.13a51.27,51.27,0,0,0,19.79,4.22A33.34,33.34,0,0,0,1084.9,432.75Z" /><rect class="d" x="122.52" y="393.76" width="36.02" height="10.65" rx="5.33" /></svg>