<svg viewBox="0 0 933.9 203.11"><defs><style>.a{fill:url(#a);}.b{fill:url(#b);}.c{fill:#73787b;}.d{fill:url(#c);}.e{fill:url(#d);}.f{fill:url(#e);}.g{fill:url(#f);}.h{fill:url(#g);}.i{fill:url(#h);}.j{fill:url(#i);}.k{fill:url(#j);}.l{fill:url(#k);}.m{fill:url(#l);}.n{fill:url(#m);}.o{fill:url(#n);}.p{fill:url(#o);}.q{fill:url(#p);}.r{fill:#282523;}</style><linearGradient id="a" y1="165.63" x2="933.9" y2="165.63" gradientUnits="userSpaceOnUse"><stop offset="0" stop-color="#61615f" /><stop offset="0.01" stop-color="#676765" /><stop offset="0.05" stop-color="#716f6d" /><stop offset="0.1" stop-color="#747270" /><stop offset="0.2" stop-color="#7b7a78" /><stop offset="0.38" stop-color="#80817e" /><stop offset="0.89" stop-color="#828380" /><stop offset="0.94" stop-color="#80817e" /><stop offset="0.96" stop-color="#777875" /><stop offset="0.98" stop-color="#6a6b68" /><stop offset="1" stop-color="#565754" /></linearGradient><linearGradient id="b" x1="52.21" y1="70.35" x2="878.62" y2="70.35" gradientUnits="userSpaceOnUse"><stop offset="0" stop-color="#92979d" /><stop offset="0.01" stop-color="#93989e" /><stop offset="0.14" stop-color="#a3a8ad" /><stop offset="0.29" stop-color="#acb1b6" /><stop offset="0.5" stop-color="#afb4b9" /><stop offset="0.69" stop-color="#abb0b5" /><stop offset="0.9" stop-color="#9ea3a8" /><stop offset="1" stop-color="#969aa0" /></linearGradient><linearGradient id="c" x1="439.54" y1="68.98" x2="439.54" y2="138.35" href="#b" /><linearGradient id="d" x1="476.81" y1="68.98" x2="476.81" y2="138.35" href="#b" /><linearGradient id="e" x1="421.74" y1="68.98" x2="421.74" y2="138.35" href="#b" /><linearGradient id="f" x1="501.35" y1="68.98" x2="501.35" y2="138.35" href="#b" /><linearGradient id="g" x1="456.47" y1="68.98" x2="456.47" y2="138.35" href="#b" /><linearGradient id="h" x1="406.16" y1="68.98" x2="406.16" y2="138.35" href="#b" /><linearGradient id="i" x1="420.44" y1="68.98" x2="420.44" y2="138.35" href="#b" /><linearGradient id="j" x1="434.66" y1="68.98" x2="434.66" y2="138.35" href="#b" /><linearGradient id="k" x1="448.85" y1="68.98" x2="448.85" y2="138.35" href="#b" /><linearGradient id="l" x1="463.05" y1="68.98" x2="463.05" y2="138.35" href="#b" /><linearGradient id="m" x1="477.27" y1="68.98" x2="477.27" y2="138.35" href="#b" /><linearGradient id="n" x1="491.46" y1="68.98" x2="491.46" y2="138.35" href="#b" /><linearGradient id="o" x1="505.67" y1="68.98" x2="505.67" y2="138.35" href="#b" /><linearGradient id="p" x1="519.94" y1="68.98" x2="519.94" y2="138.35" href="#b" /></defs><path class="a" d="M933.9,128.14l-6.37,64.18s-4.51,10.79-23.89,10.79H30.26c-19.38,0-23.89-10.79-23.89-10.79L0,128.14l466.58,2.53h.74Z" /><path class="b" d="M911.24,140.69H22.66C.16,140.69-2.91,127.88,2,122.93L85.7,12.83C92.11,4.4,102.12.43,112.75.43L467,0l354.2.43c10.63,0,20.64,4,27.05,12.4l83.66,110.1C936.81,127.88,933.74,140.69,911.24,140.69Z" /><polygon class="c" points="442.1 101.45 436.8 101.45 437.01 95.71 442.28 95.71 442.1 101.45 442.1 101.45" /><path class="c" d="M484.71,97.34a30.72,30.72,0,0,0-4.44-.3c-3.41,0-5.76.65-5.75,1.53s2.29,1.53,5.82,1.53a31,31,0,0,0,4.44-.3l.05,1.55c-.66.05-2.47.2-4.82.2-6,0-11.21-1.13-11.23-3s4.67-3,11.08-3c2.46,0,4.3.16,4.8.2l0,1.53Z" /><path class="c" d="M429.71,97.34a29.6,29.6,0,0,0-4.41-.3c-3.41,0-5.81.65-5.87,1.53s2.17,1.53,5.71,1.53a31.64,31.64,0,0,0,4.46-.3l-.08,1.55c-.66.05-2.48.2-4.85.2-6,0-11.1-1.13-11-3s4.9-3,11.29-3c2.49,0,4.3.16,4.8.2l-.08,1.53Z" /><path class="c" d="M512.39,98.57c.12,1.64-4.43,3-10.89,3s-11.13-1.34-11.2-3,4.48-3,10.88-3,11.09,1.32,11.21,3m-11.13-1.51c-3.13,0-5.41.67-5.37,1.51s2.4,1.51,5.53,1.51,5.43-.68,5.38-1.51-2.42-1.51-5.54-1.51" /><path class="c" d="M462.2,97c-.07,0-2.29-.17-4.11-.17-2.11,0-3.26.19-3.26.47s1.54.47,2.4.55l1.46.12c3.42.3,5,1,5,1.65,0,1.45-4.64,1.93-8.69,1.93-2.82,0-5.45-.14-5.72-.15l0-1.33c.47,0,2.68.21,5,.21,2.62,0,3.84-.21,3.85-.54s-1-.46-2.36-.57l-1.13-.1c-2.94-.26-5.37-.73-5.35-1.68s2.94-1.78,7.79-1.78c2.56,0,5,.16,5.12.18V97Z" /><path class="c" d="M408.8,89.64c0-.39-1.09-.7-2.53-.7s-2.6.31-2.63.7l-.13,1.47c0,.39,1.11.71,2.53.71s2.62-.32,2.65-.71l.11-1.47Z" /><path class="c" d="M423.13,87.72c0-.39-1.11-.7-2.53-.7s-2.61.31-2.63.7l-.23,3.39c0,.39,1.12.71,2.56.71s2.61-.32,2.63-.71l.2-3.39Z" /><path class="c" d="M437.39,85.1c0-.38-1.12-.69-2.53-.69s-2.59.31-2.61.69l-.33,7.42c0,.39,1.14.71,2.57.71s2.61-.32,2.62-.71l.28-7.42Z" /><path class="c" d="M451.46,87.72c0-.39-1.14-.7-2.55-.7s-2.59.31-2.6.7l-.08,3.39c0,.39,1.14.71,2.58.71s2.59-.32,2.6-.71l0-3.39Z" /><path class="c" d="M465.62,89.64c0-.39-1.15-.7-2.57-.7s-2.58.31-2.58.7v1.47c0,.39,1.16.71,2.59.71s2.58-.32,2.58-.71V89.64Z" /><path class="c" d="M479.8,87.72c0-.39-1.17-.7-2.59-.7s-2.56.31-2.56.7l.06,3.39c0,.39,1.17.71,2.6.71s2.58-.32,2.57-.71l-.08-3.39Z" /><path class="c" d="M493.85,85.1c0-.38-1.17-.69-2.59-.69s-2.55.31-2.53.69l.28,7.42c0,.39,1.19.71,2.61.71s2.58-.32,2.57-.71l-.34-7.42Z" /><path class="c" d="M508.15,87.72c0-.39-1.2-.7-2.66-.7s-2.55.31-2.52.7l.19,3.39c0,.39,1.21.71,2.63.71s2.61-.32,2.58-.71l-.22-3.39Z" /><path class="c" d="M522.46,89.64c0-.39-1.22-.7-2.64-.7s-2.55.31-2.52.7l.12,1.47c0,.39,1.21.71,2.64.71s2.56-.32,2.53-.71l-.13-1.47Z" /><polygon class="d" points="442.1 102 436.8 102 437.01 96.26 442.28 96.26 442.1 102 442.1 102" /><path class="e" d="M484.71,97.89a30.72,30.72,0,0,0-4.44-.3c-3.41,0-5.76.65-5.75,1.53s2.29,1.53,5.82,1.53a31,31,0,0,0,4.44-.3l.05,1.55c-.66,0-2.47.21-4.82.21-6,0-11.21-1.14-11.23-3s4.67-3,11.08-3c2.46,0,4.3.16,4.8.2l0,1.53Z" /><path class="f" d="M429.71,97.89a29.6,29.6,0,0,0-4.41-.3c-3.41,0-5.81.65-5.87,1.53s2.17,1.53,5.71,1.53a31.64,31.64,0,0,0,4.46-.3l-.08,1.55c-.66,0-2.48.21-4.85.21-6,0-11.1-1.14-11-3s4.9-3,11.29-3c2.49,0,4.3.16,4.8.2l-.08,1.53Z" /><path class="g" d="M512.39,99.12c.12,1.64-4.43,3-10.89,3s-11.13-1.35-11.2-3,4.48-3,10.88-3,11.09,1.32,11.21,3m-11.13-1.51c-3.13,0-5.41.67-5.37,1.51s2.4,1.51,5.53,1.51,5.43-.68,5.38-1.51-2.42-1.51-5.54-1.51" /><path class="h" d="M462.2,97.56c-.07,0-2.29-.18-4.11-.18-2.11,0-3.26.19-3.26.47s1.54.47,2.4.55l1.46.12c3.42.3,5,1,5,1.65,0,1.45-4.64,1.94-8.69,1.94-2.82,0-5.45-.15-5.72-.16l0-1.33c.47,0,2.68.21,5,.21,2.62,0,3.84-.21,3.85-.54s-1-.46-2.36-.57l-1.13-.1c-2.94-.26-5.37-.73-5.35-1.68s2.94-1.78,7.79-1.78c2.56,0,5,.17,5.12.18v1.22Z" /><path class="i" d="M408.8,90.19c0-.38-1.09-.7-2.53-.7s-2.6.32-2.63.7l-.13,1.47c0,.39,1.11.71,2.53.71s2.62-.32,2.65-.71l.11-1.47Z" /><path class="j" d="M423.13,88.27c0-.39-1.11-.7-2.53-.7s-2.61.31-2.63.7l-.23,3.39c0,.39,1.12.71,2.56.71s2.61-.32,2.63-.71l.2-3.39Z" /><path class="k" d="M437.39,85.65c0-.38-1.12-.69-2.53-.69s-2.59.31-2.61.69l-.33,7.42c0,.39,1.14.71,2.57.71s2.61-.32,2.62-.71l.28-7.42Z" /><path class="l" d="M451.46,88.27c0-.39-1.14-.7-2.55-.7s-2.59.31-2.6.7l-.08,3.39c0,.39,1.14.71,2.58.71s2.59-.32,2.6-.71l0-3.39Z" /><path class="m" d="M465.62,90.19c0-.38-1.15-.7-2.57-.7s-2.58.32-2.58.7v1.47c0,.39,1.16.71,2.59.71s2.58-.32,2.58-.71V90.19Z" /><path class="n" d="M479.8,88.27c0-.39-1.17-.7-2.59-.7s-2.56.31-2.56.7l.06,3.39c0,.39,1.17.71,2.6.71s2.58-.32,2.57-.71l-.08-3.39Z" /><path class="o" d="M493.85,85.65c0-.38-1.17-.69-2.59-.69s-2.55.31-2.53.69l.28,7.42c0,.39,1.19.71,2.61.71s2.58-.32,2.57-.71l-.34-7.42Z" /><path class="p" d="M508.15,88.27c0-.39-1.2-.7-2.66-.7s-2.55.31-2.52.7l.19,3.39c0,.39,1.21.71,2.63.71s2.61-.32,2.58-.71l-.22-3.39Z" /><path class="q" d="M522.46,90.19c0-.38-1.22-.7-2.64-.7s-2.55.32-2.52.7l.12,1.47c0,.39,1.21.71,2.64.71s2.56-.32,2.53-.71l-.13-1.47Z" /><rect class="r" x="91.88" y="185.19" width="26.59" height="7.1" rx="3.55" /></svg>