<svg viewBox="0 0 909.28 85.17"><defs><style>.a{fill:#0c0f12;}.b{fill:url(#a);}.c{fill:#2c2d32;}.d{fill:#acacaa;}.e{fill:#655d39;}.f{fill:#4d683e;}.g{fill:#1a1a1a;}.h{fill:#020202;}.i{fill:none;stroke:#0c0f12;stroke-miterlimit:10;stroke-width:0.25px;}.j{fill:#231f20;}</style><linearGradient id="a" y1="37.04" x2="909.28" y2="37.04" gradientUnits="userSpaceOnUse"><stop offset="0" stop-color="#88898b" /><stop offset="0" stop-color="#929395" /><stop offset="0.01" stop-color="#a4a6a6" /><stop offset="0.01" stop-color="#b1b3b3" /><stop offset="0.02" stop-color="#b9bbba" /><stop offset="0.03" stop-color="#bbbdbc" /><stop offset="0.5" stop-color="#c7c9c7" /><stop offset="0.97" stop-color="#ced0cf" /><stop offset="0.98" stop-color="#cbcdcd" /><stop offset="0.99" stop-color="#c1c5c5" /><stop offset="1" stop-color="#b1b6b9" /><stop offset="1" stop-color="#afb4b7" /></linearGradient></defs><path class="a" d="M909.28,74.08s-5.5,3.27-15.25,4.48c-41.4,5.17-64.9,6-96.16,6.61H111.41c-31.25-.62-54.76-1.44-96.16-6.61C5.5,77.35,0,74.08,0,74.08Z" /><rect class="b" width="909.28" height="74.08" /><rect class="a" x="49.85" y="30.63" width="43.8" height="18.29" /><rect class="c" x="53.54" y="35.02" width="4.78" height="2.68" /><rect class="c" x="61.45" y="35.02" width="4.78" height="2.68" /><rect class="c" x="53.54" y="47.08" width="36.43" height="0.99" /><rect class="c" x="69.36" y="35.02" width="4.78" height="2.68" /><rect class="c" x="77.27" y="35.02" width="4.78" height="2.68" /><rect class="c" x="85.18" y="35.02" width="4.78" height="2.68" /><path class="a" d="M79.38,56.46l-2-1v.66H69.66l1.69-1.45h2.07a.87.87,0,1,0,.79-1.26.88.88,0,0,0-.79.5H71.07L68.5,56.11h-.35a1.68,1.68,0,1,0,0,.75h2.67L72.9,59h1.82v.42h1.65V57.71H74.72v.49H73.21l-1.33-1.34h5.49v.6Z" /><polygon class="a" points="827.62 52.22 826.45 52.22 826.45 53.27 825.41 53.27 825.41 54.44 826.45 54.44 826.45 55.48 827.62 55.48 827.62 54.44 828.66 54.44 828.66 53.27 827.62 53.27 827.62 52.22" /><rect class="a" x="806.26" y="53.17" width="2.51" height="1.17" /><path class="a" d="M827,49.53a4.33,4.33,0,0,0-4.28,3.73h-3.89a1.79,1.79,0,0,0-3.39,0,1.66,1.66,0,0,0-.1.59,1.61,1.61,0,0,0,.1.58,1.79,1.79,0,0,0,3.39,0h3.89a4.32,4.32,0,1,0,4.28-4.9ZM827,57a3.15,3.15,0,1,1,3.15-3.15A3.15,3.15,0,0,1,827,57Z" /><path class="a" d="M817.26,57a3.16,3.16,0,0,1-3.15-3.16,2.88,2.88,0,0,1,.06-.59,1.31,1.31,0,0,1,.06-.27,3.15,3.15,0,0,1,5.61-1h0l.95-.68a4.31,4.31,0,0,0-7.8,1.9h-1.23a4.33,4.33,0,1,0,0,1.17H813a4.31,4.31,0,0,0,7.56,2.22l-.88-.76A3.16,3.16,0,0,1,817.26,57Zm-9.78,0a3.15,3.15,0,1,1,3.15-3.15A3.16,3.16,0,0,1,807.48,57Z" /><rect class="a" x="187.1" y="13.75" width="97.74" height="36.13" /><rect class="d" x="188.39" y="15.62" width="95.16" height="33.13" /><rect class="d" x="206.05" y="15.14" width="12.41" height="0.48" /><polygon class="a" points="234.21 30.71 234.21 38.59 233.17 38.59 233.17 45.71 191.45 45.71 191.45 38.59 190.42 38.59 190.42 30.71 191.45 30.71 191.45 23.59 202.03 23.59 202.03 18.41 206.05 18.41 206.05 15.62 218.46 15.62 218.46 18.41 222.6 18.41 222.6 23.59 233.17 23.59 233.17 30.71 234.21 30.71" /><rect class="e" x="223.65" y="16.86" width="10.79" height="5.41" /><rect class="f" x="190.19" y="16.86" width="10.79" height="5.41" transform="translate(391.16 39.12) rotate(180)" /><polygon class="a" points="237.73 30.71 237.73 38.59 238.77 38.59 238.77 45.71 280.49 45.71 280.49 38.59 281.52 38.59 281.52 30.71 280.49 30.71 280.49 23.59 269.91 23.59 269.91 18.41 265.89 18.41 265.89 15.62 253.48 15.62 253.48 18.41 249.34 18.41 249.34 23.59 238.77 23.59 238.77 30.71 237.73 30.71" /><rect class="f" x="237.5" y="16.86" width="10.79" height="5.41" transform="translate(485.79 39.12) rotate(180)" /><rect class="e" x="270.97" y="16.86" width="10.79" height="5.41" /><rect class="d" x="253.42" y="15.14" width="12.41" height="0.48" /><rect class="a" x="686.92" y="13.75" width="97.74" height="36.13" /><rect class="d" x="688.21" y="15.62" width="95.16" height="33.13" /><rect class="d" x="705.86" y="15.14" width="12.41" height="0.48" /><polygon class="a" points="734.02 30.71 734.02 38.59 732.99 38.59 732.99 45.71 691.27 45.71 691.27 38.59 690.23 38.59 690.23 30.71 691.27 30.71 691.27 23.59 701.84 23.59 701.84 18.41 705.86 18.41 705.86 15.62 718.27 15.62 718.27 18.41 722.41 18.41 722.41 23.59 732.99 23.59 732.99 30.71 734.02 30.71" /><rect class="e" x="723.47" y="16.86" width="10.79" height="5.41" /><rect class="f" x="690" y="16.86" width="10.79" height="5.41" transform="translate(1390.79 39.12) rotate(180)" /><polygon class="a" points="737.55 30.71 737.55 38.59 738.58 38.59 738.58 45.71 780.3 45.71 780.3 38.59 781.34 38.59 781.34 30.71 780.3 30.71 780.3 23.59 769.73 23.59 769.73 18.41 765.71 18.41 765.71 15.62 753.3 15.62 753.3 18.41 749.16 18.41 749.16 23.59 738.58 23.59 738.58 30.71 737.55 30.71" /><rect class="f" x="737.32" y="16.86" width="10.79" height="5.41" transform="translate(1485.42 39.12) rotate(180)" /><rect class="e" x="770.78" y="16.86" width="10.79" height="5.41" /><rect class="d" x="753.24" y="15.14" width="12.41" height="0.48" /><rect class="a" x="295.56" y="13.68" width="383.06" height="36.2" /><rect class="d" x="296.71" y="15.55" width="380.34" height="33.2" /><rect class="d" x="314.54" y="15.07" width="12.44" height="0.48" /><polygon class="a" points="342.76 30.67 342.76 38.56 341.73 38.56 341.73 45.7 299.92 45.7 299.92 38.56 298.89 38.56 298.89 30.67 299.92 30.67 299.92 23.53 310.52 23.53 310.52 18.35 314.55 18.35 314.55 15.55 326.98 15.55 326.98 18.35 331.13 18.35 331.13 23.53 341.73 23.53 341.73 30.67 342.76 30.67" /><rect class="e" x="332.18" y="16.79" width="10.81" height="5.42" /><rect class="f" x="298.65" y="16.79" width="10.81" height="5.42" transform="translate(608.12 39) rotate(180)" /><polygon class="a" points="346.29 30.67 346.29 38.56 347.33 38.56 347.33 45.7 389.13 45.7 389.13 38.56 390.17 38.56 390.17 30.67 389.13 30.67 389.13 23.53 378.54 23.53 378.54 18.35 374.51 18.35 374.51 15.55 362.07 15.55 362.07 18.35 357.92 18.35 357.92 23.53 347.33 23.53 347.33 30.67 346.29 30.67" /><rect class="f" x="346.06" y="16.79" width="10.81" height="5.42" transform="translate(702.93 39) rotate(180)" /><rect class="e" x="379.59" y="16.79" width="10.81" height="5.42" /><rect class="d" x="362.01" y="15.07" width="12.44" height="0.48" /><rect class="d" x="409.34" y="15.07" width="12.44" height="0.48" /><polygon class="a" points="437.55 30.67 437.55 38.56 436.52 38.56 436.52 45.7 394.71 45.7 394.71 38.56 393.68 38.56 393.68 30.67 394.71 30.67 394.71 23.53 405.31 23.53 405.31 18.35 409.34 18.35 409.34 15.55 421.77 15.55 421.77 18.35 425.92 18.35 425.92 23.53 436.52 23.53 436.52 30.67 437.55 30.67" /><rect class="e" x="426.98" y="16.79" width="10.81" height="5.42" /><rect class="f" x="393.45" y="16.79" width="10.81" height="5.42" transform="translate(797.7 39) rotate(180)" /><polygon class="a" points="441.08 30.67 441.08 38.56 442.12 38.56 442.12 45.7 483.93 45.7 483.93 38.56 484.96 38.56 484.96 30.67 483.93 30.67 483.93 23.53 473.33 23.53 473.33 18.35 469.3 18.35 469.3 15.55 456.86 15.55 456.86 18.35 452.72 18.35 452.72 23.53 442.12 23.53 442.12 30.67 441.08 30.67" /><rect class="f" x="440.86" y="16.79" width="10.81" height="5.42" transform="translate(892.52 39) rotate(180)" /><rect class="e" x="474.38" y="16.79" width="10.81" height="5.42" /><rect class="d" x="456.81" y="15.07" width="12.44" height="0.48" /><rect class="d" x="504.13" y="15.07" width="12.44" height="0.48" /><polygon class="a" points="532.35 30.67 532.35 38.56 531.31 38.56 531.31 45.7 489.51 45.7 489.51 38.56 488.47 38.56 488.47 30.67 489.51 30.67 489.51 23.53 500.1 23.53 500.1 18.35 504.13 18.35 504.13 15.55 516.57 15.55 516.57 18.35 520.72 18.35 520.72 23.53 531.31 23.53 531.31 30.67 532.35 30.67" /><rect class="e" x="521.77" y="16.79" width="10.81" height="5.42" /><rect class="f" x="488.24" y="16.79" width="10.81" height="5.42" transform="translate(987.29 39) rotate(180)" /><polygon class="a" points="535.88 30.67 535.88 38.56 536.91 38.56 536.91 45.7 578.72 45.7 578.72 38.56 579.75 38.56 579.75 30.67 578.72 30.67 578.72 23.53 568.12 23.53 568.12 18.35 564.09 18.35 564.09 15.55 551.66 15.55 551.66 18.35 547.51 18.35 547.51 23.53 536.91 23.53 536.91 30.67 535.88 30.67" /><rect class="f" x="535.65" y="16.79" width="10.81" height="5.42" transform="translate(1082.11 39) rotate(180)" /><rect class="e" x="569.18" y="16.79" width="10.81" height="5.42" /><rect class="d" x="551.6" y="15.07" width="12.44" height="0.48" /><rect class="d" x="598.97" y="15.07" width="12.44" height="0.48" /><polygon class="a" points="627.18 30.67 627.18 38.56 626.15 38.56 626.15 45.7 584.34 45.7 584.34 38.56 583.31 38.56 583.31 30.67 584.34 30.67 584.34 23.53 594.94 23.53 594.94 18.35 598.97 18.35 598.97 15.55 611.4 15.55 611.4 18.35 615.55 18.35 615.55 23.53 626.15 23.53 626.15 30.67 627.18 30.67" /><rect class="e" x="616.6" y="16.79" width="10.81" height="5.42" /><rect class="f" x="583.08" y="16.79" width="10.81" height="5.42" transform="translate(1176.96 39) rotate(180)" /><polygon class="a" points="630.71 30.67 630.71 38.56 631.75 38.56 631.75 45.7 673.55 45.7 673.55 38.56 674.59 38.56 674.59 30.67 673.55 30.67 673.55 23.53 662.96 23.53 662.96 18.35 658.93 18.35 658.93 15.55 646.49 15.55 646.49 18.35 642.35 18.35 642.35 23.53 631.75 23.53 631.75 30.67 630.71 30.67" /><rect class="f" x="630.49" y="16.79" width="10.81" height="5.42" transform="translate(1271.78 39) rotate(180)" /><rect class="e" x="664.01" y="16.79" width="10.81" height="5.42" /><rect class="d" x="646.43" y="15.07" width="12.44" height="0.48" /><rect class="g" x="125.92" y="26.33" width="49.49" height="28.67" /><path class="d" d="M127.72,27.24h45.9c.75,0,1.36.4,1.36.9V53.51c0,.5-.61.91-1.36.91h-45.9c-.75,0-1.36-.41-1.36-.91V28.14C126.36,27.64,127,27.24,127.72,27.24Z" /><polygon class="h" points="173.1 28.34 128.24 28.34 128.24 52.5 141.15 52.5 141.15 57.57 160.19 57.57 160.19 52.5 173.1 52.5 173.1 28.34" /><path class="d" d="M142.87,51.13h15.59a0,0,0,0,1,0,0v.05a2.71,2.71,0,0,1-2.71,2.71H145.59a2.71,2.71,0,0,1-2.71-2.71v-.05A0,0,0,0,1,142.87,51.13Z" /><circle class="a" cx="817.47" cy="31.78" r="11.89" /><circle class="i" cx="817.47" cy="31.78" r="14.26" /><circle class="a" cx="856.27" cy="29.91" r="2.81" /><path class="a" d="M856.94,38.18v-1.3l-2.37,1.94,2.37,1.94V39a3.37,3.37,0,1,1-3.49,3.36h-.86a4.24,4.24,0,1,0,4.35-4.22Z" /><path class="j" d="M138.56,12.18h.68v6.28h-.68Z" /><path class="j" d="M141.22,18.46h-.65V13.93h.53l.08.68a1.6,1.6,0,0,1,.61-.6,1.68,1.68,0,0,1,.83-.21,1.53,1.53,0,0,1,1.21.48,1.69,1.69,0,0,1,.37,1.15v3h-.64v-3a1.11,1.11,0,0,0-.32-.86,1.15,1.15,0,0,0-.77-.25,1.2,1.2,0,0,0-.91.4,1.27,1.27,0,0,0-.34.91Z" /><path class="j" d="M147.3,14.48h-1v3q0,.57.54.57a2,2,0,0,0,.53-.07v.55a2.18,2.18,0,0,1-.6.09,1.06,1.06,0,0,1-.86-.35,1.2,1.2,0,0,1-.26-.8v-3H145v-.55h.66l.05-1.09h.6v1.09h1Z" /><path class="j" d="M151.3,17.18h.7a1.8,1.8,0,0,1-.75,1.07,2.15,2.15,0,0,1-1.21.34,2.06,2.06,0,0,1-1.64-.7,2.53,2.53,0,0,1-.54-1.7,2.45,2.45,0,0,1,.68-1.86A2,2,0,0,1,150,13.8a1.92,1.92,0,0,1,1.57.68,3,3,0,0,1,.51,1.86h-3.53a1.8,1.8,0,0,0,.53,1.34,1.44,1.44,0,0,0,1,.36,1.37,1.37,0,0,0,.83-.26A1.16,1.16,0,0,0,151.3,17.18ZM150,14.32a1.27,1.27,0,0,0-1,.43,1.75,1.75,0,0,0-.44,1.07h2.86a1.63,1.63,0,0,0-.49-1.18A1.36,1.36,0,0,0,150,14.32Z" /><path class="j" d="M153.78,18.46h-.65V13.93h.53l.09.77a1.26,1.26,0,0,1,1.21-.9,2,2,0,0,1,.48.06v.64a1.92,1.92,0,0,0-.5-.08,1,1,0,0,0-.86.47,2.1,2.1,0,0,0-.3,1.19Z" /><path class="j" d="M156.81,18.46h-.65V13.93h.54l.07.68a1.64,1.64,0,0,1,1.44-.81,1.53,1.53,0,0,1,1.21.48,1.7,1.7,0,0,1,.38,1.15v3h-.65v-3a1.11,1.11,0,0,0-.32-.86,1.15,1.15,0,0,0-.77-.25,1.2,1.2,0,0,0-.91.4,1.27,1.27,0,0,0-.34.91Z" /><path class="j" d="M164.22,17.18h.7a1.8,1.8,0,0,1-.75,1.07,2.18,2.18,0,0,1-1.21.34,2.06,2.06,0,0,1-1.64-.7,2.53,2.53,0,0,1-.54-1.7,2.45,2.45,0,0,1,.68-1.86,2,2,0,0,1,1.44-.53,1.92,1.92,0,0,1,1.57.68,3,3,0,0,1,.51,1.86h-3.54a1.88,1.88,0,0,0,.53,1.34,1.47,1.47,0,0,0,1,.36,1.38,1.38,0,0,0,.84-.26A1.16,1.16,0,0,0,164.22,17.18Zm-1.31-2.86a1.27,1.27,0,0,0-1,.43,1.75,1.75,0,0,0-.44,1.07h2.86a1.63,1.63,0,0,0-.49-1.18A1.36,1.36,0,0,0,162.91,14.32Z" /><path class="j" d="M167.9,14.48h-1v3q0,.57.54.57A2,2,0,0,0,168,18v.55a2.18,2.18,0,0,1-.6.09,1.06,1.06,0,0,1-.86-.35,1.2,1.2,0,0,1-.26-.8v-3h-.66v-.55h.66l.05-1.09h.6v1.09h1Z" /><path class="j" d="M174,18.46h-.64V13L172,13.8v-.67l1.4-.77H174Z" /><path class="j" d="M194.6,58.86h.68v6.28h-.68Z" /><path class="j" d="M197.25,65.14h-.64V60.61h.53l.08.67a1.62,1.62,0,0,1,.6-.59,1.72,1.72,0,0,1,.84-.22,1.55,1.55,0,0,1,1.21.49,1.69,1.69,0,0,1,.37,1.15v3h-.64v-3A1,1,0,0,0,198.51,61a1.19,1.19,0,0,0-.92.4,1.3,1.3,0,0,0-.34.91Z" /><path class="j" d="M203.33,61.16h-1v3q0,.57.54.57a2.11,2.11,0,0,0,.54-.07v.55a2.18,2.18,0,0,1-.6.09,1.07,1.07,0,0,1-.87-.35,1.2,1.2,0,0,1-.25-.8v-3H201v-.55h.66l0-1.09h.6v1.09h1Z" /><path class="j" d="M207.34,63.86h.7a1.8,1.8,0,0,1-.75,1.07,2.18,2.18,0,0,1-1.21.34,2.06,2.06,0,0,1-1.64-.7,2.53,2.53,0,0,1-.54-1.7,2.45,2.45,0,0,1,.68-1.86,2,2,0,0,1,1.44-.54,1.86,1.86,0,0,1,1.56.69A2.92,2.92,0,0,1,208.1,63h-3.54a1.88,1.88,0,0,0,.53,1.34,1.47,1.47,0,0,0,1,.36,1.38,1.38,0,0,0,.84-.26A1.16,1.16,0,0,0,207.34,63.86ZM206,61a1.29,1.29,0,0,0-1,.42,1.81,1.81,0,0,0-.44,1.08h2.86a1.67,1.67,0,0,0-.49-1.18A1.32,1.32,0,0,0,206,61Z" /><path class="j" d="M209.81,65.14h-.64V60.61h.53l.09.77a1.26,1.26,0,0,1,1.21-.91,2,2,0,0,1,.48.07v.64a2.05,2.05,0,0,0-.51-.08,1,1,0,0,0-.85.47,2.1,2.1,0,0,0-.31,1.19Z" /><path class="j" d="M212.85,65.14h-.65V60.61h.53l.08.67a1.57,1.57,0,0,1,.61-.59,1.69,1.69,0,0,1,.83-.22,1.55,1.55,0,0,1,1.21.49,1.69,1.69,0,0,1,.37,1.15v3h-.64v-3A1,1,0,0,0,214.1,61a1.16,1.16,0,0,0-.91.4,1.25,1.25,0,0,0-.34.91Z" /><path class="j" d="M220.26,63.86h.7a1.89,1.89,0,0,1-.75,1.07,2.18,2.18,0,0,1-1.21.34,2,2,0,0,1-1.64-.7,2.53,2.53,0,0,1-.54-1.7A2.42,2.42,0,0,1,217.5,61a2,2,0,0,1,1.43-.54,1.88,1.88,0,0,1,1.57.69A2.92,2.92,0,0,1,221,63h-3.54a1.88,1.88,0,0,0,.53,1.34,1.47,1.47,0,0,0,1,.36,1.38,1.38,0,0,0,.84-.26A1.16,1.16,0,0,0,220.26,63.86ZM218.94,61a1.31,1.31,0,0,0-1,.42,1.8,1.8,0,0,0-.43,1.08h2.85a1.63,1.63,0,0,0-.48-1.18A1.35,1.35,0,0,0,218.94,61Z" /><path class="j" d="M223.93,61.16h-1v3q0,.57.54.57a2.09,2.09,0,0,0,.53-.07v.55a2.18,2.18,0,0,1-.6.09,1.08,1.08,0,0,1-.87-.35,1.2,1.2,0,0,1-.25-.8v-3h-.66v-.55h.66l0-1.09h.61v1.09h1Z" /><path class="j" d="M228,60.57h-.69a1.79,1.79,0,0,1,.74-1.25,2.13,2.13,0,0,1,1.33-.41,2,2,0,0,1,1.43.52,1.54,1.54,0,0,1,.49,1.18,2.06,2.06,0,0,1-.36,1.16,6.32,6.32,0,0,1-1,1.15l-1.64,1.61h3v.61h-3.87v-.61l2.14-2.1a6.54,6.54,0,0,0,.86-1,1.59,1.59,0,0,0,.23-.82,1.08,1.08,0,0,0-.39-.88,1.36,1.36,0,0,0-.88-.27,1.38,1.38,0,0,0-1,.34A1.17,1.17,0,0,0,228,60.57Z" /><path class="j" d="M241.28,58.86H242v6.28h-.68Z" /><path class="j" d="M243.93,65.14h-.64V60.61h.53l.08.67a1.62,1.62,0,0,1,.6-.59,1.72,1.72,0,0,1,.83-.22,1.56,1.56,0,0,1,1.22.49,1.69,1.69,0,0,1,.37,1.15v3h-.64v-3A1,1,0,0,0,245.19,61a1.19,1.19,0,0,0-.92.4,1.3,1.3,0,0,0-.34.91Z" /><path class="j" d="M250,61.16h-1v3q0,.57.54.57a2,2,0,0,0,.53-.07v.55a2.08,2.08,0,0,1-.6.09,1.06,1.06,0,0,1-.86-.35,1.2,1.2,0,0,1-.25-.8v-3h-.66v-.55h.66l0-1.09h.6v1.09h1Z" /><path class="j" d="M254,63.86h.7a1.89,1.89,0,0,1-.75,1.07,2.18,2.18,0,0,1-1.21.34,2,2,0,0,1-1.64-.7,2.53,2.53,0,0,1-.54-1.7,2.45,2.45,0,0,1,.68-1.86,2,2,0,0,1,1.44-.54,1.88,1.88,0,0,1,1.56.69,2.92,2.92,0,0,1,.52,1.86h-3.54a1.88,1.88,0,0,0,.53,1.34,1.47,1.47,0,0,0,1,.36,1.38,1.38,0,0,0,.84-.26A1.16,1.16,0,0,0,254,63.86ZM252.7,61a1.32,1.32,0,0,0-1,.42,1.8,1.8,0,0,0-.43,1.08h2.86a1.67,1.67,0,0,0-.49-1.18A1.33,1.33,0,0,0,252.7,61Z" /><path class="j" d="M256.49,65.14h-.64V60.61h.53l.09.77a1.25,1.25,0,0,1,1.21-.91,2.14,2.14,0,0,1,.48.07v.64a2.05,2.05,0,0,0-.51-.08,1,1,0,0,0-.85.47,2,2,0,0,0-.31,1.19Z" /><path class="j" d="M259.52,65.14h-.64V60.61h.53l.08.67a1.57,1.57,0,0,1,.61-.59,1.66,1.66,0,0,1,.83-.22,1.55,1.55,0,0,1,1.21.49,1.69,1.69,0,0,1,.37,1.15v3h-.64v-3A1,1,0,0,0,260.78,61a1.19,1.19,0,0,0-.92.4,1.3,1.3,0,0,0-.34.91Z" /><path class="j" d="M266.94,63.86h.69a1.8,1.8,0,0,1-.75,1.07,2.15,2.15,0,0,1-1.21.34,2,2,0,0,1-1.63-.7,2.53,2.53,0,0,1-.54-1.7,2.42,2.42,0,0,1,.68-1.86,2,2,0,0,1,1.43-.54,1.88,1.88,0,0,1,1.57.69A3,3,0,0,1,267.7,63h-3.54a1.84,1.84,0,0,0,.53,1.34,1.45,1.45,0,0,0,1,.36,1.4,1.4,0,0,0,.84-.26A1.23,1.23,0,0,0,266.94,63.86ZM265.62,61a1.31,1.31,0,0,0-1,.42,1.8,1.8,0,0,0-.43,1.08H267a1.67,1.67,0,0,0-.48-1.18A1.35,1.35,0,0,0,265.62,61Z" /><path class="j" d="M270.61,61.16h-1v3q0,.57.54.57a2.11,2.11,0,0,0,.54-.07v.55a2.2,2.2,0,0,1-.61.09,1.06,1.06,0,0,1-.86-.35,1.2,1.2,0,0,1-.25-.8v-3h-.66v-.55H269l0-1.09h.6v1.09h1Z" /><path class="j" d="M276,65.26a2.29,2.29,0,0,1-1.52-.48,1.71,1.71,0,0,1-.61-1.09h.69a1.17,1.17,0,0,0,.52.79,1.62,1.62,0,0,0,.91.24,1.51,1.51,0,0,0,1.12-.4,1.16,1.16,0,0,0,.34-.86,1.17,1.17,0,0,0-.45-1,1.45,1.45,0,0,0-.87-.26h-.56v-.57h.54a1.15,1.15,0,0,0,.84-.32,1.06,1.06,0,0,0,.31-.78,1,1,0,0,0-.43-.85,1.47,1.47,0,0,0-.86-.23,1.52,1.52,0,0,0-1,.29,1.16,1.16,0,0,0-.4.69h-.68a1.66,1.66,0,0,1,.76-1.17,2.38,2.38,0,0,1,1.33-.36,2.13,2.13,0,0,1,1.41.45,1.39,1.39,0,0,1,.51,1.12,1.33,1.33,0,0,1-.34.94,1.48,1.48,0,0,1-.79.47,1.58,1.58,0,0,1,1,.55,1.56,1.56,0,0,1,.34,1,1.62,1.62,0,0,1-.65,1.36A2.43,2.43,0,0,1,276,65.26Z" /><path class="j" d="M321.91,59h.69v4.39h1V64h-1v1.15H322V64h-2.74v-.62Zm-2,4.39h2V60.07Z" /><path class="j" d="M367.4,65.27a2.2,2.2,0,0,1-1.49-.52,1.7,1.7,0,0,1-.61-1.06H366a1.17,1.17,0,0,0,.53.78,1.55,1.55,0,0,0,.89.25,1.39,1.39,0,0,0,1.1-.47,1.62,1.62,0,0,0,.38-1.1,1.47,1.47,0,0,0-.46-1.15,1.38,1.38,0,0,0-1-.34,1.8,1.8,0,0,0-.76.17,1.63,1.63,0,0,0-.6.47h-.57l.13-3.26h3.62v.55h-3l-.08,2.06a2.06,2.06,0,0,1,1.42-.51,1.86,1.86,0,0,1,1.46.59,2,2,0,0,1,.51,1.45,2,2,0,0,1-.67,1.55A2.11,2.11,0,0,1,367.4,65.27Z" /><path class="j" d="M416.28,60.15h-.71a.92.92,0,0,0-.38-.52,1.14,1.14,0,0,0-.68-.19c-1,0-1.5.87-1.56,2.62a1.77,1.77,0,0,1,1.56-.91,1.82,1.82,0,0,1,1.46.64,2.14,2.14,0,0,1,.46,1.4,2,2,0,0,1-2,2.08,1.8,1.8,0,0,1-1.67-.9,4,4,0,0,1-.43-2,4.2,4.2,0,0,1,.76-2.84,2.05,2.05,0,0,1,2.63-.21A1.53,1.53,0,0,1,416.28,60.15Zm-1.87,1.55a1.29,1.29,0,0,0-1,.46,1.47,1.47,0,0,0-.33,1,1.69,1.69,0,0,0,.39,1.15,1.31,1.31,0,0,0,1,.43,1.28,1.28,0,0,0,1-.44,1.51,1.51,0,0,0,.35-1,1.57,1.57,0,0,0-.42-1.18A1.3,1.3,0,0,0,414.41,61.7Z" /><path class="j" d="M463.13,59.62l-2.62,5.52h-.73l2.66-5.52h-3.18V59h3.87Z" /><path class="j" d="M509.93,60.45a1.55,1.55,0,0,1-1.14,1.44c.91.34,1.37.89,1.37,1.63a1.53,1.53,0,0,1-.68,1.31,2.5,2.5,0,0,1-1.51.44,2.43,2.43,0,0,1-1.66-.55,1.47,1.47,0,0,1-.53-1.14,1.67,1.67,0,0,1,1.31-1.65A1.5,1.5,0,0,1,506,60.5a1.38,1.38,0,0,1,.67-1.25,2.3,2.3,0,0,1,1.29-.34,2.34,2.34,0,0,1,1.44.41A1.36,1.36,0,0,1,509.93,60.45Zm-.46,3.07a1.12,1.12,0,0,0-.61-1,3.24,3.24,0,0,0-1-.34c-.9.23-1.36.69-1.36,1.38a1,1,0,0,0,.46.9,1.67,1.67,0,0,0,1,.31,1.64,1.64,0,0,0,1.15-.38A1.08,1.08,0,0,0,509.47,63.52Zm-2.82-3.05a1,1,0,0,0,.55,1,2.46,2.46,0,0,0,.87.28c.81-.25,1.22-.66,1.22-1.24a.92.92,0,0,0-.45-.82,1.61,1.61,0,0,0-.87-.23,1.55,1.55,0,0,0-1,.29A.92.92,0,0,0,506.65,60.47Z" /><path class="j" d="M552.29,64H553a.87.87,0,0,0,.39.53,1.28,1.28,0,0,0,.71.19,1.22,1.22,0,0,0,1.13-.65,4.18,4.18,0,0,0,.42-2,1.6,1.6,0,0,1-.72.71,1.85,1.85,0,0,1-.83.2,1.81,1.81,0,0,1-1.43-.6,2.12,2.12,0,0,1-.48-1.44,2,2,0,0,1,.64-1.58,1.94,1.94,0,0,1,1.34-.49,1.79,1.79,0,0,1,1.68.89,3.84,3.84,0,0,1,.45,2c0,2.29-.74,3.44-2.22,3.44a1.91,1.91,0,0,1-1.21-.39A1.59,1.59,0,0,1,552.29,64Zm1.92-1.54a1.29,1.29,0,0,0,1-.46,1.47,1.47,0,0,0,.33-1,1.69,1.69,0,0,0-.4-1.15,1.37,1.37,0,0,0-2,0,1.52,1.52,0,0,0-.34,1,1.56,1.56,0,0,0,.45,1.2A1.31,1.31,0,0,0,554.21,62.47Z" /><path class="j" d="M599,65.14h-.64V59.72l-1.39.75V59.8l1.4-.76H599Z" /><path class="j" d="M603.53,65.27a1.81,1.81,0,0,1-1.6-.88,4.25,4.25,0,0,1-.54-2.31,3.88,3.88,0,0,1,.7-2.53,1.92,1.92,0,0,1,3,.21,4.21,4.21,0,0,1,.54,2.32A3.91,3.91,0,0,1,605,64.6,1.8,1.8,0,0,1,603.53,65.27Zm0-.55q1.47,0,1.47-2.64c0-1.75-.49-2.62-1.47-2.62s-1.47.87-1.47,2.62S602.55,64.72,603.53,64.72Z" /><path class="j" d="M647,65.14h-.65V59.72l-1.38.75V59.8l1.39-.76H647Z" /><path class="j" d="M652.24,65.14h-.64V59.72l-1.39.75V59.8l1.4-.76h.63Z" /><path class="j" d="M712.58,65.14h-.65V59.72l-1.38.75V59.8l1.39-.76h.64Z" /><path class="j" d="M715.78,60.57h-.69a1.83,1.83,0,0,1,.74-1.25,2.14,2.14,0,0,1,1.34-.41,2,2,0,0,1,1.43.52,1.57,1.57,0,0,1,.48,1.18,2.13,2.13,0,0,1-.35,1.16,7.23,7.23,0,0,1-1,1.15l-1.65,1.61h3v.61H715.2v-.61l2.13-2.1a6,6,0,0,0,.86-1,1.59,1.59,0,0,0,.23-.82,1.1,1.1,0,0,0-.38-.88,1.59,1.59,0,0,0-1.87.07A1.17,1.17,0,0,0,715.78,60.57Z" /><path class="j" d="M759,65.14h-.64V59.72l-1.39.75V59.8l1.39-.76H759Z" /><path class="j" d="M763.5,65.26a2.29,2.29,0,0,1-1.52-.48,1.71,1.71,0,0,1-.61-1.09h.69a1.14,1.14,0,0,0,.52.79,1.62,1.62,0,0,0,.91.24,1.51,1.51,0,0,0,1.12-.4,1.28,1.28,0,0,0-.12-1.85,1.42,1.42,0,0,0-.86-.26h-.56v-.57h.54a1.15,1.15,0,0,0,.84-.32,1.06,1.06,0,0,0,.31-.78,1,1,0,0,0-.43-.85,1.47,1.47,0,0,0-.86-.23,1.52,1.52,0,0,0-1,.29,1.16,1.16,0,0,0-.4.69h-.68a1.63,1.63,0,0,1,.76-1.17,2.36,2.36,0,0,1,1.33-.36,2.13,2.13,0,0,1,1.41.45,1.39,1.39,0,0,1,.51,1.12,1.37,1.37,0,0,1-.34.94,1.48,1.48,0,0,1-.79.47,1.58,1.58,0,0,1,1,.55,1.56,1.56,0,0,1,.34,1,1.62,1.62,0,0,1-.65,1.36A2.43,2.43,0,0,1,763.5,65.26Z" /><circle class="j" cx="129.06" cy="15.92" r="2.75" /><polygon class="j" points="706.16 60.45 705.72 60.45 706.93 58.81 705.51 58.81 704.44 61.1 705.06 61.1 705.65 61.1 703.58 64.85 706.41 60.9 706.72 60.45 706.16 60.45" /><polygon class="j" points="752.79 60.45 752.34 60.45 753.55 58.81 752.13 58.81 751.07 61.1 751.68 61.1 752.27 61.1 750.21 64.85 753.04 60.9 753.34 60.45 752.79 60.45" /></svg>