<svg viewBox="0 0 3414.38 309.14"><defs><style>.a{fill:#d0d0d0;}.b{fill:#fff;}.c{fill:#060606;}.d{fill:#231f20;}.e{fill:#443a38;}.f{fill:#eee9e5;}.g{fill:#3f4040;}.h{fill:#9c9c9c;}.i{fill:#0f0f10;}.j,.n{fill:#afaaa7;}.j{stroke:#231f20;stroke-miterlimit:10;}.k{fill:#020202;}.l{fill:#1a1a1a;}.m{fill:#b4afac;}.o{fill:#060707;}.p{fill:#bdbdbb;}</style></defs><path class="a" d="M3377,0H37.42A37.43,37.43,0,0,0,0,37.42V271.71a37.43,37.43,0,0,0,37.42,37.43H3377a37.43,37.43,0,0,0,37.43-37.43V37.42A37.43,37.43,0,0,0,3377,0ZM109.32,265.87a24.44,24.44,0,0,1-24.44,24.44H61.76a24.44,24.44,0,0,1-24.44-24.44h0a24.44,24.44,0,0,1,24.44-24.44H84.88a24.44,24.44,0,0,1,24.44,24.44Zm0-222.6A24.44,24.44,0,0,1,84.88,67.71H61.76A24.44,24.44,0,0,1,37.32,43.27h0A24.44,24.44,0,0,1,61.76,18.83H84.88a24.44,24.44,0,0,1,24.44,24.44Zm3267.74,222.6a24.44,24.44,0,0,1-24.44,24.44H3329.5a24.44,24.44,0,0,1-24.44-24.44h0a24.44,24.44,0,0,1,24.44-24.44h23.12a24.44,24.44,0,0,1,24.44,24.44Zm0-222.6a24.45,24.45,0,0,1-24.44,24.44H3329.5a24.44,24.44,0,0,1-24.44-24.44h0a24.44,24.44,0,0,1,24.44-24.44h23.12a24.44,24.44,0,0,1,24.44,24.44Z" /><circle class="b" cx="300.05" cy="214.84" r="7.93" /><circle class="c" cx="356.53" cy="214.84" r="5.76" /><circle class="c" cx="412.35" cy="214.84" r="5.5" /><path class="c" d="M300.05,199.49a8.92,8.92,0,0,1-5.83-15.68l1.31,1.52a6.93,6.93,0,1,0,9.05,0l1.31-1.52a8.93,8.93,0,0,1-5.84,15.68Z" /><rect class="c" x="299.05" y="181.38" width="2" height="10.46" /><path class="c" d="M412.35,183.38a7.14,7.14,0,0,0-1.79.23l1.05-1.6-.84-.55L409,184.23a.91.91,0,0,0-.17.09l.05.09-.27.42.69.33,0,0h0l2.76,1.3.43-.91-1.94-.91a6.11,6.11,0,0,1,1.81-.28,6.27,6.27,0,1,1-6.27,6.27h-1a7.27,7.27,0,1,0,7.27-7.27Z" /><path class="d" d="M354.87,186.78v10.65h-1.52v-4.75h-5.21v4.75h-1.51V186.78h1.51v4.63h5.21v-4.63Z" /><path class="d" d="M364.76,197.43l-1.05-2.69h-5.08l-1.06,2.69H356l4.38-10.65h1.71l4.36,10.65Zm-5.64-3.92h4.1l-2-5.22Z" /><polygon class="e" points="3093.45 194.4 3086.81 194.4 3086.81 171.02 3093.45 171.02 3093.45 194.4 3093.45 194.4" /><path class="e" d="M3146.93,177.71a12.85,12.85,0,0,0-5.59-1.25c-4.29,0-7.26,2.66-7.26,6.24s2.84,6.24,7.26,6.24a12.94,12.94,0,0,0,5.59-1.24V194a23.69,23.69,0,0,1-6,.83c-7.47,0-14-4.57-14-12.11,0-7,5.92-12.1,14-12.1a22.42,22.42,0,0,1,6,.84v6.27Z" /><path class="e" d="M3077.7,177.71a12.67,12.67,0,0,0-5.57-1.25c-4.3,0-7.27,2.66-7.27,6.24s2.83,6.24,7.27,6.24a12.71,12.71,0,0,0,5.57-1.24V194a23.48,23.48,0,0,1-6.06.83c-7.46,0-14-4.57-14-12.11,0-7,5.91-12.1,14-12.1a22.22,22.22,0,0,1,6.06.84v6.27Z" /><path class="e" d="M3181.66,182.7c0,6.69-5.8,12.11-13.88,12.11s-13.87-5.42-13.87-12.11,5.79-12.1,13.87-12.1,13.88,5.42,13.88,12.1Zm-13.88-6.14c-3.93,0-6.85,2.74-6.85,6.14s2.92,6.15,6.85,6.15,6.86-2.75,6.86-6.15-2.92-6.14-6.86-6.14Z" /><path class="e" d="M3118.59,176.33a25,25,0,0,0-5.18-.71c-2.65,0-4.1.79-4.1,1.92,0,1.41,1.94,1.91,3,2.22l1.84.52c4.3,1.21,6.27,3.84,6.27,6.68,0,5.88-5.81,7.85-10.88,7.85a44.55,44.55,0,0,1-7.16-.64v-5.38a27.43,27.43,0,0,0,6.26.88c3.29,0,4.82-.87,4.82-2.2,0-1.18-1.31-1.86-3-2.32-.4-.12-1-.29-1.42-.4-3.69-1-6.76-3-6.76-6.84,0-4.38,3.67-7.31,9.79-7.31a32.58,32.58,0,0,1,6.46.73v5Z" /><path class="e" d="M3051.42,145.87a3.26,3.26,0,0,0-6.51,0v6.81a3.26,3.26,0,0,0,6.51,0v-6.81Z" /><path class="e" d="M3069.29,136.91a3.26,3.26,0,0,0-6.51,0v15.77a3.26,3.26,0,0,0,6.51,0V136.91Z" /><path class="e" d="M3087.17,124.67a3.26,3.26,0,0,0-6.51,0v34.5a3.26,3.26,0,1,0,6.51,0v-34.5Z" /><path class="e" d="M3105.05,136.91a3.25,3.25,0,0,0-6.5,0v15.77a3.25,3.25,0,0,0,6.5,0V136.91Z" /><path class="e" d="M3122.9,145.87a3.25,3.25,0,0,0-6.49,0v6.81a3.25,3.25,0,1,0,6.49,0v-6.81Z" /><path class="e" d="M3140.79,136.91a3.24,3.24,0,0,0-6.48,0v15.77a3.24,3.24,0,1,0,6.48,0V136.91Z" /><path class="e" d="M3158.68,124.67a3.25,3.25,0,0,0-6.49,0v34.5a3.25,3.25,0,1,0,6.49,0v-34.5Z" /><path class="e" d="M3176.57,136.91a3.27,3.27,0,0,0-6.54,0v15.77a3.27,3.27,0,0,0,6.54,0V136.91Z" /><path class="e" d="M3194.42,145.87a3.25,3.25,0,0,0-6.5,0v6.81a3.25,3.25,0,1,0,6.5,0v-6.81Z" /><rect class="c" x="1104.13" y="194.86" width="101.06" height="49.21" /><rect class="f" x="1116.95" y="206.42" width="77.28" height="13.32" /><path class="f" d="M1195.72,199H1113.6a5,5,0,0,0-5,5v32.39a5,5,0,0,0,5,5h82.12a5,5,0,0,0,5-5V203.93A5,5,0,0,0,1195.72,199Zm3,37.37a3,3,0,0,1-3,3h-14.14v-6.58h-10.35v6.58H1140v-6.58h-10.35v6.58h-16a3,3,0,0,1-3-3V203.93a3,3,0,0,1,3-3h82.12a3,3,0,0,1,3,3Z" /><path class="c" d="M1171,177l-4.51-2.25v1.48h-17.3l3.8-3.27h4.64a2,2,0,1,0,0-1.69h-5.27l-5.77,5h-.78a3.75,3.75,0,1,0,0,1.69h6l4.68,4.67h4.07v.94h3.71v-3.71h-3.71v1.08h-3.38l-3-3h12.31v1.34Z" /><circle class="g" cx="1154.91" cy="267.36" r="5.45" /><circle class="h" cx="1154.91" cy="267.36" r="3.88" /><circle class="g" cx="1461.26" cy="269.77" r="5.45" /><circle class="h" cx="1461.26" cy="269.77" r="3.88" /><circle class="g" cx="1511.9" cy="269.77" r="5.45" /><circle class="h" cx="1511.9" cy="269.77" r="3.88" /><path class="d" d="M1453.41,298.22v-9.75l-2.55,1.31v-1.6l2.56-1.34H1455v11.38Z" /><path class="d" d="M1502.52,289.82a3.64,3.64,0,0,1,.41-1.27,3.42,3.42,0,0,1,.84-1,3.78,3.78,0,0,1,1.21-.69,4.9,4.9,0,0,1,3,0,3.48,3.48,0,0,1,1.17.64,3,3,0,0,1,.78,1,3.17,3.17,0,0,1,.29,1.35,4.09,4.09,0,0,1-.14,1.08,3.92,3.92,0,0,1-.46,1,8.53,8.53,0,0,1-.83,1.09c-.35.38-.78.82-1.29,1.31l-2.6,2.47h5.27v1.43h-7.38v-1.43l3.71-3.56c.39-.37.71-.7,1-1a9.94,9.94,0,0,0,.66-.84,3.25,3.25,0,0,0,.37-.75,2.56,2.56,0,0,0,.11-.79,1.83,1.83,0,0,0-.56-1.41,2.21,2.21,0,0,0-1.58-.52,2.45,2.45,0,0,0-1.6.5,2,2,0,0,0-.72,1.4Z" /><polygon class="d" points="1468.74 294.33 1459.82 294.33 1464.28 287.89 1464.28 287.89 1468.74 294.33" /><polygon class="d" points="1513.45 291.44 1522.37 291.44 1517.91 297.88 1517.91 297.88 1513.45 291.44" /><circle class="g" cx="1607.48" cy="269.65" r="5.45" /><circle class="h" cx="1607.48" cy="269.65" r="3.88" /><circle class="g" cx="1658.12" cy="269.65" r="5.45" /><circle class="h" cx="1658.12" cy="269.65" r="3.88" /><path class="d" d="M1612,295a3.13,3.13,0,0,1-.29,1.34,3,3,0,0,1-.81,1.05,3.66,3.66,0,0,1-1.28.69,5.06,5.06,0,0,1-1.65.25,4.37,4.37,0,0,1-2.84-.85,3.31,3.31,0,0,1-1.26-2.2h1.66a2.15,2.15,0,0,0,.78,1.3,2.61,2.61,0,0,0,1.63.45,2.68,2.68,0,0,0,1.82-.57,1.89,1.89,0,0,0,.64-1.49,2.13,2.13,0,0,0-.2-1,1.86,1.86,0,0,0-.53-.67,1.9,1.9,0,0,0-.72-.37,2.71,2.71,0,0,0-.79-.12h-.94v-1.35h.91a1.91,1.91,0,0,0,.66-.11,2.16,2.16,0,0,0,.61-.34,1.66,1.66,0,0,0,.44-.59,1.94,1.94,0,0,0,.17-.86,1.65,1.65,0,0,0-.18-.79,1.67,1.67,0,0,0-.49-.56,2,2,0,0,0-.7-.33,3.08,3.08,0,0,0-.8-.1,2.6,2.6,0,0,0-1.56.44,1.79,1.79,0,0,0-.73,1.18H1604a2.94,2.94,0,0,1,.44-1.2,3.14,3.14,0,0,1,.86-.92,4,4,0,0,1,1.21-.59,5.13,5.13,0,0,1,1.5-.21,5.22,5.22,0,0,1,1.38.18,3.54,3.54,0,0,1,1.18.54,2.67,2.67,0,0,1,1.13,2.25,2.47,2.47,0,0,1-.58,1.62,3,3,0,0,1-1.47,1,3.23,3.23,0,0,1,.93.33,3,3,0,0,1,.77.6,3,3,0,0,1,.74,2Z" /><path class="d" d="M1659.67,286.73v7.89h1.83V296h-1.83v2.14h-1.52V296h-5v-1.45l4.87-7.78Zm-1.52,7.89v-5.37l-3.24,5.37Z" /><polygon class="d" points="1622.96 294.22 1614.04 294.22 1618.5 287.78 1618.5 287.78 1622.96 294.22" /><polygon class="d" points="1667.67 291.33 1676.58 291.33 1672.13 297.77 1672.13 297.77 1667.67 291.33" /><circle class="g" cx="1789.14" cy="269.65" r="5.45" /><circle class="h" cx="1789.14" cy="269.65" r="3.88" /><circle class="g" cx="1839.78" cy="269.65" r="5.45" /><circle class="h" cx="1839.78" cy="269.65" r="3.88" /><circle class="g" cx="1888.82" cy="269.65" r="5.45" /><circle class="h" cx="1888.82" cy="269.65" r="3.88" /><circle class="g" cx="1939.46" cy="269.65" r="5.45" /><circle class="h" cx="1939.46" cy="269.65" r="3.88" /><circle class="g" cx="1987.09" cy="269.65" r="5.45" /><circle class="h" cx="1987.09" cy="269.65" r="3.88" /><circle class="g" cx="2037.73" cy="269.65" r="5.45" /><circle class="h" cx="2037.73" cy="269.65" r="3.88" /><circle class="g" cx="2085.04" cy="269.65" r="5.45" /><circle class="h" cx="2085.04" cy="269.65" r="3.88" /><circle class="g" cx="2135.68" cy="269.65" r="5.45" /><circle class="h" cx="2135.68" cy="269.65" r="3.88" /><path class="d" d="M1786.08,295.33a2.18,2.18,0,0,0,.77,1.2,2.49,2.49,0,0,0,1.64.49,2.61,2.61,0,0,0,1-.18,2.14,2.14,0,0,0,.79-.52,2.3,2.3,0,0,0,.52-.84,3.41,3.41,0,0,0,.19-1.14,2.55,2.55,0,0,0-.67-1.92,2.39,2.39,0,0,0-1.77-.66,3.2,3.2,0,0,0-1.19.24,2.68,2.68,0,0,0-1.08.8h-1.38l.24-6.08h7V288h-5.57l-.13,3.33a3.88,3.88,0,0,1,2.49-.83,4.09,4.09,0,0,1,1.41.24,3.36,3.36,0,0,1,1.17.73,3.72,3.72,0,0,1,.81,1.21,4.43,4.43,0,0,1,.3,1.69,4.26,4.26,0,0,1-.28,1.51,3.66,3.66,0,0,1-.8,1.25,3.77,3.77,0,0,1-1.28.85,4.54,4.54,0,0,1-1.74.32,4.89,4.89,0,0,1-1.58-.25,4.11,4.11,0,0,1-1.22-.68,3.59,3.59,0,0,1-.83-1,3.1,3.1,0,0,1-.41-1.12Z" /><path class="d" d="M1839.85,290.65a3.7,3.7,0,0,1,1.49.29,3.08,3.08,0,0,1,1.11.79,3.21,3.21,0,0,1,.7,1.21,4.72,4.72,0,0,1,.25,1.53,4.14,4.14,0,0,1-.34,1.71,3.61,3.61,0,0,1-.87,1.21,3.47,3.47,0,0,1-1.22.71,4.09,4.09,0,0,1-1.38.24,3.44,3.44,0,0,1-3-1.4,6.86,6.86,0,0,1-1-4.08,11.51,11.51,0,0,1,.35-3.15,5.37,5.37,0,0,1,.93-1.95,3.3,3.3,0,0,1,1.33-1,4.27,4.27,0,0,1,1.53-.28,3.81,3.81,0,0,1,2.23.64,3,3,0,0,1,1.2,1.76h-1.72a1.54,1.54,0,0,0-.59-.83,2,2,0,0,0-1.14-.3,2.1,2.1,0,0,0-.92.21,2,2,0,0,0-.78.72,4.7,4.7,0,0,0-.58,1.36,9.41,9.41,0,0,0-.3,2.09,3.07,3.07,0,0,1,.59-.69,2.68,2.68,0,0,1,.68-.45,3.35,3.35,0,0,1,.73-.26A3.68,3.68,0,0,1,1839.85,290.65Zm-2.55,3.77a2.65,2.65,0,0,0,.66,1.94,2.19,2.19,0,0,0,1.63.68,2.24,2.24,0,0,0,.86-.17,1.91,1.91,0,0,0,.72-.47,2.22,2.22,0,0,0,.48-.78,3.2,3.2,0,0,0,.17-1.07,2.77,2.77,0,0,0-.61-1.91,2.07,2.07,0,0,0-1.63-.69,2.26,2.26,0,0,0-1,.21,2,2,0,0,0-.72.54,2.22,2.22,0,0,0-.42.79A3.22,3.22,0,0,0,1837.3,294.42Z" /><path class="d" d="M1887.89,298.09h-1.78l4.76-10h-5.57v-1.4h7.23v1.4Z" /><path class="d" d="M1943.7,289.4a2.4,2.4,0,0,1-.16.9,2.81,2.81,0,0,1-.43.73,3.59,3.59,0,0,1-.6.57,5,5,0,0,1-.67.43,6.45,6.45,0,0,1,.81.44,3.63,3.63,0,0,1,.73.63,3,3,0,0,1,.54.84,2.67,2.67,0,0,1,.21,1.08,3,3,0,0,1-1.15,2.39,4,4,0,0,1-1.31.68,5.24,5.24,0,0,1-1.68.25,5.56,5.56,0,0,1-1.69-.24,4.13,4.13,0,0,1-1.31-.66,3.05,3.05,0,0,1-.85-1,2.77,2.77,0,0,1-.3-1.28,2.91,2.91,0,0,1,.21-1.15,3,3,0,0,1,.52-.86,3.43,3.43,0,0,1,.72-.61,4.73,4.73,0,0,1,.78-.39,4.3,4.3,0,0,1-.65-.37,2.75,2.75,0,0,1-.58-.55,2.63,2.63,0,0,1-.41-.74,2.59,2.59,0,0,1-.16-1,2.9,2.9,0,0,1,.3-1.36,2.8,2.8,0,0,1,.82-1,3.61,3.61,0,0,1,1.19-.55,5.73,5.73,0,0,1,2.81,0,3.68,3.68,0,0,1,1.19.52,2.63,2.63,0,0,1,.82.9A2.75,2.75,0,0,1,1943.7,289.4Zm-1.23,5.62a2,2,0,0,0-.26-1.09,2.17,2.17,0,0,0-.67-.68,4,4,0,0,0-.92-.4c-.34-.09-.66-.17-1-.23a4.17,4.17,0,0,0-.73.28,3.28,3.28,0,0,0-.69.48,2.61,2.61,0,0,0-.52.7,2.16,2.16,0,0,0-.2.94,2,2,0,0,0,.15.79,1.94,1.94,0,0,0,.46.64,2.13,2.13,0,0,0,.77.44,3.34,3.34,0,0,0,1.11.16,2.65,2.65,0,0,0,1.86-.57A1.88,1.88,0,0,0,1942.47,295Zm-4.68-5.58a1.94,1.94,0,0,0,.26,1.05,2.06,2.06,0,0,0,.64.64,2.53,2.53,0,0,0,.81.34,7.21,7.21,0,0,0,.81.16,3.67,3.67,0,0,0,.63-.31,3.41,3.41,0,0,0,.6-.46,2.49,2.49,0,0,0,.44-.62,1.85,1.85,0,0,0,.17-.8,1.54,1.54,0,0,0-.17-.73,1.73,1.73,0,0,0-.47-.54,2,2,0,0,0-.69-.35,2.82,2.82,0,0,0-.83-.12,3.22,3.22,0,0,0-.84.1,2,2,0,0,0-.7.33,1.54,1.54,0,0,0-.66,1.31Z" /><path class="d" d="M1986.79,294.16a3.68,3.68,0,0,1-1.43-.26,3,3,0,0,1-1.12-.75,3.27,3.27,0,0,1-.73-1.21,4.44,4.44,0,0,1-.26-1.6,4.09,4.09,0,0,1,.29-1.59,3.64,3.64,0,0,1,.8-1.22,3.77,3.77,0,0,1,1.2-.78,4.17,4.17,0,0,1,1.51-.27,3.51,3.51,0,0,1,3,1.35,6.93,6.93,0,0,1,1,4.12,11.84,11.84,0,0,1-.34,3.11,5.67,5.67,0,0,1-.91,2,3,3,0,0,1-1.33,1,4.34,4.34,0,0,1-1.61.3,3.76,3.76,0,0,1-2.24-.66,3,3,0,0,1-1.2-1.78h1.72a1.51,1.51,0,0,0,.61.86,2,2,0,0,0,1.18.31,2.24,2.24,0,0,0,1-.21,2,2,0,0,0,.78-.72,4.33,4.33,0,0,0,.55-1.34,11.23,11.23,0,0,0,.27-2.1,3,3,0,0,1-.58.69,2.88,2.88,0,0,1-1.41.7A3.46,3.46,0,0,1,1986.79,294.16Zm2.55-3.77a2.67,2.67,0,0,0-.66-1.94,2.18,2.18,0,0,0-1.63-.67,2.13,2.13,0,0,0-.88.17,1.93,1.93,0,0,0-.71.49,2.32,2.32,0,0,0-.47.78,3,3,0,0,0-.17,1,3.43,3.43,0,0,0,.17,1.12,2.42,2.42,0,0,0,.47.82,1.8,1.8,0,0,0,.72.5,2.33,2.33,0,0,0,.88.16,2.23,2.23,0,0,0,1-.2,2.13,2.13,0,0,0,1.14-1.33A3.24,3.24,0,0,0,1989.34,290.39Z" /><path class="d" d="M2032.56,298.09v-9.74l-2.55,1.31v-1.61l2.57-1.33h1.53v11.37Z" /><path class="d" d="M2042.47,298.34a3.68,3.68,0,0,1-1.61-.36,3.44,3.44,0,0,1-1.29-1.1,5.72,5.72,0,0,1-.85-1.86,9.81,9.81,0,0,1-.31-2.64,10,10,0,0,1,.31-2.69,5.28,5.28,0,0,1,.86-1.83,3.37,3.37,0,0,1,1.29-1.05,4,4,0,0,1,3.2,0,3.3,3.3,0,0,1,1.29,1.05,5.1,5.1,0,0,1,.86,1.83,10,10,0,0,1,.31,2.69,9.81,9.81,0,0,1-.31,2.64,5.52,5.52,0,0,1-.85,1.86,3.37,3.37,0,0,1-1.29,1.1A3.65,3.65,0,0,1,2042.47,298.34Zm0-1.3a2,2,0,0,0,1.86-1.13,7.7,7.7,0,0,0,.61-3.53,7.53,7.53,0,0,0-.61-3.5,2,2,0,0,0-1.86-1.1,2,2,0,0,0-1.86,1.1,7.66,7.66,0,0,0-.61,3.5,7.84,7.84,0,0,0,.61,3.53A2,2,0,0,0,2042.47,297Z" /><polygon class="d" points="1804.25 294.21 1795.33 294.21 1799.79 287.77 1799.79 287.77 1804.25 294.21" /><polygon class="d" points="1848.96 291.32 1857.88 291.32 1853.42 297.76 1853.42 297.76 1848.96 291.32" /><polygon class="d" points="1905.34 294.21 1896.42 294.21 1900.88 287.77 1900.88 287.77 1905.34 294.21" /><polygon class="d" points="1950.05 291.32 1958.97 291.32 1954.51 297.76 1954.51 297.76 1950.05 291.32" /><polygon class="d" points="2005.5 294.21 1996.58 294.21 2001.04 287.77 2001.04 287.77 2005.5 294.21" /><polygon class="d" points="2050.21 291.32 2059.13 291.32 2054.67 297.76 2054.67 297.76 2050.21 291.32" /><path class="d" d="M2080.34,298.09v-9.74l-2.55,1.31v-1.61l2.57-1.33h1.52v11.37Z" /><path class="d" d="M2090.09,298.09v-9.74l-2.56,1.31v-1.61l2.57-1.33h1.53v11.37Z" /><path class="d" d="M2130.24,298.09v-9.74l-2.55,1.31v-1.61l2.56-1.33h1.53v11.37Z" /><path class="d" d="M2136.25,289.69a3.66,3.66,0,0,1,.41-1.26,3.59,3.59,0,0,1,.84-1,3.76,3.76,0,0,1,1.21-.68,4.63,4.63,0,0,1,1.53-.24,4.36,4.36,0,0,1,1.47.23,3.48,3.48,0,0,1,1.17.64,2.89,2.89,0,0,1,.78,1,3.11,3.11,0,0,1,.29,1.35,4.09,4.09,0,0,1-.14,1.08,4.29,4.29,0,0,1-.46,1,8.53,8.53,0,0,1-.83,1.09c-.35.38-.78.82-1.29,1.3l-2.6,2.47h5.27v1.43h-7.38v-1.43l3.71-3.55c.38-.37.71-.71,1-1a9.94,9.94,0,0,0,.66-.84,3.25,3.25,0,0,0,.37-.75,2.56,2.56,0,0,0,.11-.79,1.82,1.82,0,0,0-.56-1.41,2.22,2.22,0,0,0-1.58-.53,2.45,2.45,0,0,0-1.6.51,1.94,1.94,0,0,0-.72,1.39Z" /><polygon class="d" points="2104.28 294.21 2095.37 294.21 2099.82 287.77 2099.82 287.77 2104.28 294.21" /><polygon class="d" points="2148.99 291.32 2157.91 291.32 2153.45 297.76 2153.45 297.76 2148.99 291.32" /><circle class="g" cx="2239.96" cy="269.65" r="5.45" /><circle class="h" cx="2239.96" cy="269.65" r="3.88" /><circle class="g" cx="2290.6" cy="269.65" r="5.45" /><circle class="h" cx="2290.6" cy="269.65" r="3.88" /><path class="d" d="M2232.39,298.1v-9.75l-2.55,1.32v-1.61l2.57-1.33h1.53V298.1Z" /><path class="d" d="M2246.35,295a3.13,3.13,0,0,1-.29,1.34,3,3,0,0,1-.81,1.05,3.66,3.66,0,0,1-1.28.69,5,5,0,0,1-1.65.25,4.37,4.37,0,0,1-2.84-.85,3.31,3.31,0,0,1-1.26-2.2h1.66a2.15,2.15,0,0,0,.78,1.3,2.61,2.61,0,0,0,1.63.45,2.68,2.68,0,0,0,1.82-.57,1.9,1.9,0,0,0,.65-1.49,2.13,2.13,0,0,0-.21-1,1.86,1.86,0,0,0-.53-.67,1.9,1.9,0,0,0-.72-.37,2.71,2.71,0,0,0-.79-.12h-.94v-1.35h.91a1.91,1.91,0,0,0,.66-.11,2.16,2.16,0,0,0,.61-.34,1.66,1.66,0,0,0,.44-.59,1.94,1.94,0,0,0,.18-.86,1.65,1.65,0,0,0-.19-.79,1.67,1.67,0,0,0-.49-.56,2,2,0,0,0-.7-.33,3.08,3.08,0,0,0-.8-.1,2.6,2.6,0,0,0-1.56.44,1.79,1.79,0,0,0-.73,1.18h-1.64a2.94,2.94,0,0,1,.44-1.2,3.14,3.14,0,0,1,.86-.92,4,4,0,0,1,1.21-.59,5.13,5.13,0,0,1,1.5-.21,5.22,5.22,0,0,1,1.38.18,3.54,3.54,0,0,1,1.18.54,2.67,2.67,0,0,1,1.13,2.25,2.47,2.47,0,0,1-.58,1.62,3,3,0,0,1-1.47,1,3.13,3.13,0,0,1,.93.33,3,3,0,0,1,.77.6,3,3,0,0,1,.74,2Z" /><path class="d" d="M2283.82,298.1v-9.75l-2.55,1.32v-1.61l2.56-1.33h1.53V298.1Z" /><path class="d" d="M2296.07,286.73v7.89h1.83V296h-1.83v2.14h-1.52V296h-5v-1.45l4.87-7.78Zm-1.52,7.89v-5.37l-3.24,5.37Z" /><polygon class="d" points="2256.59 294.22 2247.67 294.22 2252.13 287.78 2252.13 287.78 2256.59 294.22" /><polygon class="d" points="2301.3 291.33 2310.22 291.33 2305.76 297.77 2305.76 297.77 2301.3 291.33" /><rect class="i" x="1260.03" y="149.94" width="120.55" height="100.07" /><path class="j" d="M1267,153.78H1373.6a4.49,4.49,0,0,1,4.49,4.49v77.92a11.3,11.3,0,0,1-11.3,11.3h-93a11.3,11.3,0,0,1-11.3-11.3V158.26A4.49,4.49,0,0,1,1267,153.78Z" /><circle class="g" cx="1320.31" cy="267.36" r="5.45" /><circle class="h" cx="1320.31" cy="267.36" r="3.88" /><path class="d" d="M1312.91,119.48l3.14,3.14-2.55,2.55-3.17-3.17a4.7,4.7,0,0,0-.4,1.91,4.79,4.79,0,0,0,4.79,4.79,4.73,4.73,0,0,0,1.51-.25L1327,139.17a2.19,2.19,0,1,0,3.1-3.1l-10.76-10.75a4.72,4.72,0,0,0,.21-1.41,4.79,4.79,0,0,0-6.59-4.43Z" /><path class="k" d="M1335.64,165.36V153.78H1305v11.58h-31.22v66.55a5.12,5.12,0,0,0,5.17,5.08h81.73a6.14,6.14,0,0,0,6.2-6.09V165.36Z" /><rect class="l" x="1573.12" y="64.81" width="121.49" height="185.2" /><rect class="l" x="1430.3" y="64.73" width="112.62" height="92.64" /><rect class="l" x="1430.3" y="157.38" width="112.62" height="92.64" /><rect class="j" x="1433.22" y="67.38" width="106.79" height="90.05" rx="2.99" /><rect class="j" x="1433.22" y="157.43" width="106.79" height="90.05" rx="3.16" /><polygon class="k" points="1535.88 70.02 1437.35 70.02 1437.35 133.54 1465.7 133.54 1465.7 146.86 1507.53 146.86 1507.53 133.54 1535.88 133.54 1535.88 70.02" /><path class="m" d="M1469.49,128.81h34.24a0,0,0,0,1,0,0v.75a6.52,6.52,0,0,1-6.52,6.52H1476a6.52,6.52,0,0,1-6.52-6.52v-.75A0,0,0,0,1,1469.49,128.81Z" /><polygon class="k" points="1535.88 244.84 1437.35 244.84 1437.35 181.32 1465.7 181.32 1465.7 168 1507.53 168 1507.53 181.32 1535.88 181.32 1535.88 244.84" /><path class="m" d="M1476,178.79h21.2a6.52,6.52,0,0,1,6.52,6.52v.75a0,0,0,0,1,0,0h-34.24a0,0,0,0,1,0,0v-.75A6.52,6.52,0,0,1,1476,178.79Z" /><rect class="l" x="2208.1" y="64.73" width="112.62" height="92.64" /><rect class="l" x="2208.1" y="157.38" width="112.62" height="92.64" /><rect class="j" x="2211.02" y="67.38" width="106.79" height="90.05" rx="2.99" /><rect class="j" x="2211.02" y="157.43" width="106.79" height="90.05" rx="3.16" /><polygon class="k" points="2313.68 70.02 2215.14 70.02 2215.14 133.54 2243.49 133.54 2243.49 146.86 2285.33 146.86 2285.33 133.54 2313.68 133.54 2313.68 70.02" /><path class="m" d="M2247.29,128.81h34.24a0,0,0,0,1,0,0v.75a6.52,6.52,0,0,1-6.52,6.52h-21.2a6.52,6.52,0,0,1-6.52-6.52v-.75A0,0,0,0,1,2247.29,128.81Z" /><polygon class="k" points="2313.68 244.84 2215.14 244.84 2215.14 181.32 2243.49 181.32 2243.49 168 2285.33 168 2285.33 181.32 2313.68 181.32 2313.68 244.84" /><path class="m" d="M2253.81,178.79H2275a6.52,6.52,0,0,1,6.52,6.52v.75a0,0,0,0,1,0,0h-34.24a0,0,0,0,1,0,0v-.75A6.52,6.52,0,0,1,2253.81,178.79Z" /><rect class="n" x="1575.76" y="68.99" width="116.19" height="177.67" rx="1.45" /><polygon class="o" points="1656.84 89.23 1656.84 76.73 1648.22 76.73 1648.22 67.77 1619.16 67.77 1619.16 76.73 1610.54 76.73 1610.54 89.23 1590.6 89.23 1590.6 138.57 1677.12 138.57 1677.12 89.23 1656.84 89.23" /><polygon class="o" points="1610.88 225.2 1610.88 237.71 1619.49 237.71 1619.49 246.66 1648.56 246.66 1648.56 237.71 1657.18 237.71 1657.18 225.2 1677.12 225.2 1677.12 175.86 1590.6 175.86 1590.6 225.2 1610.88 225.2" /><rect class="l" x="1753.28" y="65.47" width="420.84" height="184.55" /><rect class="p" x="1757.37" y="69.03" width="412.65" height="177.43" rx="2.73" /><polygon class="o" points="1839.19 91.13 1839.19 78.88 1830.75 78.88 1830.75 70.1 1802.27 70.1 1802.27 78.88 1793.83 78.88 1793.83 91.13 1774.29 91.13 1774.29 139.47 1859.06 139.47 1859.06 91.13 1839.19 91.13" /><polygon class="o" points="1937.21 91.13 1937.21 78.88 1928.77 78.88 1928.77 70.1 1900.29 70.1 1900.29 78.88 1891.85 78.88 1891.85 91.13 1872.31 91.13 1872.31 139.47 1957.08 139.47 1957.08 91.13 1937.21 91.13" /><polygon class="o" points="2035.23 91.13 2035.23 78.88 2026.78 78.88 2026.78 70.1 1998.3 70.1 1998.3 78.88 1989.86 78.88 1989.86 91.13 1970.32 91.13 1970.32 139.47 2055.09 139.47 2055.09 91.13 2035.23 91.13" /><polygon class="o" points="2133.24 91.13 2133.24 78.88 2124.8 78.88 2124.8 70.1 2096.32 70.1 2096.32 78.88 2087.88 78.88 2087.88 91.13 2068.34 91.13 2068.34 139.47 2153.11 139.47 2153.11 91.13 2133.24 91.13" /><polygon class="o" points="2088.21 224.35 2088.21 236.61 2096.65 236.61 2096.65 245.38 2125.13 245.38 2125.13 236.61 2133.57 236.61 2133.57 224.35 2153.11 224.35 2153.11 176.01 2068.34 176.01 2068.34 224.35 2088.21 224.35" /><polygon class="o" points="1990.19 224.35 1990.19 236.61 1998.64 236.61 1998.64 245.38 2027.11 245.38 2027.11 236.61 2035.56 236.61 2035.56 224.35 2055.09 224.35 2055.09 176.01 1970.32 176.01 1970.32 224.35 1990.19 224.35" /><polygon class="o" points="1892.18 224.35 1892.18 236.61 1900.62 236.61 1900.62 245.38 1929.1 245.38 1929.1 236.61 1937.54 236.61 1937.54 224.35 1957.08 224.35 1957.08 176.01 1872.31 176.01 1872.31 224.35 1892.18 224.35" /><polygon class="o" points="1794.16 224.35 1794.16 236.61 1802.61 236.61 1802.61 245.38 1831.08 245.38 1831.08 236.61 1839.53 236.61 1839.53 224.35 1859.06 224.35 1859.06 176.01 1774.29 176.01 1774.29 224.35 1794.16 224.35" /><path class="d" d="M1479.45,51.67a4.16,4.16,0,0,1-2.75-.84,2.89,2.89,0,0,1-1-1.89h1.91a1.44,1.44,0,0,0,.62,1,2.23,2.23,0,0,0,1.26.33c1.08,0,1.61-.33,1.61-1a1.06,1.06,0,0,0-.69-1,9.59,9.59,0,0,0-1.47-.44,5.28,5.28,0,0,1-2.11-.86,2.26,2.26,0,0,1-.82-1.83,2.17,2.17,0,0,1,1-1.91,4.49,4.49,0,0,1,2.47-.58,3.9,3.9,0,0,1,2.5.72,2.49,2.49,0,0,1,.93,1.68H1481a1.07,1.07,0,0,0-.56-.8,2.19,2.19,0,0,0-1-.22c-.92,0-1.39.29-1.39.87a.81.81,0,0,0,.36.72,4.59,4.59,0,0,0,1.39.47,5.92,5.92,0,0,1,2.42,1,2.38,2.38,0,0,1,.92,1.95,2.25,2.25,0,0,1-1,1.93A4.47,4.47,0,0,1,1479.45,51.67Z" /><path class="d" d="M1489.24,46.6V48h-3.09v3.5h-2V42.85h5.48V44.3h-3.46v2.3Z" /><path class="d" d="M1490.69,42.85h3.12a4.36,4.36,0,0,1,3,.8,2.67,2.67,0,0,1,.77,2.08,2.53,2.53,0,0,1-1,2.26,4.72,4.72,0,0,1-2.62.6h-1.18v2.9h-2Zm3.15,1.38h-1.13v3h1.2c1,0,1.56-.49,1.56-1.48S1494.93,44.23,1493.84,44.23Z" /><path class="d" d="M2257.25,51.67a4.16,4.16,0,0,1-2.75-.84,2.89,2.89,0,0,1-1-1.89h1.91a1.44,1.44,0,0,0,.62,1,2.23,2.23,0,0,0,1.26.33c1.07,0,1.61-.33,1.61-1a1.06,1.06,0,0,0-.7-1,9,9,0,0,0-1.46-.44,5.22,5.22,0,0,1-2.11-.86,2.24,2.24,0,0,1-.82-1.83,2.15,2.15,0,0,1,1-1.91,4.49,4.49,0,0,1,2.47-.58,3.88,3.88,0,0,1,2.49.72,2.5,2.5,0,0,1,.94,1.68h-1.88a1.06,1.06,0,0,0-.57-.8,2.15,2.15,0,0,0-1-.22c-.93,0-1.39.29-1.39.87a.81.81,0,0,0,.36.72,4.48,4.48,0,0,0,1.39.47,5.87,5.87,0,0,1,2.41,1,2.36,2.36,0,0,1,.93,1.95,2.27,2.27,0,0,1-1,1.93A4.49,4.49,0,0,1,2257.25,51.67Z" /><path class="d" d="M2267,46.6V48h-3.1v3.5h-2V42.85h5.48V44.3h-3.47v2.3Z" /><path class="d" d="M2268.49,42.85h3.12a4.35,4.35,0,0,1,3,.8,2.64,2.64,0,0,1,.77,2.08,2.52,2.52,0,0,1-1,2.26,4.76,4.76,0,0,1-2.63.6h-1.17v2.9h-2Zm3.14,1.38h-1.12v3h1.2c1,0,1.56-.49,1.56-1.48S2272.72,44.23,2271.63,44.23Z" /><path class="d" d="M1630.43,46.67v4.82h-1.3l-.29-.81a3.13,3.13,0,0,1-2.48,1,3.54,3.54,0,0,1-2.85-1.26,5,5,0,0,1-1-3.28,4.4,4.4,0,0,1,1.31-3.48,4.13,4.13,0,0,1,2.9-1,4,4,0,0,1,2.57.79,3.06,3.06,0,0,1,1.13,1.86h-2a1.57,1.57,0,0,0-1.69-1.25,1.79,1.79,0,0,0-1.58.8,4,4,0,0,0-.53,2.26,3.73,3.73,0,0,0,.69,2.48,1.77,1.77,0,0,0,1.43.64,2,2,0,0,0,1.45-.53,1.47,1.47,0,0,0,.5-1.13V48h-2V46.67Z" /><path class="d" d="M1633.15,51.49h-1.46V42.85h1.87v3a2.49,2.49,0,0,1,1.88-.76,2.59,2.59,0,0,1,2.11.87,3.34,3.34,0,0,1,.68,2.21,3.69,3.69,0,0,1-1,2.72,2.7,2.7,0,0,1-2,.8,2.29,2.29,0,0,1-1.82-.83Zm3.19-3.17c0-1.26-.46-1.89-1.39-1.89a1.28,1.28,0,0,0-1.09.52,2.24,2.24,0,0,0-.36,1.34c0,1.34.46,2,1.39,2a1.26,1.26,0,0,0,1.09-.55A2.48,2.48,0,0,0,1636.34,48.32Z" /><path class="d" d="M1644.85,46.43v1.4h-3.47V50h3.82v1.46h-5.83V42.85h5.83v1.47h-3.82v2.11Z" /><path class="d" d="M1960.27,46.67v4.82H1959l-.28-.81a3.17,3.17,0,0,1-2.49,1,3.51,3.51,0,0,1-2.84-1.26,5,5,0,0,1-1-3.28,4.44,4.44,0,0,1,1.31-3.48,4.14,4.14,0,0,1,2.9-1,4,4,0,0,1,2.57.79,3.06,3.06,0,0,1,1.13,1.86h-2a1.59,1.59,0,0,0-1.7-1.25,1.8,1.8,0,0,0-1.58.8,4.06,4.06,0,0,0-.53,2.26,3.67,3.67,0,0,0,.7,2.48,1.76,1.76,0,0,0,1.43.64,2,2,0,0,0,1.45-.53,1.5,1.5,0,0,0,.49-1.13V48h-2V46.67Z" /><path class="d" d="M1963,51.49h-1.46V42.85h1.87v3a2.53,2.53,0,0,1,1.88-.76,2.62,2.62,0,0,1,2.12.87,3.33,3.33,0,0,1,.67,2.21,3.69,3.69,0,0,1-1,2.72,2.69,2.69,0,0,1-2,.8,2.31,2.31,0,0,1-1.83-.83Zm3.2-3.17c0-1.26-.47-1.89-1.4-1.89a1.3,1.3,0,0,0-1.09.52,2.24,2.24,0,0,0-.36,1.34c0,1.34.47,2,1.39,2a1.26,1.26,0,0,0,1.09-.55A2.4,2.4,0,0,0,1966.19,48.32Z" /><path class="d" d="M1974.69,46.43v1.4h-3.46V50H1975v1.46h-5.83V42.85H1975v1.47h-3.81v2.11Z" /><path class="d" d="M1553.49,17.8h1.91l-1.93,8.64h-2.38l-1.61-6.67L1548,26.44h-2.3l-2.07-8.64h2.09l1.3,6.39,1.46-6.39h2.24l1.57,6.42Z" /><path class="d" d="M1563.45,26.44h-2.12l-.62-2h-3.07l-.61,2h-2l3.07-8.64h2.24Zm-4.26-7-1.14,3.68h2.27Z" /><path class="d" d="M1569.67,17.8h1.71v8.64h-2.07l-3.41-6.13v6.13h-1.73V17.8h2.23l3.27,5.91Z" /><path class="d" d="M2026.82,17.8h2v7.13h4.2v1.51h-6.22Z" /><path class="d" d="M2041.69,26.44h-2.12l-.61-2h-3.08l-.61,2h-2l3.07-8.64h2.25Zm-4.26-7-1.14,3.68h2.27Z" /><path class="d" d="M2047.91,17.8h1.71v8.64h-2.07l-3.41-6.13v6.13h-1.73V17.8h2.23l3.27,5.91Z" /><polygon class="d" points="1432.76 28.31 1430.76 28.31 1430.76 20.87 1534.47 20.87 1534.47 22.87 1432.76 22.87 1432.76 28.31" /><polygon class="d" points="1692.95 28.31 1690.95 28.31 1690.95 22.87 1583.3 22.87 1583.3 20.87 1692.95 20.87 1692.95 28.31" /><polygon class="d" points="1753.79 28.31 1751.79 28.31 1751.79 20.87 2015.35 20.87 2015.35 22.87 1753.79 22.87 1753.79 28.31" /><polygon class="d" points="2319.31 28.31 2317.31 28.31 2317.31 22.87 2060.24 22.87 2060.24 20.87 2319.31 20.87 2319.31 28.31" /></svg>