<svg viewBox="0 0 3414.38 309.14"><defs><style>.a{fill:#d0d0d0;}.b{fill:#fff;}.c{fill:#060606;}.d,.q{fill:#231f20;}.e{fill:#443a38;}.f{fill:#eee9e5;}.g{fill:#0f0f10;}.h,.n{fill:#afaaa7;}.h{stroke:#231f20;stroke-miterlimit:10;}.i{fill:#3f4040;}.j{fill:#9c9c9c;}.k{fill:#020202;}.l{fill:#1a1a1a;}.m{fill:#b4afac;}.o{fill:#060707;}.p{fill:#bdbdbb;}.q{font-size:12px;font-family:CiscoSansTT-Bold, CiscoSansTT;font-weight:700;}</style></defs><path class="a" d="M3377,0H37.42A37.43,37.43,0,0,0,0,37.42V271.71a37.43,37.43,0,0,0,37.42,37.43H3377a37.43,37.43,0,0,0,37.43-37.43V37.42A37.43,37.43,0,0,0,3377,0ZM109.32,265.87a24.44,24.44,0,0,1-24.44,24.44H61.76a24.44,24.44,0,0,1-24.44-24.44h0a24.44,24.44,0,0,1,24.44-24.44H84.88a24.44,24.44,0,0,1,24.44,24.44Zm0-222.6A24.44,24.44,0,0,1,84.88,67.71H61.76A24.44,24.44,0,0,1,37.32,43.27h0A24.44,24.44,0,0,1,61.76,18.83H84.88a24.44,24.44,0,0,1,24.44,24.44Zm3267.74,222.6a24.44,24.44,0,0,1-24.44,24.44H3329.5a24.44,24.44,0,0,1-24.44-24.44h0a24.44,24.44,0,0,1,24.44-24.44h23.12a24.44,24.44,0,0,1,24.44,24.44Zm0-222.6a24.45,24.45,0,0,1-24.44,24.44H3329.5a24.44,24.44,0,0,1-24.44-24.44h0a24.44,24.44,0,0,1,24.44-24.44h23.12a24.44,24.44,0,0,1,24.44,24.44Z" /><circle class="b" cx="300.05" cy="214.84" r="7.93" /><circle class="c" cx="356.53" cy="214.84" r="5.76" /><circle class="c" cx="412.35" cy="214.84" r="5.5" /><path class="c" d="M300.05,199.49a8.92,8.92,0,0,1-5.83-15.68l1.31,1.52a6.93,6.93,0,1,0,9.05,0l1.31-1.52a8.93,8.93,0,0,1-5.84,15.68Z" /><rect class="c" x="299.05" y="181.38" width="2" height="10.46" /><path class="c" d="M412.35,183.38a7.14,7.14,0,0,0-1.79.23l1.05-1.6-.84-.55L409,184.23a.91.91,0,0,0-.17.09l.05.09-.27.42.69.33,0,0h0l2.76,1.3.43-.91-1.94-.91a6.11,6.11,0,0,1,1.81-.28,6.27,6.27,0,1,1-6.27,6.27h-1a7.27,7.27,0,1,0,7.27-7.27Z" /><path class="d" d="M354.87,186.78v10.65h-1.52v-4.75h-5.21v4.75h-1.51V186.78h1.51v4.63h5.21v-4.63Z" /><path class="d" d="M364.76,197.43l-1.05-2.69h-5.08l-1.06,2.69H356l4.38-10.65h1.71l4.36,10.65Zm-5.64-3.92h4.1l-2-5.22Z" /><polygon class="e" points="3093.45 194.4 3086.81 194.4 3086.81 171.02 3093.45 171.02 3093.45 194.4 3093.45 194.4" /><path class="e" d="M3146.93,177.71a12.85,12.85,0,0,0-5.59-1.25c-4.29,0-7.26,2.66-7.26,6.24s2.84,6.24,7.26,6.24a12.94,12.94,0,0,0,5.59-1.24V194a23.69,23.69,0,0,1-6,.83c-7.47,0-14-4.57-14-12.11,0-7,5.92-12.1,14-12.1a22.42,22.42,0,0,1,6,.84v6.27Z" /><path class="e" d="M3077.7,177.71a12.67,12.67,0,0,0-5.57-1.25c-4.3,0-7.27,2.66-7.27,6.24s2.83,6.24,7.27,6.24a12.71,12.71,0,0,0,5.57-1.24V194a23.48,23.48,0,0,1-6.06.83c-7.46,0-14-4.57-14-12.11,0-7,5.91-12.1,14-12.1a22.22,22.22,0,0,1,6.06.84v6.27Z" /><path class="e" d="M3181.66,182.7c0,6.69-5.8,12.11-13.88,12.11s-13.87-5.42-13.87-12.11,5.79-12.1,13.87-12.1,13.88,5.42,13.88,12.1Zm-13.88-6.14c-3.93,0-6.85,2.74-6.85,6.14s2.92,6.15,6.85,6.15,6.86-2.75,6.86-6.15-2.92-6.14-6.86-6.14Z" /><path class="e" d="M3118.59,176.33a25,25,0,0,0-5.18-.71c-2.65,0-4.1.79-4.1,1.92,0,1.41,1.94,1.91,3,2.22l1.84.52c4.3,1.21,6.27,3.84,6.27,6.68,0,5.88-5.81,7.85-10.88,7.85a44.55,44.55,0,0,1-7.16-.64v-5.38a27.43,27.43,0,0,0,6.26.88c3.29,0,4.82-.87,4.82-2.2,0-1.18-1.31-1.86-3-2.32-.4-.12-1-.29-1.42-.4-3.69-1-6.76-3-6.76-6.84,0-4.38,3.67-7.31,9.79-7.31a32.58,32.58,0,0,1,6.46.73v5Z" /><path class="e" d="M3051.42,145.87a3.26,3.26,0,0,0-6.51,0v6.81a3.26,3.26,0,0,0,6.51,0v-6.81Z" /><path class="e" d="M3069.29,136.91a3.26,3.26,0,0,0-6.51,0v15.77a3.26,3.26,0,0,0,6.51,0V136.91Z" /><path class="e" d="M3087.17,124.67a3.26,3.26,0,0,0-6.51,0v34.5a3.26,3.26,0,1,0,6.51,0v-34.5Z" /><path class="e" d="M3105.05,136.91a3.25,3.25,0,0,0-6.5,0v15.77a3.25,3.25,0,0,0,6.5,0V136.91Z" /><path class="e" d="M3122.9,145.87a3.25,3.25,0,0,0-6.49,0v6.81a3.25,3.25,0,1,0,6.49,0v-6.81Z" /><path class="e" d="M3140.79,136.91a3.24,3.24,0,0,0-6.48,0v15.77a3.24,3.24,0,1,0,6.48,0V136.91Z" /><path class="e" d="M3158.68,124.67a3.25,3.25,0,0,0-6.49,0v34.5a3.25,3.25,0,1,0,6.49,0v-34.5Z" /><path class="e" d="M3176.57,136.91a3.27,3.27,0,0,0-6.54,0v15.77a3.27,3.27,0,0,0,6.54,0V136.91Z" /><path class="e" d="M3194.42,145.87a3.25,3.25,0,0,0-6.5,0v6.81a3.25,3.25,0,1,0,6.5,0v-6.81Z" /><rect class="c" x="1182.08" y="192.2" width="101.06" height="49.21" /><rect class="f" x="1194.91" y="203.76" width="77.28" height="13.32" /><path class="f" d="M1273.67,196.29h-82.12a5,5,0,0,0-5,5v32.39a5,5,0,0,0,5,5h82.12a5,5,0,0,0,5-5V201.27A5,5,0,0,0,1273.67,196.29Zm3,37.37a3,3,0,0,1-3,3h-14.14v-6.58h-10.35v6.58h-31.27v-6.58h-10.34v6.58h-16a3,3,0,0,1-3-3V201.27a3,3,0,0,1,3-3h82.12a3,3,0,0,1,3,3Z" /><path class="c" d="M1248.91,174.36l-4.51-2.26v1.48h-17.31l3.8-3.26h4.65a2,2,0,0,0,3.72-.84,2,2,0,0,0-2-2,1.94,1.94,0,0,0-1.76,1.12h-5.27l-5.77,5h-.79a3.75,3.75,0,1,0,0,1.7h6l4.68,4.67h4.08v.94h3.7v-3.71h-3.7v1.08h-3.38l-3-3h12.32v1.34Z" /><rect class="g" x="1337.99" y="147.28" width="120.55" height="100.07" /><path class="h" d="M1345,151.12h106.59a4.49,4.49,0,0,1,4.49,4.49v77.92a11.3,11.3,0,0,1-11.3,11.3h-93a11.3,11.3,0,0,1-11.3-11.3V155.6A4.49,4.49,0,0,1,1345,151.12Z" /><circle class="i" cx="1232.86" cy="266.27" r="5.45" /><circle class="j" cx="1232.86" cy="266.27" r="3.88" /><circle class="i" cx="1398.26" cy="266.27" r="5.45" /><circle class="j" cx="1398.26" cy="266.27" r="3.88" /><path class="d" d="M1390.87,116.82,1394,120l-2.56,2.55-3.17-3.17a4.7,4.7,0,0,0-.4,1.91,4.8,4.8,0,0,0,4.79,4.79,4.69,4.69,0,0,0,1.51-.25l10.72,10.72a2.19,2.19,0,0,0,3.1-3.1l-10.75-10.76a4.94,4.94,0,0,0,.21-1.4,4.79,4.79,0,0,0-4.79-4.78A4.66,4.66,0,0,0,1390.87,116.82Z" /><path class="k" d="M1413.59,162.7V151.12h-30.66V162.7h-31.22v66.55a5.13,5.13,0,0,0,5.17,5.08h81.74a6.14,6.14,0,0,0,6.19-6.09V162.7Z" /><circle class="i" cx="1533.92" cy="266.27" r="5.45" /><circle class="j" cx="1533.92" cy="266.27" r="3.88" /><circle class="i" cx="1584.57" cy="266.27" r="5.45" /><circle class="j" cx="1584.57" cy="266.27" r="3.88" /><path class="d" d="M1526.08,294.71V285l-2.55,1.31v-1.61l2.56-1.33h1.53v11.37Z" /><path class="d" d="M1575.19,286.32a3.64,3.64,0,0,1,.41-1.27,3.59,3.59,0,0,1,.84-1,3.76,3.76,0,0,1,1.21-.68,4.63,4.63,0,0,1,1.53-.24,4.36,4.36,0,0,1,1.47.23,3.48,3.48,0,0,1,1.17.64,2.89,2.89,0,0,1,.78,1,3.11,3.11,0,0,1,.29,1.35,4.09,4.09,0,0,1-.14,1.08,4.29,4.29,0,0,1-.46,1,8.53,8.53,0,0,1-.83,1.09c-.35.38-.78.82-1.29,1.31l-2.6,2.46h5.27v1.43h-7.38v-1.43l3.71-3.55c.39-.37.71-.7,1-1a9.94,9.94,0,0,0,.66-.84,3.25,3.25,0,0,0,.37-.75,2.56,2.56,0,0,0,.11-.79,1.82,1.82,0,0,0-.56-1.41,2.22,2.22,0,0,0-1.58-.53,2.45,2.45,0,0,0-1.6.51,1.94,1.94,0,0,0-.72,1.4Z" /><polygon class="d" points="1541.41 290.83 1532.49 290.83 1536.95 284.39 1536.95 284.39 1541.41 290.83" /><polygon class="d" points="1586.12 287.94 1595.04 287.94 1590.58 294.38 1590.58 294.38 1586.12 287.94" /><circle class="i" cx="1680.15" cy="266.15" r="5.45" /><circle class="j" cx="1680.15" cy="266.15" r="3.88" /><circle class="i" cx="1730.79" cy="266.15" r="5.45" /><circle class="j" cx="1730.79" cy="266.15" r="3.88" /><path class="d" d="M1684.71,291.5a3.16,3.16,0,0,1-.29,1.34,3.06,3.06,0,0,1-.81,1.05,3.66,3.66,0,0,1-1.28.69,5.06,5.06,0,0,1-1.65.25,4.42,4.42,0,0,1-2.85-.85,3.34,3.34,0,0,1-1.25-2.21h1.66a2.18,2.18,0,0,0,.78,1.31,2.6,2.6,0,0,0,1.62.45,2.66,2.66,0,0,0,1.82-.57,1.88,1.88,0,0,0,.65-1.5,2.13,2.13,0,0,0-.2-1,1.82,1.82,0,0,0-.53-.66,1.92,1.92,0,0,0-.72-.38,3.13,3.13,0,0,0-.79-.11h-.94V288h.91a2,2,0,0,0,1.27-.45,1.62,1.62,0,0,0,.44-.6,1.87,1.87,0,0,0,.17-.85,1.65,1.65,0,0,0-.18-.79,1.81,1.81,0,0,0-.49-.57,2.14,2.14,0,0,0-.7-.32,3.09,3.09,0,0,0-.8-.11,2.53,2.53,0,0,0-1.56.45,1.79,1.79,0,0,0-.73,1.18h-1.64a3,3,0,0,1,.43-1.2,3.31,3.31,0,0,1,.87-.92,3.79,3.79,0,0,1,1.21-.59,5.13,5.13,0,0,1,1.5-.22,5.22,5.22,0,0,1,1.38.18,3.56,3.56,0,0,1,1.18.55,2.63,2.63,0,0,1,1.13,2.25,2.47,2.47,0,0,1-.58,1.62,3,3,0,0,1-1.47,1,3.23,3.23,0,0,1,.93.33,3.2,3.2,0,0,1,.77.6,2.71,2.71,0,0,1,.53.87A2.93,2.93,0,0,1,1684.71,291.5Z" /><path class="d" d="M1732.34,283.23v7.89h1.83v1.34h-1.83v2.14h-1.52v-2.14h-5V291l4.87-7.78Zm-1.52,7.89v-5.37l-3.24,5.37Z" /><polygon class="d" points="1695.63 290.72 1686.71 290.72 1691.17 284.28 1691.17 284.28 1695.63 290.72" /><polygon class="d" points="1740.34 287.83 1749.25 287.83 1744.8 294.27 1744.8 294.27 1740.34 287.83" /><circle class="i" cx="1858.44" cy="266.14" r="5.45" /><circle class="j" cx="1858.44" cy="266.14" r="3.88" /><circle class="i" cx="1909.08" cy="266.14" r="5.45" /><circle class="j" cx="1909.08" cy="266.14" r="3.88" /><circle class="i" cx="1958.12" cy="266.14" r="5.45" /><circle class="j" cx="1958.12" cy="266.14" r="3.88" /><circle class="i" cx="2008.76" cy="266.14" r="5.45" /><circle class="j" cx="2008.76" cy="266.14" r="3.88" /><circle class="i" cx="2095.99" cy="266.14" r="5.45" /><circle class="j" cx="2095.99" cy="266.14" r="3.88" /><circle class="i" cx="2146.64" cy="266.14" r="5.45" /><circle class="j" cx="2146.64" cy="266.14" r="3.88" /><path class="d" d="M1855.38,291.83a2.15,2.15,0,0,0,.77,1.19,2.49,2.49,0,0,0,1.64.5,2.61,2.61,0,0,0,1-.18,2.14,2.14,0,0,0,.79-.52,2.39,2.39,0,0,0,.52-.84,3.41,3.41,0,0,0,.19-1.14,2.57,2.57,0,0,0-.67-1.93,2.43,2.43,0,0,0-1.77-.65,3.2,3.2,0,0,0-1.19.24,2.68,2.68,0,0,0-1.08.8h-1.38l.24-6.08h7v1.32h-5.57l-.13,3.33a4.05,4.05,0,0,1,1.08-.6,3.86,3.86,0,0,1,1.41-.23,4.09,4.09,0,0,1,1.41.24,3.22,3.22,0,0,1,1.17.73,3.55,3.55,0,0,1,.8,1.21,4.46,4.46,0,0,1,0,3.19,3.61,3.61,0,0,1-.8,1.26,3.77,3.77,0,0,1-1.28.85,4.54,4.54,0,0,1-1.74.32,4.63,4.63,0,0,1-1.58-.26,3.88,3.88,0,0,1-1.22-.67,3.59,3.59,0,0,1-.83-1,3.16,3.16,0,0,1-.41-1.12Z" /><path class="d" d="M1909.15,287.15a3.7,3.7,0,0,1,1.49.29,3.18,3.18,0,0,1,1.11.78,3.38,3.38,0,0,1,.7,1.21,4.78,4.78,0,0,1,.25,1.54,4.06,4.06,0,0,1-.34,1.7,3.42,3.42,0,0,1-.87,1.21,3.49,3.49,0,0,1-1.22.72,4.09,4.09,0,0,1-1.38.24,3.44,3.44,0,0,1-3-1.4,6.86,6.86,0,0,1-1-4.08,11.51,11.51,0,0,1,.35-3.15,5.37,5.37,0,0,1,.93-1.95,3.21,3.21,0,0,1,1.33-1A4.27,4.27,0,0,1,1909,283a3.81,3.81,0,0,1,2.23.64,3,3,0,0,1,1.2,1.76h-1.72a1.51,1.51,0,0,0-.59-.83,2,2,0,0,0-1.14-.31,2.1,2.1,0,0,0-.92.21,2.14,2.14,0,0,0-.78.73,4.75,4.75,0,0,0-.58,1.35,9.6,9.6,0,0,0-.3,2.1,3.07,3.07,0,0,1,.59-.69,3,3,0,0,1,.68-.46,3.94,3.94,0,0,1,.73-.25A3.68,3.68,0,0,1,1909.15,287.15Zm-2.55,3.77a2.65,2.65,0,0,0,.66,1.94,2.19,2.19,0,0,0,1.63.68,2.24,2.24,0,0,0,.86-.17,1.83,1.83,0,0,0,.72-.48,2.06,2.06,0,0,0,.48-.78,3.1,3.1,0,0,0,.17-1.06,2.77,2.77,0,0,0-.61-1.91,2.07,2.07,0,0,0-1.63-.69,2.41,2.41,0,0,0-1,.2,2.09,2.09,0,0,0-.72.55,2.22,2.22,0,0,0-.42.79A3.17,3.17,0,0,0,1906.6,290.92Z" /><path class="d" d="M1957.19,294.59h-1.78l4.76-10h-5.57v-1.4h7.23v1.4Z" /><path class="d" d="M2013,285.9a2.31,2.31,0,0,1-.16.89,2.71,2.71,0,0,1-.43.74,4,4,0,0,1-.6.57,5,5,0,0,1-.67.43,6.45,6.45,0,0,1,.81.44,3.34,3.34,0,0,1,.73.63,3,3,0,0,1,.54.84,2.67,2.67,0,0,1,.21,1.08,3,3,0,0,1-1.15,2.39,4,4,0,0,1-1.31.68,5.92,5.92,0,0,1-3.37,0,4,4,0,0,1-1.31-.67,2.93,2.93,0,0,1-.85-1,2.77,2.77,0,0,1-.3-1.28,2.91,2.91,0,0,1,.21-1.15,3,3,0,0,1,.52-.86,3.43,3.43,0,0,1,.72-.61,4.73,4.73,0,0,1,.78-.39,4.3,4.3,0,0,1-.65-.37,3,3,0,0,1-.58-.55,2.77,2.77,0,0,1-.41-.74,2.61,2.61,0,0,1-.16-1,2.86,2.86,0,0,1,.3-1.35,2.8,2.8,0,0,1,.82-1,3.53,3.53,0,0,1,1.19-.56,5.9,5.9,0,0,1,1.4-.17,5.45,5.45,0,0,1,1.41.17,3.56,3.56,0,0,1,1.19.52,2.63,2.63,0,0,1,.82.9A2.75,2.75,0,0,1,2013,285.9Zm-1.23,5.62a2.11,2.11,0,0,0-.26-1.1,2.14,2.14,0,0,0-.67-.67,3.61,3.61,0,0,0-.92-.4c-.34-.09-.66-.17-1-.23a4.17,4.17,0,0,0-.73.28,3.28,3.28,0,0,0-.69.48,2.61,2.61,0,0,0-.52.7,2.13,2.13,0,0,0-.2.94,2.06,2.06,0,0,0,.15.79,1.94,1.94,0,0,0,.46.64,2.13,2.13,0,0,0,.77.44,3.31,3.31,0,0,0,1.1.16,2.67,2.67,0,0,0,1.87-.57A1.9,1.9,0,0,0,2011.77,291.52Zm-4.68-5.59a2,2,0,0,0,.26,1.06,2.17,2.17,0,0,0,.64.64,2.53,2.53,0,0,0,.81.34c.29.07.56.12.81.16a3.67,3.67,0,0,0,.63-.31,3,3,0,0,0,.6-.47,2.27,2.27,0,0,0,.44-.61,1.89,1.89,0,0,0,.17-.81,1.53,1.53,0,0,0-.17-.72,1.73,1.73,0,0,0-.47-.54,1.87,1.87,0,0,0-.69-.35,2.55,2.55,0,0,0-.84-.13,3.2,3.2,0,0,0-.83.11,2,2,0,0,0-.7.33,1.54,1.54,0,0,0-.66,1.3Z" /><path class="d" d="M2095.69,290.66a3.91,3.91,0,0,1-1.43-.26,3.07,3.07,0,0,1-1.12-.75,3.5,3.5,0,0,1-.73-1.21,4.67,4.67,0,0,1-.26-1.6,4.29,4.29,0,0,1,.29-1.59,3.57,3.57,0,0,1,.81-1.22,3.77,3.77,0,0,1,1.2-.78,4.08,4.08,0,0,1,1.5-.27,3.49,3.49,0,0,1,3,1.35,6.93,6.93,0,0,1,1,4.12,12.14,12.14,0,0,1-.34,3.1,5.83,5.83,0,0,1-.91,2,3,3,0,0,1-1.34,1,4.29,4.29,0,0,1-1.6.3,3.79,3.79,0,0,1-2.25-.66,3,3,0,0,1-1.2-1.78H2094a1.59,1.59,0,0,0,.61.86,2,2,0,0,0,1.18.31,2.18,2.18,0,0,0,1-.21,2,2,0,0,0,.78-.72,4.07,4.07,0,0,0,.55-1.35,11.78,11.78,0,0,0,.28-2.09,3.35,3.35,0,0,1-.59.69,2.68,2.68,0,0,1-.68.45,2.94,2.94,0,0,1-.72.25A3.56,3.56,0,0,1,2095.69,290.66Zm2.55-3.77a2.67,2.67,0,0,0-.66-1.94,2.33,2.33,0,0,0-2.51-.5,2,2,0,0,0-.7.48,2.26,2.26,0,0,0-.47.78,2.89,2.89,0,0,0-.17,1.05,3.22,3.22,0,0,0,.17,1.12,2.26,2.26,0,0,0,.47.82,2,2,0,0,0,.71.5,2.38,2.38,0,0,0,.89.16,2.41,2.41,0,0,0,1-.2,2.15,2.15,0,0,0,.71-.55,2.18,2.18,0,0,0,.42-.78A2.93,2.93,0,0,0,2098.24,286.89Z" /><path class="d" d="M2141.47,294.59v-9.75l-2.55,1.32v-1.61l2.56-1.33H2143v11.37Z" /><path class="d" d="M2151.38,294.84a3.65,3.65,0,0,1-1.61-.36,3.46,3.46,0,0,1-1.29-1.1,5.53,5.53,0,0,1-.86-1.86,11.61,11.61,0,0,1,0-5.33,5.37,5.37,0,0,1,.86-1.83,3.33,3.33,0,0,1,1.3-1.05,3.85,3.85,0,0,1,1.6-.33,3.92,3.92,0,0,1,1.6.33,3.37,3.37,0,0,1,1.29,1.05,5.19,5.19,0,0,1,.86,1.83,11.61,11.61,0,0,1,0,5.33,5.72,5.72,0,0,1-.85,1.86,3.57,3.57,0,0,1-1.3,1.1A3.61,3.61,0,0,1,2151.38,294.84Zm0-1.3a2,2,0,0,0,1.86-1.13,7.89,7.89,0,0,0,.61-3.54,7.64,7.64,0,0,0-.61-3.49,2.12,2.12,0,0,0-3.72,0,7.51,7.51,0,0,0-.61,3.49,7.75,7.75,0,0,0,.61,3.54A2,2,0,0,0,2151.38,293.54Z" /><polygon class="d" points="1873.55 290.71 1864.63 290.71 1869.09 284.27 1869.09 284.27 1873.55 290.71" /><polygon class="d" points="1918.26 287.82 1927.18 287.82 1922.72 294.26 1922.72 294.26 1918.26 287.82" /><polygon class="d" points="1974.64 290.71 1965.72 290.71 1970.18 284.27 1970.18 284.27 1974.64 290.71" /><polygon class="d" points="2019.35 287.82 2028.27 287.82 2023.81 294.26 2023.81 294.26 2019.35 287.82" /><polygon class="d" points="2114.4 290.71 2105.48 290.71 2109.94 284.27 2109.94 284.27 2114.4 290.71" /><polygon class="d" points="2159.11 287.82 2168.03 287.82 2163.57 294.26 2163.57 294.26 2159.11 287.82" /><rect class="l" x="1645.78" y="61.31" width="121.49" height="185.2" /><rect class="l" x="1502.97" y="61.23" width="112.62" height="92.64" /><rect class="l" x="1502.97" y="153.87" width="112.62" height="92.64" /><rect class="h" x="1505.89" y="63.87" width="106.79" height="90.05" rx="2.99" /><rect class="h" x="1505.89" y="153.93" width="106.79" height="90.05" rx="3.16" /><polygon class="k" points="1608.55 66.52 1510.02 66.52 1510.02 130.04 1538.37 130.04 1538.37 143.36 1580.2 143.36 1580.2 130.04 1608.55 130.04 1608.55 66.52" /><path class="m" d="M1542.16,125.31h34.24a0,0,0,0,1,0,0v.75a6.52,6.52,0,0,1-6.52,6.52h-21.2a6.52,6.52,0,0,1-6.52-6.52v-.75A0,0,0,0,1,1542.16,125.31Z" /><polygon class="k" points="1608.55 241.34 1510.02 241.34 1510.02 177.82 1538.37 177.82 1538.37 164.5 1580.2 164.5 1580.2 177.82 1608.55 177.82 1608.55 241.34" /><path class="m" d="M1548.68,175.29h21.2a6.52,6.52,0,0,1,6.52,6.52v.75a0,0,0,0,1,0,0h-34.24a0,0,0,0,1,0,0v-.75A6.52,6.52,0,0,1,1548.68,175.29Z" /><rect class="l" x="2064.69" y="61.23" width="112.62" height="92.64" /><rect class="l" x="2064.69" y="153.87" width="112.62" height="92.64" /><rect class="h" x="2067.6" y="63.87" width="106.79" height="90.05" rx="2.99" /><rect class="h" x="2067.6" y="153.93" width="106.79" height="90.05" rx="3.16" /><polygon class="k" points="2170.26 66.52 2071.73 66.52 2071.73 130.04 2100.08 130.04 2100.08 143.36 2141.92 143.36 2141.92 130.04 2170.26 130.04 2170.26 66.52" /><path class="m" d="M2103.88,125.31h34.24a0,0,0,0,1,0,0v.75a6.52,6.52,0,0,1-6.52,6.52h-21.2a6.52,6.52,0,0,1-6.52-6.52v-.75A0,0,0,0,1,2103.88,125.31Z" /><polygon class="k" points="2170.26 241.34 2071.73 241.34 2071.73 177.82 2100.08 177.82 2100.08 164.5 2141.92 164.5 2141.92 177.82 2170.26 177.82 2170.26 241.34" /><path class="m" d="M2110.4,175.29h21.2a6.52,6.52,0,0,1,6.52,6.52v.75a0,0,0,0,1,0,0h-34.24a0,0,0,0,1,0,0v-.75A6.52,6.52,0,0,1,2110.4,175.29Z" /><rect class="n" x="1648.43" y="65.49" width="116.19" height="177.67" rx="1.45" /><polygon class="o" points="1729.51 85.73 1729.51 73.22 1720.89 73.22 1720.89 64.27 1691.83 64.27 1691.83 73.22 1683.21 73.22 1683.21 85.73 1663.27 85.73 1663.27 135.07 1749.79 135.07 1749.79 85.73 1729.51 85.73" /><polygon class="o" points="1683.55 221.7 1683.55 234.21 1692.16 234.21 1692.16 243.16 1721.23 243.16 1721.23 234.21 1729.85 234.21 1729.85 221.7 1749.79 221.7 1749.79 172.36 1663.27 172.36 1663.27 221.7 1683.55 221.7" /><rect class="l" x="1825.95" y="61.96" width="215.93" height="184.55" /><rect class="p" x="1830.75" y="65.53" width="206.33" height="177.43" rx="1.93" /><polygon class="o" points="1907.42 87.63 1907.42 75.38 1898.98 75.38 1898.98 66.6 1870.5 66.6 1870.5 75.38 1862.06 75.38 1862.06 87.63 1842.52 87.63 1842.52 135.97 1927.29 135.97 1927.29 87.63 1907.42 87.63" /><polygon class="o" points="2005.44 87.63 2005.44 75.38 1996.99 75.38 1996.99 66.6 1968.52 66.6 1968.52 75.38 1960.07 75.38 1960.07 87.63 1940.54 87.63 1940.54 135.97 2025.31 135.97 2025.31 87.63 2005.44 87.63" /><polygon class="o" points="1960.4 220.85 1960.4 233.1 1968.85 233.1 1968.85 241.88 1997.33 241.88 1997.33 233.1 2005.77 233.1 2005.77 220.85 2025.31 220.85 2025.31 172.51 1940.54 172.51 1940.54 220.85 1960.4 220.85" /><polygon class="o" points="1862.39 220.85 1862.39 233.1 1870.83 233.1 1870.83 241.88 1899.31 241.88 1899.31 233.1 1907.76 233.1 1907.76 220.85 1927.29 220.85 1927.29 172.51 1842.52 172.51 1842.52 220.85 1862.39 220.85" /><path class="d" d="M1930.48,43.17V48h-1.29l-.29-.8a3.15,3.15,0,0,1-2.49,1,3.51,3.51,0,0,1-2.84-1.26,5,5,0,0,1-1-3.27,4.44,4.44,0,0,1,1.31-3.48,4.17,4.17,0,0,1,2.91-1,4,4,0,0,1,2.56.8,3,3,0,0,1,1.13,1.86h-2a1.57,1.57,0,0,0-1.69-1.25,1.8,1.8,0,0,0-1.59.8,4,4,0,0,0-.52,2.26,3.73,3.73,0,0,0,.69,2.48,1.77,1.77,0,0,0,1.43.64,2,2,0,0,0,1.45-.53,1.46,1.46,0,0,0,.49-1.13v-.61h-2V43.17Z" /><path class="d" d="M1933.21,48h-1.47V39.34h1.87v3a2.54,2.54,0,0,1,1.89-.77,2.61,2.61,0,0,1,2.11.88,3.33,3.33,0,0,1,.67,2.21,3.65,3.65,0,0,1-1,2.72,2.67,2.67,0,0,1-2,.79,2.28,2.28,0,0,1-1.82-.82Zm3.19-3.16c0-1.26-.47-1.89-1.39-1.89a1.28,1.28,0,0,0-1.1.52,2.22,2.22,0,0,0-.36,1.34c0,1.34.47,2,1.4,2a1.26,1.26,0,0,0,1.09-.56A2.45,2.45,0,0,0,1936.4,44.82Z" /><path class="d" d="M1944.91,42.93v1.39h-3.47v2.21h3.81V48h-5.83V39.34h5.83v1.48h-3.81v2.11Z" /><path class="d" d="M1626.16,14.3h1.91l-1.93,8.64h-2.38l-1.61-6.67-1.53,6.67h-2.3l-2.07-8.64h2.09l1.3,6.39,1.46-6.39h2.24l1.57,6.42Z" /><path class="d" d="M1636.12,22.94H1634l-.62-2h-3.07l-.61,2h-2l3.07-8.64H1633Zm-4.26-7-1.14,3.68H1633Z" /><path class="d" d="M1642.34,14.3h1.71v8.64H1642l-3.41-6.13v6.13h-1.73V14.3h2.23l3.27,5.91Z" /><path class="d" d="M1986.62,14.3h2v7.13h4.2v1.51h-6.22Z" /><path class="d" d="M2001.49,22.94h-2.12l-.61-2h-3.08l-.61,2h-2l3.07-8.64h2.25Zm-4.26-7-1.14,3.68h2.27Z" /><path class="d" d="M2007.71,14.3h1.71v8.64h-2.07l-3.41-6.13v6.13h-1.73V14.3h2.24l3.26,5.91Z" /><polygon class="d" points="1505.43 24.81 1503.43 24.81 1503.43 17.37 1607.14 17.37 1607.14 19.37 1505.43 19.37 1505.43 24.81" /><polygon class="d" points="1765.62 24.81 1763.62 24.81 1763.62 19.37 1655.97 19.37 1655.97 17.37 1765.62 17.37 1765.62 24.81" /><polygon class="d" points="1826.45 24.81 1824.45 24.81 1824.45 17.37 1980.34 17.37 1980.34 19.37 1826.45 19.37 1826.45 24.81" /><polygon class="d" points="2178.31 24.81 2176.31 24.81 2176.31 19.37 2015.02 19.37 2015.02 17.37 2178.31 17.37 2178.31 24.81" /><path class="d" d="M1712.35,43.17V48h-1.3l-.29-.8a3.12,3.12,0,0,1-2.48,1,3.51,3.51,0,0,1-2.84-1.26,5,5,0,0,1-1-3.27,4.44,4.44,0,0,1,1.31-3.48,4.15,4.15,0,0,1,2.9-1,4,4,0,0,1,2.57.8,3.06,3.06,0,0,1,1.13,1.86h-2a1.56,1.56,0,0,0-1.69-1.25,1.8,1.8,0,0,0-1.58.8,4,4,0,0,0-.53,2.26,3.67,3.67,0,0,0,.7,2.48,1.75,1.75,0,0,0,1.42.64,2,2,0,0,0,1.46-.53,1.5,1.5,0,0,0,.49-1.13v-.61h-2V43.17Z" /><path class="d" d="M1715.07,48h-1.46V39.34h1.87v3a2.52,2.52,0,0,1,1.88-.77,2.63,2.63,0,0,1,2.12.88,3.39,3.39,0,0,1,.67,2.21,3.69,3.69,0,0,1-1,2.72,2.68,2.68,0,0,1-2,.79,2.29,2.29,0,0,1-1.83-.82Zm3.19-3.16c0-1.26-.46-1.89-1.39-1.89a1.27,1.27,0,0,0-1.09.52,2.22,2.22,0,0,0-.36,1.34c0,1.34.46,2,1.39,2a1.25,1.25,0,0,0,1.09-.56A2.45,2.45,0,0,0,1718.26,44.82Z" /><path class="d" d="M1726.77,42.93v1.39h-3.47v2.21h3.82V48h-5.83V39.34h5.83v1.48h-3.82v2.11Z" /><text class="q" transform="translate(1685.94 47.98)">2.5</text><path class="d" d="M1548.27,48.16a4.16,4.16,0,0,1-2.75-.84,2.86,2.86,0,0,1-1-1.88h1.91a1.42,1.42,0,0,0,.62,1,2.15,2.15,0,0,0,1.26.34c1.07,0,1.61-.33,1.61-1a1.06,1.06,0,0,0-.7-1,8.08,8.08,0,0,0-1.46-.44,5.21,5.21,0,0,1-2.11-.87,2.2,2.2,0,0,1-.82-1.82,2.15,2.15,0,0,1,1-1.91,4.49,4.49,0,0,1,2.47-.59,3.88,3.88,0,0,1,2.49.72,2.55,2.55,0,0,1,.94,1.68h-1.88a1.06,1.06,0,0,0-.57-.79,2.15,2.15,0,0,0-1-.23c-.93,0-1.39.3-1.39.88a.81.81,0,0,0,.36.72,4.48,4.48,0,0,0,1.39.47,5.87,5.87,0,0,1,2.41,1,2.36,2.36,0,0,1,.93,1.95,2.29,2.29,0,0,1-1,1.93A4.5,4.5,0,0,1,1548.27,48.16Z" /><path class="d" d="M1558.06,43.1v1.39H1555V48h-2V39.34h5.48V40.8H1555v2.3Z" /><path class="d" d="M1559.51,39.34h3.12a4.35,4.35,0,0,1,3,.81,2.62,2.62,0,0,1,.77,2.07,2.53,2.53,0,0,1-1,2.27,4.76,4.76,0,0,1-2.63.6h-1.17V48h-2Zm3.14,1.38h-1.12v3h1.2c1,0,1.56-.49,1.56-1.49S1563.74,40.72,1562.65,40.72Z" /><text class="q" transform="translate(1566.87 47.63)">+</text><path class="d" d="M2110,48.16a4.18,4.18,0,0,1-2.75-.84,3,3,0,0,1-1-1.88h1.91a1.4,1.4,0,0,0,.63,1,2.11,2.11,0,0,0,1.26.34c1.07,0,1.6-.33,1.6-1a1.06,1.06,0,0,0-.69-1,8.27,8.27,0,0,0-1.47-.44,5.27,5.27,0,0,1-2.11-.87,2.22,2.22,0,0,1-.81-1.82,2.16,2.16,0,0,1,1-1.91,4.51,4.51,0,0,1,2.47-.59,3.9,3.9,0,0,1,2.5.72,2.54,2.54,0,0,1,.93,1.68h-1.88a1,1,0,0,0-.56-.79,2.18,2.18,0,0,0-1-.23c-.93,0-1.4.3-1.4.88a.81.81,0,0,0,.36.72,4.57,4.57,0,0,0,1.4.47,5.87,5.87,0,0,1,2.41,1,2.38,2.38,0,0,1,.92,1.95,2.28,2.28,0,0,1-1,1.93A4.51,4.51,0,0,1,2110,48.16Z" /><path class="d" d="M2119.77,43.1v1.39h-3.09V48h-2V39.34h5.49V40.8h-3.47v2.3Z" /><path class="d" d="M2121.23,39.34h3.11a4.36,4.36,0,0,1,3,.81,2.65,2.65,0,0,1,.77,2.07,2.55,2.55,0,0,1-1,2.27,4.76,4.76,0,0,1-2.63.6h-1.18V48h-2Zm3.14,1.38h-1.13v3h1.2c1,0,1.56-.49,1.56-1.49S2125.46,40.72,2124.37,40.72Z" /><text class="q" transform="translate(2128.58 47.63)">+</text></svg>