<svg viewBox="0 0 1132.09 367.26"><defs><style>.a{fill:#2f2f2f;}.b{fill:none;}.c{fill:#515051;}.d{fill:#fff;}.e{fill:#393939;}</style></defs><path class="a" d="M1131.81,204.11V331.26c0,21.14-28.74,36-75.64,36H75.91C29,367.26.27,352.4.27,331.26V204.11L85.84,53C108,7.59,139.65,2.31,177.77,0H954.31c38.12,2.31,69.82,7.59,91.93,53Z" /><path class="b" d="M1131.81,204.11V331.26c0,21.14-28.74,36-75.64,36H75.91C29,367.26.27,352.4.27,331.26V204.11L85.84,53C108,7.59,139.65,2.31,177.77,0H954.31c38.12,2.31,69.82,7.59,91.93,53Z" /><path class="c" d="M1131.81,210.75c-5.26,31.18-87.2,30-87.2,30H87.47s-81.94,1.16-87.2-30a20.25,20.25,0,0,1,0-6.64L85.84,53C108,7.59,139.65,2.31,177.77,0H954.31c38.12,2.31,69.82,7.59,91.93,53l85.57,151.12A20.25,20.25,0,0,1,1131.81,210.75Z" /><rect class="d" x="132.83" y="332.91" width="54.83" height="13.76" rx="6.88" /><polygon class="e" points="534.25 114.96 526.19 114.96 527.12 104.8 534.99 104.8 534.25 114.96 534.25 114.96" /><path class="e" d="M598.56,107.66a40.07,40.07,0,0,0-6.69-.53c-5.11,0-8.61,1.14-8.55,2.69s3.54,2.73,8.88,2.73a38,38,0,0,0,6.69-.55l.21,2.77a72.61,72.61,0,0,1-7.31.37c-9.07,0-17-2-17.11-5.32-.06-3,6.91-5.19,16.49-5.19,3.68,0,6.43.28,7.19.35l.2,2.68Z" /><path class="e" d="M516,107.66a37.32,37.32,0,0,0-6.57-.53c-5.13,0-8.84,1.14-9.08,2.69s3,2.73,8.36,2.73a39.48,39.48,0,0,0,6.78-.55l-.32,2.77c-1,.1-3.8.37-7.4.37-9.05,0-16.62-2-16.05-5.32.52-3,7.91-5.19,17.46-5.19a71,71,0,0,1,7.13.35l-.31,2.68Z" /><path class="e" d="M640.36,109.82c.51,2.92-6.12,5.32-15.93,5.32s-17.06-2.4-17.34-5.32,6.37-5.19,15.93-5.19,16.85,2.31,17.34,5.19Zm-17-2.65c-4.68,0-8,1.18-7.85,2.65s3.83,2.69,8.57,2.69,8.09-1.21,7.86-2.69-3.89-2.65-8.58-2.65Z" /><path class="e" d="M564.77,107.07c-.11,0-3.44-.3-6.17-.3-3.16,0-4.89.33-4.9.82s2.29.82,3.59,1l2.2.22c5.14.52,7.49,1.67,7.49,2.91,0,2.59-7,3.46-13.19,3.46-4.29,0-8.27-.26-8.68-.28l.12-2.38c.7.06,4,.38,7.54.38,4,0,5.82-.37,5.83-1s-1.56-.81-3.54-1l-1.71-.17c-4.41-.45-8.06-1.29-8-3,.09-1.88,4.51-3.12,11.76-3.12,3.82,0,7.41.29,7.64.31v2.13Z" /><path class="e" d="M487.16,94.4c.14-.72-1.42-1.31-3.5-1.31s-3.86.59-4,1.31l-.58,2.77c-.15.74,1.44,1.33,3.51,1.33s3.92-.59,4.06-1.33l.52-2.77Z" /><path class="e" d="M508.33,90.81c.1-.7-1.48-1.28-3.53-1.28s-3.82.58-3.93,1.28l-1,6.36c-.11.74,1.5,1.33,3.6,1.33s3.87-.59,4-1.33l.89-6.36Z" /><path class="e" d="M529.24,86c.07-.7-1.52-1.26-3.55-1.26s-3.74.56-3.81,1.26l-1.5,13.82c-.09.74,1.57,1.35,3.67,1.35s3.87-.61,3.94-1.35L529.24,86Z" /><path class="e" d="M549.29,90.81c0-.7-1.61-1.28-3.65-1.28s-3.75.58-3.79,1.28l-.38,6.36c0,.74,1.63,1.33,3.73,1.33s3.8-.59,3.83-1.33l.26-6.36Z" /><path class="e" d="M569.79,94.4c0-.72-1.68-1.31-3.74-1.31s-3.76.59-3.76,1.31l0,2.77c0,.74,1.7,1.33,3.79,1.33s3.77-.59,3.76-1.33l0-2.77Z" /><path class="e" d="M590.25,90.81c0-.7-1.73-1.28-3.78-1.28s-3.68.58-3.65,1.28l.26,6.36c0,.74,1.75,1.33,3.84,1.33s3.75-.59,3.71-1.33l-.38-6.36Z" /><path class="e" d="M610.22,86c-.08-.7-1.77-1.26-3.81-1.26s-3.6.56-3.54,1.26l1.25,13.82c.07.74,1.85,1.35,3.93,1.35s3.75-.61,3.67-1.35L610.22,86Z" /><path class="e" d="M631.24,90.81c-.11-.7-1.87-1.28-4-1.28s-3.62.58-3.52,1.28l.89,6.36c.1.74,1.9,1.33,4,1.33s3.76-.59,3.64-1.33l-1-6.36Z" /><path class="e" d="M652.44,94.4c-.15-.72-2-1.31-4-1.31s-3.63.59-3.49,1.31l.53,2.77c.14.74,1.94,1.33,4,1.33s3.67-.59,3.52-1.33l-.58-2.77Z" /><polygon class="c" points="534.25 116.55 526.19 116.55 527.12 106.4 534.99 106.4 534.25 116.55 534.25 116.55" /><path class="c" d="M598.56,109.26a39.46,39.46,0,0,0-6.69-.54c-5.11,0-8.61,1.14-8.55,2.69s3.54,2.73,8.88,2.73a38.56,38.56,0,0,0,6.69-.54l.21,2.77c-1,.09-3.74.37-7.31.37-9.07,0-17-2-17.11-5.33-.06-3,6.91-5.19,16.49-5.19,3.68,0,6.43.29,7.19.36l.2,2.68Z" /><path class="c" d="M516,109.26a36.75,36.75,0,0,0-6.57-.54c-5.13,0-8.84,1.14-9.08,2.69s3,2.73,8.36,2.73a40.06,40.06,0,0,0,6.78-.54l-.32,2.77c-1,.09-3.8.37-7.4.37-9.05,0-16.62-2-16.05-5.33.52-3,7.91-5.19,17.46-5.19a69.68,69.68,0,0,1,7.13.36l-.31,2.68Z" /><path class="c" d="M640.36,111.41c.51,2.93-6.12,5.33-15.93,5.33s-17.06-2.4-17.34-5.33,6.37-5.19,15.93-5.19,16.85,2.31,17.34,5.19Zm-17-2.65c-4.68,0-8,1.18-7.85,2.65s3.83,2.69,8.57,2.69,8.09-1.2,7.86-2.69-3.89-2.65-8.58-2.65Z" /><path class="c" d="M564.77,108.67c-.11,0-3.44-.31-6.17-.31-3.16,0-4.89.34-4.9.82s2.29.83,3.59,1l2.2.22c5.14.53,7.49,1.67,7.49,2.91,0,2.59-7,3.47-13.19,3.47-4.29,0-8.27-.26-8.68-.29l.12-2.37c.7,0,4,.38,7.54.38,4,0,5.82-.38,5.83-1s-1.56-.82-3.54-1c-.48,0-1.2-.13-1.71-.17-4.41-.46-8.06-1.3-8-3,.09-1.87,4.51-3.12,11.76-3.12,3.82,0,7.41.3,7.64.32v2.13Z" /><path class="c" d="M487.16,96c.14-.72-1.42-1.3-3.5-1.3s-3.86.58-4,1.3l-.58,2.77c-.15.74,1.44,1.34,3.51,1.34s3.92-.6,4.06-1.34l.52-2.77Z" /><path class="c" d="M508.33,92.41c.1-.71-1.48-1.28-3.53-1.28s-3.82.57-3.93,1.28l-1,6.35c-.11.74,1.5,1.34,3.6,1.34s3.87-.6,4-1.34l.89-6.35Z" /><path class="c" d="M529.24,87.61c.07-.69-1.52-1.25-3.55-1.25s-3.74.56-3.81,1.25l-1.5,13.82c-.09.75,1.57,1.36,3.67,1.36s3.87-.61,3.94-1.36l1.25-13.82Z" /><path class="c" d="M549.29,92.41c0-.71-1.61-1.28-3.65-1.28s-3.75.57-3.79,1.28l-.38,6.35c0,.74,1.63,1.34,3.73,1.34s3.8-.6,3.83-1.34l.26-6.35Z" /><path class="c" d="M569.79,96c0-.72-1.68-1.3-3.74-1.3s-3.76.58-3.76,1.3l0,2.77c0,.74,1.7,1.34,3.79,1.34s3.77-.6,3.76-1.34l0-2.77Z" /><path class="c" d="M590.25,92.41c0-.71-1.73-1.28-3.78-1.28s-3.68.57-3.65,1.28l.26,6.35c0,.74,1.75,1.34,3.84,1.34s3.75-.6,3.71-1.34l-.38-6.35Z" /><path class="c" d="M610.22,87.61c-.08-.69-1.77-1.25-3.81-1.25s-3.6.56-3.54,1.25l1.25,13.82c.07.75,1.85,1.36,3.93,1.36s3.75-.61,3.67-1.36l-1.5-13.82Z" /><path class="c" d="M631.24,92.41c-.11-.71-1.87-1.28-4-1.28s-3.62.57-3.52,1.28l.89,6.35c.1.74,1.9,1.34,4,1.34s3.76-.6,3.64-1.34l-1-6.35Z" /><path class="c" d="M652.44,96c-.15-.72-2-1.3-4-1.3s-3.63.58-3.49,1.3l.53,2.77c.14.74,1.94,1.34,4,1.34s3.67-.6,3.52-1.34L652.44,96Z" /></svg>