<svg viewBox="0 0 1187.76 137.14"><defs><style>.a{fill:#1e2024;}.b{fill:#17181c;}.c{fill:#414042;}.d{fill:#fff;}.e{fill:#0c0f12;}.f{fill:#2c2d32;}.g{fill:#111115;}.h{fill:url(#a);}.i{fill:#4d5b5f;}.j{fill:none;stroke:#231f20;stroke-miterlimit:10;stroke-width:2px;}</style><radialGradient id="a" cx="1005.93" cy="56.65" r="5.49" gradientTransform="translate(0 3.95) scale(1 0.93)" gradientUnits="userSpaceOnUse"><stop offset="0.14" stop-color="#fff" /><stop offset="1" /></radialGradient></defs><path class="a" d="M1187.76,0V119.29s-7.18,5.27-19.92,7.21c-54.08,8.33-84.78,9.65-125.61,10.64H145.53c-40.83-1-71.53-2.31-125.61-10.64C7.18,124.56,0,119.29,0,119.29V0Z" /><rect class="b" x="128.69" y="49.65" width="90.83" height="19.49" /><circle class="c" cx="139.04" cy="59.4" r="5.06" /><path class="d" d="M182.15,87.47h-9.87v19.77h15.48V93.08A5.61,5.61,0,0,0,182.15,87.47Zm4.61,18.77H173.28V88.47h8.87a4.61,4.61,0,0,1,4.61,4.61Z" /><path class="d" d="M178,97.15v4.47h4.58V97.15Zm3.58,3.47H179V98.15h2.58Z" /><circle class="e" cx="275.82" cy="61.54" r="6.44" /><path class="d" d="M275.82,89h-.29l.86-1-1.52-1.29-3.55,4.19,4.55,2.46.95-1.76L275.74,91h.08a6.27,6.27,0,1,1-6.26,6.26h-2A8.27,8.27,0,1,0,275.82,89Z" /><rect class="e" x="326.3" y="42.44" width="80.15" height="33.47" /><rect class="f" x="333.04" y="50.48" width="8.75" height="4.9" /><rect class="f" x="347.52" y="50.48" width="8.75" height="4.9" /><rect class="f" x="333.04" y="72.55" width="66.66" height="1.82" /><rect class="f" x="362" y="50.48" width="8.75" height="4.9" /><rect class="f" x="376.48" y="50.48" width="8.75" height="4.9" /><rect class="f" x="390.95" y="50.48" width="8.75" height="4.9" /><path class="d" d="M388.06,97.71,382.72,95v1.75H362.25l4.49-3.86h5.5a2.32,2.32,0,1,0,0-2H366l-6.82,5.86h-.93a4.44,4.44,0,1,0,0,2h7.08l5.53,5.53h4.83v1.11h4.38v-4.38h-4.38v1.27h-4l-3.53-3.53h14.56v1.59Z" /><circle class="g" cx="1015.58" cy="59.95" r="22.35" /><circle class="h" cx="1005.68" cy="54.99" r="6.11" /><polygon class="d" points="1042.6 101.3 1039.6 101.3 1039.6 103.97 1036.93 103.97 1036.93 106.97 1039.6 106.97 1039.6 109.64 1042.6 109.64 1042.6 106.97 1045.27 106.97 1045.27 103.97 1042.6 103.97 1042.6 101.3" /><rect class="d" x="987.81" y="103.72" width="6.44" height="3" /><path class="d" d="M1041.1,94.4a11.07,11.07,0,0,0-11,9.57h-10a4.6,4.6,0,0,0-8.69,0,4.38,4.38,0,0,0-.26,1.5,4.67,4.67,0,0,0,.25,1.5,4.6,4.6,0,0,0,8.71,0h10a11.07,11.07,0,1,0,11-12.57Zm0,19.15a8.08,8.08,0,1,1,8.08-8.08A8.08,8.08,0,0,1,1041.1,113.55Z" /><path class="d" d="M1016,113.57a8.09,8.09,0,0,1-8.09-8.09,7.51,7.51,0,0,1,.15-1.51,4.3,4.3,0,0,1,.16-.69,8.09,8.09,0,0,1,14.39-2.45h0l2.44-1.72a11.08,11.08,0,0,0-20,4.87h-3.14a11.08,11.08,0,1,0,0,3h3.14a11.07,11.07,0,0,0,19.41,5.68l-2.27-1.94A8.05,8.05,0,0,1,1016,113.57Zm-25.08,0a8.08,8.08,0,1,1,8.08-8.08A8.09,8.09,0,0,1,991,113.55Z" /><polygon class="e" points="534.73 58.52 532.75 58.52 532.75 44.86 512.49 44.86 512.49 34.96 504.56 34.96 504.56 28.68 480.78 28.68 480.78 34.96 473.07 34.96 473.07 44.86 452.82 44.86 452.82 58.52 450.84 58.52 450.84 73.6 452.82 73.6 452.82 87.25 532.75 87.25 532.75 73.6 534.73 73.6 534.73 58.52" /><rect class="i" x="516.56" y="30.44" width="19.27" height="8.26" /><rect class="i" x="449.74" y="30.44" width="19.27" height="8.26" transform="translate(918.74 69.14) rotate(180)" /><polygon class="e" points="636.72 58.52 634.73 58.52 634.73 44.86 614.48 44.86 614.48 34.96 606.55 34.96 606.55 28.68 582.77 28.68 582.77 34.96 575.06 34.96 575.06 44.86 554.81 44.86 554.81 58.52 552.83 58.52 552.83 73.6 554.81 73.6 554.81 87.25 634.73 87.25 634.73 73.6 636.72 73.6 636.72 58.52" /><rect class="i" x="618.55" y="30.44" width="19.27" height="8.26" /><rect class="i" x="551.72" y="30.44" width="19.27" height="8.26" transform="translate(1122.71 69.14) rotate(180)" /><polygon class="e" points="738.7 58.52 736.72 58.52 736.72 44.86 716.47 44.86 716.47 34.96 708.54 34.96 708.54 28.68 684.76 28.68 684.76 34.96 677.05 34.96 677.05 44.86 656.8 44.86 656.8 58.52 654.81 58.52 654.81 73.6 656.8 73.6 656.8 87.25 736.72 87.25 736.72 73.6 738.7 73.6 738.7 58.52" /><rect class="i" x="720.54" y="30.44" width="19.27" height="8.26" /><rect class="i" x="653.71" y="30.44" width="19.27" height="8.26" transform="translate(1326.69 69.14) rotate(180)" /><polygon class="e" points="840.69 58.52 838.71 58.52 838.71 44.86 818.45 44.86 818.45 34.96 810.53 34.96 810.53 28.68 786.75 28.68 786.75 34.96 779.04 34.96 779.04 44.86 758.78 44.86 758.78 58.52 756.8 58.52 756.8 73.6 758.78 73.6 758.78 87.25 838.71 87.25 838.71 73.6 840.69 73.6 840.69 58.52" /><rect class="i" x="822.53" y="30.44" width="19.27" height="8.26" /><rect class="i" x="755.7" y="30.44" width="19.27" height="8.26" transform="translate(1530.67 69.14) rotate(180)" /><polygon class="e" points="942.68 58.52 940.7 58.52 940.7 44.86 920.44 44.86 920.44 34.96 912.52 34.96 912.52 28.68 888.74 28.68 888.74 34.96 881.03 34.96 881.03 44.86 860.77 44.86 860.77 58.52 858.79 58.52 858.79 73.6 860.77 73.6 860.77 87.25 940.7 87.25 940.7 73.6 942.68 73.6 942.68 58.52" /><rect class="i" x="924.52" y="30.44" width="19.27" height="8.26" /><rect class="i" x="857.69" y="30.44" width="19.27" height="8.26" transform="translate(1734.65 69.14) rotate(180)" /><rect class="j" x="441.79" y="20.42" width="101.99" height="80.92" /><rect class="j" x="543.78" y="20.42" width="101.99" height="80.92" /><rect class="j" x="645.76" y="20.42" width="101.99" height="80.92" /><rect class="j" x="747.75" y="20.42" width="101.99" height="80.92" /><rect class="j" x="849.74" y="20.42" width="101.99" height="80.92" /><path class="d" d="M462.52,108.92V120.7h-1.67V108.92Z" /><path class="d" d="M464.89,120.7v-8.51h1.29l.18,1.08a3.1,3.1,0,0,1,1.15-1,3.18,3.18,0,0,1,1.44-.34,3,3,0,0,1,2.2.82,3.26,3.26,0,0,1,.81,2.39v5.55h-1.57v-5.53a1.94,1.94,0,0,0-.47-1.43,1.87,1.87,0,0,0-1.35-.46,2.24,2.24,0,0,0-.81.15,1.88,1.88,0,0,0-.67.43,2.09,2.09,0,0,0-.46.68,2.33,2.33,0,0,0-.17.9v5.26Z" /><path class="d" d="M478,120.78a4.37,4.37,0,0,1-1.16.16,2.15,2.15,0,0,1-1.7-.64,2.52,2.52,0,0,1-.57-1.71v-5.06h-1.26v-1.34h1.26l.09-2h1.48v2h1.83v1.34H476.1v5.09c0,.63.3.95.9.95a2.83,2.83,0,0,0,.41,0,5.17,5.17,0,0,0,.55-.1Z" /><path class="d" d="M486.85,118.24a4.07,4.07,0,0,1-.49,1.08,3.44,3.44,0,0,1-.81.85,4.07,4.07,0,0,1-1.12.57,5.06,5.06,0,0,1-3.07-.08,3.39,3.39,0,0,1-1.32-.84,3.92,3.92,0,0,1-.87-1.41,5.86,5.86,0,0,1-.31-2,5.78,5.78,0,0,1,.31-2,4.12,4.12,0,0,1,.85-1.41,3.38,3.38,0,0,1,1.3-.85,4.54,4.54,0,0,1,1.63-.29,4.67,4.67,0,0,1,1.62.27,3.12,3.12,0,0,1,1.26.86,4.19,4.19,0,0,1,.82,1.51,7.13,7.13,0,0,1,.29,2.21h-6.47a3.13,3.13,0,0,0,.82,2.15,2.54,2.54,0,0,0,1.79.68,2.26,2.26,0,0,0,1.34-.4,1.87,1.87,0,0,0,.72-1Zm-3.87-5a2.39,2.39,0,0,0-1.61.58,2.84,2.84,0,0,0-.84,1.76h4.81a2.5,2.5,0,0,0-.73-1.77A2.37,2.37,0,0,0,483,113.2Z" /><path class="d" d="M488.83,120.7v-8.51h1.29l.21,1.26a2.3,2.3,0,0,1,2.16-1.51,4.29,4.29,0,0,1,.55,0l.38.08v1.57a3.57,3.57,0,0,0-.47-.11,3,3,0,0,0-.53,0,1.83,1.83,0,0,0-.77.16,1.63,1.63,0,0,0-.65.5,2.82,2.82,0,0,0-.44.92,5,5,0,0,0-.16,1.37v4.27Z" /><path class="d" d="M494.65,120.7v-8.51h1.29l.18,1.08a3.1,3.1,0,0,1,1.15-1,3.18,3.18,0,0,1,1.44-.34,3,3,0,0,1,2.2.82,3.26,3.26,0,0,1,.81,2.39v5.55h-1.57v-5.53a1.94,1.94,0,0,0-.47-1.43,1.87,1.87,0,0,0-1.35-.46,2.24,2.24,0,0,0-.81.15,1.88,1.88,0,0,0-.67.43,2.09,2.09,0,0,0-.46.68,2.33,2.33,0,0,0-.17.9v5.26Z" /><path class="d" d="M511.42,118.24a3.78,3.78,0,0,1-.49,1.08,3.44,3.44,0,0,1-.81.85,3.88,3.88,0,0,1-1.11.57,5.1,5.1,0,0,1-3.08-.08,3.39,3.39,0,0,1-1.32-.84,3.77,3.77,0,0,1-.86-1.41,5.61,5.61,0,0,1-.32-2,5.53,5.53,0,0,1,.32-2,4,4,0,0,1,.85-1.41,3.42,3.42,0,0,1,1.29-.85,4.59,4.59,0,0,1,1.64-.29,4.65,4.65,0,0,1,1.61.27,3,3,0,0,1,1.26.86,4,4,0,0,1,.82,1.51,7.11,7.11,0,0,1,.3,2.21H505a3.13,3.13,0,0,0,.82,2.15,2.57,2.57,0,0,0,1.8.68,2.25,2.25,0,0,0,1.33-.4,1.89,1.89,0,0,0,.73-1Zm-3.86-5a2.39,2.39,0,0,0-1.61.58,2.8,2.8,0,0,0-.85,1.76h4.81a2.5,2.5,0,0,0-.72-1.77A2.4,2.4,0,0,0,507.56,113.2Z" /><path class="d" d="M517.19,120.78a4.37,4.37,0,0,1-1.16.16,2.15,2.15,0,0,1-1.7-.64,2.52,2.52,0,0,1-.57-1.71v-5.06H512.5v-1.34h1.26l.1-2h1.47v2h1.83v1.34h-1.83v5.09c0,.63.3.95.9.95a2.73,2.73,0,0,0,.41,0,5.17,5.17,0,0,0,.55-.1Z" /><path class="d" d="M527.17,120.7v-9.82l-2.56,1.32v-1.62l2.58-1.34h1.54V120.7Z" /><path class="d" d="M596.35,113.48a3.55,3.55,0,0,1,1.26-2.31,3.81,3.81,0,0,1,1.22-.68,4.44,4.44,0,0,1,1.54-.25,4.64,4.64,0,0,1,1.48.23,3.46,3.46,0,0,1,1.18.65,3,3,0,0,1,.79,1,3.15,3.15,0,0,1,.28,1.36,3.71,3.71,0,0,1-.14,1.08,3.79,3.79,0,0,1-.45,1,8.16,8.16,0,0,1-.85,1.09q-.52.59-1.29,1.32l-2.62,2.49h5.3v1.44h-7.42V120.5l3.73-3.58c.39-.37.72-.71,1-1a9.94,9.94,0,0,0,.66-.84,2.94,2.94,0,0,0,.37-.76,2.58,2.58,0,0,0,.12-.8,1.85,1.85,0,0,0-.56-1.41,2.23,2.23,0,0,0-1.6-.53,2.54,2.54,0,0,0-1.61.5,2,2,0,0,0-.73,1.41Z" /><path class="d" d="M703.21,118.81a3,3,0,0,1-.29,1.35,3.13,3.13,0,0,1-.81,1.07,3.8,3.8,0,0,1-1.29.69,5.18,5.18,0,0,1-1.67.25,4.49,4.49,0,0,1-2.86-.85,3.36,3.36,0,0,1-1.26-2.23h1.67a2.2,2.2,0,0,0,.78,1.32,3.22,3.22,0,0,0,3.47-.12,1.92,1.92,0,0,0,.66-1.51,2.2,2.2,0,0,0-.21-1,2,2,0,0,0-.53-.67,2,2,0,0,0-.73-.37,2.71,2.71,0,0,0-.79-.12h-1v-1.36h.92a1.94,1.94,0,0,0,.66-.11,2,2,0,0,0,.61-.34,1.69,1.69,0,0,0,.45-.6,1.94,1.94,0,0,0,.17-.86,1.69,1.69,0,0,0-.18-.8,1.72,1.72,0,0,0-.5-.57,2.14,2.14,0,0,0-.7-.32,3.22,3.22,0,0,0-.81-.11,2.58,2.58,0,0,0-1.57.45,1.79,1.79,0,0,0-.73,1.19h-1.66a3.25,3.25,0,0,1,.44-1.21,3.5,3.5,0,0,1,.87-.93,4.21,4.21,0,0,1,1.22-.6,5.2,5.2,0,0,1,1.51-.21,5.3,5.3,0,0,1,1.39.18,3.52,3.52,0,0,1,1.19.55,2.76,2.76,0,0,1,.83.93,2.81,2.81,0,0,1,.31,1.33,2.53,2.53,0,0,1-.58,1.64,3,3,0,0,1-1.48,1,3.59,3.59,0,0,1,.93.34,3.25,3.25,0,0,1,.78.6,3.1,3.1,0,0,1,.54.88A3.17,3.17,0,0,1,703.21,118.81Z" /><path class="d" d="M800.36,110.49v8h1.84v1.34h-1.84v2.16h-1.53v-2.16h-5v-1.46l4.91-7.83Zm-1.53,8V113l-3.27,5.42Z" /><path class="d" d="M894.46,119.16a2.13,2.13,0,0,0,.77,1.2,2.52,2.52,0,0,0,1.65.5,2.67,2.67,0,0,0,1-.18,2.36,2.36,0,0,0,.79-.52,2.45,2.45,0,0,0,.53-.85,3.43,3.43,0,0,0,.18-1.15,2.6,2.6,0,0,0-.67-1.94,2.42,2.42,0,0,0-1.78-.66,3.29,3.29,0,0,0-1.2.24,2.88,2.88,0,0,0-1.09.8h-1.39l.24-6.11h7v1.32H894.9l-.13,3.36a3.62,3.62,0,0,1,1.09-.61,4,4,0,0,1,1.41-.23,3.93,3.93,0,0,1,1.42.25,3.35,3.35,0,0,1,1.18.73,3.62,3.62,0,0,1,.81,1.22,4.45,4.45,0,0,1,.3,1.7,4.31,4.31,0,0,1-.27,1.52,3.79,3.79,0,0,1-.81,1.26,3.84,3.84,0,0,1-1.29.86,4.55,4.55,0,0,1-1.75.31,4.65,4.65,0,0,1-1.59-.25,3.88,3.88,0,0,1-2.07-1.64,3.21,3.21,0,0,1-.41-1.13Z" /></svg>