<svg id="a" data-name="Layer 1" viewBox="0 0 1191.64 203.3">
  <defs>
    <style>
      .g {
        fill: url(#c);
      }

      .h {
        fill: url(#b);
      }

      .i {
        fill: #231f20;
      }

      .j {
        fill: #0c0f12;
      }

      .k {
        fill: #143221;
      }

      .l {
        fill: #111115;
      }

      .m {
        fill: #1c1816;
      }

      .n {
        fill: #191719;
      }

      .o {
        fill: #2e2f2f;
      }

      .p {
        fill: #382013;
      }

      .q {
        fill: #393939;
      }

      .r, .s {
        fill: #4d5b5f;
      }

      .t {
        fill: #515051;
      }

      .u {
        letter-spacing: 0em;
      }

      .v {
        letter-spacing: 0em;
      }

      .w {
        fill: url(#d);
        opacity: .52;
      }

      .s {
        font-family: CiscoSansTT, CiscoSansTT;
        font-size: 18.56px;
      }
    </style>
    <linearGradient id="b" x1="0" y1="92.88" x2="1191.64" y2="92.88" gradientUnits="userSpaceOnUse">
      <stop offset="0" stop-color="#181415" />
      <stop offset="0" stop-color="#5a5f64" />
      <stop offset=".01" stop-color="#52575b" />
      <stop offset=".01" stop-color="#39393c" />
      <stop offset=".02" stop-color="#262426" />
      <stop offset=".02" stop-color="#1b1819" />
      <stop offset=".02" stop-color="#181415" />
      <stop offset=".15" stop-color="#222122" />
      <stop offset=".33" stop-color="#2b2c2e" />
      <stop offset=".51" stop-color="#2f3133" />
      <stop offset=".92" stop-color="#282931" />
      <stop offset=".93" stop-color="#24252b" />
      <stop offset=".95" stop-color="#202023" />
      <stop offset=".99" stop-color="#1f1f21" />
    </linearGradient>
    <linearGradient id="c" x1="595.82" y1="160.29" x2="595.82" y2="242.52" gradientUnits="userSpaceOnUse">
      <stop offset="0" stop-color="#64625c" />
      <stop offset="0" stop-color="#5a5853" />
      <stop offset=".03" stop-color="#484845" />
      <stop offset=".05" stop-color="#3e3f3c" />
      <stop offset=".08" stop-color="#3b3c3a" />
      <stop offset=".51" stop-color="#232522" />
      <stop offset=".89" stop-color="#23261f" />
      <stop offset=".92" stop-color="#31342c" />
      <stop offset=".98" stop-color="#565950" />
      <stop offset="1" stop-color="#696b62" />
    </linearGradient>
    <radialGradient id="d" cx="770.03" cy="-1108.13" fx="770.03" fy="-1108.13" r="8.64" gradientTransform="translate(640.97 1339.29) rotate(-24.19) scale(1 .93)" gradientUnits="userSpaceOnUse">
      <stop offset=".14" stop-color="#fff" />
      <stop offset="1" stop-color="#000" />
    </radialGradient>
  </defs>
  <path class="n" d="m8.61,25.63c-7.14,0-7.99-.69-7.1-1.38.05-.03.09-.06.14-.09.15-.09.31-.18.47-.26.09-.04.17-.08.26-.12.09-.04.17-.08.26-.11.17-.07.34-.13.51-.19,3.87-1.31,9.48-.48,5.46,2.15Z" />
  <path class="t" d="m1181.11,25.63H8.61c-7.14,0-7.99-.69-7.1-1.38.05-.03.09-.06.14-.09.15-.09.31-.18.47-.26.09-.04.17-.08.26-.12.09-.04.17-.08.26-.11.17-.07.34-.13.51-.19.78-.29,1.55-.5,1.74-.55.03-.01,73.76-13.94,73.76-13.94,28.06-5.3,56.55-7.97,85.11-7.97h862.2c28.56,0,57.05,2.67,85.11,7.97,0,0,73.73,13.93,73.76,13.94.19.05.96.26,1.74.55.17.06.34.12.51.19.09.03.17.07.26.11.09.04.17.08.26.12.16.08.32.17.47.26.05.03.09.06.14.09.89.69.04,1.38-7.1,1.38Z" />
  <path class="h" d="m1191.64,26.59v127.07c0,1.43-.66,2.75-1.74,3.61h-.01c-11.5,3.64-32.61,4.25-65.41,4.25H67.16c-32.8,0-53.91-.61-65.41-4.25h-.01c-1.08-.86-1.74-2.18-1.74-3.61V26.59c0-.98.6-1.75,1.51-2.34-.89.69-.04,1.38,7.1,1.38h1174.42c7.14,0,7.99-.69,7.1-1.38.91.59,1.51,1.36,1.51,2.34Z" />
  <path class="g" d="m1189.89,157.27c-.37.3-.78.54-1.24.71l-22.99,8.68c-43.54,16.43-89.7,24.86-136.24,24.86H162.22c-46.54,0-92.7-8.43-136.24-24.86l-22.99-8.68c-.46-.17-.87-.41-1.24-.71,11.5,3.64,32.61,4.25,65.41,4.25h1057.32c32.8,0,53.91-.61,65.41-4.25Z" />
  <g>
    <circle class="l" cx="923.79" cy="83.05" r="22.35" />
    <circle class="w" cx="919.5" cy="81.12" r="9.62" />
  </g>
  <g>
    <polygon class="r" points="950.81 124.4 947.81 124.4 947.81 127.07 945.14 127.07 945.14 130.07 947.81 130.07 947.81 132.74 950.81 132.74 950.81 130.07 953.48 130.07 953.48 127.07 950.81 127.07 950.81 124.4" />
    <rect class="r" x="896.02" y="126.83" width="6.44" height="3" />
    <path class="r" d="m949.3,117.5c-5.6,0-10.23,4.17-10.96,9.57h-9.99c-.61-1.8-2.33-3.1-4.35-3.1s-3.73,1.3-4.34,3.1c-.17.47-.26.97-.26,1.5s.09,1.03.25,1.5c.62,1.81,2.33,3.11,4.35,3.11s3.74-1.3,4.36-3.11h9.98c.73,5.4,5.36,9.58,10.96,9.58,6.11,0,11.08-4.97,11.08-11.08s-4.97-11.07-11.08-11.07Zm0,19.15c-4.45,0-8.07-3.62-8.07-8.08s3.62-8.07,8.07-8.07,8.08,3.62,8.08,8.07-3.62,8.08-8.08,8.08Z" />
    <path class="r" d="m924.23,136.67c-4.47,0-8.09-3.62-8.09-8.09,0-.52.05-1.02.15-1.51.03-.23.09-.46.16-.69.96-3.38,4.09-5.88,7.78-5.88,2.62,0,5.09,1.28,6.61,3.43h.01s2.44-1.73,2.44-1.73c-2.08-2.95-5.46-4.7-9.06-4.7-5.6,0-10.23,4.17-10.97,9.57h-3.14c-.74-5.4-5.37-9.57-10.97-9.57-6.11,0-11.08,4.97-11.08,11.07s4.97,11.08,11.08,11.08c5.6,0,10.23-4.18,10.97-9.58h3.14c.74,5.4,5.37,9.58,10.97,9.58,3.25,0,6.33-1.42,8.44-3.9l-2.27-1.94c-1.48,1.75-3.69,2.86-6.17,2.86Zm-25.08-.02c-4.45,0-8.08-3.62-8.08-8.08s3.63-8.07,8.08-8.07,8.08,3.62,8.08,8.07-3.62,8.08-8.08,8.08Z" />
  </g>
  <g>
    <rect class="o" x="328.08" y="46.56" width="509.95" height="80.91" />
    <g>
      <circle class="j" cx="276.12" cy="85.56" r="6.44" />
      <path class="r" d="m276.12,117.19c-.1,0-.2.01-.29.02l.86-1.02-1.53-1.29-3.55,4.19,4.55,2.46.95-1.76-1.08-.59s.06,0,.09,0c3.46,0,6.27,2.81,6.27,6.27s-2.81,6.27-6.27,6.27-6.27-2.81-6.27-6.27h-2c0,4.56,3.71,8.27,8.27,8.27s8.27-3.71,8.27-8.27-3.71-8.27-8.27-8.27Z" />
    </g>
    <g>
      <polygon class="j" points="421.02 84.65 419.04 84.65 419.04 71 398.78 71 398.78 61.09 390.86 61.09 390.86 54.81 367.08 54.81 367.08 61.09 359.37 61.09 359.37 71 339.11 71 339.11 84.65 337.13 84.65 337.13 99.73 339.11 99.73 339.11 113.38 419.04 113.38 419.04 99.73 421.02 99.73 421.02 84.65" />
      <rect class="p" x="402.86" y="56.57" width="19.27" height="8.26" />
      <rect class="k" x="336.03" y="56.57" width="19.27" height="8.26" transform="translate(691.33 121.4) rotate(180)" />
      <polygon class="j" points="523.01 84.65 521.03 84.65 521.03 71 500.77 71 500.77 61.09 492.84 61.09 492.84 54.81 469.06 54.81 469.06 61.09 461.36 61.09 461.36 71 441.1 71 441.1 84.65 439.12 84.65 439.12 99.73 441.1 99.73 441.1 113.38 521.03 113.38 521.03 99.73 523.01 99.73 523.01 84.65" />
      <rect class="p" x="504.84" y="56.57" width="19.27" height="8.26" />
      <rect class="k" x="438.02" y="56.57" width="19.27" height="8.26" transform="translate(895.3 121.4) rotate(180)" />
      <polygon class="j" points="625 84.65 623.02 84.65 623.02 71 602.76 71 602.76 61.09 594.83 61.09 594.83 54.81 571.05 54.81 571.05 61.09 563.35 61.09 563.35 71 543.09 71 543.09 84.65 541.11 84.65 541.11 99.73 543.09 99.73 543.09 113.38 623.02 113.38 623.02 99.73 625 99.73 625 84.65" />
      <rect class="p" x="606.83" y="56.57" width="19.27" height="8.26" />
      <rect class="k" x="540.01" y="56.57" width="19.27" height="8.26" transform="translate(1099.28 121.4) rotate(180)" />
      <polygon class="j" points="726.99 84.65 725.01 84.65 725.01 71 704.75 71 704.75 61.09 696.82 61.09 696.82 54.81 673.04 54.81 673.04 61.09 665.34 61.09 665.34 71 645.08 71 645.08 84.65 643.1 84.65 643.1 99.73 645.08 99.73 645.08 113.38 725.01 113.38 725.01 99.73 726.99 99.73 726.99 84.65" />
      <rect class="p" x="708.82" y="56.57" width="19.27" height="8.26" />
      <rect class="k" x="642" y="56.57" width="19.27" height="8.26" transform="translate(1303.26 121.4) rotate(180)" />
      <polygon class="j" points="828.98 84.65 826.99 84.65 826.99 71 806.74 71 806.74 61.09 798.81 61.09 798.81 54.81 775.03 54.81 775.03 61.09 767.32 61.09 767.32 71 747.07 71 747.07 84.65 745.09 84.65 745.09 99.73 747.07 99.73 747.07 113.38 826.99 113.38 826.99 99.73 828.98 99.73 828.98 84.65" />
      <rect class="p" x="810.81" y="56.57" width="19.27" height="8.26" />
      <rect class="k" x="743.99" y="56.57" width="19.27" height="8.26" transform="translate(1507.24 121.4) rotate(180)" />
    </g>
    <path class="i" d="m737.04,45.56h-409.96v82.92h511.94V45.56h-101.99Zm-307.97,80.92h-99.99V47.56h99.99v78.92Zm101.99,0h-99.99V47.56h99.99v78.92Zm101.99,0h-99.99V47.56h99.99v78.92Zm101.99,0h-99.99V47.56h99.99v78.92Zm101.99,0h-99.99V47.56h99.99v78.92Z" />
    <text class="s" transform="translate(336.83 149.01)"><tspan x="0" y="0">In</tspan><tspan class="u" x="15.2" y="0">t</tspan><tspan class="v" x="21.08" y="0">ernet 1</tspan></text>
    <text class="s" transform="translate(481.06 149.01)"><tspan x="0" y="0">2</tspan></text>
    <text class="s" transform="translate(585.51 149.01)"><tspan x="0" y="0">3</tspan></text>
    <text class="s" transform="translate(693.51 149.01)"><tspan x="0" y="0">4</tspan></text>
    <text class="s" transform="translate(798.4 149.01)"><tspan x="0" y="0">5</tspan></text>
    <polygon class="r" points="794.79 136.34 791.95 141.97 794.58 141.97 791.95 149.01 798.75 140.47 796 140.47 798.4 136.34 794.79 136.34" />
  </g>
  <g>
    <path class="m" d="m202.57,203.3h-31.92c-5.83,0-9.28-1.54-9.28-3.44v-8.33h54.67v5.82c0,3.29-6.22,5.96-13.47,5.96Z" />
    <path class="m" d="m989.07,203.3h31.92c5.83,0,9.28-1.54,9.28-3.44v-8.33h-54.67v5.82c0,3.29,6.22,5.96,13.47,5.96Z" />
  </g>
  <g>
    <g id="e" data-name="logo.cisco">
      <polygon class="q" points="555.42 17.66 548.42 17.66 551.11 13.47 557.57 13.47 555.42 17.66 555.42 17.66" />
      <path class="q" d="m610.16,14.6c-.29-.02-2.51-.21-5.64-.21-4.25,0-7.06.46-6.88,1.09s3.26,1.14,7.83,1.14c3.22,0,5.36-.2,5.65-.23l.63,1.19c-.86.04-3.19.16-6.3.16-7.89,0-14.92-.88-15.11-2.26-.17-1.22,5.46-2.08,13.31-2.08,3.01,0,5.31.11,5.94.14l.57,1.06h0Z" />
      <path class="q" d="m541.33,14.6c-.25-.02-2.2-.21-5.34-.21-4.26,0-7.69.46-8.37,1.09s1.71,1.14,6.29,1.14c3.22,0,5.64-.2,5.95-.23l-.98,1.19c-.9.04-3.4.16-6.53.16-7.87,0-13.7-.88-12.02-2.26,1.48-1.22,8.27-2.08,16.1-2.08,3.05,0,5.18.11,5.77.14l-.87,1.06h0Z" />
      <path class="q" d="m645.76,15.48c1.49,1.22-3.38,2.26-11.91,2.26-8.53,0-15.34-1.04-16.16-2.26s4.23-2.08,12.07-2.08c7.85,0,14.58.91,16,2.08h0Zm-15.06-1.08c-3.89,0-6.4.48-5.91,1.08.5.62,3.92,1.13,7.99,1.13,4.07,0,6.55-.51,5.88-1.13-.65-.6-4.05-1.08-7.95-1.08h0Z" />
      <path class="q" d="m581.99,14.37c-.09,0-2.85-.12-5.11-.12-2.62,0-4.08.13-4.11.33-.05.25,1.88.33,2.96.39l1.83.09c4.31.21,6.29.68,6.3,1.2.02,1.11-6.11,1.49-11.46,1.49-3.73,0-7.16-.11-7.52-.12l.35-1.02c.6.02,3.43.16,6.43.16,3.41,0,5.01-.16,5.04-.41.03-.22-1.3-.34-2.97-.43-.4-.02-1-.05-1.43-.07-3.71-.19-6.71-.53-6.48-1.21.25-.75,3.99-1.23,9.93-1.23,3.13,0,6.08.11,6.27.12l-.02.84h0Z" />
      <path class="q" d="m521.82,9.64c.33-.25-.69-.45-2.29-.45s-3.18.2-3.54.45l-1.43.98c-.39.27.65.48,2.3.48,1.67,0,3.3-.22,3.66-.48l1.31-.98h0Z" />
      <path class="q" d="m539.07,8.41c.23-.24-.84-.43-2.38-.43-1.56,0-3.04.19-3.3.43l-2.46,2.21c-.3.27.82.48,2.49.48s3.22-.22,3.48-.48l2.17-2.21h0Z" />
      <path class="q" d="m555.68,6.84c.14-.22-.96-.4-2.46-.4s-2.85.18-3.02.4l-3.63,4.75c-.21.28,1,.5,2.69.5s3.21-.23,3.39-.5l3.02-4.75h0Z" />
      <path class="q" d="m570.29,8.41c.07-.24-1.14-.43-2.68-.43s-2.9.19-2.99.43l-.91,2.21c-.11.27,1.15.48,2.82.48s3.06-.22,3.14-.48l.63-2.21h0Z" />
      <path class="q" d="m585.96,9.64c-.02-.25-1.31-.45-2.9-.45s-2.9.2-2.92.45l-.06.98c-.02.27,1.32.48,2.98.48s2.98-.22,2.96-.48l-.06-.98h0Z" />
      <path class="q" d="m601.5,8.41c-.1-.24-1.43-.43-2.98-.43-1.55,0-2.75.19-2.68.43l.63,2.21c.08.27,1.48.48,3.14.48s2.92-.22,2.81-.48l-.91-2.21h0Z" />
      <path class="q" d="m615.91,6.84c-.17-.22-1.51-.4-3.02-.4s-2.59.18-2.45.4l3.02,4.75c.18.28,1.71.5,3.38.5s2.9-.23,2.69-.5l-3.63-4.75h0Z" />
      <path class="q" d="m632.74,8.41c-.26-.24-1.74-.43-3.33-.43s-2.62.19-2.38.43l2.17,2.21c.26.27,1.83.48,3.48.48,1.7,0,2.81-.22,2.52-.48l-2.46-2.21h0Z" />
      <path class="q" d="m650.11,9.64c-.37-.25-1.96-.45-3.55-.45-1.59,0-2.61.2-2.28.45l1.31.98c.36.27,1.98.48,3.65.48s2.7-.22,2.31-.48l-1.43-.98h0Z" />
    </g>
    <g id="f" data-name="logo.cisco">
      <polygon class="t" points="555.42 18.23 548.42 18.23 551.11 14.04 557.57 14.04 555.42 18.23 555.42 18.23" />
      <path class="t" d="m610.16,15.18c-.29-.02-2.51-.21-5.64-.21-4.25,0-7.06.46-6.88,1.09s3.26,1.14,7.83,1.14c3.22,0,5.36-.2,5.65-.23l.63,1.19c-.86.04-3.19.16-6.3.16-7.89,0-14.92-.88-15.11-2.26-.17-1.22,5.46-2.08,13.31-2.08,3.01,0,5.31.11,5.94.14l.57,1.06h0Z" />
      <path class="t" d="m541.33,15.18c-.25-.02-2.2-.21-5.34-.21-4.26,0-7.69.46-8.37,1.09s1.71,1.14,6.29,1.14c3.22,0,5.64-.2,5.95-.23l-.98,1.19c-.9.04-3.4.16-6.53.16-7.87,0-13.7-.88-12.02-2.26,1.48-1.22,8.27-2.08,16.1-2.08,3.05,0,5.18.11,5.77.14l-.87,1.06h0Z" />
      <path class="t" d="m645.76,16.05c1.49,1.22-3.38,2.26-11.91,2.26-8.53,0-15.34-1.04-16.16-2.26s4.23-2.08,12.07-2.08c7.85,0,14.58.91,16,2.08h0Zm-15.06-1.08c-3.89,0-6.4.48-5.91,1.08.5.62,3.92,1.13,7.99,1.13,4.07,0,6.55-.51,5.88-1.13-.65-.6-4.05-1.08-7.95-1.08h0Z" />
      <path class="t" d="m581.99,14.94c-.09,0-2.85-.12-5.11-.12-2.62,0-4.08.13-4.11.33-.05.25,1.88.33,2.96.39l1.83.09c4.31.21,6.29.68,6.3,1.2.02,1.11-6.11,1.49-11.46,1.49-3.73,0-7.16-.11-7.52-.12l.35-1.02c.6.02,3.43.16,6.43.16,3.41,0,5.01-.16,5.04-.41.03-.22-1.3-.34-2.97-.43-.4-.02-1-.05-1.43-.07-3.71-.19-6.71-.53-6.48-1.21.25-.75,3.99-1.23,9.93-1.23,3.13,0,6.08.11,6.27.12l-.02.84h0Z" />
      <path class="t" d="m521.82,10.21c.33-.25-.69-.45-2.29-.45s-3.18.2-3.54.45l-1.43.98c-.39.27.65.48,2.3.48s3.3-.22,3.66-.48l1.31-.98h0Z" />
      <path class="t" d="m539.07,8.98c.23-.24-.84-.43-2.38-.43-1.56,0-3.04.19-3.3.43l-2.46,2.21c-.3.27.82.48,2.49.48s3.22-.22,3.48-.48l2.17-2.21h0Z" />
      <path class="t" d="m555.68,7.41c.14-.22-.96-.4-2.46-.4s-2.85.18-3.02.4l-3.63,4.75c-.21.28,1,.5,2.69.5s3.21-.23,3.39-.5l3.02-4.75h0Z" />
      <path class="t" d="m570.29,8.98c.07-.24-1.14-.43-2.68-.43s-2.9.19-2.99.43l-.91,2.21c-.11.27,1.15.48,2.82.48s3.06-.22,3.14-.48l.63-2.21h0Z" />
      <path class="t" d="m585.96,10.21c-.02-.25-1.31-.45-2.9-.45s-2.9.2-2.92.45l-.06.98c-.02.27,1.32.48,2.98.48s2.98-.22,2.96-.48l-.06-.98h0Z" />
      <path class="t" d="m601.5,8.98c-.1-.24-1.43-.43-2.98-.43-1.55,0-2.75.19-2.68.43l.63,2.21c.08.27,1.48.48,3.14.48s2.92-.22,2.81-.48l-.91-2.21h0Z" />
      <path class="t" d="m615.91,7.41c-.17-.22-1.51-.4-3.02-.4s-2.59.18-2.45.4l3.02,4.75c.18.28,1.71.5,3.38.5s2.9-.23,2.69-.5l-3.63-4.75h0Z" />
      <path class="t" d="m632.74,8.98c-.26-.24-1.74-.43-3.33-.43s-2.62.19-2.38.43l2.17,2.21c.26.27,1.83.48,3.48.48,1.7,0,2.81-.22,2.52-.48l-2.46-2.21h0Z" />
      <path class="t" d="m650.11,10.21c-.37-.25-1.96-.45-3.55-.45-1.59,0-2.61.2-2.28.45l1.31.98c.36.27,1.98.48,3.65.48,1.66,0,2.7-.22,2.31-.48l-1.43-.98h0Z" />
    </g>
  </g>
</svg>