<svg id="a" data-name="Layer 1" viewBox="0 0 1344.84 1057.08">
  <defs>
    <style>
      .g {
        fill: url(#c);
      }

      .h {
        fill: url(#b);
      }

      .i {
        fill: #242324;
      }

      .j {
        fill: #231f20;
      }

      .k {
        fill: #0c0f12;
      }

      .l {
        fill: #143221;
      }

      .m {
        fill: #111115;
      }

      .n {
        fill: #1c1816;
      }

      .o {
        fill: #191719;
      }

      .p {
        fill: #1a191a;
      }

      .q {
        fill: #2e2f2f;
      }

      .r {
        fill: #382013;
      }

      .s {
        fill: #393939;
      }

      .t, .u {
        fill: #4d5b5f;
      }

      .v {
        fill: #515051;
      }

      .w {
        fill: #323132;
        stroke: #231f20;
        stroke-miterlimit: 10;
      }

      .x {
        letter-spacing: 0em;
      }

      .y {
        letter-spacing: 0em;
      }

      .z {
        fill: url(#d);
        opacity: .52;
      }

      .u {
        font-family: CiscoSansTT, CiscoSansTT;
        font-size: 18.56px;
      }
    </style>
    <linearGradient id="b" x1="0" y1="946.67" x2="1344.84" y2="946.67" gradientUnits="userSpaceOnUse">
      <stop offset="0" stop-color="#181415" />
      <stop offset="0" stop-color="#5a5f64" />
      <stop offset=".01" stop-color="#52575b" />
      <stop offset=".01" stop-color="#39393c" />
      <stop offset=".02" stop-color="#262426" />
      <stop offset=".02" stop-color="#1b1819" />
      <stop offset=".02" stop-color="#181415" />
      <stop offset=".15" stop-color="#222122" />
      <stop offset=".33" stop-color="#2b2c2e" />
      <stop offset=".51" stop-color="#2f3133" />
      <stop offset=".92" stop-color="#282931" />
      <stop offset=".93" stop-color="#24252b" />
      <stop offset=".95" stop-color="#202023" />
      <stop offset=".99" stop-color="#1f1f21" />
    </linearGradient>
    <linearGradient id="c" x1="672.42" y1="1014.08" x2="672.42" y2="1096.3" gradientUnits="userSpaceOnUse">
      <stop offset="0" stop-color="#64625c" />
      <stop offset="0" stop-color="#5a5853" />
      <stop offset=".03" stop-color="#484845" />
      <stop offset=".05" stop-color="#3e3f3c" />
      <stop offset=".08" stop-color="#3b3c3a" />
      <stop offset=".51" stop-color="#232522" />
      <stop offset=".89" stop-color="#23261f" />
      <stop offset=".92" stop-color="#31342c" />
      <stop offset=".98" stop-color="#565950" />
      <stop offset="1" stop-color="#696b62" />
    </linearGradient>
    <radialGradient id="d" cx="1148.81" cy="-817.35" fx="1148.81" fy="-817.35" r="8.64" gradientTransform="translate(328.44 2101.52) rotate(-24.19) scale(1 .93)" gradientUnits="userSpaceOnUse">
      <stop offset=".14" stop-color="#fff" />
      <stop offset="1" stop-color="#000" />
    </radialGradient>
  </defs>
  <path class="o" d="m85.21,879.41c-7.14,0-7.99-.69-7.1-1.38.05-.03.09-.06.14-.09.15-.09.31-.18.47-.26.09-.04.17-.08.26-.12.09-.04.17-.08.26-.11.17-.07.34-.13.51-.19,3.87-1.31,9.48-.48,5.46,2.15Z" />
  <path class="v" d="m1332.96,879.41H9.72c-8.06,0-9.02-.69-8.01-1.38.06-.03.1-.06.16-.09.17-.09.35-.18.53-.26.1-.04.19-.08.29-.12.1-.04.19-.08.29-.11.19-.07.38-.13.58-.19.88-.29,1.75-.5,1.96-.55.03-.01,83.24-13.94,83.24-13.94,31.67-5.3,63.82-7.97,96.05-7.97h973.05c32.23,0,64.38,2.67,96.05,7.97,0,0,83.21,13.93,83.24,13.94.21.05,1.08.26,1.96.55.19.06.38.12.58.19.1.03.19.07.29.11.1.04.19.08.29.12.18.08.36.17.53.26.06.03.1.06.16.09,1,.69.05,1.38-8.01,1.38Z" />
  <path class="h" d="m1344.84,880.37v127.07c0,1.43-.74,2.75-1.96,3.61h-.01c-12.98,3.64-36.8,4.25-73.82,4.25H75.79c-37.02,0-60.84-.61-73.82-4.25h-.01c-1.22-.86-1.96-2.18-1.96-3.61v-127.07c0-.98.68-1.75,1.7-2.34-1,.69-.05,1.38,8.01,1.38h1325.41c8.06,0,9.02-.69,8.01-1.38,1.03.59,1.7,1.36,1.7,2.34Z" />
  <path class="g" d="m1342.87,1011.05c-.42.3-.88.54-1.4.71l-25.95,8.68c-49.14,16.43-101.23,24.86-153.76,24.86H183.08c-52.52,0-104.62-8.43-153.76-24.86l-25.95-8.68c-.52-.17-.98-.41-1.4-.71,12.98,3.64,36.8,4.25,73.82,4.25h1193.25c37.02,0,60.84-.61,73.82-4.25Z" />
  <g>
    <circle class="m" cx="1067.63" cy="936.83" r="22.35" />
    <circle class="z" cx="1063.34" cy="934.9" r="9.62" />
  </g>
  <g>
    <polygon class="t" points="1094.65 978.19 1091.65 978.19 1091.65 980.86 1088.98 980.86 1088.98 983.86 1091.65 983.86 1091.65 986.53 1094.65 986.53 1094.65 983.86 1097.32 983.86 1097.32 980.86 1094.65 980.86 1094.65 978.19" />
    <rect class="t" x="1039.86" y="980.61" width="6.44" height="3" />
    <path class="t" d="m1093.14,971.28c-5.6,0-10.23,4.17-10.96,9.57h-9.99c-.61-1.8-2.33-3.1-4.35-3.1s-3.73,1.3-4.34,3.1c-.17.47-.26.97-.26,1.5s.09,1.03.25,1.5c.62,1.81,2.33,3.11,4.35,3.11s3.74-1.3,4.36-3.11h9.98c.73,5.4,5.36,9.58,10.96,9.58,6.11,0,11.08-4.97,11.08-11.08s-4.97-11.07-11.08-11.07Zm0,19.15c-4.45,0-8.07-3.62-8.07-8.08s3.62-8.07,8.07-8.07,8.08,3.62,8.08,8.07-3.62,8.08-8.08,8.08Z" />
    <path class="t" d="m1068.07,990.45c-4.47,0-8.09-3.62-8.09-8.09,0-.52.05-1.02.15-1.51.03-.23.09-.46.16-.69.96-3.38,4.09-5.88,7.78-5.88,2.62,0,5.09,1.28,6.61,3.43h.01s2.44-1.73,2.44-1.73c-2.08-2.95-5.46-4.7-9.06-4.7-5.6,0-10.23,4.17-10.97,9.57h-3.14c-.74-5.4-5.37-9.57-10.97-9.57-6.11,0-11.08,4.97-11.08,11.07s4.97,11.08,11.08,11.08c5.6,0,10.23-4.18,10.97-9.58h3.14c.74,5.4,5.37,9.58,10.97,9.58,3.25,0,6.33-1.42,8.44-3.9l-2.27-1.94c-1.48,1.75-3.69,2.86-6.17,2.86Zm-25.08-.02c-4.45,0-8.08-3.62-8.08-8.08s3.63-8.07,8.08-8.07,8.08,3.62,8.08,8.07-3.62,8.08-8.08,8.08Z" />
  </g>
  <g>
    <rect class="q" x="493.24" y="900.34" width="509.95" height="80.91" />
    <g>
      <circle class="k" cx="438.84" cy="939.35" r="6.44" />
      <path class="t" d="m438.84,970.97c-.1,0-.2.01-.29.02l.86-1.02-1.53-1.29-3.55,4.19,4.55,2.46.95-1.76-1.08-.59s.06,0,.09,0c3.46,0,6.27,2.81,6.27,6.27s-2.81,6.27-6.27,6.27-6.27-2.81-6.27-6.27h-2c0,4.56,3.71,8.27,8.27,8.27s8.27-3.71,8.27-8.27-3.71-8.27-8.27-8.27Z" />
    </g>
    <g>
      <polygon class="k" points="586.18 938.43 584.2 938.43 584.2 924.78 563.94 924.78 563.94 914.87 556.01 914.87 556.01 908.6 532.23 908.6 532.23 914.87 524.53 914.87 524.53 924.78 504.27 924.78 504.27 938.43 502.29 938.43 502.29 953.51 504.27 953.51 504.27 967.16 584.2 967.16 584.2 953.51 586.18 953.51 586.18 938.43" />
      <rect class="r" x="568.01" y="910.36" width="19.27" height="8.26" />
      <rect class="l" x="501.19" y="910.36" width="19.27" height="8.26" transform="translate(1021.64 1828.97) rotate(180)" />
      <polygon class="k" points="688.17 938.43 686.19 938.43 686.19 924.78 665.93 924.78 665.93 914.87 658 914.87 658 908.6 634.22 908.6 634.22 914.87 626.52 914.87 626.52 924.78 606.26 924.78 606.26 938.43 604.28 938.43 604.28 953.51 606.26 953.51 606.26 967.16 686.19 967.16 686.19 953.51 688.17 953.51 688.17 938.43" />
      <rect class="r" x="670" y="910.36" width="19.27" height="8.26" />
      <rect class="l" x="603.18" y="910.36" width="19.27" height="8.26" transform="translate(1225.62 1828.97) rotate(180)" />
      <polygon class="k" points="790.16 938.43 788.18 938.43 788.18 924.78 767.92 924.78 767.92 914.87 759.99 914.87 759.99 908.6 736.21 908.6 736.21 914.87 728.51 914.87 728.51 924.78 708.25 924.78 708.25 938.43 706.27 938.43 706.27 953.51 708.25 953.51 708.25 967.16 788.18 967.16 788.18 953.51 790.16 953.51 790.16 938.43" />
      <rect class="r" x="771.99" y="910.36" width="19.27" height="8.26" />
      <rect class="l" x="705.17" y="910.36" width="19.27" height="8.26" transform="translate(1429.6 1828.97) rotate(180)" />
      <polygon class="k" points="892.15 938.43 890.16 938.43 890.16 924.78 869.91 924.78 869.91 914.87 861.98 914.87 861.98 908.6 838.2 908.6 838.2 914.87 830.49 914.87 830.49 924.78 810.24 924.78 810.24 938.43 808.26 938.43 808.26 953.51 810.24 953.51 810.24 967.16 890.16 967.16 890.16 953.51 892.15 953.51 892.15 938.43" />
      <rect class="r" x="873.98" y="910.36" width="19.27" height="8.26" />
      <rect class="l" x="807.16" y="910.36" width="19.27" height="8.26" transform="translate(1633.58 1828.97) rotate(180)" />
      <polygon class="k" points="994.13 938.43 992.15 938.43 992.15 924.78 971.9 924.78 971.9 914.87 963.97 914.87 963.97 908.6 940.19 908.6 940.19 914.87 932.48 914.87 932.48 924.78 912.23 924.78 912.23 938.43 910.24 938.43 910.24 953.51 912.23 953.51 912.23 967.16 992.15 967.16 992.15 953.51 994.13 953.51 994.13 938.43" />
      <rect class="r" x="975.97" y="910.36" width="19.27" height="8.26" />
      <rect class="l" x="909.14" y="910.36" width="19.27" height="8.26" transform="translate(1837.55 1828.97) rotate(180)" />
    </g>
    <path class="j" d="m902.2,899.34h-409.96v82.92h511.94v-82.92h-101.99Zm-307.97,80.92h-99.99v-78.92h99.99v78.92Zm101.99,0h-99.99v-78.92h99.99v78.92Zm101.99,0h-99.99v-78.92h99.99v78.92Zm101.99,0h-99.99v-78.92h99.99v78.92Zm101.99,0h-99.99v-78.92h99.99v78.92Z" />
    <text class="u" transform="translate(501.99 1002.79)"><tspan x="0" y="0">In</tspan><tspan class="x" x="15.2" y="0">t</tspan><tspan class="y" x="21.08" y="0">ernet 1</tspan></text>
    <text class="u" transform="translate(646.22 1002.79)"><tspan x="0" y="0">2</tspan></text>
    <text class="u" transform="translate(750.67 1002.79)"><tspan x="0" y="0">3</tspan></text>
    <text class="u" transform="translate(858.67 1002.79)"><tspan x="0" y="0">4</tspan></text>
    <text class="u" transform="translate(963.56 1002.79)"><tspan x="0" y="0">5</tspan></text>
    <polygon class="t" points="959.95 990.13 957.11 995.75 959.74 995.75 957.11 1002.79 963.91 994.25 961.16 994.25 963.56 990.13 959.95 990.13" />
  </g>
  <g>
    <path class="n" d="m228.61,1057.08h-36.02c-6.58,0-10.47-1.54-10.47-3.44v-8.33h61.69v5.82c0,3.29-7.02,5.96-15.2,5.96Z" />
    <path class="n" d="m1116.23,1057.08h36.02c6.58,0,10.47-1.54,10.47-3.44v-8.33h-61.69v5.82c0,3.29,7.02,5.96,15.2,5.96Z" />
  </g>
  <g>
    <g id="e" data-name="logo.cisco">
      <polygon class="s" points="632.02 871.44 625.02 871.44 627.71 867.26 634.17 867.26 632.02 871.44 632.02 871.44" />
      <path class="s" d="m686.76,868.39c-.29-.02-2.51-.21-5.64-.21-4.25,0-7.06.46-6.88,1.09s3.26,1.14,7.83,1.14c3.22,0,5.36-.2,5.65-.23l.63,1.19c-.86.04-3.19.16-6.3.16-7.89,0-14.92-.88-15.11-2.26-.17-1.22,5.46-2.08,13.31-2.08,3.01,0,5.31.11,5.94.14l.57,1.06h0Z" />
      <path class="s" d="m617.93,868.39c-.25-.02-2.2-.21-5.34-.21-4.26,0-7.69.46-8.37,1.09s1.71,1.14,6.29,1.14c3.22,0,5.64-.2,5.95-.23l-.98,1.19c-.9.04-3.4.16-6.53.16-7.87,0-13.7-.88-12.02-2.26,1.48-1.22,8.27-2.08,16.1-2.08,3.05,0,5.18.11,5.77.14l-.87,1.06h0Z" />
      <path class="s" d="m722.36,869.26c1.49,1.22-3.38,2.26-11.91,2.26-8.53,0-15.34-1.04-16.16-2.26s4.23-2.08,12.07-2.08c7.85,0,14.58.91,16,2.08h0Zm-15.06-1.08c-3.89,0-6.4.48-5.91,1.08.5.62,3.92,1.13,7.99,1.13,4.07,0,6.55-.51,5.88-1.13-.65-.6-4.05-1.08-7.95-1.08h0Z" />
      <path class="s" d="m658.59,868.15c-.09,0-2.85-.12-5.11-.12-2.62,0-4.08.13-4.11.33-.05.25,1.88.33,2.96.39l1.83.09c4.31.21,6.29.68,6.3,1.2.02,1.11-6.11,1.49-11.46,1.49-3.73,0-7.16-.11-7.52-.12l.35-1.02c.6.02,3.43.16,6.43.16,3.41,0,5.01-.16,5.04-.41.03-.22-1.3-.34-2.97-.43-.4-.02-1-.05-1.43-.07-3.71-.19-6.71-.53-6.48-1.21.25-.75,3.99-1.23,9.93-1.23,3.13,0,6.08.11,6.27.12l-.02.84h0Z" />
      <path class="s" d="m598.43,863.42c.33-.25-.69-.45-2.29-.45s-3.18.2-3.54.45l-1.43.98c-.39.27.65.48,2.3.48,1.67,0,3.3-.22,3.66-.48l1.31-.98h0Z" />
      <path class="s" d="m615.67,862.2c.23-.24-.84-.43-2.38-.43-1.56,0-3.04.19-3.3.43l-2.46,2.21c-.3.27.82.48,2.49.48s3.22-.22,3.48-.48l2.17-2.21h0Z" />
      <path class="s" d="m632.28,860.62c.14-.22-.96-.4-2.46-.4s-2.85.18-3.02.4l-3.63,4.75c-.21.28,1,.5,2.69.5s3.21-.23,3.39-.5l3.02-4.75h0Z" />
      <path class="s" d="m646.89,862.2c.07-.24-1.14-.43-2.68-.43s-2.9.19-2.99.43l-.91,2.21c-.11.27,1.15.48,2.82.48s3.06-.22,3.14-.48l.63-2.21h0Z" />
      <path class="s" d="m662.56,863.42c-.02-.25-1.31-.45-2.9-.45s-2.9.2-2.92.45l-.06.98c-.02.27,1.32.48,2.98.48s2.98-.22,2.96-.48l-.06-.98h0Z" />
      <path class="s" d="m678.1,862.2c-.1-.24-1.43-.43-2.98-.43-1.55,0-2.75.19-2.68.43l.63,2.21c.08.27,1.48.48,3.14.48s2.92-.22,2.81-.48l-.91-2.21h0Z" />
      <path class="s" d="m692.51,860.62c-.17-.22-1.51-.4-3.02-.4s-2.59.18-2.45.4l3.02,4.75c.18.28,1.71.5,3.38.5s2.9-.23,2.69-.5l-3.63-4.75h0Z" />
      <path class="s" d="m709.34,862.2c-.26-.24-1.74-.43-3.33-.43s-2.62.19-2.38.43l2.17,2.21c.26.27,1.83.48,3.48.48,1.7,0,2.81-.22,2.52-.48l-2.46-2.21h0Z" />
      <path class="s" d="m726.72,863.42c-.37-.25-1.96-.45-3.55-.45-1.59,0-2.61.2-2.28.45l1.31.98c.36.27,1.98.48,3.65.48s2.7-.22,2.31-.48l-1.43-.98h0Z" />
    </g>
    <g id="f" data-name="logo.cisco">
      <polygon class="v" points="632.02 872.02 625.02 872.02 627.71 867.83 634.17 867.83 632.02 872.02 632.02 872.02" />
      <path class="v" d="m686.76,868.96c-.29-.02-2.51-.21-5.64-.21-4.25,0-7.06.46-6.88,1.09s3.26,1.14,7.83,1.14c3.22,0,5.36-.2,5.65-.23l.63,1.19c-.86.04-3.19.16-6.3.16-7.89,0-14.92-.88-15.11-2.26-.17-1.22,5.46-2.08,13.31-2.08,3.01,0,5.31.11,5.94.14l.57,1.06h0Z" />
      <path class="v" d="m617.93,868.96c-.25-.02-2.2-.21-5.34-.21-4.26,0-7.69.46-8.37,1.09s1.71,1.14,6.29,1.14c3.22,0,5.64-.2,5.95-.23l-.98,1.19c-.9.04-3.4.16-6.53.16-7.87,0-13.7-.88-12.02-2.26,1.48-1.22,8.27-2.08,16.1-2.08,3.05,0,5.18.11,5.77.14l-.87,1.06h0Z" />
      <path class="v" d="m722.36,869.84c1.49,1.22-3.38,2.26-11.91,2.26-8.53,0-15.34-1.04-16.16-2.26s4.23-2.08,12.07-2.08c7.85,0,14.58.91,16,2.08h0Zm-15.06-1.08c-3.89,0-6.4.48-5.91,1.08.5.62,3.92,1.13,7.99,1.13,4.07,0,6.55-.51,5.88-1.13-.65-.6-4.05-1.08-7.95-1.08h0Z" />
      <path class="v" d="m658.59,868.72c-.09,0-2.85-.12-5.11-.12-2.62,0-4.08.13-4.11.33-.05.25,1.88.33,2.96.39l1.83.09c4.31.21,6.29.68,6.3,1.2.02,1.11-6.11,1.49-11.46,1.49-3.73,0-7.16-.11-7.52-.12l.35-1.02c.6.02,3.43.16,6.43.16,3.41,0,5.01-.16,5.04-.41.03-.22-1.3-.34-2.97-.43-.4-.02-1-.05-1.43-.07-3.71-.19-6.71-.53-6.48-1.21.25-.75,3.99-1.23,9.93-1.23,3.13,0,6.08.11,6.27.12l-.02.84h0Z" />
      <path class="v" d="m598.43,863.99c.33-.25-.69-.45-2.29-.45s-3.18.2-3.54.45l-1.43.98c-.39.27.65.48,2.3.48s3.3-.22,3.66-.48l1.31-.98h0Z" />
      <path class="v" d="m615.67,862.77c.23-.24-.84-.43-2.38-.43-1.56,0-3.04.19-3.3.43l-2.46,2.21c-.3.27.82.48,2.49.48s3.22-.22,3.48-.48l2.17-2.21h0Z" />
      <path class="v" d="m632.28,861.19c.14-.22-.96-.4-2.46-.4s-2.85.18-3.02.4l-3.63,4.75c-.21.28,1,.5,2.69.5s3.21-.23,3.39-.5l3.02-4.75h0Z" />
      <path class="v" d="m646.89,862.77c.07-.24-1.14-.43-2.68-.43s-2.9.19-2.99.43l-.91,2.21c-.11.27,1.15.48,2.82.48s3.06-.22,3.14-.48l.63-2.21h0Z" />
      <path class="v" d="m662.56,863.99c-.02-.25-1.31-.45-2.9-.45s-2.9.2-2.92.45l-.06.98c-.02.27,1.32.48,2.98.48s2.98-.22,2.96-.48l-.06-.98h0Z" />
      <path class="v" d="m678.1,862.77c-.1-.24-1.43-.43-2.98-.43-1.55,0-2.75.19-2.68.43l.63,2.21c.08.27,1.48.48,3.14.48s2.92-.22,2.81-.48l-.91-2.21h0Z" />
      <path class="v" d="m692.51,861.19c-.17-.22-1.51-.4-3.02-.4s-2.59.18-2.45.4l3.02,4.75c.18.28,1.71.5,3.38.5s2.9-.23,2.69-.5l-3.63-4.75h0Z" />
      <path class="v" d="m709.34,862.77c-.26-.24-1.74-.43-3.33-.43s-2.62.19-2.38.43l2.17,2.21c.26.27,1.83.48,3.48.48,1.7,0,2.81-.22,2.52-.48l-2.46-2.21h0Z" />
      <path class="v" d="m726.72,863.99c-.37-.25-1.96-.45-3.55-.45-1.59,0-2.61.2-2.28.45l1.31.98c.36.27,1.98.48,3.65.48,1.66,0,2.7-.22,2.31-.48l-1.43-.98h0Z" />
    </g>
  </g>
  <g>
    <rect class="w" x="293.1" y="930.39" width="90.83" height="19.49" rx="9.74" ry="9.74" />
    <circle class="k" cx="304.03" cy="940.13" r="5.06" />
    <path class="t" d="m340.64,968.21h-9.87v19.77h15.48v-14.16c0-3.1-2.52-5.61-5.61-5.61Zm4.61,18.77h-13.48v-17.77h8.87c2.54,0,4.61,2.06,4.61,4.61v13.16Z" />
    <path class="t" d="m336.44,977.89v4.47h4.58v-4.47h-4.58Zm3.58,3.47h-2.58v-2.47h2.58v2.47Z" />
  </g>
  <g>
    <g>
      <circle class="i" cx="1209.51" cy="946" r="36.17" />
      <circle class="p" cx="1209.51" cy="946" r="27.39" />
      <g>
        <path class="p" d="m1256.43,2.5h-25.41c-2.47,0-4.5,1.96-4.57,4.44l-28.75,972.63c-.16,5.35,4.13,9.77,9.48,9.77h10.76c4.43,0,8.75-1.36,12.39-3.9l4.66-3.25c1.27-.89,2.98-.76,4.11.29l4.77,4.44c2.01,1.87,4.66,2.92,7.41,2.92h10.61c3.51,0,6.36-2.84,6.36-6.36-.04-54.67-.38-446.83-1.63-583.51-.91-98.67-5.61-392.99-5.61-392.99-.05-2.49-2.08-4.49-4.57-4.49Z" />
        <path class="v" d="m1199.08,984.77c1.66,2.73,4.66,4.56,8.1,4.56h10.76c4.43,0,8.75-1.36,12.38-3.89l4.67-3.26c1.26-.88,2.98-.76,4.11.29l4.76,4.45c2.02,1.87,4.66,2.91,7.41,2.91h10.61c.72,0,1.41-.12,2.05-.35l-19.38-20.94c-4.17-4.52-11.35-4.35-15.32.35-7.8,9.25-20.52,21.34-30.15,15.88Z" />
        <path class="v" d="m1227.99,3.65l8.14,4.54c.95.53,2.03.81,3.12.81h11.42c1.65,0,3.24-.64,4.43-1.79l4-3.84c-.75-.55-1.68-.87-2.68-.87h-25.41c-1.16,0-2.22.43-3.02,1.15Z" />
      </g>
    </g>
    <g>
      <circle class="i" cx="186.64" cy="946" r="36.17" />
      <circle class="p" cx="186.64" cy="946" r="27.39" />
      <g>
        <path class="p" d="m139.73,2.5h25.41c2.47,0,4.5,1.96,4.57,4.44l28.75,972.63c.16,5.35-4.13,9.77-9.48,9.77h-10.76c-4.43,0-8.75-1.36-12.39-3.9l-4.66-3.25c-1.27-.89-2.98-.76-4.11.29l-4.77,4.44c-2.01,1.87-4.66,2.92-7.41,2.92h-10.61c-3.51,0-6.36-2.84-6.36-6.36.04-54.67.38-446.83,1.63-583.51.91-98.67,5.61-392.99,5.61-392.99.05-2.49,2.08-4.49,4.57-4.49Z" />
        <path class="v" d="m197.07,984.77c-1.66,2.73-4.66,4.56-8.1,4.56h-10.76c-4.43,0-8.75-1.36-12.38-3.89l-4.67-3.26c-1.26-.88-2.98-.76-4.11.29l-4.76,4.45c-2.02,1.87-4.66,2.91-7.41,2.91h-10.61c-.72,0-1.41-.12-2.05-.35l19.38-20.94c4.17-4.52,11.35-4.35,15.32.35,7.8,9.25,20.52,21.34,30.15,15.88Z" />
        <path class="v" d="m168.16,3.65l-8.14,4.54c-.95.53-2.03.81-3.12.81h-11.42c-1.65,0-3.24-.64-4.43-1.79l-4-3.84c.75-.55,1.68-.87,2.68-.87h25.41c1.16,0,2.22.43,3.02,1.15Z" />
      </g>
    </g>
  </g>
</svg>