<svg viewBox="0 0 427.8 783.78"><defs><style>.a{fill:#858384;}.b{fill:#cecbcc;}.c{fill:#d7d5d4;}.d{fill:url(#a);}.e{fill:#b8b5b5;}.f{fill:url(#b);}.g{fill:#fdfbfd;}.h{fill:url(#c);}.i{fill:#cbcad1;}.j{fill:#0e0e0d;}.k{fill:url(#d);}.l{fill:#0c0d0d;}.m{fill:#1c1c1d;}.n{fill:url(#e);}.o{fill:#0d0e0d;}.p{fill:#252525;}.q{fill:#4a494b;}.r{fill:#050505;}.s{fill:#cfcbca;}.t{fill:#bdbdc1;}</style><linearGradient id="a" x1="141.9" y1="599.46" x2="150.24" y2="663.13" gradientUnits="userSpaceOnUse"><stop offset="0" stop-color="#646565" /><stop offset="0.34" stop-color="#686969" /><stop offset="0.71" stop-color="#767576" /><stop offset="1" stop-color="#858384" /></linearGradient><linearGradient id="b" x1="246.46" y1="522.27" x2="318.46" y2="489.27" href="#a" /><radialGradient id="c" cx="217.33" cy="204.44" r="198.91" gradientUnits="userSpaceOnUse"><stop offset="0" stop-color="#47484e" /><stop offset="0.81" stop-color="#4a494b" /><stop offset="0.85" stop-color="#403f41" /><stop offset="0.93" stop-color="#343333" /><stop offset="1" stop-color="#302f2f" /></radialGradient><linearGradient id="d" x1="217.33" y1="118" x2="217.33" y2="259.72" gradientUnits="userSpaceOnUse"><stop offset="0" stop-color="#fff" /><stop offset="1" /></linearGradient><linearGradient id="e" x1="217.33" y1="280.67" x2="217.33" y2="160.56" href="#d" /></defs><path class="a" d="M249.11,596h44l-2.29,36.68a10,10,0,0,1-8.26,9.21l-17.77,3.05a4.28,4.28,0,0,1-4.59-3.23Z" /><path class="b" d="M380.62,666.67a363.43,363.43,0,0,1-5,39.7c-.08.39-.15.78-.22,1.18-2.59,13.56-6.34,27.65-11.71,37.34-21.55,38.89-118,38.89-158.84,38.89s-137.11,0-158.66-38.89c-5.36-9.66-9.11-23.72-11.69-37.25-.07-.39-.15-.78-.22-1.17a362.15,362.15,0,0,1-5-39.8Z" /><ellipse class="a" cx="204.89" cy="666.67" rx="175.56" ry="21.33" /><path class="a" d="M375.66,706.37c-.08.39-.15.78-.22,1.18-19.32,9.47-87.33,16.28-170.55,16.28-82.94,0-150.79-6.77-170.35-16.19-.07-.39-.15-.78-.22-1.17,17,8.53,81.31,16.36,170.57,16.36C294.49,722.83,358.92,715,375.66,706.37Z" /><path class="c" d="M418.51,219.67c.76,111.07-81.05,196.81-197,203.86C108.74,430.39,9.29,332.58,9.29,219.67S100.9,15.22,213.9,15.22,417.74,106.76,418.51,219.67Z" /><path class="d" d="M264,604.33v42.24c-31.95-.4-120.89,3.21-156,11.21-15.6,3.56-28.49,14.05-39.28,22.35-19.19-2.87-32.38-6.35-37.25-10.17a4.63,4.63,0,0,1-2.08-3.29C26,647.21,33.8,626.81,36.84,616c4-14.22,59.55-21.78,96-23.33s124.44,0,124.44,0Z" /><path class="e" d="M265.33,598.82v43h22.18A26.31,26.31,0,0,0,301,638c19.54-11.71,74.55-51.5,74.55-128.25,0-93.34-33.78-130.67-70.67-154.67s-68,13.33-68,13.33L252.44,400s80.92,15.36,74.23,104.89c-4.87,65.15-45.07,84.24-57.61,88.64A5.61,5.61,0,0,0,265.33,598.82Z" /><path class="f" d="M332,510.67c-7.19,55.63-31.79,76.44-55.42,87.77a3.34,3.34,0,0,0-1.91,3v40.33h-9.33v-44.6a3.33,3.33,0,0,1,2.32-3.17c10.59-3.39,53.94-21.3,59-89.12,5.71-76.39-52.36-98.79-69.53-103.71l.59-16.51C314.38,418.84,339.59,451.87,332,510.67Z" /><ellipse class="g" cx="213.9" cy="204.44" rx="213.9" ry="204.44" /><ellipse class="h" cx="217.33" cy="204.44" rx="201.78" ry="196" /><path class="i" d="M31.83,194.94c-4-51.28,20.86-99.92,60.38-131.8,16.19-13.33,34.92-23.5,54.54-30.87A192.23,192.23,0,0,1,181.51,23c70.75-12.86,148.9,13.54,191.83,72.44,21,28.48,32.36,64.12,29.49,99.49-1.27-97.21-92.72-166-185.5-164.72C124.85,28.76,32.86,98,31.83,194.94Z" /><ellipse class="j" cx="217.33" cy="204.44" rx="156.86" ry="148.44" /><ellipse class="k" cx="217.33" cy="189.78" rx="76.08" ry="72" /><ellipse class="l" cx="217.33" cy="189.78" rx="69.51" ry="65.78" /><ellipse class="m" cx="217.33" cy="189.78" rx="50.72" ry="48" /><ellipse class="n" cx="217.33" cy="189.78" rx="40.39" ry="38.22" /><ellipse class="o" cx="217.33" cy="189.78" rx="31.58" ry="29.89" /><ellipse class="p" cx="217.33" cy="192.94" rx="15.44" ry="14.61" /><path class="q" d="M342.67,294.68c-7,18.49-26.38,32-47.86,41.64a189.41,189.41,0,0,1-154.94,0C118.38,326.68,99,313.18,92,294.68c-2.78-7.36-2.22-23.56,24.45-15.56s74.22,15.56,100.89,15.56,74.22-7.56,100.89-15.56S345.45,287.32,342.67,294.68Z" /><circle class="r" cx="217.33" cy="314.92" r="5.53" /><path class="s" d="M249.07,645.22c-32.18-.64-64.4-.15-96.51,1.9-16,1-32,2-47.76,4.71a63.89,63.89,0,0,0-9.34,2.28,32.21,32.21,0,0,1,4.32-2.26c1.21-.59,3.25-1.33,4.55-1.8A137,137,0,0,1,133,644.48c12.88-1.29,25.8-1.85,38.73-2,25.77-.09,51.66.55,77.34,2.72Z" /><path class="s" d="M245.12,603.78c-29.37,1.16-59.05,2.88-88.26,6.1-14.61,1.7-29.13,3.9-43.44,6.68-10.66,2.05-21.3,4.65-31.16,9.23a46.16,46.16,0,0,0-9.37,5.54,14.18,14.18,0,0,1,2.54-5.66c10.65-14.47,41.91-17,58.72-19,36.83-3.85,74-4.24,111-2.91Z" /><path class="t" d="M201.59,69.39l-.23,15.73a1.65,1.65,0,0,1-1.82,1.37,1.54,1.54,0,0,1-1.49-1.37l.28-15.73a1.65,1.65,0,0,1,3.27-.26A1.13,1.13,0,0,1,201.59,69.39Z" /><path class="t" d="M210.24,75.08,210.19,82a1.67,1.67,0,0,1-2,1.19A1.56,1.56,0,0,1,206.94,82l.07-6.94a1.62,1.62,0,0,1,1.79-1.34,1.56,1.56,0,0,1,1.49,1.34Z" /><path class="t" d="M219,79V82a1.67,1.67,0,0,1-3.32,0V79A1.65,1.65,0,0,1,219,79Z" /><path class="t" d="M192.77,75.08,192.61,82a1.67,1.67,0,0,1-1.83,1.37A1.54,1.54,0,0,1,189.3,82l.19-6.94a1.65,1.65,0,0,1,1.81-1.34A1.53,1.53,0,0,1,192.77,75.08Z" /><path class="t" d="M183.92,79l-.1,3.07A1.69,1.69,0,0,1,182,83.39,1.52,1.52,0,0,1,180.52,82l.1-3.07a1.62,1.62,0,0,1,1.56-1.62,1.55,1.55,0,0,1,1.74,1.36A1.13,1.13,0,0,1,183.92,79Z" /><path class="t" d="M236.34,69.39l.28,15.73a1.54,1.54,0,0,1-1.62,1.5,1.61,1.61,0,0,1-1.68-1.5l-.24-15.73a1.52,1.52,0,0,1,1.61-1.45A1.59,1.59,0,0,1,236.34,69.39Z" /><path class="t" d="M227.71,75.08l.07,6.94a1.68,1.68,0,0,1-3.3,0l0-6.94a1.67,1.67,0,0,1,3.28,0Z" /><path class="t" d="M245.18,75.08l.18,6.94a1.56,1.56,0,0,1-1.76,1.37A1.65,1.65,0,0,1,242.06,82l-.16-6.94a1.56,1.56,0,0,1,1.75-1.34A1.62,1.62,0,0,1,245.18,75.08Z" /><path class="t" d="M254,79l.11,3.07a1.55,1.55,0,0,1-1.75,1.37A1.66,1.66,0,0,1,250.85,82l-.1-3.07a1.5,1.5,0,0,1,1.45-1.62A1.69,1.69,0,0,1,254,78.69,1.13,1.13,0,0,1,254,79Z" /><path class="t" d="M193.83,97.11c1.93,0,3-.78,3.26-2.32h3.37a4.44,4.44,0,0,1-2.39,3.12,9.43,9.43,0,0,1-4.42.9,7,7,0,0,1-4.89-1.54,4.43,4.43,0,0,1-1.33-3.84,5,5,0,0,1,2.4-4,8.74,8.74,0,0,1,4.71-1.13,8,8,0,0,1,4.26,1,3.51,3.51,0,0,1,1.72,2.44h-3.29c-.29-1.23-1.22-1.84-2.81-1.84a3.36,3.36,0,0,0-2.54,1,4.15,4.15,0,0,0-1,2.62,3.54,3.54,0,0,0,.84,3A3,3,0,0,0,193.83,97.11Z" /><path class="t" d="M202.63,88.46h3.26l-.37,10.13h-3.35Z" /><path class="t" d="M213.59,98.81a8.74,8.74,0,0,1-4.55-1,3.23,3.23,0,0,1-1.63-2.25h3.15a1.7,1.7,0,0,0,1,1.17,4.64,4.64,0,0,0,2.08.4c1.77,0,2.67-.4,2.67-1.19,0-.5-.38-.88-1.14-1.15a16.26,16.26,0,0,0-2.4-.52,10.58,10.58,0,0,1-3.45-1,2.29,2.29,0,0,1-1.27-2.12,2.45,2.45,0,0,1,1.67-2.19,9.8,9.8,0,0,1,4-.67,8.21,8.21,0,0,1,4,.82A2.84,2.84,0,0,1,219.29,91h-3.06a1.29,1.29,0,0,0-.91-.91,4.58,4.58,0,0,0-1.68-.27c-1.5,0-2.26.34-2.27,1a.87.87,0,0,0,.57.84,10.09,10.09,0,0,0,2.26.54,11.71,11.71,0,0,1,3.94,1.15A2.46,2.46,0,0,1,218,98,9.62,9.62,0,0,1,213.59,98.81Z" /><path class="t" d="M227.59,97.11c1.93,0,2.94-.78,3-2.32H234a3.93,3.93,0,0,1-2.09,3.12,9,9,0,0,1-4.34.9,7.58,7.58,0,0,1-5-1.54,4.82,4.82,0,0,1-1.7-3.84,4.47,4.47,0,0,1,2-4,8.17,8.17,0,0,1,4.59-1.13,8.54,8.54,0,0,1,4.37,1,4,4,0,0,1,1.95,2.44h-3.29c-.4-1.23-1.4-1.84-3-1.84a3.09,3.09,0,0,0-2.46,1,4.68,4.68,0,0,0,.37,5.58A3.28,3.28,0,0,0,227.59,97.11Z" /><path class="t" d="M242.32,98.81a8.84,8.84,0,0,1-5.17-1.37,4.88,4.88,0,0,1-2.13-4,4.27,4.27,0,0,1,2.19-4.2,8.5,8.5,0,0,1,4.38-1,8.84,8.84,0,0,1,5,1.3,5,5,0,0,1,2.24,3.89,4.22,4.22,0,0,1-2.08,4.3A8.49,8.49,0,0,1,242.32,98.81Zm-.12-1.72a3.42,3.42,0,0,0,2.55-.9,3.36,3.36,0,0,0,.78-2.74,3.66,3.66,0,0,0-1.48-2.91,4,4,0,0,0-2.34-.67,3,3,0,0,0-3.34,3.6,3.61,3.61,0,0,0,1.46,3A4,4,0,0,0,242.2,97.09Z" /></svg>