<svg viewBox="0 0 706.64 569.36"><defs><style>.cls-1{isolation:isolate;}.cls-2{fill:#fff;}.cls-3{fill:#d2d2d2;}.cls-4{fill:#252525;}.cls-5{opacity:0.41;mix-blend-mode:multiply;fill:url(#radial-gradient);}.cls-6{opacity:0.7;mix-blend-mode:hard-light;fill:url(#radial-gradient-2);}.cls-7{fill:url(#radial-gradient-3);}.cls-8{fill:#010101;}.cls-9{fill:#292423;}.cls-10{fill:url(#radial-gradient-4);}.cls-11{fill:url(#radial-gradient-5);}.cls-12{fill:#333132;}.cls-13{fill:#030409;}.cls-14{fill:#231f20;}.cls-15{fill:#0c0b0b;}.cls-16{fill:#0e0e0e;}</style><radialGradient id="radial-gradient" cx="354.18" cy="488.36" fy="1062.5664587574515" r="688.98" gradientTransform="translate(0 62.74) scale(1 0.87)" gradientUnits="userSpaceOnUse"><stop offset="0" stop-color="#fff" /><stop offset="0.09" stop-color="#f9f9f9" /><stop offset="0.21" stop-color="#e8e8e8" /><stop offset="0.35" stop-color="#cbcbcb" /><stop offset="0.5" stop-color="#a4a4a4" /><stop offset="0.66" stop-color="#717171" /><stop offset="0.83" stop-color="#343434" /><stop offset="0.91" stop-color="#121212" /></radialGradient><radialGradient id="radial-gradient-2" cx="353.32" cy="406.01" fx="-61.590787851514335" r="495.85" gradientUnits="userSpaceOnUse"><stop offset="0" stop-color="#fff" /><stop offset="0.05" stop-color="#e3e3e3" /><stop offset="0.14" stop-color="#b3b3b3" /><stop offset="0.24" stop-color="#878787" /><stop offset="0.34" stop-color="#636363" /><stop offset="0.45" stop-color="#464646" /><stop offset="0.56" stop-color="#2f2f2f" /><stop offset="0.68" stop-color="#1f1f1f" /><stop offset="0.82" stop-color="#151515" /><stop offset="1" stop-color="#121212" /></radialGradient><radialGradient id="radial-gradient-3" cx="266.88" cy="367.22" r="0.81" gradientTransform="matrix(-0.01, 1.06, -3.08, -0.04, 1401.4, 131.04)" gradientUnits="userSpaceOnUse"><stop offset="0" stop-color="#fff" /><stop offset="0.05" stop-color="#ebebeb" /><stop offset="0.19" stop-color="#b2b2b2" /><stop offset="0.34" stop-color="#818181" /><stop offset="0.48" stop-color="#595959" /><stop offset="0.62" stop-color="#3a3a3a" /><stop offset="0.75" stop-color="#242424" /><stop offset="0.88" stop-color="#171717" /><stop offset="1" stop-color="#121212" /></radialGradient><radialGradient id="radial-gradient-4" cx="542.38" cy="395.22" r="217.35" gradientUnits="userSpaceOnUse"><stop offset="0" stop-color="#171615" /><stop offset="0.2" stop-color="#141413" /><stop offset="1" stop-color="#121212" /></radialGradient><radialGradient id="radial-gradient-5" cx="486.46" cy="381.46" r="137.36" gradientUnits="userSpaceOnUse"><stop offset="0" stop-color="#181817" /><stop offset="0.24" stop-color="#141414" /><stop offset="1" stop-color="#121212" /></radialGradient></defs><g class="cls-1"><g id="Layer_1" data-name="Layer 1"><path class="cls-2" d="M703.63,275.9S685.1,244.46,683.82,202s4.73-118-96.57-160.22S353.32,0,353.32,0,220.68-.41,119.38,41.78,24.1,159.55,22.82,202,3,275.9,3,275.9" /><ellipse class="cls-3" cx="353.32" cy="290.98" rx="353.32" ry="115.04" /><path class="cls-4" d="M692.44,293.48c0,62.15-151.83,103.23-339.12,103.23S20,344,14.19,293.48C7.09,231.78,166,181,353.32,181S692.44,231.33,692.44,293.48Z" /><path class="cls-5" d="M582,298.28c0,7.3-5.12,14.3-14.47,20.75v17c0,121.27-95.88,219.58-214.16,219.58-59.14,0-112.68-24.58-151.43-64.32a221.67,221.67,0,0,1-62.73-155.26V319c-9.34-6.46-14.46-13.45-14.46-20.75s5.12-14.29,14.46-20.74a102.25,102.25,0,0,1,17-9.22c43.87-15.53,115.82-25.66,197.16-25.66s153.29,10.13,197.16,25.66a102.25,102.25,0,0,1,17,9.22C576.88,284,582,291,582,298.28Z" /><path class="cls-6" d="M595.28,303.72c0,7.54-5.41,14.75-15.31,21.41v17.58c0,125.18-101.48,226.65-226.66,226.65A226.64,226.64,0,0,1,126.66,342.71V325.13c-9.9-6.66-15.3-13.87-15.3-21.41s5.4-14.75,15.3-21.42c34.38-23.16,122.89-39.64,226.65-39.64S545.59,259.14,580,282.3C589.87,289,595.28,296.18,595.28,303.72Z" /><path class="cls-7" d="M268.42,399.55c-1.07-.92-2.09-1.83-3.09-2.74C266.33,397.72,267.36,398.63,268.42,399.55Z" /><path class="cls-8" d="M570.55,312.91c-.17.24-.34.48-.53.71-.34.43-.7.85-1.07,1.28a41.18,41.18,0,0,1-4.38,4.21c-.24.18-.48.39-.73.59-.53.41-1.07.83-1.64,1.25s-1.11.79-1.69,1.18c0,2,0,6.81,0,11.47,0,4.14,0,8.18-.07,10.06v0c0,.07,0,.14,0,.2a216.28,216.28,0,0,1-13,69.19,213.16,213.16,0,0,1-33,59.17,37.22,37.22,0,0,1-13.64,10.15,53.24,53.24,0,0,1-16.54,4.46c-29.72-1.71-79.48-3.6-113-2.82-18.77.41-34.91,1.57-43.52,4-15.13,3.65-37.07,6-59.5,6-23.41,0-47.34-2.54-64.64-8.75a203.13,203.13,0,0,1-37.24-55.44l-.12-.25-.78-1.73a226.23,226.23,0,0,1-17.88-65.73l0-.23a221.13,221.13,0,0,1-1.23-23.29V322.13c-7.15-4.95-11.75-10.22-13.34-15.71l-.28-1.07c0-.1,0-.21-.06-.3a15.09,15.09,0,0,1-.3-3c0-6.25,3.87-12.25,11-17.89l.08-.06c.91-.71,1.87-1.42,2.88-2.12a99.44,99.44,0,0,1,16.08-8.76l.15-.06.07,0,.56-.2h0c22.57-7.93,52.72-14.4,87.79-18.72l1-.11c28.29-3.24,59.14-5,90.05-5.43h0q6.54-.09,13.09-.09c60.85,0,120.53,5.43,159.86,16h0c3.15.78,6.27,1.56,9.35,2.37l.79.21,1.55.42c3.73,1,7.33,2.11,10.77,3.21l.07,0A104.82,104.82,0,0,1,550.26,276l.68.34q3.07,1.51,6,3.33c.81.5,1.59,1,2.35,1.49.42.28.82.57,1.23.85.58.39,1.14.79,1.69,1.18s1.11.84,1.64,1.25l.73.59a41.18,41.18,0,0,1,4.38,4.21c.37.43.73.85,1.07,1.28.19.23.36.46.53.71C575.71,298.31,575.71,305.81,570.55,312.91Z" /><path class="cls-9" d="M574.54,302.06c0,7.07-4.95,13.83-14,20.07V338.6c0,1.75,0,3.51-.07,5.26-4.81-32.4-17.56-60.42-45.65-79.29a291.87,291.87,0,0,1,29.27,8.51A99.93,99.93,0,0,1,560.55,282C569.59,288.23,574.54,295,574.54,302.06Z" /><path class="cls-9" d="M342.91,248.31l-1.05.36h0c-77.6,26.15-86.37,100.22-93.09,140.47-.17,1-.34,2-.52,2.94-8.3,45.41-29.33,63.21-54.19,82.29a213.06,213.06,0,0,1-27.82-44.54l-.12-.25-.78-1.73a214.67,214.67,0,0,1-17.88-65.73l0-.23a221.13,221.13,0,0,1-1.23-23.29V322.13c-7.15-4.95-11.75-10.22-13.34-15.71l-.28-1.07c0-.1,0-.21-.06-.3a15.09,15.09,0,0,1-.3-3c0-6.25,3.87-12.25,11-17.89l.08-.06c.91-.71,1.87-1.42,2.88-2.12a100,100,0,0,1,16.23-8.82l.07,0,.15-.06a3.93,3.93,0,0,1,.41-.14h0c22.57-7.93,52.72-14.4,87.79-18.72l1-.11A839.5,839.5,0,0,1,342.91,248.31Z" /><path class="cls-10" d="M505.7,450.36c-18.44,40.41-81,74.3-121,69.38C346,515,335.21,478,351.17,439.07c.55-1.36,1.15-2.72,1.76-4.08,13.09-28.67,44.64-52.76,76.17-62.6,12.92-4,25.84-5.68,37.48-4.25C506.59,373.06,524.14,409.94,505.7,450.36Z" /><path class="cls-11" d="M385,395.89a139.4,139.4,0,0,1,44.08-23.5,71.43,71.43,0,0,1,17,0c34.05,4.18,49.22,33.67,33.81,65.72s-55.64,54.74-89.69,50.56c-28.21-3.46-43.46-24.3-39.09-49.57.55-1.36,1.15-2.72,1.76-4.08,6.69-14.66,18.22-28.12,32.09-39.1" /><path class="cls-12" d="M384.94,395.79q4.83-4,10-7.63c3.46-2.37,7-4.6,10.7-6.66a133.94,133.94,0,0,1,23.07-10.3l.1,0H429a71.44,71.44,0,0,1,18.19-.13,54.83,54.83,0,0,1,17.62,5.1,42.42,42.42,0,0,1,14.53,11.52,39.38,39.38,0,0,1,7.85,16.91,43.61,43.61,0,0,1,.91,9.31,51.44,51.44,0,0,1-.87,9.28,65.19,65.19,0,0,1-6,17.44,89.53,89.53,0,0,1-23.05,28.27,103.39,103.39,0,0,1-31.86,17.65A82.21,82.21,0,0,1,390,490.71a56.48,56.48,0,0,1-17.73-5.22,43.1,43.1,0,0,1-14.5-11.56A39.62,39.62,0,0,1,350,457.19a47.76,47.76,0,0,1-.07-18.34l0-.16.05-.11a86.59,86.59,0,0,1,6.46-12.47,100.94,100.94,0,0,1,8.26-11.3,117.62,117.62,0,0,1,9.59-10.12,127.48,127.48,0,0,1,10.68-8.9l.16.21a124.65,124.65,0,0,0-19.7,19.4,99.75,99.75,0,0,0-7.93,11.34,90.91,90.91,0,0,0-6.14,12.39v0a46.34,46.34,0,0,0,.28,17.72,37.92,37.92,0,0,0,7.7,15.87,41,41,0,0,0,13.95,10.84,55.54,55.54,0,0,0,17.05,4.9,79.85,79.85,0,0,0,35.13-4.27,99.25,99.25,0,0,0,16.27-7.3,105.12,105.12,0,0,0,14.73-10A86.83,86.83,0,0,0,479,439.47a62.31,62.31,0,0,0,5.88-16.77,47.85,47.85,0,0,0,.88-8.85,41.08,41.08,0,0,0-.82-8.85,38.15,38.15,0,0,0-7.3-16.06,40.57,40.57,0,0,0-13.7-11.14,53.16,53.16,0,0,0-17-5.14,70.22,70.22,0,0,0-17.8-.11h0a133.23,133.23,0,0,0-23.08,9.73,142.94,142.94,0,0,0-21,13.72Z" /><path class="cls-13" d="M390.38,402.41c13.46-10.15,30.45-15.74,45.78-13.8,25,3.18,36.2,25.26,24.9,49.33s-40.78,41-65.83,37.84-36.2-25.26-24.9-49.33a65.61,65.61,0,0,1,20.05-24" /><path class="cls-12" d="M390.28,402.28a83.46,83.46,0,0,1,7.45-5.43,75.78,75.78,0,0,1,8.14-4.39,66,66,0,0,1,17.82-5.39,50.22,50.22,0,0,1,18.86.85,38.05,38.05,0,0,1,9,3.47,32.62,32.62,0,0,1,7.79,5.92,30.88,30.88,0,0,1,8.43,17.62,41.86,41.86,0,0,1-2.16,19.29c-.26.76-.56,1.51-.84,2.27s-.63,1.47-.95,2.21c-.68,1.46-1.46,2.86-2.19,4.29a62.83,62.83,0,0,1-5.31,8,73.69,73.69,0,0,1-30.05,22.78,66.92,66.92,0,0,1-18.45,4.8l-2.39.23c-.8.09-1.61,0-2.41.06a37,37,0,0,1-4.82-.12,44.53,44.53,0,0,1-9.55-1.59,38,38,0,0,1-9-3.8,33.35,33.35,0,0,1-7.6-6.26,31.19,31.19,0,0,1-7.75-17.7A40.63,40.63,0,0,1,367,430.6a58.56,58.56,0,0,1,9.62-16A66.45,66.45,0,0,1,383,408a74.56,74.56,0,0,1,7.26-5.67l.2.26a70.55,70.55,0,0,0-13,12.76,57.08,57.08,0,0,0-8.85,15.88,39,39,0,0,0-2.18,17.92,28.84,28.84,0,0,0,7.48,16.23,30.83,30.83,0,0,0,7.1,5.61,36.48,36.48,0,0,0,8.4,3.41,42,42,0,0,0,9,1.39,34.53,34.53,0,0,0,4.55.07c.76,0,1.52,0,2.28-.09l2.26-.25A64.52,64.52,0,0,0,425,470.79,72.66,72.66,0,0,0,453.8,449a57,57,0,0,0,8.9-15.81,39,39,0,0,0,2.22-17.89,28.75,28.75,0,0,0-7.44-16.23,30.7,30.7,0,0,0-7.1-5.63A36.18,36.18,0,0,0,442,390a45.47,45.47,0,0,0-9-1.46,55.43,55.43,0,0,0-9.11.26,69.77,69.77,0,0,0-33.41,13.74Z" /><path class="cls-14" d="M398.89,457.52c-7.56.19-15.64-3.31-18.55-9.45-9.7-23.11,20.69-49.81,42.41-49.15,17.25-.48,25.33,14.71,17.69,30.31C433.41,445.1,415.16,457.52,398.89,457.52Z" /><path class="cls-15" d="M467,297.92c-18.15-4.25-39.08.33-59.64,6.57C357.18,319.67,307,356.87,286.15,401.13c-1,2.11-1.93,4.2-2.81,6.3C257.94,467.56,276,519,336.64,532c57.65,12.33,168.86-23.82,197-107.92C555.48,358.92,526.71,311.92,467,297.92ZM505.7,450.36c-18.44,40.41-81,74.3-121,69.38C346,515,335.21,478,351.17,439.07c.55-1.36,1.14-2.72,1.76-4.08,13.08-28.67,44.64-52.76,76.17-62.6,12.92-4,25.84-5.68,37.47-4.25C506.59,373.06,524.14,409.94,505.7,450.36Z" /><ellipse class="cls-16" cx="85.22" cy="123.22" rx="2.37" ry="1.79" transform="translate(-60.26 87.43) rotate(-41.51)" /></g></g></svg>