<svg viewBox="0 0 518.54 298.34"><defs><style>.cls-1{isolation:isolate;}.cls-2{fill:#fdfdfd;}.cls-3{fill:#d1d1d1;}.cls-4{fill:url(#radial-gradient);}.cls-5{fill:none;stroke:#1a1a1a;stroke-miterlimit:10;stroke-width:2.89px;}.cls-6{fill:url(#radial-gradient-2);}.cls-7{mix-blend-mode:hard-light;fill:url(#radial-gradient-3);}.cls-8{fill:url(#radial-gradient-4);}.cls-9{fill:#7c38f3;}.cls-10{fill:url(#linear-gradient);}.cls-11{fill:url(#linear-gradient-2);}.cls-12{fill:url(#linear-gradient-3);}.cls-13{fill:#272729;}</style><radialGradient id="radial-gradient" cx="259.18" cy="200.49" fy="367.1106591659597" r="304.1" gradientTransform="translate(0 145.27) scale(1 0.28)" gradientUnits="userSpaceOnUse"><stop offset="0" stop-color="#333" /><stop offset="0.75" /></radialGradient><radialGradient id="radial-gradient-2" cx="195.84" cy="276.4" r="0.6" gradientTransform="matrix(-0.01, 1, -3.08, -0.04, 1049.69, 91.23)" gradientUnits="userSpaceOnUse"><stop offset="0" stop-color="#fff" /><stop offset="0.05" stop-color="#ebebeb" /><stop offset="0.19" stop-color="#b2b2b2" /><stop offset="0.34" stop-color="#818181" /><stop offset="0.48" stop-color="#595959" /><stop offset="0.62" stop-color="#3a3a3a" /><stop offset="0.75" stop-color="#242424" /><stop offset="0.88" stop-color="#171717" /><stop offset="1" stop-color="#121212" /></radialGradient><radialGradient id="radial-gradient-3" cx="260.57" cy="262.48" fy="452.8456327649284" r="190.36" gradientTransform="translate(0 191.51) scale(1 0.27)" gradientUnits="userSpaceOnUse"><stop offset="0" stop-color="#fff" /><stop offset="0.08" stop-color="#f7f7f7" /><stop offset="0.21" stop-color="#e3e3e3" /><stop offset="0.36" stop-color="#c1c1c1" /><stop offset="0.53" stop-color="#929292" /><stop offset="0.72" stop-color="#565656" /><stop offset="0.91" stop-color="#121212" /></radialGradient><radialGradient id="radial-gradient-4" cx="230" cy="294.9" r="5.58" gradientTransform="translate(0 215.16) scale(1 0.27)" gradientUnits="userSpaceOnUse"><stop offset="0" stop-color="#fff" /><stop offset="0.09" stop-color="#f7f7f7" /><stop offset="0.22" stop-color="#e3e3e3" /><stop offset="0.38" stop-color="#c1c1c1" /><stop offset="0.56" stop-color="#929292" /><stop offset="0.76" stop-color="#565656" /><stop offset="0.96" stop-color="#121212" /></radialGradient><linearGradient id="linear-gradient" x1="259.18" y1="223.38" x2="259.18" y2="264.36" gradientUnits="userSpaceOnUse"><stop offset="0.02" stop-color="#121212" /><stop offset="0.4" stop-color="#090909" /><stop offset="1" /></linearGradient><linearGradient id="linear-gradient-2" x1="259.18" y1="268.9" x2="259.18" y2="229.76" gradientUnits="userSpaceOnUse"><stop offset="0" stop-color="#fff" /><stop offset="0.01" stop-color="#e9e9e9" /><stop offset="0.04" stop-color="#bdbdbd" /><stop offset="0.07" stop-color="#949494" /><stop offset="0.11" stop-color="#717171" /><stop offset="0.14" stop-color="#535353" /><stop offset="0.18" stop-color="#3b3b3b" /><stop offset="0.23" stop-color="#292929" /><stop offset="0.28" stop-color="#1c1c1c" /><stop offset="0.35" stop-color="#141414" /><stop offset="0.5" stop-color="#121212" /></linearGradient><linearGradient id="linear-gradient-3" x1="259.18" y1="280.31" x2="259.18" y2="248.7" href="#linear-gradient" /></defs><g class="cls-1"><g id="products"><g id="MV"><path class="cls-2" d="M516.33,191.51a113.14,113.14,0,0,1-14.54-51.29c-.93-29.47,3.48-81.94-70.86-111.22S259.27,0,259.27,0,161.94-.28,87.6,29,17.68,110.75,16.74,140.22A113.21,113.21,0,0,1,2.21,191.51" /><ellipse class="cls-3" cx="259.27" cy="201.98" rx="259.27" ry="79.85" /><path class="cls-4" d="M508.12,203.72c0,43.14-111.41,71.65-248.85,71.65S14.68,238.77,10.41,203.72C5.2,160.89,121.83,125.6,259.27,125.6S508.12,160.58,508.12,203.72Z" /><path class="cls-5" d="M459.52,208.5c0,38.86-89.66,61.24-200.25,61.24S59,247.36,59,208.5c0-29.16,89.65-58.71,200.25-58.71S459.52,179.34,459.52,208.5Z" /><path class="cls-6" d="M197,277.35c-.79-.64-1.54-1.27-2.27-1.9C195.43,276.08,196.19,276.71,197,277.35Z" /><path class="cls-7" d="M372.15,234.27c.06,10.76-12.92,18.66-33.08,23.68h.16c-20.54,40.25-115.55,65.95-159.94,0-20.24-5.07-32.91-12.8-32.91-23.54C142.61,190,376.24,190,372.15,234.27Z" /><path class="cls-8" d="M233.08,295.46c-2.13-.54-4.18-1.15-6.17-1.8C228.9,294.31,231,294.91,233.08,295.46Z" /><ellipse class="cls-9" cx="134.48" cy="203.29" rx="3.05" ry="5.7" transform="translate(-106.38 240.68) rotate(-65.34)" /><path d="M298.9,262.81l-.3.05c-4.62.68-9.5,3.92-15.47,7.08-6.4,3.4-14,6.72-23.95,6.72s-17.55-3.32-23.94-6.72c-6-3.16-10.86-6.4-15.48-7.08l-.28-.05c-25.33-3.93-47.41-34.29-46.74-34.87,26.75-22.8,135.72-25.62,172.89,0C346.35,228.45,324.22,258.88,298.9,262.81Z" /><path d="M298.9,262.81l-.3.05c-4.62.68-9.5,3.92-15.47,7.08-6.4,3.4-14,6.72-23.95,6.72s-17.55-3.32-23.94-6.72c-6-3.16-10.86-6.4-15.48-7.08l-.28-.05c-25.33-3.93-47.41-34.29-46.74-34.87,26.75-22.8,135.72-25.62,172.89,0C346.35,228.45,324.22,258.88,298.9,262.81Z" /><path class="cls-10" d="M259.18,236.7c-31.65,0-57.31,8.2-57.31,14.49,0,3.29,3,6.36,8.22,9a42.78,42.78,0,0,0,9.39,2.63l.28.05a25.37,25.37,0,0,1,7.65,2.82,174.35,174.35,0,0,0,63.55,0,25.41,25.41,0,0,1,7.64-2.82l.3-.05a42.52,42.52,0,0,0,9.4-2.65c5.2-2.62,8.2-5.69,8.2-9C316.5,245.19,290.84,236.7,259.18,236.7Z" /><path d="M304.93,256c-3,4.86-21.77,9.86-45.75,9.86S218,260.44,214,256.16c-5.38-7.9,13.94-16.85,45.16-16.85C294.91,239.31,309.32,248.93,304.93,256Z" /><path class="cls-11" d="M300,261.21c0,1.07-.39.64-1.11,1.6l-.3.05c-4.62.68-9.5,3.92-15.47,7.08a130.25,130.25,0,0,1-47.89,0c-6-3.16-10.86-6.4-15.48-7.08l-.28-.05c-.74-1-1.12-.53-1.12-1.6,0-7.31,18.27-12.28,40.82-12.28S300,253.9,300,261.21Z" /><path class="cls-12" d="M293.78,260.81c0,5.53-15.49,15.85-34.6,15.85s-34.59-10.32-34.59-15.85,15.49-8.22,34.59-8.22S293.78,255.27,293.78,260.81Z" /><path class="cls-13" d="M269,256.54a9.86,9.86,0,1,1-19-3.67c2.9-.18,6-.28,9.16-.28s6.26.1,9.15.28A9.91,9.91,0,0,1,269,256.54Z" /><path d="M269,256.54a9.86,9.86,0,1,1-19-3.67c2.9-.18,6-.28,9.16-.28s6.26.1,9.15.28A9.91,9.91,0,0,1,269,256.54Z" /></g></g></g></svg>