<svg viewBox="0 0 1362.37 772.95"><defs><style>.a{fill:#c4c3c3;}.b{fill:#6d6d6d;}.c{fill:#d0cece;}.d{fill:#898989;}.e{fill:#838283;}.f{fill:#a5a4a4;}.g{fill:#4f4f52;}.h{fill:#262727;}.i{fill:#b4b3b4;}.j{fill:#060707;}.k{fill:#545453;}.l{fill:#5d5d5d;}.m{fill:#a7a5a5;}.n{fill:#3c3c3c;}.o{fill:#464646;}.p{fill:#2c2d2d;}.q{fill:#626364;}.r{fill:#fff;}.s{fill:#eeedee;}</style></defs><path class="a" d="M64.19,424.19c4.82-32.86,34.7-88.1,105.33-84.88C242,342.6,279.3,360.19,353.08,394.42s97.33,175.11,93.78,225.77-28.67,75.26-65,77.63S24.3,696.07,64.19,424.19Z" /><path class="b" d="M487.43,433.6,413.84,543.74l-44.39,38-66-4.46S270.15,424,270.15,422.33s75.12-129.24,75.12-129.24L450.6,307.75l35.11,82.67-3.56,21.78s2.19,8.79,5.25,21.31A.32.32,0,0,1,487.43,433.6Z" /><path class="b" d="M488,432.81l-.53.79a.32.32,0,0,0,0-.09Z" /><path class="c" d="M369.45,728.14l-41.32,36.58c-65.18,25.33-175.6-9.53-246.74-80.67C11.47,614.13-16,524,9.22,464.17l36.6-42.41c-19.08,60.34,11,147.73,80.25,217C196.42,709.09,302.66,746.39,369.45,728.14Z" /><path class="c" d="M417.48,685.63l-45.77,40.51-2.26,2c-66.79,18.25-173-19-243.38-89.4-69.25-69.25-99.33-156.64-80.25-217l2.51-2.91,41.79-48.43a114.81,114.81,0,0,0-9.26,35.79c-5.8,58,24.81,132.18,85.19,192.55,60.91,60.92,148.73,97.06,214.56,93.8A127,127,0,0,0,417.48,685.63Z" /><ellipse class="d" cx="363.81" cy="422.32" rx="100.06" ry="96.33" /><ellipse class="e" cx="393.87" cy="413.97" rx="66.67" ry="79.33" /><path class="f" d="M369.45,728.14a134.91,134.91,0,0,1-31.55,5.13c-93.51,3.05-192.55-56.7-246.51-131-31.24-42.89-54.73-95.07-51.66-149.09a122.08,122.08,0,0,1,6.09-31.37l-1,3.86-.5,1.93c-.24,1-1,4.77-1.21,5.86-.21,1.45-.71,4.54-.92,5.91a156.23,156.23,0,0,0,1.09,45.54c7,41.84,26.67,80.75,51.92,114.53C133.11,650.4,185.85,689.85,245,713c39.27,15,82.7,24.7,124.49,15.12Z" /><path class="c" d="M456.68,480.09l7-131.89c-30.22-45.33-73.33-48.89-88.88-48s-40,13.78-28.89,48,24.89,63.55,8.89,86.22-45.34,49.33-44.45,72.45,19.11,56.88,57.33,58.22c14.85.52,31.45-9.23,46.2-21.35-11.14,16.24-19.55,28-22.2,30.68-10.66,10.67-16,32.45-65.77,28.94S229,550,199.64,514.42,173,432.64,186.31,419.31c0,0,58.22-57.78,77.78-80.16s44-49.17,66.67-56.28,141.77,17.22,141.77,17.22L506.76,404.2S482.81,440.79,456.68,480.09Z" /><ellipse class="g" cx="257.2" cy="397.31" rx="13" ry="7.33" transform="translate(-212.23 457.62) rotate(-64.4)" /><path class="h" d="M1343.38,336c-18.55,24.53-43,41.55-67.36,46.94,0,.84-.08,1.68-.13,2.52l-5.35,1.54L953.48,211.17c27.61-50,54.52-142.72,101.23-170.87C1105,10,1161-4,1231.71,41s115,162.33,120,187S1364,308.63,1343.38,336Z" /><path class="a" d="M1065,638,615,651.85a257,257,0,0,1-98.52-16C376.08,582.93,354.18,431.65,357.26,360.64q.14-3,.32-5.76a57.4,57.4,0,0,1,15.23-8.95c12.6-5.28,32.51-10.23,67.08-15.3C518.39,319.12,793,278.41,841.07,271c12.6,6.25,14,20.45,11.75,28.77-3.22,11.83,32,52.45,33.33,52.45a162.68,162.68,0,0,0,21.65-5.45Z" /><path class="i" d="M357.58,354.88q-.18,2.78-.32,5.76l-.75.63L357,358Z" /><polygon class="j" points="868.54 266.8 848.21 270.97 866.88 365.8 900.38 363.3 893.88 258.13 868.54 266.8" /><ellipse class="k" cx="1074.02" cy="349.89" rx="201.64" ry="273.67" transform="translate(-26.32 94.55) rotate(-4.98)" /><path class="j" d="M1097.77,622.53c-2.82.25-7.48.82-10.24,1.05-.49,0-1,0-1.47,0l-5.9.18-3,.09-3-.1-5.92-.26-1.48-.06c-.49,0-1-.11-1.47-.16l-3-.33-5.9-.66-5.85-1.05c-1.75-.37-4.16-.65-5.84-1.14-2-.57-6.73-1.65-8.67-2.19-2.53-.78-7.39-2.4-9.94-3.2l-1.39-.53-2.78-1.09c-35.47-13.6-65.85-38.81-89.29-68.41-74.33-94.71-89.2-237-39.69-346.26,1.3-2.62,3.95-8.14,5.26-10.77,1.64-3.32,4-7.27,5.71-10.55s4.35-7.06,6.19-10.27c2-3.16,4.63-6.85,6.68-10,17.37-24.29,39.28-45.86,65.53-60.35,1.41-.69,6.47-3.44,7.92-4.17,3.07-1.32,7.78-3.62,10.92-4.77,2.61-1,5.94-2.14,8.38-3.06,2.37-.65,7.55-2.25,10-2.91l1.44-.32,5.79-1.28c3.38-.82,8.24-1.33,11.65-1.87s8.22-.64,11.73-.93l-5.78,1c-1.72.3-4.09.64-5.76,1.07-42,9-77.74,35.33-103.09,69.44-86.35,116-71.27,311.41,28.68,415.09,27.79,29,64.16,51,104.32,57,1.71.28,7,.83,8.68,1.1,3,.24,6,.34,8.74.55.49,0,1,.07,1.46.08h10.26Z" /><ellipse class="l" cx="1094.21" cy="344.12" rx="181.08" ry="266.09" transform="translate(-29.44 113.61) rotate(-5.86)" /><path class="m" d="M965.52,516.36c-55.55-81-70.68-194.62-43.79-288.53,9.89-33.4,25.2-65.59,48-92.12l4.36-4.83,4.52-4.68a271.41,271.41,0,0,0-25,45C923.14,240.84,918,319.4,929.07,394a460.06,460.06,0,0,0,36.45,122.37Z" /><ellipse class="j" cx="1103.76" cy="337.45" rx="152.06" ry="226.75" transform="translate(-33.4 139.92) rotate(-7.15)" /><ellipse class="n" cx="1106.54" cy="334.93" rx="86.33" ry="125.7" transform="translate(-17.22 63.31) rotate(-3.25)" /><path class="o" d="M1112.82,445.42c-40.75,2.31-76.66-42.58-81.78-101.18,4.78,52.6,37.08,92.84,73.72,90.76,37.79-2.15,65.9-48.5,62.77-103.53s-36.3-97.91-74.09-95.76c-36.84,2.1-64.46,46.16-63,99.34-1.85-59.17,28.83-108.28,69.78-110.61,41.9-2.38,78.68,45.16,82.15,106.18S1154.73,443,1112.82,445.42Z" /><ellipse class="j" cx="1096.83" cy="334.91" rx="70.78" ry="104.02" transform="translate(-18.37 67.46) rotate(-3.49)" /><ellipse class="p" cx="1225.27" cy="367.2" rx="9.56" ry="12.67" transform="translate(-14.39 51.98) rotate(-2.42)" /><ellipse class="q" cx="1098.79" cy="508.53" rx="6.75" ry="7.83" /><path class="r" d="M1105.37,129.52l.21,26.09c-.06,1.31-.79,2-1.64,1.62a3.39,3.39,0,0,1-1.41-2.73l-.24-26.09c-.08-1.39.54-2.37,1.38-2.19s1.61,1.47,1.7,2.87A3.09,3.09,0,0,1,1105.37,129.52Z" /><path class="r" d="M1113.62,142.05l.07,11.46c-.16,1.27-1,1.84-1.8,1.28a3.46,3.46,0,0,1-1.22-2.37L1110.6,141c.06-1.33.8-2.07,1.65-1.65a3.4,3.4,0,0,1,1.42,2.76Z" /><path class="r" d="M1121.83,151.41l0,5.06c0,1.35-.69,2.2-1.53,1.89a3.28,3.28,0,0,1-1.55-3l0-5c0-1.35.67-2.2,1.52-1.89a3.31,3.31,0,0,1,1.54,3Z" /><path class="r" d="M1097.27,136.15l.13,11.47c-.06,1.32-.8,2-1.64,1.62a3.39,3.39,0,0,1-1.42-2.73l-.13-11.47c.06-1.33.79-2.07,1.64-1.64A3.37,3.37,0,0,1,1097.27,136.15Z" /><path class="r" d="M1089.21,139.62l.06,5.06c0,1.32-.78,2-1.62,1.62a3.37,3.37,0,0,1-1.43-2.73l-.07-5.06c-.09-1.38.52-2.35,1.36-2.16s1.6,1.46,1.69,2.84C1089.21,139.34,1089.21,139.48,1089.21,139.62Z" /><path class="r" d="M1138.25,141.36l0,26.07c0,1.34-.69,2.17-1.53,1.87a3.24,3.24,0,0,1-1.53-3l0-26.07c0-1.36.7-2.22,1.55-1.91S1138.25,140,1138.25,141.36Z" /><path class="r" d="M1130,148v11.46c-.07,1.32-.82,2-1.67,1.62a3.33,3.33,0,0,1-1.4-2.73l0-11.46c.07-1.33.82-2.07,1.67-1.64A3.36,3.36,0,0,1,1130,148Z" /><path class="r" d="M1146.47,153.91l0,11.45c-.08,1.32-.83,2-1.68,1.62a3.3,3.3,0,0,1-1.4-2.73l0-11.46c.07-1.33.83-2.06,1.68-1.64A3.34,3.34,0,0,1,1146.47,153.91Z" /><path class="r" d="M1154.66,163.28l0,5.06c-.09,1.31-.84,2-1.7,1.61a3.32,3.32,0,0,1-1.39-2.73l0-5.05c-.07-1.38.57-2.35,1.43-2.16s1.6,1.47,1.66,2.85A2.94,2.94,0,0,1,1154.66,163.28Z" /><path class="r" d="M1096.32,177.52q2.68.94,2.87-3.55l3.16,1.11q-.31,4-2,5.42a4,4,0,0,1-4,.32,8.22,8.22,0,0,1-4.66-4.65A19.66,19.66,0,0,1,1090,168q0-5.44,1.89-7.55c1.1-1.18,2.57-1.45,4.41-.79a8,8,0,0,1,4.15,3.56,13.67,13.67,0,0,1,1.78,5.65l-3.11-1.11q-.54-4-2.8-4.77a1.74,1.74,0,0,0-2.35,1.13,12.37,12.37,0,0,0-.73,5,15.91,15.91,0,0,0,1,6.27A3.74,3.74,0,0,0,1096.32,177.52Z" /><path class="r" d="M1104.06,162.82l3.11,1.11,0,20.33-3.09-1.09Z" /><path class="r" d="M1114.64,187.3a7.93,7.93,0,0,1-4.2-3.45,11.12,11.12,0,0,1-1.57-5l2.92,1a5.38,5.38,0,0,0,1,2.64,3.94,3.94,0,0,0,1.93,1.47c1.63.58,2.45.09,2.45-1.46a3.84,3.84,0,0,0-1.06-2.66,16.12,16.12,0,0,0-2.24-1.83,11.67,11.67,0,0,1-3.24-3.18,8.88,8.88,0,0,1-1.27-4.74q0-2.94,1.53-4c.92-.59,2.18-.6,3.79,0a7.28,7.28,0,0,1,3.83,3.07,9.92,9.92,0,0,1,1.44,4.46l-2.89-1a3.87,3.87,0,0,0-.86-2.17,3.6,3.6,0,0,0-1.59-1.1c-1.42-.51-2.13-.07-2.13,1.3a3.14,3.14,0,0,0,.55,1.9,9.61,9.61,0,0,0,2.14,1.86,12.88,12.88,0,0,1,3.69,3.62,9.21,9.21,0,0,1,1.41,5c0,1.89-.51,3.21-1.52,4S1116.38,187.91,1114.64,187.3Z" /><path class="r" d="M1127.5,188.53q2.65.94,2.88-3.52l3.11,1.11c-.23,2.66-.91,4.45-2.06,5.37a4,4,0,0,1-4,.32,8.06,8.06,0,0,1-4.58-4.61,19.42,19.42,0,0,1-1.53-8.12c0-3.6.65-6.1,1.94-7.48,1.09-1.18,2.54-1.44,4.37-.79a7.76,7.76,0,0,1,4.07,3.52,13.37,13.37,0,0,1,1.72,5.59l-3.07-1.09c-.33-2.61-1.24-4.19-2.73-4.72a1.72,1.72,0,0,0-2.33,1.12,12,12,0,0,0-.76,5,15.56,15.56,0,0,0,1,6.21A3.62,3.62,0,0,0,1127.5,188.53Z" /><path class="r" d="M1140.85,196.54a8.32,8.32,0,0,1-4.61-4.28,17.71,17.71,0,0,1-1.73-8.42q0-5.68,2.28-7.68a3.94,3.94,0,0,1,4.18-.59,8.39,8.39,0,0,1,4.63,4.33,18.08,18.08,0,0,1,1.7,8.45q0,5.66-2.29,7.62A4,4,0,0,1,1140.85,196.54Zm0-3.31a1.84,1.84,0,0,0,2.4-.91,10.37,10.37,0,0,0,1-5.06,13.85,13.85,0,0,0-1.13-6.26,4,4,0,0,0-2.14-2.11,1.82,1.82,0,0,0-2.41.94,10.65,10.65,0,0,0-.94,5.11,13.49,13.49,0,0,0,1.15,6.23A3.91,3.91,0,0,0,1140.87,193.23Z" /><path class="s" d="M357,358l.54-3.09c10.54-8.89,29-16.43,82.31-24.25,83.49-12.24,388.79-57.51,407.49-60.66s70.29-13.6,93.66-65.67c26.34-58.67,58.55-141.62,109-173.46S1162.55-18,1233.35,29.27s110.45,160.13,120,184.7c10.1,25.91,16.57,96.26-8.16,124.93-21.31,24.7-44.77,44.31-69.5,49.68q.16-2.83.3-5.67c24.35-5.39,48.81-22.41,67.36-46.94,20.66-27.34,13.33-83.34,8.33-108s-49.33-142-120-187-126.67-31-177-.67S977,176,947,222,865.71,271.3,847,274.3s-324,51.33-407.33,63c-55,7.71-72.84,15.12-83.2,24Z" /><path class="a" d="M1050,30.85C999.59,62.69,967.38,145.63,941,204.3c-23.37,52.07-75,62.52-93.66,65.67s-324,48.42-407.49,60.66c-53.32,7.82-71.77,15.36-82.31,24.25C370.51,282,400.05,166.68,611,123,791.57,85.58,991.8,43.19,1050,30.85Z" /><path class="s" d="M1237,525c-20.36,46.38-79.81,120.17-150.88,118.35-88-2.26-138.63-55.22-180.43-122.67-48.13-77.67-56.67-196-56-223.33.26-10.65-1.2-17.76-4.78-22.66l2.11-.34c2.09-.34,4.6-.68,7.44-1.08,12.56,14.48,16.25,35.73,17.32,54q-.28,13.66.46,27.66c0,.08,0,.16,0,.24,0,.86.07,1.72.16,2.56.19,3.22.37,6.46.71,9.71C889,518.23,987.8,632.28,1097.77,622.53c42.71-3.79,80.74-25.26,110.6-58.94A207.23,207.23,0,0,0,1237,525Z" /></svg>