<svg width="808.51" height="720.33" viewBox="0 0 808.51 720.33"><defs><style>.c{fill:#e5e0e0;}.d{fill:#292728;}.e{fill:#070607;}.f{fill:#040304;}.g,.h{fill:#a9a8a3;}.g,.i{mix-blend-mode:overlay;opacity:.34;}.h{mix-blend-mode:multiply;opacity:.18;}.j{fill:#111419;}.k{fill:#101010;}.l{fill:none;isolation:isolate;}.m{fill:#181717;}.i{fill:#52524f;}.n{fill:url(#b);}.o{fill:#0b1211;}.p{fill:#050606;}.q{fill:#0e0e10;}.r{fill:#282330;}.s{fill:#d2d2d2;}.t{fill:#231f20;}.u{fill:#614c33;}.v{fill:#06080a;}</style><radialGradient id="b" cx="405.58" cy="387.91" fx="405.58" fy="387.91" r="368.74" gradientTransform="translate(0 216.27) scale(1 .44)" gradientUnits="userSpaceOnUse"><stop offset="0" stop-color="#333" /><stop offset=".22" stop-color="#2f2f2f" /><stop offset=".43" stop-color="#242424" /><stop offset=".62" stop-color="#111" /><stop offset=".75" stop-color="#010101" /></radialGradient></defs><g class="l"><g id="a"><path class="c" d="m759.87,325.49s-25.76-117.03-33.03-139.27S660.97,7.43,404.26,7.43C147.54,7.43,88.93,163.98,81.67,186.22s-33.03,139.27-33.03,139.27" /><ellipse class="s" cx="404.26" cy="358.07" rx="381.8" ry="171.85" /><ellipse class="n" cx="404.26" cy="364.79" rx="356.7" ry="165.14" /><path class="d" d="m633.28,403.32c0,8.46-1.99,16.7-5.74,24.61-1.81,3.79-4.01,7.51-6.61,11.14-2.5,4.8-3.61,8.17-3.88,11.13-43.13,30.56-121.53,50.99-211.08,50.99s-172.83-21.72-215.01-53.87c-.57-2.29-1.64-4.93-3.37-8.25-2.6-3.63-4.8-7.35-6.61-11.14-3.75-7.91-5.74-16.15-5.74-24.61,0-1.32.05-2.64.15-3.96,4.33-58.96,105.14-106.13,228.87-106.13s224.54,47.17,228.87,106.13c.1,1.32.15,2.64.15,3.96Z" /><path class="g" d="m627.54,427.93c3.75-7.91,5.74-16.15,5.74-24.61,0-1.32-.05-2.64-.15-3.96-4.33-58.96-105.14-106.13-228.87-106.13s-224.54,47.17-228.87,106.13c-.1,1.32-.15,2.64-.15,3.96,0,8.46,1.99,16.7,5.74,24.61,1.81,3.79,4.01,7.51,6.61,11.14,6.4,12.28,3.66,15.17,1.24,25.9-3.96,17.62-11.89,97.97,52.41,168.99,64.29,71.01,131.4,78.94,163.02,78.94s98.73-7.93,163.02-78.94c64.3-71.02,56.37-151.37,52.41-168.99-2.42-10.73-5.16-13.62,1.24-25.9,2.6-3.63,4.8-7.35,6.61-11.14Z" /><path class="f" d="m570.08,592.98c-.07.08-.14.16-.21.24-6.87,8-18.54,16.73-36.67,26.21-94.79,49.54-255.41-34.24-255.41-34.24,0,0,3.45-30.68,2.46-65.52-6.57-1.13-13.05-2.34-19.43-3.64-24.03-14.02-51-40.43-51-98.62,0-27.37-2.09-48.45-8.32-65.32,5.25-4.79,11.22-9.37,17.83-13.7,0,0,0,0,0,0,.54-.35,1.08-.71,1.63-1.06,1.09-.7,2.2-1.39,3.33-2.08,1.69-1.03,3.42-2.05,5.18-3.05,1.18-.66,2.37-1.32,3.58-1.98,1.21-.65,2.43-1.3,3.67-1.94,1.86-.96,3.76-1.9,5.69-2.83.64-.31,1.29-.61,1.94-.92,2.6-1.23,5.26-2.42,7.98-3.57.61-.26,1.22-.52,1.83-.78.13-.05.27-.11.4-.16.63-.26,1.26-.52,1.9-.78,2.09-.86,4.22-1.69,6.38-2.5.84-.32,1.69-.64,2.54-.95.85-.31,1.71-.62,2.57-.93,28.26-10.08,61.52-17.11,97.66-20.06,64.89,22.65,79.08,51.21,79.08,122.62,0,89.84,64.29,103.93,82.79,113.62,14.92,7.82,71.18,28.31,42.6,61.95Z" /><path class="f" d="m224.29,335.24c1.69-1.04,3.41-2.06,5.18-3.05-1.76,1-3.49,2.02-5.18,3.05Z" /><path class="f" d="m236.72,328.27c1.86-.96,3.76-1.91,5.69-2.83-1.93.93-3.83,1.87-5.69,2.83Z" /><path class="q" d="m545.51,628.98h0c-4.86,13.29-20.22,25.13-42.43,33.99-25.49,10.17-60.01,16.41-98.01,16.41h-1.62c-38,0-72.52-6.24-98.01-16.41-22.21-8.86-37.57-20.7-42.43-33.98h0c1.49-4.1,3.98-8.05,7.36-11.81,9.52-10.64,26.1-19.82,47.37-26.55,7.47-2.38,15.52-4.45,24.04-6.16,18.66-3.77,39.58-5.88,61.67-5.88h1.62c22.09,0,43.01,2.11,61.67,5.88,8.52,1.71,16.57,3.78,24.04,6.16,21.27,6.73,37.85,15.91,47.37,26.55,3.38,3.76,5.87,7.71,7.36,11.8Z" /><path class="q" d="m503.08,662.97c-17.75,19.76-55.05,33.38-98.2,33.38h-1.24c-43.15,0-80.45-13.62-98.2-33.38,25.49,10.17,60.01,16.41,98.01,16.41h1.62c38,0,72.52-6.24,98.01-16.41Z" /><path class="p" d="m547.15,619.93c0,3.08-.56,6.1-1.64,9.05-1.49-4.09-3.98-8.04-7.36-11.8-9.52-10.64-26.1-19.82-47.37-26.55-7.47-2.38-15.52-4.45-24.04-6.16-18.66-3.77-39.58-5.88-61.67-5.88h-1.62c-22.09,0-43.01,2.11-61.67,5.88-8.52,1.71-16.57,3.78-24.04,6.16-21.27,6.73-37.85,15.91-47.37,26.55-3.38,3.76-5.87,7.71-7.36,11.8-1.08-2.95-1.64-5.97-1.64-9.05,0-4.04.96-7.99,2.81-11.81.5-1.03,1.06-2.06,1.69-3.07.17-.27.34-.55.52-.82.18-.27.36-.54.54-.81.38-.55.77-1.08,1.18-1.62.13-.17.26-.35.4-.52,1.55-1.96,3.33-3.88,5.34-5.74.54-.51,1.1-1.02,1.68-1.51.29-.25.59-.5.89-.75.29-.25.59-.49.9-.74.3-.25.61-.49.93-.74.31-.24.63-.48.95-.72.38-.3.78-.59,1.18-.88.26-.19.52-.38.79-.56,1.01-.72,2.05-1.42,3.13-2.11.36-.23.72-.46,1.09-.69.36-.23.73-.46,1.11-.69.37-.22.75-.45,1.13-.67,1.53-.9,3.11-1.78,4.75-2.64.82-.43,1.65-.85,2.5-1.27,4.45-2.19,9.26-4.25,14.41-6.16,16.36-6.07,36.08-10.57,57.85-12.97,11.59-1.28,23.76-1.96,36.31-1.96.27,0,.54,0,.81.01.27-.01.54-.01.81-.01,12.55,0,24.72.68,36.31,1.96,21.77,2.4,41.49,6.9,57.85,12.97,5.15,1.91,9.96,3.97,14.41,6.16.85.42,1.68.84,2.5,1.27,1.64.86,3.22,1.74,4.75,2.64.38.22.76.45,1.13.67.38.23.75.46,1.11.69.37.23.73.46,1.09.69,1.08.69,2.12,1.39,3.13,2.11.27.18.53.37.79.56.4.29.8.58,1.18.88.32.24.64.48.95.72.32.25.63.49.93.74.31.25.61.49.9.74.3.25.6.5.89.75.58.49,1.14,1,1.68,1.51,2.01,1.86,3.79,3.78,5.34,5.74.14.17.27.35.4.52.41.54.8,1.07,1.18,1.62.18.27.36.54.54.81.18.27.35.55.52.82.63,1.01,1.19,2.04,1.69,3.07,1.85,3.82,2.81,7.77,2.81,11.81Z" /><path class="t" d="m542.65,581.41v23.64c-.17-.27-.34-.55-.52-.82-.18-.27-.36-.54-.54-.81-.38-.55-.77-1.08-1.18-1.62-.13-.17-.26-.35-.4-.52-1.55-1.96-3.33-3.88-5.34-5.74-.54-.51-1.1-1.02-1.68-1.51-.29-.25-.59-.5-.89-.75-.29-.25-.59-.49-.9-.74-.3-.25-.61-.49-.93-.74-.31-.24-.63-.48-.95-.72-.38-.3-.78-.59-1.18-.88-.26-.19-.52-.38-.79-.56-1.01-.72-2.05-1.42-3.13-2.11-.36-.23-.72-.46-1.09-.69-.36-.23-.73-.46-1.11-.69-.37-.22-.75-.45-1.13-.67-1.53-.9-3.11-1.78-4.75-2.64-.82-.43-1.65-.85-2.5-1.27-4.45-2.19-9.26-4.25-14.41-6.16-16.36-6.07-36.08-10.57-57.85-12.97-11.59-1.28-23.76-1.96-36.31-1.96-.27,0-.54,0-.81.01-.27-.01-.54-.01-.81-.01-12.55,0-24.72.68-36.31,1.96-21.77,2.4-41.49,6.9-57.85,12.97-5.15,1.91-9.96,3.97-14.41,6.16-.85.42-1.68.84-2.5,1.27-1.64.86-3.22,1.74-4.75,2.64-.38.22-.76.45-1.13.67-.38.23-.75.46-1.11.69-.37.23-.73.46-1.09.69-1.08.69-2.12,1.39-3.13,2.11-.27.18-.53.37-.79.56-.4.29-.8.58-1.18.88-.32.24-.64.48-.95.72-.32.25-.63.49-.93.74-.31.25-.61.49-.9.74-.3.25-.6.5-.89.75-.58.49-1.14,1-1.68,1.51-2.01,1.86-3.79,3.78-5.34,5.74-.14.17-.27.35-.4.52-.41.54-.8,1.07-1.18,1.62-.18.27-.36.54-.54.81-.18.27-.35.55-.52.82v-23.64c2.5-4.07,6.02-7.97,10.42-11.65,2.54-2.13,5.38-4.18,8.49-6.16,7.69-4.87,17.04-9.24,27.72-12.97,24.65-8.6,56.35-13.77,90.95-13.77.27,0,.54,0,.81.01.27-.01.54-.01.81-.01,34.6,0,66.3,5.17,90.95,13.77,10.68,3.73,20.03,8.1,27.72,12.97,3.11,1.98,5.95,4.03,8.49,6.16,4.4,3.68,7.92,7.58,10.42,11.65Z" /><path class="k" d="m538.88,539.17v24.07c-1.91,2.24-4.14,4.42-6.65,6.52-2.54-2.13-5.38-4.18-8.49-6.16-7.69-4.87-17.04-9.24-27.72-12.97-24.65-8.6-56.35-13.77-90.95-13.77-.27,0-.54,0-.81.01-.27-.01-.54-.01-.81-.01-34.6,0-66.3,5.17-90.95,13.77-10.68,3.73-20.03,8.1-27.72,12.97-3.11,1.98-5.95,4.03-8.49,6.16-2.51-2.1-4.74-4.28-6.65-6.52v-24.07c1.11-4.49,1.06-10.39,4.41-14.53,18.08-22.26,62.16-39.1,120.05-40.75,3.08-.09,6.2-.13,9.35-.13h1.62c3.15,0,6.27.04,9.35.13,57.89,1.65,101.97,18.49,120.05,40.75,3.35,4.14,3.3,10.04,4.41,14.53Z" /><path class="p" d="m544.34,529.71c-.75,1.94-4.97,7.43-5.46,9.46-1.11-4.49-1.06-10.39-4.41-14.53-18.08-22.26-62.16-39.1-120.05-40.75-3.08-.09-6.2-.13-9.35-.13h-1.62c-3.15,0-6.27.04-9.35.13-57.89,1.65-101.97,18.49-120.05,40.75-3.35,4.14-3.3,10.04-4.41,14.53-.49-2.03-4.71-7.52-5.46-9.46-1.69-4.41-1.64-7.61.58-11.79,14.14-26.59,70.86-46.48,138.69-46.48h1.62c67.83,0,124.55,19.89,138.69,46.48,2.22,4.18,2.27,7.38.58,11.79Z" /><path class="v" d="m543.76,517.92c-14.14-26.59-70.86-46.48-138.69-46.48h-1.62c-67.83,0-124.55,19.89-138.69,46.48-2.22-4.18,1.35-18.86,2.24-23.22,3.96-19.38,57.98-49.2,136.45-49.2h1.62c78.47,0,132.49,29.82,136.45,49.2.89,4.36,4.46,19.04,2.24,23.22Z" /><path class="j" d="m453.87,655.76c0,8-22.21,14.48-49.61,14.48s-49.61-6.48-49.61-14.48c0-3.2,3.57-6.16,9.62-8.57,3.2-1.27,7.08-2.38,11.49-3.28,8.07-1.66,17.89-2.63,28.5-2.63s20.43.97,28.5,2.63c4.41.9,8.29,2.01,11.49,3.28,6.05,2.41,9.62,5.37,9.62,8.57Z" /><path class="r" d="m444.48,648.79c0,8.19-18.01,14.84-40.22,14.84s-40.22-6.65-40.22-14.84c0-.54.08-1.07.23-1.6,3.2-1.27,7.08-2.38,11.49-3.28,8.07-1.66,17.89-2.63,28.5-2.63s20.43.97,28.5,2.63c4.41.9,8.29,2.01,11.49,3.28.15.53.23,1.06.23,1.6Z" /><path class="o" d="m436.57,648.79c0,5.73-14.47,10.37-32.31,10.37s-32.31-4.64-32.31-10.37c0-1.77,1.38-3.43,3.81-4.88,8.07-1.66,17.89-2.63,28.5-2.63s20.43.97,28.5,2.63c2.43,1.45,3.81,3.11,3.81,4.88Z" /><path class="p" d="m404.26,610.09c54.51,0,98.69,19.2,98.69,42.89,0,23.4-43.11,42.42-96.69,42.88,42.04-.45,75.79-15.13,75.79-33.17,0-18.32-34.82-33.19-77.79-33.19-42.96,0-77.79,14.86-77.79,33.19,0,18.04,33.76,32.72,75.79,33.17-53.58-.47-96.69-19.48-96.69-42.88,0-23.69,44.19-42.89,98.69-42.89Z" /><path class="e" d="m570.08,592.98c28.58-33.64-27.68-54.13-42.6-61.95-18.5-9.69-82.79-23.78-82.79-113.62,0-71.41-14.19-99.97-79.08-122.62,12.56-1.03,25.48-1.56,38.65-1.56,72.48,0,137.1,16.19,179.06,41.45,23.54,81.82,17.61,223.77-13.24,258.3Z" /><path class="i" d="m570.08,592.98c28.58-33.64-27.68-54.13-42.6-61.95-18.5-9.69-82.79-23.78-82.79-113.62,0-71.41-14.19-99.97-79.08-122.62,12.56-1.03,25.48-1.56,38.65-1.56,72.48,0,137.1,16.19,179.06,41.45,23.54,81.82,17.61,223.77-13.24,258.3Z" /><ellipse class="k" cx="508.54" cy="410.73" rx="32.7" ry="39.7" transform="translate(-140.51 333.02) rotate(-32.1)" /><path class="m" d="m523.68,636s-6.17,5.41-12.39,8.21c-4.67,2.11-9.37,2.74-11.48-1.52l-.9-2.73s7.6-2.76,14.89-3.95c3.72-.6,7.36-.8,9.88-.01Z" /><path class="u" d="m514.29,637.31c.59,2.5-.65,5.09-3,6.9-4.67,2.11-9.37,2.74-11.48-1.52l-.9-2.73s7.6-2.76,14.89-3.95c.22.4.38.83.49,1.29Z" /><path class="m" d="m499.41,610.16s-3.55,6.34-11.41,10.34c-1.02.52-2.11,1-3.26,1.42-1.81.64-3.79,1.16-5.95,1.46,0,0,.2-1.51,1.12-3.51,1.15-2.53,3.44-5.85,7.88-7.91,2.87-1.32,6.66-2.11,11.63-1.81Z" /><path class="u" d="m489.72,615.05c.49,2.06-.24,4.13-1.72,5.45-.68.62-1.51,1.08-2.47,1.3-.26.06-.53.1-.79.12-1.89.17-3.69-.63-4.84-2.05,1.15-2.53,3.44-5.85,7.88-7.91.94.76,1.64,1.82,1.94,3.08Z" /><path class="m" d="m522.33,623.96s-6.37,9.71-22.92,5.4c0,0,.27-.4.86-1,1.81-1.82,6.71-5.45,16.64-4.99,1.66.07,3.46.26,5.42.59Z" /><path class="h" d="m404.26,702.9c-39.74,0-99-13.12-155.61-75.65-68.15-75.27-50.26-159.25-50.07-160.09.37-1.65.76-3.11,1.13-4.53,2.39-9.06,3.36-15.48-3.26-28.18l-.33-.63-.41-.57c-2.23-3.11-4.15-6.35-5.72-9.63-3.16-6.66-4.76-13.5-4.76-20.3,0-1.06.04-2.14.12-3.2,1.8-24.45,25.09-57.25,63.91-75.3,41.64-19.36,96.68-30.02,154.99-30.02s113.36,10.66,154.99,30.02c38.82,18.05,62.11,50.85,63.9,75.28.08,1.09.12,2.17.12,3.23,0,6.8-1.61,13.64-4.78,20.33-1.55,3.25-3.48,6.49-5.7,9.6l-.41.57-.33.63c-6.62,12.7-5.65,19.12-3.26,28.18.37,1.42.76,2.89,1.13,4.54.19.83,18.08,84.81-50.07,160.08-56.61,62.53-115.87,75.65-155.61,75.65Z" /></g></g></svg>