<svg viewBox="0 0 1115.96 889.45"><defs><style>.cls-1{isolation:isolate;}.cls-2{fill:#fff;}.cls-3{fill:#d2d2d2;}.cls-4{fill:#252525;}.cls-5{opacity:0.41;mix-blend-mode:multiply;fill:url(#radial-gradient);}.cls-6{opacity:0.7;mix-blend-mode:hard-light;fill:url(#radial-gradient-2);}.cls-7{fill:url(#radial-gradient-3);}.cls-8{fill:#0e0e0e;}.cls-9{fill:#5e5e5e;}.cls-10{fill:#010101;}.cls-11{fill:#292423;}.cls-12{fill:url(#radial-gradient-4);}.cls-13{fill:url(#radial-gradient-5);}.cls-14{fill:#333132;}.cls-15{fill:#030409;}.cls-16{fill:#231f20;}.cls-17{fill:#0c0b0b;}</style><radialGradient id="radial-gradient" cx="559.29" cy="766.34" fy="1639.0170627126045" r="1047.1" gradientTransform="translate(0 98.45) scale(1 0.87)" gradientUnits="userSpaceOnUse"><stop offset="0" stop-color="#fff" /><stop offset="0.09" stop-color="#f9f9f9" /><stop offset="0.21" stop-color="#e8e8e8" /><stop offset="0.35" stop-color="#cbcbcb" /><stop offset="0.5" stop-color="#a4a4a4" /><stop offset="0.66" stop-color="#717171" /><stop offset="0.83" stop-color="#343434" /><stop offset="0.91" stop-color="#121212" /></radialGradient><radialGradient id="radial-gradient-2" cx="557.98" cy="641.2" fx="-72.594861963212" fy="649.4674112190434" r="753.58" gradientUnits="userSpaceOnUse"><stop offset="0" stop-color="#fff" /><stop offset="0.05" stop-color="#e3e3e3" /><stop offset="0.14" stop-color="#b3b3b3" /><stop offset="0.24" stop-color="#878787" /><stop offset="0.34" stop-color="#636363" /><stop offset="0.45" stop-color="#464646" /><stop offset="0.56" stop-color="#2f2f2f" /><stop offset="0.68" stop-color="#1f1f1f" /><stop offset="0.82" stop-color="#151515" /><stop offset="1" stop-color="#121212" /></radialGradient><radialGradient id="radial-gradient-3" cx="421.47" cy="539.74" r="1.28" gradientTransform="matrix(-0.01, 1.06, -3.08, -0.04, 2089.36, 205.31)" gradientUnits="userSpaceOnUse"><stop offset="0" stop-color="#fff" /><stop offset="0.05" stop-color="#ebebeb" /><stop offset="0.19" stop-color="#b2b2b2" /><stop offset="0.34" stop-color="#818181" /><stop offset="0.48" stop-color="#595959" /><stop offset="0.62" stop-color="#3a3a3a" /><stop offset="0.75" stop-color="#242424" /><stop offset="0.88" stop-color="#171717" /><stop offset="1" stop-color="#121212" /></radialGradient><radialGradient id="radial-gradient-4" cx="845.32" cy="624.79" r="330.32" gradientUnits="userSpaceOnUse"><stop offset="0" stop-color="#171615" /><stop offset="0.2" stop-color="#141413" /><stop offset="1" stop-color="#121212" /></radialGradient><radialGradient id="radial-gradient-5" cx="760.33" cy="603.88" r="208.76" gradientUnits="userSpaceOnUse"><stop offset="0" stop-color="#181817" /><stop offset="0.24" stop-color="#141414" /><stop offset="1" stop-color="#121212" /></radialGradient></defs><g class="cls-1"><g id="Layer_1" data-name="Layer 1"><path class="cls-2" d="M1111.2,435.71s-29.26-49.64-31.28-116.69,7.48-186.42-152.5-253S558,0,558,0,348.51-.64,188.53,66,38.05,252,36,319,4.75,435.71,4.75,435.71" /><ellipse class="cls-3" cx="557.98" cy="459.53" rx="557.98" ry="181.67" /><path class="cls-4" d="M1093.54,463.48c0,98.15-239.78,163-535.56,163s-526.39-83.28-535.57-163C11.2,366.05,262.19,285.76,558,285.76S1093.54,365.33,1093.54,463.48Z" /><path class="cls-5" d="M905.52,477.47c0,11.09-7.77,21.72-22,31.53v25.87c0,184.3-145.72,333.71-325.48,333.71-89.88,0-171.25-37.35-230.15-97.74s-95.33-143.82-95.33-236V509c-14.2-9.82-22-20.44-22-31.53s7.77-21.73,22-31.53a156.61,156.61,0,0,1,25.84-14c66.67-23.6,176-39,299.64-39s233,15.39,299.64,39a157,157,0,0,1,25.84,14C897.75,455.73,905.52,466.36,905.52,477.47Z" /><path class="cls-6" d="M925.71,485.73c0,11.46-8.22,22.43-23.27,32.54V545c0,190.25-154.22,344.47-344.47,344.47A344.44,344.44,0,0,1,213.5,545V518.27c-15-10.13-23.25-21.08-23.25-32.54s8.22-22.42,23.25-32.55C265.75,418,400.27,392.94,558,392.94s292.22,25,344.47,60.24C917.49,463.3,925.71,474.27,925.71,485.73Z" /><path class="cls-7" d="M423.91,631c-1.7-1.45-3.32-2.89-4.89-4.32C420.59,628.1,422.23,629.54,423.91,631Z" /><ellipse class="cls-8" cx="1048.3" cy="473.76" rx="21.35" ry="7.69" /><ellipse class="cls-9" cx="1048.3" cy="472.29" rx="17.44" ry="6.21" /><ellipse class="cls-8" cx="1048.3" cy="469.82" rx="10.51" ry="3.74" /><ellipse class="cls-8" cx="67.66" cy="473.76" rx="21.35" ry="7.69" /><ellipse class="cls-9" cx="67.66" cy="472.29" rx="17.44" ry="6.21" /><ellipse class="cls-8" cx="67.66" cy="469.82" rx="10.51" ry="3.74" /><path class="cls-10" d="M888.13,499.71c-.26.36-.53.71-.81,1.07-.52.65-1.06,1.3-1.63,2a62.81,62.81,0,0,1-6.65,6.39l-1.11.89c-.81.64-1.64,1.28-2.5,1.91s-1.68,1.19-2.56,1.79c0,3.07,0,10.35,0,17.43,0,6.3,0,12.43-.11,15.29v0c0,.11,0,.22,0,.31A328.89,328.89,0,0,1,853,651.94a324.21,324.21,0,0,1-50.24,89.93c-5.33,6.61-12.66,11.74-20.72,15.42a81.11,81.11,0,0,1-25.14,6.78c-45.16-2.61-120.79-5.48-171.81-4.28-28.52.62-53.06,2.38-66.15,6.06-23,5.56-56.33,9.09-90.42,9.09-35.57,0-72-3.85-98.24-13.29a309.3,309.3,0,0,1-56.6-84.25c-.05-.12-.12-.26-.18-.38-.39-.88-.8-1.76-1.19-2.64a343.9,343.9,0,0,1-27.17-99.89c0-.12,0-.23,0-.35a336.49,336.49,0,0,1-1.87-35.4v-25c-10.87-7.52-17.86-15.53-20.27-23.88l-.43-1.62-.09-.46a22.49,22.49,0,0,1-.46-4.54c0-9.49,5.88-18.62,16.74-27.18l.13-.1q2.07-1.62,4.38-3.22a150.4,150.4,0,0,1,24.44-13.31l.23-.1.11,0c.27-.09.56-.2.83-.31h0c34.29-12.06,80.13-21.89,133.42-28.45l1.44-.17c43-4.92,89.89-7.65,136.86-8.25h0q10-.15,19.89-.14c92.48,0,183.18,8.25,243,24.3h0s0,0,0,0c4.79,1.19,9.53,2.37,14.21,3.6l1.2.32c.8.22,1.59.42,2.36.64,5.67,1.58,11.14,3.21,16.36,4.88l.11,0a159,159,0,0,1,19.58,7.85c.35.16.69.34,1,.52a102.19,102.19,0,0,1,9.1,5c1.23.76,2.43,1.5,3.58,2.27.63.42,1.24.86,1.87,1.29.88.6,1.73,1.19,2.56,1.79s1.69,1.27,2.5,1.91c.38.29.75.61,1.11.89a62.81,62.81,0,0,1,6.65,6.39c.57.65,1.11,1.3,1.63,1.95.28.36.55.71.81,1.07C896,477.51,896,488.91,888.13,499.71Z" /><path class="cls-11" d="M894.19,483.21c0,10.74-7.52,21-21.27,30.5v25c0,2.67,0,5.34-.11,8-7.3-49.23-26.68-91.83-69.37-120.5a441.76,441.76,0,0,1,44.48,12.94,150.52,150.52,0,0,1,25,13.54C886.67,462.19,894.19,472.47,894.19,483.21Z" /><path class="cls-11" d="M542.16,401.53c-.54.17-1.07.35-1.6.54h0C422.62,441.81,409.28,554.38,399.07,615.56c-.26,1.5-.52,3-.79,4.45-12.61,69-44.57,96.08-82.36,125.08a324.3,324.3,0,0,1-42.28-67.69c-.05-.12-.12-.26-.18-.38-.39-.88-.8-1.76-1.19-2.64a326.43,326.43,0,0,1-27.17-99.89c0-.12,0-.23,0-.35a336.49,336.49,0,0,1-1.87-35.4v-25c-10.87-7.52-17.86-15.53-20.27-23.88l-.43-1.62-.09-.46a22.49,22.49,0,0,1-.46-4.54c0-9.49,5.88-18.62,16.74-27.18l.13-.1q2.07-1.62,4.38-3.22a150.82,150.82,0,0,1,24.67-13.41l.11,0,.21-.09.62-.22h0c34.29-12.06,80.13-21.89,133.42-28.45l1.44-.17A1272.2,1272.2,0,0,1,542.16,401.53Z" /><path class="cls-12" d="M789.56,708.59C761.53,770,666.42,821.51,605.61,814c-58.77-7.21-75.16-63.41-50.9-122.6.84-2.07,1.74-4.13,2.68-6.2,19.88-43.57,67.84-80.19,115.75-95.14,19.64-6.14,39.28-8.63,57-6.46C790.92,591.11,817.59,647.16,789.56,708.59Z" /><path class="cls-13" d="M606.16,625.81a211.71,211.71,0,0,1,67-35.71,108.43,108.43,0,0,1,25.9,0c51.75,6.35,74.8,51.16,51.38,99.88s-84.56,83.18-136.3,76.83c-42.87-5.26-66-36.92-59.41-75.33.84-2.07,1.74-4.13,2.68-6.2,10.17-22.28,27.68-42.75,48.77-59.43" /><path class="cls-14" d="M606,625.66q7.32-6.13,15.2-11.6t16.28-10.12a204.42,204.42,0,0,1,35.06-15.66l.14,0,.2,0a108.41,108.41,0,0,1,27.65-.19,83.3,83.3,0,0,1,26.78,7.74,64.59,64.59,0,0,1,22.08,17.51A59.82,59.82,0,0,1,761.36,639a66.16,66.16,0,0,1,1.39,14.16,78.11,78.11,0,0,1-1.34,14.09,98.58,98.58,0,0,1-9.15,26.51c-8.41,16.72-20.78,31.12-35,43a158.82,158.82,0,0,1-23,15.56,156.94,156.94,0,0,1-25.4,11.26,136,136,0,0,1-27.12,6.27,113.48,113.48,0,0,1-27.93.11,85.1,85.1,0,0,1-27-7.87,65.24,65.24,0,0,1-22-17.61A60.62,60.62,0,0,1,552.85,719a72,72,0,0,1-.1-27.87l0-.26.07-.15c1.47-3.25,2.84-6.52,4.52-9.68.81-1.59,1.7-3.13,2.55-4.7s1.81-3.06,2.75-4.58a155.65,155.65,0,0,1,12.55-17.17,181,181,0,0,1,14.57-15.38A197.51,197.51,0,0,1,606,625.66l.25.31a189.43,189.43,0,0,0-29.95,29.49,153.35,153.35,0,0,0-12.06,17.23c-.89,1.51-1.75,3-2.61,4.57s-1.66,3.09-2.42,4.67c-1.56,3.14-2.9,6.39-4.3,9.6l0,0a69.87,69.87,0,0,0,.42,26.92,58,58,0,0,0,11.67,24.15,62.21,62.21,0,0,0,21.19,16.5,83,83,0,0,0,25.94,7.39,109.71,109.71,0,0,0,27-.24A132.63,132.63,0,0,0,667.59,760a152.59,152.59,0,0,0,24.72-11.1,159.85,159.85,0,0,0,22.39-15.26c13.94-11.47,26-25.43,34.24-41.57a94.79,94.79,0,0,0,8.94-25.48,73.3,73.3,0,0,0,1.34-13.46A62.47,62.47,0,0,0,758,639.67a58,58,0,0,0-11.09-24.41,61.54,61.54,0,0,0-20.83-16.93,80.72,80.72,0,0,0-25.82-7.82,106.09,106.09,0,0,0-27.06-.16h.05a202.17,202.17,0,0,0-35.07,14.79A216.27,216.27,0,0,0,606.29,626Z" /><path class="cls-15" d="M614.3,635.72c20.46-15.42,46.28-23.92,69.58-21,38.07,4.83,55,38.39,37.84,75s-62,62.32-100,57.5-55-38.39-37.84-75c6.66-14.2,17.49-26.76,30.46-36.54" /><path class="cls-14" d="M614.15,635.52a123,123,0,0,1,11.32-8.24,114.28,114.28,0,0,1,12.38-6.68,100.39,100.39,0,0,1,27.09-8.19,85.45,85.45,0,0,1,14.32-.78,73.18,73.18,0,0,1,14.36,2,56.69,56.69,0,0,1,13.71,5.29A50.36,50.36,0,0,1,719.17,628a47.25,47.25,0,0,1,12.77,26.8,63.94,63.94,0,0,1-3.28,29.32,90.72,90.72,0,0,1-14.09,25.49A109.69,109.69,0,0,1,694,729.84a115.17,115.17,0,0,1-25.08,14.32,108.16,108.16,0,0,1-13.72,4.68,89.75,89.75,0,0,1-14.31,2.66,78.44,78.44,0,0,1-29.14-2.22A58.25,58.25,0,0,1,598,743.51a50.81,50.81,0,0,1-11.6-9.48,46.17,46.17,0,0,1-8.09-12.58,45.78,45.78,0,0,1-3.74-14.34,61.87,61.87,0,0,1,4.18-28.54,89,89,0,0,1,14.62-24.28,100.61,100.61,0,0,1,9.76-10.14,111.38,111.38,0,0,1,11-8.63l.3.4a107.09,107.09,0,0,0-19.78,19.38,86.79,86.79,0,0,0-13.45,24.15,59.33,59.33,0,0,0-3.32,27.23,43.83,43.83,0,0,0,11.37,24.67,46.93,46.93,0,0,0,10.8,8.53,54.93,54.93,0,0,0,12.77,5.18,73.88,73.88,0,0,0,27.47,1.77A97.31,97.31,0,0,0,667,739.68a110.71,110.71,0,0,0,24-13.83,105.12,105.12,0,0,0,19.79-19.29,87,87,0,0,0,13.48-24.07,59.14,59.14,0,0,0,3.38-27.18,43.81,43.81,0,0,0-11.31-24.68,46.49,46.49,0,0,0-10.78-8.55,55.05,55.05,0,0,0-12.77-5.22,69.9,69.9,0,0,0-13.65-2.21,82.16,82.16,0,0,0-13.85.39,98.51,98.51,0,0,0-26.74,7.09,114.94,114.94,0,0,0-12.44,6.15,122.14,122.14,0,0,0-11.6,7.64Z" /><path class="cls-16" d="M627.24,719.48c-11.5.29-23.76-5-28.19-14.37-14.75-35.12,31.43-75.7,64.46-74.7,26.2-.72,38.49,22.36,26.88,46.08C679.71,700.6,652,719.48,627.24,719.48Z" /><path class="cls-17" d="M730.72,476.92c-27.59-6.46-59.39.5-90.64,10C563.84,510,487.52,566.51,455.89,633.78c-1.5,3.2-2.93,6.38-4.27,9.57-38.6,91.39-11.1,169.6,81,189.28,87.63,18.73,256.64-36.21,299.45-164C865.22,569.63,821.5,498.19,730.72,476.92Zm58.84,231.67C761.53,770,666.42,821.51,605.61,814c-58.77-7.21-75.16-63.41-50.9-122.6.84-2.07,1.74-4.13,2.68-6.2,19.88-43.57,67.84-80.19,115.75-95.14,19.64-6.14,39.28-8.63,57-6.46C790.92,591.11,817.59,647.16,789.56,708.59Z" /></g></g></svg>