<svg id="products" viewBox="0 0 230.9 407.4"><defs><style>.cls-1{fill:#f1f1f1;}.cls-2{fill:url(#linear-gradient);}.cls-3{fill:#00c700;}</style><linearGradient id="linear-gradient" x1="57.42" y1="-8.62" x2="58.14" y2="442" gradientUnits="userSpaceOnUse"><stop offset="0" stop-color="#fff" stop-opacity="0" /><stop offset="0.36" stop-color="#fcfcfc" stop-opacity="0.02" /><stop offset="0.56" stop-color="#f1f1f1" stop-opacity="0.07" /><stop offset="0.71" stop-color="#dfdfdf" stop-opacity="0.16" /><stop offset="0.85" stop-color="#c4c4c4" stop-opacity="0.28" /><stop offset="0.97" stop-color="#a3a3a3" stop-opacity="0.45" /><stop offset="1" stop-color="#989898" stop-opacity="0.5" /></linearGradient></defs><g id="MT"><path class="cls-1" d="M198.58,8.85C170.84,4.33,143.35,0,115.45,0S60.06,4.33,32.33,8.85C13.72,11.89,0,25.21,0,44.06v319c0,19.3,15.12,32.38,34.35,34.09l81.1,10.25,81.11-10.25c19.22-1.71,34.34-14.79,34.34-34.09v-319C230.9,25.21,217.19,11.89,198.58,8.85Z" /><path class="cls-2" d="M115.45,0V407.4l-81.1-10.25C15.12,395.44,0,382.36,0,363.06v-319C0,25.21,13.72,11.89,32.33,8.85,60.06,4.33,87.55,0,115.45,0Z" /><circle class="cls-3" cx="196.07" cy="41.37" r="5.87" /></g></svg>