<svg id="a" width="512.04" height="558.19" viewBox="0 0 512.04 558.19"><defs><style>.e{fill:url(#b);}.e,.f{opacity:.27;}.g{fill:url(#d);}.h{fill:#e9e8e8;}.i{fill:#525856;}.f{fill:url(#c);}</style><linearGradient id="b" x1="256.02" y1="83.45" x2="256.02" y2="-13.06" gradientUnits="userSpaceOnUse"><stop offset="0" stop-color="#fff" /><stop offset=".26" stop-color="#fcfcfc" stop-opacity=".99" /><stop offset=".4" stop-color="#f5f5f5" stop-opacity=".97" /><stop offset=".51" stop-color="#e9e9e9" stop-opacity=".93" /><stop offset=".6" stop-color="#d8d7d7" stop-opacity=".88" /><stop offset=".69" stop-color="#c2c0c1" stop-opacity=".81" /><stop offset=".77" stop-color="#a6a4a5" stop-opacity=".72" /><stop offset=".84" stop-color="#858384" stop-opacity=".61" /><stop offset=".91" stop-color="#5f5c5d" stop-opacity=".49" /><stop offset=".97" stop-color="#353233" stop-opacity=".36" /><stop offset="1" stop-color="#231f20" stop-opacity=".3" /></linearGradient><linearGradient id="c" x1="256.02" y1="164.08" x2="256.02" y2="-2.39" gradientTransform="translate(0 558.19) scale(1 -1)" gradientUnits="userSpaceOnUse"><stop offset="0" stop-color="#fff" /><stop offset=".12" stop-color="#fafafa" /><stop offset=".26" stop-color="#ededed" /><stop offset=".39" stop-color="#d8d7d7" /><stop offset=".54" stop-color="#bab8b9" /><stop offset=".68" stop-color="#939192" /><stop offset=".83" stop-color="#646162" /><stop offset=".97" stop-color="#2d292a" /><stop offset="1" stop-color="#231f20" /></linearGradient><linearGradient id="d" x1="167.25" y1="190.32" x2="378.7" y2="401.78" gradientUnits="userSpaceOnUse"><stop offset="0" stop-color="#2bb673" /><stop offset=".3" stop-color="#00a651" /><stop offset=".62" stop-color="#8dc63f" /><stop offset=".86" stop-color="#006838" /><stop offset="1" stop-color="#00a14b" /></linearGradient></defs><polygon class="h" points="512.4 56.54 512.4 501.65 256.2 558.21 0 501.65 0 56.54 256.2 -.03 512.4 56.54" /><polygon class="e" points="512.22 113.14 256.02 56.57 -.18 113.14 -.18 56.57 256.02 0 512.04 56.53 512.22 113.14" /><polygon class="f" points="512.22 445.05 256.02 501.62 -.18 445.05 -.18 501.62 256.02 558.19 512.04 501.66 512.22 445.05" /><circle class="g" cx="256.02" cy="279.1" r="73.91" /><circle class="h" cx="256.02" cy="279.1" r="65.1" /><circle class="i" cx="256.02" cy="321.78" r="3.37" /><path class="i" d="m260.34,289.54c0,5.13,3.92,8.24,8.39,8.24,1.76,0,3.12-.42,3.62-.57v-4.27c-.17.09-1.48.84-3.34.84-2.65,0-4.36-1.88-4.36-4.24s1.78-4.24,4.36-4.24c1.9,0,3.18.77,3.34.85v-4.27c-.37-.11-1.76-.57-3.62-.57-4.84,0-8.39,3.48-8.39,8.23" /><path class="i" d="m218.86,289.54c0,5.13,3.92,8.24,8.38,8.24,1.78,0,3.13-.42,3.63-.57v-4.27c-.18.09-1.47.84-3.34.84-2.65,0-4.36-1.88-4.36-4.24s1.78-4.24,4.36-4.24c1.9,0,3.17.77,3.34.85v-4.27c-.37-.11-1.76-.57-3.63-.57-4.83,0-8.38,3.48-8.38,8.23" /><path class="i" d="m284.87,281.31c-4.85,0-8.32,3.68-8.32,8.23s3.47,8.24,8.32,8.24,8.32-3.69,8.32-8.24-3.48-8.23-8.32-8.23m0,12.41c-2.36,0-4.11-1.87-4.11-4.19s1.75-4.18,4.11-4.18,4.11,1.87,4.11,4.18-1.76,4.19-4.11,4.19" /><path class="i" d="m252.74,287.89l-1.1-.35c-.65-.21-1.82-.55-1.82-1.51,0-.77.86-1.31,2.46-1.31,1.37,0,3.05.47,3.11.49v-3.4c-.12-.03-1.94-.51-3.87-.51-3.67,0-5.87,2-5.87,4.97,0,2.63,1.85,3.95,4.06,4.65.25.08.61.2.85.28.98.31,1.77.77,1.77,1.58,0,.91-.91,1.49-2.89,1.49-1.74,0-3.4-.5-3.75-.59v3.66c.2.04,2.18.43,4.29.43,3.04,0,6.52-1.34,6.52-5.34,0-1.93-1.18-3.72-3.75-4.54" /><path class="i" d="m212.67,262.81c-1.09,0-1.98.89-1.98,1.99v4.17c0,1.11.89,1.99,1.98,1.99s1.97-.88,1.97-1.99v-4.17c0-1.09-.88-1.99-1.97-1.99" /><path class="i" d="m223.51,270.95c1.09,0,1.97-.88,1.97-1.99v-9.65c0-1.09-.89-1.99-1.97-1.99s-1.97.9-1.97,1.99v9.65c0,1.11.88,1.99,1.97,1.99" /><path class="i" d="m234.35,249.84c-1.09,0-1.98.89-1.98,1.98v21.11c0,1.1.89,1.99,1.98,1.99s1.97-.89,1.97-1.99v-21.11c0-1.09-.89-1.98-1.97-1.98" /><path class="i" d="m247.16,268.97v-9.65c0-1.09-.88-1.99-1.97-1.99s-1.97.9-1.97,1.99v9.65c0,1.11.89,1.99,1.97,1.99s1.97-.88,1.97-1.99" /><path class="i" d="m256.03,262.81c-1.09,0-1.98.89-1.98,1.99v4.17c0,1.11.89,1.99,1.98,1.99s1.96-.88,1.96-1.99v-4.17c0-1.09-.88-1.99-1.96-1.99" /><path class="i" d="m266.87,270.95c1.09,0,1.97-.88,1.97-1.99v-9.65c0-1.09-.88-1.99-1.97-1.99s-1.97.9-1.97,1.99v9.65c0,1.11.88,1.99,1.97,1.99" /><path class="i" d="m279.68,272.93v-21.11c0-1.1-.88-1.99-1.97-1.99s-1.97.89-1.97,1.99v21.11c0,1.1.88,1.99,1.97,1.99s1.97-.89,1.97-1.99" /><path class="i" d="m288.54,270.95c1.11,0,1.99-.88,1.99-1.99v-9.65c0-1.09-.88-1.99-1.99-1.99s-1.97.9-1.97,1.99v9.65c0,1.11.88,1.99,1.97,1.99" /><path class="i" d="m299.39,262.81c-1.09,0-1.97.89-1.97,1.99v4.17c0,1.11.88,1.99,1.97,1.99s1.97-.88,1.97-1.99v-4.17c0-1.09-.89-1.99-1.97-1.99" /><rect class="i" x="236.34" y="281.59" width="3.97" height="15.9" /></svg>