<svg viewBox="0 0 438.96 651.52"><defs><style>.a{fill:#fff;}.b{fill:#00c700;}.c{fill:none;stroke:#fff;stroke-miterlimit:10;}.d{fill:url(#a);}.e{fill:#d6d6d6;}.f{fill:#9d9f9e;}</style><linearGradient id="a" x1="79.42" y1="-13.92" x2="79.42" y2="674.7" gradientUnits="userSpaceOnUse"><stop offset="0" stop-color="#fff" stop-opacity="0" /><stop offset="0.36" stop-color="#fcfcfc" stop-opacity="0.02" /><stop offset="0.56" stop-color="#f1f1f1" stop-opacity="0.07" /><stop offset="0.71" stop-color="#dfdfdf" stop-opacity="0.16" /><stop offset="0.85" stop-color="#c4c4c4" stop-opacity="0.28" /><stop offset="0.97" stop-color="#a3a3a3" stop-opacity="0.45" /><stop offset="1" stop-color="#989898" stop-opacity="0.5" /></linearGradient></defs><path class="a" d="M277,4.24C260.68,1.53,197.23,0,158.84,0S57,1.53,40.64,4.24C0,11,0,40.31,0,70.47V580.62c3.13,63.88,13.83,65.59,68.22,69.78l90.62,1.12,90.62-1.12c54.39-4.19,65.09-5.9,68.22-69.78V70.47C317.68,40.31,317.68,11,277,4.24Z" /><circle class="b" cx="263.39" cy="57.92" r="9.5" /><line class="c" x1="158.84" y1="651.52" x2="158.84" /><path class="d" d="M158.84,0V651.52L68.22,650.4C13.83,646.21,3.13,644.5,0,580.62V70.47C0,40.31,0,11,40.64,4.24,57,1.53,120.45,0,158.84,0Z" /><path class="e" d="M417,556.07H375.34c-12.14,0-35.16-9.84-35.16-22V117.42c0-12.14,23-22,35.16-22H417a22,22,0,0,1,22,22V534.1A22,22,0,0,1,417,556.07Z" /><path class="a" d="M439,117.42V534.09a22,22,0,0,1-22,22H375.34l-1,0a18.91,18.91,0,0,1-17.85-18.88V114.43a18.9,18.9,0,0,1,18.9-18.9H419A22,22,0,0,1,439,117.42Z" /><polygon class="f" points="347.15 362.31 346.03 361.23 346.69 357.05 345.76 356.73 346.7 350.41 347.83 351.45 347.32 354.86 348.27 355.19 347.15 362.31" /><polygon class="f" points="349.7 363.19 348.59 362.11 349.25 357.94 348.32 357.61 349.26 351.3 350.38 352.34 349.88 355.75 350.83 356.08 349.7 363.19" /><path class="f" d="M345.53,337.63c-.06-2-.59-19.31,1.41-23,.35-.67.79-.93,1.27-.77h0a2.6,2.6,0,0,1,1.26,1.64c2,5.08,1.32,22,1.24,23.94l-1.17-.58c.29-6.84.29-18.87-.93-22-.18-.44-.31-.51-.41-.57s-.24,0-.41.29c-1.24,2.32-1.33,14.31-1.09,21.32Z" /></svg>