<svg id="a" width="595.28" height="841.89" viewBox="0 0 595.28 841.89"><defs><style>.b{fill:#575757;}.c{fill:#242424;}.d{fill:#808285;}.e{fill:#2e2e2e;}.f{fill:#e6e5e3;}</style></defs><rect class="f" x="68.28" y="62.48" width="453.8" height="713.39" rx="59.12" ry="59.12" /><circle class="c" cx="297.64" cy="419.17" r="135.3" /><path class="b" d="m417.42,419.17c0,1.97-.05,3.93-.15,5.88-3.06,63.43-55.44,113.9-119.63,113.9s-116.57-50.47-119.63-113.9c-.1-1.95-.15-3.91-.15-5.88,0-66.15,53.63-119.78,119.78-119.78s119.78,53.63,119.78,119.78Z" /><path class="e" d="m417.27,425.05c-3.06,63.43-55.44,113.9-119.63,113.9s-116.57-50.47-119.63-113.9c3.06-63.43,55.45-113.9,119.63-113.9s116.57,50.47,119.63,113.9Z" /><path class="d" d="m189.9,377.91c30.82-64.91,113.89-87.72,173.5-47.61,18.91,12.44,34.07,30.41,43.11,51.14-4.84-9.91-10.8-19.88-18.2-28.34-56.21-65.24-159.96-51.75-198.41,24.82h0Z" /><circle class="c" cx="297.64" cy="662.15" r="10.13" /></svg>