<svg id="products" viewBox="0 0 283.22 454.16"><defs><style>.cls-1{fill:url(#linear-gradient);}.cls-2{fill:url(#linear-gradient-2);}.cls-3{fill:url(#linear-gradient-3);}.cls-4{fill:url(#linear-gradient-4);}.cls-5{fill:url(#linear-gradient-5);}.cls-6{fill:url(#linear-gradient-6);}.cls-7{fill:url(#linear-gradient-7);}.cls-8{fill:#dedcd9;}.cls-9{fill:#b3b3b3;}</style><linearGradient id="linear-gradient" x1="71.47" y1="162.7" x2="71.3" y2="197.76" gradientUnits="userSpaceOnUse"><stop offset="0" stop-color="#b3b3b3" /><stop offset="0.05" stop-color="#c6c6c7" /><stop offset="0.11" stop-color="#d6d6d8" /><stop offset="0.19" stop-color="#e2e2e3" /><stop offset="0.29" stop-color="#e8e8ea" /><stop offset="0.59" stop-color="#eaeaec" /><stop offset="0.69" stop-color="#e6e6e7" /><stop offset="0.81" stop-color="#d9d9da" /><stop offset="0.93" stop-color="#c4c4c4" /><stop offset="1" stop-color="#b3b3b3" /></linearGradient><linearGradient id="linear-gradient-2" x1="53.9" y1="84.22" x2="87.97" y2="84.22" gradientUnits="userSpaceOnUse"><stop offset="0" stop-color="#b3b3b3" /><stop offset="0.04" stop-color="#c6c6c7" /><stop offset="0.09" stop-color="#d6d6d8" /><stop offset="0.16" stop-color="#e2e2e3" /><stop offset="0.24" stop-color="#e8e8ea" /><stop offset="0.49" stop-color="#eaeaec" /><stop offset="0.75" stop-color="#e8e8ea" /><stop offset="0.84" stop-color="#e2e2e3" /><stop offset="0.91" stop-color="#d6d6d8" /><stop offset="0.96" stop-color="#c6c6c7" /><stop offset="1" stop-color="#b3b3b3" /></linearGradient><linearGradient id="linear-gradient-3" x1="61.29" y1="191.98" x2="82.01" y2="191.98" href="#linear-gradient" /><linearGradient id="linear-gradient-4" x1="211.74" y1="162.26" x2="212.09" y2="194.9" href="#linear-gradient" /><linearGradient id="linear-gradient-5" x1="194.52" y1="84.22" x2="228.98" y2="84.22" href="#linear-gradient-2" /><linearGradient id="linear-gradient-6" x1="201.21" y1="191.98" x2="221.93" y2="191.98" gradientTransform="translate(423.14 383.95) rotate(-180)" href="#linear-gradient" /><linearGradient id="linear-gradient-7" x1="26.23" y1="209.83" x2="260.94" y2="452" gradientUnits="userSpaceOnUse"><stop offset="0" stop-color="#e8e7e2" /><stop offset="1" stop-color="#b2b2ae" /></linearGradient></defs><g id="MG"><polygon class="cls-1" points="87.76 162.5 79.78 178.85 63.17 178.85 55.19 162.5 87.76 162.5" /><path class="cls-2" d="M71.47,168.43c-8.13,0-17.19-5.66-17.19-7.17L54.23,2.82a1,1,0,0,1,.77-1A86.9,86.9,0,0,1,69.1,0c3.58-.14,13.18.54,16.14.76a1,1,0,0,1,.9,1L88.7,161.29c0,1.5-9.09,7.14-17.23,7.14Z" /><rect class="cls-3" x="61.29" y="178.42" width="20.72" height="27.11" rx="1.04" /><polygon class="cls-4" points="195.46 162.5 203.44 178.85 220.05 178.85 228.03 162.5 195.46 162.5" /><path class="cls-5" d="M211.74,168.43c8.14,0,17.2-5.66,17.2-7.17L229,2.82a1,1,0,0,0-.76-1A86.9,86.9,0,0,0,214.12,0c-3.58-.14-13.18.54-16.14.76a1,1,0,0,0-.9,1l-2.56,159.55c0,1.5,9.09,7.14,17.22,7.14Z" /><rect class="cls-6" x="201.21" y="178.42" width="20.72" height="27.11" rx="1.04" transform="translate(423.14 383.95) rotate(180)" /><rect class="cls-7" y="203.6" width="283.22" height="250.55" rx="40.27" /><rect class="cls-8" x="19.48" y="190.42" width="244.26" height="276.92" rx="37.12" transform="translate(470.49 187.27) rotate(90)" /><g id="logo.cisco"><polygon class="cls-9" points="133.27 377.82 131.15 377.82 131.15 370.38 133.27 370.38 133.27 377.82 133.27 377.82" /><path class="cls-9" d="M150.28,372.51a4,4,0,0,0-1.77-.4,2,2,0,1,0,0,4,3.93,3.93,0,0,0,1.77-.4v2a7.31,7.31,0,0,1-1.92.26c-2.38,0-4.46-1.45-4.46-3.85,0-2.22,1.89-3.85,4.46-3.85a6.77,6.77,0,0,1,1.92.27v2Z" /><path class="cls-9" d="M128.25,372.51a3.94,3.94,0,0,0-1.77-.4,2,2,0,1,0,0,4,3.93,3.93,0,0,0,1.77-.4v2a7.31,7.31,0,0,1-1.92.26c-2.38,0-4.45-1.45-4.45-3.85,0-2.22,1.88-3.85,4.45-3.85a6.7,6.7,0,0,1,1.92.27v2Z" /><path class="cls-9" d="M161.34,374.1c0,2.13-1.85,3.85-4.42,3.85s-4.41-1.72-4.41-3.85,1.84-3.85,4.41-3.85,4.42,1.73,4.42,3.85Zm-4.42-2a2,2,0,1,0,2.18,2,2.05,2.05,0,0,0-2.18-2Z" /><path class="cls-9" d="M141.27,372.07a8.16,8.16,0,0,0-1.65-.22c-.85,0-1.31.25-1.31.61s.62.6,1,.7l.58.17c1.37.39,2,1.22,2,2.13,0,1.86-1.85,2.49-3.47,2.49a14.08,14.08,0,0,1-2.27-.2V376a8.77,8.77,0,0,0,2,.28c1,0,1.53-.28,1.53-.7s-.41-.59-.94-.74l-.45-.13c-1.18-.33-2.15-.95-2.15-2.18,0-1.39,1.16-2.32,3.11-2.32a10.73,10.73,0,0,1,2.06.23v1.59Z" /><path class="cls-9" d="M119.89,362.38a1,1,0,0,0-2.07,0v2.17a1,1,0,0,0,2.07,0v-2.17Z" /><path class="cls-9" d="M125.58,359.53a1,1,0,0,0-2.07,0v5a1,1,0,0,0,2.07,0v-5Z" /><path class="cls-9" d="M131.27,355.64a1,1,0,1,0-2.07,0v11a1,1,0,1,0,2.07,0v-11Z" /><path class="cls-9" d="M137,359.53a1,1,0,0,0-2.07,0v5a1,1,0,0,0,2.07,0v-5Z" /><path class="cls-9" d="M142.64,362.38a1,1,0,0,0-2.07,0v2.17a1,1,0,0,0,2.07,0v-2.17Z" /><path class="cls-9" d="M148.33,359.53a1,1,0,0,0-2.06,0v5a1,1,0,1,0,2.06,0v-5Z" /><path class="cls-9" d="M154,355.64a1,1,0,1,0-2.06,0v11a1,1,0,1,0,2.06,0v-11Z" /><path class="cls-9" d="M159.72,359.53a1,1,0,0,0-2.09,0v5a1,1,0,0,0,2.09,0v-5Z" /><path class="cls-9" d="M165.39,362.38a1,1,0,0,0-2.06,0v2.17a1,1,0,1,0,2.06,0v-2.17Z" /></g></g></svg>