<svg viewBox="0 0 283.22 657.7"><defs><style>.a{fill:url(#a);}.b{fill:url(#b);}.c{fill:url(#c);}.d{fill:url(#d);}.e{fill:url(#e);}.f{fill:url(#f);}.g{fill:url(#g);}.h{fill:url(#h);}.i{fill:url(#i);}.j{fill:url(#j);}.k{fill:url(#k);}.l{fill:url(#l);}.m{fill:url(#m);}.n{fill:url(#n);}.o{fill:#b4b4b4;}</style><linearGradient id="a" x1="71.48" y1="65.76" x2="71.48" y2="522.72" gradientUnits="userSpaceOnUse"><stop offset="0" stop-color="#b4b4b4" /><stop offset="0.04" stop-color="#c7c6c7" /><stop offset="0.09" stop-color="#d6d7d8" /><stop offset="0.16" stop-color="#e2e2e3" /><stop offset="0.24" stop-color="#e9e8ea" /><stop offset="0.49" stop-color="#eaeaec" /><stop offset="0.75" stop-color="#e9e8ea" /><stop offset="0.84" stop-color="#e2e2e3" /><stop offset="0.91" stop-color="#d6d7d8" /><stop offset="0.96" stop-color="#c7c6c7" /><stop offset="1" stop-color="#b4b4b4" /></linearGradient><linearGradient id="b" x1="53.9" y1="562.23" x2="87.97" y2="562.23" gradientTransform="matrix(1, 0, 0, -1, 0, 646.45)" href="#a" /><linearGradient id="c" x1="61.29" y1="454.46" x2="82.01" y2="454.46" gradientTransform="matrix(1, 0, 0, -1, 0, 646.45)" gradientUnits="userSpaceOnUse"><stop offset="0" stop-color="#b4b4b4" /><stop offset="0.05" stop-color="#c7c6c7" /><stop offset="0.11" stop-color="#d6d7d8" /><stop offset="0.19" stop-color="#e2e2e3" /><stop offset="0.29" stop-color="#e9e8ea" /><stop offset="0.59" stop-color="#eaeaec" /><stop offset="0.69" stop-color="#e6e6e7" /><stop offset="0.81" stop-color="#d9d9da" /><stop offset="0.93" stop-color="#c4c4c4" /><stop offset="1" stop-color="#b4b4b4" /></linearGradient><linearGradient id="d" x1="211.75" y1="65.76" x2="211.75" y2="522.72" href="#a" /><linearGradient id="e" x1="194.52" y1="562.22" x2="229" y2="562.22" gradientTransform="matrix(1, 0, 0, -1, 0, 646.45)" href="#a" /><linearGradient id="f" x1="201.21" y1="454.46" x2="221.93" y2="454.46" href="#c" /><linearGradient id="g" x1="71.48" y1="47.5" x2="71.48" y2="504.46" href="#a" /><linearGradient id="h" x1="53.9" y1="381.59" x2="87.97" y2="381.59" gradientTransform="translate(0 191.89)" href="#a" /><linearGradient id="i" x1="61.29" y1="273.82" x2="82.01" y2="273.82" gradientTransform="translate(0 191.89)" href="#c" /><linearGradient id="j" x1="211.75" y1="46.73" x2="211.75" y2="504.49" href="#a" /><linearGradient id="k" x1="194.52" y1="381.58" x2="229" y2="381.58" gradientTransform="translate(0 191.89)" href="#a" /><linearGradient id="l" x1="201.21" y1="273.82" x2="221.93" y2="273.82" gradientTransform="translate(0 191.89)" href="#c" /><linearGradient id="m" x1="26.23" y1="436.61" x2="260.94" y2="194.44" gradientTransform="matrix(1, 0, 0, -1, 0, 646.45)" gradientUnits="userSpaceOnUse"><stop offset="0" stop-color="#e8e7e2" /><stop offset="1" stop-color="#b2b3af" /></linearGradient><linearGradient id="n" x1="3.15" y1="328.9" x2="280.07" y2="328.9" href="#a" /></defs><polygon class="a" points="88.7 162.05 80.26 179.34 62.69 179.34 54.25 162.05 88.7 162.05" /><path class="b" d="M71.47,168.45c-8.13,0-17.19-5.66-17.19-7.17L54.23,2.84a1,1,0,0,1,.77-1A86.92,86.92,0,0,1,69.1,0c3.58-.14,13.18.54,16.14.76a1,1,0,0,1,.9,1L88.7,161.31C88.7,162.81,79.61,168.45,71.47,168.45Z" /><rect class="c" x="61.29" y="178.44" width="20.72" height="27.11" rx="1.04" /><polygon class="d" points="194.52 162.05 202.96 179.34 220.53 179.34 228.97 162.05 194.52 162.05" /><path class="e" d="M211.74,168.45c8.14,0,17.2-5.66,17.2-7.17L229,2.84a1,1,0,0,0-.76-1A87.16,87.16,0,0,0,214.12,0c-3.58-.14-13.18.54-16.14.76a1,1,0,0,0-.9,1l-2.56,159.55c0,1.5,9.09,7.14,17.22,7.14Z" /><rect class="f" x="201.21" y="178.44" width="20.72" height="27.11" rx="1.04" /><polygon class="g" points="54.25 495.66 62.69 478.36 80.26 478.36 88.7 495.66 54.25 495.66" /><path class="h" d="M88.7,496.4,86.14,655.93a1,1,0,0,1-.9,1c-3,.22-12.56.9-16.14.76A86.92,86.92,0,0,1,55,655.87a1,1,0,0,1-.77-1l.05-158.44c0-1.51,9.06-7.17,17.19-7.17S88.7,494.9,88.7,496.4Z" /><rect class="i" x="61.29" y="452.16" width="20.72" height="27.11" rx="1.04" /><polygon class="j" points="229 495.67 220.54 478.35 202.94 478.35 194.49 495.67 229 495.67" /><path class="k" d="M211.74,489.24c-8.13,0-17.22,5.64-17.22,7.14l2.56,159.55a1,1,0,0,0,.9,1c3,.22,12.56.9,16.14.76a87.16,87.16,0,0,0,14.12-1.82,1,1,0,0,0,.76-1l-.06-158.44c0-1.51-9.06-7.17-17.2-7.17Z" /><rect class="l" x="201.21" y="452.16" width="20.72" height="27.11" rx="1.04" /><rect class="m" y="203.62" width="283.22" height="250.55" rx="40.27" /><rect class="n" x="3.15" y="206.77" width="276.92" height="244.26" rx="37.12" /><polygon class="o" points="133.27 377.84 131.15 377.84 131.15 370.4 133.27 370.4 133.27 377.84 133.27 377.84" /><path class="o" d="M150.28,372.53a3.89,3.89,0,0,0-1.77-.4,2,2,0,0,0,0,4,3.89,3.89,0,0,0,1.77-.4v2a7.34,7.34,0,0,1-1.92.26c-2.38,0-4.46-1.45-4.46-3.85,0-2.22,1.89-3.85,4.46-3.85a6.9,6.9,0,0,1,1.92.27v2Z" /><path class="o" d="M128.25,372.53a3.89,3.89,0,0,0-1.77-.4,2,2,0,0,0,0,4,3.89,3.89,0,0,0,1.77-.4v2a7.34,7.34,0,0,1-1.92.26c-2.38,0-4.45-1.45-4.45-3.85,0-2.22,1.88-3.85,4.45-3.85a6.9,6.9,0,0,1,1.92.27v2Z" /><path class="o" d="M161.34,374.12c0,2.13-1.85,3.85-4.42,3.85s-4.41-1.72-4.41-3.85,1.84-3.85,4.41-3.85S161.34,372,161.34,374.12Zm-4.42-2a2,2,0,1,0,2.18,2,2,2,0,0,0-2.1-2Z" /><path class="o" d="M141.27,372.09a8.29,8.29,0,0,0-1.65-.22c-.85,0-1.31.25-1.31.61s.62.6,1,.7l.58.17c1.37.39,2,1.22,2,2.13,0,1.86-1.85,2.49-3.47,2.49a14.4,14.4,0,0,1-2.27-.2V376a8.93,8.93,0,0,0,2,.28c1,0,1.53-.28,1.53-.7s-.41-.59-.94-.74l-.45-.13c-1.18-.33-2.15-1-2.15-2.18,0-1.39,1.16-2.32,3.11-2.32a11,11,0,0,1,2.06.23v1.59Z" /><path class="o" d="M119.89,362.4a1,1,0,1,0-2.07,0v2.17a1,1,0,0,0,2.07,0Z" /><path class="o" d="M125.58,359.55a1,1,0,1,0-2.07,0v5a1,1,0,0,0,2.07,0Z" /><path class="o" d="M131.27,355.66a1,1,0,1,0-2.07,0v11a1,1,0,0,0,2.07,0Z" /><path class="o" d="M137,359.55a1,1,0,1,0-2.07,0v5a1,1,0,0,0,2.07,0Z" /><path class="o" d="M142.64,362.4a1,1,0,1,0-2.07,0v2.17a1,1,0,0,0,2.07,0Z" /><path class="o" d="M148.33,359.55a1,1,0,1,0-2.06,0v5a1,1,0,1,0,2.06,0Z" /><path class="o" d="M154,355.66a1,1,0,1,0-2.06,0v11a1,1,0,1,0,2.06,0Z" /><path class="o" d="M159.72,359.55a1,1,0,1,0-2.09,0v5a1,1,0,0,0,2.09,0Z" /><path class="o" d="M165.39,362.4a1,1,0,0,0-2.06,0v2.17a1,1,0,0,0,2.06,0Z" /></svg>