<svg id="a" data-name="Layer 1" viewBox="0 0 503.11 1344.79"><defs>
    <style>
      .b {
        fill: #c9c6c5;
      }

      .b, .c, .d, .e, .f {
        stroke-width: 0px;
      }

      .c {
        fill: #d9d6d3;
      }

      .d {
        fill: #fff;
      }

      .e {
        fill: #d7d7d6;
      }

      .f {
        fill: #e2e1e1;
      }
    </style>
  </defs>
  <g>
    <rect class="c" x="78.88" y="967.01" width="32.11" height="3.78" />
    <rect class="f" x="77.52" y="921.23" width="34.83" height="47.17" />
    <rect class="c" x="76.7" y="958.4" width="36.47" height="2" />
    <rect class="c" x="76.7" y="963.48" width="36.47" height="2" />
    <polygon class="c" points="133.21 1000.23 56.66 1000.23 78.88 970.78 110.99 970.78 133.21 1000.23" />
    <path class="f" d="M133.21,1339.06h0c-24.94,7.64-51.61,7.64-76.55,0h0v-338.83l19.99-7.69c11.77-4.53,24.8-4.53,36.56,0l19.99,7.69v338.83Z" />
  </g>
  <g>
    <rect class="c" x="392.12" y="967.01" width="32.11" height="3.78" transform="translate(816.35 1937.79) rotate(180)" />
    <rect class="f" x="390.76" y="921.23" width="34.83" height="47.17" transform="translate(816.35 1889.63) rotate(180)" />
    <rect class="c" x="389.94" y="958.4" width="36.47" height="2" />
    <rect class="c" x="389.94" y="963.48" width="36.47" height="2" />
    <polygon class="c" points="369.9 1000.23 446.45 1000.23 424.23 970.78 392.12 970.78 369.9 1000.23" />
    <path class="f" d="M369.9,1339.06h0c24.94,7.64,51.61,7.64,76.55,0h0v-338.83s-19.99-7.69-19.99-7.69c-11.77-4.53-24.8-4.53-36.56,0l-19.99,7.69v338.83Z" />
  </g>
  <g>
    <rect class="c" x="78.88" y="374.01" width="32.11" height="3.78" />
    <rect class="f" x="77.52" y="376.4" width="34.83" height="47.17" />
    <rect class="c" x="76.7" y="384.4" width="36.47" height="2" />
    <rect class="c" x="76.7" y="379.31" width="36.47" height="2" />
    <polygon class="c" points="133.21 344.56 56.66 344.56 78.88 374.01 110.99 374.01 133.21 344.56" />
    <path class="f" d="M133.21,5.73h0c-24.94-7.64-51.61-7.64-76.55,0h0v338.83l19.99,7.69c11.77,4.53,24.8,4.53,36.56,0l19.99-7.69V5.73Z" />
  </g>
  <g>
    <rect class="c" x="392.12" y="374.01" width="32.11" height="3.78" transform="translate(816.35 751.79) rotate(-180)" />
    <rect class="f" x="390.76" y="376.4" width="34.83" height="47.17" transform="translate(816.35 799.96) rotate(-180)" />
    <rect class="c" x="389.94" y="384.4" width="36.47" height="2" />
    <rect class="c" x="389.94" y="379.31" width="36.47" height="2" />
    <polygon class="c" points="369.9 344.56 446.45 344.56 424.23 374.01 392.12 374.01 369.9 344.56" />
    <path class="f" d="M369.9,5.73h0c24.94-7.64,51.61-7.64,76.55,0h0v338.83s-19.99,7.69-19.99,7.69c-11.77,4.53-24.8,4.53-36.56,0l-19.99-7.69V5.73Z" />
  </g>
  <g>
    <rect class="c" y="420.84" width="503.11" height="503.11" rx="67.13" ry="67.13" />
    <path class="f" d="M67.13,425.84h368.86c34.29,0,62.13,27.84,62.13,62.13v368.86c0,34.29-27.84,62.13-62.13,62.13H67.13c-34.29,0-62.12-27.84-62.12-62.12v-368.86c0-34.29,27.84-62.13,62.13-62.13Z" transform="translate(923.95 420.84) rotate(90)" />
    <g>
      <g>
        <path class="d" d="M259.39,819.13c0,2.14,1.55,3.85,3.95,3.85,1.69,0,2.88-.68,3.03-.76v3.87c-.45.13-1.68.51-3.28.51-4.06,0-7.61-2.82-7.61-7.47,0-4.3,3.22-7.46,7.61-7.46,1.69,0,2.94.41,3.28.51v3.87c-.15-.07-1.3-.77-3.03-.77-2.33,0-3.95,1.64-3.95,3.85Z" />
        <path class="d" d="M221.78,819.13c0,2.14,1.55,3.85,3.95,3.85,1.69,0,2.86-.68,3.02-.76v3.87c-.45.13-1.68.51-3.29.51-4.04,0-7.6-2.82-7.6-7.47,0-4.3,3.21-7.46,7.6-7.46,1.69,0,2.95.41,3.29.51v3.87c-.15-.07-1.3-.77-3.02-.77-2.34,0-3.95,1.64-3.95,3.85Z" />
        <path class="d" d="M277.7,811.67c-4.39,0-7.54,3.34-7.54,7.46s3.15,7.47,7.54,7.47,7.54-3.34,7.54-7.47-3.15-7.46-7.54-7.46ZM277.7,822.93c-2.14,0-3.73-1.69-3.73-3.8s1.59-3.79,3.73-3.79,3.73,1.7,3.73,3.79-1.59,3.8-3.73,3.8Z" />
        <path class="d" d="M251.98,821.76c0,3.63-3.16,4.84-5.91,4.84-1.91,0-3.71-.36-3.89-.4v-3.32c.32.08,1.82.53,3.4.53,1.8,0,2.62-.53,2.62-1.35,0-.72-.71-1.14-1.6-1.42-.23-.08-.55-.18-.77-.25-2-.64-3.68-1.83-3.68-4.21,0-2.69,2-4.51,5.33-4.51,1.75,0,3.4.43,3.51.46v3.08c-.06-.02-1.58-.44-2.82-.44-1.45,0-2.23.49-2.23,1.19,0,.87,1.06,1.18,1.66,1.37l.99.32c2.34.75,3.41,2.37,3.41,4.12Z" />
        <path class="d" d="M214.05,796.7v3.78c0,1-.8,1.8-1.79,1.8s-1.79-.8-1.79-1.8v-3.78c0-.99.81-1.8,1.79-1.8s1.79.81,1.79,1.8Z" />
        <path class="d" d="M223.88,791.73v8.75c0,1-.8,1.8-1.79,1.8s-1.79-.8-1.79-1.8v-8.75c0-.99.8-1.8,1.79-1.8s1.79.81,1.79,1.8Z" />
        <path class="d" d="M233.7,784.94v19.14c0,.99-.8,1.81-1.79,1.81s-1.79-.81-1.79-1.81v-19.14c0-.99.81-1.8,1.79-1.8s1.79.81,1.79,1.8Z" />
        <path class="d" d="M243.53,791.73v8.75c0,1.01-.8,1.8-1.79,1.8s-1.79-.8-1.79-1.8v-8.75c0-.99.8-1.8,1.79-1.8s1.79.81,1.79,1.8Z" />
        <path class="d" d="M253.34,796.7v3.78c0,1-.8,1.8-1.77,1.8s-1.79-.8-1.79-1.8v-3.78c0-.99.8-1.8,1.79-1.8s1.77.81,1.77,1.8Z" />
        <path class="d" d="M263.18,791.73v8.75c0,1-.8,1.8-1.79,1.8s-1.78-.8-1.78-1.8v-8.75c0-.99.79-1.8,1.78-1.8s1.79.81,1.79,1.8Z" />
        <path class="d" d="M273,784.94v19.14c0,.99-.8,1.8-1.78,1.8s-1.79-.81-1.79-1.8v-19.14c0-.99.8-1.8,1.79-1.8s1.78.81,1.78,1.8Z" />
        <path class="d" d="M282.83,791.73v8.75c0,1-.8,1.8-1.8,1.8s-1.79-.8-1.79-1.8v-8.75c0-.99.8-1.8,1.79-1.8s1.8.81,1.8,1.8Z" />
        <path class="d" d="M292.65,796.7v3.78c0,1-.8,1.8-1.78,1.8s-1.79-.8-1.79-1.8v-3.78c0-.99.8-1.8,1.79-1.8s1.78.81,1.78,1.8Z" />
        <rect class="d" x="233.71" y="811.93" width="3.6" height="14.41" />
      </g>
      <g>
        <path class="b" d="M259.39,818.2c0,2.14,1.55,3.85,3.95,3.85,1.69,0,2.88-.68,3.03-.76v3.87c-.45.13-1.68.51-3.28.51-4.06,0-7.61-2.82-7.61-7.47,0-4.3,3.22-7.46,7.61-7.46,1.69,0,2.94.41,3.28.51v3.87c-.15-.07-1.3-.77-3.03-.77-2.33,0-3.95,1.64-3.95,3.85Z" />
        <path class="b" d="M221.78,818.2c0,2.14,1.55,3.85,3.95,3.85,1.69,0,2.86-.68,3.02-.76v3.87c-.45.13-1.68.51-3.29.51-4.04,0-7.6-2.82-7.6-7.47,0-4.3,3.21-7.46,7.6-7.46,1.69,0,2.95.41,3.29.51v3.87c-.15-.07-1.3-.77-3.02-.77-2.34,0-3.95,1.64-3.95,3.85Z" />
        <path class="b" d="M277.7,810.74c-4.39,0-7.54,3.34-7.54,7.46s3.15,7.47,7.54,7.47,7.54-3.34,7.54-7.47-3.15-7.46-7.54-7.46ZM277.7,821.99c-2.14,0-3.73-1.69-3.73-3.8s1.59-3.79,3.73-3.79,3.73,1.7,3.73,3.79-1.59,3.8-3.73,3.8Z" />
        <path class="b" d="M251.98,820.82c0,3.63-3.16,4.84-5.91,4.84-1.91,0-3.71-.36-3.89-.4v-3.32c.32.08,1.82.53,3.4.53,1.8,0,2.62-.53,2.62-1.35,0-.72-.71-1.14-1.6-1.42-.23-.08-.55-.18-.77-.25-2-.64-3.68-1.83-3.68-4.21,0-2.69,2-4.51,5.33-4.51,1.75,0,3.4.43,3.51.46v3.08c-.06-.02-1.58-.44-2.82-.44-1.45,0-2.23.49-2.23,1.19,0,.87,1.06,1.18,1.66,1.37l.99.32c2.34.75,3.41,2.37,3.41,4.12Z" />
        <path class="b" d="M214.05,795.77v3.78c0,1-.8,1.8-1.79,1.8s-1.79-.8-1.79-1.8v-3.78c0-.99.81-1.8,1.79-1.8s1.79.81,1.79,1.8Z" />
        <path class="b" d="M223.88,790.8v8.75c0,1-.8,1.8-1.79,1.8s-1.79-.8-1.79-1.8v-8.75c0-.99.8-1.8,1.79-1.8s1.79.81,1.79,1.8Z" />
        <path class="b" d="M233.7,784.01v19.14c0,.99-.8,1.81-1.79,1.81s-1.79-.81-1.79-1.81v-19.14c0-.99.81-1.8,1.79-1.8s1.79.81,1.79,1.8Z" />
        <path class="b" d="M243.53,790.8v8.75c0,1.01-.8,1.8-1.79,1.8s-1.79-.8-1.79-1.8v-8.75c0-.99.8-1.8,1.79-1.8s1.79.81,1.79,1.8Z" />
        <path class="b" d="M253.34,795.77v3.78c0,1-.8,1.8-1.77,1.8s-1.79-.8-1.79-1.8v-3.78c0-.99.8-1.8,1.79-1.8s1.77.81,1.77,1.8Z" />
        <path class="b" d="M263.18,790.8v8.75c0,1-.8,1.8-1.79,1.8s-1.78-.8-1.78-1.8v-8.75c0-.99.79-1.8,1.78-1.8s1.79.81,1.79,1.8Z" />
        <path class="b" d="M273,784.01v19.14c0,.99-.8,1.8-1.78,1.8s-1.79-.81-1.79-1.8v-19.14c0-.99.8-1.8,1.79-1.8s1.78.81,1.78,1.8Z" />
        <path class="b" d="M282.83,790.8v8.75c0,1-.8,1.8-1.8,1.8s-1.79-.8-1.79-1.8v-8.75c0-.99.8-1.8,1.79-1.8s1.8.81,1.8,1.8Z" />
        <path class="b" d="M292.65,795.77v3.78c0,1-.8,1.8-1.78,1.8s-1.79-.8-1.79-1.8v-3.78c0-.99.8-1.8,1.79-1.8s1.78.81,1.78,1.8Z" />
        <rect class="b" x="233.71" y="810.99" width="3.6" height="14.41" />
      </g>
      <g>
        <path class="e" d="M259.39,818.66c0,2.14,1.55,3.85,3.95,3.85,1.69,0,2.88-.68,3.03-.76v3.87c-.45.13-1.68.51-3.28.51-4.06,0-7.61-2.82-7.61-7.47,0-4.3,3.22-7.46,7.61-7.46,1.69,0,2.94.41,3.28.51v3.87c-.15-.07-1.3-.77-3.03-.77-2.33,0-3.95,1.64-3.95,3.85Z" />
        <path class="e" d="M221.78,818.66c0,2.14,1.55,3.85,3.95,3.85,1.69,0,2.86-.68,3.02-.76v3.87c-.45.13-1.68.51-3.29.51-4.04,0-7.6-2.82-7.6-7.47,0-4.3,3.21-7.46,7.6-7.46,1.69,0,2.95.41,3.29.51v3.87c-.15-.07-1.3-.77-3.02-.77-2.34,0-3.95,1.64-3.95,3.85Z" />
        <path class="e" d="M277.7,811.2c-4.39,0-7.54,3.34-7.54,7.46s3.15,7.47,7.54,7.47,7.54-3.34,7.54-7.47-3.15-7.46-7.54-7.46ZM277.7,822.45c-2.14,0-3.73-1.69-3.73-3.8s1.59-3.79,3.73-3.79,3.73,1.7,3.73,3.79-1.59,3.8-3.73,3.8Z" />
        <path class="e" d="M251.98,821.28c0,3.63-3.16,4.84-5.91,4.84-1.91,0-3.71-.36-3.89-.4v-3.32c.32.08,1.82.53,3.4.53,1.8,0,2.62-.53,2.62-1.35,0-.72-.71-1.14-1.6-1.42-.23-.08-.55-.18-.77-.25-2-.64-3.68-1.83-3.68-4.21,0-2.69,2-4.51,5.33-4.51,1.75,0,3.4.43,3.51.46v3.08c-.06-.02-1.58-.44-2.82-.44-1.45,0-2.23.49-2.23,1.19,0,.87,1.06,1.18,1.66,1.37l.99.32c2.34.75,3.41,2.37,3.41,4.12Z" />
        <path class="e" d="M214.05,796.23v3.78c0,1-.8,1.8-1.79,1.8s-1.79-.8-1.79-1.8v-3.78c0-.99.81-1.8,1.79-1.8s1.79.81,1.79,1.8Z" />
        <path class="e" d="M223.88,791.26v8.75c0,1-.8,1.8-1.79,1.8s-1.79-.8-1.79-1.8v-8.75c0-.99.8-1.8,1.79-1.8s1.79.81,1.79,1.8Z" />
        <path class="e" d="M233.7,784.47v19.14c0,.99-.8,1.81-1.79,1.81s-1.79-.81-1.79-1.81v-19.14c0-.99.81-1.8,1.79-1.8s1.79.81,1.79,1.8Z" />
        <path class="e" d="M243.53,791.26v8.75c0,1.01-.8,1.8-1.79,1.8s-1.79-.8-1.79-1.8v-8.75c0-.99.8-1.8,1.79-1.8s1.79.81,1.79,1.8Z" />
        <path class="e" d="M253.34,796.23v3.78c0,1-.8,1.8-1.77,1.8s-1.79-.8-1.79-1.8v-3.78c0-.99.8-1.8,1.79-1.8s1.77.81,1.77,1.8Z" />
        <path class="e" d="M263.18,791.26v8.75c0,1-.8,1.8-1.79,1.8s-1.78-.8-1.78-1.8v-8.75c0-.99.79-1.8,1.78-1.8s1.79.81,1.79,1.8Z" />
        <path class="e" d="M273,784.47v19.14c0,.99-.8,1.8-1.78,1.8s-1.79-.81-1.79-1.8v-19.14c0-.99.8-1.8,1.79-1.8s1.78.81,1.78,1.8Z" />
        <path class="e" d="M282.83,791.26v8.75c0,1-.8,1.8-1.8,1.8s-1.79-.8-1.79-1.8v-8.75c0-.99.8-1.8,1.79-1.8s1.8.81,1.8,1.8Z" />
        <path class="e" d="M292.65,796.23v3.78c0,1-.8,1.8-1.78,1.8s-1.79-.8-1.79-1.8v-3.78c0-.99.8-1.8,1.79-1.8s1.78.81,1.78,1.8Z" />
        <rect class="e" x="233.71" y="811.45" width="3.6" height="14.41" />
      </g>
    </g>
  </g>
</svg>