<svg id="a" data-name="Layer 1" viewBox="0 0 503.11 503.11"><defs>
    <style>
      .b {
        fill: #ebeae9;
      }

      .b, .c, .d, .e, .f {
        stroke-width: 0px;
      }

      .c {
        fill: #f7f8f8;
      }

      .d {
        fill: #c9c6c5;
      }

      .e {
        fill: #f0f1f0;
      }

      .f {
        fill: #fff;
      }
    </style>
  </defs>
  <rect class="b" width="503.11" height="503.11" rx="67.13" ry="67.13" />
  <path class="c" d="M67.13,5h368.86c34.29,0,62.13,27.84,62.13,62.13v368.86c0,34.29-27.84,62.13-62.13,62.13H67.13c-34.29,0-62.12-27.84-62.12-62.12V67.12C5,32.84,32.84,5,67.13,5Z" transform="translate(503.11 0) rotate(90)" />
  <g>
    <g>
      <path class="f" d="M259.39,398.29c0,2.14,1.55,3.85,3.95,3.85,1.69,0,2.88-.68,3.03-.76v3.87c-.45.13-1.68.51-3.28.51-4.06,0-7.61-2.82-7.61-7.47,0-4.3,3.22-7.46,7.61-7.46,1.69,0,2.94.41,3.28.51v3.87c-.15-.07-1.3-.77-3.03-.77-2.33,0-3.95,1.64-3.95,3.85Z" />
      <path class="f" d="M221.78,398.29c0,2.14,1.55,3.85,3.95,3.85,1.69,0,2.86-.68,3.02-.76v3.87c-.45.13-1.68.51-3.29.51-4.04,0-7.6-2.82-7.6-7.47,0-4.3,3.21-7.46,7.6-7.46,1.69,0,2.95.41,3.29.51v3.87c-.15-.07-1.3-.77-3.02-.77-2.34,0-3.95,1.64-3.95,3.85Z" />
      <path class="f" d="M277.7,390.83c-4.39,0-7.54,3.34-7.54,7.46s3.15,7.47,7.54,7.47,7.54-3.34,7.54-7.47-3.15-7.46-7.54-7.46ZM277.7,402.08c-2.14,0-3.73-1.69-3.73-3.8s1.59-3.79,3.73-3.79,3.73,1.7,3.73,3.79-1.59,3.8-3.73,3.8Z" />
      <path class="f" d="M251.98,400.92c0,3.63-3.16,4.84-5.91,4.84-1.91,0-3.71-.36-3.89-.4v-3.32c.32.08,1.82.53,3.4.53,1.8,0,2.62-.53,2.62-1.35,0-.72-.71-1.14-1.6-1.42-.23-.08-.55-.18-.77-.25-2-.64-3.68-1.83-3.68-4.21,0-2.69,2-4.51,5.33-4.51,1.75,0,3.4.43,3.51.46v3.08c-.06-.02-1.58-.44-2.82-.44-1.45,0-2.23.49-2.23,1.19,0,.87,1.06,1.18,1.66,1.37l.99.32c2.34.75,3.41,2.37,3.41,4.12Z" />
      <path class="f" d="M214.05,375.86v3.78c0,1-.8,1.8-1.79,1.8s-1.79-.8-1.79-1.8v-3.78c0-.99.81-1.8,1.79-1.8s1.79.81,1.79,1.8Z" />
      <path class="f" d="M223.88,370.89v8.75c0,1-.8,1.8-1.79,1.8s-1.79-.8-1.79-1.8v-8.75c0-.99.8-1.8,1.79-1.8s1.79.81,1.79,1.8Z" />
      <path class="f" d="M233.7,364.1v19.14c0,.99-.8,1.81-1.79,1.81s-1.79-.81-1.79-1.81v-19.14c0-.99.81-1.8,1.79-1.8s1.79.81,1.79,1.8Z" />
      <path class="f" d="M243.53,370.89v8.75c0,1.01-.8,1.8-1.79,1.8s-1.79-.8-1.79-1.8v-8.75c0-.99.8-1.8,1.79-1.8s1.79.81,1.79,1.8Z" />
      <path class="f" d="M253.34,375.86v3.78c0,1-.8,1.8-1.77,1.8s-1.79-.8-1.79-1.8v-3.78c0-.99.8-1.8,1.79-1.8s1.77.81,1.77,1.8Z" />
      <path class="f" d="M263.18,370.89v8.75c0,1-.8,1.8-1.79,1.8s-1.78-.8-1.78-1.8v-8.75c0-.99.79-1.8,1.78-1.8s1.79.81,1.79,1.8Z" />
      <path class="f" d="M273,364.1v19.14c0,.99-.8,1.8-1.78,1.8s-1.79-.81-1.79-1.8v-19.14c0-.99.8-1.8,1.79-1.8s1.78.81,1.78,1.8Z" />
      <path class="f" d="M282.83,370.89v8.75c0,1-.8,1.8-1.8,1.8s-1.79-.8-1.79-1.8v-8.75c0-.99.8-1.8,1.79-1.8s1.8.81,1.8,1.8Z" />
      <path class="f" d="M292.65,375.86v3.78c0,1-.8,1.8-1.78,1.8s-1.79-.8-1.79-1.8v-3.78c0-.99.8-1.8,1.79-1.8s1.78.81,1.78,1.8Z" />
      <rect class="f" x="233.71" y="391.09" width="3.6" height="14.41" />
    </g>
    <g>
      <path class="d" d="M259.39,397.36c0,2.14,1.55,3.85,3.95,3.85,1.69,0,2.88-.68,3.03-.76v3.87c-.45.13-1.68.51-3.28.51-4.06,0-7.61-2.82-7.61-7.47,0-4.3,3.22-7.46,7.61-7.46,1.69,0,2.94.41,3.28.51v3.87c-.15-.07-1.3-.77-3.03-.77-2.33,0-3.95,1.64-3.95,3.85Z" />
      <path class="d" d="M221.78,397.36c0,2.14,1.55,3.85,3.95,3.85,1.69,0,2.86-.68,3.02-.76v3.87c-.45.13-1.68.51-3.29.51-4.04,0-7.6-2.82-7.6-7.47,0-4.3,3.21-7.46,7.6-7.46,1.69,0,2.95.41,3.29.51v3.87c-.15-.07-1.3-.77-3.02-.77-2.34,0-3.95,1.64-3.95,3.85Z" />
      <path class="d" d="M277.7,389.9c-4.39,0-7.54,3.34-7.54,7.46s3.15,7.47,7.54,7.47,7.54-3.34,7.54-7.47-3.15-7.46-7.54-7.46ZM277.7,401.15c-2.14,0-3.73-1.69-3.73-3.8s1.59-3.79,3.73-3.79,3.73,1.7,3.73,3.79-1.59,3.8-3.73,3.8Z" />
      <path class="d" d="M251.98,399.98c0,3.63-3.16,4.84-5.91,4.84-1.91,0-3.71-.36-3.89-.4v-3.32c.32.08,1.82.53,3.4.53,1.8,0,2.62-.53,2.62-1.35,0-.72-.71-1.14-1.6-1.42-.23-.08-.55-.18-.77-.25-2-.64-3.68-1.83-3.68-4.21,0-2.69,2-4.51,5.33-4.51,1.75,0,3.4.43,3.51.46v3.08c-.06-.02-1.58-.44-2.82-.44-1.45,0-2.23.49-2.23,1.19,0,.87,1.06,1.18,1.66,1.37l.99.32c2.34.75,3.41,2.37,3.41,4.12Z" />
      <path class="d" d="M214.05,374.93v3.78c0,1-.8,1.8-1.79,1.8s-1.79-.8-1.79-1.8v-3.78c0-.99.81-1.8,1.79-1.8s1.79.81,1.79,1.8Z" />
      <path class="d" d="M223.88,369.96v8.75c0,1-.8,1.8-1.79,1.8s-1.79-.8-1.79-1.8v-8.75c0-.99.8-1.8,1.79-1.8s1.79.81,1.79,1.8Z" />
      <path class="d" d="M233.7,363.17v19.14c0,.99-.8,1.81-1.79,1.81s-1.79-.81-1.79-1.81v-19.14c0-.99.81-1.8,1.79-1.8s1.79.81,1.79,1.8Z" />
      <path class="d" d="M243.53,369.96v8.75c0,1.01-.8,1.8-1.79,1.8s-1.79-.8-1.79-1.8v-8.75c0-.99.8-1.8,1.79-1.8s1.79.81,1.79,1.8Z" />
      <path class="d" d="M253.34,374.93v3.78c0,1-.8,1.8-1.77,1.8s-1.79-.8-1.79-1.8v-3.78c0-.99.8-1.8,1.79-1.8s1.77.81,1.77,1.8Z" />
      <path class="d" d="M263.18,369.96v8.75c0,1-.8,1.8-1.79,1.8s-1.78-.8-1.78-1.8v-8.75c0-.99.79-1.8,1.78-1.8s1.79.81,1.79,1.8Z" />
      <path class="d" d="M273,363.17v19.14c0,.99-.8,1.8-1.78,1.8s-1.79-.81-1.79-1.8v-19.14c0-.99.8-1.8,1.79-1.8s1.78.81,1.78,1.8Z" />
      <path class="d" d="M282.83,369.96v8.75c0,1-.8,1.8-1.8,1.8s-1.79-.8-1.79-1.8v-8.75c0-.99.8-1.8,1.79-1.8s1.8.81,1.8,1.8Z" />
      <path class="d" d="M292.65,374.93v3.78c0,1-.8,1.8-1.78,1.8s-1.79-.8-1.79-1.8v-3.78c0-.99.8-1.8,1.79-1.8s1.78.81,1.78,1.8Z" />
      <rect class="d" x="233.71" y="390.15" width="3.6" height="14.41" />
    </g>
    <g>
      <path class="e" d="M259.39,397.82c0,2.14,1.55,3.85,3.95,3.85,1.69,0,2.88-.68,3.03-.76v3.87c-.45.13-1.68.51-3.28.51-4.06,0-7.61-2.82-7.61-7.47,0-4.3,3.22-7.46,7.61-7.46,1.69,0,2.94.41,3.28.51v3.87c-.15-.07-1.3-.77-3.03-.77-2.33,0-3.95,1.64-3.95,3.85Z" />
      <path class="e" d="M221.78,397.82c0,2.14,1.55,3.85,3.95,3.85,1.69,0,2.86-.68,3.02-.76v3.87c-.45.13-1.68.51-3.29.51-4.04,0-7.6-2.82-7.6-7.47,0-4.3,3.21-7.46,7.6-7.46,1.69,0,2.95.41,3.29.51v3.87c-.15-.07-1.3-.77-3.02-.77-2.34,0-3.95,1.64-3.95,3.85Z" />
      <path class="e" d="M277.7,390.36c-4.39,0-7.54,3.34-7.54,7.46s3.15,7.47,7.54,7.47,7.54-3.34,7.54-7.47-3.15-7.46-7.54-7.46ZM277.7,401.61c-2.14,0-3.73-1.69-3.73-3.8s1.59-3.79,3.73-3.79,3.73,1.7,3.73,3.79-1.59,3.8-3.73,3.8Z" />
      <path class="e" d="M251.98,400.44c0,3.63-3.16,4.84-5.91,4.84-1.91,0-3.71-.36-3.89-.4v-3.32c.32.08,1.82.53,3.4.53,1.8,0,2.62-.53,2.62-1.35,0-.72-.71-1.14-1.6-1.42-.23-.08-.55-.18-.77-.25-2-.64-3.68-1.83-3.68-4.21,0-2.69,2-4.51,5.33-4.51,1.75,0,3.4.43,3.51.46v3.08c-.06-.02-1.58-.44-2.82-.44-1.45,0-2.23.49-2.23,1.19,0,.87,1.06,1.18,1.66,1.37l.99.32c2.34.75,3.41,2.37,3.41,4.12Z" />
      <path class="e" d="M214.05,375.39v3.78c0,1-.8,1.8-1.79,1.8s-1.79-.8-1.79-1.8v-3.78c0-.99.81-1.8,1.79-1.8s1.79.81,1.79,1.8Z" />
      <path class="e" d="M223.88,370.42v8.75c0,1-.8,1.8-1.79,1.8s-1.79-.8-1.79-1.8v-8.75c0-.99.8-1.8,1.79-1.8s1.79.81,1.79,1.8Z" />
      <path class="e" d="M233.7,363.63v19.14c0,.99-.8,1.81-1.79,1.81s-1.79-.81-1.79-1.81v-19.14c0-.99.81-1.8,1.79-1.8s1.79.81,1.79,1.8Z" />
      <path class="e" d="M243.53,370.42v8.75c0,1.01-.8,1.8-1.79,1.8s-1.79-.8-1.79-1.8v-8.75c0-.99.8-1.8,1.79-1.8s1.79.81,1.79,1.8Z" />
      <path class="e" d="M253.34,375.39v3.78c0,1-.8,1.8-1.77,1.8s-1.79-.8-1.79-1.8v-3.78c0-.99.8-1.8,1.79-1.8s1.77.81,1.77,1.8Z" />
      <path class="e" d="M263.18,370.42v8.75c0,1-.8,1.8-1.79,1.8s-1.78-.8-1.78-1.8v-8.75c0-.99.79-1.8,1.78-1.8s1.79.81,1.79,1.8Z" />
      <path class="e" d="M273,363.63v19.14c0,.99-.8,1.8-1.78,1.8s-1.79-.81-1.79-1.8v-19.14c0-.99.8-1.8,1.79-1.8s1.78.81,1.78,1.8Z" />
      <path class="e" d="M282.83,370.42v8.75c0,1-.8,1.8-1.8,1.8s-1.79-.8-1.79-1.8v-8.75c0-.99.8-1.8,1.79-1.8s1.8.81,1.8,1.8Z" />
      <path class="e" d="M292.65,375.39v3.78c0,1-.8,1.8-1.78,1.8s-1.79-.8-1.79-1.8v-3.78c0-.99.8-1.8,1.79-1.8s1.78.81,1.78,1.8Z" />
      <rect class="e" x="233.71" y="390.61" width="3.6" height="14.41" />
    </g>
  </g>
</svg>