<svg id="a" data-name="Layer 1" viewBox="0 0 339.67 327.84">
  <defs>
    <style>
      .b {
        fill: #f2f3f2;
      }

      .b, .c, .d, .e, .f, .g, .h, .i {
        stroke-width: 0px;
      }

      .c {
        fill: #a09d9c;
      }

      .d {
        fill: #e6e6e8;
      }

      .e {
        fill: #f4f4f7;
      }

      .f {
        fill: #efeff1;
      }

      .g {
        fill: #fcfcfd;
      }

      .h {
        fill: #fff;
      }

      .i {
        fill: #e4e4e4;
      }
    </style>
  </defs>
  <path class="i" d="M318.29,26.04c-.63-1.8-1.27-3.57-1.91-5.31C273.02,7.53,223.04,0,169.84,0S66.66,7.53,23.29,20.73c-.64,1.74-1.28,3.51-1.91,5.31C9.26,60.75,0,106.16,0,163.92s9.26,103.17,21.38,137.88c.63,1.8,1.27,3.57,1.91,5.31,43.37,13.2,93.35,20.73,146.55,20.73s103.18-7.53,146.54-20.73c.64-1.74,1.28-3.51,1.91-5.31,12.12-34.71,21.38-80.12,21.38-137.88s-9.26-103.17-21.38-137.88ZM51.34,163.92c0-65.72,49.2-121.83,118.5-144,69.3,22.17,118.5,78.28,118.5,144s-49.2,121.83-118.5,144c-69.3-22.17-118.5-78.28-118.5-144Z" />
  <path class="e" d="M169.84,307.92c-20.47,6.55-42.69,10.14-65.92,10.14-29.67,0-52.58-1.45-80.63-10.95C9.5,270.66,0,221.68,0,163.92S9.25,58.36,23.29,20.73c27.21-8.73,50.96-10.95,80.63-10.95,23.23,0,45.45,3.59,65.92,10.14C100.54,42.09,51.34,98.2,51.34,163.92s49.2,121.83,118.5,144Z" />
  <path class="d" d="M169.84,307.92c20.47,6.55,42.69,10.14,65.92,10.14,29.67,0,52.58-1.45,80.63-10.95,13.79-36.45,23.29-85.43,23.29-143.19,0-57.76-9.25-105.56-23.29-143.19-27.21-8.73-50.96-10.95-80.63-10.95-23.23,0-45.45,3.59-65.92,10.14,69.3,22.17,118.5,78.28,118.5,144s-49.2,121.83-118.5,144Z" />
  <path class="f" d="M288.34,163.92c0,65.72-49.2,121.83-118.5,144-69.3-22.17-118.5-78.28-118.5-144S100.54,42.09,169.84,19.92c69.3,22.17,118.5,78.28,118.5,144Z" />
  <g>
    <g>
      <path class="h" d="M176.17,175.13c0,1.73,1.25,3.11,3.19,3.11,1.37,0,2.33-.55,2.45-.62v3.13c-.37.11-1.36.42-2.65.42-3.28,0-6.15-2.28-6.15-6.04,0-3.48,2.6-6.03,6.15-6.03,1.37,0,2.38.33,2.65.42v3.13c-.12-.06-1.06-.63-2.45-.63-1.89,0-3.19,1.33-3.19,3.11Z" />
      <path class="h" d="M145.75,175.13c0,1.73,1.25,3.11,3.2,3.11,1.37,0,2.32-.55,2.44-.62v3.13c-.37.11-1.36.42-2.66.42-3.27,0-6.15-2.28-6.15-6.04,0-3.48,2.6-6.03,6.15-6.03,1.37,0,2.39.33,2.66.42v3.13c-.12-.06-1.06-.63-2.44-.63-1.89,0-3.2,1.33-3.2,3.11Z" />
      <path class="h" d="M190.99,169.1c-3.55,0-6.1,2.7-6.1,6.03s2.55,6.04,6.1,6.04,6.1-2.71,6.1-6.04-2.55-6.03-6.1-6.03ZM190.99,178.2c-1.73,0-3.02-1.37-3.02-3.07s1.28-3.07,3.02-3.07,3.02,1.38,3.02,3.07-1.29,3.07-3.02,3.07Z" />
      <path class="h" d="M170.18,177.25c0,2.93-2.55,3.92-4.78,3.92-1.55,0-3-.29-3.14-.32v-2.68c.26.06,1.48.43,2.75.43,1.45,0,2.12-.42,2.12-1.09,0-.58-.58-.92-1.29-1.15-.18-.06-.45-.15-.63-.21-1.62-.52-2.98-1.48-2.98-3.41,0-2.18,1.62-3.65,4.31-3.65,1.42,0,2.75.35,2.84.37v2.49s-1.27-.36-2.28-.36c-1.17,0-1.8.39-1.8.96,0,.7.86.96,1.34,1.11l.8.26c1.89.6,2.76,1.91,2.76,3.33Z" />
      <path class="h" d="M139.49,156.99v3.06c0,.81-.65,1.46-1.45,1.46s-1.45-.65-1.45-1.46v-3.06c0-.8.65-1.46,1.45-1.46s1.45.65,1.45,1.46Z" />
      <path class="h" d="M147.45,152.97v7.08c0,.81-.65,1.46-1.45,1.46s-1.44-.65-1.44-1.46v-7.08c0-.8.64-1.46,1.44-1.46s1.45.66,1.45,1.46Z" />
      <path class="h" d="M155.39,147.47v15.48c0,.8-.65,1.46-1.45,1.46s-1.45-.66-1.45-1.46v-15.48c0-.8.65-1.46,1.45-1.46s1.45.65,1.45,1.46Z" />
      <path class="h" d="M163.34,152.97v7.08c0,.81-.65,1.46-1.45,1.46s-1.44-.64-1.44-1.46v-7.08c0-.8.65-1.46,1.44-1.46s1.45.66,1.45,1.46Z" />
      <path class="h" d="M171.28,156.99v3.06c0,.81-.64,1.46-1.43,1.46s-1.45-.65-1.45-1.46v-3.06c0-.8.65-1.46,1.45-1.46s1.43.65,1.43,1.46Z" />
      <path class="h" d="M179.23,152.97v7.08c0,.81-.65,1.46-1.44,1.46s-1.44-.65-1.44-1.46v-7.08c0-.8.64-1.46,1.44-1.46s1.44.66,1.44,1.46Z" />
      <path class="h" d="M187.18,147.47v15.48c0,.8-.64,1.46-1.44,1.46s-1.44-.65-1.44-1.46v-15.48c0-.8.64-1.46,1.44-1.46s1.44.65,1.44,1.46Z" />
      <path class="h" d="M195.14,152.97v7.08c0,.81-.64,1.46-1.46,1.46s-1.44-.65-1.44-1.46v-7.08c0-.8.64-1.46,1.44-1.46s1.46.66,1.46,1.46Z" />
      <path class="h" d="M203.07,156.99v3.06c0,.81-.65,1.46-1.44,1.46s-1.44-.65-1.44-1.46v-3.06c0-.8.64-1.46,1.44-1.46s1.44.65,1.44,1.46Z" />
      <rect class="h" x="155.4" y="169.3" width="2.92" height="11.66" />
    </g>
    <g>
      <path class="c" d="M176.17,174.37c0,1.73,1.25,3.11,3.19,3.11,1.37,0,2.33-.55,2.45-.62v3.13c-.37.11-1.36.42-2.65.42-3.28,0-6.15-2.28-6.15-6.04,0-3.48,2.6-6.03,6.15-6.03,1.37,0,2.38.33,2.65.42v3.13c-.12-.06-1.06-.63-2.45-.63-1.89,0-3.19,1.33-3.19,3.11Z" />
      <path class="c" d="M145.75,174.37c0,1.73,1.25,3.11,3.2,3.11,1.37,0,2.32-.55,2.44-.62v3.13c-.37.11-1.36.42-2.66.42-3.27,0-6.15-2.28-6.15-6.04,0-3.48,2.6-6.03,6.15-6.03,1.37,0,2.39.33,2.66.42v3.13c-.12-.06-1.06-.63-2.44-.63-1.89,0-3.2,1.33-3.2,3.11Z" />
      <path class="c" d="M190.99,168.34c-3.55,0-6.1,2.7-6.1,6.03s2.55,6.04,6.1,6.04,6.1-2.71,6.1-6.04-2.55-6.03-6.1-6.03ZM190.99,177.44c-1.73,0-3.02-1.37-3.02-3.07s1.28-3.07,3.02-3.07,3.02,1.38,3.02,3.07-1.29,3.07-3.02,3.07Z" />
      <path class="c" d="M170.18,176.5c0,2.93-2.55,3.92-4.78,3.92-1.55,0-3-.29-3.14-.32v-2.68c.26.06,1.48.43,2.75.43,1.45,0,2.12-.42,2.12-1.09,0-.58-.58-.92-1.29-1.15-.18-.06-.45-.15-.63-.21-1.62-.52-2.98-1.48-2.98-3.41,0-2.18,1.62-3.65,4.31-3.65,1.42,0,2.75.35,2.84.37v2.49s-1.27-.36-2.28-.36c-1.17,0-1.8.39-1.8.96,0,.7.86.96,1.34,1.11l.8.26c1.89.6,2.76,1.91,2.76,3.33Z" />
      <path class="c" d="M139.49,156.23v3.06c0,.81-.65,1.46-1.45,1.46s-1.45-.65-1.45-1.46v-3.06c0-.8.65-1.46,1.45-1.46s1.45.65,1.45,1.46Z" />
      <path class="c" d="M147.45,152.21v7.08c0,.81-.65,1.46-1.45,1.46s-1.44-.65-1.44-1.46v-7.08c0-.8.64-1.46,1.44-1.46s1.45.66,1.45,1.46Z" />
      <path class="c" d="M155.39,146.72v15.48c0,.8-.65,1.46-1.45,1.46s-1.45-.66-1.45-1.46v-15.48c0-.8.65-1.46,1.45-1.46s1.45.65,1.45,1.46Z" />
      <path class="c" d="M163.34,152.21v7.08c0,.81-.65,1.46-1.45,1.46s-1.44-.64-1.44-1.46v-7.08c0-.8.65-1.46,1.44-1.46s1.45.66,1.45,1.46Z" />
      <path class="c" d="M171.28,156.23v3.06c0,.81-.64,1.46-1.43,1.46s-1.45-.65-1.45-1.46v-3.06c0-.8.65-1.46,1.45-1.46s1.43.65,1.43,1.46Z" />
      <path class="c" d="M179.23,152.21v7.08c0,.81-.65,1.46-1.44,1.46s-1.44-.65-1.44-1.46v-7.08c0-.8.64-1.46,1.44-1.46s1.44.66,1.44,1.46Z" />
      <path class="c" d="M187.18,146.72v15.48c0,.8-.64,1.46-1.44,1.46s-1.44-.65-1.44-1.46v-15.48c0-.8.64-1.46,1.44-1.46s1.44.65,1.44,1.46Z" />
      <path class="c" d="M195.14,152.21v7.08c0,.81-.64,1.46-1.46,1.46s-1.44-.65-1.44-1.46v-7.08c0-.8.64-1.46,1.44-1.46s1.46.66,1.46,1.46Z" />
      <path class="c" d="M203.07,156.23v3.06c0,.81-.65,1.46-1.44,1.46s-1.44-.65-1.44-1.46v-3.06c0-.8.64-1.46,1.44-1.46s1.44.65,1.44,1.46Z" />
      <rect class="c" x="155.4" y="168.55" width="2.92" height="11.66" />
    </g>
    <g>
      <path class="b" d="M176.17,174.74c0,1.73,1.25,3.11,3.19,3.11,1.37,0,2.33-.55,2.45-.62v3.13c-.37.11-1.36.42-2.65.42-3.28,0-6.15-2.28-6.15-6.04,0-3.48,2.6-6.03,6.15-6.03,1.37,0,2.38.33,2.65.42v3.13c-.12-.06-1.06-.63-2.45-.63-1.89,0-3.19,1.33-3.19,3.11Z" />
      <path class="b" d="M145.75,174.74c0,1.73,1.25,3.11,3.2,3.11,1.37,0,2.32-.55,2.44-.62v3.13c-.37.11-1.36.42-2.66.42-3.27,0-6.15-2.28-6.15-6.04,0-3.48,2.6-6.03,6.15-6.03,1.37,0,2.39.33,2.66.42v3.13c-.12-.06-1.06-.63-2.44-.63-1.89,0-3.2,1.33-3.2,3.11Z" />
      <path class="b" d="M190.99,168.71c-3.55,0-6.1,2.7-6.1,6.03s2.55,6.04,6.1,6.04,6.1-2.71,6.1-6.04-2.55-6.03-6.1-6.03ZM190.99,177.82c-1.73,0-3.02-1.37-3.02-3.07s1.28-3.07,3.02-3.07,3.02,1.38,3.02,3.07-1.29,3.07-3.02,3.07Z" />
      <path class="b" d="M170.18,176.87c0,2.93-2.55,3.92-4.78,3.92-1.55,0-3-.29-3.14-.32v-2.68c.26.06,1.48.43,2.75.43,1.45,0,2.12-.42,2.12-1.09,0-.58-.58-.92-1.29-1.15-.18-.06-.45-.15-.63-.21-1.62-.52-2.98-1.48-2.98-3.41,0-2.18,1.62-3.65,4.31-3.65,1.42,0,2.75.35,2.84.37v2.49s-1.27-.36-2.28-.36c-1.17,0-1.8.39-1.8.96,0,.7.86.96,1.34,1.11l.8.26c1.89.6,2.76,1.91,2.76,3.33Z" />
      <path class="b" d="M139.49,156.6v3.06c0,.81-.65,1.46-1.45,1.46s-1.45-.65-1.45-1.46v-3.06c0-.8.65-1.46,1.45-1.46s1.45.65,1.45,1.46Z" />
      <path class="b" d="M147.45,152.58v7.08c0,.81-.65,1.46-1.45,1.46s-1.44-.65-1.44-1.46v-7.08c0-.8.64-1.46,1.44-1.46s1.45.66,1.45,1.46Z" />
      <path class="b" d="M155.39,147.09v15.48c0,.8-.65,1.46-1.45,1.46s-1.45-.66-1.45-1.46v-15.48c0-.8.65-1.46,1.45-1.46s1.45.65,1.45,1.46Z" />
      <path class="b" d="M163.34,152.58v7.08c0,.81-.65,1.46-1.45,1.46s-1.44-.64-1.44-1.46v-7.08c0-.8.65-1.46,1.44-1.46s1.45.66,1.45,1.46Z" />
      <path class="b" d="M171.28,156.6v3.06c0,.81-.64,1.46-1.43,1.46s-1.45-.65-1.45-1.46v-3.06c0-.8.65-1.46,1.45-1.46s1.43.65,1.43,1.46Z" />
      <path class="b" d="M179.23,152.58v7.08c0,.81-.65,1.46-1.44,1.46s-1.44-.65-1.44-1.46v-7.08c0-.8.64-1.46,1.44-1.46s1.44.66,1.44,1.46Z" />
      <path class="b" d="M187.18,147.09v15.48c0,.8-.64,1.46-1.44,1.46s-1.44-.65-1.44-1.46v-15.48c0-.8.64-1.46,1.44-1.46s1.44.65,1.44,1.46Z" />
      <path class="b" d="M195.14,152.58v7.08c0,.81-.64,1.46-1.46,1.46s-1.44-.65-1.44-1.46v-7.08c0-.8.64-1.46,1.44-1.46s1.46.66,1.46,1.46Z" />
      <path class="b" d="M203.07,156.6v3.06c0,.81-.65,1.46-1.44,1.46s-1.44-.65-1.44-1.46v-3.06c0-.8.64-1.46,1.44-1.46s1.44.65,1.44,1.46Z" />
      <rect class="b" x="155.4" y="168.92" width="2.92" height="11.66" />
    </g>
  </g>
  <path class="g" d="M169.84,253.32c-1.84,0-3.4-1.56-3.4-3.4v-7.53c0-1.84,1.56-3.4,3.4-3.4s3.4,1.56,3.4,3.4v7.63c0,1.82-1.53,3.3-3.4,3.3Z" />
  <path class="h" d="M169.83,252.32h0c-1.3,0-2.4-1.1-2.4-2.4v-7.53c0-1.3,1.1-2.4,2.4-2.4h0c1.3,0,2.4,1.1,2.4,2.4v7.63c0,1.3-1.1,2.3-2.4,2.3Z" />
</svg>