<svg id="Layer_1" viewBox="0 0 320.18 323.4"><defs><style>.cls-1{fill:url(#linear-gradient-2);}.cls-2{clip-path:url(#clippath-11);}.cls-3{clip-path:url(#clippath-16);}.cls-4{clip-path:url(#clippath-41);}.cls-5{clip-path:url(#clippath-13);}.cls-6{clip-path:url(#clippath-37);}.cls-7{clip-path:url(#clippath-15);}.cls-8{clip-path:url(#clippath-40);}.cls-9{clip-path:url(#clippath-38);}.cls-10{clip-path:url(#clippath-36);}.cls-11{clip-path:url(#clippath-44);}.cls-12{fill:#e2e5e9;}.cls-13{clip-path:url(#clippath-12);}.cls-14{fill:#d7d9dd;}.cls-15{clip-path:url(#clippath-9);}.cls-16{clip-path:url(#clippath-39);}.cls-17{clip-path:url(#clippath-43);}.cls-18{mask:url(#mask-1);}.cls-19{mask:url(#mask);}.cls-20{clip-path:url(#clippath-14);}.cls-21{fill:url(#linear-gradient-3);}.cls-22{clip-path:url(#clippath-17);}.cls-23{fill:url(#linear-gradient);}.cls-24{clip-path:url(#clippath-42);}.cls-25{fill:#bec0c2;}.cls-26{clip-path:url(#clippath-10);}.cls-27{fill:url(#linear-gradient-4);}.cls-28{fill:#4a99d4;filter:url(#outer-glow-2);}</style><clipPath id="clippath-9"><path class="cls-25" d="M132.05,152.3c0-.73-.6-1.33-1.34-1.33s-1.33,.6-1.33,1.33v2.8c0,.74,.6,1.34,1.33,1.34s1.34-.59,1.34-1.34v-2.8Z" /></clipPath><clipPath id="clippath-10"><path class="cls-25" d="M139.4,148.62c0-.74-.6-1.33-1.33-1.33s-1.34,.59-1.34,1.33v6.48c0,.74,.6,1.34,1.34,1.34s1.33-.59,1.33-1.34v-6.48Z" /></clipPath><clipPath id="clippath-11"><path class="cls-25" d="M146.74,143.6c0-.74-.6-1.33-1.33-1.33s-1.34,.6-1.34,1.33v14.17c0,.74,.6,1.34,1.34,1.34s1.33-.6,1.33-1.34v-14.17Z" /></clipPath><clipPath id="clippath-12"><path class="cls-25" d="M154.08,148.62c0-.74-.6-1.33-1.33-1.33s-1.34,.59-1.34,1.33v6.48c0,.74,.6,1.34,1.34,1.34s1.33-.59,1.33-1.34v-6.48Z" /></clipPath><clipPath id="clippath-13"><path class="cls-25" d="M161.42,152.3c0-.73-.59-1.33-1.33-1.33s-1.34,.6-1.34,1.33v2.8c0,.74,.6,1.34,1.34,1.34s1.33-.59,1.33-1.34v-2.8Z" /></clipPath><clipPath id="clippath-14"><path class="cls-25" d="M168.77,148.62c0-.74-.6-1.33-1.33-1.33s-1.33,.59-1.33,1.33v6.48c0,.74,.6,1.34,1.33,1.34s1.33-.59,1.33-1.34v-6.48Z" /></clipPath><clipPath id="clippath-15"><path class="cls-25" d="M176.11,143.6c0-.74-.59-1.33-1.33-1.33s-1.33,.6-1.33,1.33v14.17c0,.74,.6,1.34,1.33,1.34s1.33-.6,1.33-1.34v-14.17Z" /></clipPath><clipPath id="clippath-16"><path class="cls-25" d="M183.46,148.62c0-.74-.6-1.33-1.35-1.33s-1.33,.59-1.33,1.33v6.48c0,.74,.6,1.34,1.33,1.34s1.35-.59,1.35-1.34v-6.48Z" /></clipPath><clipPath id="clippath-17"><path class="cls-25" d="M190.79,152.3c0-.73-.6-1.33-1.34-1.33s-1.33,.6-1.33,1.33v2.8c0,.74,.59,1.34,1.33,1.34s1.34-.59,1.34-1.34v-2.8Z" /></clipPath><clipPath id="clippath-36"><path class="cls-14" d="M132.05,153.07c0-.73-.6-1.33-1.34-1.33s-1.33,.6-1.33,1.33v2.8c0,.74,.6,1.34,1.33,1.34s1.34-.59,1.34-1.34v-2.8Z" /></clipPath><clipPath id="clippath-37"><path class="cls-14" d="M139.4,149.39c0-.74-.6-1.33-1.33-1.33s-1.34,.59-1.34,1.33v6.48c0,.74,.6,1.34,1.34,1.34s1.33-.59,1.33-1.34v-6.48Z" /></clipPath><clipPath id="clippath-38"><path class="cls-14" d="M146.74,144.36c0-.74-.6-1.33-1.33-1.33s-1.34,.6-1.34,1.33v14.17c0,.74,.6,1.34,1.34,1.34s1.33-.6,1.33-1.34v-14.17Z" /></clipPath><clipPath id="clippath-39"><path class="cls-14" d="M154.08,149.39c0-.74-.6-1.33-1.33-1.33s-1.34,.59-1.34,1.33v6.48c0,.74,.6,1.34,1.34,1.34s1.33-.59,1.33-1.34v-6.48Z" /></clipPath><clipPath id="clippath-40"><path class="cls-14" d="M161.42,153.07c0-.73-.59-1.33-1.33-1.33s-1.34,.6-1.34,1.33v2.8c0,.74,.6,1.34,1.34,1.34s1.33-.59,1.33-1.34v-2.8Z" /></clipPath><clipPath id="clippath-41"><path class="cls-14" d="M168.77,149.39c0-.74-.6-1.33-1.33-1.33s-1.33,.59-1.33,1.33v6.48c0,.74,.6,1.34,1.33,1.34s1.33-.59,1.33-1.34v-6.48Z" /></clipPath><clipPath id="clippath-42"><path class="cls-14" d="M176.11,144.36c0-.74-.59-1.33-1.33-1.33s-1.33,.6-1.33,1.33v14.17c0,.74,.6,1.34,1.33,1.34s1.33-.6,1.33-1.34v-14.17Z" /></clipPath><clipPath id="clippath-43"><path class="cls-14" d="M183.46,149.39c0-.74-.6-1.33-1.35-1.33s-1.33,.59-1.33,1.33v6.48c0,.74,.6,1.34,1.33,1.34s1.35-.59,1.35-1.34v-6.48Z" /></clipPath><clipPath id="clippath-44"><path class="cls-14" d="M190.79,153.07c0-.73-.6-1.33-1.34-1.33s-1.33,.6-1.33,1.33v2.8c0,.74,.59,1.34,1.33,1.34s1.34-.59,1.34-1.34v-2.8Z" /></clipPath><filter id="outer-glow-2" filterUnits="userSpaceOnUse"><feOffset dx="0" dy="0" /><feGaussianBlur result="blur" stdDeviation="1" /><feFlood flood-color="#1a77bb" flood-opacity=".6" /><feComposite in2="blur" operator="in" /><feComposite in="SourceGraphic" /></filter><linearGradient id="linear-gradient" x1="254.72" y1="315.04" x2="254.72" y2="19.34" gradientUnits="userSpaceOnUse"><stop offset="0" stop-color="#323332" /><stop offset=".05" stop-color="#3a3b3a" /><stop offset=".13" stop-color="#525352" /><stop offset=".23" stop-color="#797979" /><stop offset=".34" stop-color="#aeafae" /><stop offset=".47" stop-color="#f2f2f2" /><stop offset=".49" stop-color="#fff" /><stop offset=".57" stop-color="#c5c4c5" /><stop offset=".65" stop-color="#949292" /><stop offset=".72" stop-color="#6b6869" /><stop offset=".8" stop-color="#4b4849" /><stop offset=".87" stop-color="#353132" /><stop offset=".94" stop-color="#272324" /><stop offset="1" stop-color="#231f20" /></linearGradient><mask id="mask" x="205.89" y="21.04" width="97.67" height="289.33" maskUnits="userSpaceOnUse"><rect class="cls-23" x="205.89" y="21.04" width="97.67" height="289.33" /></mask><linearGradient id="linear-gradient-2" x1="245.22" y1="161.7" x2="283.26" y2="161.7" gradientUnits="userSpaceOnUse"><stop offset="0" stop-color="#e2e5e9" stop-opacity="0" /><stop offset=".53" stop-color="#d1d3d4" /><stop offset="1" stop-color="#e2e5e9" stop-opacity="0" /></linearGradient><linearGradient id="linear-gradient-3" x1="-3611.88" y1="315.04" x2="-3611.88" y2="19.34" gradientTransform="translate(3677.34 331.4) scale(1 -1)" href="#linear-gradient" /><mask id="mask-1" x="16.63" y="21.04" width="97.67" height="289.33" maskUnits="userSpaceOnUse"><rect class="cls-21" x="16.63" y="21.04" width="97.67" height="289.33" transform="translate(130.92 331.4) rotate(180)" /></mask><linearGradient id="linear-gradient-4" x1="-3621.38" y1="161.7" x2="-3583.34" y2="161.7" gradientTransform="translate(-3546.42) rotate(-180) scale(1 -1)" href="#linear-gradient-2" /></defs><path class="cls-12" d="M320.18,161.7c-3.62,150.48-35.89,164.51-184.13,161.33C8.86,325.18,4.58,264.65,0,161.7,4.61,58.85,8.76-1.79,136.05,.37c148.16-3.16,180.52,10.77,184.13,161.33Z" /><g><g><path class="cls-25" d="M132.05,152.3c0-.73-.6-1.33-1.34-1.33s-1.33,.6-1.33,1.33v2.8c0,.74,.6,1.34,1.33,1.34s1.34-.59,1.34-1.34v-2.8Z" /><g class="cls-15"><rect class="cls-25" x="129.38" y="150.97" width="2.67" height="5.47" /></g></g><g><path class="cls-25" d="M139.4,148.62c0-.74-.6-1.33-1.33-1.33s-1.34,.59-1.34,1.33v6.48c0,.74,.6,1.34,1.34,1.34s1.33-.59,1.33-1.34v-6.48Z" /><g class="cls-26"><rect class="cls-25" x="136.72" y="147.29" width="2.67" height="9.14" /></g></g><g><path class="cls-25" d="M146.74,143.6c0-.74-.6-1.33-1.33-1.33s-1.34,.6-1.34,1.33v14.17c0,.74,.6,1.34,1.34,1.34s1.33-.6,1.33-1.34v-14.17Z" /><g class="cls-2"><rect class="cls-25" x="144.07" y="142.26" width="2.67" height="16.84" /></g></g><g><path class="cls-25" d="M154.08,148.62c0-.74-.6-1.33-1.33-1.33s-1.34,.59-1.34,1.33v6.48c0,.74,.6,1.34,1.34,1.34s1.33-.59,1.33-1.34v-6.48Z" /><g class="cls-13"><rect class="cls-25" x="151.41" y="147.29" width="2.67" height="9.14" /></g></g><g><path class="cls-25" d="M161.42,152.3c0-.73-.59-1.33-1.33-1.33s-1.34,.6-1.34,1.33v2.8c0,.74,.6,1.34,1.34,1.34s1.33-.59,1.33-1.34v-2.8Z" /><g class="cls-5"><rect class="cls-25" x="158.75" y="150.97" width="2.67" height="5.47" /></g></g><g><path class="cls-25" d="M168.77,148.62c0-.74-.6-1.33-1.33-1.33s-1.33,.59-1.33,1.33v6.48c0,.74,.6,1.34,1.33,1.34s1.33-.59,1.33-1.34v-6.48Z" /><g class="cls-20"><rect class="cls-25" x="166.1" y="147.29" width="2.66" height="9.14" /></g></g><g><path class="cls-25" d="M176.11,143.6c0-.74-.59-1.33-1.33-1.33s-1.33,.6-1.33,1.33v14.17c0,.74,.6,1.34,1.33,1.34s1.33-.6,1.33-1.34v-14.17Z" /><g class="cls-7"><rect class="cls-25" x="173.45" y="142.26" width="2.67" height="16.84" /></g></g><g><path class="cls-25" d="M183.46,148.62c0-.74-.6-1.33-1.35-1.33s-1.33,.59-1.33,1.33v6.48c0,.74,.6,1.34,1.33,1.34s1.35-.59,1.35-1.34v-6.48Z" /><g class="cls-3"><rect class="cls-25" x="180.78" y="147.29" width="2.69" height="9.14" /></g></g><g><path class="cls-25" d="M190.79,152.3c0-.73-.6-1.33-1.34-1.33s-1.33,.6-1.33,1.33v2.8c0,.74,.59,1.34,1.33,1.34s1.34-.59,1.34-1.34v-2.8Z" /><g class="cls-22"><rect class="cls-25" x="188.13" y="150.97" width="2.67" height="5.47" /></g></g></g><g><g><path class="cls-14" d="M132.05,153.07c0-.73-.6-1.33-1.34-1.33s-1.33,.6-1.33,1.33v2.8c0,.74,.6,1.34,1.33,1.34s1.34-.59,1.34-1.34v-2.8Z" /><g class="cls-10"><rect class="cls-14" x="129.38" y="151.73" width="2.67" height="5.47" /></g></g><g><path class="cls-14" d="M139.4,149.39c0-.74-.6-1.33-1.33-1.33s-1.34,.59-1.34,1.33v6.48c0,.74,.6,1.34,1.34,1.34s1.33-.59,1.33-1.34v-6.48Z" /><g class="cls-6"><rect class="cls-14" x="136.72" y="148.06" width="2.67" height="9.14" /></g></g><g><path class="cls-14" d="M146.74,144.36c0-.74-.6-1.33-1.33-1.33s-1.34,.6-1.34,1.33v14.17c0,.74,.6,1.34,1.34,1.34s1.33-.6,1.33-1.34v-14.17Z" /><g class="cls-9"><rect class="cls-14" x="144.07" y="143.03" width="2.67" height="16.84" /></g></g><g><path class="cls-14" d="M154.08,149.39c0-.74-.6-1.33-1.33-1.33s-1.34,.59-1.34,1.33v6.48c0,.74,.6,1.34,1.34,1.34s1.33-.59,1.33-1.34v-6.48Z" /><g class="cls-16"><rect class="cls-14" x="151.41" y="148.06" width="2.67" height="9.14" /></g></g><g><path class="cls-14" d="M161.42,153.07c0-.73-.59-1.33-1.33-1.33s-1.34,.6-1.34,1.33v2.8c0,.74,.6,1.34,1.34,1.34s1.33-.59,1.33-1.34v-2.8Z" /><g class="cls-8"><rect class="cls-14" x="158.75" y="151.73" width="2.67" height="5.47" /></g></g><g><path class="cls-14" d="M168.77,149.39c0-.74-.6-1.33-1.33-1.33s-1.33,.59-1.33,1.33v6.48c0,.74,.6,1.34,1.33,1.34s1.33-.59,1.33-1.34v-6.48Z" /><g class="cls-4"><rect class="cls-14" x="166.1" y="148.06" width="2.66" height="9.14" /></g></g><g><path class="cls-14" d="M176.11,144.36c0-.74-.59-1.33-1.33-1.33s-1.33,.6-1.33,1.33v14.17c0,.74,.6,1.34,1.33,1.34s1.33-.6,1.33-1.34v-14.17Z" /><g class="cls-24"><rect class="cls-14" x="173.45" y="143.03" width="2.67" height="16.84" /></g></g><g><path class="cls-14" d="M183.46,149.39c0-.74-.6-1.33-1.35-1.33s-1.33,.59-1.33,1.33v6.48c0,.74,.6,1.34,1.33,1.34s1.35-.59,1.35-1.34v-6.48Z" /><g class="cls-17"><rect class="cls-14" x="180.78" y="148.06" width="2.69" height="9.14" /></g></g><g><path class="cls-14" d="M190.79,153.07c0-.73-.6-1.33-1.34-1.33s-1.33,.6-1.33,1.33v2.8c0,.74,.59,1.34,1.33,1.34s1.34-.59,1.34-1.34v-2.8Z" /><g class="cls-11"><rect class="cls-14" x="188.13" y="151.73" width="2.67" height="5.47" /></g></g></g><rect class="cls-28" x="158.73" y="240.43" width="3.15" height="10" rx="1.57" ry="1.57" /><g class="cls-19"><path class="cls-1" d="M256.69,297.14c12.44-43.99,18.15-89.77,18.85-135.44-.37-34.35-4.09-68.53-10.72-102.19-1.67-8.14-3.76-16.93-5.79-25.02,0,0-2.33-8.23-2.33-8.23l-.98,.22c4.87,22.18,8.24,44.68,10.76,67.25,2.45,22.57,4.12,45.27,4.23,67.97-.11,22.71-1.78,45.4-4.23,67.97-2.51,22.57-5.89,45.07-10.76,67.25l.98,.22h0Z" /></g><g class="cls-18"><path class="cls-27" d="M63.5,297.14c-12.44-43.99-18.15-89.77-18.85-135.44,.37-34.35,4.09-68.53,10.72-102.19,1.67-8.14,3.76-16.93,5.79-25.02,0,0,2.33-8.23,2.33-8.23l.98,.22c-4.87,22.18-8.24,44.68-10.76,67.25-2.45,22.57-4.12,45.27-4.23,67.97,.11,22.71,1.78,45.4,4.23,67.97,2.51,22.57,5.89,45.07,10.76,67.25l-.98,.22h0Z" /></g></svg>