<svg id="a" data-name="Layer 1" viewBox="0 0 563.56 346.22">
  <defs>
    <style>
      .c {
        fill: url(#b);
      }

      .d {
        fill: #e2e1e1;
      }

      .e {
        fill: #fff;
      }

      .f {
        fill: #c9c6c5;
      }

      .g {
        fill: #d4d4d4;
      }
    </style>
    <linearGradient id="b" x1="281.78" y1="-.67" x2="281.78" y2="342.78" gradientUnits="userSpaceOnUse">
      <stop offset="0" stop-color="#fff" />
      <stop offset=".5" stop-color="#e2e1e1" />
      <stop offset="1" stop-color="#d9d6d3" />
    </linearGradient>
  </defs>
  <rect class="c" width="563.56" height="346.22" rx="42.5" ry="42.5" />
  <rect class="d" x="3" y="3" width="557.56" height="340.22" rx="39.5" ry="39.5" />
  <g>
    <g>
      <path class="e" d="m289.58,275.85c0,2.14,1.55,3.85,3.95,3.85,1.69,0,2.88-.68,3.03-.76v3.87c-.45.13-1.68.51-3.28.51-4.06,0-7.61-2.82-7.61-7.47,0-4.3,3.22-7.46,7.61-7.46,1.69,0,2.94.41,3.28.51v3.87c-.15-.07-1.3-.77-3.03-.77-2.33,0-3.95,1.64-3.95,3.85Z" />
      <path class="e" d="m251.97,275.85c0,2.14,1.55,3.85,3.95,3.85,1.69,0,2.86-.68,3.02-.76v3.87c-.45.13-1.68.51-3.29.51-4.04,0-7.6-2.82-7.6-7.47,0-4.3,3.21-7.46,7.6-7.46,1.69,0,2.95.41,3.29.51v3.87c-.15-.07-1.3-.77-3.02-.77-2.34,0-3.95,1.64-3.95,3.85Z" />
      <path class="e" d="m307.9,268.39c-4.39,0-7.54,3.34-7.54,7.46s3.15,7.47,7.54,7.47,7.54-3.34,7.54-7.47-3.15-7.46-7.54-7.46Zm0,11.25c-2.14,0-3.73-1.69-3.73-3.8s1.59-3.79,3.73-3.79,3.73,1.7,3.73,3.79-1.59,3.8-3.73,3.8Z" />
      <path class="e" d="m282.18,278.47c0,3.63-3.16,4.84-5.91,4.84-1.91,0-3.71-.36-3.89-.4v-3.32c.32.08,1.82.53,3.4.53,1.8,0,2.62-.53,2.62-1.35,0-.72-.71-1.14-1.6-1.42-.23-.08-.55-.18-.77-.25-2-.64-3.68-1.83-3.68-4.21,0-2.69,2-4.51,5.33-4.51,1.75,0,3.4.43,3.51.46v3.08c-.06-.02-1.58-.44-2.82-.44-1.45,0-2.23.49-2.23,1.19,0,.87,1.06,1.18,1.66,1.37l.99.32c2.34.75,3.41,2.37,3.41,4.12Z" />
      <path class="e" d="m244.24,253.42v3.78c0,1-.8,1.8-1.79,1.8s-1.79-.8-1.79-1.8v-3.78c0-.99.81-1.8,1.79-1.8s1.79.81,1.79,1.8Z" />
      <path class="e" d="m254.07,248.45v8.75c0,1-.8,1.8-1.79,1.8s-1.79-.8-1.79-1.8v-8.75c0-.99.8-1.8,1.79-1.8s1.79.81,1.79,1.8Z" />
      <path class="e" d="m263.89,241.66v19.14c0,.99-.8,1.81-1.79,1.81s-1.79-.81-1.79-1.81v-19.14c0-.99.81-1.8,1.79-1.8s1.79.81,1.79,1.8Z" />
      <path class="e" d="m273.72,248.45v8.75c0,1.01-.8,1.8-1.79,1.8s-1.79-.8-1.79-1.8v-8.75c0-.99.8-1.8,1.79-1.8s1.79.81,1.79,1.8Z" />
      <path class="e" d="m283.53,253.42v3.78c0,1-.8,1.8-1.77,1.8s-1.79-.8-1.79-1.8v-3.78c0-.99.8-1.8,1.79-1.8s1.77.81,1.77,1.8Z" />
      <path class="e" d="m293.37,248.45v8.75c0,1-.8,1.8-1.79,1.8s-1.78-.8-1.78-1.8v-8.75c0-.99.79-1.8,1.78-1.8s1.79.81,1.79,1.8Z" />
      <path class="e" d="m303.2,241.66v19.14c0,.99-.8,1.8-1.78,1.8s-1.79-.81-1.79-1.8v-19.14c0-.99.8-1.8,1.79-1.8s1.78.81,1.78,1.8Z" />
      <path class="e" d="m313.03,248.45v8.75c0,1-.8,1.8-1.8,1.8s-1.79-.8-1.79-1.8v-8.75c0-.99.8-1.8,1.79-1.8s1.8.81,1.8,1.8Z" />
      <path class="e" d="m322.84,253.42v3.78c0,1-.8,1.8-1.78,1.8s-1.79-.8-1.79-1.8v-3.78c0-.99.8-1.8,1.79-1.8s1.78.81,1.78,1.8Z" />
      <rect class="e" x="263.9" y="268.64" width="3.6" height="14.41" />
    </g>
    <g>
      <path class="f" d="m289.58,274.71c0,2.14,1.55,3.85,3.95,3.85,1.69,0,2.88-.68,3.03-.76v3.87c-.45.13-1.68.51-3.28.51-4.06,0-7.61-2.82-7.61-7.47,0-4.3,3.22-7.46,7.61-7.46,1.69,0,2.94.41,3.28.51v3.87c-.15-.07-1.3-.77-3.03-.77-2.33,0-3.95,1.64-3.95,3.85Z" />
      <path class="f" d="m251.97,274.71c0,2.14,1.55,3.85,3.95,3.85,1.69,0,2.86-.68,3.02-.76v3.87c-.45.13-1.68.51-3.29.51-4.04,0-7.6-2.82-7.6-7.47,0-4.3,3.21-7.46,7.6-7.46,1.69,0,2.95.41,3.29.51v3.87c-.15-.07-1.3-.77-3.02-.77-2.34,0-3.95,1.64-3.95,3.85Z" />
      <path class="f" d="m307.9,267.26c-4.39,0-7.54,3.34-7.54,7.46s3.15,7.47,7.54,7.47,7.54-3.34,7.54-7.47-3.15-7.46-7.54-7.46Zm0,11.25c-2.14,0-3.73-1.69-3.73-3.8s1.59-3.79,3.73-3.79,3.73,1.7,3.73,3.79-1.59,3.8-3.73,3.8Z" />
      <path class="f" d="m282.18,277.34c0,3.63-3.16,4.84-5.91,4.84-1.91,0-3.71-.36-3.89-.4v-3.32c.32.08,1.82.53,3.4.53,1.8,0,2.62-.53,2.62-1.35,0-.72-.71-1.14-1.6-1.42-.23-.08-.55-.18-.77-.25-2-.64-3.68-1.83-3.68-4.21,0-2.69,2-4.51,5.33-4.51,1.75,0,3.4.43,3.51.46v3.08c-.06-.02-1.58-.44-2.82-.44-1.45,0-2.23.49-2.23,1.19,0,.87,1.06,1.18,1.66,1.37l.99.32c2.34.75,3.41,2.37,3.41,4.12Z" />
      <path class="f" d="m244.24,252.29v3.78c0,1-.8,1.8-1.79,1.8s-1.79-.8-1.79-1.8v-3.78c0-.99.81-1.8,1.79-1.8s1.79.81,1.79,1.8Z" />
      <path class="f" d="m254.07,247.32v8.75c0,1-.8,1.8-1.79,1.8s-1.79-.8-1.79-1.8v-8.75c0-.99.8-1.8,1.79-1.8s1.79.81,1.79,1.8Z" />
      <path class="f" d="m263.89,240.53v19.14c0,.99-.8,1.81-1.79,1.81s-1.79-.81-1.79-1.81v-19.14c0-.99.81-1.8,1.79-1.8s1.79.81,1.79,1.8Z" />
      <path class="f" d="m273.72,247.32v8.75c0,1.01-.8,1.8-1.79,1.8s-1.79-.8-1.79-1.8v-8.75c0-.99.8-1.8,1.79-1.8s1.79.81,1.79,1.8Z" />
      <path class="f" d="m283.53,252.29v3.78c0,1-.8,1.8-1.77,1.8s-1.79-.8-1.79-1.8v-3.78c0-.99.8-1.8,1.79-1.8s1.77.81,1.77,1.8Z" />
      <path class="f" d="m293.37,247.32v8.75c0,1-.8,1.8-1.79,1.8s-1.78-.8-1.78-1.8v-8.75c0-.99.79-1.8,1.78-1.8s1.79.81,1.79,1.8Z" />
      <path class="f" d="m303.2,240.53v19.14c0,.99-.8,1.8-1.78,1.8s-1.79-.81-1.79-1.8v-19.14c0-.99.8-1.8,1.79-1.8s1.78.81,1.78,1.8Z" />
      <path class="f" d="m313.03,247.32v8.75c0,1-.8,1.8-1.8,1.8s-1.79-.8-1.79-1.8v-8.75c0-.99.8-1.8,1.79-1.8s1.8.81,1.8,1.8Z" />
      <path class="f" d="m322.84,252.29v3.78c0,1-.8,1.8-1.78,1.8s-1.79-.8-1.79-1.8v-3.78c0-.99.8-1.8,1.79-1.8s1.78.81,1.78,1.8Z" />
      <rect class="f" x="263.9" y="267.51" width="3.6" height="14.41" />
    </g>
    <g>
      <path class="g" d="m289.58,275.27c0,2.14,1.55,3.85,3.95,3.85,1.69,0,2.88-.68,3.03-.76v3.87c-.45.13-1.68.51-3.28.51-4.06,0-7.61-2.82-7.61-7.47,0-4.3,3.22-7.46,7.61-7.46,1.69,0,2.94.41,3.28.51v3.87c-.15-.07-1.3-.77-3.03-.77-2.33,0-3.95,1.64-3.95,3.85Z" />
      <path class="g" d="m251.97,275.27c0,2.14,1.55,3.85,3.95,3.85,1.69,0,2.86-.68,3.02-.76v3.87c-.45.13-1.68.51-3.29.51-4.04,0-7.6-2.82-7.6-7.47,0-4.3,3.21-7.46,7.6-7.46,1.69,0,2.95.41,3.29.51v3.87c-.15-.07-1.3-.77-3.02-.77-2.34,0-3.95,1.64-3.95,3.85Z" />
      <path class="g" d="m307.9,267.82c-4.39,0-7.54,3.34-7.54,7.46s3.15,7.47,7.54,7.47,7.54-3.34,7.54-7.47-3.15-7.46-7.54-7.46Zm0,11.25c-2.14,0-3.73-1.69-3.73-3.8s1.59-3.79,3.73-3.79,3.73,1.7,3.73,3.79-1.59,3.8-3.73,3.8Z" />
      <path class="g" d="m282.18,277.9c0,3.63-3.16,4.84-5.91,4.84-1.91,0-3.71-.36-3.89-.4v-3.32c.32.08,1.82.53,3.4.53,1.8,0,2.62-.53,2.62-1.35,0-.72-.71-1.14-1.6-1.42-.23-.08-.55-.18-.77-.25-2-.64-3.68-1.83-3.68-4.21,0-2.69,2-4.51,5.33-4.51,1.75,0,3.4.43,3.51.46v3.08c-.06-.02-1.58-.44-2.82-.44-1.45,0-2.23.49-2.23,1.19,0,.87,1.06,1.18,1.66,1.37l.99.32c2.34.75,3.41,2.37,3.41,4.12Z" />
      <path class="g" d="m244.24,252.85v3.78c0,1-.8,1.8-1.79,1.8s-1.79-.8-1.79-1.8v-3.78c0-.99.81-1.8,1.79-1.8s1.79.81,1.79,1.8Z" />
      <path class="g" d="m254.07,247.88v8.75c0,1-.8,1.8-1.79,1.8s-1.79-.8-1.79-1.8v-8.75c0-.99.8-1.8,1.79-1.8s1.79.81,1.79,1.8Z" />
      <path class="g" d="m263.89,241.09v19.14c0,.99-.8,1.81-1.79,1.81s-1.79-.81-1.79-1.81v-19.14c0-.99.81-1.8,1.79-1.8s1.79.81,1.79,1.8Z" />
      <path class="g" d="m273.72,247.88v8.75c0,1.01-.8,1.8-1.79,1.8s-1.79-.8-1.79-1.8v-8.75c0-.99.8-1.8,1.79-1.8s1.79.81,1.79,1.8Z" />
      <path class="g" d="m283.53,252.85v3.78c0,1-.8,1.8-1.77,1.8s-1.79-.8-1.79-1.8v-3.78c0-.99.8-1.8,1.79-1.8s1.77.81,1.77,1.8Z" />
      <path class="g" d="m293.37,247.88v8.75c0,1-.8,1.8-1.79,1.8s-1.78-.8-1.78-1.8v-8.75c0-.99.79-1.8,1.78-1.8s1.79.81,1.79,1.8Z" />
      <path class="g" d="m303.2,241.09v19.14c0,.99-.8,1.8-1.78,1.8s-1.79-.81-1.79-1.8v-19.14c0-.99.8-1.8,1.79-1.8s1.78.81,1.78,1.8Z" />
      <path class="g" d="m313.03,247.88v8.75c0,1-.8,1.8-1.8,1.8s-1.79-.8-1.79-1.8v-8.75c0-.99.8-1.8,1.79-1.8s1.8.81,1.8,1.8Z" />
      <path class="g" d="m322.84,252.85v3.78c0,1-.8,1.8-1.78,1.8s-1.79-.8-1.79-1.8v-3.78c0-.99.8-1.8,1.79-1.8s1.78.81,1.78,1.8Z" />
      <rect class="g" x="263.9" y="268.07" width="3.6" height="14.41" />
    </g>
  </g>
</svg>