<svg id="a" data-name="Layer 1" viewBox="0 0 446.5 213.33">
  <defs>
    <style>
      .b {
        fill: #fff;
      }

      .c {
        fill: #9f9c9b;
      }

      .d {
        fill: #cecdcd;
      }

      .e {
        fill: #d1cecc;
      }

      .f {
        fill: #d6d4d6;
      }

      .g {
        fill: #e0e0e0;
      }

      .h {
        fill: #181616;
      }

      .i {
        fill: #959292;
      }

      .j {
        fill: #888785;
      }

      .k {
        fill: #646462;
      }

      .l {
        fill: #2f2d2b;
      }

      .m {
        fill: #262525;
      }

      .n {
        fill: #3b3a39;
      }

      .o, .p {
        fill: #606060;
      }

      .q {
        fill: none;
        stroke: #606060;
        stroke-miterlimit: 10;
        stroke-width: .75px;
      }

      .p {
        font-family: CiscoSansTTLight, CiscoSansTT;
        font-size: 9.06px;
      }
    </style>
  </defs>
  <path class="g" d="m446.49,112.65c-1.12,5.9-7.98,9.16-29.86,9.16H29.87C7.99,121.81,1.13,118.55,0,112.65c-.04-2.01.06-4.01.29-5.99.45-4.01,1.42-7.95,2.9-11.73L34.82,14.22S39.48,0,113.04,0h220.42c73.55,0,78.22,14.22,78.22,14.22l31.62,80.71c1.48,3.78,2.45,7.72,2.9,11.73.23,1.98.33,3.98.29,5.99Z" />
  <path class="d" d="m446.49,112.65c-.02,1.42-.11,2.84-.26,4.26-2.26,20.73-6.94,63.65-8.34,74.76h0c-2.59,9.57-15.4,15.78-54.76,15.78H63.37c-39.47,0-52.24-6.25-54.78-15.85v-.02c-.14-1.11-.31-2.52-.51-4.18v-.02c-1.79-15.26-5.78-51.83-7.81-70.47-.15-1.42-.24-2.84-.26-4.26,1.12,5.9,7.98,9.16,29.86,9.16h386.76c21.88,0,28.74-3.26,29.86-9.16Z" />
  <path class="j" d="m437.89,191.68s0,.09-.02.13c-.82,6.52-9.05,11.53-17.86,15.07-10.85,4.36-22.48,6.45-34.18,6.45H60.67c-11.7,0-23.33-2.09-34.18-6.45-8.81-3.54-17.04-8.55-17.87-15.07l-.03-.21c2.54,9.6,15.31,15.85,54.78,15.85h319.76c39.36,0,52.17-6.21,54.76-15.77Z" />
  <rect class="n" x="99.16" y="144.07" width="248.17" height="56.17" rx="1.11" ry="1.11" />
  <rect class="i" x="101.08" y="145.59" width="244.33" height="53.13" rx=".74" ry=".74" />
  <path d="m162.18,168.54c.27,0,.48-.22.48-.48s-.22-.48-.48-.48h-1.02v-9.76c0-.42-.33-.75-.75-.75h-7.9c-.41,0-.75-.34-.75-.75v-3.98c0-.41-.34-.75-.75-.75h-5.06c-.41,0-.75-.34-.75-.75v-4.5c0-.41-.34-.75-.75-.75h-17.9c-.41,0-.75.34-.75.75v4.5c0,.41-.34.75-.75.75h-5.06c-.41,0-.75.34-.75.75v3.98c0,.41-.34.75-.75.75h-7.9c-.42,0-.75.33-.75.75v9.76h-1.02c-.27,0-.48.22-.48.48s.22.48.48.48h1.02v8.97h-1.02c-.27,0-.48.22-.48.48s.22.48.48.48h1.02v8.15c0,.42.33.75.75.75h49.82c.42,0,.75-.33.75-.75v-8.15h1.02c.27,0,.48-.22.48-.48s-.22-.48-.48-.48h-1.02v-8.97h1.02Z" />
  <path d="m220.68,168.54c.27,0,.48-.22.48-.48s-.22-.48-.48-.48h-1.02v-9.76c0-.42-.33-.75-.75-.75h-7.9c-.41,0-.75-.34-.75-.75v-3.98c0-.41-.34-.75-.75-.75h-5.06c-.41,0-.75-.34-.75-.75v-4.5c0-.41-.34-.75-.75-.75h-17.9c-.41,0-.75.34-.75.75v4.5c0,.41-.34.75-.75.75h-5.06c-.41,0-.75.34-.75.75v3.98c0,.41-.34.75-.75.75h-7.9c-.42,0-.75.33-.75.75v9.76h-1.02c-.27,0-.48.22-.48.48s.22.48.48.48h1.02v8.97h-1.02c-.27,0-.48.22-.48.48s.22.48.48.48h1.02v8.15c0,.42.33.75.75.75h49.82c.42,0,.75-.33.75-.75v-8.15h1.02c.27,0,.48-.22.48-.48s-.22-.48-.48-.48h-1.02v-8.97h1.02Z" />
  <path d="m279.18,168.54c.27,0,.48-.22.48-.48s-.22-.48-.48-.48h-1.02v-9.76c0-.42-.33-.75-.75-.75h-7.9c-.41,0-.75-.34-.75-.75v-3.98c0-.41-.34-.75-.75-.75h-5.06c-.41,0-.75-.34-.75-.75v-4.5c0-.41-.34-.75-.75-.75h-17.9c-.41,0-.75.34-.75.75v4.5c0,.41-.34.75-.75.75h-5.06c-.41,0-.75.34-.75.75v3.98c0,.41-.34.75-.75.75h-7.9c-.42,0-.75.33-.75.75v9.76h-1.02c-.27,0-.48.22-.48.48s.22.48.48.48h1.02v8.97h-1.02c-.27,0-.48.22-.48.48s.22.48.48.48h1.02v8.15c0,.42.33.75.75.75h49.82c.42,0,.75-.33.75-.75v-8.15h1.02c.27,0,.48-.22.48-.48s-.22-.48-.48-.48h-1.02v-8.97h1.02Z" />
  <path d="m337.68,177.51h-1.02v-8.97h1.02c.27,0,.48-.22.48-.48s-.22-.48-.48-.48h-1.02v-9.76c0-.42-.33-.75-.75-.75h-7.9c-.41,0-.75-.34-.75-.75v-3.98c0-.41-.34-.75-.75-.75h-5.06c-.41,0-.75-.34-.75-.75v-4.5c0-.41-.34-.75-.75-.75h-17.9c-.41,0-.75.34-.75.75v4.5c0,.41-.34.75-.75.75h-5.06c-.41,0-.75.34-.75.75v3.98c0,.41-.34.75-.75.75h-7.9c-.42,0-.75.33-.75.75v9.76h-1.02c-.27,0-.48.22-.48.48s.22.48.48.48h1.02v8.97h-1.02c-.27,0-.48.22-.48.48s.22.48.48.48h1.02v8.15c0,.42.33.75.75.75h49.82c.42,0,.75-.33.75-.75v-8.15h1.02c.27,0,.48-.22.48-.48s-.22-.48-.48-.48Z" />
  <g>
    <rect class="l" x="119.79" y="177.43" width="1.58" height="6.83" />
    <rect class="l" x="123.98" y="177.43" width="1.58" height="6.83" />
    <rect class="l" x="128.17" y="177.43" width="1.58" height="6.83" />
    <rect class="l" x="132.36" y="177.43" width="1.58" height="6.83" />
    <rect class="l" x="136.55" y="177.43" width="1.58" height="6.83" />
    <rect class="l" x="140.74" y="177.43" width="1.58" height="6.83" />
    <rect class="l" x="144.93" y="177.43" width="1.58" height="6.83" />
    <rect class="l" x="149.12" y="177.43" width="1.58" height="6.83" />
  </g>
  <g>
    <rect class="l" x="178.54" y="177.43" width="1.58" height="6.83" />
    <rect class="l" x="182.73" y="177.43" width="1.58" height="6.83" />
    <rect class="l" x="186.92" y="177.43" width="1.58" height="6.83" />
    <rect class="l" x="191.11" y="177.43" width="1.58" height="6.83" />
    <rect class="l" x="195.3" y="177.43" width="1.58" height="6.83" />
    <rect class="l" x="199.49" y="177.43" width="1.58" height="6.83" />
    <rect class="l" x="203.68" y="177.43" width="1.58" height="6.83" />
    <rect class="l" x="207.87" y="177.43" width="1.58" height="6.83" />
  </g>
  <g>
    <rect class="l" x="237.29" y="177.43" width="1.58" height="6.83" />
    <rect class="l" x="241.48" y="177.43" width="1.58" height="6.83" />
    <rect class="l" x="245.67" y="177.43" width="1.58" height="6.83" />
    <rect class="l" x="249.86" y="177.43" width="1.58" height="6.83" />
    <rect class="l" x="254.05" y="177.43" width="1.58" height="6.83" />
    <rect class="l" x="258.24" y="177.43" width="1.58" height="6.83" />
    <rect class="l" x="262.43" y="177.43" width="1.58" height="6.83" />
    <rect class="l" x="266.62" y="177.43" width="1.58" height="6.83" />
  </g>
  <g>
    <rect class="l" x="296.04" y="177.43" width="1.58" height="6.83" />
    <rect class="l" x="300.23" y="177.43" width="1.58" height="6.83" />
    <rect class="l" x="304.42" y="177.43" width="1.58" height="6.83" />
    <rect class="l" x="308.61" y="177.43" width="1.58" height="6.83" />
    <rect class="l" x="312.8" y="177.43" width="1.58" height="6.83" />
    <rect class="l" x="316.99" y="177.43" width="1.58" height="6.83" />
    <rect class="l" x="321.18" y="177.43" width="1.58" height="6.83" />
    <rect class="l" x="325.37" y="177.43" width="1.58" height="6.83" />
  </g>
  <g>
    <polygon class="o" points="190.83 132.28 192.31 132.28 191.48 134.27 192.69 134.27 190.83 137.49 191.22 135.14 189.87 135.14 190.83 132.28" />
    <text class="p" transform="translate(192.69 137.75)"><tspan x="0" y="0">1</tspan></text>
  </g>
  <text class="p" transform="translate(249.78 137.75)"><tspan x="0" y="0">2</tspan></text>
  <text class="p" transform="translate(308.28 137.75)"><tspan x="0" y="0">3</tspan></text>
  <circle class="e" cx="373.96" cy="172.15" r="11.67" />
  <path class="k" d="m380.04,170.89c0,3.36-2.72,6.08-6.08,6.08s-6.09-2.72-6.09-6.08c0-1.29.4-2.48,1.09-3.46,1.09-1.58,2.93-2.62,5-2.62s3.9,1.04,4.99,2.62c.69.98,1.09,2.17,1.09,3.46Z" />
  <path class="m" d="m378.95,167.43c-.44,2.35-2.51,4.13-4.99,4.13s-4.56-1.78-5-4.13c1.09-1.58,2.93-2.62,5-2.62s3.9,1.04,4.99,2.62Z" />
  <circle class="m" cx="71.98" cy="170.95" r="4" />
  <circle class="h" cx="71.98" cy="170" r="3.06" />
  <polyline class="q" points="140.04 134.2 132.71 134.2 135.68 131.49" />
  <polyline class="q" points="131.72 135.7 139.05 135.7 136.08 138.4" />
  <g>
    <g>
      <path class="b" d="m234.84,91.07c.01.71,2.03,1.28,5.13,1.28,2.19,0,3.72-.23,3.91-.26l.05,1.29c-.59.05-2.18.17-4.25.17-5.26,0-9.88-.94-9.9-2.49-.01-1.42,4.11-2.46,9.75-2.46,2.18,0,3.79.13,4.22.17l.05,1.28c-.19-.02-1.7-.26-3.91-.26-3.01,0-5.07.54-5.06,1.27h0Z" />
      <path class="b" d="m186.25,91.07c-.05.71,1.9,1.28,5.03,1.28,2.19,0,3.73-.23,3.92-.26l-.08,1.29c-.6.05-2.19.17-4.28.17-5.25,0-9.79-.94-9.65-2.49.12-1.42,4.35-2.46,9.99-2.46,2.18,0,3.79.13,4.22.17l-.08,1.28c-.19-.02-1.67-.26-3.87-.26-3.01,0-5.14.54-5.2,1.27h0Z" />
      <path class="b" d="m258.34,88.61c-5.64,0-9.64,1.1-9.58,2.46.07,1.37,4.21,2.49,9.91,2.49s9.69-1.12,9.57-2.49-4.27-2.46-9.91-2.46Zm.25,3.72c-2.77,0-4.87-.56-4.91-1.26-.04-.7,1.97-1.26,4.74-1.26s4.85.56,4.91,1.26c.05.69-1.97,1.26-4.74,1.26Z" />
      <path class="b" d="m225.27,91.94c0,1.21-4.09,1.62-7.67,1.62-2.49,0-4.81-.12-5.04-.13l.03-1.11c.42.02,2.37.18,4.4.18,2.32,0,3.4-.17,3.4-.45,0-.24-.92-.38-2.06-.47-.29-.02-.72-.06-1.01-.09-2.59-.21-4.75-.61-4.73-1.4.02-.89,2.61-1.49,6.89-1.49,2.26,0,4.37.14,4.51.15v1.01s-2.02-.15-3.63-.15c-1.86,0-2.87.16-2.87.39,0,.29,1.37.39,2.13.45l1.28.11c3.02.25,4.4.78,4.41,1.37h-.03Z" />
      <path class="b" d="m176.97,83.74l-.12,1.22c-.03.32-1.08.58-2.35.58s-2.26-.26-2.23-.58l.13-1.22c.03-.32,1.08-.58,2.34-.58s2.25.26,2.22.58Z" />
      <path class="b" d="m189.61,82.14l-.2,2.82c-.02.32-1.07.58-2.33.58s-2.25-.26-2.23-.58l.23-2.82c.03-.32,1.05-.58,2.3-.58s2.25.26,2.23.58Z" />
      <path class="b" d="m202.16,79.98l-.28,6.15c-.01.32-1.06.59-2.32.59s-2.28-.27-2.26-.59l.34-6.15c.02-.31,1.05-.57,2.29-.57s2.25.25,2.24.57Z" />
      <path class="b" d="m214.53,82.14l-.06,2.82c0,.32-1.04.58-2.3.58s-2.27-.26-2.26-.58l.08-2.82c0-.32,1.04-.58,2.27-.58s2.27.26,2.26.58Z" />
      <path class="b" d="m226.99,83.74v1.22c0,.32-1,.58-2.25.58s-2.29-.26-2.29-.58v-1.22c0-.32,1.03-.58,2.29-.58s2.25.26,2.25.58Z" />
      <path class="b" d="m239.46,82.14l.08,2.82c0,.32-1.01.58-2.26.58s-2.28-.26-2.29-.58l-.06-2.82c0-.32.99-.58,2.24-.58s2.26.26,2.27.58Z" />
      <path class="b" d="m251.8,79.98l.34,6.15c.02.32-.98.59-2.25.59s-2.29-.26-2.31-.59l-.28-6.15c-.01-.31.97-.57,2.22-.57s2.26.25,2.28.57Z" />
      <path class="b" d="m264.41,82.14l.23,2.82c.03.32-.96.58-2.26.58s-2.29-.26-2.32-.58l-.2-2.82c-.02-.32.96-.58,2.21-.58s2.31.26,2.33.58Z" />
      <path class="b" d="m277.02,83.74l.13,1.22c.03.32-.96.58-2.21.58s-2.3-.26-2.33-.58l-.12-1.22c-.03-.32.95-.58,2.21-.58s2.29.26,2.33.58Z" />
      <polygon class="b" points="201.77 88.69 206.42 88.69 206.24 93.47 201.55 93.47 201.77 88.69" />
    </g>
    <g>
      <path class="c" d="m234.83,90.76c.01.71,2.03,1.28,5.13,1.28,2.19,0,3.72-.23,3.91-.26l.05,1.29c-.59.05-2.17.17-4.24.17-5.26,0-9.87-.94-9.89-2.49-.01-1.42,4.1-2.46,9.74-2.46,2.18,0,3.79.13,4.22.17l.05,1.27c-.19-.02-1.7-.26-3.91-.26-3.01,0-5.07.54-5.05,1.27h0Z" />
      <path class="c" d="m186.28,90.76c-.05.71,1.9,1.28,5.02,1.28,2.19,0,3.73-.23,3.92-.26l-.08,1.29c-.6.05-2.19.17-4.28.17-5.25,0-9.78-.94-9.65-2.49.12-1.42,4.34-2.46,9.98-2.46,2.18,0,3.79.13,4.21.17l-.08,1.27c-.19-.02-1.67-.26-3.87-.26-3.01,0-5.14.54-5.19,1.27h0Z" />
      <path class="c" d="m258.32,88.3c-5.64,0-9.64,1.1-9.57,2.46.07,1.37,4.21,2.49,9.9,2.49s9.69-1.12,9.57-2.49c-.12-1.36-4.26-2.46-9.9-2.46Zm.25,3.72c-2.77,0-4.87-.56-4.91-1.26s1.97-1.25,4.74-1.25,4.85.56,4.91,1.25-1.97,1.26-4.73,1.26Z" />
      <path class="c" d="m225.27,91.63c0,1.21-4.09,1.62-7.67,1.62-2.49,0-4.81-.12-5.03-.13l.03-1.11c.42.02,2.36.18,4.4.18,2.32,0,3.39-.17,3.4-.45,0-.24-.92-.38-2.06-.47-.29-.02-.72-.06-1.01-.09-2.58-.21-4.75-.61-4.73-1.4.02-.89,2.61-1.48,6.88-1.48,2.26,0,4.37.14,4.51.15v1.01s-2.02-.15-3.63-.15c-1.86,0-2.87.16-2.87.39,0,.29,1.37.39,2.13.45l1.27.11c3.01.25,4.4.78,4.4,1.37h-.03Z" />
      <path class="c" d="m177,83.43l-.12,1.22c-.03.32-1.08.58-2.35.58s-2.26-.26-2.23-.58l.13-1.22c.03-.32,1.08-.58,2.34-.58s2.25.26,2.22.58Z" />
      <path class="c" d="m189.63,81.84l-.2,2.81c-.02.32-1.07.58-2.33.58s-2.25-.26-2.23-.58l.23-2.81c.03-.32,1.05-.58,2.3-.58s2.25.26,2.23.58Z" />
      <path class="c" d="m202.18,79.68l-.28,6.14c-.01.32-1.06.59-2.32.59s-2.28-.27-2.26-.59l.34-6.14c.02-.31,1.04-.57,2.29-.57s2.25.25,2.23.57Z" />
      <path class="c" d="m214.54,81.84l-.06,2.81c0,.32-1.04.58-2.3.58s-2.27-.26-2.26-.58l.08-2.81c0-.32,1.04-.58,2.27-.58s2.26.26,2.26.58Z" />
      <path class="c" d="m226.99,83.43v1.22c0,.32-1,.58-2.25.58s-2.29-.26-2.29-.58v-1.22c0-.32,1.03-.58,2.29-.58s2.25.26,2.25.58Z" />
      <path class="c" d="m239.45,81.84l.08,2.81c0,.32-1.01.58-2.26.58s-2.28-.26-2.29-.58l-.06-2.81c0-.32.99-.58,2.24-.58s2.26.26,2.27.58Z" />
      <path class="c" d="m251.79,79.68l.34,6.14c.02.32-.98.59-2.25.59s-2.29-.26-2.31-.59l-.28-6.14c-.01-.31.97-.57,2.22-.57s2.26.25,2.28.57Z" />
      <path class="c" d="m264.39,81.84l.23,2.81c.03.32-.96.58-2.26.58s-2.29-.26-2.31-.58l-.2-2.81c-.02-.32.96-.58,2.21-.58s2.31.26,2.33.58Z" />
      <path class="c" d="m276.99,83.43l.13,1.22c.03.32-.96.58-2.21.58s-2.3-.26-2.33-.58l-.12-1.22c-.03-.32.95-.58,2.21-.58s2.29.26,2.32.58Z" />
      <polygon class="c" points="201.79 88.38 206.43 88.38 206.25 93.16 201.57 93.16 201.79 88.38" />
    </g>
    <g>
      <path class="f" d="m234.83,90.91c.01.71,2.03,1.28,5.13,1.28,2.19,0,3.72-.23,3.91-.26l.05,1.29c-.59.05-2.18.17-4.25.17-5.26,0-9.88-.94-9.89-2.49-.01-1.42,4.11-2.46,9.75-2.46,2.18,0,3.79.13,4.22.17l.05,1.27c-.19-.02-1.7-.26-3.91-.26-3.01,0-5.07.54-5.05,1.27h0Z" />
      <path class="f" d="m186.27,90.91c-.05.71,1.9,1.28,5.02,1.28,2.19,0,3.73-.23,3.92-.26l-.08,1.29c-.6.05-2.19.17-4.28.17-5.25,0-9.79-.94-9.65-2.49.12-1.42,4.35-2.46,9.99-2.46,2.18,0,3.79.13,4.22.17l-.08,1.27c-.19-.02-1.67-.26-3.87-.26-3.01,0-5.14.54-5.19,1.27h0Z" />
      <path class="f" d="m258.33,88.45c-5.64,0-9.64,1.1-9.57,2.46s4.21,2.49,9.91,2.49,9.69-1.12,9.57-2.49-4.27-2.46-9.91-2.46Zm.25,3.73c-2.77,0-4.87-.56-4.91-1.26s1.97-1.26,4.74-1.26,4.85.56,4.91,1.26-1.97,1.26-4.74,1.26Z" />
      <path class="f" d="m225.27,91.78c0,1.21-4.09,1.62-7.67,1.62-2.49,0-4.81-.12-5.04-.13l.03-1.11c.42.02,2.37.18,4.4.18,2.32,0,3.4-.17,3.4-.45,0-.24-.92-.38-2.06-.47-.29-.02-.72-.06-1.01-.09-2.58-.21-4.75-.61-4.73-1.4.02-.89,2.61-1.49,6.88-1.49,2.26,0,4.37.14,4.51.15v1.01s-2.02-.15-3.63-.15c-1.86,0-2.87.16-2.87.39,0,.29,1.37.39,2.13.45l1.27.11c3.01.25,4.4.78,4.4,1.37h-.03Z" />
      <path class="f" d="m176.98,83.58l-.12,1.22c-.03.32-1.08.58-2.35.58s-2.26-.26-2.23-.58l.13-1.22c.03-.32,1.08-.58,2.34-.58s2.25.26,2.22.58Z" />
      <path class="f" d="m189.62,81.99l-.2,2.82c-.02.32-1.07.58-2.33.58s-2.25-.26-2.23-.58l.23-2.82c.03-.32,1.05-.58,2.3-.58s2.25.26,2.23.58Z" />
      <path class="f" d="m202.17,79.83l-.28,6.14c-.01.32-1.06.59-2.32.59s-2.28-.27-2.26-.59l.34-6.14c.02-.31,1.05-.57,2.29-.57s2.25.25,2.23.57Z" />
      <path class="f" d="m214.53,81.99l-.06,2.82c0,.32-1.04.58-2.3.58s-2.27-.26-2.26-.58l.08-2.82c0-.32,1.04-.58,2.27-.58s2.27.26,2.26.58Z" />
      <path class="f" d="m226.99,83.58v1.22c0,.32-1,.58-2.25.58s-2.29-.26-2.29-.58v-1.22c0-.32,1.03-.58,2.29-.58s2.25.26,2.25.58Z" />
      <path class="f" d="m239.45,81.99l.08,2.82c0,.32-1.01.58-2.26.58s-2.28-.26-2.29-.58l-.06-2.82c0-.32.99-.58,2.24-.58s2.26.26,2.27.58Z" />
      <path class="f" d="m251.8,79.83l.34,6.14c.02.32-.98.59-2.25.59s-2.29-.26-2.31-.59l-.28-6.14c-.01-.31.97-.57,2.22-.57s2.26.25,2.28.57Z" />
      <path class="f" d="m264.4,81.99l.23,2.82c.03.32-.96.58-2.26.58s-2.29-.26-2.32-.58l-.2-2.82c-.02-.32.96-.58,2.21-.58s2.31.26,2.33.58Z" />
      <path class="f" d="m277,83.58l.13,1.22c.03.32-.96.58-2.21.58s-2.3-.26-2.33-.58l-.12-1.22c-.03-.32.95-.58,2.21-.58s2.29.26,2.32.58Z" />
      <polygon class="f" points="201.78 88.53 206.42 88.53 206.25 93.31 201.56 93.31 201.78 88.53" />
    </g>
  </g>
</svg>