<svg id="a" width="309.16" height="312.52" viewBox="0 0 309.16 312.52"><defs><style>.f{fill:url(#d);}.f,.g{opacity:.28;}.h{fill:#eaebee;}.i{fill:#d1d3d4;}.j{fill:#e6e7e8;}.k{fill:#bcbec0;}.l{fill:none;opacity:.53;}.m{fill:#1c75bc;}.g{fill:url(#e);}</style><linearGradient id="d" x1="13.14" y1="156.26" x2="53.42" y2="156.26" gradientTransform="translate(309.16) rotate(-180) scale(1 -1)" gradientUnits="userSpaceOnUse"><stop offset=".37" stop-color="#eaebee" /><stop offset=".61" stop-color="#e8e9ec" /><stop offset=".69" stop-color="#e1e2e5" /><stop offset=".75" stop-color="#d5d6d9" /><stop offset=".8" stop-color="#c4c6c8" /><stop offset=".82" stop-color="#bcbec0" /><stop offset=".88" stop-color="#c5c7c9" /><stop offset=".96" stop-color="#dedfe2" /><stop offset="1" stop-color="#eaebee" /></linearGradient><linearGradient id="e" x1="13.14" y1="156.26" x2="53.42" y2="156.26" gradientUnits="userSpaceOnUse"><stop offset=".37" stop-color="#eaebee" /><stop offset=".61" stop-color="#e8e9ec" /><stop offset=".7" stop-color="#e1e2e5" /><stop offset=".76" stop-color="#d5d6d9" /><stop offset=".81" stop-color="#c4c6c8" /><stop offset=".83" stop-color="#bcbec0" /><stop offset=".88" stop-color="#c5c7c9" /><stop offset=".97" stop-color="#dedfe2" /><stop offset="1" stop-color="#eaebee" /></linearGradient></defs><path class="h" d="m309.14,156.26c.06,4.71.47,51.61-9.4,86.33-10.41,36.59-22.16,72.17-145.16,69.82-123.01,2.35-134.75-33.23-145.16-69.82C-.45,207.87-.04,160.96.02,156.26c-.06-4.71-.47-51.61,9.4-86.33C19.83,33.34,31.58-2.24,154.58.11c123.01-2.35,134.75,33.23,145.16,69.82,9.87,34.72,9.46,81.62,9.4,86.33Z" /><g id="b"><polygon class="k" points="143.73 170.71 140.98 170.71 140.98 160.4 143.73 160.4 143.73 170.71 143.73 170.71" /><path class="k" d="m165.87,163.35c-.12-.05-1-.55-2.31-.55-1.78,0-3.01,1.17-3.01,2.75s1.18,2.75,3.01,2.75c1.29,0,2.19-.48,2.31-.55v2.77c-.35.09-1.29.37-2.5.37-3.09,0-5.8-2.02-5.8-5.34,0-3.08,2.45-5.33,5.8-5.33,1.29,0,2.24.3,2.5.37v2.77h0Z" /><path class="k" d="m137.21,163.35c-.11-.05-.99-.55-2.31-.55-1.78,0-3.01,1.17-3.01,2.75s1.17,2.75,3.01,2.75c1.29,0,2.19-.48,2.31-.55v2.77c-.34.09-1.28.37-2.51.37-3.09,0-5.79-2.02-5.79-5.34,0-3.08,2.45-5.33,5.79-5.33,1.3,0,2.25.3,2.51.37v2.77h0Z" /><path class="k" d="m180.24,165.55c0,2.95-2.4,5.34-5.75,5.34-3.34,0-5.74-2.39-5.74-5.34,0-2.94,2.4-5.33,5.74-5.33,3.35,0,5.75,2.39,5.75,5.33h0Zm-5.75-2.71c-1.63,0-2.83,1.21-2.83,2.71s1.21,2.72,2.83,2.72,2.84-1.21,2.84-2.72c0-1.5-1.21-2.71-2.84-2.71h0Z" /><path class="k" d="m154.14,162.74s-1.19-.31-2.14-.31c-1.1,0-1.7.35-1.7.85,0,.62.8.84,1.25.98l.76.23c1.78.54,2.59,1.69,2.59,2.95,0,2.59-2.41,3.46-4.5,3.46-1.46,0-2.82-.26-2.96-.28v-2.37c.24.06,1.39.39,2.59.39,1.36,0,1.99-.38,1.99-.97s-.54-.82-1.23-1.02c-.17-.05-.41-.13-.59-.18-1.53-.46-2.8-1.31-2.8-3.02,0-1.93,1.52-3.22,4.05-3.22,1.33,0,2.59.3,2.67.32v2.2h0Z" /><path class="k" d="m126.33,149.31c0-.79-.6-1.43-1.35-1.43-.73,0-1.34.64-1.34,1.43v3.01c0,.8.61,1.43,1.34,1.43s1.35-.64,1.35-1.43v-3.01h0Z" /><path class="k" d="m133.73,145.36c0-.79-.6-1.43-1.34-1.43-.75,0-1.35.64-1.35,1.43v6.96c0,.8.61,1.43,1.35,1.43s1.34-.64,1.34-1.43v-6.96h0Z" /><path class="k" d="m141.13,139.96c0-.79-.6-1.43-1.34-1.43s-1.35.64-1.35,1.43v15.21c0,.79.61,1.44,1.35,1.44.74,0,1.34-.64,1.34-1.44v-15.21h0Z" /><path class="k" d="m148.53,145.36c0-.79-.6-1.43-1.34-1.43s-1.35.64-1.35,1.43v6.96c0,.8.6,1.43,1.35,1.43s1.34-.64,1.34-1.43v-6.96h0Z" /><path class="k" d="m155.92,149.31c0-.79-.6-1.43-1.34-1.43s-1.35.64-1.35,1.43v3.01c0,.8.61,1.43,1.35,1.43s1.34-.64,1.34-1.43v-3.01h0Z" /><path class="k" d="m163.33,145.36c0-.79-.6-1.43-1.34-1.43-.74,0-1.34.64-1.34,1.43v6.96c0,.8.6,1.43,1.34,1.43s1.34-.64,1.34-1.43v-6.96h0Z" /><path class="k" d="m170.73,139.96c0-.79-.6-1.43-1.35-1.43s-1.34.64-1.34,1.43v15.21c0,.79.61,1.44,1.34,1.44s1.35-.64,1.35-1.44v-15.21h0Z" /><path class="k" d="m178.13,145.36c0-.79-.61-1.43-1.36-1.43s-1.34.64-1.34,1.43v6.96c0,.8.61,1.43,1.34,1.43.76,0,1.36-.64,1.36-1.43v-6.96h0Z" /><path class="k" d="m185.52,149.31c0-.79-.61-1.43-1.35-1.43s-1.34.64-1.34,1.43v3.01c0,.8.6,1.43,1.34,1.43.74,0,1.35-.64,1.35-1.43v-3.01h0Z" /></g><g id="c"><polygon class="j" points="143.73 171.1 140.98 171.1 140.98 160.78 143.73 160.78 143.73 171.1 143.73 171.1" /><path class="j" d="m165.87,163.74c-.12-.05-1-.55-2.31-.55-1.78,0-3.01,1.17-3.01,2.75s1.18,2.75,3.01,2.75c1.29,0,2.19-.48,2.31-.55v2.77c-.35.09-1.29.37-2.5.37-3.09,0-5.8-2.02-5.8-5.34,0-3.08,2.45-5.33,5.8-5.33,1.29,0,2.24.3,2.5.37v2.77h0Z" /><path class="j" d="m137.21,163.74c-.11-.05-.99-.55-2.31-.55-1.78,0-3.01,1.17-3.01,2.75s1.17,2.75,3.01,2.75c1.29,0,2.19-.48,2.31-.55v2.77c-.34.09-1.28.37-2.51.37-3.09,0-5.79-2.02-5.79-5.34,0-3.08,2.45-5.33,5.79-5.33,1.3,0,2.25.3,2.51.37v2.77h0Z" /><path class="j" d="m180.24,165.94c0,2.95-2.4,5.34-5.75,5.34-3.34,0-5.74-2.39-5.74-5.34,0-2.94,2.4-5.33,5.74-5.33,3.35,0,5.75,2.39,5.75,5.33h0Zm-5.75-2.71c-1.63,0-2.83,1.21-2.83,2.71s1.21,2.72,2.83,2.72,2.84-1.21,2.84-2.72c0-1.5-1.21-2.71-2.84-2.71h0Z" /><path class="j" d="m154.14,163.13s-1.19-.31-2.14-.31c-1.1,0-1.7.35-1.7.85,0,.62.8.84,1.25.98l.76.23c1.78.54,2.59,1.69,2.59,2.95,0,2.59-2.41,3.46-4.5,3.46-1.46,0-2.82-.26-2.96-.28v-2.37c.24.06,1.39.39,2.59.39,1.36,0,1.99-.38,1.99-.97s-.54-.82-1.23-1.02c-.17-.05-.41-.13-.59-.18-1.53-.46-2.8-1.31-2.8-3.02,0-1.93,1.52-3.22,4.05-3.22,1.33,0,2.59.3,2.67.32v2.2h0Z" /><path class="j" d="m126.33,149.69c0-.79-.6-1.43-1.35-1.43-.73,0-1.34.64-1.34,1.43v3.01c0,.8.61,1.43,1.34,1.43s1.35-.64,1.35-1.43v-3.01h0Z" /><path class="j" d="m133.73,145.74c0-.79-.6-1.43-1.34-1.43-.75,0-1.35.64-1.35,1.43v6.96c0,.8.61,1.43,1.35,1.43s1.34-.64,1.34-1.43v-6.96h0Z" /><path class="j" d="m141.13,140.35c0-.79-.6-1.43-1.34-1.43s-1.35.64-1.35,1.43v15.21c0,.79.61,1.44,1.35,1.44.74,0,1.34-.64,1.34-1.44v-15.21h0Z" /><path class="j" d="m148.53,145.74c0-.79-.6-1.43-1.34-1.43s-1.35.64-1.35,1.43v6.96c0,.8.6,1.43,1.35,1.43s1.34-.64,1.34-1.43v-6.96h0Z" /><path class="j" d="m155.92,149.69c0-.79-.6-1.43-1.34-1.43s-1.35.64-1.35,1.43v3.01c0,.8.61,1.43,1.35,1.43s1.34-.64,1.34-1.43v-3.01h0Z" /><path class="j" d="m163.33,145.74c0-.79-.6-1.43-1.34-1.43-.74,0-1.34.64-1.34,1.43v6.96c0,.8.6,1.43,1.34,1.43s1.34-.64,1.34-1.43v-6.96h0Z" /><path class="j" d="m170.73,140.35c0-.79-.6-1.43-1.35-1.43s-1.34.64-1.34,1.43v15.21c0,.79.61,1.44,1.34,1.44s1.35-.64,1.35-1.44v-15.21h0Z" /><path class="j" d="m178.13,145.74c0-.79-.61-1.43-1.36-1.43s-1.34.64-1.34,1.43v6.96c0,.8.61,1.43,1.34,1.43.76,0,1.36-.64,1.36-1.43v-6.96h0Z" /><path class="j" d="m185.52,149.69c0-.79-.61-1.43-1.35-1.43s-1.34.64-1.34,1.43v3.01c0,.8.6,1.43,1.34,1.43.74,0,1.35-.64,1.35-1.43v-3.01h0Z" /></g><rect class="i" x="150.82" y="230.21" width="6.46" height="13.87" rx="3.11" ry="3.11" /><rect class="m" x="151.65" y="231.55" width="4.81" height="11.18" rx="2.41" ry="2.41" /><g class="l"><path class="f" d="m253.88,285.13c23.26-64.97,24.14-175.71,5.99-242.3-1.38-5.29-5.99-15.45-5.99-15.45.79,4.88,1.98,11.16,2.56,15.95,5.04,37.4,6.49,75.2,6.5,112.92-.11,40.39-1.58,80.95-7.74,120.91,0,0-1.33,7.97-1.33,7.97h0Z" /></g><g class="l"><path class="g" d="m55.28,285.13c-23.26-64.97-24.14-175.71-5.99-242.3,1.38-5.29,5.99-15.45,5.99-15.45-.79,4.88-1.98,11.16-2.56,15.95-5.04,37.4-6.49,75.2-6.5,112.92.11,40.39,1.58,80.95,7.74,120.91,0,0,1.33,7.97,1.33,7.97h0Z" /></g></svg>