<svg viewBox="0 0 3414.38 309.14"><defs><style>.a{fill:#e4e4e4;}.b{fill:#060707;}.c{fill:#f1f0f0;}.d{fill:#251612;}.e{fill:#fff;}.f{fill:#383838;}.g{fill:#2c2c2c;}.h{fill:#231f20;}.i{fill:#aaaaa9;}</style></defs><path class="a" d="M3377,0H37.42A37.43,37.43,0,0,0,0,37.42V271.71a37.43,37.43,0,0,0,37.42,37.43H3377a37.43,37.43,0,0,0,37.43-37.43V37.42A37.43,37.43,0,0,0,3377,0ZM109.32,265.87a24.44,24.44,0,0,1-24.44,24.44H61.76a24.44,24.44,0,0,1-24.44-24.44h0a24.44,24.44,0,0,1,24.44-24.44H84.88a24.44,24.44,0,0,1,24.44,24.44Zm0-222.6A24.44,24.44,0,0,1,84.88,67.71H61.76A24.44,24.44,0,0,1,37.32,43.27h0A24.44,24.44,0,0,1,61.76,18.83H84.88a24.44,24.44,0,0,1,24.44,24.44Zm3267.74,222.6a24.44,24.44,0,0,1-24.44,24.44H3329.5a24.44,24.44,0,0,1-24.44-24.44h0a24.44,24.44,0,0,1,24.44-24.44h23.12a24.44,24.44,0,0,1,24.44,24.44Zm0-222.6a24.45,24.45,0,0,1-24.44,24.44H3329.5a24.44,24.44,0,0,1-24.44-24.44h0a24.44,24.44,0,0,1,24.44-24.44h23.12a24.44,24.44,0,0,1,24.44,24.44Z" /><rect class="b" x="1518.27" y="64.85" width="1239.19" height="181.65" /><rect class="c" x="2048.04" y="-462.92" width="179.65" height="1237.19" rx="3.05" transform="translate(2293.54 -1982.19) rotate(90)" /><polygon class="d" points="3128.3 135.51 3122.13 135.51 3122.13 113.79 3128.3 113.79 3128.3 135.51 3128.3 135.51" /><path class="d" d="M3178,120a11.77,11.77,0,0,0-5.19-1.16c-4,0-6.75,2.46-6.75,5.79s2.64,5.8,6.75,5.8a12,12,0,0,0,5.19-1.15v5.83a21.5,21.5,0,0,1-5.62.78c-6.94,0-13-4.25-13-11.26,0-6.48,5.51-11.24,13-11.24a21.14,21.14,0,0,1,5.62.78V120Z" /><path class="d" d="M3113.66,120a11.65,11.65,0,0,0-5.18-1.16c-4,0-6.75,2.46-6.75,5.79s2.63,5.8,6.75,5.8a11.85,11.85,0,0,0,5.18-1.15v5.83a21.45,21.45,0,0,1-5.63.78c-6.93,0-13-4.25-13-11.26,0-6.48,5.5-11.24,13-11.24a20.93,20.93,0,0,1,5.63.78V120Z" /><path class="d" d="M3210.27,124.64c0,6.22-5.39,11.26-12.9,11.26s-12.89-5-12.89-11.26,5.38-11.24,12.89-11.24,12.9,5,12.9,11.24Zm-12.9-5.71c-3.66,0-6.37,2.56-6.37,5.71s2.71,5.72,6.37,5.72,6.37-2.55,6.37-5.72-2.71-5.71-6.37-5.71Z" /><path class="d" d="M3151.66,118.72a23.81,23.81,0,0,0-4.81-.66c-2.47,0-3.81.74-3.81,1.79,0,1.31,1.8,1.77,2.81,2.06l1.71.48c4,1.13,5.82,3.57,5.82,6.21,0,5.46-5.4,7.3-10.11,7.3a40.71,40.71,0,0,1-6.65-.6v-5a25.69,25.69,0,0,0,5.82.82c3.06,0,4.48-.81,4.48-2s-1.22-1.73-2.76-2.16c-.37-.11-.92-.27-1.32-.37-3.43-1-6.28-2.77-6.28-6.36,0-4.07,3.41-6.79,9.1-6.79a30,30,0,0,1,6,.68v4.64Z" /><path class="d" d="M3089.24,90.42a3,3,0,0,0-6,0v6.33a3,3,0,1,0,6,0V90.42Z" /><path class="d" d="M3105.85,82.1a3,3,0,0,0-6,0V96.75a3,3,0,0,0,6,0V82.1Z" /><path class="d" d="M3122.46,70.72a3,3,0,0,0-6,0v32.06a3,3,0,1,0,6,0V70.72Z" /><path class="d" d="M3139.07,82.1a3,3,0,0,0-6,0V96.75a3,3,0,1,0,6,0V82.1Z" /><path class="d" d="M3155.67,90.42a3,3,0,0,0-6,0v6.33a3,3,0,1,0,6,0V90.42Z" /><path class="d" d="M3172.29,82.1a3,3,0,0,0-6,0V96.75a3,3,0,1,0,6,0V82.1Z" /><path class="d" d="M3188.91,70.72a3,3,0,0,0-6,0v32.06a3,3,0,1,0,6,0V70.72Z" /><path class="d" d="M3205.53,82.1a3,3,0,0,0-6.07,0V96.75a3,3,0,0,0,6.07,0V82.1Z" /><path class="d" d="M3222.12,90.42a3,3,0,0,0-6,0v6.33a3,3,0,0,0,6,0V90.42Z" /><circle class="e" cx="203.01" cy="116.26" r="6.17" /><circle cx="203.01" cy="197.36" r="5.44" /><path d="M203.89,217.33v-3.24l-4.73,3.74,4.73,3.75v-3.25a8.53,8.53,0,1,1-8.53,8.53h-1a9.53,9.53,0,1,0,9.53-9.53Z" /><path class="f" d="M2246.61,118.84h-.41v-.11h-1.45V104.28H2247a1.23,1.23,0,0,0,.83-1.16,1.25,1.25,0,0,0-1.24-1.24h-.41V74.33a1.46,1.46,0,0,0-1.46-1.46H2219v-4.4h-36.44v4.4h-25.73a1.46,1.46,0,0,0-1.46,1.46v27.55h-.45a1.24,1.24,0,0,0-1.23,1.24,1.22,1.22,0,0,0,.83,1.16h2.27v14.45h-1.42v.11h-.45a1.24,1.24,0,0,0,0,2.48h.45v17.31a1.46,1.46,0,0,0,1.46,1.46h87.91a1.46,1.46,0,0,0,1.46-1.46V121.32h.41a1.24,1.24,0,0,0,0-2.48Z" /><polygon class="b" points="2223.23 91.2 2223.23 78.98 2214.8 78.98 2214.8 70.23 2186.4 70.23 2186.4 78.98 2177.98 78.98 2177.98 91.2 2158.49 91.2 2158.49 139.43 2243.04 139.43 2243.04 91.2 2223.23 91.2" /><rect class="g" x="2224.59" y="74.53" width="18.5" height="9.25" /><rect class="g" x="2158.45" y="74.53" width="18.5" height="9.25" /><path class="f" d="M2345.25,118.84h-.41v-.11h-1.45V104.28h2.27a1.23,1.23,0,0,0-.41-2.4h-.41V74.33a1.46,1.46,0,0,0-1.45-1.46h-25.74v-4.4h-36.44v4.4h-25.74a1.46,1.46,0,0,0-1.46,1.46v27.55h-.44a1.23,1.23,0,0,0-.41,2.4h2.27v14.45H2254v.11h-.44a1.24,1.24,0,0,0,0,2.48h.44v17.31a1.46,1.46,0,0,0,1.46,1.46h87.92a1.45,1.45,0,0,0,1.45-1.46V121.32h.41a1.24,1.24,0,0,0,0-2.48Z" /><polygon class="b" points="2321.87 91.2 2321.87 78.98 2313.45 78.98 2313.45 70.23 2285.04 70.23 2285.04 78.98 2276.62 78.98 2276.62 91.2 2257.13 91.2 2257.13 139.43 2341.68 139.43 2341.68 91.2 2321.87 91.2" /><rect class="g" x="2323.23" y="74.53" width="18.5" height="9.25" /><rect class="g" x="2257.09" y="74.53" width="18.5" height="9.25" /><path class="f" d="M2443.89,118.84h-.41v-.11H2442V104.28h2.27a1.23,1.23,0,0,0-.41-2.4h-.41V74.33a1.46,1.46,0,0,0-1.45-1.46h-25.74v-4.4h-36.44v4.4h-25.74a1.46,1.46,0,0,0-1.45,1.46v27.55h-.45a1.23,1.23,0,0,0-.41,2.4h2.27v14.45h-1.41v.11h-.45a1.24,1.24,0,0,0,0,2.48h.45v17.31a1.45,1.45,0,0,0,1.45,1.46H2442a1.45,1.45,0,0,0,1.45-1.46V121.32h.41a1.24,1.24,0,1,0,0-2.48Z" /><polygon class="b" points="2420.51 91.2 2420.51 78.98 2412.09 78.98 2412.09 70.23 2383.68 70.23 2383.68 78.98 2375.26 78.98 2375.26 91.2 2355.78 91.2 2355.78 139.43 2440.33 139.43 2440.33 91.2 2420.51 91.2" /><rect class="g" x="2421.87" y="74.53" width="18.5" height="9.25" /><rect class="g" x="2355.73" y="74.53" width="18.5" height="9.25" /><path class="f" d="M2542.54,118.84h-.42v-.11h-1.45V104.28H2543a1.22,1.22,0,0,0,.82-1.16,1.24,1.24,0,0,0-1.23-1.24h-.42V74.33a1.46,1.46,0,0,0-1.45-1.46h-25.74v-4.4h-36.44v4.4h-25.74a1.46,1.46,0,0,0-1.45,1.46v27.55h-.45a1.25,1.25,0,0,0-1.24,1.24,1.23,1.23,0,0,0,.83,1.16h2.27v14.45h-1.41v.11h-.45a1.24,1.24,0,1,0,0,2.48h.45v17.31a1.45,1.45,0,0,0,1.45,1.46h87.92a1.45,1.45,0,0,0,1.45-1.46V121.32h.42a1.24,1.24,0,0,0,0-2.48Z" /><polygon class="b" points="2519.15 91.2 2519.15 78.98 2510.73 78.98 2510.73 70.23 2482.33 70.23 2482.33 78.98 2473.9 78.98 2473.9 91.2 2454.42 91.2 2454.42 139.43 2538.97 139.43 2538.97 91.2 2519.15 91.2" /><rect class="g" x="2520.51" y="74.53" width="18.5" height="9.25" /><rect class="g" x="2454.38" y="74.53" width="18.5" height="9.25" /><path class="f" d="M2641.18,118.84h-.41v-.11h-1.45V104.28h2.27a1.23,1.23,0,0,0,.83-1.16,1.25,1.25,0,0,0-1.24-1.24h-.41V74.33a1.47,1.47,0,0,0-1.46-1.46h-25.74v-4.4h-36.44v4.4h-25.74a1.46,1.46,0,0,0-1.45,1.46v27.55h-.45a1.25,1.25,0,0,0-1.24,1.24,1.23,1.23,0,0,0,.83,1.16h2.27v14.45h-1.41v.11h-.45a1.24,1.24,0,1,0,0,2.48h.45v17.31a1.45,1.45,0,0,0,1.45,1.46h87.92a1.46,1.46,0,0,0,1.46-1.46V121.32h.41a1.24,1.24,0,1,0,0-2.48Z" /><polygon class="b" points="2617.79 91.2 2617.79 78.98 2609.37 78.98 2609.37 70.23 2580.97 70.23 2580.97 78.98 2572.55 78.98 2572.55 91.2 2553.06 91.2 2553.06 139.43 2637.61 139.43 2637.61 91.2 2617.79 91.2" /><rect class="g" x="2619.16" y="74.53" width="18.5" height="9.25" /><rect class="g" x="2553.02" y="74.53" width="18.5" height="9.25" /><path class="f" d="M2739.82,118.84h-.41v-.11H2738V104.28h2.27a1.23,1.23,0,0,0,.83-1.16,1.25,1.25,0,0,0-1.24-1.24h-.41V74.33a1.46,1.46,0,0,0-1.46-1.46h-25.74v-4.4h-36.44v4.4H2650a1.46,1.46,0,0,0-1.46,1.46v27.55h-.45a1.24,1.24,0,0,0-1.23,1.24,1.22,1.22,0,0,0,.83,1.16H2650v14.45h-1.42v.11h-.45a1.24,1.24,0,0,0,0,2.48h.45v17.31a1.46,1.46,0,0,0,1.46,1.46H2738a1.46,1.46,0,0,0,1.46-1.46V121.32h.41a1.24,1.24,0,0,0,0-2.48Z" /><polygon class="b" points="2716.44 91.2 2716.44 78.98 2708.01 78.98 2708.01 70.23 2679.61 70.23 2679.61 78.98 2671.19 78.98 2671.19 91.2 2651.7 91.2 2651.7 139.43 2736.25 139.43 2736.25 91.2 2716.44 91.2" /><rect class="g" x="2717.8" y="74.53" width="18.5" height="9.25" /><rect class="g" x="2651.66" y="74.53" width="18.5" height="9.25" /><path class="f" d="M2246.61,192.09h-.41v.11h-1.45v14.45H2247a1.23,1.23,0,0,1,.83,1.16,1.25,1.25,0,0,1-1.24,1.24h-.41V236.6a1.46,1.46,0,0,1-1.46,1.46H2219v4.4h-36.44v-4.4h-25.73a1.46,1.46,0,0,1-1.46-1.46V209.05h-.45a1.24,1.24,0,0,1-1.23-1.24,1.22,1.22,0,0,1,.83-1.16h2.27V192.2h-1.42v-.11h-.45a1.24,1.24,0,0,1,0-2.47h.45V172.3a1.45,1.45,0,0,1,1.46-1.45h87.91a1.45,1.45,0,0,1,1.46,1.45v17.32h.41a1.24,1.24,0,1,1,0,2.47Z" /><polygon class="b" points="2223.23 219.73 2223.23 231.95 2214.8 231.95 2214.8 240.7 2186.4 240.7 2186.4 231.95 2177.98 231.95 2177.98 219.73 2158.49 219.73 2158.49 171.51 2243.04 171.51 2243.04 219.73 2223.23 219.73" /><rect class="g" x="2224.59" y="227.16" width="18.5" height="9.25" /><rect class="g" x="2158.45" y="227.16" width="18.5" height="9.25" /><path class="f" d="M2345.25,192.09h-.41v.11h-1.45v14.45h2.27a1.23,1.23,0,0,1-.41,2.4h-.41V236.6a1.45,1.45,0,0,1-1.45,1.46h-25.74v4.4h-36.44v-4.4h-25.74a1.46,1.46,0,0,1-1.46-1.46V209.05h-.44a1.23,1.23,0,0,1-.41-2.4h2.27V192.2H2254v-.11h-.44a1.24,1.24,0,1,1,0-2.47h.44V172.3a1.45,1.45,0,0,1,1.46-1.45h87.92a1.45,1.45,0,0,1,1.45,1.45v17.32h.41a1.24,1.24,0,1,1,0,2.47Z" /><polygon class="b" points="2321.87 219.73 2321.87 231.95 2313.45 231.95 2313.45 240.7 2285.04 240.7 2285.04 231.95 2276.62 231.95 2276.62 219.73 2257.13 219.73 2257.13 171.51 2341.68 171.51 2341.68 219.73 2321.87 219.73" /><rect class="g" x="2323.23" y="227.16" width="18.5" height="9.25" /><rect class="g" x="2257.09" y="227.16" width="18.5" height="9.25" /><path class="f" d="M2443.89,192.09h-.41v.11H2442v14.45h2.27a1.23,1.23,0,0,1-.41,2.4h-.41V236.6a1.45,1.45,0,0,1-1.45,1.46h-25.74v4.4h-36.44v-4.4h-25.74a1.45,1.45,0,0,1-1.45-1.46V209.05h-.45a1.23,1.23,0,0,1-.41-2.4h2.27V192.2h-1.41v-.11h-.45a1.24,1.24,0,1,1,0-2.47h.45V172.3a1.45,1.45,0,0,1,1.45-1.45H2442a1.45,1.45,0,0,1,1.45,1.45v17.32h.41a1.24,1.24,0,1,1,0,2.47Z" /><polygon class="b" points="2420.51 219.73 2420.51 231.95 2412.09 231.95 2412.09 240.7 2383.68 240.7 2383.68 231.95 2375.26 231.95 2375.26 219.73 2355.78 219.73 2355.78 171.51 2440.33 171.51 2440.33 219.73 2420.51 219.73" /><rect class="g" x="2421.87" y="227.16" width="18.5" height="9.25" /><rect class="g" x="2355.73" y="227.16" width="18.5" height="9.25" /><path class="f" d="M2542.54,192.09h-.42v.11h-1.45v14.45H2543a1.22,1.22,0,0,1,.82,1.16,1.24,1.24,0,0,1-1.23,1.24h-.42V236.6a1.45,1.45,0,0,1-1.45,1.46h-25.74v4.4h-36.44v-4.4h-25.74a1.45,1.45,0,0,1-1.45-1.46V209.05h-.45a1.25,1.25,0,0,1-1.24-1.24,1.23,1.23,0,0,1,.83-1.16h2.27V192.2h-1.41v-.11h-.45a1.24,1.24,0,1,1,0-2.47h.45V172.3a1.45,1.45,0,0,1,1.45-1.45h87.92a1.45,1.45,0,0,1,1.45,1.45v17.32h.42a1.24,1.24,0,0,1,0,2.47Z" /><polygon class="b" points="2519.15 219.73 2519.15 231.95 2510.73 231.95 2510.73 240.7 2482.33 240.7 2482.33 231.95 2473.9 231.95 2473.9 219.73 2454.42 219.73 2454.42 171.51 2538.97 171.51 2538.97 219.73 2519.15 219.73" /><rect class="g" x="2520.51" y="227.16" width="18.5" height="9.25" /><rect class="g" x="2454.38" y="227.16" width="18.5" height="9.25" /><path class="f" d="M2641.18,192.09h-.41v.11h-1.45v14.45h2.27a1.23,1.23,0,0,1,.83,1.16,1.25,1.25,0,0,1-1.24,1.24h-.41V236.6a1.46,1.46,0,0,1-1.46,1.46h-25.74v4.4h-36.44v-4.4h-25.74a1.45,1.45,0,0,1-1.45-1.46V209.05h-.45a1.25,1.25,0,0,1-1.24-1.24,1.23,1.23,0,0,1,.83-1.16h2.27V192.2h-1.41v-.11h-.45a1.24,1.24,0,1,1,0-2.47h.45V172.3a1.45,1.45,0,0,1,1.45-1.45h87.92a1.46,1.46,0,0,1,1.46,1.45v17.32h.41a1.24,1.24,0,1,1,0,2.47Z" /><polygon class="b" points="2617.79 219.73 2617.79 231.95 2609.37 231.95 2609.37 240.7 2580.97 240.7 2580.97 231.95 2572.55 231.95 2572.55 219.73 2553.06 219.73 2553.06 171.51 2637.61 171.51 2637.61 219.73 2617.79 219.73" /><rect class="g" x="2619.16" y="227.16" width="18.5" height="9.25" /><rect class="g" x="2553.02" y="227.16" width="18.5" height="9.25" /><path class="f" d="M2739.82,192.09h-.41v.11H2738v14.45h2.27a1.23,1.23,0,0,1,.83,1.16,1.25,1.25,0,0,1-1.24,1.24h-.41V236.6a1.46,1.46,0,0,1-1.46,1.46h-25.74v4.4h-36.44v-4.4H2650a1.46,1.46,0,0,1-1.46-1.46V209.05h-.45a1.24,1.24,0,0,1-1.23-1.24,1.22,1.22,0,0,1,.83-1.16H2650V192.2h-1.42v-.11h-.45a1.24,1.24,0,0,1,0-2.47h.45V172.3a1.45,1.45,0,0,1,1.46-1.45H2738a1.45,1.45,0,0,1,1.46,1.45v17.32h.41a1.24,1.24,0,1,1,0,2.47Z" /><polygon class="b" points="2716.44 219.73 2716.44 231.95 2708.01 231.95 2708.01 240.7 2679.61 240.7 2679.61 231.95 2671.19 231.95 2671.19 219.73 2651.7 219.73 2651.7 171.51 2736.25 171.51 2736.25 219.73 2716.44 219.73" /><rect class="g" x="2717.8" y="227.16" width="18.5" height="9.25" /><rect class="g" x="2651.66" y="227.16" width="18.5" height="9.25" /><path class="f" d="M1627.05,118.84h-.41v-.11h-1.45V104.28h2.27a1.23,1.23,0,0,0,.83-1.16,1.25,1.25,0,0,0-1.24-1.24h-.41V74.33a1.47,1.47,0,0,0-1.46-1.46h-25.74v-4.4H1563v4.4h-25.74a1.46,1.46,0,0,0-1.45,1.46v27.55h-.45a1.25,1.25,0,0,0-1.24,1.24,1.23,1.23,0,0,0,.83,1.16h2.27v14.45h-1.41v.11h-.45a1.24,1.24,0,0,0,0,2.48h.45v17.31a1.45,1.45,0,0,0,1.45,1.46h87.92a1.46,1.46,0,0,0,1.46-1.46V121.32h.41a1.24,1.24,0,1,0,0-2.48Z" /><polygon class="b" points="1603.66 91.2 1603.66 78.98 1595.24 78.98 1595.24 70.23 1566.84 70.23 1566.84 78.98 1558.42 78.98 1558.42 91.2 1538.93 91.2 1538.93 139.43 1623.48 139.43 1623.48 91.2 1603.66 91.2" /><rect class="g" x="1605.03" y="74.53" width="18.5" height="9.25" /><rect class="g" x="1538.89" y="74.53" width="18.5" height="9.25" /><path class="f" d="M1725.69,118.84h-.41v-.11h-1.45V104.28h2.27a1.23,1.23,0,0,0,.83-1.16,1.25,1.25,0,0,0-1.24-1.24h-.41V74.33a1.46,1.46,0,0,0-1.46-1.46h-25.73v-4.4h-36.45v4.4h-25.73a1.46,1.46,0,0,0-1.46,1.46v27.55H1634a1.23,1.23,0,0,0-.4,2.4h2.27v14.45h-1.42v.11H1634a1.24,1.24,0,0,0,0,2.48h.45v17.31a1.46,1.46,0,0,0,1.46,1.46h87.91a1.46,1.46,0,0,0,1.46-1.46V121.32h.41a1.24,1.24,0,1,0,0-2.48Z" /><polygon class="b" points="1702.31 91.2 1702.31 78.98 1693.88 78.98 1693.88 70.23 1665.48 70.23 1665.48 78.98 1657.06 78.98 1657.06 91.2 1637.57 91.2 1637.57 139.43 1722.12 139.43 1722.12 91.2 1702.31 91.2" /><rect class="g" x="1703.67" y="74.53" width="18.5" height="9.25" /><rect class="g" x="1637.53" y="74.53" width="18.5" height="9.25" /><path class="f" d="M1824.33,118.84h-.41v-.11h-1.45V104.28h2.27a1.23,1.23,0,0,0-.41-2.4h-.41V74.33a1.46,1.46,0,0,0-1.45-1.46h-25.74v-4.4h-36.44v4.4h-25.74a1.46,1.46,0,0,0-1.46,1.46v27.55h-.44a1.23,1.23,0,0,0-.41,2.4h2.27v14.45h-1.42v.11h-.44a1.24,1.24,0,0,0,0,2.48h.44v17.31a1.46,1.46,0,0,0,1.46,1.46h87.92a1.45,1.45,0,0,0,1.45-1.46V121.32h.41a1.24,1.24,0,1,0,0-2.48Z" /><polygon class="b" points="1800.95 91.2 1800.95 78.98 1792.53 78.98 1792.53 70.23 1764.12 70.23 1764.12 78.98 1755.7 78.98 1755.7 91.2 1736.21 91.2 1736.21 139.43 1820.77 139.43 1820.77 91.2 1800.95 91.2" /><rect class="g" x="1802.31" y="74.53" width="18.5" height="9.25" /><rect class="g" x="1736.17" y="74.53" width="18.5" height="9.25" /><path class="f" d="M1923,118.84h-.41v-.11h-1.45V104.28h2.27a1.23,1.23,0,0,0-.41-2.4h-.41V74.33a1.46,1.46,0,0,0-1.45-1.46h-25.74v-4.4h-36.44v4.4h-25.74a1.46,1.46,0,0,0-1.45,1.46v27.55h-.45a1.23,1.23,0,0,0-.41,2.4h2.27v14.45h-1.41v.11h-.45a1.24,1.24,0,0,0,0,2.48h.45v17.31a1.45,1.45,0,0,0,1.45,1.46h87.92a1.45,1.45,0,0,0,1.45-1.46V121.32h.41a1.24,1.24,0,1,0,0-2.48Z" /><polygon class="b" points="1899.59 91.2 1899.59 78.98 1891.17 78.98 1891.17 70.23 1862.77 70.23 1862.77 78.98 1854.34 78.98 1854.34 91.2 1834.86 91.2 1834.86 139.43 1919.41 139.43 1919.41 91.2 1899.59 91.2" /><rect class="g" x="1900.95" y="74.53" width="18.5" height="9.25" /><rect class="g" x="1834.82" y="74.53" width="18.5" height="9.25" /><path class="f" d="M2021.62,118.84h-.42v-.11h-1.44V104.28H2022a1.23,1.23,0,0,0,.83-1.16,1.25,1.25,0,0,0-1.24-1.24h-.42V74.33a1.46,1.46,0,0,0-1.45-1.46H1994v-4.4h-36.44v4.4h-25.74a1.46,1.46,0,0,0-1.45,1.46v27.55h-.45a1.25,1.25,0,0,0-1.24,1.24,1.23,1.23,0,0,0,.83,1.16h2.27v14.45h-1.41v.11h-.45a1.24,1.24,0,0,0,0,2.48h.45v17.31a1.45,1.45,0,0,0,1.45,1.46h87.92a1.45,1.45,0,0,0,1.45-1.46V121.32h.42a1.24,1.24,0,1,0,0-2.48Z" /><polygon class="b" points="1998.23 91.2 1998.23 78.98 1989.81 78.98 1989.81 70.23 1961.41 70.23 1961.41 78.98 1952.98 78.98 1952.98 91.2 1933.5 91.2 1933.5 139.43 2018.05 139.43 2018.05 91.2 1998.23 91.2" /><rect class="g" x="1999.59" y="74.53" width="18.5" height="9.25" /><rect class="g" x="1933.46" y="74.53" width="18.5" height="9.25" /><path class="f" d="M2120.26,118.84h-.41v-.11h-1.45V104.28h2.27a1.23,1.23,0,0,0,.83-1.16,1.25,1.25,0,0,0-1.24-1.24h-.41V74.33a1.47,1.47,0,0,0-1.46-1.46h-25.74v-4.4h-36.44v4.4h-25.74a1.46,1.46,0,0,0-1.45,1.46v27.55h-.45a1.25,1.25,0,0,0-1.24,1.24,1.23,1.23,0,0,0,.83,1.16h2.27v14.45H2029v.11h-.45a1.24,1.24,0,0,0,0,2.48h.45v17.31a1.45,1.45,0,0,0,1.45,1.46h87.92a1.46,1.46,0,0,0,1.46-1.46V121.32h.41a1.24,1.24,0,0,0,0-2.48Z" /><polygon class="b" points="2096.87 91.2 2096.87 78.98 2088.45 78.98 2088.45 70.23 2060.05 70.23 2060.05 78.98 2051.63 78.98 2051.63 91.2 2032.14 91.2 2032.14 139.43 2116.69 139.43 2116.69 91.2 2096.87 91.2" /><rect class="g" x="2098.24" y="74.53" width="18.5" height="9.25" /><rect class="g" x="2032.1" y="74.53" width="18.5" height="9.25" /><path class="f" d="M1627.05,192.09h-.41v.11h-1.45v14.45h2.27a1.23,1.23,0,0,1,.83,1.16,1.25,1.25,0,0,1-1.24,1.24h-.41V236.6a1.46,1.46,0,0,1-1.46,1.46h-25.74v4.4H1563v-4.4h-25.74a1.45,1.45,0,0,1-1.45-1.46V209.05h-.45a1.25,1.25,0,0,1-1.24-1.24,1.23,1.23,0,0,1,.83-1.16h2.27V192.2h-1.41v-.11h-.45a1.24,1.24,0,1,1,0-2.47h.45V172.3a1.45,1.45,0,0,1,1.45-1.45h87.92a1.46,1.46,0,0,1,1.46,1.45v17.32h.41a1.24,1.24,0,1,1,0,2.47Z" /><polygon class="b" points="1603.66 219.73 1603.66 231.95 1595.24 231.95 1595.24 240.7 1566.84 240.7 1566.84 231.95 1558.42 231.95 1558.42 219.73 1538.93 219.73 1538.93 171.51 1623.48 171.51 1623.48 219.73 1603.66 219.73" /><rect class="g" x="1605.03" y="227.16" width="18.5" height="9.25" /><rect class="g" x="1538.89" y="227.16" width="18.5" height="9.25" /><path class="f" d="M1725.69,192.09h-.41v.11h-1.45v14.45h2.27a1.23,1.23,0,0,1,.83,1.16,1.25,1.25,0,0,1-1.24,1.24h-.41V236.6a1.46,1.46,0,0,1-1.46,1.46h-25.73v4.4h-36.45v-4.4h-25.73a1.46,1.46,0,0,1-1.46-1.46V209.05H1634a1.23,1.23,0,0,1-.4-2.4h2.27V192.2h-1.42v-.11H1634a1.24,1.24,0,0,1,0-2.47h.45V172.3a1.45,1.45,0,0,1,1.46-1.45h87.91a1.45,1.45,0,0,1,1.46,1.45v17.32h.41a1.24,1.24,0,1,1,0,2.47Z" /><polygon class="b" points="1702.31 219.73 1702.31 231.95 1693.88 231.95 1693.88 240.7 1665.48 240.7 1665.48 231.95 1657.06 231.95 1657.06 219.73 1637.57 219.73 1637.57 171.51 1722.12 171.51 1722.12 219.73 1702.31 219.73" /><rect class="g" x="1703.67" y="227.16" width="18.5" height="9.25" /><rect class="g" x="1637.53" y="227.16" width="18.5" height="9.25" /><path class="f" d="M1824.33,192.09h-.41v.11h-1.45v14.45h2.27a1.23,1.23,0,0,1-.41,2.4h-.41V236.6a1.45,1.45,0,0,1-1.45,1.46h-25.74v4.4h-36.44v-4.4h-25.74a1.46,1.46,0,0,1-1.46-1.46V209.05h-.44a1.23,1.23,0,0,1-.41-2.4h2.27V192.2h-1.42v-.11h-.44a1.24,1.24,0,1,1,0-2.47h.44V172.3a1.45,1.45,0,0,1,1.46-1.45h87.92a1.45,1.45,0,0,1,1.45,1.45v17.32h.41a1.24,1.24,0,1,1,0,2.47Z" /><polygon class="b" points="1800.95 219.73 1800.95 231.95 1792.53 231.95 1792.53 240.7 1764.12 240.7 1764.12 231.95 1755.7 231.95 1755.7 219.73 1736.21 219.73 1736.21 171.51 1820.77 171.51 1820.77 219.73 1800.95 219.73" /><rect class="g" x="1802.31" y="227.16" width="18.5" height="9.25" /><rect class="g" x="1736.17" y="227.16" width="18.5" height="9.25" /><path class="f" d="M1923,192.09h-.41v.11h-1.45v14.45h2.27a1.23,1.23,0,0,1-.41,2.4h-.41V236.6a1.45,1.45,0,0,1-1.45,1.46h-25.74v4.4h-36.44v-4.4h-25.74a1.45,1.45,0,0,1-1.45-1.46V209.05h-.45a1.23,1.23,0,0,1-.41-2.4h2.27V192.2h-1.41v-.11h-.45a1.24,1.24,0,1,1,0-2.47h.45V172.3a1.45,1.45,0,0,1,1.45-1.45h87.92a1.45,1.45,0,0,1,1.45,1.45v17.32h.41a1.24,1.24,0,1,1,0,2.47Z" /><polygon class="b" points="1899.59 219.73 1899.59 231.95 1891.17 231.95 1891.17 240.7 1862.77 240.7 1862.77 231.95 1854.34 231.95 1854.34 219.73 1834.86 219.73 1834.86 171.51 1919.41 171.51 1919.41 219.73 1899.59 219.73" /><rect class="g" x="1900.95" y="227.16" width="18.5" height="9.25" /><rect class="g" x="1834.82" y="227.16" width="18.5" height="9.25" /><path class="f" d="M2021.62,192.09h-.42v.11h-1.44v14.45H2022a1.23,1.23,0,0,1,.83,1.16,1.25,1.25,0,0,1-1.24,1.24h-.42V236.6a1.45,1.45,0,0,1-1.45,1.46H1994v4.4h-36.44v-4.4h-25.74a1.45,1.45,0,0,1-1.45-1.46V209.05h-.45a1.25,1.25,0,0,1-1.24-1.24,1.23,1.23,0,0,1,.83-1.16h2.27V192.2h-1.41v-.11h-.45a1.24,1.24,0,1,1,0-2.47h.45V172.3a1.45,1.45,0,0,1,1.45-1.45h87.92a1.45,1.45,0,0,1,1.45,1.45v17.32h.42a1.24,1.24,0,1,1,0,2.47Z" /><polygon class="b" points="1998.23 219.73 1998.23 231.95 1989.81 231.95 1989.81 240.7 1961.41 240.7 1961.41 231.95 1952.98 231.95 1952.98 219.73 1933.5 219.73 1933.5 171.51 2018.05 171.51 2018.05 219.73 1998.23 219.73" /><rect class="g" x="1999.59" y="227.16" width="18.5" height="9.25" /><rect class="g" x="1933.46" y="227.16" width="18.5" height="9.25" /><path class="f" d="M2120.26,192.09h-.41v.11h-1.45v14.45h2.27a1.23,1.23,0,0,1,.83,1.16,1.25,1.25,0,0,1-1.24,1.24h-.41V236.6a1.46,1.46,0,0,1-1.46,1.46h-25.74v4.4h-36.44v-4.4h-25.74a1.45,1.45,0,0,1-1.45-1.46V209.05h-.45a1.25,1.25,0,0,1-1.24-1.24,1.23,1.23,0,0,1,.83-1.16h2.27V192.2H2029v-.11h-.45a1.24,1.24,0,1,1,0-2.47h.45V172.3a1.45,1.45,0,0,1,1.45-1.45h87.92a1.46,1.46,0,0,1,1.46,1.45v17.32h.41a1.24,1.24,0,1,1,0,2.47Z" /><polygon class="b" points="2096.87 219.73 2096.87 231.95 2088.45 231.95 2088.45 240.7 2060.05 240.7 2060.05 231.95 2051.63 231.95 2051.63 219.73 2032.14 219.73 2032.14 171.51 2116.69 171.51 2116.69 219.73 2096.87 219.73" /><rect class="g" x="2098.24" y="227.16" width="18.5" height="9.25" /><rect class="g" x="2032.1" y="227.16" width="18.5" height="9.25" /><path class="h" d="M1794.78,35.17a4.86,4.86,0,0,1,3.13.89,3.2,3.2,0,0,1,1.08,2.61,3.1,3.1,0,0,1-1.07,2.53,4.87,4.87,0,0,1-3.2.89h-1.92v3.84h-1.52V35.17Zm-2,1.24v4.44h2a3,3,0,0,0,2-.56,2.07,2.07,0,0,0,.62-1.62,2.14,2.14,0,0,0-.67-1.67,2.84,2.84,0,0,0-1.93-.59Z" /><path class="h" d="M1800,42.05a4.87,4.87,0,0,1,.31-1.83,3.59,3.59,0,0,1,.83-1.28,3.16,3.16,0,0,1,1.21-.75,4.57,4.57,0,0,1,3,0,3.13,3.13,0,0,1,1.22.75,3.57,3.57,0,0,1,.82,1.28,5.09,5.09,0,0,1,.3,1.83,4.88,4.88,0,0,1-.3,1.78,3.58,3.58,0,0,1-.8,1.29,3.38,3.38,0,0,1-1.22.77,4.22,4.22,0,0,1-1.52.26,4.13,4.13,0,0,1-1.51-.26,3.19,3.19,0,0,1-1.22-.78,3.68,3.68,0,0,1-.81-1.29A5,5,0,0,1,1800,42.05Zm1.5,0a4.15,4.15,0,0,0,.17,1.27,2.7,2.7,0,0,0,.5.92,2,2,0,0,0,.74.56,2.3,2.3,0,0,0,1,.19,2.1,2.1,0,0,0,1.67-.75,3.27,3.27,0,0,0,.64-2.19,4.19,4.19,0,0,0-.18-1.29,2.6,2.6,0,0,0-.49-.92,2,2,0,0,0-.74-.56,2.32,2.32,0,0,0-.92-.18,2.41,2.41,0,0,0-.93.19,2.11,2.11,0,0,0-.74.56,2.8,2.8,0,0,0-.5.92A4.09,4.09,0,0,0,1801.46,42.05Z" /><path class="h" d="M1815.62,41.09h-4.75v3.56h5.18v1.28h-6.71V35.17h6.71v1.29h-5.18v3.38h4.75Z" /><path class="h" d="M1831.35,45.93h-1.12l-.21-1.28a3.42,3.42,0,0,1-1.37,1.11,4.62,4.62,0,0,1-1.93.39,4.88,4.88,0,0,1-1.88-.36,4.15,4.15,0,0,1-1.51-1.08,5.1,5.1,0,0,1-1-1.77,7.08,7.08,0,0,1-.37-2.4,7,7,0,0,1,.39-2.44,5.09,5.09,0,0,1,1.05-1.74A4.46,4.46,0,0,1,1825,35.3a5.34,5.34,0,0,1,1.93-.35,5.39,5.39,0,0,1,1.69.26,4.76,4.76,0,0,1,1.36.72,3.87,3.87,0,0,1,1,1.07,3.44,3.44,0,0,1,.45,1.33h-1.49a2.46,2.46,0,0,0-1-1.55,3.28,3.28,0,0,0-2-.56,3.41,3.41,0,0,0-1.32.26,3,3,0,0,0-1.08.8,3.93,3.93,0,0,0-.71,1.35,6.11,6.11,0,0,0-.27,1.91,5.71,5.71,0,0,0,.29,1.9,4.11,4.11,0,0,0,.75,1.36,3,3,0,0,0,1.09.82,2.94,2.94,0,0,0,1.27.28,3.56,3.56,0,0,0,1.18-.19,3,3,0,0,0,1-.56,2.77,2.77,0,0,0,.67-.85,2.45,2.45,0,0,0,.24-1.09v-.84h-3.15V40.15h4.53Z" /><path class="h" d="M1833.35,45.93V35.17h1.43v4.07a3.15,3.15,0,0,1,1-.94,3.18,3.18,0,0,1,1.56-.36,3.53,3.53,0,0,1,1.4.27,3,3,0,0,1,1.08.78,3.79,3.79,0,0,1,.7,1.27,5.74,5.74,0,0,1,.24,1.73,5.48,5.48,0,0,1-.26,1.79,3.64,3.64,0,0,1-.73,1.3,3.2,3.2,0,0,1-1.12.8,3.62,3.62,0,0,1-1.41.27,2.93,2.93,0,0,1-2.53-1.25l-.22,1Zm6-4a4.13,4.13,0,0,0-.17-1.24,2.74,2.74,0,0,0-.48-.88,1.83,1.83,0,0,0-.72-.51,2.35,2.35,0,0,0-.89-.17,2.21,2.21,0,0,0-1.65.71,2.46,2.46,0,0,0-.5.87,3.51,3.51,0,0,0-.19,1.22,3.33,3.33,0,0,0,.64,2.19,2.1,2.1,0,0,0,1.7.78,2.05,2.05,0,0,0,1.64-.72A3.42,3.42,0,0,0,1839.31,42Z" /><path class="h" d="M1848.8,41.09h-4.75v3.56h5.18v1.28h-6.71V35.17h6.71v1.29h-5.18v3.38h4.75Z" /><path class="h" d="M2413.05,35.17a4.82,4.82,0,0,1,3.13.89,3.2,3.2,0,0,1,1.08,2.61,3.1,3.1,0,0,1-1.06,2.53,4.9,4.9,0,0,1-3.21.89h-1.91v3.84h-1.53V35.17Zm-2,1.24v4.44H2413a3,3,0,0,0,2.05-.56,2.07,2.07,0,0,0,.61-1.62A2.13,2.13,0,0,0,2415,37a2.87,2.87,0,0,0-1.94-.59Z" /><path class="h" d="M2418.24,42.05a5.09,5.09,0,0,1,.3-1.83,3.73,3.73,0,0,1,.83-1.28,3.28,3.28,0,0,1,1.22-.75,4.26,4.26,0,0,1,1.48-.25,4.37,4.37,0,0,1,1.5.25,3.2,3.2,0,0,1,1.22.75,3.69,3.69,0,0,1,.81,1.28,5.67,5.67,0,0,1,0,3.61,3.74,3.74,0,0,1-.81,1.29,3.29,3.29,0,0,1-1.22.77,4.54,4.54,0,0,1-3,0,3.27,3.27,0,0,1-1.22-.78,3.66,3.66,0,0,1-.8-1.29A4.8,4.8,0,0,1,2418.24,42.05Zm1.49,0a4.14,4.14,0,0,0,.18,1.27,2.69,2.69,0,0,0,.49.92,2,2,0,0,0,.75.56,2.26,2.26,0,0,0,.94.19,2.08,2.08,0,0,0,1.67-.75,3.27,3.27,0,0,0,.65-2.19,4.19,4.19,0,0,0-.18-1.29,2.61,2.61,0,0,0-.5-.92,1.92,1.92,0,0,0-.74-.56,2.32,2.32,0,0,0-.92-.18,2.4,2.4,0,0,0-.92.19,2.05,2.05,0,0,0-.75.56,2.78,2.78,0,0,0-.49.92A4.08,4.08,0,0,0,2419.73,42.05Z" /><path class="h" d="M2433.89,41.09h-4.75v3.56h5.18v1.28h-6.7V35.17h6.7v1.29h-5.18v3.38h4.75Z" /><path class="h" d="M2449.62,45.93h-1.12l-.21-1.28a3.39,3.39,0,0,1-1.36,1.11,4.67,4.67,0,0,1-1.94.39,4.83,4.83,0,0,1-1.87-.36,4.19,4.19,0,0,1-1.52-1.08,5.26,5.26,0,0,1-1-1.77,7.33,7.33,0,0,1-.37-2.4,7,7,0,0,1,.39-2.44,5,5,0,0,1,1.06-1.74,4.28,4.28,0,0,1,1.56-1.06,5.52,5.52,0,0,1,3.61-.09,4.76,4.76,0,0,1,1.36.72,3.72,3.72,0,0,1,1,1.07,3.3,3.3,0,0,1,.46,1.33h-1.5a2.48,2.48,0,0,0-1-1.55,3.32,3.32,0,0,0-2-.56,3.5,3.5,0,0,0-1.33.26,2.87,2.87,0,0,0-1.07.8,3.78,3.78,0,0,0-.72,1.35,6.44,6.44,0,0,0-.26,1.91,5.72,5.72,0,0,0,.28,1.9,4,4,0,0,0,.76,1.36,2.93,2.93,0,0,0,1.08.82,3,3,0,0,0,1.27.28,3.62,3.62,0,0,0,1.19-.19,3.06,3.06,0,0,0,1-.56,2.6,2.6,0,0,0,.66-.85,2.33,2.33,0,0,0,.25-1.09v-.84h-3.15V40.15h4.52Z" /><path class="h" d="M2451.62,45.93V35.17h1.44v4.07a3.06,3.06,0,0,1,1-.94,3.16,3.16,0,0,1,1.56-.36,3.48,3.48,0,0,1,1.39.27,3,3,0,0,1,1.09.78,3.61,3.61,0,0,1,.69,1.27,5.43,5.43,0,0,1,.25,1.73,5.77,5.77,0,0,1-.26,1.79,3.8,3.8,0,0,1-.73,1.3,3.23,3.23,0,0,1-1.13.8,3.62,3.62,0,0,1-1.41.27A2.93,2.93,0,0,1,2453,44.9l-.23,1Zm6-4a3.82,3.82,0,0,0-.18-1.24,2.41,2.41,0,0,0-.48-.88,1.87,1.87,0,0,0-.71-.51,2.39,2.39,0,0,0-.89-.17,2.34,2.34,0,0,0-.91.18,2.15,2.15,0,0,0-.74.53,2.33,2.33,0,0,0-.51.87A3.76,3.76,0,0,0,2453,42a3.33,3.33,0,0,0,.65,2.19,2.08,2.08,0,0,0,1.7.78,2,2,0,0,0,1.63-.72A3.36,3.36,0,0,0,2457.59,42Z" /><path class="h" d="M2467.07,41.09h-4.75v3.56h5.18v1.28h-6.7V35.17h6.7v1.29h-5.18v3.38h4.75Z" /><rect x="2763.85" y="165.8" width="458.75" height="76.16" /><path class="i" d="M2875.89,179.74v55.87a6.35,6.35,0,0,1-6.35,6.35h-22.8v5.91h-44.58V242h-22.8a6.35,6.35,0,0,1-6.35-6.35V179.74a6.35,6.35,0,0,1,6.35-6.35h90.18A6.35,6.35,0,0,1,2875.89,179.74Z" /><path d="M2869.62,177.52h-90.33a1.65,1.65,0,0,0-1.65,1.65V235a1.65,1.65,0,0,0,1.65,1.65h23.2a1.65,1.65,0,0,1,1.65,1.65h0a1.65,1.65,0,0,0,1.65,1.66h37.33a1.65,1.65,0,0,0,1.65-1.66h0a1.65,1.65,0,0,1,1.65-1.65h23.2a1.65,1.65,0,0,0,1.65-1.65V179.17A1.65,1.65,0,0,0,2869.62,177.52Z" /><path class="i" d="M2988.41,179.74v55.87a6.35,6.35,0,0,1-6.35,6.35h-22.8v5.91h-44.58V242h-22.8a6.35,6.35,0,0,1-6.35-6.35V179.74a6.35,6.35,0,0,1,6.35-6.35h90.18A6.35,6.35,0,0,1,2988.41,179.74Z" /><path d="M2982.13,177.52H2891.8a1.65,1.65,0,0,0-1.65,1.65V235a1.65,1.65,0,0,0,1.65,1.65H2915a1.65,1.65,0,0,1,1.66,1.65h0a1.65,1.65,0,0,0,1.65,1.66h37.32a1.65,1.65,0,0,0,1.65-1.66h0a1.65,1.65,0,0,1,1.65-1.65h23.2a1.65,1.65,0,0,0,1.65-1.65V179.17A1.65,1.65,0,0,0,2982.13,177.52Z" /><path class="i" d="M3100.92,179.74v55.87a6.35,6.35,0,0,1-6.35,6.35h-22.8v5.91h-44.58V242h-22.8a6.35,6.35,0,0,1-6.35-6.35V179.74a6.35,6.35,0,0,1,6.35-6.35h90.18A6.35,6.35,0,0,1,3100.92,179.74Z" /><path d="M3094.65,177.52h-90.33a1.65,1.65,0,0,0-1.65,1.65V235a1.65,1.65,0,0,0,1.65,1.65h23.2a1.65,1.65,0,0,1,1.65,1.65h0a1.65,1.65,0,0,0,1.65,1.66h37.32a1.65,1.65,0,0,0,1.65-1.66h0a1.65,1.65,0,0,1,1.65-1.65h23.21a1.65,1.65,0,0,0,1.65-1.65V179.17A1.65,1.65,0,0,0,3094.65,177.52Z" /><path class="i" d="M3213.44,179.74v55.87a6.35,6.35,0,0,1-6.35,6.35h-22.8v5.91h-44.58V242h-22.8a6.35,6.35,0,0,1-6.35-6.35V179.74a6.35,6.35,0,0,1,6.35-6.35h90.18A6.35,6.35,0,0,1,3213.44,179.74Z" /><path d="M3207.16,177.52h-90.33a1.65,1.65,0,0,0-1.65,1.65V235a1.65,1.65,0,0,0,1.65,1.65H3140a1.65,1.65,0,0,1,1.65,1.65h0a1.65,1.65,0,0,0,1.65,1.66h37.33a1.65,1.65,0,0,0,1.65-1.66h0a1.65,1.65,0,0,1,1.65-1.65h23.2a1.65,1.65,0,0,0,1.65-1.65V179.17A1.65,1.65,0,0,0,3207.16,177.52Z" /><circle cx="2824.45" cy="257.28" r="5.78" /><circle cx="2936.97" cy="257.28" r="5.78" /><circle cx="3049.48" cy="257.28" r="5.78" /><circle cx="3162" cy="257.28" r="5.78" /><polygon class="h" points="1562.57 282.53 1554.11 282.53 1558.34 276.42 1558.34 276.42 1562.57 282.53" /><polygon class="h" points="1604.99 279.79 1613.45 279.79 1609.22 285.9 1609.22 285.9 1604.99 279.79" /><polygon class="h" points="1662.88 282.53 1654.42 282.53 1658.65 276.42 1658.65 276.42 1662.88 282.53" /><polygon class="h" points="1705.3 279.79 1713.76 279.79 1709.53 285.9 1709.53 285.9 1705.3 279.79" /><polygon class="h" points="1761.12 282.53 1752.66 282.53 1756.89 276.42 1756.89 276.42 1761.12 282.53" /><polygon class="h" points="1803.54 279.79 1812 279.79 1807.77 285.9 1807.77 285.9 1803.54 279.79" /><polygon class="h" points="1859.45 282.53 1850.99 282.53 1855.22 276.42 1855.22 276.42 1859.45 282.53" /><polygon class="h" points="1901.87 279.79 1910.33 279.79 1906.1 285.9 1906.1 285.9 1901.87 279.79" /><polygon class="h" points="1956.17 282.53 1947.71 282.53 1951.94 276.42 1951.94 276.42 1956.17 282.53" /><polygon class="h" points="2001.1 279.79 2009.56 279.79 2005.33 285.9 2005.33 285.9 2001.1 279.79" /><polygon class="h" points="2060.27 282.53 2051.81 282.53 2056.04 276.42 2056.04 276.42 2060.27 282.53" /><polygon class="h" points="2101.56 279.23 2110.02 279.23 2105.79 285.34 2105.79 285.34 2101.56 279.23" /><polygon class="h" points="2190.17 282.53 2181.7 282.53 2185.93 276.42 2185.93 276.42 2190.17 282.53" /><polygon class="h" points="2231.06 279.79 2239.52 279.79 2235.29 285.9 2235.29 285.9 2231.06 279.79" /><polygon class="h" points="2287.89 282.53 2279.43 282.53 2283.66 276.42 2283.66 276.42 2287.89 282.53" /><polygon class="h" points="2330.31 279.79 2338.77 279.79 2334.54 285.9 2334.54 285.9 2330.31 279.79" /><polygon class="h" points="2386.96 282.53 2378.5 282.53 2382.73 276.42 2382.73 276.42 2386.96 282.53" /><polygon class="h" points="2428.54 279.79 2437 279.79 2432.77 285.9 2432.77 285.9 2428.54 279.79" /><polygon class="h" points="2484.98 282.53 2476.52 282.53 2480.75 276.42 2480.75 276.42 2484.98 282.53" /><polygon class="h" points="2526.84 279.79 2535.3 279.79 2531.07 285.9 2531.07 285.9 2526.84 279.79" /><polygon class="h" points="2585.45 282.53 2576.99 282.53 2581.22 276.42 2581.22 276.42 2585.45 282.53" /><polygon class="h" points="2626.34 279.79 2634.81 279.79 2630.58 285.9 2630.58 285.9 2626.34 279.79" /><polygon class="h" points="2682.63 282.53 2674.17 282.53 2678.4 276.42 2678.4 276.42 2682.63 282.53" /><polygon class="h" points="2725.05 279.79 2733.51 279.79 2729.28 285.9 2729.28 285.9 2725.05 279.79" /><path class="h" d="M1548.05,285.9v-8.49l-2.22,1.15v-1.4l2.24-1.16h1.33v9.9Z" /><path class="h" d="M1594.12,278.59a3.45,3.45,0,0,1,.36-1.11,3.28,3.28,0,0,1,.73-.89,3.36,3.36,0,0,1,1-.59,4.39,4.39,0,0,1,2.62,0,3.35,3.35,0,0,1,1,.56,2.61,2.61,0,0,1,.68.89,2.79,2.79,0,0,1,.25,1.17,3.51,3.51,0,0,1-.12.94,3.6,3.6,0,0,1-.4.88,6.74,6.74,0,0,1-.73.95c-.3.33-.67.71-1.12,1.14l-2.26,2.15h4.58v1.24h-6.42v-1.24l3.23-3.1c.34-.32.62-.61.85-.87a8,8,0,0,0,.58-.73,2.84,2.84,0,0,0,.32-.66,2.17,2.17,0,0,0,.1-.69,1.6,1.6,0,0,0-.49-1.22,1.9,1.9,0,0,0-1.38-.46,2.16,2.16,0,0,0-1.39.44,1.76,1.76,0,0,0-.63,1.22Z" /><path class="h" d="M1650.58,283.2a2.7,2.7,0,0,1-.25,1.17,2.62,2.62,0,0,1-.71.92,3.11,3.11,0,0,1-1.11.6,4.64,4.64,0,0,1-1.44.21,3.83,3.83,0,0,1-2.47-.74,2.86,2.86,0,0,1-1.09-1.92H1645a1.89,1.89,0,0,0,.68,1.14,2.27,2.27,0,0,0,1.41.39,2.35,2.35,0,0,0,1.59-.5,1.66,1.66,0,0,0,.56-1.3,2,2,0,0,0-.17-.86,1.79,1.79,0,0,0-.46-.58,1.9,1.9,0,0,0-.63-.33,2.74,2.74,0,0,0-.69-.1h-.82v-1.17h.79a1.73,1.73,0,0,0,.58-.1,1.86,1.86,0,0,0,.53-.3,1.32,1.32,0,0,0,.38-.51,1.76,1.76,0,0,0,.15-.75,1.41,1.41,0,0,0-.16-.69,1.54,1.54,0,0,0-.42-.49,1.79,1.79,0,0,0-.61-.28,2.8,2.8,0,0,0-.7-.09,2.22,2.22,0,0,0-1.36.39,1.6,1.6,0,0,0-.64,1h-1.43a2.67,2.67,0,0,1,.39-1,2.6,2.6,0,0,1,.75-.8,3.23,3.23,0,0,1,1-.52,4.56,4.56,0,0,1,1.31-.18,4.81,4.81,0,0,1,1.2.15,3.15,3.15,0,0,1,1,.48,2.48,2.48,0,0,1,.71.8,2.35,2.35,0,0,1,.27,1.15,2.2,2.2,0,0,1-.5,1.42,2.68,2.68,0,0,1-1.28.85,2.56,2.56,0,0,1,.8.29,2.67,2.67,0,0,1,.68.52,2.61,2.61,0,0,1,.46.76A2.57,2.57,0,0,1,1650.58,283.2Z" /><path class="h" d="M1698.64,276v6.87h1.59V284h-1.59v1.87h-1.32V284H1693v-1.26l4.24-6.77Zm-1.32,6.87v-4.68l-2.83,4.68Z" /><path class="h" d="M1744.06,283.5a1.92,1.92,0,0,0,.66,1,2.24,2.24,0,0,0,1.43.43,2.15,2.15,0,0,0,.85-.16,1.8,1.8,0,0,0,.69-.45,2.1,2.1,0,0,0,.45-.74,2.78,2.78,0,0,0,.16-1,2.23,2.23,0,0,0-.58-1.67,2.06,2.06,0,0,0-1.54-.58,2.66,2.66,0,0,0-1,.22,2.39,2.39,0,0,0-.94.69H1743l.21-5.29h6.08v1.14h-4.85l-.11,2.9a3.56,3.56,0,0,1,.94-.52,3.76,3.76,0,0,1,2.45,0,3,3,0,0,1,1,.64,3.06,3.06,0,0,1,.7,1.06,4,4,0,0,1,0,2.78,3.21,3.21,0,0,1-1.81,1.83,4,4,0,0,1-1.51.27,4,4,0,0,1-1.38-.22,3.49,3.49,0,0,1-1.06-.58,3.16,3.16,0,0,1-.72-.84,2.54,2.54,0,0,1-.36-1Z" /><path class="h" d="M1796.13,279.42a3.17,3.17,0,0,1,1.3.25,2.69,2.69,0,0,1,1,.69,3.19,3.19,0,0,1,.61,1.05,4.14,4.14,0,0,1,.21,1.34,3.58,3.58,0,0,1-.29,1.48,3,3,0,0,1-1.82,1.68,3.87,3.87,0,0,1-1.2.2,3,3,0,0,1-2.61-1.21,6.08,6.08,0,0,1-.87-3.55,10.47,10.47,0,0,1,.3-2.75,4.64,4.64,0,0,1,.81-1.7,2.89,2.89,0,0,1,1.16-.87,3.85,3.85,0,0,1,1.33-.24,3.33,3.33,0,0,1,1.94.55,2.57,2.57,0,0,1,1,1.54h-1.5a1.34,1.34,0,0,0-.51-.72,1.66,1.66,0,0,0-1-.27,1.68,1.68,0,0,0-1.49.81,4.54,4.54,0,0,0-.5,1.18,9.22,9.22,0,0,0-.26,1.83,2.52,2.52,0,0,1,.51-.6,2.67,2.67,0,0,1,.59-.4,3,3,0,0,1,.64-.22A2.81,2.81,0,0,1,1796.13,279.42Zm-2.22,3.28a2.28,2.28,0,0,0,.58,1.69,1.86,1.86,0,0,0,1.42.59,2.12,2.12,0,0,0,.75-.14,1.71,1.71,0,0,0,.62-.42,1.87,1.87,0,0,0,.42-.68,2.58,2.58,0,0,0,.14-.92,2.43,2.43,0,0,0-.53-1.67,1.79,1.79,0,0,0-1.42-.6,2,2,0,0,0-.87.18,2,2,0,0,0-.62.47,2.09,2.09,0,0,0-.37.69A2.74,2.74,0,0,0,1793.91,282.7Z" /><path class="h" d="M1842.75,285.9h-1.55l4.15-8.69h-4.85V276h6.29v1.21Z" /><path class="h" d="M1896.24,278.33a2.21,2.21,0,0,1-.14.78,2.17,2.17,0,0,1-.38.64,3.08,3.08,0,0,1-.52.5,3.4,3.4,0,0,1-.59.37,5.49,5.49,0,0,1,.71.39,3,3,0,0,1,.64.54,2.92,2.92,0,0,1,.47.74,2.35,2.35,0,0,1,.18.94,2.63,2.63,0,0,1-.26,1.16,2.74,2.74,0,0,1-.74.92,3.41,3.41,0,0,1-1.14.59,4.83,4.83,0,0,1-1.47.21,5.17,5.17,0,0,1-1.47-.2,3.6,3.6,0,0,1-1.14-.58,2.7,2.7,0,0,1-.73-.89,2.34,2.34,0,0,1-.27-1.11,2.59,2.59,0,0,1,.18-1,2.56,2.56,0,0,1,.46-.75,3.06,3.06,0,0,1,.62-.53,3.92,3.92,0,0,1,.68-.34,2.93,2.93,0,0,1-.56-.33,2.52,2.52,0,0,1-.51-.47,2.81,2.81,0,0,1-.36-.64,2.66,2.66,0,0,1,.13-2,2.5,2.5,0,0,1,.72-.83,3.26,3.26,0,0,1,1-.48,4.91,4.91,0,0,1,1.22-.15,5.52,5.52,0,0,1,1.23.14,3.12,3.12,0,0,1,1,.46,2.22,2.22,0,0,1,.71.78A2.34,2.34,0,0,1,1896.24,278.33Zm-1.07,4.9a1.79,1.79,0,0,0-.23-1,1.82,1.82,0,0,0-.59-.58,2.63,2.63,0,0,0-.8-.35l-.85-.21a3.58,3.58,0,0,0-.63.25,2.49,2.49,0,0,0-.6.42,2,2,0,0,0-.46.61,1.9,1.9,0,0,0-.17.82,1.72,1.72,0,0,0,.13.68,1.48,1.48,0,0,0,.4.56,1.81,1.81,0,0,0,.67.38,2.76,2.76,0,0,0,1,.15,2.34,2.34,0,0,0,1.63-.5A1.64,1.64,0,0,0,1895.17,283.23Zm-4.08-4.87a1.69,1.69,0,0,0,.23.92,1.73,1.73,0,0,0,.55.56,2.49,2.49,0,0,0,.71.3c.25.06.49.1.7.13a4.07,4.07,0,0,0,.56-.27,2.5,2.5,0,0,0,.51-.4,1.83,1.83,0,0,0,.38-.54,1.57,1.57,0,0,0,.15-.7,1.28,1.28,0,0,0-.15-.63,1.38,1.38,0,0,0-.4-.47,1.71,1.71,0,0,0-.6-.31,2.48,2.48,0,0,0-.73-.1,2.92,2.92,0,0,0-.73.09,1.79,1.79,0,0,0-.61.28,1.46,1.46,0,0,0-.41.48A1.27,1.27,0,0,0,1891.09,278.36Z" /><path class="h" d="M1940.61,282.48a3.3,3.3,0,0,1-1.24-.23,2.65,2.65,0,0,1-1-.66,3,3,0,0,1-.64-1,4.07,4.07,0,0,1-.22-1.4,3.57,3.57,0,0,1,.25-1.38,3.16,3.16,0,0,1,.7-1.06,3.07,3.07,0,0,1,1-.68,3.51,3.51,0,0,1,1.31-.24,3,3,0,0,1,2.6,1.18,5.94,5.94,0,0,1,.88,3.58,10.3,10.3,0,0,1-.3,2.71,5,5,0,0,1-.79,1.71,2.73,2.73,0,0,1-1.16.89,3.86,3.86,0,0,1-1.4.25,3.26,3.26,0,0,1-2-.57,2.59,2.59,0,0,1-1-1.55h1.5a1.32,1.32,0,0,0,.53.75,1.76,1.76,0,0,0,1,.27,2,2,0,0,0,.84-.18,1.83,1.83,0,0,0,.68-.63,3.55,3.55,0,0,0,.48-1.17,10.21,10.21,0,0,0,.24-1.83,2.8,2.8,0,0,1-.51.61,3,3,0,0,1-.59.39,2.59,2.59,0,0,1-.63.21A2.74,2.74,0,0,1,1940.61,282.48Zm2.22-3.29a2.35,2.35,0,0,0-.57-1.69,1.91,1.91,0,0,0-1.42-.58,2,2,0,0,0-.77.15,1.71,1.71,0,0,0-.61.42,1.85,1.85,0,0,0-.41.68,2.59,2.59,0,0,0-.15.91,2.93,2.93,0,0,0,.15,1,2,2,0,0,0,.41.71,1.48,1.48,0,0,0,.62.43,2.12,2.12,0,0,0,1.64,0,1.75,1.75,0,0,0,.62-.48,1.8,1.8,0,0,0,.37-.68A2.76,2.76,0,0,0,1942.83,279.19Z" /><path class="h" d="M1985.56,285.9v-8.49l-2.22,1.15v-1.4l2.23-1.16h1.33v9.9Z" /><path class="h" d="M1994.19,286.11a3.15,3.15,0,0,1-1.4-.31,3,3,0,0,1-1.13-.95,5.06,5.06,0,0,1-.74-1.62,8.72,8.72,0,0,1-.27-2.31,8.85,8.85,0,0,1,.27-2.34,4.52,4.52,0,0,1,.75-1.59,2.84,2.84,0,0,1,1.12-.91,3.28,3.28,0,0,1,1.4-.29,3.24,3.24,0,0,1,1.39.29,2.84,2.84,0,0,1,1.12.91,4.2,4.2,0,0,1,.75,1.59,8.85,8.85,0,0,1,.27,2.34,8.72,8.72,0,0,1-.27,2.31,4.67,4.67,0,0,1-.74,1.62,3,3,0,0,1-1.12.95A3.18,3.18,0,0,1,1994.19,286.11Zm0-1.13a1.75,1.75,0,0,0,1.62-1,6.83,6.83,0,0,0,.53-3.08,6.61,6.61,0,0,0-.53-3,1.75,1.75,0,0,0-1.62-1,1.73,1.73,0,0,0-1.62,1,6.48,6.48,0,0,0-.53,3,6.7,6.7,0,0,0,.53,3.08A1.73,1.73,0,0,0,1994.19,285Z" /><path class="h" d="M2035.76,285.9v-8.49l-2.22,1.15v-1.4l2.23-1.16h1.33v9.9Z" /><path class="h" d="M2044.25,285.9v-8.49l-2.22,1.15v-1.4l2.23-1.16h1.33v9.9Z" /><path class="h" d="M2086.4,285.9v-8.49l-2.22,1.15v-1.4l2.23-1.16h1.33v9.9Z" /><path class="h" d="M2091.64,278.59a3,3,0,0,1,.36-1.11,3.07,3.07,0,0,1,.72-.89,3.53,3.53,0,0,1,1.06-.59,4,4,0,0,1,1.34-.21,4.09,4.09,0,0,1,1.28.19,3.18,3.18,0,0,1,1,.56,2.49,2.49,0,0,1,.68.89,2.64,2.64,0,0,1,.25,1.17,3.51,3.51,0,0,1-.12.94,3.26,3.26,0,0,1-.4.88,6.61,6.61,0,0,1-.72.95c-.31.33-.68.71-1.12,1.14l-2.26,2.15h4.58v1.24h-6.42v-1.24l3.22-3.1c.34-.32.63-.61.86-.87a6.4,6.4,0,0,0,.57-.73,2.9,2.9,0,0,0,.33-.66,2.5,2.5,0,0,0,.09-.69,1.63,1.63,0,0,0-.48-1.22,1.93,1.93,0,0,0-1.38-.46,2.19,2.19,0,0,0-1.4.44,1.76,1.76,0,0,0-.63,1.22Z" /><path class="h" d="M2164.87,285.9v-8.49l-2.22,1.15v-1.4l2.24-1.16h1.33v9.9Z" /><path class="h" d="M2177,283.2a2.85,2.85,0,0,1-.25,1.17,2.75,2.75,0,0,1-.71.92,3.11,3.11,0,0,1-1.11.6,4.64,4.64,0,0,1-1.44.21,3.88,3.88,0,0,1-2.48-.74,2.94,2.94,0,0,1-1.09-1.92h1.45a1.89,1.89,0,0,0,.68,1.14,2.27,2.27,0,0,0,1.41.39,2.35,2.35,0,0,0,1.59-.5,1.66,1.66,0,0,0,.56-1.3,1.86,1.86,0,0,0-.18-.86,1.56,1.56,0,0,0-.46-.58,1.73,1.73,0,0,0-.63-.33,2.73,2.73,0,0,0-.68-.1h-.82v-1.17h.79a1.63,1.63,0,0,0,.57-.1,1.73,1.73,0,0,0,.53-.3,1.44,1.44,0,0,0,.39-.51,1.76,1.76,0,0,0,.15-.75,1.41,1.41,0,0,0-.16-.69,1.45,1.45,0,0,0-.43-.49,1.66,1.66,0,0,0-.6-.28,2.86,2.86,0,0,0-.7-.09,2.22,2.22,0,0,0-1.36.39,1.6,1.6,0,0,0-.64,1H2170a2.82,2.82,0,0,1,.38-1,2.86,2.86,0,0,1,.75-.8,3.38,3.38,0,0,1,1.06-.52,4.51,4.51,0,0,1,1.31-.18,4.81,4.81,0,0,1,1.2.15,3,3,0,0,1,1,.48,2.4,2.4,0,0,1,.72.8,2.35,2.35,0,0,1,.27,1.15,2.2,2.2,0,0,1-.5,1.42,2.73,2.73,0,0,1-1.28.85,2.56,2.56,0,0,1,.8.29,2.45,2.45,0,0,1,1.14,1.28A2.57,2.57,0,0,1,2177,283.2Z" /><path class="h" d="M2213.63,285.9v-8.49l-2.22,1.15v-1.4l2.24-1.16H2215v9.9Z" /><path class="h" d="M2224.3,276v6.87h1.6V284h-1.6v1.87H2223V284h-4.35v-1.26l4.25-6.77Zm-1.31,6.87v-4.68l-2.83,4.68Z" /><path class="h" d="M2263.18,285.9v-8.49l-2.23,1.15v-1.4l2.24-1.16h1.33v9.9Z" /><path class="h" d="M2269.73,283.5a1.87,1.87,0,0,0,.66,1,2.49,2.49,0,0,0,2.28.27,1.84,1.84,0,0,0,.68-.45,2,2,0,0,0,.46-.74,2.78,2.78,0,0,0,.16-1,2.23,2.23,0,0,0-.58-1.67,2.07,2.07,0,0,0-1.54-.58,2.63,2.63,0,0,0-1,.22,2.32,2.32,0,0,0-.94.69h-1.21l.22-5.29H2275v1.14h-4.85L2270,280a3.62,3.62,0,0,1,1-.52,3.51,3.51,0,0,1,1.22-.2,3.61,3.61,0,0,1,1.23.21,3,3,0,0,1,1,.64,3.21,3.21,0,0,1,.7,1.06,3.84,3.84,0,0,1,.26,1.46,3.68,3.68,0,0,1-.24,1.32,3.22,3.22,0,0,1-.69,1.08,3.29,3.29,0,0,1-1.12.75,4.4,4.4,0,0,1-2.89.05,3.29,3.29,0,0,1-1.79-1.42,2.93,2.93,0,0,1-.36-1Z" /><path class="h" d="M2312.72,285.9v-8.49l-2.22,1.15v-1.4l2.23-1.16h1.33v9.9Z" /><path class="h" d="M2321.8,279.42a3.13,3.13,0,0,1,1.29.25,2.53,2.53,0,0,1,1,.69,2.88,2.88,0,0,1,.61,1.05,4.14,4.14,0,0,1,.21,1.34,3.43,3.43,0,0,1-.29,1.48,3.08,3.08,0,0,1-.75,1.06,3.32,3.32,0,0,1-1.06.62,3.88,3.88,0,0,1-1.21.2,3,3,0,0,1-2.6-1.21,6.08,6.08,0,0,1-.88-3.55,10,10,0,0,1,.31-2.75,4.64,4.64,0,0,1,.81-1.7,2.89,2.89,0,0,1,1.16-.87,3.81,3.81,0,0,1,1.33-.24,3.35,3.35,0,0,1,1.94.55,2.62,2.62,0,0,1,1.05,1.54h-1.5a1.34,1.34,0,0,0-.51-.72,1.7,1.7,0,0,0-1-.27,1.68,1.68,0,0,0-1.49.81,4,4,0,0,0-.5,1.18,7.94,7.94,0,0,0-.26,1.83,2.52,2.52,0,0,1,.51-.6,2.28,2.28,0,0,1,.59-.4,3,3,0,0,1,.64-.22A2.68,2.68,0,0,1,2321.8,279.42Zm-2.22,3.28a2.32,2.32,0,0,0,.57,1.69,1.88,1.88,0,0,0,1.42.59,2,2,0,0,0,.75-.14,1.66,1.66,0,0,0,.63-.42,2,2,0,0,0,.41-.68,2.57,2.57,0,0,0,.15-.92,2.48,2.48,0,0,0-.53-1.67,1.8,1.8,0,0,0-1.42-.6,2,2,0,0,0-.87.18,1.85,1.85,0,0,0-.62.47,1.92,1.92,0,0,0-.37.69A2.74,2.74,0,0,0,2319.58,282.7Z" /><path class="h" d="M2362.26,285.9v-8.49l-2.22,1.15v-1.4l2.23-1.16h1.33v9.9Z" /><path class="h" d="M2370,285.9h-1.54l4.15-8.69h-4.86V276h6.3v1.21Z" /><path class="h" d="M2411.8,285.9v-8.49l-2.22,1.15v-1.4l2.23-1.16h1.33v9.9Z" /><path class="h" d="M2423.67,278.33a2.21,2.21,0,0,1-.14.78,2.41,2.41,0,0,1-.38.64,3.08,3.08,0,0,1-.52.5,3.4,3.4,0,0,1-.59.37,6.24,6.24,0,0,1,.71.39,3.28,3.28,0,0,1,.64.54,2.89,2.89,0,0,1,.46.74,2.35,2.35,0,0,1,.19.94,2.51,2.51,0,0,1-.27,1.16,2.59,2.59,0,0,1-.73.92,3.62,3.62,0,0,1-1.14.59,4.83,4.83,0,0,1-1.47.21,5.17,5.17,0,0,1-1.47-.2,3.4,3.4,0,0,1-1.14-.58,2.73,2.73,0,0,1-.74-.89,2.45,2.45,0,0,1-.26-1.11,2.59,2.59,0,0,1,.18-1,2.56,2.56,0,0,1,.46-.75,2.81,2.81,0,0,1,.62-.53,3.6,3.6,0,0,1,.68-.34,3.35,3.35,0,0,1-.57-.33,2.77,2.77,0,0,1-.5-.47,2.81,2.81,0,0,1-.36-.64,2.66,2.66,0,0,1,.13-2,2.59,2.59,0,0,1,.71-.83,3.32,3.32,0,0,1,1-.48,4.85,4.85,0,0,1,1.22-.15,5.43,5.43,0,0,1,1.22.14,3.17,3.17,0,0,1,1,.46,2.32,2.32,0,0,1,.71.78A2.34,2.34,0,0,1,2423.67,278.33Zm-1.08,4.9a1.8,1.8,0,0,0-.22-1,1.82,1.82,0,0,0-.59-.58,2.74,2.74,0,0,0-.8-.35l-.85-.21a3.3,3.3,0,0,0-.63.25,2.76,2.76,0,0,0-.61.42,2.15,2.15,0,0,0-.45.61,1.77,1.77,0,0,0-.18.82,1.72,1.72,0,0,0,.14.68,1.48,1.48,0,0,0,.4.56,1.73,1.73,0,0,0,.67.38,2.76,2.76,0,0,0,1,.15,2.34,2.34,0,0,0,1.63-.5A1.67,1.67,0,0,0,2422.59,283.23Zm-4.07-4.87a1.61,1.61,0,0,0,.23.92,1.73,1.73,0,0,0,.55.56,2.43,2.43,0,0,0,.7.3c.26.06.49.1.71.13a3.49,3.49,0,0,0,.55-.27,2.88,2.88,0,0,0,.52-.4,2,2,0,0,0,.38-.54,1.57,1.57,0,0,0,.15-.7,1.28,1.28,0,0,0-.15-.63,1.5,1.5,0,0,0-.4-.47,1.71,1.71,0,0,0-.6-.31,2.52,2.52,0,0,0-.73-.1,2.86,2.86,0,0,0-.73.09,1.79,1.79,0,0,0-.61.28,1.62,1.62,0,0,0-.42.48A1.37,1.37,0,0,0,2418.52,278.36Z" /><path class="h" d="M2459.8,285.9v-8.49l-2.22,1.15v-1.4l2.23-1.16h1.33v9.9Z" /><path class="h" d="M2468.26,282.48a3.39,3.39,0,0,1-1.25-.23,2.7,2.7,0,0,1-1-.66,2.81,2.81,0,0,1-.64-1,4.07,4.07,0,0,1-.22-1.4,3.57,3.57,0,0,1,.25-1.38,3,3,0,0,1,.7-1.06,3.07,3.07,0,0,1,1-.68,3.47,3.47,0,0,1,1.31-.24,3,3,0,0,1,2.6,1.18,6,6,0,0,1,.88,3.58,10.3,10.3,0,0,1-.3,2.71,5,5,0,0,1-.79,1.71,2.73,2.73,0,0,1-1.16.89,3.9,3.9,0,0,1-1.4.25,3.31,3.31,0,0,1-2-.57,2.62,2.62,0,0,1-1-1.55h1.5a1.32,1.32,0,0,0,.53.75,1.76,1.76,0,0,0,1,.27,2,2,0,0,0,.84-.18,1.83,1.83,0,0,0,.68-.63,4,4,0,0,0,.48-1.17,10.21,10.21,0,0,0,.24-1.83,2.54,2.54,0,0,1-1.11,1,2.34,2.34,0,0,1-.63.21A2.6,2.6,0,0,1,2468.26,282.48Zm2.22-3.29a2.35,2.35,0,0,0-.57-1.69,1.91,1.91,0,0,0-1.42-.58,2,2,0,0,0-.77.15,1.71,1.71,0,0,0-.61.42,1.85,1.85,0,0,0-.41.68,2.59,2.59,0,0,0-.15.91,2.93,2.93,0,0,0,.15,1,2,2,0,0,0,.41.71,1.48,1.48,0,0,0,.62.43,2.12,2.12,0,0,0,1.64,0,1.75,1.75,0,0,0,.62-.48,1.8,1.8,0,0,0,.37-.68A2.76,2.76,0,0,0,2470.48,279.19Z" /><path class="h" d="M2506.15,278.59a3,3,0,0,1,.36-1.11,3,3,0,0,1,.73-.89,3.36,3.36,0,0,1,1.05-.59,4.39,4.39,0,0,1,2.62,0,3.35,3.35,0,0,1,1,.56,2.74,2.74,0,0,1,.68.89,2.78,2.78,0,0,1,.24,1.17,3.51,3.51,0,0,1-.12.94,3.55,3.55,0,0,1-.39.88,7.6,7.6,0,0,1-.73.95c-.3.33-.68.71-1.12,1.14l-2.26,2.15h4.58v1.24h-6.42v-1.24l3.22-3.1c.34-.32.63-.61.86-.87a6.4,6.4,0,0,0,.57-.73,2.9,2.9,0,0,0,.33-.66,2.5,2.5,0,0,0,.1-.69,1.63,1.63,0,0,0-.49-1.22,1.93,1.93,0,0,0-1.38-.46,2.14,2.14,0,0,0-1.39.44,1.68,1.68,0,0,0-.63,1.22Z" /><path class="h" d="M2518,286.11a3.15,3.15,0,0,1-1.4-.31,3,3,0,0,1-1.12-.95,4.86,4.86,0,0,1-.75-1.62,8.72,8.72,0,0,1-.27-2.31,8.85,8.85,0,0,1,.27-2.34,4.52,4.52,0,0,1,.75-1.59,2.87,2.87,0,0,1,1.13-.91,3.48,3.48,0,0,1,2.78,0,2.87,2.87,0,0,1,1.13.91,4.52,4.52,0,0,1,.75,1.59,8.85,8.85,0,0,1,.27,2.34,8.72,8.72,0,0,1-.27,2.31,5.06,5.06,0,0,1-.74,1.62,3,3,0,0,1-1.13.95A3.15,3.15,0,0,1,2518,286.11Zm0-1.13a1.73,1.73,0,0,0,1.62-1,6.83,6.83,0,0,0,.53-3.08,6.61,6.61,0,0,0-.53-3,1.85,1.85,0,0,0-3.24,0,6.61,6.61,0,0,0-.53,3,6.83,6.83,0,0,0,.53,3.08A1.73,1.73,0,0,0,2518,285Z" /><path class="h" d="M2557,278.59a3,3,0,0,1,.36-1.11,3.07,3.07,0,0,1,.72-.89,3.53,3.53,0,0,1,1.06-.59,4.39,4.39,0,0,1,2.62,0,3.18,3.18,0,0,1,1,.56,2.49,2.49,0,0,1,.68.89,2.64,2.64,0,0,1,.25,1.17,3.51,3.51,0,0,1-.12.94,3.26,3.26,0,0,1-.4.88,6.61,6.61,0,0,1-.72.95c-.31.33-.68.71-1.12,1.14l-2.26,2.15h4.58v1.24h-6.42v-1.24l3.22-3.1c.34-.32.63-.61.86-.87a6.4,6.4,0,0,0,.57-.73,2.9,2.9,0,0,0,.33-.66,2.5,2.5,0,0,0,.09-.69,1.63,1.63,0,0,0-.48-1.22,1.93,1.93,0,0,0-1.38-.46,2.19,2.19,0,0,0-1.4.44,1.76,1.76,0,0,0-.63,1.22Z" /><path class="h" d="M2568.76,285.9v-8.49l-2.22,1.15v-1.4l2.23-1.16h1.33v9.9Z" /><path class="h" d="M2604.74,278.59a3.45,3.45,0,0,1,.36-1.11,3.28,3.28,0,0,1,.73-.89,3.36,3.36,0,0,1,1.05-.59,4.39,4.39,0,0,1,2.62,0,3.35,3.35,0,0,1,1,.56,2.61,2.61,0,0,1,.68.89,2.79,2.79,0,0,1,.25,1.17,3.51,3.51,0,0,1-.12.94,3.6,3.6,0,0,1-.4.88,6.74,6.74,0,0,1-.73.95c-.3.33-.67.71-1.12,1.14l-2.26,2.15h4.58v1.24H2605v-1.24l3.23-3.1c.34-.32.62-.61.85-.87a8,8,0,0,0,.58-.73,2.84,2.84,0,0,0,.32-.66,2.17,2.17,0,0,0,.1-.69,1.6,1.6,0,0,0-.49-1.22,1.9,1.9,0,0,0-1.38-.46,2.16,2.16,0,0,0-1.39.44,1.76,1.76,0,0,0-.63,1.22Z" /><path class="h" d="M2613.23,278.59a3.45,3.45,0,0,1,.36-1.11,3.1,3.1,0,0,1,.73-.89,3.36,3.36,0,0,1,1-.59,4.39,4.39,0,0,1,2.62,0,3.35,3.35,0,0,1,1,.56,2.61,2.61,0,0,1,.68.89,2.78,2.78,0,0,1,.24,1.17,3.51,3.51,0,0,1-.12.94,3.55,3.55,0,0,1-.39.88,7.6,7.6,0,0,1-.73.95c-.3.33-.67.71-1.12,1.14l-2.26,2.15h4.58v1.24h-6.42v-1.24l3.23-3.1c.33-.32.62-.61.85-.87a6.4,6.4,0,0,0,.57-.73,2.9,2.9,0,0,0,.33-.66,2.17,2.17,0,0,0,.1-.69,1.6,1.6,0,0,0-.49-1.22,1.92,1.92,0,0,0-1.38-.46,2.16,2.16,0,0,0-1.39.44,1.68,1.68,0,0,0-.63,1.22Z" /><path class="h" d="M2654.94,278.59a3.45,3.45,0,0,1,.36-1.11,3.16,3.16,0,0,1,1.79-1.48,4,4,0,0,1,1.33-.21,4,4,0,0,1,1.28.19,3.35,3.35,0,0,1,1,.56,2.49,2.49,0,0,1,.68.89,2.64,2.64,0,0,1,.25,1.17,3.51,3.51,0,0,1-.12.94,3.26,3.26,0,0,1-.4.88,6.74,6.74,0,0,1-.73.95q-.45.5-1.11,1.14l-2.27,2.15h4.59v1.24h-6.43v-1.24l3.23-3.1c.34-.32.62-.61.85-.87a5.58,5.58,0,0,0,.58-.73,2.49,2.49,0,0,0,.32-.66,2.17,2.17,0,0,0,.1-.69,1.6,1.6,0,0,0-.49-1.22,1.9,1.9,0,0,0-1.38-.46,2.16,2.16,0,0,0-1.39.44,1.76,1.76,0,0,0-.63,1.22Z" /><path class="h" d="M2670.35,283.2a2.7,2.7,0,0,1-.25,1.17,2.62,2.62,0,0,1-.71.92,3.11,3.11,0,0,1-1.11.6,4.64,4.64,0,0,1-1.44.21,3.88,3.88,0,0,1-2.48-.74,2.88,2.88,0,0,1-1.08-1.92h1.44a1.89,1.89,0,0,0,.68,1.14,2.27,2.27,0,0,0,1.41.39,2.35,2.35,0,0,0,1.59-.5,1.66,1.66,0,0,0,.56-1.3,2,2,0,0,0-.17-.86,1.79,1.79,0,0,0-.46-.58,1.9,1.9,0,0,0-.63-.33,2.81,2.81,0,0,0-.69-.1h-.82v-1.17h.79a1.63,1.63,0,0,0,.57-.1,1.91,1.91,0,0,0,.54-.3,1.32,1.32,0,0,0,.38-.51,1.76,1.76,0,0,0,.15-.75,1.41,1.41,0,0,0-.16-.69,1.54,1.54,0,0,0-.42-.49,1.79,1.79,0,0,0-.61-.28,2.8,2.8,0,0,0-.7-.09,2.22,2.22,0,0,0-1.36.39,1.6,1.6,0,0,0-.64,1h-1.43a2.67,2.67,0,0,1,.39-1,2.6,2.6,0,0,1,.75-.8,3.23,3.23,0,0,1,1-.52,4.56,4.56,0,0,1,1.31-.18,4.81,4.81,0,0,1,1.2.15,3.15,3.15,0,0,1,1,.48,2.48,2.48,0,0,1,.71.8,2.35,2.35,0,0,1,.27,1.15,2.2,2.2,0,0,1-.5,1.42,2.68,2.68,0,0,1-1.28.85,2.56,2.56,0,0,1,.8.29,2.45,2.45,0,0,1,1.14,1.28A2.57,2.57,0,0,1,2670.35,283.2Z" /><path class="h" d="M2705.58,278.59a3.23,3.23,0,0,1,.37-1.11,3.07,3.07,0,0,1,.72-.89,3.53,3.53,0,0,1,1.06-.59,4,4,0,0,1,1.33-.21,4.11,4.11,0,0,1,1.29.19,3.18,3.18,0,0,1,1,.56,2.49,2.49,0,0,1,.68.89,2.64,2.64,0,0,1,.25,1.17,3.51,3.51,0,0,1-.12.94,3.26,3.26,0,0,1-.4.88,6.61,6.61,0,0,1-.72.95c-.31.33-.68.71-1.12,1.14l-2.27,2.15h4.59v1.24h-6.42v-1.24l3.22-3.1c.34-.32.63-.61.86-.87a6.4,6.4,0,0,0,.57-.73,2.9,2.9,0,0,0,.33-.66,2.5,2.5,0,0,0,.09-.69,1.63,1.63,0,0,0-.48-1.22,1.93,1.93,0,0,0-1.38-.46,2.19,2.19,0,0,0-1.4.44,1.76,1.76,0,0,0-.63,1.22Z" /><path class="h" d="M2719.51,276v6.87h1.59V284h-1.59v1.87h-1.32V284h-4.34v-1.26l4.24-6.77Zm-1.32,6.87v-4.68l-2.83,4.68Z" /><circle class="h" cx="1556.17" cy="257.52" r="5.19" /><circle class="h" cx="1605.66" cy="257.52" r="5.19" /><circle class="h" cx="1655.15" cy="257.52" r="5.19" /><circle class="h" cx="1704.65" cy="257.52" r="5.19" /><circle class="h" cx="1754.14" cy="257.52" r="5.19" /><circle class="h" cx="1803.63" cy="257.52" r="5.19" /><circle class="h" cx="1853.13" cy="257.52" r="5.19" /><circle class="h" cx="1902.62" cy="257.52" r="5.19" /><circle class="h" cx="1952.11" cy="257.52" r="5.19" /><circle class="h" cx="2001.61" cy="257.52" r="5.19" /><circle class="h" cx="2051.1" cy="257.52" r="5.19" /><circle class="h" cx="2100.6" cy="257.52" r="5.19" /><circle class="h" cx="2175.15" cy="257.52" r="5.19" /><circle class="h" cx="2224.64" cy="257.52" r="5.19" /><circle class="h" cx="2274.13" cy="257.52" r="5.19" /><circle class="h" cx="2323.63" cy="257.52" r="5.19" /><circle class="h" cx="2373.12" cy="257.52" r="5.19" /><circle class="h" cx="2422.62" cy="257.52" r="5.19" /><circle class="h" cx="2472.11" cy="257.52" r="5.19" /><circle class="h" cx="2521.6" cy="257.52" r="5.19" /><circle class="h" cx="2571.1" cy="257.52" r="5.19" /><circle class="h" cx="2620.59" cy="257.52" r="5.19" /><circle class="h" cx="2670.08" cy="257.52" r="5.19" /><circle class="h" cx="2719.58" cy="257.52" r="5.19" /><path class="h" d="M2805.28,283.54a1.55,1.55,0,0,0-.11-.59,1.12,1.12,0,0,0-.43-.48,4.18,4.18,0,0,0-.9-.44c-.39-.14-.91-.3-1.55-.48a8,8,0,0,1-1.38-.49,3,3,0,0,1-.88-.59,1.82,1.82,0,0,1-.48-.72,2.71,2.71,0,0,1-.14-.88,2.12,2.12,0,0,1,.23-1,2.3,2.3,0,0,1,.65-.78,3.67,3.67,0,0,1,1.07-.51,5.27,5.27,0,0,1,1.45-.18,5.21,5.21,0,0,1,1.4.18,3.69,3.69,0,0,1,1.14.5,2.77,2.77,0,0,1,.8.8,2.66,2.66,0,0,1,.4,1.08h-1.38a1.5,1.5,0,0,0-.7-1.08,3.11,3.11,0,0,0-1.66-.38,4.14,4.14,0,0,0-.93.1,2.24,2.24,0,0,0-.64.27,1.11,1.11,0,0,0-.37.41,1.08,1.08,0,0,0-.12.5,1.26,1.26,0,0,0,.09.49,1,1,0,0,0,.35.41,3.67,3.67,0,0,0,.75.38,13,13,0,0,0,1.3.41,13.81,13.81,0,0,1,1.64.57,4.07,4.07,0,0,1,1,.65,2,2,0,0,1,.55.77,2.76,2.76,0,0,1,.16,1,2.33,2.33,0,0,1-.25,1.06,2.65,2.65,0,0,1-.71.9,3.9,3.9,0,0,1-1.16.63,5.1,5.1,0,0,1-1.58.23,4.69,4.69,0,0,1-1.42-.21,3.8,3.8,0,0,1-1.16-.57,3.06,3.06,0,0,1-.83-.89,3,3,0,0,1-.42-1.19h1.38a1.84,1.84,0,0,0,.74,1.28,2.76,2.76,0,0,0,1.69.47,3.65,3.65,0,0,0,1-.13,2.43,2.43,0,0,0,.74-.36,1.5,1.5,0,0,0,.45-.53A1.36,1.36,0,0,0,2805.28,283.54Z" /><path class="h" d="M2813.53,282.1h-4v4h-1.35v-9.46h5.8v1.13h-4.45V281h4Z" /><path class="h" d="M2818.64,276.64a4.28,4.28,0,0,1,2.76.78,2.8,2.8,0,0,1,.95,2.29,2.72,2.72,0,0,1-.94,2.23,4.33,4.33,0,0,1-2.82.78h-1.68v3.38h-1.34v-9.46Zm-1.73,1.09v3.9h1.71a2.64,2.64,0,0,0,1.8-.49,2.13,2.13,0,0,0-.05-2.89,2.45,2.45,0,0,0-1.7-.52Z" /><path class="h" d="M2826.23,282.43h-2.17v-1.12h2.17v-2.2h1.19v2.2h2.16v1.12h-2.16v2.2h-1.19Z" /><path class="h" d="M2835.5,279.3a3,3,0,0,1,.33-1,2.85,2.85,0,0,1,.68-.83,2.93,2.93,0,0,1,1-.55,3.71,3.71,0,0,1,1.24-.2,3.54,3.54,0,0,1,1.19.19,2.83,2.83,0,0,1,.94.51,2.5,2.5,0,0,1,.64.83,2.53,2.53,0,0,1,.22,1.09,3.09,3.09,0,0,1-.47,1.69,7.52,7.52,0,0,1-.68.88c-.28.31-.63.66-1,1.05l-2.1,2h4.26v1.16h-6v-1.16l3-2.88a10,10,0,0,0,.8-.8,8.06,8.06,0,0,0,.53-.68,2.45,2.45,0,0,0,.3-.61,1.91,1.91,0,0,0,.1-.64,1.48,1.48,0,0,0-.46-1.14,1.81,1.81,0,0,0-1.28-.42,2,2,0,0,0-1.29.4,1.59,1.59,0,0,0-.59,1.13Z" /><path class="h" d="M2844.6,283.86a1.79,1.79,0,0,0,.62,1,2,2,0,0,0,1.33.4,2.3,2.3,0,0,0,.79-.14,2,2,0,0,0,.64-.42,2.16,2.16,0,0,0,.42-.69,2.65,2.65,0,0,0,.15-.92,2.07,2.07,0,0,0-.54-1.55,1.94,1.94,0,0,0-1.43-.54,2.63,2.63,0,0,0-1,.2,2.24,2.24,0,0,0-.87.64h-1.12l.2-4.91h5.65V278H2845l-.11,2.7a3.27,3.27,0,0,1,.88-.49,3.31,3.31,0,0,1,1.13-.18,3.34,3.34,0,0,1,1.15.19,2.65,2.65,0,0,1,.94.6,2.92,2.92,0,0,1,.66,1,3.64,3.64,0,0,1,.24,1.37,3.39,3.39,0,0,1-.23,1.22,2.89,2.89,0,0,1-.64,1,3.05,3.05,0,0,1-1,.69,3.64,3.64,0,0,1-1.4.26,3.75,3.75,0,0,1-1.29-.21,3.18,3.18,0,0,1-1-.54,2.9,2.9,0,0,1-.67-.78,2.79,2.79,0,0,1-.34-.91Z" /><path class="h" d="M2917.79,283.54a1.55,1.55,0,0,0-.1-.59,1.19,1.19,0,0,0-.43-.48,4.56,4.56,0,0,0-.91-.44c-.39-.14-.9-.3-1.54-.48a7.46,7.46,0,0,1-1.38-.49,3.06,3.06,0,0,1-.89-.59,1.91,1.91,0,0,1-.47-.72,2.46,2.46,0,0,1-.14-.88,2.11,2.11,0,0,1,.22-1,2.22,2.22,0,0,1,.66-.78,3.6,3.6,0,0,1,1.06-.51,5.33,5.33,0,0,1,1.45-.18,5.23,5.23,0,0,1,1.41.18,3.63,3.63,0,0,1,1.13.5,2.77,2.77,0,0,1,.8.8,2.82,2.82,0,0,1,.41,1.08h-1.38a1.52,1.52,0,0,0-.71-1.08,3.11,3.11,0,0,0-1.66-.38,4.14,4.14,0,0,0-.93.1,2.24,2.24,0,0,0-.64.27,1.1,1.1,0,0,0-.48.91,1.48,1.48,0,0,0,.08.49,1.08,1.08,0,0,0,.35.41,4.29,4.29,0,0,0,.75.38c.33.13.76.26,1.3.41a13.2,13.2,0,0,1,1.64.57,4.33,4.33,0,0,1,1,.65,1.87,1.87,0,0,1,.54.77,2.76,2.76,0,0,1,.16,1,2.45,2.45,0,0,1-.24,1.06,2.56,2.56,0,0,1-.72.9,3.66,3.66,0,0,1-1.16.63,5.08,5.08,0,0,1-1.57.23,4.64,4.64,0,0,1-1.42-.21,3.75,3.75,0,0,1-1.17-.57,3.2,3.2,0,0,1-.83-.89,3,3,0,0,1-.42-1.19H2913a1.91,1.91,0,0,0,.74,1.28,2.78,2.78,0,0,0,1.69.47,3.61,3.61,0,0,0,1-.13,2.22,2.22,0,0,0,.74-.36,1.5,1.5,0,0,0,.45-.53A1.36,1.36,0,0,0,2917.79,283.54Z" /><path class="h" d="M2926,282.1h-4v4h-1.34v-9.46h5.79v1.13h-4.45V281h4Z" /><path class="h" d="M2931.16,276.64a4.23,4.23,0,0,1,2.75.78,2.77,2.77,0,0,1,1,2.29,2.73,2.73,0,0,1-.95,2.23,4.3,4.3,0,0,1-2.81.78h-1.69v3.38h-1.34v-9.46Zm-1.74,1.09v3.9h1.71a2.64,2.64,0,0,0,1.8-.49,2.15,2.15,0,0,0,0-2.89,2.48,2.48,0,0,0-1.71-.52Z" /><path class="h" d="M2938.74,282.43h-2.17v-1.12h2.17v-2.2h1.2v2.2h2.15v1.12h-2.15v2.2h-1.2Z" /><path class="h" d="M2948,279.3a3,3,0,0,1,.33-1,2.85,2.85,0,0,1,.68-.83,3,3,0,0,1,1-.55,3.75,3.75,0,0,1,1.24-.2,3.5,3.5,0,0,1,1.19.19,3,3,0,0,1,1,.51,2.47,2.47,0,0,1,.63.83,2.53,2.53,0,0,1,.23,1.09,3,3,0,0,1-.48,1.69,6.57,6.57,0,0,1-.68.88c-.28.31-.63.66-1,1.05l-2.1,2h4.26v1.16h-6v-1.16l3-2.88c.31-.29.58-.56.79-.8a6.63,6.63,0,0,0,.54-.68,2.45,2.45,0,0,0,.3-.61,2.2,2.2,0,0,0,.09-.64,1.51,1.51,0,0,0-.45-1.14,1.83,1.83,0,0,0-1.28-.42,2,2,0,0,0-1.3.4,1.58,1.58,0,0,0-.58,1.13Z" /><path class="h" d="M2959.47,280.08a3,3,0,0,1,1.2.23,2.46,2.46,0,0,1,.9.64,2.64,2.64,0,0,1,.57,1,3.79,3.79,0,0,1,.2,1.24,3.33,3.33,0,0,1-.27,1.38,3,3,0,0,1-.71,1,2.86,2.86,0,0,1-1,.58,3.61,3.61,0,0,1-1.12.19,2.8,2.8,0,0,1-2.42-1.13,5.66,5.66,0,0,1-.81-3.3,9.46,9.46,0,0,1,.28-2.55,4.47,4.47,0,0,1,.75-1.58,2.57,2.57,0,0,1,1.08-.81,3.58,3.58,0,0,1,1.24-.23,3.06,3.06,0,0,1,1.8.52,2.37,2.37,0,0,1,1,1.43h-1.39a1.2,1.2,0,0,0-.47-.67,1.56,1.56,0,0,0-.92-.25,1.59,1.59,0,0,0-.75.17,1.57,1.57,0,0,0-.63.58,3.78,3.78,0,0,0-.47,1.1,7.54,7.54,0,0,0-.24,1.7,2.15,2.15,0,0,1,.47-.56,2.13,2.13,0,0,1,.55-.37,2.57,2.57,0,0,1,.59-.2A2.41,2.41,0,0,1,2959.47,280.08Zm-2.06,3.05a2.13,2.13,0,0,0,.53,1.57,1.76,1.76,0,0,0,1.32.54,1.85,1.85,0,0,0,.7-.13,1.58,1.58,0,0,0,.58-.38,1.94,1.94,0,0,0,.38-.64,2.5,2.5,0,0,0,.14-.86,2.24,2.24,0,0,0-.49-1.54,1.69,1.69,0,0,0-1.32-.56,2,2,0,0,0-.81.16,1.62,1.62,0,0,0-.58.45,1.75,1.75,0,0,0-.34.63A2.41,2.41,0,0,0,2957.41,283.13Z" /><path class="h" d="M3031.39,283.54a1.55,1.55,0,0,0-.11-.59,1.16,1.16,0,0,0-.42-.48,4.56,4.56,0,0,0-.91-.44c-.39-.14-.91-.3-1.55-.48a8,8,0,0,1-1.38-.49,3.14,3.14,0,0,1-.88-.59,1.94,1.94,0,0,1-.48-.72,2.71,2.71,0,0,1-.13-.88,2.11,2.11,0,0,1,.22-1,2.22,2.22,0,0,1,.66-.78,3.6,3.6,0,0,1,1.06-.51,5.27,5.27,0,0,1,1.45-.18,5.21,5.21,0,0,1,1.4.18,3.69,3.69,0,0,1,1.14.5,2.77,2.77,0,0,1,.8.8,2.66,2.66,0,0,1,.4,1.08h-1.38a1.5,1.5,0,0,0-.7-1.08,3.11,3.11,0,0,0-1.66-.38,4.14,4.14,0,0,0-.93.1,2.24,2.24,0,0,0-.64.27,1,1,0,0,0-.36.41,1.08,1.08,0,0,0-.12.5,1.26,1.26,0,0,0,.08.49,1,1,0,0,0,.35.41,4.29,4.29,0,0,0,.75.38,13,13,0,0,0,1.3.41,13.81,13.81,0,0,1,1.64.57,4.33,4.33,0,0,1,1,.65,2,2,0,0,1,.54.77,2.76,2.76,0,0,1,.16,1,2.45,2.45,0,0,1-.24,1.06,2.81,2.81,0,0,1-.72.9,3.78,3.78,0,0,1-1.16.63,5.08,5.08,0,0,1-1.57.23,4.6,4.6,0,0,1-1.42-.21,3.75,3.75,0,0,1-1.17-.57,3.2,3.2,0,0,1-.83-.89,3,3,0,0,1-.42-1.19h1.38a1.88,1.88,0,0,0,.74,1.28,2.78,2.78,0,0,0,1.69.47,3.65,3.65,0,0,0,1-.13,2.32,2.32,0,0,0,.74-.36,1.5,1.5,0,0,0,.45-.53A1.36,1.36,0,0,0,3031.39,283.54Z" /><path class="h" d="M3039.64,282.1h-4v4h-1.34v-9.46h5.79v1.13h-4.45V281h4Z" /><path class="h" d="M3044.76,276.64a4.25,4.25,0,0,1,2.75.78,2.8,2.8,0,0,1,.95,2.29,2.72,2.72,0,0,1-.94,2.23,4.31,4.31,0,0,1-2.82.78H3043v3.38h-1.34v-9.46Zm-1.74,1.09v3.9h1.71a2.64,2.64,0,0,0,1.8-.49,2.13,2.13,0,0,0-.05-2.89,2.45,2.45,0,0,0-1.7-.52Z" /><path class="h" d="M3052.34,282.43h-2.17v-1.12h2.17v-2.2h1.2v2.2h2.15v1.12h-2.15v2.2h-1.2Z" /><path class="h" d="M3061.61,279.3a3,3,0,0,1,.33-1,2.85,2.85,0,0,1,.68-.83,2.93,2.93,0,0,1,1-.55,3.71,3.71,0,0,1,1.24-.2,3.54,3.54,0,0,1,1.19.19,3,3,0,0,1,.95.51,2.61,2.61,0,0,1,.63.83,2.53,2.53,0,0,1,.23,1.09,3.22,3.22,0,0,1-.48,1.69,6.57,6.57,0,0,1-.68.88c-.28.31-.63.66-1,1.05l-2.1,2h4.26v1.16h-6v-1.16l3-2.88c.31-.29.58-.56.79-.8a6.41,6.41,0,0,0,.53-.68,2.93,2.93,0,0,0,.31-.61,2.2,2.2,0,0,0,.09-.64,1.48,1.48,0,0,0-.46-1.14,1.8,1.8,0,0,0-1.28-.42,2,2,0,0,0-1.29.4,1.63,1.63,0,0,0-.59,1.13Z" /><path class="h" d="M3071.78,286.1h-1.43l3.85-8.07h-4.51V276.9h5.85V278Z" /><path class="h" d="M3142.92,283.54a1.55,1.55,0,0,0-.1-.59,1.12,1.12,0,0,0-.43-.48,4.3,4.3,0,0,0-.91-.44c-.39-.14-.9-.3-1.54-.48a8,8,0,0,1-1.38-.49,3.2,3.2,0,0,1-.89-.59,1.91,1.91,0,0,1-.47-.72,2.71,2.71,0,0,1-.14-.88,2.25,2.25,0,0,1,.22-1,2.22,2.22,0,0,1,.66-.78,3.67,3.67,0,0,1,1.07-.51,5.73,5.73,0,0,1,2.85,0,3.69,3.69,0,0,1,1.14.5,3,3,0,0,1,.8.8,2.81,2.81,0,0,1,.4,1.08h-1.38a1.53,1.53,0,0,0-.7-1.08,3.15,3.15,0,0,0-1.67-.38,4,4,0,0,0-.92.1,2.12,2.12,0,0,0-.64.27,1,1,0,0,0-.37.41,1.08,1.08,0,0,0-.12.5,1.26,1.26,0,0,0,.09.49.93.93,0,0,0,.35.41,3.82,3.82,0,0,0,.74.38,13.29,13.29,0,0,0,1.31.41,13.59,13.59,0,0,1,1.63.57,4.14,4.14,0,0,1,1,.65,2,2,0,0,1,.55.77,3,3,0,0,1,.15,1,2.45,2.45,0,0,1-.24,1.06,2.56,2.56,0,0,1-.72.9,3.66,3.66,0,0,1-1.16.63,5,5,0,0,1-1.57.23,4.64,4.64,0,0,1-1.42-.21,3.69,3.69,0,0,1-1.16-.57,3.1,3.1,0,0,1-.84-.89,3,3,0,0,1-.42-1.19h1.38a1.89,1.89,0,0,0,.75,1.28,2.73,2.73,0,0,0,1.68.47,3.56,3.56,0,0,0,1-.13,2.38,2.38,0,0,0,.75-.36,1.58,1.58,0,0,0,.44-.53A1.36,1.36,0,0,0,3142.92,283.54Z" /><path class="h" d="M3151.18,282.1h-4v4h-1.34v-9.46h5.8v1.13h-4.46V281h4Z" /><path class="h" d="M3156.29,276.64a4.23,4.23,0,0,1,2.75.78,3.16,3.16,0,0,1,0,4.52,4.35,4.35,0,0,1-2.82.78h-1.68v3.38h-1.35v-9.46Zm-1.73,1.09v3.9h1.7a2.65,2.65,0,0,0,1.81-.49,1.88,1.88,0,0,0,.53-1.43,1.83,1.83,0,0,0-.58-1.46,2.47,2.47,0,0,0-1.7-.52Z" /><path class="h" d="M3163.87,282.43h-2.16v-1.12h2.16v-2.2h1.2v2.2h2.16v1.12h-2.16v2.2h-1.2Z" /><path class="h" d="M3173.14,279.3a3,3,0,0,1,.34-1,2.82,2.82,0,0,1,.67-.83,3,3,0,0,1,1-.55,3.75,3.75,0,0,1,1.24-.2,3.5,3.5,0,0,1,1.19.19,2.89,2.89,0,0,1,1,.51,2.35,2.35,0,0,1,.63.83,2.53,2.53,0,0,1,.23,1.09,3.45,3.45,0,0,1-.11.87,3.11,3.11,0,0,1-.37.82,5.83,5.83,0,0,1-.68.88c-.28.31-.62.66-1,1.05l-2.11,2h4.26v1.16h-6v-1.16l3-2.88c.32-.29.58-.56.8-.8a8.06,8.06,0,0,0,.53-.68,2.45,2.45,0,0,0,.3-.61,2.2,2.2,0,0,0,.09-.64,1.51,1.51,0,0,0-.45-1.14,1.81,1.81,0,0,0-1.28-.42,2,2,0,0,0-1.3.4,1.62,1.62,0,0,0-.58,1.13Z" /><path class="h" d="M3184,282.92a3.06,3.06,0,0,1-1.15-.21,2.6,2.6,0,0,1-.91-.61,2.82,2.82,0,0,1-.59-1,3.71,3.71,0,0,1-.21-1.29,3.37,3.37,0,0,1,.24-1.29,2.93,2.93,0,0,1,1.62-1.62,3.44,3.44,0,0,1,1.22-.22,2.82,2.82,0,0,1,2.41,1.1,5.52,5.52,0,0,1,.82,3.33,9.3,9.3,0,0,1-.28,2.51,4.53,4.53,0,0,1-.73,1.59,2.51,2.51,0,0,1-1.08.83,3.57,3.57,0,0,1-1.3.24,3,3,0,0,1-1.82-.54,2.39,2.39,0,0,1-1-1.44h1.39a1.25,1.25,0,0,0,.5.7,1.62,1.62,0,0,0,1,.25,1.85,1.85,0,0,0,.78-.17,1.71,1.71,0,0,0,.63-.58,3.38,3.38,0,0,0,.44-1.09,8.85,8.85,0,0,0,.23-1.69,2.56,2.56,0,0,1-.48.55,2.13,2.13,0,0,1-.55.37,2.66,2.66,0,0,1-.58.2A2.93,2.93,0,0,1,3184,282.92Zm2.07-3.05a2.18,2.18,0,0,0-.53-1.57,1.77,1.77,0,0,0-1.32-.55,1.8,1.8,0,0,0-.71.14,1.63,1.63,0,0,0-.58.4,1.8,1.8,0,0,0-.38.63,2.47,2.47,0,0,0-.14.84,2.76,2.76,0,0,0,.14.91,1.94,1.94,0,0,0,.38.66,1.66,1.66,0,0,0,.58.41,2.09,2.09,0,0,0,.72.13,1.92,1.92,0,0,0,.81-.17,1.56,1.56,0,0,0,.57-.44,1.73,1.73,0,0,0,.35-.64A2.67,2.67,0,0,0,3186.09,279.87Z" /></svg>