<svg viewBox="0 0 3414.38 309.14"><defs><style>.a{fill:#e4e4e4;}.b{fill:#060707;}.c{fill:#f1f0f0;}.d{fill:#251612;}.e{fill:#231f20;}.f{fill:#fff;}.g{fill:#383838;}.h{fill:#2c2c2c;}.i{fill:none;stroke:#1a1a1a;stroke-miterlimit:10;}.j{fill:#ececec;}.k{fill:#363636;}</style></defs><path class="a" d="M3377,0H37.42A37.43,37.43,0,0,0,0,37.42V271.71a37.43,37.43,0,0,0,37.42,37.43H3377a37.43,37.43,0,0,0,37.43-37.43V37.42A37.43,37.43,0,0,0,3377,0ZM109.32,265.87a24.44,24.44,0,0,1-24.44,24.44H61.76a24.44,24.44,0,0,1-24.44-24.44h0a24.44,24.44,0,0,1,24.44-24.44H84.88a24.44,24.44,0,0,1,24.44,24.44Zm0-222.6A24.44,24.44,0,0,1,84.88,67.71H61.76A24.44,24.44,0,0,1,37.32,43.27h0A24.44,24.44,0,0,1,61.76,18.83H84.88a24.44,24.44,0,0,1,24.44,24.44Zm3267.74,222.6a24.44,24.44,0,0,1-24.44,24.44H3329.5a24.44,24.44,0,0,1-24.44-24.44h0a24.44,24.44,0,0,1,24.44-24.44h23.12a24.44,24.44,0,0,1,24.44,24.44Zm0-222.6a24.45,24.45,0,0,1-24.44,24.44H3329.5a24.44,24.44,0,0,1-24.44-24.44h0a24.44,24.44,0,0,1,24.44-24.44h23.12a24.44,24.44,0,0,1,24.44,24.44Z" /><rect class="b" x="1602.49" y="63.74" width="1239.19" height="181.65" /><rect class="c" x="2132.26" y="-464.03" width="179.65" height="1237.19" rx="3.05" transform="translate(2376.66 -2067.52) rotate(90)" /><polygon class="d" points="3161.52 249.74 3155.35 249.74 3155.35 228.02 3161.52 228.02 3161.52 249.74 3161.52 249.74" /><path class="d" d="M3211.21,234.24a11.77,11.77,0,0,0-5.19-1.16c-4,0-6.75,2.46-6.75,5.79s2.65,5.8,6.75,5.8a12,12,0,0,0,5.19-1.15v5.83a21.5,21.5,0,0,1-5.62.78c-6.94,0-13-4.25-13-11.26,0-6.48,5.51-11.24,13-11.24a21.14,21.14,0,0,1,5.62.78v5.83Z" /><path class="d" d="M3146.88,234.24a11.65,11.65,0,0,0-5.18-1.16c-4,0-6.75,2.46-6.75,5.79s2.64,5.8,6.75,5.8a11.85,11.85,0,0,0,5.18-1.15v5.83a21.45,21.45,0,0,1-5.63.78c-6.93,0-13-4.25-13-11.26,0-6.48,5.5-11.24,13-11.24a20.93,20.93,0,0,1,5.63.78v5.83Z" /><path class="d" d="M3243.49,238.87c0,6.22-5.39,11.26-12.9,11.26s-12.89-5-12.89-11.26,5.38-11.24,12.89-11.24,12.9,5,12.9,11.24Zm-12.9-5.71c-3.66,0-6.37,2.56-6.37,5.71s2.71,5.72,6.37,5.72,6.37-2.55,6.37-5.72-2.71-5.71-6.37-5.71Z" /><path class="d" d="M3184.88,233a23.81,23.81,0,0,0-4.81-.66c-2.47,0-3.81.74-3.81,1.79,0,1.31,1.8,1.77,2.81,2.06l1.71.48c4,1.13,5.82,3.57,5.82,6.21,0,5.46-5.4,7.3-10.11,7.3a40.71,40.71,0,0,1-6.65-.6v-5a25.69,25.69,0,0,0,5.82.82c3.06,0,4.48-.81,4.48-2s-1.22-1.73-2.76-2.16c-.37-.11-.92-.27-1.32-.37-3.43-1-6.28-2.77-6.28-6.36,0-4.07,3.41-6.79,9.1-6.79a30,30,0,0,1,6,.68V233Z" /><path class="d" d="M3122.46,204.65a3,3,0,0,0-6,0V211a3,3,0,1,0,6,0v-6.33Z" /><path class="d" d="M3139.07,196.33a3,3,0,0,0-6.05,0V211a3,3,0,0,0,6.05,0V196.33Z" /><path class="d" d="M3155.68,185a3,3,0,0,0-6,0V217a3,3,0,1,0,6,0V185Z" /><path class="d" d="M3172.29,196.33a3,3,0,0,0-6,0V211a3,3,0,1,0,6,0V196.33Z" /><path class="d" d="M3188.89,204.65a3,3,0,0,0-6,0V211a3,3,0,1,0,6,0v-6.33Z" /><path class="d" d="M3205.51,196.33a3,3,0,0,0-6,0V211a3,3,0,1,0,6,0V196.33Z" /><path class="d" d="M3222.13,185a3,3,0,0,0-6,0V217a3,3,0,1,0,6,0V185Z" /><path class="d" d="M3238.76,196.33a3,3,0,0,0-6.08,0V211a3,3,0,0,0,6.08,0V196.33Z" /><path class="d" d="M3255.34,204.65a3,3,0,0,0-6,0V211a3,3,0,1,0,6,0v-6.33Z" /><polygon class="e" points="1647.66 272.25 1639.2 272.25 1643.43 266.13 1643.43 266.13 1647.66 272.25" /><polygon class="e" points="1690.08 269.5 1698.54 269.5 1694.31 275.62 1694.31 275.62 1690.08 269.5" /><polygon class="e" points="1747.97 272.25 1739.51 272.25 1743.74 266.13 1743.74 266.13 1747.97 272.25" /><polygon class="e" points="1790.39 269.5 1798.85 269.5 1794.62 275.62 1794.62 275.62 1790.39 269.5" /><polygon class="e" points="1846.21 272.25 1837.74 272.25 1841.97 266.13 1841.97 266.13 1846.21 272.25" /><polygon class="e" points="1888.63 269.5 1897.09 269.5 1892.86 275.62 1892.86 275.62 1888.63 269.5" /><polygon class="e" points="1944.54 272.25 1936.08 272.25 1940.31 266.13 1940.31 266.13 1944.54 272.25" /><polygon class="e" points="1986.96 269.5 1995.42 269.5 1991.19 275.62 1991.19 275.62 1986.96 269.5" /><polygon class="e" points="2041.26 272.25 2032.8 272.25 2037.03 266.13 2037.03 266.13 2041.26 272.25" /><polygon class="e" points="2086.19 269.5 2094.65 269.5 2090.42 275.62 2090.42 275.62 2086.19 269.5" /><polygon class="e" points="2145.36 272.25 2136.9 272.25 2141.13 266.13 2141.13 266.13 2145.36 272.25" /><polygon class="e" points="2186.65 268.94 2195.11 268.94 2190.88 275.05 2190.88 275.05 2186.65 268.94" /><polygon class="e" points="2271.09 272.25 2262.63 272.25 2266.86 266.13 2266.86 266.13 2271.09 272.25" /><polygon class="e" points="2311.99 269.5 2320.45 269.5 2316.22 275.62 2316.22 275.62 2311.99 269.5" /><polygon class="e" points="2368.81 272.25 2360.35 272.25 2364.58 266.13 2364.58 266.13 2368.81 272.25" /><polygon class="e" points="2411.23 269.5 2419.69 269.5 2415.46 275.62 2415.46 275.62 2411.23 269.5" /><polygon class="e" points="2467.89 272.25 2459.43 272.25 2463.66 266.13 2463.66 266.13 2467.89 272.25" /><polygon class="e" points="2509.47 269.5 2517.93 269.5 2513.7 275.62 2513.7 275.62 2509.47 269.5" /><polygon class="e" points="2565.91 272.25 2557.45 272.25 2561.68 266.13 2561.68 266.13 2565.91 272.25" /><polygon class="e" points="2607.77 269.5 2616.23 269.5 2612 275.62 2612 275.62 2607.77 269.5" /><polygon class="e" points="2666.38 272.25 2657.92 272.25 2662.15 266.13 2662.15 266.13 2666.38 272.25" /><polygon class="e" points="2707.27 269.5 2715.73 269.5 2711.5 275.62 2711.5 275.62 2707.27 269.5" /><polygon class="e" points="2763.56 272.25 2755.1 272.25 2759.33 266.13 2759.33 266.13 2763.56 272.25" /><polygon class="e" points="2805.98 269.5 2814.44 269.5 2810.21 275.62 2810.21 275.62 2805.98 269.5" /><circle class="f" cx="230.75" cy="81.33" r="6.17" /><circle cx="230.75" cy="194.94" r="5.44" /><path d="M231.63,214.92v-3.24l-4.73,3.74,4.73,3.74v-3.24a8.53,8.53,0,1,1-8.53,8.53h-1a9.53,9.53,0,1,0,9.53-9.53Z" /><path class="g" d="M2330.83,117.73h-.41v-.11H2329V103.17h2.27a1.22,1.22,0,0,0,.83-1.15,1.24,1.24,0,0,0-1.24-1.24h-.41V73.22a1.45,1.45,0,0,0-1.46-1.45h-25.74V67.36h-36.44v4.41h-25.73a1.45,1.45,0,0,0-1.46,1.45v27.56h-.45a1.23,1.23,0,0,0-1.23,1.24,1.21,1.21,0,0,0,.83,1.15H2241v14.45h-1.42v.11h-.45a1.24,1.24,0,0,0,0,2.48h.45v17.32a1.45,1.45,0,0,0,1.46,1.45H2329a1.45,1.45,0,0,0,1.46-1.45V120.21h.41a1.24,1.24,0,1,0,0-2.48Z" /><polygon class="b" points="2307.45 90.1 2307.45 77.88 2299.02 77.88 2299.02 69.13 2270.62 69.13 2270.62 77.88 2262.2 77.88 2262.2 90.1 2242.71 90.1 2242.71 138.32 2327.26 138.32 2327.26 90.1 2307.45 90.1" /><rect class="h" x="2308.81" y="73.42" width="18.5" height="9.25" /><rect class="h" x="2242.67" y="73.42" width="18.5" height="9.25" /><path class="g" d="M2429.47,117.73h-.41v-.11h-1.45V103.17h2.27a1.22,1.22,0,0,0,.83-1.15,1.23,1.23,0,0,0-1.24-1.24h-.41V73.22a1.45,1.45,0,0,0-1.45-1.45h-25.74V67.36h-36.44v4.41h-25.74a1.45,1.45,0,0,0-1.46,1.45v27.56h-.44a1.23,1.23,0,0,0-1.24,1.24,1.22,1.22,0,0,0,.83,1.15h2.27v14.45h-1.42v.11h-.44a1.24,1.24,0,1,0,0,2.48h.44v17.32a1.45,1.45,0,0,0,1.46,1.45h87.92a1.45,1.45,0,0,0,1.45-1.45V120.21h.41a1.24,1.24,0,1,0,0-2.48Z" /><polygon class="b" points="2406.09 90.1 2406.09 77.88 2397.67 77.88 2397.67 69.13 2369.26 69.13 2369.26 77.88 2360.84 77.88 2360.84 90.1 2341.35 90.1 2341.35 138.32 2425.91 138.32 2425.91 90.1 2406.09 90.1" /><rect class="h" x="2407.45" y="73.42" width="18.5" height="9.25" /><rect class="h" x="2341.31" y="73.42" width="18.5" height="9.25" /><path class="g" d="M2528.11,117.73h-.41v-.11h-1.45V103.17h2.27a1.22,1.22,0,0,0,.83-1.15,1.23,1.23,0,0,0-1.24-1.24h-.41V73.22a1.45,1.45,0,0,0-1.45-1.45h-25.74V67.36h-36.44v4.41h-25.74a1.45,1.45,0,0,0-1.45,1.45v27.56h-.45a1.23,1.23,0,0,0-1.24,1.24,1.22,1.22,0,0,0,.83,1.15h2.27v14.45h-1.41v.11h-.45a1.24,1.24,0,1,0,0,2.48h.45v17.32a1.45,1.45,0,0,0,1.45,1.45h87.92a1.45,1.45,0,0,0,1.45-1.45V120.21h.41a1.24,1.24,0,0,0,0-2.48Z" /><polygon class="b" points="2504.73 90.1 2504.73 77.88 2496.31 77.88 2496.31 69.13 2467.9 69.13 2467.9 77.88 2459.48 77.88 2459.48 90.1 2440 90.1 2440 138.32 2524.55 138.32 2524.55 90.1 2504.73 90.1" /><rect class="h" x="2506.09" y="73.42" width="18.5" height="9.25" /><rect class="h" x="2439.95" y="73.42" width="18.5" height="9.25" /><path class="g" d="M2626.76,117.73h-.42v-.11h-1.45V103.17h2.28A1.21,1.21,0,0,0,2628,102a1.23,1.23,0,0,0-1.23-1.24h-.42V73.22a1.45,1.45,0,0,0-1.45-1.45h-25.74V67.36h-36.44v4.41H2537a1.45,1.45,0,0,0-1.45,1.45v27.56h-.45a1.24,1.24,0,0,0-1.24,1.24,1.22,1.22,0,0,0,.83,1.15h2.27v14.45h-1.41v.11h-.45a1.24,1.24,0,0,0,0,2.48h.45v17.32A1.45,1.45,0,0,0,2537,139h87.92a1.45,1.45,0,0,0,1.45-1.45V120.21h.42a1.24,1.24,0,0,0,0-2.48Z" /><polygon class="b" points="2603.37 90.1 2603.37 77.88 2594.95 77.88 2594.95 69.13 2566.55 69.13 2566.55 77.88 2558.12 77.88 2558.12 90.1 2538.64 90.1 2538.64 138.32 2623.19 138.32 2623.19 90.1 2603.37 90.1" /><rect class="h" x="2604.73" y="73.42" width="18.5" height="9.25" /><rect class="h" x="2538.6" y="73.42" width="18.5" height="9.25" /><path class="g" d="M2725.4,117.73H2725v-.11h-1.45V103.17h2.27a1.22,1.22,0,0,0,.83-1.15,1.24,1.24,0,0,0-1.24-1.24H2725V73.22a1.46,1.46,0,0,0-1.46-1.45h-25.74V67.36h-36.44v4.41h-25.74a1.45,1.45,0,0,0-1.45,1.45v27.56h-.45a1.24,1.24,0,0,0-1.24,1.24,1.22,1.22,0,0,0,.83,1.15h2.27v14.45h-1.41v.11h-.45a1.24,1.24,0,0,0,0,2.48h.45v17.32a1.45,1.45,0,0,0,1.45,1.45h87.92a1.46,1.46,0,0,0,1.46-1.45V120.21h.41a1.24,1.24,0,0,0,0-2.48Z" /><polygon class="b" points="2702.01 90.1 2702.01 77.88 2693.59 77.88 2693.59 69.13 2665.19 69.13 2665.19 77.88 2656.77 77.88 2656.77 90.1 2637.28 90.1 2637.28 138.32 2721.83 138.32 2721.83 90.1 2702.01 90.1" /><rect class="h" x="2703.38" y="73.42" width="18.5" height="9.25" /><rect class="h" x="2637.24" y="73.42" width="18.5" height="9.25" /><path class="g" d="M2824,117.73h-.41v-.11h-1.45V103.17h2.27a1.22,1.22,0,0,0,.83-1.15,1.24,1.24,0,0,0-1.24-1.24h-.41V73.22a1.45,1.45,0,0,0-1.46-1.45h-25.74V67.36H2760v4.41h-25.73a1.45,1.45,0,0,0-1.46,1.45v27.56h-.45a1.23,1.23,0,0,0-1.23,1.24,1.21,1.21,0,0,0,.83,1.15h2.27v14.45h-1.42v.11h-.45a1.24,1.24,0,0,0,0,2.48h.45v17.32a1.45,1.45,0,0,0,1.46,1.45h87.91a1.45,1.45,0,0,0,1.46-1.45V120.21h.41a1.24,1.24,0,1,0,0-2.48Z" /><polygon class="b" points="2800.66 90.1 2800.66 77.88 2792.23 77.88 2792.23 69.13 2763.83 69.13 2763.83 77.88 2755.41 77.88 2755.41 90.1 2735.92 90.1 2735.92 138.32 2820.47 138.32 2820.47 90.1 2800.66 90.1" /><rect class="h" x="2802.02" y="73.42" width="18.5" height="9.25" /><rect class="h" x="2735.88" y="73.42" width="18.5" height="9.25" /><path class="g" d="M2330.83,191h-.41v.11H2329v14.45h2.27a1.22,1.22,0,0,1,.83,1.15,1.24,1.24,0,0,1-1.24,1.24h-.41V235.5A1.45,1.45,0,0,1,2329,237h-25.74v4.4h-36.44V237h-25.73a1.45,1.45,0,0,1-1.46-1.45V207.94h-.45a1.23,1.23,0,0,1-1.23-1.24,1.21,1.21,0,0,1,.83-1.15H2241V191.1h-1.42V191h-.45a1.24,1.24,0,0,1,0-2.48h.45V171.19a1.45,1.45,0,0,1,1.46-1.45H2329a1.45,1.45,0,0,1,1.46,1.45v17.32h.41a1.24,1.24,0,1,1,0,2.48Z" /><polygon class="b" points="2307.45 218.62 2307.45 230.84 2299.02 230.84 2299.02 239.59 2270.62 239.59 2270.62 230.84 2262.2 230.84 2262.2 218.62 2242.71 218.62 2242.71 170.4 2327.26 170.4 2327.26 218.62 2307.45 218.62" /><rect class="h" x="2308.81" y="226.05" width="18.5" height="9.25" /><rect class="h" x="2242.67" y="226.05" width="18.5" height="9.25" /><path class="g" d="M2429.47,191h-.41v.11h-1.45v14.45h2.27a1.22,1.22,0,0,1,.83,1.15,1.23,1.23,0,0,1-1.24,1.24h-.41V235.5a1.45,1.45,0,0,1-1.45,1.45h-25.74v4.4h-36.44V237h-25.74a1.45,1.45,0,0,1-1.46-1.45V207.94h-.44a1.23,1.23,0,0,1-1.24-1.24,1.22,1.22,0,0,1,.83-1.15h2.27V191.1h-1.42V191h-.44a1.24,1.24,0,1,1,0-2.48h.44V171.19a1.45,1.45,0,0,1,1.46-1.45h87.92a1.45,1.45,0,0,1,1.45,1.45v17.32h.41a1.24,1.24,0,1,1,0,2.48Z" /><polygon class="b" points="2406.09 218.62 2406.09 230.84 2397.67 230.84 2397.67 239.59 2369.26 239.59 2369.26 230.84 2360.84 230.84 2360.84 218.62 2341.35 218.62 2341.35 170.4 2425.91 170.4 2425.91 218.62 2406.09 218.62" /><rect class="h" x="2407.45" y="226.05" width="18.5" height="9.25" /><rect class="h" x="2341.31" y="226.05" width="18.5" height="9.25" /><path class="g" d="M2528.11,191h-.41v.11h-1.45v14.45h2.27a1.22,1.22,0,0,1,.83,1.15,1.23,1.23,0,0,1-1.24,1.24h-.41V235.5a1.45,1.45,0,0,1-1.45,1.45h-25.74v4.4h-36.44V237h-25.74a1.45,1.45,0,0,1-1.45-1.45V207.94h-.45a1.23,1.23,0,0,1-1.24-1.24,1.22,1.22,0,0,1,.83-1.15h2.27V191.1h-1.41V191h-.45a1.24,1.24,0,1,1,0-2.48h.45V171.19a1.45,1.45,0,0,1,1.45-1.45h87.92a1.45,1.45,0,0,1,1.45,1.45v17.32h.41a1.24,1.24,0,0,1,0,2.48Z" /><polygon class="b" points="2504.73 218.62 2504.73 230.84 2496.31 230.84 2496.31 239.59 2467.9 239.59 2467.9 230.84 2459.48 230.84 2459.48 218.62 2440 218.62 2440 170.4 2524.55 170.4 2524.55 218.62 2504.73 218.62" /><rect class="h" x="2506.09" y="226.05" width="18.5" height="9.25" /><rect class="h" x="2439.95" y="226.05" width="18.5" height="9.25" /><path class="g" d="M2626.76,191h-.42v.11h-1.45v14.45h2.28a1.21,1.21,0,0,1,.82,1.15,1.23,1.23,0,0,1-1.23,1.24h-.42V235.5a1.45,1.45,0,0,1-1.45,1.45h-25.74v4.4h-36.44V237H2537a1.45,1.45,0,0,1-1.45-1.45V207.94h-.45a1.24,1.24,0,0,1-1.24-1.24,1.22,1.22,0,0,1,.83-1.15h2.27V191.1h-1.41V191h-.45a1.24,1.24,0,0,1,0-2.48h.45V171.19a1.45,1.45,0,0,1,1.45-1.45h87.92a1.45,1.45,0,0,1,1.45,1.45v17.32h.42a1.24,1.24,0,0,1,0,2.48Z" /><polygon class="b" points="2603.37 218.62 2603.37 230.84 2594.95 230.84 2594.95 239.59 2566.55 239.59 2566.55 230.84 2558.12 230.84 2558.12 218.62 2538.64 218.62 2538.64 170.4 2623.19 170.4 2623.19 218.62 2603.37 218.62" /><rect class="h" x="2604.73" y="226.05" width="18.5" height="9.25" /><rect class="h" x="2538.6" y="226.05" width="18.5" height="9.25" /><path class="g" d="M2725.4,191H2725v.11h-1.45v14.45h2.27a1.22,1.22,0,0,1,.83,1.15,1.24,1.24,0,0,1-1.24,1.24H2725V235.5a1.46,1.46,0,0,1-1.46,1.45h-25.74v4.4h-36.44V237h-25.74a1.45,1.45,0,0,1-1.45-1.45V207.94h-.45a1.24,1.24,0,0,1-1.24-1.24,1.22,1.22,0,0,1,.83-1.15h2.27V191.1h-1.41V191h-.45a1.24,1.24,0,0,1,0-2.48h.45V171.19a1.45,1.45,0,0,1,1.45-1.45h87.92a1.46,1.46,0,0,1,1.46,1.45v17.32h.41a1.24,1.24,0,0,1,0,2.48Z" /><polygon class="b" points="2702.01 218.62 2702.01 230.84 2693.59 230.84 2693.59 239.59 2665.19 239.59 2665.19 230.84 2656.77 230.84 2656.77 218.62 2637.28 218.62 2637.28 170.4 2721.83 170.4 2721.83 218.62 2702.01 218.62" /><rect class="h" x="2703.38" y="226.05" width="18.5" height="9.25" /><rect class="h" x="2637.24" y="226.05" width="18.5" height="9.25" /><path class="g" d="M2824,191h-.41v.11h-1.45v14.45h2.27a1.22,1.22,0,0,1,.83,1.15,1.24,1.24,0,0,1-1.24,1.24h-.41V235.5a1.45,1.45,0,0,1-1.46,1.45h-25.74v4.4H2760V237h-25.73a1.45,1.45,0,0,1-1.46-1.45V207.94h-.45a1.23,1.23,0,0,1-1.23-1.24,1.21,1.21,0,0,1,.83-1.15h2.27V191.1h-1.42V191h-.45a1.24,1.24,0,0,1,0-2.48h.45V171.19a1.45,1.45,0,0,1,1.46-1.45h87.91a1.45,1.45,0,0,1,1.46,1.45v17.32h.41a1.24,1.24,0,1,1,0,2.48Z" /><polygon class="b" points="2800.66 218.62 2800.66 230.84 2792.23 230.84 2792.23 239.59 2763.83 239.59 2763.83 230.84 2755.41 230.84 2755.41 218.62 2735.92 218.62 2735.92 170.4 2820.47 170.4 2820.47 218.62 2800.66 218.62" /><rect class="h" x="2802.02" y="226.05" width="18.5" height="9.25" /><rect class="h" x="2735.88" y="226.05" width="18.5" height="9.25" /><path class="g" d="M1711.27,117.73h-.41v-.11h-1.45V103.17h2.27a1.22,1.22,0,0,0,.83-1.15,1.24,1.24,0,0,0-1.24-1.24h-.41V73.22a1.46,1.46,0,0,0-1.46-1.45h-25.74V67.36h-36.44v4.41h-25.74a1.45,1.45,0,0,0-1.45,1.45v27.56h-.45a1.24,1.24,0,0,0-1.24,1.24,1.22,1.22,0,0,0,.83,1.15h2.27v14.45H1620v.11h-.45a1.24,1.24,0,0,0,0,2.48h.45v17.32a1.45,1.45,0,0,0,1.45,1.45h87.92a1.46,1.46,0,0,0,1.46-1.45V120.21h.41a1.24,1.24,0,1,0,0-2.48Z" /><polygon class="b" points="1687.88 90.1 1687.88 77.88 1679.46 77.88 1679.46 69.13 1651.06 69.13 1651.06 77.88 1642.64 77.88 1642.64 90.1 1623.15 90.1 1623.15 138.32 1707.7 138.32 1707.7 90.1 1687.88 90.1" /><rect class="h" x="1689.25" y="73.42" width="18.5" height="9.25" /><rect class="h" x="1623.11" y="73.42" width="18.5" height="9.25" /><path class="g" d="M1809.91,117.73h-.41v-.11h-1.45V103.17h2.27a1.22,1.22,0,0,0,.83-1.15,1.24,1.24,0,0,0-1.24-1.24h-.41V73.22a1.45,1.45,0,0,0-1.46-1.45h-25.73V67.36h-36.45v4.41h-25.73a1.45,1.45,0,0,0-1.46,1.45v27.56h-.45a1.23,1.23,0,0,0-.4,2.39h2.27v14.45h-1.42v.11h-.45a1.24,1.24,0,0,0,0,2.48h.45v17.32a1.45,1.45,0,0,0,1.46,1.45H1808a1.45,1.45,0,0,0,1.46-1.45V120.21h.41a1.24,1.24,0,1,0,0-2.48Z" /><polygon class="b" points="1786.53 90.1 1786.53 77.88 1778.1 77.88 1778.1 69.13 1749.7 69.13 1749.7 77.88 1741.28 77.88 1741.28 90.1 1721.79 90.1 1721.79 138.32 1806.34 138.32 1806.34 90.1 1786.53 90.1" /><rect class="h" x="1787.89" y="73.42" width="18.5" height="9.25" /><rect class="h" x="1721.75" y="73.42" width="18.5" height="9.25" /><path class="g" d="M1908.55,117.73h-.41v-.11h-1.45V103.17H1909a1.22,1.22,0,0,0,.83-1.15,1.23,1.23,0,0,0-1.24-1.24h-.41V73.22a1.45,1.45,0,0,0-1.45-1.45H1881V67.36h-36.44v4.41h-25.74a1.45,1.45,0,0,0-1.46,1.45v27.56h-.44a1.23,1.23,0,0,0-1.24,1.24,1.22,1.22,0,0,0,.83,1.15h2.27v14.45h-1.42v.11h-.44a1.24,1.24,0,0,0,0,2.48h.44v17.32a1.45,1.45,0,0,0,1.46,1.45h87.92a1.45,1.45,0,0,0,1.45-1.45V120.21h.41a1.24,1.24,0,1,0,0-2.48Z" /><polygon class="b" points="1885.17 90.1 1885.17 77.88 1876.75 77.88 1876.75 69.13 1848.34 69.13 1848.34 77.88 1839.92 77.88 1839.92 90.1 1820.43 90.1 1820.43 138.32 1904.98 138.32 1904.98 90.1 1885.17 90.1" /><rect class="h" x="1886.53" y="73.42" width="18.5" height="9.25" /><rect class="h" x="1820.39" y="73.42" width="18.5" height="9.25" /><path class="g" d="M2007.19,117.73h-.41v-.11h-1.45V103.17h2.27a1.22,1.22,0,0,0,.83-1.15,1.23,1.23,0,0,0-1.24-1.24h-.41V73.22a1.45,1.45,0,0,0-1.45-1.45h-25.74V67.36h-36.44v4.41h-25.74a1.45,1.45,0,0,0-1.45,1.45v27.56h-.45a1.23,1.23,0,0,0-1.24,1.24,1.22,1.22,0,0,0,.83,1.15h2.27v14.45H1916v.11h-.45a1.24,1.24,0,0,0,0,2.48h.45v17.32a1.45,1.45,0,0,0,1.45,1.45h87.92a1.45,1.45,0,0,0,1.45-1.45V120.21h.41a1.24,1.24,0,1,0,0-2.48Z" /><polygon class="b" points="1983.81 90.1 1983.81 77.88 1975.39 77.88 1975.39 69.13 1946.98 69.13 1946.98 77.88 1938.56 77.88 1938.56 90.1 1919.08 90.1 1919.08 138.32 2003.63 138.32 2003.63 90.1 1983.81 90.1" /><rect class="h" x="1985.17" y="73.42" width="18.5" height="9.25" /><rect class="h" x="1919.04" y="73.42" width="18.5" height="9.25" /><path class="g" d="M2105.84,117.73h-.42v-.11H2104V103.17h2.27a1.22,1.22,0,0,0,.83-1.15,1.24,1.24,0,0,0-1.24-1.24h-.42V73.22a1.45,1.45,0,0,0-1.45-1.45h-25.74V67.36h-36.44v4.41h-25.74a1.45,1.45,0,0,0-1.45,1.45v27.56h-.45a1.24,1.24,0,0,0-1.24,1.24,1.22,1.22,0,0,0,.83,1.15H2016v14.45h-1.41v.11h-.45a1.24,1.24,0,0,0,0,2.48h.45v17.32a1.45,1.45,0,0,0,1.45,1.45H2104a1.45,1.45,0,0,0,1.45-1.45V120.21h.42a1.24,1.24,0,0,0,0-2.48Z" /><polygon class="b" points="2082.45 90.1 2082.45 77.88 2074.03 77.88 2074.03 69.13 2045.63 69.13 2045.63 77.88 2037.2 77.88 2037.2 90.1 2017.72 90.1 2017.72 138.32 2102.27 138.32 2102.27 90.1 2082.45 90.1" /><rect class="h" x="2083.81" y="73.42" width="18.5" height="9.25" /><rect class="h" x="2017.68" y="73.42" width="18.5" height="9.25" /><path class="g" d="M2204.48,117.73h-.41v-.11h-1.45V103.17h2.27a1.22,1.22,0,0,0,.83-1.15,1.24,1.24,0,0,0-1.24-1.24h-.41V73.22a1.46,1.46,0,0,0-1.46-1.45h-25.74V67.36h-36.44v4.41h-25.74a1.45,1.45,0,0,0-1.45,1.45v27.56h-.45a1.24,1.24,0,0,0-1.24,1.24,1.22,1.22,0,0,0,.83,1.15h2.27v14.45h-1.41v.11h-.45a1.24,1.24,0,1,0,0,2.48h.45v17.32a1.45,1.45,0,0,0,1.45,1.45h87.92a1.46,1.46,0,0,0,1.46-1.45V120.21h.41a1.24,1.24,0,0,0,0-2.48Z" /><polygon class="b" points="2181.09 90.1 2181.09 77.88 2172.67 77.88 2172.67 69.13 2144.27 69.13 2144.27 77.88 2135.85 77.88 2135.85 90.1 2116.36 90.1 2116.36 138.32 2200.91 138.32 2200.91 90.1 2181.09 90.1" /><rect class="h" x="2182.46" y="73.42" width="18.5" height="9.25" /><rect class="h" x="2116.32" y="73.42" width="18.5" height="9.25" /><path class="g" d="M1711.27,191h-.41v.11h-1.45v14.45h2.27a1.22,1.22,0,0,1,.83,1.15,1.24,1.24,0,0,1-1.24,1.24h-.41V235.5a1.46,1.46,0,0,1-1.46,1.45h-25.74v4.4h-36.44V237h-25.74a1.45,1.45,0,0,1-1.45-1.45V207.94h-.45a1.24,1.24,0,0,1-1.24-1.24,1.22,1.22,0,0,1,.83-1.15h2.27V191.1H1620V191h-.45a1.24,1.24,0,0,1,0-2.48h.45V171.19a1.45,1.45,0,0,1,1.45-1.45h87.92a1.46,1.46,0,0,1,1.46,1.45v17.32h.41a1.24,1.24,0,0,1,0,2.48Z" /><polygon class="b" points="1687.88 218.62 1687.88 230.84 1679.46 230.84 1679.46 239.59 1651.06 239.59 1651.06 230.84 1642.64 230.84 1642.64 218.62 1623.15 218.62 1623.15 170.4 1707.7 170.4 1707.7 218.62 1687.88 218.62" /><rect class="h" x="1689.25" y="226.05" width="18.5" height="9.25" /><rect class="h" x="1623.11" y="226.05" width="18.5" height="9.25" /><path class="g" d="M1809.91,191h-.41v.11h-1.45v14.45h2.27a1.22,1.22,0,0,1,.83,1.15,1.24,1.24,0,0,1-1.24,1.24h-.41V235.5A1.45,1.45,0,0,1,1808,237h-25.73v4.4h-36.45V237h-25.73a1.45,1.45,0,0,1-1.46-1.45V207.94h-.45a1.23,1.23,0,0,1-.4-2.39h2.27V191.1h-1.42V191h-.45a1.24,1.24,0,0,1,0-2.48h.45V171.19a1.45,1.45,0,0,1,1.46-1.45H1808a1.45,1.45,0,0,1,1.46,1.45v17.32h.41a1.24,1.24,0,1,1,0,2.48Z" /><polygon class="b" points="1786.53 218.62 1786.53 230.84 1778.1 230.84 1778.1 239.59 1749.7 239.59 1749.7 230.84 1741.28 230.84 1741.28 218.62 1721.79 218.62 1721.79 170.4 1806.34 170.4 1806.34 218.62 1786.53 218.62" /><rect class="h" x="1787.89" y="226.05" width="18.5" height="9.25" /><rect class="h" x="1721.75" y="226.05" width="18.5" height="9.25" /><path class="g" d="M1908.55,191h-.41v.11h-1.45v14.45H1909a1.22,1.22,0,0,1,.83,1.15,1.23,1.23,0,0,1-1.24,1.24h-.41V235.5a1.45,1.45,0,0,1-1.45,1.45H1881v4.4h-36.44V237h-25.74a1.45,1.45,0,0,1-1.46-1.45V207.94h-.44a1.23,1.23,0,0,1-1.24-1.24,1.22,1.22,0,0,1,.83-1.15h2.27V191.1h-1.42V191h-.44a1.24,1.24,0,0,1,0-2.48h.44V171.19a1.45,1.45,0,0,1,1.46-1.45h87.92a1.45,1.45,0,0,1,1.45,1.45v17.32h.41a1.24,1.24,0,1,1,0,2.48Z" /><polygon class="b" points="1885.17 218.62 1885.17 230.84 1876.75 230.84 1876.75 239.59 1848.34 239.59 1848.34 230.84 1839.92 230.84 1839.92 218.62 1820.43 218.62 1820.43 170.4 1904.98 170.4 1904.98 218.62 1885.17 218.62" /><rect class="h" x="1886.53" y="226.05" width="18.5" height="9.25" /><rect class="h" x="1820.39" y="226.05" width="18.5" height="9.25" /><path class="g" d="M2007.19,191h-.41v.11h-1.45v14.45h2.27a1.22,1.22,0,0,1,.83,1.15,1.23,1.23,0,0,1-1.24,1.24h-.41V235.5a1.45,1.45,0,0,1-1.45,1.45h-25.74v4.4h-36.44V237h-25.74a1.45,1.45,0,0,1-1.45-1.45V207.94h-.45a1.23,1.23,0,0,1-1.24-1.24,1.22,1.22,0,0,1,.83-1.15h2.27V191.1H1916V191h-.45a1.24,1.24,0,1,1,0-2.48h.45V171.19a1.45,1.45,0,0,1,1.45-1.45h87.92a1.45,1.45,0,0,1,1.45,1.45v17.32h.41a1.24,1.24,0,0,1,0,2.48Z" /><polygon class="b" points="1983.81 218.62 1983.81 230.84 1975.39 230.84 1975.39 239.59 1946.98 239.59 1946.98 230.84 1938.56 230.84 1938.56 218.62 1919.08 218.62 1919.08 170.4 2003.63 170.4 2003.63 218.62 1983.81 218.62" /><rect class="h" x="1985.17" y="226.05" width="18.5" height="9.25" /><rect class="h" x="1919.04" y="226.05" width="18.5" height="9.25" /><path class="g" d="M2105.84,191h-.42v.11H2104v14.45h2.27a1.22,1.22,0,0,1,.83,1.15,1.24,1.24,0,0,1-1.24,1.24h-.42V235.5A1.45,1.45,0,0,1,2104,237h-25.74v4.4h-36.44V237h-25.74a1.45,1.45,0,0,1-1.45-1.45V207.94h-.45a1.24,1.24,0,0,1-1.24-1.24,1.22,1.22,0,0,1,.83-1.15H2016V191.1h-1.41V191h-.45a1.24,1.24,0,0,1,0-2.48h.45V171.19a1.45,1.45,0,0,1,1.45-1.45H2104a1.45,1.45,0,0,1,1.45,1.45v17.32h.42a1.24,1.24,0,0,1,0,2.48Z" /><polygon class="b" points="2082.45 218.62 2082.45 230.84 2074.03 230.84 2074.03 239.59 2045.63 239.59 2045.63 230.84 2037.2 230.84 2037.2 218.62 2017.72 218.62 2017.72 170.4 2102.27 170.4 2102.27 218.62 2082.45 218.62" /><rect class="h" x="2083.81" y="226.05" width="18.5" height="9.25" /><rect class="h" x="2017.68" y="226.05" width="18.5" height="9.25" /><path class="g" d="M2204.48,191h-.41v.11h-1.45v14.45h2.27a1.22,1.22,0,0,1,.83,1.15,1.24,1.24,0,0,1-1.24,1.24h-.41V235.5a1.46,1.46,0,0,1-1.46,1.45h-25.74v4.4h-36.44V237h-25.74a1.45,1.45,0,0,1-1.45-1.45V207.94h-.45a1.24,1.24,0,0,1-1.24-1.24,1.22,1.22,0,0,1,.83-1.15h2.27V191.1h-1.41V191h-.45a1.24,1.24,0,1,1,0-2.48h.45V171.19a1.45,1.45,0,0,1,1.45-1.45h87.92a1.46,1.46,0,0,1,1.46,1.45v17.32h.41a1.24,1.24,0,0,1,0,2.48Z" /><polygon class="b" points="2181.09 218.62 2181.09 230.84 2172.67 230.84 2172.67 239.59 2144.27 239.59 2144.27 230.84 2135.85 230.84 2135.85 218.62 2116.36 218.62 2116.36 170.4 2200.91 170.4 2200.91 218.62 2181.09 218.62" /><rect class="h" x="2182.46" y="226.05" width="18.5" height="9.25" /><rect class="h" x="2116.32" y="226.05" width="18.5" height="9.25" /><rect class="i" x="2864.58" y="64.29" width="207.63" height="180.55" /><rect class="j" x="2866.34" y="66.06" width="204.11" height="177.03" rx="4.92" /><polygon class="b" points="2966.97 68.04 2868.1 68.04 2868.1 131.45 2896.51 131.45 2896.51 138.5 2938.56 138.5 2938.56 131.45 2966.97 131.45 2966.97 68.04" /><path class="f" d="M2900.14,126.72h34.79a0,0,0,0,1,0,0v1.86a3.65,3.65,0,0,1-3.65,3.65h-27.5a3.65,3.65,0,0,1-3.65-3.65v-1.86A0,0,0,0,1,2900.14,126.72Z" /><polygon class="b" points="2868.1 241.54 2966.97 241.54 2966.97 178.13 2938.56 178.13 2938.56 171.08 2896.51 171.08 2896.51 178.13 2868.1 178.13 2868.1 241.54" /><path class="f" d="M2900.14,177.36h34.79a0,0,0,0,1,0,0v1.86a3.65,3.65,0,0,1-3.65,3.65h-27.5a3.65,3.65,0,0,1-3.65-3.65v-1.86A0,0,0,0,1,2900.14,177.36Z" transform="translate(5835.07 360.22) rotate(180)" /><polygon class="k" points="2911.34 162.22 2898.79 162.22 2905.07 146.86 2905.07 146.86 2911.34 162.22" /><polygon class="k" points="2923.73 146.86 2936.28 146.86 2930 162.22 2930 162.22 2923.73 146.86" /><polygon class="b" points="2969.83 68.04 3068.69 68.04 3068.69 131.45 3040.29 131.45 3040.29 138.5 2998.23 138.5 2998.23 131.45 2969.83 131.45 2969.83 68.04" /><path class="f" d="M3005.51,126.72H3033a3.65,3.65,0,0,1,3.65,3.65v1.86a0,0,0,0,1,0,0h-34.79a0,0,0,0,1,0,0v-1.86A3.65,3.65,0,0,1,3005.51,126.72Z" transform="translate(6038.52 258.94) rotate(180)" /><polygon class="b" points="3068.69 241.54 2969.83 241.54 2969.83 178.13 2998.23 178.13 2998.23 171.08 3040.29 171.08 3040.29 178.13 3068.69 178.13 3068.69 241.54" /><path class="f" d="M3005.51,177.36H3033a3.65,3.65,0,0,1,3.65,3.65v1.86a0,0,0,0,1,0,0h-34.79a0,0,0,0,1,0,0V181a3.65,3.65,0,0,1,3.65-3.65Z" /><polygon class="k" points="3025.45 146.86 3038 146.86 3031.73 162.22 3031.73 162.22 3025.45 146.86" /><polygon class="k" points="3013.07 162.22 3000.52 162.22 3006.79 146.86 3006.79 146.86 3013.07 162.22" /><path class="e" d="M1885.53,29.26a4.79,4.79,0,0,1,3.13.89,3.17,3.17,0,0,1,1.08,2.6,3.11,3.11,0,0,1-1.07,2.54,4.93,4.93,0,0,1-3.2.88h-1.91V40H1882V29.26Zm-2,1.24v4.44h1.94a3,3,0,0,0,2-.57,2.07,2.07,0,0,0,.61-1.62,2.11,2.11,0,0,0-.66-1.66,2.81,2.81,0,0,0-1.94-.59Z" /><path class="e" d="M1890.71,36.13a5,5,0,0,1,.31-1.82,3.55,3.55,0,0,1,.83-1.29,3.2,3.2,0,0,1,1.22-.75,4.26,4.26,0,0,1,1.48-.25,4.37,4.37,0,0,1,1.5.25,3.2,3.2,0,0,1,1.22.75,3.64,3.64,0,0,1,.81,1.29,5,5,0,0,1,.3,1.82,5.17,5.17,0,0,1-.29,1.79,3.69,3.69,0,0,1-.81,1.28,3.45,3.45,0,0,1-1.22.78,4.54,4.54,0,0,1-3,0,3.43,3.43,0,0,1-1.22-.79,3.62,3.62,0,0,1-.8-1.28A4.84,4.84,0,0,1,1890.71,36.13Zm1.5,0a4.1,4.1,0,0,0,.18,1.27,2.74,2.74,0,0,0,.49.93,2.17,2.17,0,0,0,.75.56,2.42,2.42,0,0,0,.94.18,2.11,2.11,0,0,0,1.67-.74,3.28,3.28,0,0,0,.64-2.2,4.09,4.09,0,0,0-.17-1.28,2.75,2.75,0,0,0-.5-.93,1.89,1.89,0,0,0-.74-.55,2.32,2.32,0,0,0-.92-.18,2.39,2.39,0,0,0-.92.18,2.17,2.17,0,0,0-.75.56,2.78,2.78,0,0,0-.49.92A4.12,4.12,0,0,0,1892.21,36.13Z" /><path class="e" d="M1906.37,35.17h-4.75v3.56h5.18V40h-6.7V29.26h6.7v1.28h-5.18v3.38h4.75Z" /><path class="e" d="M1922.1,40H1921l-.21-1.28a3.31,3.31,0,0,1-1.36,1.11,4.52,4.52,0,0,1-1.94.4,4.66,4.66,0,0,1-1.87-.37,4.07,4.07,0,0,1-1.52-1.08,5.14,5.14,0,0,1-1-1.76,7.39,7.39,0,0,1-.37-2.41,6.88,6.88,0,0,1,.39-2.43,5,5,0,0,1,1.06-1.75,4.14,4.14,0,0,1,1.56-1.05,5.36,5.36,0,0,1,3.61-.09,4.5,4.5,0,0,1,1.36.71,3.85,3.85,0,0,1,1,1.07,3.3,3.3,0,0,1,.46,1.33h-1.5a2.51,2.51,0,0,0-1-1.55,3.6,3.6,0,0,0-3.3-.29,2.85,2.85,0,0,0-1.07.79,3.74,3.74,0,0,0-.72,1.36,6.32,6.32,0,0,0-.26,1.9,5.82,5.82,0,0,0,.28,1.91,4.15,4.15,0,0,0,.76,1.36,3.17,3.17,0,0,0,1.08.82,3.12,3.12,0,0,0,1.27.27,3.62,3.62,0,0,0,1.19-.19,3,3,0,0,0,1-.55,2.87,2.87,0,0,0,.66-.85,2.5,2.5,0,0,0,.25-1.1v-.83h-3.15V34.23h4.52Z" /><path class="e" d="M1924.1,40V29.26h1.44v4.06a2.93,2.93,0,0,1,1-.93,3.05,3.05,0,0,1,1.56-.37,3.52,3.52,0,0,1,1.39.27,3,3,0,0,1,1.09.78,3.61,3.61,0,0,1,.69,1.27,5.43,5.43,0,0,1,.25,1.73,5.68,5.68,0,0,1-.26,1.79,3.66,3.66,0,0,1-.74,1.3,3,3,0,0,1-1.12.8,3.45,3.45,0,0,1-1.41.28,2.91,2.91,0,0,1-2.52-1.26l-.23,1Zm6-4a3.83,3.83,0,0,0-.17-1.24,2.28,2.28,0,0,0-.48-.87,1.79,1.79,0,0,0-.71-.52,2.38,2.38,0,0,0-.89-.16,2.34,2.34,0,0,0-.91.18,2.12,2.12,0,0,0-.74.52,2.33,2.33,0,0,0-.51.87,3.81,3.81,0,0,0-.19,1.22,3.36,3.36,0,0,0,.65,2.2,2.1,2.1,0,0,0,1.7.77,2.06,2.06,0,0,0,1.63-.71A3.37,3.37,0,0,0,1930.06,36Z" /><path class="e" d="M1939.55,35.17h-4.75v3.56H1940V40h-6.7V29.26h6.7v1.28h-5.18v3.38h4.75Z" /><path class="e" d="M2503.8,29.26a4.77,4.77,0,0,1,3.13.89,3.15,3.15,0,0,1,1.09,2.6,3.14,3.14,0,0,1-1.07,2.54,4.93,4.93,0,0,1-3.2.88h-1.92V40h-1.52V29.26Zm-2,1.24v4.44h1.94a3,3,0,0,0,2.05-.57,2.07,2.07,0,0,0,.61-1.62,2.11,2.11,0,0,0-.66-1.66,2.8,2.8,0,0,0-1.94-.59Z" /><path class="e" d="M2509,36.13a4.82,4.82,0,0,1,.31-1.82,3.55,3.55,0,0,1,.83-1.29,3.16,3.16,0,0,1,1.21-.75,4.57,4.57,0,0,1,3,0,3.13,3.13,0,0,1,1.22.75,3.51,3.51,0,0,1,.81,1.29,5,5,0,0,1,.3,1.82,4.94,4.94,0,0,1-.29,1.79,3.43,3.43,0,0,1-2,2.06,4.57,4.57,0,0,1-3,0,3.39,3.39,0,0,1-1.21-.79,3.5,3.5,0,0,1-.81-1.28A5.07,5.07,0,0,1,2509,36.13Zm1.49,0a4.1,4.1,0,0,0,.18,1.27,2.75,2.75,0,0,0,.5.93,2,2,0,0,0,.74.56,2.42,2.42,0,0,0,.94.18,2.13,2.13,0,0,0,1.68-.74,3.28,3.28,0,0,0,.64-2.2,4.08,4.08,0,0,0-.18-1.28,2.74,2.74,0,0,0-.49-.93,2,2,0,0,0-.74-.55,2.36,2.36,0,0,0-.92-.18,2.41,2.41,0,0,0-.93.18,2,2,0,0,0-.74.56,2.8,2.8,0,0,0-.5.92A4.12,4.12,0,0,0,2510.48,36.13Z" /><path class="e" d="M2524.64,35.17h-4.75v3.56h5.19V40h-6.71V29.26h6.71v1.28h-5.19v3.38h4.75Z" /><path class="e" d="M2540.38,40h-1.13l-.2-1.28a3.34,3.34,0,0,1-1.37,1.11,4.49,4.49,0,0,1-1.94.4,4.69,4.69,0,0,1-1.87-.37,4.15,4.15,0,0,1-1.52-1.08,5.31,5.31,0,0,1-1-1.76,7.4,7.4,0,0,1-.36-2.41,6.88,6.88,0,0,1,.39-2.43,5.14,5.14,0,0,1,1.05-1.75,4.14,4.14,0,0,1,1.56-1.05,5.39,5.39,0,0,1,3.62-.09A4.5,4.5,0,0,1,2539,30a4.2,4.2,0,0,1,.95,1.07,3.44,3.44,0,0,1,.45,1.33h-1.49a2.48,2.48,0,0,0-1-1.55,3.3,3.3,0,0,0-2-.56,3.25,3.25,0,0,0-1.32.27,2.8,2.8,0,0,0-1.08.79,4.07,4.07,0,0,0-.72,1.36,6.32,6.32,0,0,0-.26,1.9,5.81,5.81,0,0,0,.29,1.91,4.32,4.32,0,0,0,.75,1.36,3.26,3.26,0,0,0,1.08.82,3.15,3.15,0,0,0,1.27.27,3.58,3.58,0,0,0,1.19-.19,2.93,2.93,0,0,0,1-.55,2.71,2.71,0,0,0,.66-.85,2.37,2.37,0,0,0,.25-1.1v-.83h-3.15V34.23h4.53Z" /><path class="e" d="M2542.38,40V29.26h1.43v4.06a3,3,0,0,1,1-.93,3.05,3.05,0,0,1,1.56-.37,3.57,3.57,0,0,1,1.4.27,3,3,0,0,1,1.08.78,3.79,3.79,0,0,1,.7,1.27,5.74,5.74,0,0,1,.24,1.73,5.4,5.4,0,0,1-.26,1.79,3.64,3.64,0,0,1-.73,1.3,3.07,3.07,0,0,1-1.12.8,3.48,3.48,0,0,1-1.41.28,3.08,3.08,0,0,1-1.52-.35,3.16,3.16,0,0,1-1-.91l-.22,1Zm6-4a4.13,4.13,0,0,0-.17-1.24,2.59,2.59,0,0,0-.48-.87,1.82,1.82,0,0,0-.72-.52,2.35,2.35,0,0,0-.89-.16,2.25,2.25,0,0,0-1.65.7,2.63,2.63,0,0,0-.51.87,3.82,3.82,0,0,0-.18,1.22,3.35,3.35,0,0,0,.64,2.2,2.12,2.12,0,0,0,1.7.77,2.08,2.08,0,0,0,1.64-.71A3.43,3.43,0,0,0,2548.34,36Z" /><path class="e" d="M2557.82,35.17h-4.75v3.56h5.19V40h-6.71V29.26h6.71v1.28h-5.19v3.38h4.75Z" /><path class="e" d="M2895.73,37.1a1.69,1.69,0,0,0-.12-.66,1.31,1.31,0,0,0-.49-.55,5,5,0,0,0-1-.5c-.44-.16-1-.35-1.76-.54a9.18,9.18,0,0,1-1.56-.56,3.62,3.62,0,0,1-1-.67,2,2,0,0,1-.54-.82,2.87,2.87,0,0,1-.16-1,2.46,2.46,0,0,1,1-2,3.69,3.69,0,0,1,1.21-.59,5.9,5.9,0,0,1,1.65-.21,5.84,5.84,0,0,1,1.6.21,4.44,4.44,0,0,1,1.29.57,3.28,3.28,0,0,1,.91.91,3.13,3.13,0,0,1,.45,1.23h-1.56a1.71,1.71,0,0,0-.8-1.23,3.53,3.53,0,0,0-1.89-.43,4.67,4.67,0,0,0-1.06.11,2.4,2.4,0,0,0-.72.31,1.22,1.22,0,0,0-.42.46,1.25,1.25,0,0,0-.13.57,1.64,1.64,0,0,0,.09.56,1.13,1.13,0,0,0,.4.46,3.5,3.5,0,0,0,.85.43,12,12,0,0,0,1.48.47,12.19,12.19,0,0,1,1.86.66,4.35,4.35,0,0,1,1.18.73,2.26,2.26,0,0,1,.62.88,3.15,3.15,0,0,1,.18,1.11,2.64,2.64,0,0,1-.28,1.2,2.94,2.94,0,0,1-.81,1,4.15,4.15,0,0,1-1.32.71,5.81,5.81,0,0,1-1.79.26,5.54,5.54,0,0,1-1.61-.23,4.52,4.52,0,0,1-1.32-.65,3.55,3.55,0,0,1-.95-1,3.42,3.42,0,0,1-.48-1.34h1.57a2.17,2.17,0,0,0,.84,1.45A3.15,3.15,0,0,0,2893,39a4.18,4.18,0,0,0,1.18-.15,2.49,2.49,0,0,0,.85-.41,1.74,1.74,0,0,0,.5-.59A1.55,1.55,0,0,0,2895.73,37.1Z" /><path class="e" d="M2905.11,35.47h-4.54V40H2899V29.26h6.59v1.28h-5.06V34.2h4.54Z" /><path class="e" d="M2910.92,29.26a4.79,4.79,0,0,1,3.13.89,3.17,3.17,0,0,1,1.08,2.6,3.11,3.11,0,0,1-1.07,2.54,4.93,4.93,0,0,1-3.2.88H2909V40h-1.53V29.26Zm-2,1.24v4.44h1.94a3,3,0,0,0,2.05-.57,2.42,2.42,0,0,0-.06-3.28,2.79,2.79,0,0,0-1.93-.59Z" /><path class="e" d="M2919.54,35.85h-2.47V34.58h2.47V32.07h1.36v2.51h2.45v1.27h-2.45v2.49h-1.36Z" /><path class="e" d="M2930.07,32.29a3.44,3.44,0,0,1,.38-1.16,3.35,3.35,0,0,1,.77-.95,3.75,3.75,0,0,1,1.11-.62,4.47,4.47,0,0,1,2.77,0,3.36,3.36,0,0,1,1.07.59,2.66,2.66,0,0,1,.72.94,2.89,2.89,0,0,1,.26,1.24,3.49,3.49,0,0,1-.13,1,3.73,3.73,0,0,1-.41.93,8.2,8.2,0,0,1-.77,1c-.32.35-.71.75-1.18,1.2l-2.39,2.27h4.84V40h-6.79V38.7l3.41-3.27c.36-.34.66-.65.9-.92a7,7,0,0,0,.61-.77,2.75,2.75,0,0,0,.34-.69,2.48,2.48,0,0,0,.11-.73,1.66,1.66,0,0,0-.52-1.29,2,2,0,0,0-1.45-.49,2.3,2.3,0,0,0-1.48.47,1.82,1.82,0,0,0-.66,1.28Z" /><path class="e" d="M2940.42,37.47a2,2,0,0,0,.71,1.1,2.24,2.24,0,0,0,1.5.46,2.44,2.44,0,0,0,.9-.17,2.08,2.08,0,0,0,.73-.47,2.17,2.17,0,0,0,.47-.78,2.89,2.89,0,0,0,.18-1,2.4,2.4,0,0,0-.62-1.77,2.23,2.23,0,0,0-1.63-.6,2.9,2.9,0,0,0-1.09.22,2.61,2.61,0,0,0-1,.73h-1.27l.23-5.58H2946v1.21h-5.12l-.12,3.06a3.55,3.55,0,0,1,2.28-.76,3.74,3.74,0,0,1,1.3.22,3,3,0,0,1,1.08.67,3.32,3.32,0,0,1,.74,1.12,4.07,4.07,0,0,1,.27,1.54,3.81,3.81,0,0,1-.25,1.39,3.37,3.37,0,0,1-.73,1.15,3.54,3.54,0,0,1-1.18.79,4.23,4.23,0,0,1-1.6.29,4.47,4.47,0,0,1-1.46-.23,3.9,3.9,0,0,1-1.12-.62,3.49,3.49,0,0,1-.76-.88,3.11,3.11,0,0,1-.38-1Z" /><path class="e" d="M2997.69,37.1a1.69,1.69,0,0,0-.12-.66,1.25,1.25,0,0,0-.49-.55,5,5,0,0,0-1-.5c-.44-.16-1-.35-1.75-.54a9.33,9.33,0,0,1-1.57-.56,3.62,3.62,0,0,1-1-.67,2.13,2.13,0,0,1-.54-.82,3.13,3.13,0,0,1-.16-1,2.44,2.44,0,0,1,1-2,3.6,3.6,0,0,1,1.21-.59,6.35,6.35,0,0,1,3.24,0,4.32,4.32,0,0,1,1.29.57,3.16,3.16,0,0,1,.91.91,3,3,0,0,1,.46,1.23h-1.57a1.71,1.71,0,0,0-.8-1.23,3.48,3.48,0,0,0-1.89-.43,4.51,4.51,0,0,0-1.05.11,2.36,2.36,0,0,0-.73.31,1.22,1.22,0,0,0-.42.46,1.25,1.25,0,0,0-.13.57,1.43,1.43,0,0,0,.1.56,1,1,0,0,0,.39.46,3.5,3.5,0,0,0,.85.43,12,12,0,0,0,1.48.47,12.19,12.19,0,0,1,1.86.66,4.35,4.35,0,0,1,1.18.73,2.16,2.16,0,0,1,.62.88,3.15,3.15,0,0,1,.18,1.11,2.64,2.64,0,0,1-.28,1.2,2.94,2.94,0,0,1-.81,1,4.15,4.15,0,0,1-1.32.71,5.77,5.77,0,0,1-1.79.26,5.59,5.59,0,0,1-1.61-.23,4.52,4.52,0,0,1-1.32-.65,3.55,3.55,0,0,1-.95-1,3.42,3.42,0,0,1-.48-1.34h1.57a2.17,2.17,0,0,0,.84,1.45A3.19,3.19,0,0,0,2995,39a4.13,4.13,0,0,0,1.18-.15,2.49,2.49,0,0,0,.85-.41,1.89,1.89,0,0,0,.51-.59A1.66,1.66,0,0,0,2997.69,37.1Z" /><path class="e" d="M3007.07,35.47h-4.54V40H3001V29.26h6.59v1.28h-5.06V34.2h4.54Z" /><path class="e" d="M3012.88,29.26a4.77,4.77,0,0,1,3.13.89,3.17,3.17,0,0,1,1.08,2.6,3.13,3.13,0,0,1-1.06,2.54,5,5,0,0,1-3.21.88h-1.91V40h-1.53V29.26Zm-2,1.24v4.44h1.94a3,3,0,0,0,2.05-.57,2.07,2.07,0,0,0,.61-1.62,2.11,2.11,0,0,0-.66-1.66,2.81,2.81,0,0,0-1.94-.59Z" /><path class="e" d="M3021.5,35.85H3019V34.58h2.46V32.07h1.36v2.51h2.45v1.27h-2.45v2.49h-1.36Z" /><path class="e" d="M3032,32.29a3.44,3.44,0,0,1,.38-1.16,3.35,3.35,0,0,1,.77-.95,3.68,3.68,0,0,1,1.12-.62,4.44,4.44,0,0,1,2.76,0,3.36,3.36,0,0,1,1.07.59,2.66,2.66,0,0,1,.72.94,2.75,2.75,0,0,1,.26,1.24,3.89,3.89,0,0,1-.12,1,4.19,4.19,0,0,1-.42.93,8.2,8.2,0,0,1-.77,1c-.32.35-.71.75-1.18,1.2l-2.39,2.27h4.84V40h-6.78V38.7l3.4-3.27c.36-.34.66-.65.91-.92a8.22,8.22,0,0,0,.6-.77,2.75,2.75,0,0,0,.34-.69,2.48,2.48,0,0,0,.11-.73,1.66,1.66,0,0,0-.52-1.29,2,2,0,0,0-1.45-.49,2.25,2.25,0,0,0-1.47.47,1.8,1.8,0,0,0-.67,1.28Z" /><path class="e" d="M3043.6,40H3042l4.37-9.17h-5.12V29.56h6.65v1.28Z" /><path class="e" d="M2895.74,271.21a1.73,1.73,0,0,0-.12-.66,1.3,1.3,0,0,0-.49-.55,5.21,5.21,0,0,0-1-.5c-.44-.16-1-.34-1.75-.54a9.39,9.39,0,0,1-1.57-.55,3.79,3.79,0,0,1-1-.68,2.17,2.17,0,0,1-.54-.82,3.13,3.13,0,0,1-.15-1,2.39,2.39,0,0,1,.25-1.09,2.51,2.51,0,0,1,.75-.88,3.68,3.68,0,0,1,1.21-.58,6.5,6.5,0,0,1,3.24,0,4.47,4.47,0,0,1,1.29.57,3.07,3.07,0,0,1,.91.92,2.9,2.9,0,0,1,.46,1.22h-1.57a1.69,1.69,0,0,0-.8-1.22,3.48,3.48,0,0,0-1.89-.44,4.51,4.51,0,0,0-1,.11,2.36,2.36,0,0,0-.73.31,1.19,1.19,0,0,0-.41.46,1.26,1.26,0,0,0-.14.57,1.4,1.4,0,0,0,.1.56,1,1,0,0,0,.39.47,4.54,4.54,0,0,0,.86.43c.36.14.86.3,1.47.47a12.28,12.28,0,0,1,1.86.65,4.44,4.44,0,0,1,1.18.73,2.16,2.16,0,0,1,.62.88,3.25,3.25,0,0,1,.18,1.12,2.84,2.84,0,0,1-.27,1.2,3.16,3.16,0,0,1-.82,1,4,4,0,0,1-1.32.71,5.75,5.75,0,0,1-1.78.26,5.61,5.61,0,0,1-1.62-.23,4.28,4.28,0,0,1-1.32-.65,3.8,3.8,0,0,1-1-1,3.41,3.41,0,0,1-.48-1.35h1.57a2.12,2.12,0,0,0,.85,1.45,3.08,3.08,0,0,0,1.92.54,4.23,4.23,0,0,0,1.18-.15,2.63,2.63,0,0,0,.84-.41,2,2,0,0,0,.51-.6A1.66,1.66,0,0,0,2895.74,271.21Z" /><path class="e" d="M2905.12,269.59h-4.54v4.54h-1.52V263.37h6.59v1.29h-5.07v3.66h4.54Z" /><path class="e" d="M2910.93,263.37a4.82,4.82,0,0,1,3.13.89,3.15,3.15,0,0,1,1.09,2.61,3.12,3.12,0,0,1-1.07,2.53,4.94,4.94,0,0,1-3.21.89H2909v3.84h-1.52V263.37Zm-2,1.24v4.44h1.94a3,3,0,0,0,2-.56,2.08,2.08,0,0,0,.61-1.62,2.12,2.12,0,0,0-.66-1.67,2.85,2.85,0,0,0-1.94-.59Z" /><path class="e" d="M2919.55,270h-2.46v-1.27h2.46v-2.51h1.36v2.51h2.45V270h-2.45v2.5h-1.36Z" /><path class="e" d="M2930.08,266.4a3.39,3.39,0,0,1,.39-1.16,3.15,3.15,0,0,1,.77-.94,3.35,3.35,0,0,1,1.11-.63,4.54,4.54,0,0,1,2.76,0,3.06,3.06,0,0,1,1.08.59,2.62,2.62,0,0,1,.71.93,2.79,2.79,0,0,1,.27,1.24,3.83,3.83,0,0,1-.13,1,3.48,3.48,0,0,1-.42.93,6.74,6.74,0,0,1-.77,1c-.32.35-.71.75-1.18,1.2l-2.39,2.27h4.84v1.32h-6.78v-1.32l3.41-3.27c.35-.34.65-.64.9-.92a7.1,7.1,0,0,0,.6-.77,2.81,2.81,0,0,0,.35-.69,2.48,2.48,0,0,0,.1-.73,1.72,1.72,0,0,0-.51-1.29,2.07,2.07,0,0,0-1.46-.48,2.25,2.25,0,0,0-1.47.46,1.86,1.86,0,0,0-.67,1.28Z" /><path class="e" d="M2943.11,267.29a3.32,3.32,0,0,1,1.37.26,2.86,2.86,0,0,1,1,.72,3.05,3.05,0,0,1,.64,1.11,4.36,4.36,0,0,1,.23,1.42,3.7,3.7,0,0,1-.31,1.57,3.37,3.37,0,0,1-.8,1.11,3.42,3.42,0,0,1-1.12.66,4,4,0,0,1-1.27.21,3.19,3.19,0,0,1-2.75-1.28,6.45,6.45,0,0,1-.92-3.75,10.66,10.66,0,0,1,.32-2.9,4.74,4.74,0,0,1,.86-1.79,2.93,2.93,0,0,1,1.22-.92,3.83,3.83,0,0,1,1.41-.26,3.43,3.43,0,0,1,2,.59,2.67,2.67,0,0,1,1.11,1.62h-1.58a1.35,1.35,0,0,0-.54-.76,1.79,1.79,0,0,0-1.05-.29,1.93,1.93,0,0,0-.85.2,1.86,1.86,0,0,0-.72.66,4.46,4.46,0,0,0-.53,1.25,9.42,9.42,0,0,0-.27,1.93,2.86,2.86,0,0,1,.54-.64,2.82,2.82,0,0,1,.62-.42,3.41,3.41,0,0,1,.68-.23A2.94,2.94,0,0,1,2943.11,267.29Zm-2.34,3.46a2.48,2.48,0,0,0,.6,1.79,2,2,0,0,0,1.5.62,2.15,2.15,0,0,0,.8-.15,1.92,1.92,0,0,0,1.09-1.16,2.69,2.69,0,0,0,.16-1,2.55,2.55,0,0,0-.56-1.75,1.87,1.87,0,0,0-1.5-.64,2,2,0,0,0-.92.19,1.93,1.93,0,0,0-.66.5,2.28,2.28,0,0,0-.39.72A3.08,3.08,0,0,0,2940.77,270.75Z" /><path class="e" d="M2997.43,271.21a1.73,1.73,0,0,0-.12-.66,1.3,1.3,0,0,0-.49-.55,5.51,5.51,0,0,0-1-.5c-.44-.16-1-.34-1.75-.54a9.08,9.08,0,0,1-1.57-.55,3.63,3.63,0,0,1-1-.68,2.06,2.06,0,0,1-.54-.82,3.13,3.13,0,0,1-.16-1,2.4,2.4,0,0,1,.26-1.09,2.58,2.58,0,0,1,.74-.88,3.78,3.78,0,0,1,1.21-.58,5.9,5.9,0,0,1,1.65-.21,5.8,5.8,0,0,1,1.6.2,4.72,4.72,0,0,1,1.29.57,3.19,3.19,0,0,1,.91.92,3,3,0,0,1,.46,1.22h-1.57a1.69,1.69,0,0,0-.8-1.22,3.52,3.52,0,0,0-1.89-.44,4.67,4.67,0,0,0-1.06.11,2.4,2.4,0,0,0-.72.31,1.22,1.22,0,0,0-.42.46,1.25,1.25,0,0,0-.13.57,1.6,1.6,0,0,0,.09.56,1.15,1.15,0,0,0,.4.47,4.41,4.41,0,0,0,.85.43c.37.14.86.3,1.48.47a12.28,12.28,0,0,1,1.86.65,4.61,4.61,0,0,1,1.18.73,2.26,2.26,0,0,1,.62.88,3.25,3.25,0,0,1,.18,1.12,2.7,2.7,0,0,1-.28,1.2,3,3,0,0,1-.81,1,4,4,0,0,1-1.32.71,5.81,5.81,0,0,1-1.79.26,5.54,5.54,0,0,1-1.61-.23,4.28,4.28,0,0,1-1.32-.65,3.65,3.65,0,0,1-1-1,3.41,3.41,0,0,1-.48-1.35H2992a2.15,2.15,0,0,0,.84,1.45,3.12,3.12,0,0,0,1.92.54,4.18,4.18,0,0,0,1.18-.15,2.69,2.69,0,0,0,.85-.41,1.86,1.86,0,0,0,.5-.6A1.55,1.55,0,0,0,2997.43,271.21Z" /><path class="e" d="M3006.81,269.59h-4.54v4.54h-1.53V263.37h6.59v1.29h-5.06v3.66h4.54Z" /><path class="e" d="M3012.62,263.37a4.84,4.84,0,0,1,3.13.89,3.18,3.18,0,0,1,1.08,2.61,3.09,3.09,0,0,1-1.07,2.53,4.92,4.92,0,0,1-3.2.89h-1.91v3.84h-1.53V263.37Zm-2,1.24v4.44h1.94a3,3,0,0,0,2-.56,2.12,2.12,0,0,0,.61-1.62,2.09,2.09,0,0,0-.67-1.67,2.82,2.82,0,0,0-1.93-.59Z" /><path class="e" d="M3021.24,270h-2.47v-1.27h2.47v-2.51h1.36v2.51h2.45V270h-2.45v2.5h-1.36Z" /><path class="e" d="M3031.77,266.4a3.6,3.6,0,0,1,.38-1.16,3.31,3.31,0,0,1,.77-.94,3.5,3.5,0,0,1,1.12-.63,4.17,4.17,0,0,1,1.41-.22,4.24,4.24,0,0,1,1.35.21,3,3,0,0,1,1.07.59,2.54,2.54,0,0,1,.72.93,2.78,2.78,0,0,1,.26,1.24,3.34,3.34,0,0,1-.54,1.92,7.5,7.5,0,0,1-.77,1c-.32.35-.71.75-1.18,1.2l-2.39,2.27h4.84v1.32H3032v-1.32l3.4-3.27a12.54,12.54,0,0,0,.9-.92,6.18,6.18,0,0,0,.61-.77,2.75,2.75,0,0,0,.34-.69,2.48,2.48,0,0,0,.11-.73,1.69,1.69,0,0,0-.52-1.29,2,2,0,0,0-1.45-.48,2.25,2.25,0,0,0-1.47.46,1.82,1.82,0,0,0-.67,1.28Z" /><path class="e" d="M3047.74,266.14a2.21,2.21,0,0,1-.15.82,2.62,2.62,0,0,1-.39.67,3.52,3.52,0,0,1-.56.53,4.66,4.66,0,0,1-.62.4,5.46,5.46,0,0,1,.75.4,3.32,3.32,0,0,1,.67.57,3.15,3.15,0,0,1,.5.78,2.43,2.43,0,0,1,.19,1,2.72,2.72,0,0,1-.28,1.24,2.84,2.84,0,0,1-.77,1,3.75,3.75,0,0,1-1.21.63,5,5,0,0,1-1.55.22,5.38,5.38,0,0,1-1.55-.21,3.74,3.74,0,0,1-1.21-.62,2.74,2.74,0,0,1-.77-.93,2.48,2.48,0,0,1-.28-1.18,2.62,2.62,0,0,1,.19-1.05,2.66,2.66,0,0,1,.48-.8,3.17,3.17,0,0,1,.66-.56,3.4,3.4,0,0,1,.72-.35,3.73,3.73,0,0,1-.6-.35,2.28,2.28,0,0,1-.53-.5,2.61,2.61,0,0,1-.38-.68,2.42,2.42,0,0,1-.15-.88,2.62,2.62,0,0,1,.28-1.25,2.55,2.55,0,0,1,.76-.87,3.22,3.22,0,0,1,1.09-.51,5,5,0,0,1,1.29-.16,5.43,5.43,0,0,1,1.29.15,3.5,3.5,0,0,1,1.09.48,2.42,2.42,0,0,1,.76.83A2.49,2.49,0,0,1,3047.74,266.14Zm-1.13,5.16a1.85,1.85,0,0,0-.24-1,1.93,1.93,0,0,0-.62-.62,3.09,3.09,0,0,0-.85-.37c-.31-.08-.6-.16-.89-.22a4.1,4.1,0,0,0-.68.26,3,3,0,0,0-.63.45,2.24,2.24,0,0,0-.48.64,2,2,0,0,0-.18.86,1.79,1.79,0,0,0,.14.73,1.7,1.7,0,0,0,.41.59,2.12,2.12,0,0,0,.71.4,3.13,3.13,0,0,0,1,.15,2.46,2.46,0,0,0,1.72-.52A1.75,1.75,0,0,0,3046.61,271.3Zm-4.31-5.13a1.79,1.79,0,0,0,.24,1,2,2,0,0,0,.59.59,2.32,2.32,0,0,0,.74.31,6.06,6.06,0,0,0,.75.14,3.4,3.4,0,0,0,.58-.28,2.82,2.82,0,0,0,.55-.43,2,2,0,0,0,.4-.57,1.7,1.7,0,0,0,.16-.73,1.44,1.44,0,0,0-.16-.67,1.57,1.57,0,0,0-.43-.5,1.78,1.78,0,0,0-.63-.32,2.43,2.43,0,0,0-.77-.11,3.19,3.19,0,0,0-.77.09,2.1,2.1,0,0,0-.64.3,1.5,1.5,0,0,0-.44.5A1.46,1.46,0,0,0,3042.3,266.17Z" /><path class="e" d="M1633.14,275.61v-8.48l-2.22,1.14v-1.4l2.24-1.16h1.33v9.9Z" /><path class="e" d="M1679.21,268.3a3.39,3.39,0,0,1,.36-1.1,3,3,0,0,1,.73-.89,3.2,3.2,0,0,1,1-.6,4.29,4.29,0,0,1,2.62,0,3.15,3.15,0,0,1,1,.56,2.57,2.57,0,0,1,.68.88,2.79,2.79,0,0,1,.25,1.17,3.45,3.45,0,0,1-.12.94,3.81,3.81,0,0,1-.4.88,6.22,6.22,0,0,1-.73.95c-.3.34-.67.71-1.12,1.14l-2.26,2.15h4.58v1.24h-6.42v-1.24l3.23-3.1c.34-.32.62-.61.85-.87a6.4,6.4,0,0,0,.57-.73,2.27,2.27,0,0,0,.33-.66,2.15,2.15,0,0,0,.1-.68,1.6,1.6,0,0,0-.49-1.23,2,2,0,0,0-1.38-.46,2.16,2.16,0,0,0-1.39.44,1.78,1.78,0,0,0-.63,1.22Z" /><path class="e" d="M1735.67,272.91a2.66,2.66,0,0,1-1,2.09,3.11,3.11,0,0,1-1.11.6,4.64,4.64,0,0,1-1.44.21,3.87,3.87,0,0,1-2.48-.73,2.88,2.88,0,0,1-1.08-1.93H1730a1.89,1.89,0,0,0,.68,1.14,2.27,2.27,0,0,0,1.41.39,2.35,2.35,0,0,0,1.59-.49,1.68,1.68,0,0,0,.56-1.31,2,2,0,0,0-.17-.86,1.91,1.91,0,0,0-.46-.58,1.71,1.71,0,0,0-.63-.32,2.35,2.35,0,0,0-.69-.1h-.82v-1.18h.79a1.73,1.73,0,0,0,.58-.1,1.62,1.62,0,0,0,.53-.29,1.43,1.43,0,0,0,.38-.52,1.72,1.72,0,0,0,.15-.74,1.42,1.42,0,0,0-.16-.7,1.5,1.5,0,0,0-.42-.48,1.81,1.81,0,0,0-.61-.29,2.8,2.8,0,0,0-.7-.09,2.22,2.22,0,0,0-1.36.39,1.6,1.6,0,0,0-.64,1h-1.43A2.66,2.66,0,0,1,1729,267a2.72,2.72,0,0,1,.75-.8,3.68,3.68,0,0,1,1-.52,4.56,4.56,0,0,1,1.31-.18,4.81,4.81,0,0,1,1.2.15,3.37,3.37,0,0,1,1,.48,2.48,2.48,0,0,1,.71.8,2.37,2.37,0,0,1,.27,1.16,2.15,2.15,0,0,1-.5,1.41,2.61,2.61,0,0,1-1.28.85,2.84,2.84,0,0,1,.8.29,2.5,2.5,0,0,1,.68.53,2.56,2.56,0,0,1,.64,1.74Z" /><path class="e" d="M1783.72,265.71v6.88h1.6v1.16h-1.6v1.86h-1.31v-1.86h-4.34v-1.26l4.24-6.78Zm-1.31,6.88V267.9l-2.83,4.69Z" /><path class="e" d="M1829.15,273.21a1.83,1.83,0,0,0,.66,1,2.18,2.18,0,0,0,1.43.43,2.37,2.37,0,0,0,.85-.15,2,2,0,0,0,.69-.46,2.15,2.15,0,0,0,.45-.73,2.86,2.86,0,0,0,.16-1,2.24,2.24,0,0,0-.58-1.68,2.09,2.09,0,0,0-1.54-.57,2.8,2.8,0,0,0-1,.21,2.39,2.39,0,0,0-.94.69h-1.2l.21-5.29h6.08v1.15h-4.85l-.11,2.9a3.43,3.43,0,0,1,.94-.53,3.85,3.85,0,0,1,2.45,0,2.82,2.82,0,0,1,1,.63,3.16,3.16,0,0,1,.7,1.06,3.69,3.69,0,0,1,.26,1.46,3.64,3.64,0,0,1-.24,1.32,3.26,3.26,0,0,1-.69,1.09,3.18,3.18,0,0,1-1.12.74,4,4,0,0,1-1.51.28,4.25,4.25,0,0,1-1.38-.22,3.51,3.51,0,0,1-1.06-.59,3,3,0,0,1-.72-.83,2.65,2.65,0,0,1-.36-1Z" /><path class="e" d="M1881.22,269.13a3.38,3.38,0,0,1,1.3.25,3,3,0,0,1,1,.69,3,3,0,0,1,.6,1.05,3.88,3.88,0,0,1,.22,1.34A3.63,3.63,0,0,1,1884,274a3.3,3.3,0,0,1-.76,1.05,3.15,3.15,0,0,1-1.06.62,3.61,3.61,0,0,1-1.2.21,3,3,0,0,1-2.61-1.22,6.06,6.06,0,0,1-.87-3.55,10.52,10.52,0,0,1,.3-2.75,4.59,4.59,0,0,1,.81-1.69,2.72,2.72,0,0,1,1.16-.87,3.65,3.65,0,0,1,1.33-.25,3.34,3.34,0,0,1,1.94.56,2.52,2.52,0,0,1,1,1.53h-1.5a1.34,1.34,0,0,0-.51-.72,1.7,1.7,0,0,0-1-.27,1.78,1.78,0,0,0-.81.19,1.75,1.75,0,0,0-.68.63,4.4,4.4,0,0,0-.5,1.18,8.53,8.53,0,0,0-.26,1.82,3,3,0,0,1,.51-.6,3.07,3.07,0,0,1,.59-.4,3,3,0,0,1,.64-.21A2.78,2.78,0,0,1,1881.22,269.13Zm-2.22,3.29a2.34,2.34,0,0,0,.57,1.69,2.06,2.06,0,0,0,2.18.44,1.81,1.81,0,0,0,.62-.41,2,2,0,0,0,.42-.68,2.93,2.93,0,0,0,.14-.93,2.38,2.38,0,0,0-.53-1.66,1.79,1.79,0,0,0-1.42-.6,2.14,2.14,0,0,0-.87.17,1.75,1.75,0,0,0-.62.48,1.87,1.87,0,0,0-.37.68A2.76,2.76,0,0,0,1879,272.42Z" /><path class="e" d="M1927.84,275.61h-1.55l4.15-8.68h-4.85v-1.22h6.29v1.22Z" /><path class="e" d="M1981.33,268.05a2.11,2.11,0,0,1-.14.77,2.41,2.41,0,0,1-.38.64,2.73,2.73,0,0,1-.52.5,4.21,4.21,0,0,1-.59.38,4.44,4.44,0,0,1,.71.38,3,3,0,0,1,.64.54,2.79,2.79,0,0,1,.46.74,2.19,2.19,0,0,1,.19.94,2.58,2.58,0,0,1-1,2.08,3.51,3.51,0,0,1-1.14.59,4.54,4.54,0,0,1-1.47.22,4.83,4.83,0,0,1-1.47-.21,3.6,3.6,0,0,1-1.14-.58,2.67,2.67,0,0,1-.73-.88,2.35,2.35,0,0,1-.27-1.12,2.59,2.59,0,0,1,.18-1,2.56,2.56,0,0,1,.46-.75,3.06,3.06,0,0,1,.62-.53,4.79,4.79,0,0,1,.68-.34,2.87,2.87,0,0,1-.56-.32,2.57,2.57,0,0,1-.51-.48,2.81,2.81,0,0,1-.36-.64,2.42,2.42,0,0,1-.14-.84,2.37,2.37,0,0,1,1-2,3.22,3.22,0,0,1,1-.49,4.91,4.91,0,0,1,1.22-.15,4.85,4.85,0,0,1,1.22.15,3.28,3.28,0,0,1,1,.45,2.26,2.26,0,0,1,.71.79A2.31,2.31,0,0,1,1981.33,268.05Zm-1.07,4.89a1.76,1.76,0,0,0-.23-.95,1.85,1.85,0,0,0-.59-.59,2.9,2.9,0,0,0-.8-.35c-.29-.08-.57-.15-.85-.2a3.51,3.51,0,0,0-.63.24,2.49,2.49,0,0,0-.6.42,2,2,0,0,0-.46.61,1.94,1.94,0,0,0-.17.82,1.77,1.77,0,0,0,.13.69,1.56,1.56,0,0,0,.4.56,2,2,0,0,0,.67.38,3,3,0,0,0,1,.14,2.34,2.34,0,0,0,1.63-.5A1.64,1.64,0,0,0,1980.26,272.94Zm-4.08-4.87a1.67,1.67,0,0,0,.23.92,1.64,1.64,0,0,0,.55.56,2.24,2.24,0,0,0,.71.3,5.27,5.27,0,0,0,.7.13,2.6,2.6,0,0,0,.56-.27,2.43,2.43,0,0,0,.51-.4,1.6,1.6,0,0,0,.38-.54,1.54,1.54,0,0,0,.15-.7,1.33,1.33,0,0,0-.15-.63,1.38,1.38,0,0,0-.4-.47,1.88,1.88,0,0,0-.6-.3,2.48,2.48,0,0,0-.73-.11,2.92,2.92,0,0,0-.73.09,2,2,0,0,0-.61.28,1.46,1.46,0,0,0-.41.48A1.29,1.29,0,0,0,1976.18,268.07Z" /><path class="e" d="M2025.7,272.19a3.11,3.11,0,0,1-1.24-.23,2.76,2.76,0,0,1-1-.65,3.09,3.09,0,0,1-.64-1.05,4.05,4.05,0,0,1-.22-1.39,3.62,3.62,0,0,1,.25-1.39,3,3,0,0,1,.7-1.06,3.22,3.22,0,0,1,1-.68,3.51,3.51,0,0,1,1.31-.24,3,3,0,0,1,2.6,1.18,6,6,0,0,1,.88,3.59,10.27,10.27,0,0,1-.3,2.7,4.86,4.86,0,0,1-.79,1.71,2.73,2.73,0,0,1-1.16.89,3.91,3.91,0,0,1-1.4.26,3.25,3.25,0,0,1-2-.58,2.59,2.59,0,0,1-1-1.55h1.5a1.26,1.26,0,0,0,.53.75,1.76,1.76,0,0,0,1,.27,2,2,0,0,0,.84-.18,1.79,1.79,0,0,0,.68-.62,3.71,3.71,0,0,0,.48-1.18,10.21,10.21,0,0,0,.24-1.82,3,3,0,0,1-.51.6,3.07,3.07,0,0,1-.59.4,3.11,3.11,0,0,1-.63.21A3.42,3.42,0,0,1,2025.7,272.19Zm2.22-3.28a2.32,2.32,0,0,0-.57-1.69,1.92,1.92,0,0,0-1.42-.59,2,2,0,0,0-.77.15,1.85,1.85,0,0,0-.61.42,1.93,1.93,0,0,0-.41.68,2.63,2.63,0,0,0-.15.91,2.93,2.93,0,0,0,.15,1,2.12,2.12,0,0,0,.41.72,1.69,1.69,0,0,0,.62.43,2.19,2.19,0,0,0,.77.14,2,2,0,0,0,.87-.18,1.73,1.73,0,0,0,.62-.47,1.92,1.92,0,0,0,.37-.69A2.74,2.74,0,0,0,2027.92,268.91Z" /><path class="e" d="M2070.65,275.61v-8.48l-2.23,1.14v-1.4l2.24-1.16H2072v9.9Z" /><path class="e" d="M2079.28,275.83a3.3,3.3,0,0,1-1.4-.31,3,3,0,0,1-1.13-1,4.86,4.86,0,0,1-.74-1.62,8.72,8.72,0,0,1-.27-2.31,8.85,8.85,0,0,1,.27-2.34,4.7,4.7,0,0,1,.75-1.59,2.93,2.93,0,0,1,1.12-.91,3.44,3.44,0,0,1,1.4-.29,3.39,3.39,0,0,1,1.39.29,2.93,2.93,0,0,1,1.12.91,4.35,4.35,0,0,1,.75,1.59,8.85,8.85,0,0,1,.27,2.34,8.72,8.72,0,0,1-.27,2.31,4.67,4.67,0,0,1-.74,1.62,3,3,0,0,1-1.12,1A3.33,3.33,0,0,1,2079.28,275.83Zm0-1.14a1.73,1.73,0,0,0,1.62-1,6.81,6.81,0,0,0,.53-3.08,6.64,6.64,0,0,0-.53-3,1.75,1.75,0,0,0-1.62-1,1.73,1.73,0,0,0-1.62,1,6.51,6.51,0,0,0-.53,3,6.67,6.67,0,0,0,.53,3.08A1.71,1.71,0,0,0,2079.28,274.69Z" /><path class="e" d="M2120.85,275.61v-8.48l-2.22,1.14v-1.4l2.23-1.16h1.33v9.9Z" /><path class="e" d="M2129.34,275.61v-8.48l-2.22,1.14v-1.4l2.23-1.16h1.33v9.9Z" /><path class="e" d="M2171.49,275.61v-8.48l-2.22,1.14v-1.4l2.23-1.16h1.33v9.9Z" /><path class="e" d="M2176.72,268.3a3.39,3.39,0,0,1,.36-1.1,3.13,3.13,0,0,1,.73-.89,3.35,3.35,0,0,1,1.06-.6,4,4,0,0,1,1.34-.21,4.09,4.09,0,0,1,1.28.2,3,3,0,0,1,1,.56,2.46,2.46,0,0,1,.68.88,2.64,2.64,0,0,1,.25,1.17,3.45,3.45,0,0,1-.12.94,3.13,3.13,0,0,1-.4.88,6.1,6.1,0,0,1-.72.95c-.31.34-.68.71-1.12,1.14l-2.27,2.15h4.59v1.24H2177v-1.24l3.23-3.1c.34-.32.63-.61.86-.87a6.4,6.4,0,0,0,.57-.73,2.55,2.55,0,0,0,.33-.66,2.48,2.48,0,0,0,.09-.68,1.63,1.63,0,0,0-.48-1.23,2,2,0,0,0-1.38-.46,2.19,2.19,0,0,0-1.4.44,1.78,1.78,0,0,0-.63,1.22Z" /><path class="e" d="M2245.8,275.61v-8.48l-2.22,1.14v-1.4l2.23-1.16h1.33v9.9Z" /><path class="e" d="M2258,272.91a2.78,2.78,0,0,1-.24,1.17,2.88,2.88,0,0,1-.71.92,3.29,3.29,0,0,1-1.11.6,4.75,4.75,0,0,1-1.45.21,3.84,3.84,0,0,1-2.47-.73,2.9,2.9,0,0,1-1.09-1.93h1.44a1.94,1.94,0,0,0,.68,1.14,2.28,2.28,0,0,0,1.42.39,2.32,2.32,0,0,0,1.58-.49,1.65,1.65,0,0,0,.57-1.31,1.88,1.88,0,0,0-.18-.86,1.77,1.77,0,0,0-.46-.58,1.71,1.71,0,0,0-.63-.32,2.35,2.35,0,0,0-.69-.1h-.82v-1.18h.8a1.67,1.67,0,0,0,.57-.1,1.62,1.62,0,0,0,.53-.29,1.58,1.58,0,0,0,.39-.52,1.72,1.72,0,0,0,.15-.74,1.42,1.42,0,0,0-.17-.7,1.39,1.39,0,0,0-.42-.48,1.72,1.72,0,0,0-.61-.29,2.74,2.74,0,0,0-.7-.09,2.22,2.22,0,0,0-1.36.39,1.54,1.54,0,0,0-.63,1h-1.43a2.5,2.5,0,0,1,.38-1.05,3,3,0,0,1,.75-.8,3.68,3.68,0,0,1,1.05-.52,4.56,4.56,0,0,1,1.31-.18,4.7,4.7,0,0,1,1.2.15,3.37,3.37,0,0,1,1,.48,2.27,2.27,0,0,1,.71.8,2.37,2.37,0,0,1,.27,1.16,2.1,2.1,0,0,1-.5,1.41,2.57,2.57,0,0,1-1.28.85,3,3,0,0,1,.81.29,2.45,2.45,0,0,1,.67.53,2.58,2.58,0,0,1,.47.75A2.78,2.78,0,0,1,2258,272.91Z" /><path class="e" d="M2294.56,275.61v-8.48l-2.22,1.14v-1.4l2.23-1.16h1.33v9.9Z" /><path class="e" d="M2305.23,265.71v6.88h1.6v1.16h-1.6v1.86h-1.32v-1.86h-4.34v-1.26l4.24-6.78Zm-1.32,6.88V267.9l-2.83,4.69Z" /><path class="e" d="M2344.1,275.61v-8.48l-2.22,1.14v-1.4l2.24-1.16h1.33v9.9Z" /><path class="e" d="M2350.65,273.21a1.9,1.9,0,0,0,.67,1,2.16,2.16,0,0,0,1.43.43,2.32,2.32,0,0,0,.84-.15,1.94,1.94,0,0,0,.69-.46,2,2,0,0,0,.45-.73,2.86,2.86,0,0,0,.17-1,2.28,2.28,0,0,0-.58-1.68,2.12,2.12,0,0,0-1.55-.57,2.84,2.84,0,0,0-1,.21,2.46,2.46,0,0,0-.94.69h-1.2l.21-5.29h6.09v1.15H2351l-.11,2.9a3.58,3.58,0,0,1,.94-.53,3.51,3.51,0,0,1,1.22-.19,3.63,3.63,0,0,1,1.24.21,2.87,2.87,0,0,1,1,.63,3,3,0,0,1,.7,1.06,3.69,3.69,0,0,1,.27,1.46,3.64,3.64,0,0,1-.24,1.32,3.29,3.29,0,0,1-.7,1.09,3.23,3.23,0,0,1-1.11.74,4,4,0,0,1-1.52.28,4.25,4.25,0,0,1-1.38-.22,3.51,3.51,0,0,1-1.06-.59,3,3,0,0,1-.72-.83,3.06,3.06,0,0,1-.36-1Z" /><path class="e" d="M2393.64,275.61v-8.48l-2.22,1.14v-1.4l2.24-1.16H2395v9.9Z" /><path class="e" d="M2402.72,269.13a3.31,3.31,0,0,1,1.3.25,3,3,0,0,1,1,.69,3,3,0,0,1,.61,1.05,4.14,4.14,0,0,1,.21,1.34,3.63,3.63,0,0,1-.29,1.49,3.16,3.16,0,0,1-.76,1.05,3.05,3.05,0,0,1-1.06.62,3.61,3.61,0,0,1-1.2.21,3,3,0,0,1-2.6-1.22,6,6,0,0,1-.88-3.55,10.52,10.52,0,0,1,.3-2.75,4.76,4.76,0,0,1,.82-1.69,2.66,2.66,0,0,1,1.16-.87,3.57,3.57,0,0,1,1.33-.25,3.3,3.3,0,0,1,1.93.56,2.52,2.52,0,0,1,1.05,1.53h-1.5a1.24,1.24,0,0,0-.51-.72,1.66,1.66,0,0,0-1-.27,1.71,1.71,0,0,0-.8.19,1.62,1.62,0,0,0-.68.63,4.09,4.09,0,0,0-.51,1.18,9.22,9.22,0,0,0-.26,1.82,3,3,0,0,1,.51-.6,2.85,2.85,0,0,1,.6-.4,2.91,2.91,0,0,1,.63-.21A2.85,2.85,0,0,1,2402.72,269.13Zm-2.22,3.29a2.34,2.34,0,0,0,.58,1.69,1.89,1.89,0,0,0,1.42.58,1.92,1.92,0,0,0,.75-.14,1.81,1.81,0,0,0,.62-.41,2,2,0,0,0,.42-.68,2.67,2.67,0,0,0,.15-.93,2.43,2.43,0,0,0-.53-1.66,1.82,1.82,0,0,0-1.43-.6,2.14,2.14,0,0,0-.87.17,1.85,1.85,0,0,0-.62.48,2,2,0,0,0-.37.68A2.76,2.76,0,0,0,2400.5,272.42Z" /><path class="e" d="M2443.18,275.61v-8.48l-2.22,1.14v-1.4l2.24-1.16h1.33v9.9Z" /><path class="e" d="M2450.88,275.61h-1.54l4.14-8.68h-4.85v-1.22h6.3v1.22Z" /><path class="e" d="M2492.72,275.61v-8.48l-2.22,1.14v-1.4l2.24-1.16h1.33v9.9Z" /><path class="e" d="M2504.59,268.05a1.92,1.92,0,0,1-.14.77,2.38,2.38,0,0,1-.37.64,2.78,2.78,0,0,1-.53.5,4.12,4.12,0,0,1-.58.38,4.82,4.82,0,0,1,.7.38,3,3,0,0,1,.64.54,2.82,2.82,0,0,1,.47.74,2.35,2.35,0,0,1,.18.94,2.54,2.54,0,0,1-.26,1.17,2.59,2.59,0,0,1-.74.91,3.46,3.46,0,0,1-1.13.59,4.64,4.64,0,0,1-1.48.22,4.93,4.93,0,0,1-1.47-.21,3.6,3.6,0,0,1-1.14-.58,2.67,2.67,0,0,1-.73-.88,2.34,2.34,0,0,1-.26-1.12,2.5,2.5,0,0,1,.63-1.75,2.86,2.86,0,0,1,.63-.53,3.93,3.93,0,0,1,.68-.34,3.27,3.27,0,0,1-.57-.32,2.28,2.28,0,0,1-.5-.48,2.3,2.3,0,0,1-.5-1.48,2.47,2.47,0,0,1,.26-1.18,2.38,2.38,0,0,1,.72-.82,3.17,3.17,0,0,1,1-.49,5.08,5.08,0,0,1,2.45,0,3.32,3.32,0,0,1,1,.45,2.19,2.19,0,0,1,.72.79A2.42,2.42,0,0,1,2504.59,268.05Zm-1.07,4.89a1.76,1.76,0,0,0-.23-.95,1.82,1.82,0,0,0-.58-.59,3.19,3.19,0,0,0-.8-.35c-.3-.08-.58-.15-.85-.2a3.6,3.6,0,0,0-.64.24,2.49,2.49,0,0,0-.6.42,2.15,2.15,0,0,0-.45.61,1.8,1.8,0,0,0-.18.82,2,2,0,0,0,.13.69,1.69,1.69,0,0,0,.4.56,2.06,2.06,0,0,0,.67.38,3.13,3.13,0,0,0,1,.14,2.34,2.34,0,0,0,1.63-.5A1.64,1.64,0,0,0,2503.52,272.94Zm-4.07-4.87a1.67,1.67,0,0,0,.22.92,1.73,1.73,0,0,0,.55.56,2.34,2.34,0,0,0,.71.3,5.12,5.12,0,0,0,.71.13,2.53,2.53,0,0,0,.55-.27,2.49,2.49,0,0,0,.52-.4,1.94,1.94,0,0,0,.38-.54,1.54,1.54,0,0,0,.15-.7,1.33,1.33,0,0,0-.15-.63,1.53,1.53,0,0,0-.41-.47,1.88,1.88,0,0,0-.6-.3,2.48,2.48,0,0,0-.73-.11,2.84,2.84,0,0,0-.72.09,1.81,1.81,0,0,0-.61.28,1.38,1.38,0,0,0-.42.48A1.4,1.4,0,0,0,2499.45,268.07Z" /><path class="e" d="M2540.72,275.61v-8.48l-2.22,1.14v-1.4l2.24-1.16h1.33v9.9Z" /><path class="e" d="M2549.18,272.19a3.15,3.15,0,0,1-1.24-.23,2.85,2.85,0,0,1-1-.65,3.06,3.06,0,0,1-.63-1.05,4.05,4.05,0,0,1-.23-1.39,3.62,3.62,0,0,1,.26-1.39,3,3,0,0,1,.7-1.06,3.08,3.08,0,0,1,1-.68,3.51,3.51,0,0,1,1.31-.24,3,3,0,0,1,2.6,1.18,6,6,0,0,1,.88,3.59,10.27,10.27,0,0,1-.3,2.7,4.69,4.69,0,0,1-.79,1.71,2.73,2.73,0,0,1-1.16.89,3.87,3.87,0,0,1-1.4.26,3.24,3.24,0,0,1-1.95-.58,2.57,2.57,0,0,1-1.05-1.55h1.5a1.3,1.3,0,0,0,.53.75,1.77,1.77,0,0,0,1,.27,1.9,1.9,0,0,0,.83-.18,1.73,1.73,0,0,0,.68-.62,3.71,3.71,0,0,0,.48-1.18,8.65,8.65,0,0,0,.24-1.82,3,3,0,0,1-.51.6,2.79,2.79,0,0,1-.59.4,3.11,3.11,0,0,1-.63.21A3.34,3.34,0,0,1,2549.18,272.19Zm2.23-3.28a2.32,2.32,0,0,0-.58-1.69,2,2,0,0,0-2.8,0,2.09,2.09,0,0,0-.41.68,2.63,2.63,0,0,0-.15.91,2.93,2.93,0,0,0,.15,1,2.3,2.3,0,0,0,.41.72,1.77,1.77,0,0,0,.62.43,2.21,2.21,0,0,0,.78.14,1.94,1.94,0,0,0,.86-.18,1.86,1.86,0,0,0,.63-.47,2.09,2.09,0,0,0,.37-.69A2.74,2.74,0,0,0,2551.41,268.91Z" /><path class="e" d="M2587.07,268.3a3.39,3.39,0,0,1,.36-1.1,3.13,3.13,0,0,1,.73-.89,3.25,3.25,0,0,1,1.06-.6,4,4,0,0,1,1.33-.21,4,4,0,0,1,1.28.2,3.15,3.15,0,0,1,1,.56,2.46,2.46,0,0,1,.68.88,2.64,2.64,0,0,1,.25,1.17,3.45,3.45,0,0,1-.12.94,3.13,3.13,0,0,1-.4.88,6.22,6.22,0,0,1-.73.95c-.3.34-.67.71-1.11,1.14l-2.27,2.15h4.59v1.24h-6.43v-1.24l3.23-3.1c.34-.32.62-.61.85-.87a5.58,5.58,0,0,0,.58-.73,2.23,2.23,0,0,0,.32-.66,2.15,2.15,0,0,0,.1-.68,1.6,1.6,0,0,0-.49-1.23,2,2,0,0,0-1.38-.46,2.16,2.16,0,0,0-1.39.44,1.78,1.78,0,0,0-.63,1.22Z" /><path class="e" d="M2599,275.83a3.3,3.3,0,0,1-1.4-.31,3,3,0,0,1-1.13-1,5.06,5.06,0,0,1-.74-1.62,8.72,8.72,0,0,1-.27-2.31,8.85,8.85,0,0,1,.27-2.34,4.7,4.7,0,0,1,.75-1.59,2.93,2.93,0,0,1,1.12-.91,3.44,3.44,0,0,1,1.4-.29,3.39,3.39,0,0,1,1.39.29,2.93,2.93,0,0,1,1.12.91,4.7,4.7,0,0,1,.75,1.59,8.85,8.85,0,0,1,.27,2.34,8.72,8.72,0,0,1-.27,2.31,4.86,4.86,0,0,1-.74,1.62,3,3,0,0,1-1.12,1A3.33,3.33,0,0,1,2599,275.83Zm0-1.14a1.73,1.73,0,0,0,1.62-1,6.81,6.81,0,0,0,.53-3.08,6.64,6.64,0,0,0-.53-3,1.75,1.75,0,0,0-1.62-1,1.73,1.73,0,0,0-1.62,1,6.51,6.51,0,0,0-.53,3,6.67,6.67,0,0,0,.53,3.08A1.71,1.71,0,0,0,2599,274.69Z" /><path class="e" d="M2637.94,268.3a3.39,3.39,0,0,1,.36-1.1,3.13,3.13,0,0,1,.73-.89,3.2,3.2,0,0,1,1-.6,4.09,4.09,0,0,1,1.34-.21,4,4,0,0,1,1.28.2,3.15,3.15,0,0,1,1,.56,2.57,2.57,0,0,1,.68.88,2.79,2.79,0,0,1,.25,1.17,3.21,3.21,0,0,1-.52,1.82,6.22,6.22,0,0,1-.73.95c-.3.34-.67.71-1.12,1.14l-2.26,2.15h4.58v1.24h-6.42v-1.24l3.23-3.1c.34-.32.62-.61.85-.87a6.57,6.57,0,0,0,.58-.73,2.23,2.23,0,0,0,.32-.66,2.15,2.15,0,0,0,.1-.68,1.6,1.6,0,0,0-.49-1.23,2,2,0,0,0-1.38-.46,2.16,2.16,0,0,0-1.39.44,1.78,1.78,0,0,0-.63,1.22Z" /><path class="e" d="M2649.68,275.61v-8.48l-2.22,1.14v-1.4l2.24-1.16H2651v9.9Z" /><path class="e" d="M2685.67,268.3a3,3,0,0,1,.36-1.1,2.83,2.83,0,0,1,.73-.89,3.2,3.2,0,0,1,1-.6,4.29,4.29,0,0,1,2.62,0,3.15,3.15,0,0,1,1,.56,2.7,2.7,0,0,1,.68.88,2.78,2.78,0,0,1,.24,1.17,3.45,3.45,0,0,1-.12.94,3.39,3.39,0,0,1-.39.88,6.93,6.93,0,0,1-.73.95c-.3.34-.68.71-1.12,1.14l-2.26,2.15h4.58v1.24h-6.42v-1.24l3.22-3.1c.34-.32.63-.61.86-.87a6.4,6.4,0,0,0,.57-.73,2.55,2.55,0,0,0,.33-.66,2.48,2.48,0,0,0,.1-.68,1.64,1.64,0,0,0-.49-1.23,2,2,0,0,0-1.38-.46,2.19,2.19,0,0,0-1.4.44,1.73,1.73,0,0,0-.62,1.22Z" /><path class="e" d="M2694.15,268.3a3.18,3.18,0,0,1,.37-1.1,2.94,2.94,0,0,1,.72-.89,3.35,3.35,0,0,1,1.06-.6,4,4,0,0,1,1.33-.21,4.1,4.1,0,0,1,1.29.2,3,3,0,0,1,1,.56,2.46,2.46,0,0,1,.68.88,2.64,2.64,0,0,1,.25,1.17,3.45,3.45,0,0,1-.12.94,3.13,3.13,0,0,1-.4.88,6.1,6.1,0,0,1-.72.95c-.31.34-.68.71-1.12,1.14l-2.27,2.15h4.59v1.24h-6.42v-1.24l3.22-3.1c.34-.32.63-.61.86-.87a6.4,6.4,0,0,0,.57-.73,2.55,2.55,0,0,0,.33-.66,2.48,2.48,0,0,0,.09-.68,1.63,1.63,0,0,0-.48-1.23,2,2,0,0,0-1.38-.46,2.19,2.19,0,0,0-1.4.44,1.78,1.78,0,0,0-.63,1.22Z" /><path class="e" d="M2735.87,268.3a3.13,3.13,0,0,1,1.09-2,3.2,3.2,0,0,1,1.05-.6,4.29,4.29,0,0,1,2.62,0,3.15,3.15,0,0,1,1,.56,2.7,2.7,0,0,1,.68.88,2.78,2.78,0,0,1,.24,1.17,3.45,3.45,0,0,1-.12.94,3.39,3.39,0,0,1-.39.88,6.93,6.93,0,0,1-.73.95c-.3.34-.68.71-1.12,1.14l-2.26,2.15h4.58v1.24h-6.42v-1.24l3.22-3.1c.34-.32.63-.61.86-.87a6.4,6.4,0,0,0,.57-.73,2.55,2.55,0,0,0,.33-.66,2.48,2.48,0,0,0,.1-.68,1.64,1.64,0,0,0-.49-1.23,2,2,0,0,0-1.38-.46,2.14,2.14,0,0,0-1.39.44,1.7,1.7,0,0,0-.63,1.22Z" /><path class="e" d="M2751.27,272.91a2.78,2.78,0,0,1-.24,1.17,2.75,2.75,0,0,1-.71.92,3.29,3.29,0,0,1-1.11.6,4.68,4.68,0,0,1-1.44.21,3.85,3.85,0,0,1-2.48-.73,2.9,2.9,0,0,1-1.09-1.93h1.44a1.94,1.94,0,0,0,.68,1.14,2.28,2.28,0,0,0,1.42.39,2.32,2.32,0,0,0,1.58-.49,1.65,1.65,0,0,0,.57-1.31,1.88,1.88,0,0,0-.18-.86,1.77,1.77,0,0,0-.46-.58,1.71,1.71,0,0,0-.63-.32,2.33,2.33,0,0,0-.68-.1h-.82v-1.18h.79a1.82,1.82,0,0,0,1.1-.39,1.58,1.58,0,0,0,.39-.52,1.72,1.72,0,0,0,.15-.74,1.54,1.54,0,0,0-.16-.7,1.42,1.42,0,0,0-.43-.48,1.72,1.72,0,0,0-.61-.29,2.74,2.74,0,0,0-.7-.09,2.24,2.24,0,0,0-1.36.39,1.58,1.58,0,0,0-.63,1h-1.43a2.65,2.65,0,0,1,.38-1.05,3,3,0,0,1,.75-.8,3.61,3.61,0,0,1,1.06-.52,4.49,4.49,0,0,1,1.3-.18,4.83,4.83,0,0,1,1.21.15,3.42,3.42,0,0,1,1,.48,2.4,2.4,0,0,1,.72.8,2.48,2.48,0,0,1,.26,1.16,2.1,2.1,0,0,1-.5,1.41,2.57,2.57,0,0,1-1.28.85,2.9,2.9,0,0,1,.81.29,2.45,2.45,0,0,1,.67.53,2.44,2.44,0,0,1,.64,1.74Z" /><path class="e" d="M2786.51,268.3a3.39,3.39,0,0,1,.36-1.1,3,3,0,0,1,.73-.89,3.2,3.2,0,0,1,1.05-.6,4.29,4.29,0,0,1,2.62,0,3.15,3.15,0,0,1,1,.56,2.57,2.57,0,0,1,.68.88,2.79,2.79,0,0,1,.25,1.17,3.21,3.21,0,0,1-.52,1.82,6.22,6.22,0,0,1-.73.95c-.3.34-.67.71-1.12,1.14l-2.26,2.15h4.58v1.24h-6.42v-1.24l3.23-3.1c.34-.32.62-.61.85-.87a8,8,0,0,0,.58-.73,2.5,2.5,0,0,0,.32-.66,2.15,2.15,0,0,0,.1-.68,1.6,1.6,0,0,0-.49-1.23,2,2,0,0,0-1.38-.46,2.16,2.16,0,0,0-1.39.44,1.78,1.78,0,0,0-.63,1.22Z" /><path class="e" d="M2800.43,265.71v6.88h1.6v1.16h-1.6v1.86h-1.31v-1.86h-4.35v-1.26l4.25-6.78Zm-1.31,6.88V267.9l-2.83,4.69Z" /></svg>