<svg id="a" data-name="Layer 1" viewBox="0 0 3414.38 309.14">
  <defs>
    <style>
      .c {
        fill: #060707;
      }

      .d {
        fill: #fff;
      }

      .e {
        fill: #746242;
      }

      .f {
        fill: #aaaaab;
      }

      .g {
        fill: #dadcde;
      }

      .h {
        fill: #c8c7c7;
      }

      .i {
        fill: #37383c;
      }

      .j {
        fill: #383838;
      }

      .k {
        fill: #61735b;
      }

      .l {
        fill: none;
        stroke: #383838;
        stroke-miterlimit: 10;
      }
    </style>
  </defs>
  <path class="g" d="m3376.95,0H37.42C16.76,0,0,16.76,0,37.42v234.29c0,20.67,16.76,37.42,37.42,37.42h3339.53c20.67,0,37.42-16.76,37.42-37.42V37.42c0-20.67-16.76-37.42-37.42-37.42ZM109.32,265.87c0,13.5-10.94,24.44-24.44,24.44h-23.12c-13.5,0-24.44-10.94-24.44-24.44h0c0-13.5,10.94-24.44,24.44-24.44h23.12c13.5,0,24.44,10.94,24.44,24.44h0Zm0-222.61c0,13.5-10.94,24.44-24.44,24.44h-23.12c-13.5,0-24.44-10.94-24.44-24.44h0c0-13.5,10.94-24.44,24.44-24.44h23.12c13.5,0,24.44,10.94,24.44,24.44h0Zm3267.74,222.61c0,13.5-10.94,24.44-24.44,24.44h-23.12c-13.5,0-24.44-10.94-24.44-24.44h0c0-13.5,10.94-24.44,24.44-24.44h23.12c13.5,0,24.44,10.94,24.44,24.44h0Zm0-222.61c0,13.5-10.94,24.44-24.44,24.44h-23.12c-13.5,0-24.44-10.94-24.44-24.44h0c0-13.5,10.94-24.44,24.44-24.44h23.12c13.5,0,24.44,10.94,24.44,24.44h0Z" />
  <g id="b" data-name="lights">
    <circle class="d" cx="224" cy="120.43" r="6.17" />
    <circle cx="224" cy="220.5" r="5.44" />
    <path d="m224.88,240.47v-3.24l-4.73,3.74,4.73,3.74v-3.24c4.7,0,8.53,3.83,8.53,8.53s-3.83,8.53-8.53,8.53-8.53-3.83-8.53-8.53h-1c0,5.25,4.27,9.53,9.53,9.53s9.53-4.27,9.53-9.53-4.27-9.53-9.53-9.53Z" />
  </g>
  <polygon class="j" points="3116.71 138.47 3110.39 138.47 3110.39 115.53 3116.71 115.53 3116.71 138.47 3116.71 138.47" />
  <path class="j" d="m3167.59,122.1c-.27-.12-2.3-1.22-5.31-1.22-4.08,0-6.91,2.61-6.91,6.12s2.7,6.13,6.91,6.13c2.97,0,5.03-1.08,5.31-1.22v6.16c-.79.21-2.95.82-5.75.82-7.11,0-13.33-4.49-13.33-11.89,0-6.84,5.64-11.87,13.33-11.87,2.95,0,5.15.66,5.75.82v6.15h0Z" />
  <path class="j" d="m3101.73,122.1c-.25-.12-2.28-1.22-5.3-1.22-4.09,0-6.92,2.61-6.92,6.12,0,3.42,2.7,6.13,6.92,6.13,2.97,0,5.03-1.08,5.3-1.22v6.16c-.79.21-2.94.82-5.76.82-7.09,0-13.31-4.49-13.31-11.89,0-6.84,5.63-11.87,13.31-11.87,2.99,0,5.16.66,5.76.82v6.15h0Z" />
  <path class="j" d="m3200.64,126.99c0,6.56-5.52,11.89-13.21,11.89-7.68,0-13.19-5.32-13.19-11.89,0-6.55,5.51-11.87,13.19-11.87,7.69,0,13.21,5.32,13.21,11.87h0Zm-13.21-6.02c-3.74,0-6.52,2.69-6.52,6.02s2.77,6.04,6.52,6.04,6.53-2.7,6.53-6.04c0-3.33-2.78-6.02-6.53-6.02h0Z" />
  <path class="j" d="m3140.63,120.74c-.09-.03-2.75-.69-4.93-.69-2.53,0-3.9.77-3.9,1.88,0,1.39,1.85,1.87,2.88,2.18l1.75.5c4.09,1.19,5.96,3.77,5.96,6.56,0,5.76-5.53,7.7-10.35,7.7-3.36,0-6.49-.57-6.81-.63v-5.28c.56.13,3.2.86,5.96.86,3.13,0,4.58-.85,4.58-2.15,0-1.16-1.25-1.82-2.82-2.28-.38-.11-.95-.28-1.35-.39-3.51-1.02-6.43-2.92-6.43-6.71,0-4.29,3.5-7.17,9.32-7.17,3.07,0,5.96.68,6.14.72v4.9h0Z" />
  <path class="j" d="m3076.72,90.86c0-1.76-1.38-3.18-3.1-3.18-1.69,0-3.09,1.43-3.09,3.18v6.69c0,1.77,1.4,3.19,3.09,3.19,1.72,0,3.1-1.42,3.1-3.19v-6.69h0Z" />
  <path class="j" d="m3093.73,82.07c0-1.76-1.38-3.18-3.09-3.18-1.72,0-3.11,1.42-3.11,3.18v15.47c0,1.77,1.39,3.19,3.11,3.19,1.7,0,3.09-1.42,3.09-3.19v-15.47h0Z" />
  <path class="j" d="m3110.73,70.06c0-1.76-1.38-3.19-3.09-3.19-1.7,0-3.1,1.42-3.1,3.19v33.84c0,1.77,1.4,3.2,3.1,3.2,1.71,0,3.09-1.43,3.09-3.2v-33.84h0Z" />
  <path class="j" d="m3127.74,82.07c0-1.76-1.39-3.18-3.08-3.18s-3.1,1.42-3.1,3.18v15.47c0,1.77,1.39,3.19,3.1,3.19,1.7,0,3.08-1.42,3.08-3.19v-15.47h0Z" />
  <path class="j" d="m3144.73,90.86c0-1.76-1.38-3.18-3.08-3.18s-3.1,1.43-3.1,3.18v6.69c0,1.77,1.39,3.19,3.1,3.19,1.7,0,3.08-1.42,3.08-3.19v-6.69h0Z" />
  <path class="j" d="m3161.76,82.07c0-1.76-1.38-3.18-3.09-3.18-1.7,0-3.08,1.42-3.08,3.18v15.47c0,1.77,1.38,3.19,3.08,3.19,1.71,0,3.09-1.42,3.09-3.19v-15.47h0Z" />
  <path class="j" d="m3178.77,70.06c0-1.76-1.37-3.19-3.09-3.19-1.69,0-3.08,1.42-3.08,3.19v33.84c0,1.77,1.39,3.2,3.08,3.2,1.72,0,3.09-1.43,3.09-3.2v-33.84h0Z" />
  <path class="j" d="m3195.79,82.07c0-1.76-1.39-3.18-3.14-3.18-1.69,0-3.09,1.42-3.09,3.18v15.47c0,1.77,1.39,3.19,3.09,3.19,1.75,0,3.14-1.42,3.14-3.19v-15.47h0Z" />
  <path class="j" d="m3212.77,90.86c0-1.76-1.39-3.18-3.09-3.18-1.71,0-3.09,1.43-3.09,3.18v6.69c0,1.77,1.38,3.19,3.09,3.19,1.7,0,3.09-1.42,3.09-3.19v-6.69h0Z" />
  <rect class="i" x="2343.94" y="65.02" width="420.72" height="182.33" />
  <path class="f" d="m2762.32,68.96v174.45c0,.55-.45,1-1,1h-41.94c-.55,0-1-.45-1-1v-11c0-.55.45-1,1-1h3.22c.55,0,1-.45,1-1v-9.67c0-.55.45-1,1-1h17.94c.55,0,1-.45,1-1v-49.78c0-.55-.45-1-1-1h-82.86c-.55,0-1,.45-1,1v49.78c0,.55.45,1,1,1h17.94c.55,0,1,.45,1,1v9.67c0,.55.45,1,1,1h3.22c.55,0,1,.45,1,1v11c0,.55-.45,1-1,1h-61.29c-.55,0-1-.45-1-1v-11c0-.55.45-1,1-1h3.22c.55,0,1-.45,1-1v-9.67c0-.55.45-1,1-1h17.94c.55,0,1-.45,1-1v-49.78c0-.55-.45-1-1-1h-82.88c-.55,0-1,.45-1,1v49.78c0,.55.45,1,1,1h17.94c.55,0,1,.45,1,1v9.67c0,.55.45,1,1,1h3.22c.55,0,1,.45,1,1v11c0,.55-.45,1-1,1h-61.3c-.55,0-1-.45-1-1v-11c0-.55.45-1,1-1h3.22c.55,0,1-.45,1-1v-9.67c0-.55.45-1,1-1h17.94c.55,0,1-.45,1-1v-49.78c0-.55-.45-1-1-1h-82.88c-.55,0-1,.45-1,1v49.78c0,.55.45,1,1,1h17.94c.55,0,1,.45,1,1v9.67c0,.55.45,1,1,1h3.22c.55,0,1,.45,1,1v11c0,.55-.45,1-1,1h-61.29c-.55,0-1-.45-1-1v-11c0-.55.45-1,1-1h3.22c.55,0,1-.45,1-1v-9.67c0-.55.45-1,1-1h17.94c.55,0,1-.45,1-1v-49.78c0-.55-.45-1-1-1h-82.88c-.55,0-1,.45-1,1v49.78c0,.55.45,1,1,1h17.94c.55,0,1,.45,1,1v9.67c0,.55.45,1,1,1h3.22c.55,0,1,.45,1,1v11c0,.55-.45,1-1,1h-42.02c-.55,0-1-.45-1-1V68.96c0-.55.45-1,1-1h42.02c.55,0,1,.45,1,1v11c0,.55-.45,1-1,1h-3.22c-.55,0-1,.45-1,1v9.67c0,.55-.45,1-1,1h-17.94c-.55,0-1,.45-1,1v49.78c0,.55.45,1,1,1h82.88c.55,0,1-.45,1-1v-49.78c0-.55-.45-1-1-1h-17.94c-.55,0-1-.45-1-1v-9.67c0-.55-.45-1-1-1h-3.22c-.55,0-1-.45-1-1v-11c0-.55.45-1,1-1h61.29c.55,0,1,.45,1,1v11c0,.55-.45,1-1,1h-3.22c-.55,0-1,.45-1,1v9.67c0,.55-.45,1-1,1h-17.94c-.55,0-1,.45-1,1v49.78c0,.55.45,1,1,1h82.88c.55,0,1-.45,1-1v-49.78c0-.55-.45-1-1-1h-17.94c-.55,0-1-.45-1-1v-9.67c0-.55-.45-1-1-1h-3.22c-.55,0-1-.45-1-1v-11c0-.55.45-1,1-1h61.3c.55,0,1,.45,1,1v11c0,.55-.45,1-1,1h-3.22c-.55,0-1,.45-1,1v9.67c0,.55-.45,1-1,1h-17.94c-.55,0-1,.45-1,1v49.78c0,.55.45,1,1,1h82.88c.55,0,1-.45,1-1v-49.78c0-.55-.45-1-1-1h-17.94c-.55,0-1-.45-1-1v-9.67c0-.55-.45-1-1-1h-3.22c-.55,0-1-.45-1-1v-11c0-.55.45-1,1-1h61.29c.55,0,1,.45,1,1v11c0,.55-.45,1-1,1h-3.22c-.55,0-1,.45-1,1v9.67c0,.55-.45,1-1,1h-17.94c-.55,0-1,.45-1,1v49.78c0,.55.45,1,1,1h82.86c.55,0,1-.45,1-1v-49.78c0-.55-.45-1-1-1h-17.94c-.55,0-1-.45-1-1v-9.67c0-.55-.45-1-1-1h-3.22c-.55,0-1-.45-1-1v-11c0-.55.45-1,1-1h41.94c.55,0,1,.45,1,1Z" />
  <g>
    <g>
      <rect class="e" x="2433.79" y="77.08" width="19.33" height="11.22" rx=".88" ry=".88" />
      <rect class="k" x="2362.01" y="77.08" width="19.33" height="11.22" rx=".88" ry=".88" />
    </g>
    <g>
      <rect class="e" x="2531.64" y="77.08" width="19.33" height="11.22" rx=".88" ry=".88" />
      <rect class="k" x="2459.86" y="77.08" width="19.33" height="11.22" rx=".88" ry=".88" />
    </g>
    <g>
      <rect class="e" x="2629.49" y="77.08" width="19.33" height="11.22" rx=".88" ry=".88" />
      <rect class="k" x="2557.72" y="77.08" width="19.33" height="11.22" rx=".88" ry=".88" />
    </g>
    <g>
      <rect class="e" x="2727.35" y="77.08" width="19.33" height="11.22" rx=".88" ry=".88" />
      <rect class="k" x="2655.57" y="77.08" width="19.33" height="11.22" rx=".88" ry=".88" />
    </g>
    <g>
      <rect class="e" x="2433.79" y="224.08" width="19.33" height="11.22" rx=".88" ry=".88" />
      <rect class="k" x="2362.01" y="224.08" width="19.33" height="11.22" rx=".88" ry=".88" />
    </g>
    <g>
      <rect class="e" x="2531.64" y="224.08" width="19.33" height="11.22" rx=".88" ry=".88" />
      <rect class="k" x="2459.86" y="224.08" width="19.33" height="11.22" rx=".88" ry=".88" />
    </g>
    <g>
      <rect class="e" x="2629.49" y="224.08" width="19.33" height="11.22" rx=".88" ry=".88" />
      <rect class="k" x="2557.72" y="224.08" width="19.33" height="11.22" rx=".88" ry=".88" />
    </g>
    <g>
      <rect class="e" x="2727.35" y="224.08" width="19.33" height="11.22" rx=".88" ry=".88" />
      <rect class="k" x="2655.57" y="224.08" width="19.33" height="11.22" rx=".88" ry=".88" />
    </g>
  </g>
  <g>
    <path d="m2367.13,141.12v-45.41c0-.65.53-1.18,1.18-1.18h17.57c.65,0,1.18-.53,1.18-1.18v-9.3c0-.65.53-1.18,1.18-1.18h2.85c.65,0,1.18-.53,1.18-1.18v-9.63c0-.65.53-1.18,1.18-1.18h28.19c.65,0,1.18.53,1.18,1.18v9.63c0,.65.53,1.18,1.18,1.18h2.85c.65,0,1.18.53,1.18,1.18v9.3c0,.65.53,1.18,1.18,1.18h17.57c.65,0,1.18.53,1.18,1.18v45.41c0,.65-.53,1.18-1.18,1.18h-78.51c-.65,0-1.18-.53-1.18-1.18Z" />
    <path d="m2464.98,141.12v-45.41c0-.65.53-1.18,1.18-1.18h17.57c.65,0,1.18-.53,1.18-1.18v-9.3c0-.65.53-1.18,1.18-1.18h2.85c.65,0,1.18-.53,1.18-1.18v-9.63c0-.65.53-1.18,1.18-1.18h28.19c.65,0,1.18.53,1.18,1.18v9.63c0,.65.53,1.18,1.18,1.18h2.85c.65,0,1.18.53,1.18,1.18v9.3c0,.65.53,1.18,1.18,1.18h17.57c.65,0,1.18.53,1.18,1.18v45.41c0,.65-.53,1.18-1.18,1.18h-78.51c-.65,0-1.18-.53-1.18-1.18Z" />
    <path d="m2562.83,141.12v-45.41c0-.65.53-1.18,1.18-1.18h17.57c.65,0,1.18-.53,1.18-1.18v-9.3c0-.65.53-1.18,1.18-1.18h2.85c.65,0,1.18-.53,1.18-1.18v-9.63c0-.65.53-1.18,1.18-1.18h28.19c.65,0,1.18.53,1.18,1.18v9.63c0,.65.53,1.18,1.18,1.18h2.85c.65,0,1.18.53,1.18,1.18v9.3c0,.65.53,1.18,1.18,1.18h17.57c.65,0,1.18.53,1.18,1.18v45.41c0,.65-.53,1.18-1.18,1.18h-78.51c-.65,0-1.18-.53-1.18-1.18Z" />
    <path d="m2660.68,141.12v-45.41c0-.65.53-1.18,1.18-1.18h17.57c.65,0,1.18-.53,1.18-1.18v-9.3c0-.65.53-1.18,1.18-1.18h2.85c.65,0,1.18-.53,1.18-1.18v-9.63c0-.65.53-1.18,1.18-1.18h28.19c.65,0,1.18.53,1.18,1.18v9.63c0,.65.53,1.18,1.18,1.18h2.85c.65,0,1.18.53,1.18,1.18v9.3c0,.65.53,1.18,1.18,1.18h17.57c.65,0,1.18.53,1.18,1.18v45.41c0,.65-.53,1.18-1.18,1.18h-78.51c-.65,0-1.18-.53-1.18-1.18Z" />
    <path d="m2367.13,171.26v45.41c0,.65.53,1.18,1.18,1.18h17.57c.65,0,1.18.53,1.18,1.18v9.3c0,.65.53,1.18,1.18,1.18h2.85c.65,0,1.18.53,1.18,1.18v9.63c0,.65.53,1.18,1.18,1.18h28.19c.65,0,1.18-.53,1.18-1.18v-9.63c0-.65.53-1.18,1.18-1.18h2.85c.65,0,1.18-.53,1.18-1.18v-9.3c0-.65.53-1.18,1.18-1.18h17.57c.65,0,1.18-.53,1.18-1.18v-45.41c0-.65-.53-1.18-1.18-1.18h-78.51c-.65,0-1.18.53-1.18,1.18Z" />
    <path d="m2464.98,171.26v45.41c0,.65.53,1.18,1.18,1.18h17.57c.65,0,1.18.53,1.18,1.18v9.3c0,.65.53,1.18,1.18,1.18h2.85c.65,0,1.18.53,1.18,1.18v9.63c0,.65.53,1.18,1.18,1.18h28.19c.65,0,1.18-.53,1.18-1.18v-9.63c0-.65.53-1.18,1.18-1.18h2.85c.65,0,1.18-.53,1.18-1.18v-9.3c0-.65.53-1.18,1.18-1.18h17.57c.65,0,1.18-.53,1.18-1.18v-45.41c0-.65-.53-1.18-1.18-1.18h-78.51c-.65,0-1.18.53-1.18,1.18Z" />
    <path d="m2562.83,171.26v45.41c0,.65.53,1.18,1.18,1.18h17.57c.65,0,1.18.53,1.18,1.18v9.3c0,.65.53,1.18,1.18,1.18h2.85c.65,0,1.18.53,1.18,1.18v9.63c0,.65.53,1.18,1.18,1.18h28.19c.65,0,1.18-.53,1.18-1.18v-9.63c0-.65.53-1.18,1.18-1.18h2.85c.65,0,1.18-.53,1.18-1.18v-9.3c0-.65.53-1.18,1.18-1.18h17.57c.65,0,1.18-.53,1.18-1.18v-45.41c0-.65-.53-1.18-1.18-1.18h-78.51c-.65,0-1.18.53-1.18,1.18Z" />
    <path d="m2660.68,171.26v45.41c0,.65.53,1.18,1.18,1.18h17.57c.65,0,1.18.53,1.18,1.18v9.3c0,.65.53,1.18,1.18,1.18h2.85c.65,0,1.18.53,1.18,1.18v9.63c0,.65.53,1.18,1.18,1.18h28.19c.65,0,1.18-.53,1.18-1.18v-9.63c0-.65.53-1.18,1.18-1.18h2.85c.65,0,1.18-.53,1.18-1.18v-9.3c0-.65.53-1.18,1.18-1.18h17.57c.65,0,1.18-.53,1.18-1.18v-45.41c0-.65-.53-1.18-1.18-1.18h-78.51c-.65,0-1.18.53-1.18,1.18Z" />
  </g>
  <circle class="j" cx="2381.4" cy="271.76" r="5.29" />
  <circle class="j" cx="2433.85" cy="271.76" r="5.29" />
  <circle class="j" cx="2531.7" cy="271.76" r="5.29" />
  <circle class="j" cx="2479.26" cy="271.76" r="5.29" />
  <circle class="j" cx="2727.41" cy="271.76" r="5.29" />
  <circle class="j" cx="2674.96" cy="271.76" r="5.29" />
  <circle class="j" cx="2577.11" cy="271.76" r="5.29" />
  <circle class="j" cx="2629.55" cy="271.76" r="5.29" />
  <rect class="i" x="1892.55" y="65.02" width="420.72" height="182.33" />
  <path class="f" d="m2310.94,68.96v174.45c0,.55-.45,1-1,1h-41.94c-.55,0-1-.45-1-1v-11c0-.55.45-1,1-1h3.22c.55,0,1-.45,1-1v-9.67c0-.55.45-1,1-1h17.94c.55,0,1-.45,1-1v-49.78c0-.55-.45-1-1-1h-82.86c-.55,0-1,.45-1,1v49.78c0,.55.45,1,1,1h17.94c.55,0,1,.45,1,1v9.67c0,.55.45,1,1,1h3.22c.55,0,1,.45,1,1v11c0,.55-.45,1-1,1h-61.29c-.55,0-1-.45-1-1v-11c0-.55.45-1,1-1h3.22c.55,0,1-.45,1-1v-9.67c0-.55.45-1,1-1h17.94c.55,0,1-.45,1-1v-49.78c0-.55-.45-1-1-1h-82.88c-.55,0-1,.45-1,1v49.78c0,.55.45,1,1,1h17.94c.55,0,1,.45,1,1v9.67c0,.55.45,1,1,1h3.22c.55,0,1,.45,1,1v11c0,.55-.45,1-1,1h-61.3c-.55,0-1-.45-1-1v-11c0-.55.45-1,1-1h3.22c.55,0,1-.45,1-1v-9.67c0-.55.45-1,1-1h17.94c.55,0,1-.45,1-1v-49.78c0-.55-.45-1-1-1h-82.88c-.55,0-1,.45-1,1v49.78c0,.55.45,1,1,1h17.94c.55,0,1,.45,1,1v9.67c0,.55.45,1,1,1h3.22c.55,0,1,.45,1,1v11c0,.55-.45,1-1,1h-61.29c-.55,0-1-.45-1-1v-11c0-.55.45-1,1-1h3.22c.55,0,1-.45,1-1v-9.67c0-.55.45-1,1-1h17.94c.55,0,1-.45,1-1v-49.78c0-.55-.45-1-1-1h-82.88c-.55,0-1,.45-1,1v49.78c0,.55.45,1,1,1h17.94c.55,0,1,.45,1,1v9.67c0,.55.45,1,1,1h3.22c.55,0,1,.45,1,1v11c0,.55-.45,1-1,1h-42.02c-.55,0-1-.45-1-1V68.96c0-.55.45-1,1-1h42.02c.55,0,1,.45,1,1v11c0,.55-.45,1-1,1h-3.22c-.55,0-1,.45-1,1v9.67c0,.55-.45,1-1,1h-17.94c-.55,0-1,.45-1,1v49.78c0,.55.45,1,1,1h82.88c.55,0,1-.45,1-1v-49.78c0-.55-.45-1-1-1h-17.94c-.55,0-1-.45-1-1v-9.67c0-.55-.45-1-1-1h-3.22c-.55,0-1-.45-1-1v-11c0-.55.45-1,1-1h61.29c.55,0,1,.45,1,1v11c0,.55-.45,1-1,1h-3.22c-.55,0-1,.45-1,1v9.67c0,.55-.45,1-1,1h-17.94c-.55,0-1,.45-1,1v49.78c0,.55.45,1,1,1h82.88c.55,0,1-.45,1-1v-49.78c0-.55-.45-1-1-1h-17.94c-.55,0-1-.45-1-1v-9.67c0-.55-.45-1-1-1h-3.22c-.55,0-1-.45-1-1v-11c0-.55.45-1,1-1h61.3c.55,0,1,.45,1,1v11c0,.55-.45,1-1,1h-3.22c-.55,0-1,.45-1,1v9.67c0,.55-.45,1-1,1h-17.94c-.55,0-1,.45-1,1v49.78c0,.55.45,1,1,1h82.88c.55,0,1-.45,1-1v-49.78c0-.55-.45-1-1-1h-17.94c-.55,0-1-.45-1-1v-9.67c0-.55-.45-1-1-1h-3.22c-.55,0-1-.45-1-1v-11c0-.55.45-1,1-1h61.29c.55,0,1,.45,1,1v11c0,.55-.45,1-1,1h-3.22c-.55,0-1,.45-1,1v9.67c0,.55-.45,1-1,1h-17.94c-.55,0-1,.45-1,1v49.78c0,.55.45,1,1,1h82.86c.55,0,1-.45,1-1v-49.78c0-.55-.45-1-1-1h-17.94c-.55,0-1-.45-1-1v-9.67c0-.55-.45-1-1-1h-3.22c-.55,0-1-.45-1-1v-11c0-.55.45-1,1-1h41.94c.55,0,1,.45,1,1Z" />
  <g>
    <g>
      <rect class="e" x="1982.4" y="77.08" width="19.33" height="11.22" rx=".88" ry=".88" />
      <rect class="k" x="1910.63" y="77.08" width="19.33" height="11.22" rx=".88" ry=".88" />
    </g>
    <g>
      <rect class="e" x="2080.26" y="77.08" width="19.33" height="11.22" rx=".88" ry=".88" />
      <rect class="k" x="2008.48" y="77.08" width="19.33" height="11.22" rx=".88" ry=".88" />
    </g>
    <g>
      <rect class="e" x="2178.11" y="77.08" width="19.33" height="11.22" rx=".88" ry=".88" />
      <rect class="k" x="2106.33" y="77.08" width="19.33" height="11.22" rx=".88" ry=".88" />
    </g>
    <g>
      <rect class="e" x="2275.96" y="77.08" width="19.33" height="11.22" rx=".88" ry=".88" />
      <rect class="k" x="2204.18" y="77.08" width="19.33" height="11.22" rx=".88" ry=".88" />
    </g>
    <g>
      <rect class="e" x="1982.4" y="224.08" width="19.33" height="11.22" rx=".88" ry=".88" />
      <rect class="k" x="1910.63" y="224.08" width="19.33" height="11.22" rx=".88" ry=".88" />
    </g>
    <g>
      <rect class="e" x="2080.26" y="224.08" width="19.33" height="11.22" rx=".88" ry=".88" />
      <rect class="k" x="2008.48" y="224.08" width="19.33" height="11.22" rx=".88" ry=".88" />
    </g>
    <g>
      <rect class="e" x="2178.11" y="224.08" width="19.33" height="11.22" rx=".88" ry=".88" />
      <rect class="k" x="2106.33" y="224.08" width="19.33" height="11.22" rx=".88" ry=".88" />
    </g>
    <g>
      <rect class="e" x="2275.96" y="224.08" width="19.33" height="11.22" rx=".88" ry=".88" />
      <rect class="k" x="2204.18" y="224.08" width="19.33" height="11.22" rx=".88" ry=".88" />
    </g>
  </g>
  <g>
    <path d="m1915.74,141.12v-45.41c0-.65.53-1.18,1.18-1.18h17.57c.65,0,1.18-.53,1.18-1.18v-9.3c0-.65.53-1.18,1.18-1.18h2.85c.65,0,1.18-.53,1.18-1.18v-9.63c0-.65.53-1.18,1.18-1.18h28.19c.65,0,1.18.53,1.18,1.18v9.63c0,.65.53,1.18,1.18,1.18h2.85c.65,0,1.18.53,1.18,1.18v9.3c0,.65.53,1.18,1.18,1.18h17.57c.65,0,1.18.53,1.18,1.18v45.41c0,.65-.53,1.18-1.18,1.18h-78.51c-.65,0-1.18-.53-1.18-1.18Z" />
    <path d="m2013.59,141.12v-45.41c0-.65.53-1.18,1.18-1.18h17.57c.65,0,1.18-.53,1.18-1.18v-9.3c0-.65.53-1.18,1.18-1.18h2.85c.65,0,1.18-.53,1.18-1.18v-9.63c0-.65.53-1.18,1.18-1.18h28.19c.65,0,1.18.53,1.18,1.18v9.63c0,.65.53,1.18,1.18,1.18h2.85c.65,0,1.18.53,1.18,1.18v9.3c0,.65.53,1.18,1.18,1.18h17.57c.65,0,1.18.53,1.18,1.18v45.41c0,.65-.53,1.18-1.18,1.18h-78.51c-.65,0-1.18-.53-1.18-1.18Z" />
    <path d="m2111.45,141.12v-45.41c0-.65.53-1.18,1.18-1.18h17.57c.65,0,1.18-.53,1.18-1.18v-9.3c0-.65.53-1.18,1.18-1.18h2.85c.65,0,1.18-.53,1.18-1.18v-9.63c0-.65.53-1.18,1.18-1.18h28.19c.65,0,1.18.53,1.18,1.18v9.63c0,.65.53,1.18,1.18,1.18h2.85c.65,0,1.18.53,1.18,1.18v9.3c0,.65.53,1.18,1.18,1.18h17.57c.65,0,1.18.53,1.18,1.18v45.41c0,.65-.53,1.18-1.18,1.18h-78.51c-.65,0-1.18-.53-1.18-1.18Z" />
    <path d="m2209.3,141.12v-45.41c0-.65.53-1.18,1.18-1.18h17.57c.65,0,1.18-.53,1.18-1.18v-9.3c0-.65.53-1.18,1.18-1.18h2.85c.65,0,1.18-.53,1.18-1.18v-9.63c0-.65.53-1.18,1.18-1.18h28.19c.65,0,1.18.53,1.18,1.18v9.63c0,.65.53,1.18,1.18,1.18h2.85c.65,0,1.18.53,1.18,1.18v9.3c0,.65.53,1.18,1.18,1.18h17.57c.65,0,1.18.53,1.18,1.18v45.41c0,.65-.53,1.18-1.18,1.18h-78.51c-.65,0-1.18-.53-1.18-1.18Z" />
    <path d="m1915.74,171.26v45.41c0,.65.53,1.18,1.18,1.18h17.57c.65,0,1.18.53,1.18,1.18v9.3c0,.65.53,1.18,1.18,1.18h2.85c.65,0,1.18.53,1.18,1.18v9.63c0,.65.53,1.18,1.18,1.18h28.19c.65,0,1.18-.53,1.18-1.18v-9.63c0-.65.53-1.18,1.18-1.18h2.85c.65,0,1.18-.53,1.18-1.18v-9.3c0-.65.53-1.18,1.18-1.18h17.57c.65,0,1.18-.53,1.18-1.18v-45.41c0-.65-.53-1.18-1.18-1.18h-78.51c-.65,0-1.18.53-1.18,1.18Z" />
    <path d="m2013.59,171.26v45.41c0,.65.53,1.18,1.18,1.18h17.57c.65,0,1.18.53,1.18,1.18v9.3c0,.65.53,1.18,1.18,1.18h2.85c.65,0,1.18.53,1.18,1.18v9.63c0,.65.53,1.18,1.18,1.18h28.19c.65,0,1.18-.53,1.18-1.18v-9.63c0-.65.53-1.18,1.18-1.18h2.85c.65,0,1.18-.53,1.18-1.18v-9.3c0-.65.53-1.18,1.18-1.18h17.57c.65,0,1.18-.53,1.18-1.18v-45.41c0-.65-.53-1.18-1.18-1.18h-78.51c-.65,0-1.18.53-1.18,1.18Z" />
    <path d="m2111.45,171.26v45.41c0,.65.53,1.18,1.18,1.18h17.57c.65,0,1.18.53,1.18,1.18v9.3c0,.65.53,1.18,1.18,1.18h2.85c.65,0,1.18.53,1.18,1.18v9.63c0,.65.53,1.18,1.18,1.18h28.19c.65,0,1.18-.53,1.18-1.18v-9.63c0-.65.53-1.18,1.18-1.18h2.85c.65,0,1.18-.53,1.18-1.18v-9.3c0-.65.53-1.18,1.18-1.18h17.57c.65,0,1.18-.53,1.18-1.18v-45.41c0-.65-.53-1.18-1.18-1.18h-78.51c-.65,0-1.18.53-1.18,1.18Z" />
    <path d="m2209.3,171.26v45.41c0,.65.53,1.18,1.18,1.18h17.57c.65,0,1.18.53,1.18,1.18v9.3c0,.65.53,1.18,1.18,1.18h2.85c.65,0,1.18.53,1.18,1.18v9.63c0,.65.53,1.18,1.18,1.18h28.19c.65,0,1.18-.53,1.18-1.18v-9.63c0-.65.53-1.18,1.18-1.18h2.85c.65,0,1.18-.53,1.18-1.18v-9.3c0-.65.53-1.18,1.18-1.18h17.57c.65,0,1.18-.53,1.18-1.18v-45.41c0-.65-.53-1.18-1.18-1.18h-78.51c-.65,0-1.18.53-1.18,1.18Z" />
  </g>
  <circle class="j" cx="1930.02" cy="271.76" r="5.29" />
  <circle class="j" cx="1982.46" cy="271.76" r="5.29" />
  <circle class="j" cx="2080.32" cy="271.76" r="5.29" />
  <circle class="j" cx="2027.87" cy="271.76" r="5.29" />
  <circle class="j" cx="2276.02" cy="271.76" r="5.29" />
  <circle class="j" cx="2223.58" cy="271.76" r="5.29" />
  <circle class="j" cx="2125.72" cy="271.76" r="5.29" />
  <circle class="j" cx="2178.17" cy="271.76" r="5.29" />
  <rect class="i" x="1441.16" y="65.02" width="420.72" height="182.33" />
  <path class="f" d="m1859.55,68.96v174.45c0,.55-.45,1-1,1h-41.94c-.55,0-1-.45-1-1v-11c0-.55.45-1,1-1h3.22c.55,0,1-.45,1-1v-9.67c0-.55.45-1,1-1h17.94c.55,0,1-.45,1-1v-49.78c0-.55-.45-1-1-1h-82.86c-.55,0-1,.45-1,1v49.78c0,.55.45,1,1,1h17.94c.55,0,1,.45,1,1v9.67c0,.55.45,1,1,1h3.22c.55,0,1,.45,1,1v11c0,.55-.45,1-1,1h-61.29c-.55,0-1-.45-1-1v-11c0-.55.45-1,1-1h3.22c.55,0,1-.45,1-1v-9.67c0-.55.45-1,1-1h17.94c.55,0,1-.45,1-1v-49.78c0-.55-.45-1-1-1h-82.88c-.55,0-1,.45-1,1v49.78c0,.55.45,1,1,1h17.94c.55,0,1,.45,1,1v9.67c0,.55.45,1,1,1h3.22c.55,0,1,.45,1,1v11c0,.55-.45,1-1,1h-61.3c-.55,0-1-.45-1-1v-11c0-.55.45-1,1-1h3.22c.55,0,1-.45,1-1v-9.67c0-.55.45-1,1-1h17.94c.55,0,1-.45,1-1v-49.78c0-.55-.45-1-1-1h-82.88c-.55,0-1,.45-1,1v49.78c0,.55.45,1,1,1h17.94c.55,0,1,.45,1,1v9.67c0,.55.45,1,1,1h3.22c.55,0,1,.45,1,1v11c0,.55-.45,1-1,1h-61.29c-.55,0-1-.45-1-1v-11c0-.55.45-1,1-1h3.22c.55,0,1-.45,1-1v-9.67c0-.55.45-1,1-1h17.94c.55,0,1-.45,1-1v-49.78c0-.55-.45-1-1-1h-82.88c-.55,0-1,.45-1,1v49.78c0,.55.45,1,1,1h17.94c.55,0,1,.45,1,1v9.67c0,.55.45,1,1,1h3.22c.55,0,1,.45,1,1v11c0,.55-.45,1-1,1h-42.02c-.55,0-1-.45-1-1V68.96c0-.55.45-1,1-1h42.02c.55,0,1,.45,1,1v11c0,.55-.45,1-1,1h-3.22c-.55,0-1,.45-1,1v9.67c0,.55-.45,1-1,1h-17.94c-.55,0-1,.45-1,1v49.78c0,.55.45,1,1,1h82.88c.55,0,1-.45,1-1v-49.78c0-.55-.45-1-1-1h-17.94c-.55,0-1-.45-1-1v-9.67c0-.55-.45-1-1-1h-3.22c-.55,0-1-.45-1-1v-11c0-.55.45-1,1-1h61.29c.55,0,1,.45,1,1v11c0,.55-.45,1-1,1h-3.22c-.55,0-1,.45-1,1v9.67c0,.55-.45,1-1,1h-17.94c-.55,0-1,.45-1,1v49.78c0,.55.45,1,1,1h82.88c.55,0,1-.45,1-1v-49.78c0-.55-.45-1-1-1h-17.94c-.55,0-1-.45-1-1v-9.67c0-.55-.45-1-1-1h-3.22c-.55,0-1-.45-1-1v-11c0-.55.45-1,1-1h61.3c.55,0,1,.45,1,1v11c0,.55-.45,1-1,1h-3.22c-.55,0-1,.45-1,1v9.67c0,.55-.45,1-1,1h-17.94c-.55,0-1,.45-1,1v49.78c0,.55.45,1,1,1h82.88c.55,0,1-.45,1-1v-49.78c0-.55-.45-1-1-1h-17.94c-.55,0-1-.45-1-1v-9.67c0-.55-.45-1-1-1h-3.22c-.55,0-1-.45-1-1v-11c0-.55.45-1,1-1h61.29c.55,0,1,.45,1,1v11c0,.55-.45,1-1,1h-3.22c-.55,0-1,.45-1,1v9.67c0,.55-.45,1-1,1h-17.94c-.55,0-1,.45-1,1v49.78c0,.55.45,1,1,1h82.86c.55,0,1-.45,1-1v-49.78c0-.55-.45-1-1-1h-17.94c-.55,0-1-.45-1-1v-9.67c0-.55-.45-1-1-1h-3.22c-.55,0-1-.45-1-1v-11c0-.55.45-1,1-1h41.94c.55,0,1,.45,1,1Z" />
  <g>
    <g>
      <rect class="e" x="1531.02" y="77.08" width="19.33" height="11.22" rx=".88" ry=".88" />
      <rect class="k" x="1459.24" y="77.08" width="19.33" height="11.22" rx=".88" ry=".88" />
    </g>
    <g>
      <rect class="e" x="1628.87" y="77.08" width="19.33" height="11.22" rx=".88" ry=".88" />
      <rect class="k" x="1557.09" y="77.08" width="19.33" height="11.22" rx=".88" ry=".88" />
    </g>
    <g>
      <rect class="e" x="1726.72" y="77.08" width="19.33" height="11.22" rx=".88" ry=".88" />
      <rect class="k" x="1654.94" y="77.08" width="19.33" height="11.22" rx=".88" ry=".88" />
    </g>
    <g>
      <rect class="e" x="1824.58" y="77.08" width="19.33" height="11.22" rx=".88" ry=".88" />
      <rect class="k" x="1752.8" y="77.08" width="19.33" height="11.22" rx=".88" ry=".88" />
    </g>
    <g>
      <rect class="e" x="1531.02" y="224.08" width="19.33" height="11.22" rx=".88" ry=".88" />
      <rect class="k" x="1459.24" y="224.08" width="19.33" height="11.22" rx=".88" ry=".88" />
    </g>
    <g>
      <rect class="e" x="1628.87" y="224.08" width="19.33" height="11.22" rx=".88" ry=".88" />
      <rect class="k" x="1557.09" y="224.08" width="19.33" height="11.22" rx=".88" ry=".88" />
    </g>
    <g>
      <rect class="e" x="1726.72" y="224.08" width="19.33" height="11.22" rx=".88" ry=".88" />
      <rect class="k" x="1654.94" y="224.08" width="19.33" height="11.22" rx=".88" ry=".88" />
    </g>
    <g>
      <rect class="e" x="1824.58" y="224.08" width="19.33" height="11.22" rx=".88" ry=".88" />
      <rect class="k" x="1752.8" y="224.08" width="19.33" height="11.22" rx=".88" ry=".88" />
    </g>
  </g>
  <g>
    <path d="m1464.36,141.12v-45.41c0-.65.53-1.18,1.18-1.18h17.57c.65,0,1.18-.53,1.18-1.18v-9.3c0-.65.53-1.18,1.18-1.18h2.85c.65,0,1.18-.53,1.18-1.18v-9.63c0-.65.53-1.18,1.18-1.18h28.19c.65,0,1.18.53,1.18,1.18v9.63c0,.65.53,1.18,1.18,1.18h2.85c.65,0,1.18.53,1.18,1.18v9.3c0,.65.53,1.18,1.18,1.18h17.57c.65,0,1.18.53,1.18,1.18v45.41c0,.65-.53,1.18-1.18,1.18h-78.51c-.65,0-1.18-.53-1.18-1.18Z" />
    <path d="m1562.21,141.12v-45.41c0-.65.53-1.18,1.18-1.18h17.57c.65,0,1.18-.53,1.18-1.18v-9.3c0-.65.53-1.18,1.18-1.18h2.85c.65,0,1.18-.53,1.18-1.18v-9.63c0-.65.53-1.18,1.18-1.18h28.19c.65,0,1.18.53,1.18,1.18v9.63c0,.65.53,1.18,1.18,1.18h2.85c.65,0,1.18.53,1.18,1.18v9.3c0,.65.53,1.18,1.18,1.18h17.57c.65,0,1.18.53,1.18,1.18v45.41c0,.65-.53,1.18-1.18,1.18h-78.51c-.65,0-1.18-.53-1.18-1.18Z" />
    <path d="m1660.06,141.12v-45.41c0-.65.53-1.18,1.18-1.18h17.57c.65,0,1.18-.53,1.18-1.18v-9.3c0-.65.53-1.18,1.18-1.18h2.85c.65,0,1.18-.53,1.18-1.18v-9.63c0-.65.53-1.18,1.18-1.18h28.19c.65,0,1.18.53,1.18,1.18v9.63c0,.65.53,1.18,1.18,1.18h2.85c.65,0,1.18.53,1.18,1.18v9.3c0,.65.53,1.18,1.18,1.18h17.57c.65,0,1.18.53,1.18,1.18v45.41c0,.65-.53,1.18-1.18,1.18h-78.51c-.65,0-1.18-.53-1.18-1.18Z" />
    <path d="m1757.91,141.12v-45.41c0-.65.53-1.18,1.18-1.18h17.57c.65,0,1.18-.53,1.18-1.18v-9.3c0-.65.53-1.18,1.18-1.18h2.85c.65,0,1.18-.53,1.18-1.18v-9.63c0-.65.53-1.18,1.18-1.18h28.19c.65,0,1.18.53,1.18,1.18v9.63c0,.65.53,1.18,1.18,1.18h2.85c.65,0,1.18.53,1.18,1.18v9.3c0,.65.53,1.18,1.18,1.18h17.57c.65,0,1.18.53,1.18,1.18v45.41c0,.65-.53,1.18-1.18,1.18h-78.51c-.65,0-1.18-.53-1.18-1.18Z" />
    <path d="m1464.36,171.26v45.41c0,.65.53,1.18,1.18,1.18h17.57c.65,0,1.18.53,1.18,1.18v9.3c0,.65.53,1.18,1.18,1.18h2.85c.65,0,1.18.53,1.18,1.18v9.63c0,.65.53,1.18,1.18,1.18h28.19c.65,0,1.18-.53,1.18-1.18v-9.63c0-.65.53-1.18,1.18-1.18h2.85c.65,0,1.18-.53,1.18-1.18v-9.3c0-.65.53-1.18,1.18-1.18h17.57c.65,0,1.18-.53,1.18-1.18v-45.41c0-.65-.53-1.18-1.18-1.18h-78.51c-.65,0-1.18.53-1.18,1.18Z" />
    <path d="m1562.21,171.26v45.41c0,.65.53,1.18,1.18,1.18h17.57c.65,0,1.18.53,1.18,1.18v9.3c0,.65.53,1.18,1.18,1.18h2.85c.65,0,1.18.53,1.18,1.18v9.63c0,.65.53,1.18,1.18,1.18h28.19c.65,0,1.18-.53,1.18-1.18v-9.63c0-.65.53-1.18,1.18-1.18h2.85c.65,0,1.18-.53,1.18-1.18v-9.3c0-.65.53-1.18,1.18-1.18h17.57c.65,0,1.18-.53,1.18-1.18v-45.41c0-.65-.53-1.18-1.18-1.18h-78.51c-.65,0-1.18.53-1.18,1.18Z" />
    <path d="m1660.06,171.26v45.41c0,.65.53,1.18,1.18,1.18h17.57c.65,0,1.18.53,1.18,1.18v9.3c0,.65.53,1.18,1.18,1.18h2.85c.65,0,1.18.53,1.18,1.18v9.63c0,.65.53,1.18,1.18,1.18h28.19c.65,0,1.18-.53,1.18-1.18v-9.63c0-.65.53-1.18,1.18-1.18h2.85c.65,0,1.18-.53,1.18-1.18v-9.3c0-.65.53-1.18,1.18-1.18h17.57c.65,0,1.18-.53,1.18-1.18v-45.41c0-.65-.53-1.18-1.18-1.18h-78.51c-.65,0-1.18.53-1.18,1.18Z" />
    <path d="m1757.91,171.26v45.41c0,.65.53,1.18,1.18,1.18h17.57c.65,0,1.18.53,1.18,1.18v9.3c0,.65.53,1.18,1.18,1.18h2.85c.65,0,1.18.53,1.18,1.18v9.63c0,.65.53,1.18,1.18,1.18h28.19c.65,0,1.18-.53,1.18-1.18v-9.63c0-.65.53-1.18,1.18-1.18h2.85c.65,0,1.18-.53,1.18-1.18v-9.3c0-.65.53-1.18,1.18-1.18h17.57c.65,0,1.18-.53,1.18-1.18v-45.41c0-.65-.53-1.18-1.18-1.18h-78.51c-.65,0-1.18.53-1.18,1.18Z" />
  </g>
  <circle class="j" cx="1478.63" cy="271.76" r="5.29" />
  <circle class="j" cx="1531.08" cy="271.76" r="5.29" />
  <circle class="j" cx="1628.93" cy="271.76" r="5.29" />
  <circle class="j" cx="1576.49" cy="271.76" r="5.29" />
  <circle class="j" cx="1824.63" cy="271.76" r="5.29" />
  <circle class="j" cx="1772.19" cy="271.76" r="5.29" />
  <circle class="j" cx="1674.34" cy="271.76" r="5.29" />
  <circle class="j" cx="1726.78" cy="271.76" r="5.29" />
  <g>
    <g>
      <path class="j" d="m2426.03,30.96h3.51c1.45,0,2.54.34,3.27,1.02.64.6.96,1.43.96,2.49,0,1.18-.41,2.06-1.23,2.66-.73.52-1.75.78-3.06.78h-1.92v3.85h-1.53v-10.8Zm3.54,1.24h-2.01v4.46h1.95c.99,0,1.7-.21,2.13-.65.36-.35.54-.86.54-1.54,0-.77-.26-1.35-.77-1.74-.45-.35-1.06-.53-1.84-.53Z" />
      <path class="j" d="m2434.75,37.86c0-1.43.43-2.51,1.28-3.24.68-.59,1.54-.88,2.58-.88,1.21,0,2.16.38,2.85,1.15.66.72.99,1.71.99,2.97,0,1.41-.42,2.48-1.25,3.23-.68.6-1.55.9-2.61.9-1.21,0-2.17-.4-2.87-1.2-.65-.73-.98-1.7-.98-2.92Zm1.5,0c0,1,.26,1.77.77,2.29.42.44.96.66,1.6.66.76,0,1.34-.29,1.75-.85.38-.52.57-1.22.57-2.1,0-1.02-.25-1.79-.75-2.31-.41-.43-.94-.65-1.59-.65-.75,0-1.33.29-1.75.85-.4.52-.6,1.22-.6,2.1Z" />
      <path class="j" d="m2450.47,35.64v1.26h-4.77v3.57h5.21v1.29h-6.74v-10.8h6.74v1.29h-5.21v3.39h4.77Z" />
      <path class="j" d="m2455.48,40.08v-2.5h-2.48v-1.27h2.48v-2.52h1.37v2.52h2.46v1.27h-2.46v2.5h-1.37Z" />
      <path class="j" d="m2464.48,40.08v-2.5h-2.48v-1.27h2.48v-2.52h1.37v2.52h2.46v1.27h-2.46v2.5h-1.37Z" />
      <path class="j" d="m2474.92,39.21h1.53c.11.49.37.88.78,1.15.39.27.87.4,1.44.4.71,0,1.28-.24,1.71-.73.38-.44.57-1.02.57-1.74,0-.81-.24-1.43-.71-1.85-.39-.36-.91-.54-1.54-.54-.86,0-1.56.32-2.1.96h-1.28l.22-5.61h6.45v1.21h-5.14l-.12,3.08c.64-.51,1.4-.77,2.29-.77,1.04,0,1.88.34,2.5,1.02.6.65.9,1.5.9,2.55s-.38,1.98-1.12,2.67c-.69.64-1.58.96-2.66.96s-2-.32-2.71-.96c-.56-.5-.9-1.1-1.02-1.81Z" />
      <path class="j" d="m2493.26,35.95v5.81h-1.12l-.21-1.29c-.36.51-.86.9-1.49,1.16-.55.24-1.16.36-1.83.36-1.49,0-2.68-.55-3.57-1.65-.81-1.02-1.21-2.35-1.21-3.99,0-1.9.54-3.36,1.63-4.38.88-.82,1.99-1.23,3.32-1.23s2.36.37,3.21,1.11c.72.62,1.14,1.38,1.26,2.28h-1.5c-.14-.71-.5-1.25-1.09-1.62-.51-.33-1.13-.5-1.88-.5-1.07,0-1.91.4-2.52,1.21-.58.77-.87,1.81-.87,3.12,0,1.48.39,2.62,1.17,3.42.61.64,1.35.96,2.23.96s1.68-.28,2.28-.85c.54-.5.81-1.11.81-1.84v-.84h-3.17v-1.23h4.54Z" />
      <path class="j" d="m2496.46,41.76h-1.19v-10.8h1.44v4.08c.61-.87,1.48-1.3,2.61-1.3s1.99.4,2.61,1.2c.55.72.83,1.68.83,2.87,0,1.41-.38,2.49-1.12,3.24-.63.63-1.44.95-2.42.95-1.11,0-1.96-.42-2.54-1.26l-.22,1.04Zm4.8-3.99c0-.98-.25-1.71-.74-2.2-.39-.4-.9-.6-1.53-.6-.73,0-1.31.27-1.74.79-.41.51-.62,1.18-.62,2.01,0,1,.25,1.77.74,2.3.41.46.95.69,1.62.69.75,0,1.32-.27,1.71-.83.37-.51.55-1.23.55-2.16Z" />
      <path class="j" d="m2510.78,35.64v1.26h-4.77v3.57h5.21v1.29h-6.74v-10.8h6.74v1.29h-5.21v3.39h4.77Z" />
    </g>
    <g>
      <path class="j" d="m2531.12,39.21h1.53c.11.49.37.88.78,1.15.39.27.87.4,1.44.4.71,0,1.28-.24,1.71-.73.38-.44.57-1.02.57-1.74,0-.81-.24-1.43-.71-1.85-.39-.36-.91-.54-1.54-.54-.86,0-1.56.32-2.1.96h-1.28l.22-5.61h6.45v1.21h-5.14l-.12,3.08c.64-.51,1.4-.77,2.29-.77,1.04,0,1.88.34,2.5,1.02.6.65.9,1.5.9,2.55s-.38,1.98-1.12,2.67c-.69.64-1.58.96-2.66.96s-2-.32-2.71-.96c-.56-.5-.9-1.1-1.02-1.81Z" />
      <path class="j" d="m2543.85,41.98c-1.2,0-2.13-.51-2.8-1.53-.63-.96-.95-2.28-.95-3.97,0-1.96.41-3.41,1.21-4.35.64-.73,1.49-1.1,2.54-1.1,1.21,0,2.14.49,2.8,1.46.63.94.95,2.27.95,3.99,0,1.93-.41,3.38-1.21,4.33-.65.78-1.5,1.17-2.54,1.17Zm0-1.2c.82,0,1.42-.4,1.79-1.2.33-.7.5-1.73.5-3.1,0-1.55-.22-2.67-.65-3.36-.37-.59-.92-.88-1.63-.88-.82,0-1.42.39-1.79,1.17-.33.69-.5,1.72-.5,3.08,0,1.56.21,2.69.65,3.39.37.61.92.92,1.63.92Z" />
      <path class="j" d="m2556.56,30.96h1.5l-3.87,10.8h-1.91l-3.93-10.8h1.62l3.27,9.36,3.32-9.36Z" />
      <path class="j" d="m2564.84,36.13h-1.53c.08-.78.45-1.38,1.11-1.81.59-.39,1.33-.58,2.23-.58,1.07,0,1.89.28,2.46.84.48.48.72,1.1.72,1.86v5.33h-1.19l-.18-1.06c-.61.86-1.48,1.29-2.61,1.29-.89,0-1.58-.24-2.08-.72-.41-.4-.62-.9-.62-1.51,0-.77.27-1.37.79-1.79.47-.37,1.19-.64,2.16-.81l2.28-.39v-.39c0-.51-.17-.9-.53-1.16-.31-.23-.73-.34-1.27-.34-1.06,0-1.65.42-1.75,1.26Zm1.36,4.63c.61,0,1.14-.2,1.59-.6.4-.37.6-.79.6-1.28v-1l-1.93.35c-.71.12-1.2.31-1.46.55-.21.2-.32.47-.32.81,0,.38.13.67.39.87.26.2.64.3,1.12.3Z" />
      <path class="j" d="m2575.34,40.6v1.23c-.37.1-.73.15-1.07.15-.72,0-1.26-.23-1.62-.68-.31-.37-.46-.86-.46-1.48v-4.63h-1.16v-1.23h1.16l.09-1.88h1.35v1.88h1.68v1.23h-1.68v4.67c0,.58.27.87.82.87.26,0,.56-.04.89-.12Z" />
      <path class="j" d="m2585.91,41.76h-1.43v-9l-2.35,1.21v-1.48l2.37-1.23h1.41v10.5Z" />
      <path class="j" d="m2592.26,41.76h-1.74v-1.74h1.74v1.74Z" />
      <path class="j" d="m2596.05,34h-1.51c.12-.93.55-1.67,1.29-2.22.66-.5,1.46-.75,2.4-.75,1.07,0,1.92.3,2.57.9.57.55.85,1.25.85,2.08,0,.74-.21,1.43-.63,2.06-.34.53-.96,1.23-1.88,2.08l-2.4,2.28h4.86v1.32h-6.81v-1.32l3.42-3.29c.76-.73,1.28-1.31,1.55-1.75.27-.44.41-.89.41-1.37,0-.58-.2-1.03-.6-1.35-.35-.29-.81-.43-1.38-.43-.64,0-1.15.17-1.54.52-.34.31-.54.72-.6,1.23Z" />
      <path class="j" d="m2613.23,41.76h-1.7l-1.06-2.73h-5.15l-1.08,2.73h-1.61l4.44-10.8h1.72l4.42,10.8Zm-5.31-9.27l-2.1,5.29h4.16l-2.05-5.29Z" />
      <path class="j" d="m2616.35,40.02v1.52c0,.83-.24,1.46-.71,1.91-.33.32-.75.51-1.26.57v-.75c.62-.13.93-.63.93-1.5h-.71v-1.74h1.74Z" />
      <path class="j" d="m2622.99,39.21h1.53c.11.49.37.88.78,1.15.39.27.87.4,1.44.4.71,0,1.28-.24,1.71-.73.38-.44.57-1.02.57-1.74,0-.81-.24-1.43-.71-1.85-.39-.36-.91-.54-1.54-.54-.86,0-1.56.32-2.1.96h-1.28l.22-5.61h6.45v1.21h-5.14l-.12,3.08c.64-.51,1.4-.77,2.29-.77,1.04,0,1.88.34,2.5,1.02.6.65.9,1.5.9,2.55s-.38,1.98-1.12,2.67c-.69.64-1.58.96-2.66.96s-2-.32-2.71-.96c-.56-.5-.9-1.1-1.02-1.81Z" />
      <path class="j" d="m2639.03,32.55l-4.29,9.21h-1.63l4.39-9.21h-5.14v-1.29h6.67v1.29Z" />
      <path class="j" d="m2648.43,30.96h1.5l-3.87,10.8h-1.91l-3.93-10.8h1.62l3.27,9.36,3.32-9.36Z" />
      <path class="j" d="m2661.81,41.76h-1.44l-3.33-8.46v8.46h-1.49v-10.8h2.13l3.44,9,3.24-9h2.01v10.8h-1.44v-8.38l-3.12,8.38Z" />
      <path class="j" d="m2669.78,36.13h-1.53c.08-.78.45-1.38,1.11-1.81.59-.39,1.33-.58,2.23-.58,1.07,0,1.89.28,2.46.84.48.48.72,1.1.72,1.86v5.33h-1.19l-.18-1.06c-.61.86-1.48,1.29-2.61,1.29-.89,0-1.58-.24-2.08-.72-.41-.4-.62-.9-.62-1.51,0-.77.27-1.37.79-1.79.47-.37,1.19-.64,2.16-.81l2.28-.39v-.39c0-.51-.17-.9-.53-1.16-.31-.23-.73-.34-1.27-.34-1.06,0-1.65.42-1.75,1.26Zm1.36,4.63c.61,0,1.14-.2,1.59-.6.4-.37.6-.79.6-1.28v-1l-1.93.35c-.71.12-1.2.31-1.46.55-.21.2-.32.47-.32.81,0,.38.13.67.39.87.26.2.64.3,1.12.3Z" />
      <path class="j" d="m2683.08,33.96l-2.61,3.65,3.06,4.15h-1.75l-2.12-3.02-2.07,3.02h-1.69l2.91-4.05-2.73-3.75h1.72l1.86,2.62,1.77-2.62h1.65Z" />
    </g>
  </g>
  <g>
    <g>
      <path class="j" d="m1757.32,30.96h3.51c1.45,0,2.54.34,3.27,1.02.64.6.96,1.43.96,2.49,0,1.18-.41,2.06-1.23,2.66-.73.52-1.75.78-3.06.78h-1.92v3.85h-1.53v-10.8Zm3.54,1.24h-2.01v4.46h1.95c.99,0,1.7-.21,2.13-.65.36-.35.54-.86.54-1.54,0-.77-.26-1.35-.77-1.74-.45-.35-1.06-.53-1.84-.53Z" />
      <path class="j" d="m1766.03,37.86c0-1.43.43-2.51,1.28-3.24.68-.59,1.54-.88,2.58-.88,1.21,0,2.16.38,2.85,1.15.66.72.99,1.71.99,2.97,0,1.41-.42,2.48-1.25,3.23-.68.6-1.55.9-2.61.9-1.21,0-2.17-.4-2.87-1.2-.65-.73-.98-1.7-.98-2.92Zm1.5,0c0,1,.26,1.77.77,2.29.42.44.96.66,1.6.66.76,0,1.34-.29,1.75-.85.38-.52.57-1.22.57-2.1,0-1.02-.25-1.79-.75-2.31-.41-.43-.94-.65-1.59-.65-.75,0-1.33.29-1.75.85-.4.52-.6,1.22-.6,2.1Z" />
      <path class="j" d="m1781.75,35.64v1.26h-4.77v3.57h5.21v1.29h-6.74v-10.8h6.74v1.29h-5.21v3.39h4.77Z" />
      <path class="j" d="m1786.76,40.08v-2.5h-2.48v-1.27h2.48v-2.52h1.37v2.52h2.46v1.27h-2.46v2.5h-1.37Z" />
      <path class="j" d="m1806.55,35.95v5.81h-1.12l-.21-1.29c-.36.51-.86.9-1.49,1.16-.55.24-1.16.36-1.83.36-1.49,0-2.68-.55-3.57-1.65-.81-1.02-1.21-2.35-1.21-3.99,0-1.9.54-3.36,1.63-4.38.88-.82,1.99-1.23,3.32-1.23s2.36.37,3.21,1.11c.72.62,1.14,1.38,1.26,2.28h-1.5c-.14-.71-.5-1.25-1.09-1.62-.51-.33-1.13-.5-1.88-.5-1.07,0-1.91.4-2.52,1.21-.58.77-.87,1.81-.87,3.12,0,1.48.39,2.62,1.17,3.42.61.64,1.35.96,2.23.96s1.68-.28,2.28-.85c.54-.5.81-1.11.81-1.84v-.84h-3.17v-1.23h4.54Z" />
      <path class="j" d="m1809.74,41.76h-1.19v-10.8h1.44v4.08c.61-.87,1.48-1.3,2.61-1.3s1.99.4,2.61,1.2c.55.72.83,1.68.83,2.87,0,1.41-.38,2.49-1.12,3.24-.63.63-1.44.95-2.42.95-1.11,0-1.96-.42-2.54-1.26l-.22,1.04Zm4.8-3.99c0-.98-.25-1.71-.74-2.2-.39-.4-.9-.6-1.53-.6-.73,0-1.31.27-1.74.79-.41.51-.62,1.18-.62,2.01,0,1,.25,1.77.74,2.3.41.46.95.69,1.62.69.75,0,1.32-.27,1.71-.83.37-.51.55-1.23.55-2.16Z" />
      <path class="j" d="m1824.07,35.64v1.26h-4.77v3.57h5.21v1.29h-6.74v-10.8h6.74v1.29h-5.21v3.39h4.77Z" />
    </g>
    <g>
      <path class="j" d="m1845.68,39.21h1.53c.11.49.37.88.78,1.15.39.27.87.4,1.44.4.71,0,1.28-.24,1.71-.73.38-.44.57-1.02.57-1.74,0-.81-.24-1.43-.71-1.85-.39-.36-.91-.54-1.54-.54-.86,0-1.56.32-2.1.96h-1.28l.22-5.61h6.45v1.21h-5.14l-.12,3.08c.64-.51,1.4-.77,2.29-.77,1.04,0,1.88.34,2.5,1.02.6.65.9,1.5.9,2.55s-.38,1.98-1.12,2.67c-.69.64-1.58.96-2.66.96s-2-.32-2.71-.96c-.56-.5-.9-1.1-1.02-1.81Z" />
      <path class="j" d="m1858.41,41.98c-1.2,0-2.13-.51-2.8-1.53-.63-.96-.95-2.28-.95-3.97,0-1.96.41-3.41,1.21-4.35.64-.73,1.49-1.1,2.54-1.1,1.21,0,2.14.49,2.8,1.46.63.94.95,2.27.95,3.99,0,1.93-.41,3.38-1.21,4.33-.65.78-1.5,1.17-2.54,1.17Zm0-1.2c.82,0,1.42-.4,1.79-1.2.33-.7.5-1.73.5-3.1,0-1.55-.22-2.67-.65-3.36-.37-.59-.92-.88-1.63-.88-.82,0-1.42.39-1.79,1.17-.33.69-.5,1.72-.5,3.08,0,1.56.21,2.69.65,3.39.37.61.92.92,1.63.92Z" />
      <path class="j" d="m1871.12,30.96h1.5l-3.87,10.8h-1.91l-3.93-10.8h1.62l3.27,9.36,3.32-9.36Z" />
      <path class="j" d="m1879.4,36.13h-1.53c.08-.78.45-1.38,1.11-1.81.59-.39,1.33-.58,2.23-.58,1.07,0,1.89.28,2.46.84.48.48.72,1.1.72,1.86v5.33h-1.19l-.18-1.06c-.61.86-1.48,1.29-2.61,1.29-.89,0-1.58-.24-2.08-.72-.41-.4-.62-.9-.62-1.51,0-.77.27-1.37.79-1.79.47-.37,1.19-.64,2.16-.81l2.28-.39v-.39c0-.51-.17-.9-.53-1.16-.31-.23-.73-.34-1.27-.34-1.06,0-1.65.42-1.75,1.26Zm1.36,4.63c.61,0,1.14-.2,1.59-.6.4-.37.6-.79.6-1.28v-1l-1.93.35c-.71.12-1.2.31-1.46.55-.21.2-.32.47-.32.81,0,.38.13.67.39.87.26.2.64.3,1.12.3Z" />
      <path class="j" d="m1889.9,40.6v1.23c-.37.1-.73.15-1.07.15-.72,0-1.26-.23-1.62-.68-.31-.37-.46-.86-.46-1.48v-4.63h-1.16v-1.23h1.16l.09-1.88h1.35v1.88h1.68v1.23h-1.68v4.67c0,.58.27.87.82.87.26,0,.56-.04.89-.12Z" />
      <path class="j" d="m1899.2,41.98c-1.2,0-2.13-.51-2.8-1.53-.63-.96-.95-2.28-.95-3.97,0-1.96.41-3.41,1.21-4.35.64-.73,1.49-1.1,2.54-1.1,1.21,0,2.14.49,2.8,1.46.63.94.95,2.27.95,3.99,0,1.93-.41,3.38-1.21,4.33-.65.78-1.5,1.17-2.54,1.17Zm0-1.2c.82,0,1.42-.4,1.79-1.2.33-.7.5-1.73.5-3.1,0-1.55-.22-2.67-.65-3.36-.37-.59-.92-.88-1.63-.88-.82,0-1.42.39-1.79,1.17-.33.69-.5,1.72-.5,3.08,0,1.56.21,2.69.65,3.39.37.61.92.92,1.63.92Z" />
      <path class="j" d="m1906.82,41.76h-1.74v-1.74h1.74v1.74Z" />
      <path class="j" d="m1913.18,34.89c1.08,0,1.92.38,2.52,1.12.5.63.75,1.43.75,2.4,0,1.21-.42,2.15-1.25,2.81-.64.51-1.39.77-2.26.77-1.29,0-2.25-.5-2.88-1.48-.54-.85-.81-2.04-.81-3.57,0-2.29.45-3.92,1.33-4.89.62-.67,1.45-1,2.49-1,.85,0,1.57.23,2.16.68.52.4.85.92,1,1.54h-1.59c-.09-.33-.28-.59-.56-.77-.28-.19-.62-.28-1.03-.28-1.45,0-2.25,1.35-2.39,4.05.27-.43.62-.77,1.07-1,.44-.24.92-.36,1.44-.36Zm-2.36,3.48c0,.81.23,1.44.69,1.88.37.36.84.54,1.42.54.64,0,1.15-.23,1.53-.67.35-.42.53-.96.53-1.62,0-.79-.21-1.4-.63-1.83-.37-.38-.85-.57-1.44-.57-.72,0-1.27.25-1.65.77-.3.41-.45.91-.45,1.51Z" />
      <path class="j" d="m1927.79,41.76h-1.7l-1.06-2.73h-5.15l-1.08,2.73h-1.61l4.44-10.8h1.72l4.42,10.8Zm-5.31-9.27l-2.1,5.29h4.16l-2.05-5.29Z" />
      <path class="j" d="m1930.91,40.02v1.52c0,.83-.24,1.46-.71,1.91-.33.32-.75.51-1.26.57v-.75c.62-.13.93-.63.93-1.5h-.71v-1.74h1.74Z" />
      <path class="j" d="m1937.55,39.21h1.53c.11.49.37.88.78,1.15.39.27.87.4,1.44.4.71,0,1.28-.24,1.71-.73.38-.44.57-1.02.57-1.74,0-.81-.24-1.43-.71-1.85-.39-.36-.91-.54-1.54-.54-.86,0-1.56.32-2.1.96h-1.28l.22-5.61h6.45v1.21h-5.14l-.12,3.08c.64-.51,1.4-.77,2.29-.77,1.04,0,1.88.34,2.5,1.02.6.65.9,1.5.9,2.55s-.38,1.98-1.12,2.67c-.69.64-1.58.96-2.66.96s-2-.32-2.71-.96c-.56-.5-.9-1.1-1.02-1.81Z" />
      <path class="j" d="m1953.59,32.55l-4.29,9.21h-1.63l4.39-9.21h-5.14v-1.29h6.67v1.29Z" />
      <path class="j" d="m1962.99,30.96h1.5l-3.87,10.8h-1.91l-3.93-10.8h1.62l3.27,9.36,3.32-9.36Z" />
      <path class="j" d="m1976.37,41.76h-1.44l-3.33-8.46v8.46h-1.49v-10.8h2.13l3.44,9,3.24-9h2.01v10.8h-1.44v-8.38l-3.12,8.38Z" />
      <path class="j" d="m1984.34,36.13h-1.53c.08-.78.45-1.38,1.11-1.81.59-.39,1.33-.58,2.23-.58,1.07,0,1.89.28,2.46.84.48.48.72,1.1.72,1.86v5.33h-1.19l-.18-1.06c-.61.86-1.48,1.29-2.61,1.29-.89,0-1.58-.24-2.08-.72-.41-.4-.62-.9-.62-1.51,0-.77.27-1.37.79-1.79.47-.37,1.19-.64,2.16-.81l2.28-.39v-.39c0-.51-.17-.9-.53-1.16-.31-.23-.73-.34-1.27-.34-1.06,0-1.65.42-1.75,1.26Zm1.36,4.63c.61,0,1.14-.2,1.59-.6.4-.37.6-.79.6-1.28v-1l-1.93.35c-.71.12-1.2.31-1.46.55-.21.2-.32.47-.32.81,0,.38.13.67.39.87.26.2.64.3,1.12.3Z" />
      <path class="j" d="m1997.64,33.96l-2.61,3.65,3.06,4.15h-1.75l-2.12-3.02-2.07,3.02h-1.69l2.91-4.05-2.73-3.75h1.72l1.86,2.62,1.77-2.62h1.65Z" />
    </g>
  </g>
  <polyline class="l" points="2313.27 59.53 2313.27 47.98 1441.16 47.98 1441.16 59.53" />
  <polyline class="l" points="2764.65 59.53 2764.65 47.98 2343.94 47.98 2343.94 59.53" />
  <rect class="c" x="2795.78" y="173.98" width="410.89" height="73.38" />
  <rect class="f" x="2966.53" y="7.22" width="69.38" height="406.89" transform="translate(3211.89 -2790.55) rotate(90)" />
  <g>
    <path class="c" d="m2898.82,179.53h-98.86v63.41h28.4v3.43c0,2,1.62,3.61,3.61,3.61h34.83c2,0,3.61-1.62,3.61-3.61v-3.43h28.4v-63.41Z" />
    <path class="h" d="m2831.99,239.85h34.79v1.86c0,2.01-1.63,3.65-3.65,3.65h-27.5c-2.01,0-3.65-1.63-3.65-3.65v-1.86h0Z" />
  </g>
  <g>
    <path class="c" d="m3000.04,179.53h-98.86v63.41h28.4v3.43c0,2,1.62,3.61,3.61,3.61h34.83c2,0,3.61-1.62,3.61-3.61v-3.43h28.4v-63.41Z" />
    <path class="h" d="m2933.22,239.85h34.79v1.86c0,2.01-1.63,3.65-3.65,3.65h-27.5c-2.01,0-3.65-1.63-3.65-3.65v-1.86h0Z" />
  </g>
  <g>
    <path class="c" d="m3101.26,179.53h-98.86v63.41h28.4v3.43c0,2,1.62,3.61,3.61,3.61h34.83c2,0,3.61-1.62,3.61-3.61v-3.43h28.4v-63.41Z" />
    <path class="h" d="m3034.44,239.85h34.79v1.86c0,2.01-1.63,3.65-3.65,3.65h-27.5c-2.01,0-3.65-1.63-3.65-3.65v-1.86h0Z" />
  </g>
  <g>
    <path class="c" d="m3202.49,179.53h-98.86v63.41h28.4v3.43c0,2,1.62,3.61,3.61,3.61h34.83c2,0,3.61-1.62,3.61-3.61v-3.43h28.4v-63.41Z" />
    <path class="h" d="m3135.66,239.85h34.79v1.86c0,2.01-1.63,3.65-3.65,3.65h-27.5c-2.01,0-3.65-1.63-3.65-3.65v-1.86h0Z" />
  </g>
  <circle class="j" cx="3153.05" cy="271.76" r="5.29" />
  <circle class="j" cx="3051.83" cy="271.76" r="5.29" />
  <circle class="j" cx="2849.39" cy="271.76" r="5.29" />
  <circle class="j" cx="2950.61" cy="271.76" r="5.29" />
  <g>
    <path class="j" d="m2827.39,293.66c0-.36-.08-.64-.24-.85-.18-.25-.51-.48-.99-.69-.48-.21-1.21-.45-2.18-.72-1.3-.36-2.19-.8-2.68-1.33-.4-.43-.6-1-.6-1.73,0-.87.38-1.56,1.14-2.07.7-.47,1.61-.71,2.73-.71,1.25,0,2.27.29,3.05.88.7.52,1.11,1.2,1.23,2.04h-1.58c-.09-.57-.39-1-.9-1.28-.45-.26-1.05-.39-1.8-.39-.84,0-1.46.16-1.86.48-.32.25-.48.58-.48.98,0,.26.04.47.13.64s.23.31.44.44c.39.26,1.14.54,2.26.85,1.56.44,2.62.94,3.17,1.5.46.46.69,1.09.69,1.89,0,.95-.42,1.73-1.25,2.35-.78.57-1.77.86-2.97.86s-2.29-.33-3.11-1c-.71-.58-1.13-1.33-1.27-2.25h1.57c.1.66.42,1.17.95,1.51.48.32,1.09.48,1.83.48.92,0,1.62-.21,2.12-.63.4-.34.6-.76.6-1.26Z" />
    <path class="j" d="m2836.81,290.75v1.28h-4.56v4.56h-1.53v-10.8h6.62v1.29h-5.08v3.67h4.56Z" />
    <path class="j" d="m2839.14,285.79h3.51c1.45,0,2.54.34,3.27,1.02.64.6.96,1.43.96,2.49,0,1.18-.41,2.07-1.23,2.66-.73.52-1.75.78-3.06.78h-1.92v3.85h-1.53v-10.8Zm3.54,1.25h-2.01v4.46h1.95c.99,0,1.7-.21,2.13-.65.36-.35.54-.86.54-1.54,0-.77-.26-1.35-.77-1.74-.45-.35-1.06-.53-1.84-.53Z" />
    <path class="j" d="m2851.3,294.91v-2.5h-2.48v-1.28h2.48v-2.52h1.37v2.52h2.46v1.28h-2.46v2.5h-1.37Z" />
    <path class="j" d="m2866.14,286.09h1.5v7.29h1.7v1.23h-1.7v1.98h-1.4v-1.98h-4.6v-1.33l4.5-7.19Zm-2.9,7.29h3v-4.96l-3,4.96Z" />
    <path class="j" d="m2874.3,292.96c-1.04,0-1.86-.35-2.46-1.06-.54-.63-.81-1.45-.81-2.46,0-1.14.38-2.04,1.14-2.72.64-.57,1.43-.85,2.37-.85,2.46,0,3.69,1.68,3.69,5.05,0,3.93-1.29,5.9-3.87,5.9-.86,0-1.58-.23-2.17-.69-.51-.4-.85-.92-1-1.56h1.59c.21.72.76,1.08,1.65,1.08.74,0,1.3-.33,1.69-.99.38-.66.61-1.67.67-3.04-.27.43-.62.76-1.06,1-.44.24-.91.35-1.43.35Zm2.35-3.48c0-.81-.23-1.44-.69-1.88-.37-.36-.85-.54-1.43-.54-.64,0-1.15.23-1.53.69-.35.41-.53.95-.53,1.61,0,.81.23,1.43.67,1.88.37.35.83.52,1.4.52.72,0,1.27-.25,1.65-.76.3-.41.45-.92.45-1.51Z" />
  </g>
  <g>
    <path class="j" d="m2928.61,291.5c0-.36-.08-.64-.24-.85-.18-.25-.51-.48-.99-.69-.48-.21-1.21-.45-2.18-.72-1.3-.36-2.19-.8-2.68-1.33-.4-.43-.6-1-.6-1.73,0-.87.38-1.56,1.14-2.07.7-.47,1.61-.71,2.73-.71,1.25,0,2.27.29,3.05.88.7.52,1.11,1.2,1.23,2.04h-1.58c-.09-.57-.39-1-.9-1.28-.45-.26-1.05-.39-1.8-.39-.84,0-1.46.16-1.86.48-.32.25-.48.58-.48.98,0,.26.04.47.13.64s.23.31.44.44c.39.26,1.14.54,2.26.85,1.56.44,2.62.94,3.17,1.5.46.46.69,1.09.69,1.89,0,.95-.42,1.73-1.25,2.35-.78.57-1.77.86-2.97.86s-2.29-.33-3.11-1c-.71-.58-1.13-1.33-1.27-2.25h1.57c.1.66.42,1.17.95,1.51.48.32,1.09.48,1.83.48.92,0,1.62-.21,2.12-.63.4-.34.6-.76.6-1.26Z" />
    <path class="j" d="m2938.03,288.59v1.28h-4.56v4.56h-1.53v-10.8h6.62v1.29h-5.08v3.67h4.56Z" />
    <path class="j" d="m2940.36,283.62h3.51c1.45,0,2.54.34,3.27,1.02.64.6.96,1.43.96,2.49,0,1.18-.41,2.07-1.23,2.66-.73.52-1.75.78-3.06.78h-1.92v3.85h-1.53v-10.8Zm3.54,1.25h-2.01v4.46h1.95c.99,0,1.7-.21,2.13-.65.36-.35.54-.86.54-1.54,0-.77-.26-1.35-.77-1.74-.45-.35-1.06-.53-1.84-.53Z" />
    <path class="j" d="m2952.52,292.74v-2.5h-2.48v-1.28h2.48v-2.52h1.37v2.52h2.46v1.28h-2.46v2.5h-1.37Z" />
    <path class="j" d="m2962.96,291.87h1.53c.11.49.37.88.78,1.16.39.27.87.4,1.44.4.71,0,1.28-.24,1.71-.73.38-.44.57-1.02.57-1.74,0-.81-.24-1.42-.71-1.84-.39-.36-.91-.54-1.54-.54-.86,0-1.56.32-2.1.96h-1.28l.22-5.61h6.45v1.21h-5.14l-.12,3.08c.64-.51,1.4-.76,2.29-.76,1.04,0,1.88.34,2.5,1.02.6.65.9,1.5.9,2.55s-.38,1.98-1.12,2.67c-.69.64-1.58.96-2.66.96s-2-.32-2.71-.96c-.56-.5-.9-1.11-1.02-1.82Z" />
    <path class="j" d="m2975.7,294.65c-1.2,0-2.13-.51-2.8-1.53-.63-.96-.95-2.29-.95-3.97,0-1.96.41-3.41,1.21-4.35.64-.73,1.49-1.09,2.54-1.09,1.21,0,2.14.49,2.8,1.46.63.94.95,2.27.95,3.99,0,1.93-.41,3.38-1.21,4.33-.65.78-1.5,1.17-2.54,1.17Zm0-1.2c.82,0,1.42-.4,1.79-1.2.33-.7.5-1.73.5-3.1,0-1.55-.22-2.67-.65-3.36-.37-.59-.92-.88-1.63-.88-.82,0-1.42.39-1.79,1.17-.33.69-.5,1.71-.5,3.08,0,1.56.21,2.69.65,3.39.37.61.92.92,1.63.92Z" />
  </g>
  <g>
    <path class="j" d="m3029.83,291.5c0-.36-.08-.64-.24-.85-.18-.25-.51-.48-.99-.69-.48-.21-1.21-.45-2.18-.72-1.3-.36-2.19-.8-2.68-1.33-.4-.43-.6-1-.6-1.73,0-.87.38-1.56,1.14-2.07.7-.47,1.61-.71,2.73-.71,1.25,0,2.27.29,3.05.88.7.52,1.11,1.2,1.23,2.04h-1.58c-.09-.57-.39-1-.9-1.28-.45-.26-1.05-.39-1.8-.39-.84,0-1.46.16-1.86.48-.32.25-.48.58-.48.98,0,.26.04.47.13.64s.23.31.44.44c.39.26,1.14.54,2.26.85,1.56.44,2.62.94,3.17,1.5.46.46.69,1.09.69,1.89,0,.95-.42,1.73-1.25,2.35-.78.57-1.77.86-2.97.86s-2.29-.33-3.11-1c-.71-.58-1.13-1.33-1.27-2.25h1.57c.1.66.42,1.17.95,1.51.48.32,1.09.48,1.83.48.92,0,1.62-.21,2.12-.63.4-.34.6-.76.6-1.26Z" />
    <path class="j" d="m3039.25,288.59v1.28h-4.56v4.56h-1.53v-10.8h6.62v1.29h-5.08v3.67h4.56Z" />
    <path class="j" d="m3041.58,283.62h3.51c1.45,0,2.54.34,3.27,1.02.64.6.96,1.43.96,2.49,0,1.18-.41,2.07-1.23,2.66-.73.52-1.75.78-3.06.78h-1.92v3.85h-1.53v-10.8Zm3.54,1.25h-2.01v4.46h1.95c.99,0,1.7-.21,2.13-.65.36-.35.54-.86.54-1.54,0-.77-.26-1.35-.77-1.74-.45-.35-1.06-.53-1.84-.53Z" />
    <path class="j" d="m3053.75,292.74v-2.5h-2.48v-1.28h2.48v-2.52h1.37v2.52h2.46v1.28h-2.46v2.5h-1.37Z" />
    <path class="j" d="m3064.18,291.87h1.53c.11.49.37.88.78,1.16.39.27.87.4,1.44.4.71,0,1.28-.24,1.71-.73.38-.44.57-1.02.57-1.74,0-.81-.24-1.42-.71-1.84-.39-.36-.91-.54-1.54-.54-.86,0-1.56.32-2.1.96h-1.28l.22-5.61h6.45v1.21h-5.14l-.12,3.08c.64-.51,1.4-.76,2.29-.76,1.04,0,1.88.34,2.5,1.02.6.65.9,1.5.9,2.55s-.38,1.98-1.12,2.67c-.69.64-1.58.96-2.66.96s-2-.32-2.71-.96c-.56-.5-.9-1.11-1.02-1.82Z" />
    <path class="j" d="m3078.2,294.42h-1.43v-9l-2.35,1.21v-1.48l2.37-1.23h1.41v10.5Z" />
  </g>
  <g>
    <path class="j" d="m3131.06,291.5c0-.36-.08-.64-.24-.85-.18-.25-.51-.48-.99-.69-.48-.21-1.21-.45-2.18-.72-1.3-.36-2.19-.8-2.68-1.33-.4-.43-.6-1-.6-1.73,0-.87.38-1.56,1.14-2.07.7-.47,1.61-.71,2.73-.71,1.25,0,2.27.29,3.05.88.7.52,1.11,1.2,1.23,2.04h-1.58c-.09-.57-.39-1-.9-1.28-.45-.26-1.05-.39-1.8-.39-.84,0-1.46.16-1.86.48-.32.25-.48.58-.48.98,0,.26.04.47.13.64s.23.31.44.44c.39.26,1.14.54,2.26.85,1.56.44,2.62.94,3.17,1.5.46.46.69,1.09.69,1.89,0,.95-.42,1.73-1.25,2.35-.78.57-1.77.86-2.97.86s-2.29-.33-3.11-1c-.71-.58-1.13-1.33-1.27-2.25h1.57c.1.66.42,1.17.95,1.51.48.32,1.09.48,1.83.48.92,0,1.62-.21,2.12-.63.4-.34.6-.76.6-1.26Z" />
    <path class="j" d="m3140.48,288.59v1.28h-4.56v4.56h-1.53v-10.8h6.62v1.29h-5.08v3.67h4.56Z" />
    <path class="j" d="m3142.8,283.62h3.51c1.45,0,2.54.34,3.27,1.02.64.6.96,1.43.96,2.49,0,1.18-.41,2.07-1.23,2.66-.73.52-1.75.78-3.06.78h-1.92v3.85h-1.53v-10.8Zm3.54,1.25h-2.01v4.46h1.95c.99,0,1.7-.21,2.13-.65.36-.35.54-.86.54-1.54,0-.77-.26-1.35-.77-1.74-.45-.35-1.06-.53-1.84-.53Z" />
    <path class="j" d="m3154.97,292.74v-2.5h-2.48v-1.28h2.48v-2.52h1.37v2.52h2.46v1.28h-2.46v2.5h-1.37Z" />
    <path class="j" d="m3165.41,291.87h1.53c.11.49.37.88.78,1.16.39.27.87.4,1.44.4.71,0,1.28-.24,1.71-.73.38-.44.57-1.02.57-1.74,0-.81-.24-1.42-.71-1.84-.39-.36-.91-.54-1.54-.54-.86,0-1.56.32-2.1.96h-1.28l.22-5.61h6.45v1.21h-5.14l-.12,3.08c.64-.51,1.4-.76,2.29-.76,1.04,0,1.88.34,2.5,1.02.6.65.9,1.5.9,2.55s-.38,1.98-1.12,2.67c-.69.64-1.58.96-2.66.96s-2-.32-2.71-.96c-.56-.5-.9-1.11-1.02-1.82Z" />
    <path class="j" d="m3176.06,286.67h-1.51c.12-.93.55-1.67,1.29-2.22.66-.5,1.46-.75,2.4-.75,1.07,0,1.92.3,2.57.9.57.55.85,1.25.85,2.08,0,.74-.21,1.43-.63,2.06-.34.53-.96,1.22-1.88,2.08l-2.4,2.28h4.86v1.32h-6.81v-1.32l3.42-3.29c.76-.73,1.28-1.31,1.55-1.75.27-.43.41-.89.41-1.37,0-.58-.2-1.03-.6-1.35-.35-.29-.81-.43-1.38-.43-.64,0-1.15.17-1.54.53-.34.31-.54.72-.6,1.23Z" />
  </g>
  <g>
    <polygon class="j" points="1488.82 292.35 1480.41 292.35 1484.61 286.28 1484.61 286.28 1488.82 292.35" />
    <path class="j" d="m1473.63,296.59h-1.43v-9l-2.35,1.21v-1.48l2.37-1.23h1.41v10.5Z" />
  </g>
  <g>
    <polygon class="j" points="1532.8 290.94 1541.2 290.94 1537 297.01 1537 297.01 1532.8 290.94" />
    <path class="j" d="m1522.77,288.83h-1.51c.12-.93.55-1.67,1.29-2.22.66-.5,1.46-.75,2.4-.75,1.07,0,1.92.3,2.57.9.57.55.85,1.25.85,2.08,0,.74-.21,1.43-.63,2.06-.34.53-.96,1.22-1.88,2.08l-2.4,2.28h4.86v1.32h-6.81v-1.32l3.42-3.29c.76-.73,1.28-1.31,1.55-1.75.27-.43.41-.89.41-1.37,0-.58-.2-1.03-.6-1.35-.35-.29-.81-.43-1.38-.43-.64,0-1.15.17-1.54.53-.34.31-.54.72-.6,1.23Z" />
  </g>
  <g>
    <polygon class="j" points="1586.27 292.35 1577.87 292.35 1582.07 286.28 1582.07 286.28 1586.27 292.35" />
    <path class="j" d="m1574.34,293.72c0,.97-.39,1.75-1.16,2.33-.67.5-1.53.75-2.57.75-1.15,0-2.06-.29-2.75-.88-.58-.49-.92-1.13-1.03-1.93h1.53c.25,1.08.99,1.62,2.22,1.62.76,0,1.34-.2,1.75-.6.35-.34.52-.77.52-1.3,0-.7-.25-1.23-.75-1.59-.37-.26-.81-.39-1.32-.39h-.87v-1.25h.84c.49,0,.9-.16,1.23-.48.34-.32.51-.75.51-1.28,0-.56-.24-1-.71-1.3-.36-.23-.79-.34-1.31-.34-.62,0-1.12.16-1.51.46-.33.27-.53.62-.6,1.04h-1.52c.14-.88.58-1.57,1.33-2.06.65-.43,1.44-.64,2.37-.64,1.02,0,1.85.25,2.49.76.61.49.92,1.15.92,1.98,0,.6-.2,1.12-.6,1.58-.34.39-.77.67-1.29.82.69.15,1.24.47,1.65.96.4.48.6,1.07.6,1.75Z" />
  </g>
  <g>
    <polygon class="j" points="1630.79 290.94 1639.19 290.94 1634.99 297.01 1634.99 297.01 1630.79 290.94" />
    <path class="j" d="m1623.24,286.09h1.5v7.29h1.7v1.23h-1.7v1.98h-1.4v-1.98h-4.6v-1.33l4.5-7.19Zm-2.9,7.29h3v-4.96l-3,4.96Z" />
  </g>
  <g>
    <polygon class="j" points="1684.4 292.35 1675.99 292.35 1680.2 286.28 1680.2 286.28 1684.4 292.35" />
    <path class="j" d="m1664.45,294.04h1.53c.11.49.37.88.78,1.16.39.27.87.4,1.44.4.71,0,1.28-.24,1.71-.73.38-.44.57-1.02.57-1.74,0-.81-.24-1.42-.71-1.84-.39-.36-.91-.54-1.54-.54-.86,0-1.56.32-2.1.96h-1.28l.22-5.61h6.45v1.21h-5.14l-.12,3.08c.64-.51,1.4-.76,2.29-.76,1.04,0,1.88.34,2.5,1.02.6.65.9,1.5.9,2.55s-.38,1.98-1.12,2.67c-.69.64-1.58.96-2.66.96s-2-.32-2.71-.96c-.56-.5-.9-1.11-1.02-1.82Z" />
  </g>
  <g>
    <polygon class="j" points="1728.08 290.94 1736.48 290.94 1732.28 297.01 1732.28 297.01 1728.08 290.94" />
    <path class="j" d="m1721.47,289.72c1.08,0,1.92.38,2.52,1.12.5.63.75,1.43.75,2.4,0,1.21-.42,2.14-1.25,2.8-.64.51-1.39.77-2.26.77-1.29,0-2.25-.5-2.88-1.49-.54-.85-.81-2.04-.81-3.57,0-2.29.45-3.92,1.33-4.89.62-.67,1.45-1,2.49-1,.85,0,1.57.22,2.16.67.52.4.85.92,1,1.54h-1.59c-.09-.33-.28-.59-.56-.77-.28-.18-.62-.28-1.03-.28-1.45,0-2.25,1.35-2.39,4.05.27-.43.62-.76,1.07-1,.44-.24.92-.36,1.44-.36Zm-2.36,3.48c0,.81.23,1.43.69,1.88.37.36.84.54,1.42.54.64,0,1.15-.23,1.53-.67.35-.42.53-.96.53-1.62,0-.79-.21-1.4-.63-1.83-.37-.38-.85-.57-1.44-.57-.72,0-1.27.25-1.65.77-.3.41-.45.91-.45,1.51Z" />
  </g>
  <g>
    <polygon class="j" points="1780.85 292.35 1772.45 292.35 1776.65 286.28 1776.65 286.28 1780.85 292.35" />
    <path class="j" d="m1769.78,287.38l-4.29,9.21h-1.63l4.39-9.21h-5.14v-1.29h6.67v1.29Z" />
  </g>
  <g>
    <polygon class="j" points="1827.08 290.94 1835.49 290.94 1831.28 297.01 1831.28 297.01 1827.08 290.94" />
    <path class="j" d="m1821.72,288.57c0,.49-.15.94-.45,1.36-.3.42-.73.78-1.28,1.07,1.41.62,2.12,1.54,2.12,2.76,0,.96-.4,1.73-1.19,2.31-.7.5-1.58.75-2.64.75-1.22,0-2.19-.32-2.91-.95-.61-.54-.92-1.21-.92-2.01s.25-1.42.75-1.94c.34-.36.78-.64,1.31-.84-1.11-.52-1.67-1.33-1.67-2.42,0-.97.39-1.71,1.17-2.22.61-.39,1.36-.58,2.26-.58,1.05,0,1.89.24,2.52.72.61.48.92,1.14.92,1.98Zm-1.14,5.19c0-.77-.33-1.33-.97-1.69-.32-.18-.87-.36-1.64-.53-.58.17-1.04.43-1.39.78-.39.4-.58.88-.58,1.44s.21,1.04.64,1.38c.4.33.95.5,1.65.5.79,0,1.39-.2,1.8-.6.33-.32.5-.75.5-1.28Zm-4.32-5.16c0,.74.31,1.28.92,1.62.35.19.82.33,1.41.41,1.13-.44,1.7-1.12,1.7-2.03,0-.52-.22-.93-.66-1.23-.37-.25-.82-.38-1.33-.38-.62,0-1.12.15-1.5.45-.35.29-.53.67-.53,1.15Z" />
  </g>
  <g>
    <polygon class="j" points="1939.97 292.35 1931.57 292.35 1935.77 286.28 1935.77 286.28 1939.97 292.35" />
    <path class="j" d="m1924.39,292.96c-1.04,0-1.86-.35-2.46-1.06-.54-.63-.81-1.45-.81-2.46,0-1.14.38-2.04,1.14-2.72.64-.57,1.43-.85,2.37-.85,2.46,0,3.69,1.68,3.69,5.05,0,3.93-1.29,5.9-3.87,5.9-.86,0-1.58-.23-2.17-.69-.51-.4-.85-.92-1-1.56h1.59c.21.72.76,1.08,1.65,1.08.74,0,1.3-.33,1.69-.99.38-.66.61-1.67.67-3.04-.27.43-.62.76-1.06,1-.44.24-.91.35-1.43.35Zm2.35-3.48c0-.81-.23-1.44-.69-1.88-.37-.36-.85-.54-1.43-.54-.64,0-1.15.23-1.53.69-.35.41-.53.95-.53,1.61,0,.81.23,1.43.67,1.88.37.35.83.52,1.4.52.72,0,1.27-.25,1.65-.76.3-.41.45-.92.45-1.51Z" />
  </g>
  <g>
    <polygon class="j" points="1988.36 290.94 1996.76 290.94 1992.56 297.01 1992.56 297.01 1988.36 290.94" />
    <g>
      <path class="j" d="m1973.94,296.59h-1.43v-9l-2.35,1.21v-1.48l2.37-1.23h1.41v10.5Z" />
      <path class="j" d="m1981.66,296.82c-1.2,0-2.13-.51-2.8-1.53-.63-.96-.95-2.29-.95-3.97,0-1.96.41-3.41,1.21-4.35.64-.73,1.49-1.09,2.54-1.09,1.21,0,2.14.49,2.8,1.46.63.94.95,2.27.95,3.99,0,1.93-.41,3.38-1.21,4.33-.65.78-1.5,1.17-2.54,1.17Zm0-1.2c.82,0,1.42-.4,1.79-1.2.33-.7.5-1.73.5-3.1,0-1.55-.22-2.67-.65-3.36-.37-.59-.92-.88-1.63-.88-.82,0-1.42.39-1.79,1.17-.33.69-.5,1.71-.5,3.08,0,1.56.21,2.69.65,3.39.37.61.92.92,1.63.92Z" />
    </g>
  </g>
  <g>
    <polygon class="j" points="2041.07 292.35 2032.67 292.35 2036.87 286.28 2036.87 286.28 2041.07 292.35" />
    <g>
      <path class="j" d="m2020.45,296.59h-1.43v-9l-2.35,1.21v-1.48l2.37-1.23h1.41v10.5Z" />
      <path class="j" d="m2029.45,296.59h-1.43v-9l-2.35,1.21v-1.48l2.37-1.23h1.41v10.5Z" />
    </g>
  </g>
  <g>
    <polygon class="j" points="2086.64 290.94 2095.04 290.94 2090.84 297.01 2090.84 297.01 2086.64 290.94" />
    <g>
      <path class="j" d="m2071.37,296.59h-1.43v-9l-2.35,1.21v-1.48l2.37-1.23h1.41v10.5Z" />
      <path class="j" d="m2077.01,288.83h-1.51c.12-.93.55-1.67,1.29-2.22.66-.5,1.46-.75,2.4-.75,1.07,0,1.92.3,2.57.9.57.55.85,1.25.85,2.08,0,.74-.21,1.43-.63,2.06-.34.53-.96,1.22-1.88,2.08l-2.4,2.28h4.86v1.32h-6.81v-1.32l3.42-3.29c.76-.73,1.28-1.31,1.55-1.75.27-.43.41-.89.41-1.37,0-.58-.2-1.03-.6-1.35-.35-.29-.81-.43-1.38-.43-.64,0-1.15.17-1.54.53-.34.31-.54.72-.6,1.23Z" />
    </g>
  </g>
  <g>
    <polygon class="j" points="2139.8 292.35 2131.4 292.35 2135.6 286.28 2135.6 286.28 2139.8 292.35" />
    <g>
      <path class="j" d="m2117.42,296.59h-1.43v-9l-2.35,1.21v-1.48l2.37-1.23h1.41v10.5Z" />
      <path class="j" d="m2128.88,293.72c0,.97-.39,1.75-1.16,2.33-.67.5-1.53.75-2.57.75-1.15,0-2.06-.29-2.75-.88-.58-.49-.92-1.13-1.03-1.93h1.53c.25,1.08.99,1.62,2.22,1.62.76,0,1.34-.2,1.75-.6.35-.34.52-.77.52-1.3,0-.7-.25-1.23-.75-1.59-.37-.26-.81-.39-1.32-.39h-.87v-1.25h.84c.49,0,.9-.16,1.23-.48.34-.32.51-.75.51-1.28,0-.56-.24-1-.71-1.3-.36-.23-.79-.34-1.31-.34-.62,0-1.12.16-1.51.46-.33.27-.53.62-.6,1.04h-1.52c.14-.88.58-1.57,1.33-2.06.65-.43,1.44-.64,2.37-.64,1.02,0,1.85.25,2.49.76.61.49.92,1.15.92,1.98,0,.6-.2,1.12-.6,1.58-.34.39-.77.67-1.29.82.69.15,1.24.47,1.65.96.4.48.6,1.07.6,1.75Z" />
    </g>
  </g>
  <g>
    <polygon class="j" points="2183.89 290.94 2192.29 290.94 2188.09 297.01 2188.09 297.01 2183.89 290.94" />
    <g>
      <path class="j" d="m2169.82,296.59h-1.43v-9l-2.35,1.21v-1.48l2.37-1.23h1.41v10.5Z" />
      <path class="j" d="m2178.21,286.09h1.5v7.29h1.7v1.23h-1.7v1.98h-1.4v-1.98h-4.6v-1.33l4.5-7.19Zm-2.9,7.29h3v-4.96l-3,4.96Z" />
    </g>
  </g>
  <g>
    <polygon class="j" points="2238 292.35 2229.6 292.35 2233.8 286.28 2233.8 286.28 2238 292.35" />
    <g>
      <path class="j" d="m2214.93,296.59h-1.43v-9l-2.35,1.21v-1.48l2.37-1.23h1.41v10.5Z" />
      <path class="j" d="m2218.92,294.04h1.53c.11.49.37.88.78,1.16.39.27.87.4,1.44.4.71,0,1.28-.24,1.71-.73.38-.44.57-1.02.57-1.74,0-.81-.24-1.42-.71-1.84-.39-.36-.91-.54-1.54-.54-.86,0-1.56.32-2.1.96h-1.28l.22-5.61h6.45v1.21h-5.14l-.12,3.08c.64-.51,1.4-.76,2.29-.76,1.04,0,1.88.34,2.5,1.02.6.65.9,1.5.9,2.55s-.38,1.98-1.12,2.67c-.69.64-1.58.96-2.66.96s-2-.32-2.71-.96c-.56-.5-.9-1.11-1.02-1.82Z" />
    </g>
  </g>
  <g>
    <polygon class="j" points="2282.31 290.94 2290.72 290.94 2286.52 297.01 2286.52 297.01 2282.31 290.94" />
    <g>
      <path class="j" d="m2267.1,296.59h-1.43v-9l-2.35,1.21v-1.48l2.37-1.23h1.41v10.5Z" />
      <path class="j" d="m2275.31,289.72c1.08,0,1.92.38,2.52,1.12.5.63.75,1.43.75,2.4,0,1.21-.42,2.14-1.25,2.8-.64.51-1.39.77-2.26.77-1.29,0-2.25-.5-2.88-1.49-.54-.85-.81-2.04-.81-3.57,0-2.29.45-3.92,1.33-4.89.62-.67,1.45-1,2.49-1,.85,0,1.57.22,2.16.67.52.4.85.92,1,1.54h-1.59c-.09-.33-.28-.59-.56-.77-.28-.18-.62-.28-1.03-.28-1.45,0-2.25,1.35-2.39,4.05.27-.43.62-.76,1.07-1,.44-.24.92-.36,1.44-.36Zm-2.36,3.48c0,.81.23,1.43.69,1.88.37.36.84.54,1.42.54.64,0,1.15-.23,1.53-.67.35-.42.53-.96.53-1.62,0-.79-.21-1.4-.63-1.83-.37-.38-.85-.57-1.44-.57-.72,0-1.27.25-1.65.77-.3.41-.45.91-.45,1.51Z" />
    </g>
  </g>
  <g>
    <polygon class="j" points="2389.32 290.94 2397.72 290.94 2393.52 297.01 2393.52 297.01 2389.32 290.94" />
    <g>
      <path class="j" d="m2374.9,296.59h-1.43v-9l-2.35,1.21v-1.48l2.37-1.23h1.41v10.5Z" />
      <path class="j" d="m2385.93,287.38l-4.29,9.21h-1.63l4.39-9.21h-5.14v-1.29h6.67v1.29Z" />
    </g>
  </g>
  <g>
    <polygon class="j" points="2445.88 292.35 2437.47 292.35 2441.68 286.28 2441.68 286.28 2445.88 292.35" />
    <g>
      <path class="j" d="m2423.81,296.59h-1.43v-9l-2.35,1.21v-1.48l2.37-1.23h1.41v10.5Z" />
      <path class="j" d="m2434.97,288.57c0,.49-.15.94-.45,1.36-.3.42-.73.78-1.28,1.07,1.41.62,2.12,1.54,2.12,2.76,0,.96-.4,1.73-1.19,2.31-.7.5-1.58.75-2.64.75-1.22,0-2.19-.32-2.91-.95-.61-.54-.92-1.21-.92-2.01s.25-1.42.75-1.94c.34-.36.78-.64,1.31-.84-1.11-.52-1.67-1.33-1.67-2.42,0-.97.39-1.71,1.17-2.22.61-.39,1.36-.58,2.26-.58,1.05,0,1.89.24,2.52.72.61.48.92,1.14.92,1.98Zm-1.14,5.19c0-.77-.33-1.33-.97-1.69-.32-.18-.87-.36-1.64-.53-.58.17-1.04.43-1.39.78-.39.4-.58.88-.58,1.44s.21,1.04.64,1.38c.4.33.95.5,1.65.5.79,0,1.39-.2,1.8-.6.33-.32.5-.75.5-1.28Zm-4.32-5.16c0,.74.31,1.28.92,1.62.35.19.82.33,1.41.41,1.13-.44,1.7-1.12,1.7-2.03,0-.52-.22-.93-.66-1.23-.37-.25-.82-.38-1.33-.38-.62,0-1.12.15-1.5.45-.35.29-.53.67-.53,1.15Z" />
    </g>
  </g>
  <g>
    <polygon class="j" points="2488.72 290.94 2497.13 290.94 2492.93 297.01 2492.93 297.01 2488.72 290.94" />
    <g>
      <path class="j" d="m2473.45,296.59h-1.43v-9l-2.36,1.21v-1.48l2.37-1.23h1.41v10.5Z" />
      <path class="j" d="m2481,292.96c-1.04,0-1.86-.35-2.46-1.06-.54-.63-.81-1.45-.81-2.46,0-1.14.38-2.04,1.14-2.72.64-.57,1.43-.85,2.37-.85,2.46,0,3.69,1.68,3.69,5.05,0,3.93-1.29,5.9-3.87,5.9-.86,0-1.58-.23-2.17-.69-.51-.4-.85-.92-1.01-1.56h1.59c.21.72.76,1.08,1.65,1.08.74,0,1.3-.33,1.7-.99.38-.66.61-1.67.67-3.04-.27.43-.62.76-1.06,1-.44.24-.91.35-1.43.35Zm2.35-3.48c0-.81-.23-1.44-.69-1.88-.37-.36-.85-.54-1.43-.54-.64,0-1.15.23-1.53.69-.35.41-.53.95-.53,1.61,0,.81.23,1.43.68,1.88.37.35.83.52,1.39.52.72,0,1.27-.25,1.65-.76.3-.41.45-.92.45-1.51Z" />
    </g>
  </g>
  <g>
    <polygon class="j" points="2542.21 292.35 2533.81 292.35 2538.01 286.28 2538.01 286.28 2542.21 292.35" />
    <g>
      <path class="j" d="m2516.14,288.83h-1.51c.12-.93.55-1.67,1.29-2.22.66-.5,1.46-.75,2.4-.75,1.07,0,1.92.3,2.57.9.57.55.85,1.25.85,2.08,0,.74-.21,1.43-.63,2.06-.34.53-.96,1.22-1.88,2.08l-2.4,2.28h4.86v1.32h-6.81v-1.32l3.42-3.29c.76-.73,1.28-1.31,1.55-1.75.27-.43.41-.89.41-1.37,0-.58-.2-1.03-.6-1.35-.35-.29-.81-.43-1.38-.43-.64,0-1.15.17-1.54.53-.34.31-.54.72-.6,1.23Z" />
      <path class="j" d="m2527.22,296.82c-1.2,0-2.13-.51-2.8-1.53-.63-.96-.95-2.29-.95-3.97,0-1.96.41-3.41,1.21-4.35.64-.73,1.49-1.09,2.54-1.09,1.21,0,2.14.49,2.8,1.46.63.94.95,2.27.95,3.99,0,1.93-.41,3.38-1.21,4.33-.65.78-1.5,1.17-2.54,1.17Zm0-1.2c.82,0,1.42-.4,1.79-1.2.33-.7.5-1.73.5-3.1,0-1.55-.22-2.67-.65-3.36-.37-.59-.92-.88-1.63-.88-.82,0-1.42.39-1.79,1.17-.33.69-.5,1.71-.5,3.08,0,1.56.21,2.69.65,3.39.37.61.92.92,1.63.92Z" />
    </g>
  </g>
  <g>
    <polygon class="j" points="2584.58 290.94 2592.98 290.94 2588.78 297.01 2588.78 297.01 2584.58 290.94" />
    <g>
      <path class="j" d="m2568.54,288.83h-1.51c.12-.93.55-1.67,1.29-2.22.66-.5,1.46-.75,2.4-.75,1.07,0,1.92.3,2.57.9.57.55.85,1.25.85,2.08,0,.74-.21,1.43-.63,2.06-.34.53-.96,1.22-1.88,2.08l-2.4,2.28h4.86v1.32h-6.81v-1.32l3.42-3.29c.76-.73,1.28-1.31,1.55-1.75.27-.43.41-.89.41-1.37,0-.58-.2-1.03-.6-1.35-.35-.29-.81-.43-1.38-.43-.64,0-1.15.17-1.54.53-.34.31-.54.72-.6,1.23Z" />
      <path class="j" d="m2580.9,296.59h-1.43v-9l-2.35,1.21v-1.48l2.37-1.23h1.41v10.5Z" />
    </g>
  </g>
  <g>
    <polygon class="j" points="2640.08 292.35 2631.68 292.35 2635.88 286.28 2635.88 286.28 2640.08 292.35" />
    <g>
      <path class="j" d="m2614.37,288.83h-1.51c.12-.93.55-1.67,1.29-2.22.66-.5,1.46-.75,2.4-.75,1.07,0,1.92.3,2.56.9.57.55.86,1.25.86,2.08,0,.74-.21,1.43-.63,2.06-.34.53-.96,1.22-1.88,2.08l-2.4,2.28h4.86v1.32h-6.81v-1.32l3.42-3.29c.76-.73,1.28-1.31,1.55-1.75.28-.43.41-.89.41-1.37,0-.58-.2-1.03-.6-1.35-.35-.29-.81-.43-1.38-.43-.64,0-1.15.17-1.54.53-.34.31-.54.72-.6,1.23Z" />
      <path class="j" d="m2623.37,288.83h-1.51c.12-.93.55-1.67,1.29-2.22.66-.5,1.46-.75,2.4-.75,1.07,0,1.92.3,2.56.9.57.55.86,1.25.86,2.08,0,.74-.21,1.43-.63,2.06-.34.53-.96,1.22-1.88,2.08l-2.4,2.28h4.86v1.32h-6.81v-1.32l3.42-3.29c.76-.73,1.28-1.31,1.55-1.75.28-.43.41-.89.41-1.37,0-.58-.2-1.03-.6-1.35-.35-.29-.81-.43-1.38-.43-.64,0-1.15.17-1.54.53-.34.31-.54.72-.6,1.23Z" />
    </g>
  </g>
  <g>
    <polygon class="j" points="2683.73 290.94 2692.13 290.94 2687.93 297.01 2687.93 297.01 2683.73 290.94" />
    <g>
      <path class="j" d="m2665.82,288.83h-1.51c.12-.93.55-1.67,1.29-2.22.66-.5,1.46-.75,2.4-.75,1.07,0,1.92.3,2.57.9.57.55.85,1.25.85,2.08,0,.74-.21,1.43-.63,2.06-.34.53-.96,1.22-1.88,2.08l-2.4,2.28h4.86v1.32h-6.81v-1.32l3.42-3.29c.76-.73,1.28-1.31,1.55-1.75.27-.43.41-.89.41-1.37,0-.58-.2-1.03-.6-1.35-.35-.29-.81-.43-1.38-.43-.64,0-1.15.17-1.54.53-.34.31-.54.72-.6,1.23Z" />
      <path class="j" d="m2680.64,293.72c0,.97-.39,1.75-1.16,2.33-.67.5-1.53.75-2.57.75-1.15,0-2.06-.29-2.75-.88-.58-.49-.92-1.13-1.03-1.93h1.53c.25,1.08.99,1.62,2.22,1.62.76,0,1.34-.2,1.75-.6.35-.34.52-.77.52-1.3,0-.7-.25-1.23-.75-1.59-.37-.26-.81-.39-1.32-.39h-.87v-1.25h.84c.49,0,.9-.16,1.23-.48.34-.32.51-.75.51-1.28,0-.56-.24-1-.71-1.3-.36-.23-.79-.34-1.31-.34-.62,0-1.12.16-1.51.46-.33.27-.53.62-.6,1.04h-1.52c.14-.88.58-1.57,1.33-2.06.65-.43,1.44-.64,2.37-.64,1.02,0,1.85.25,2.49.76.61.49.92,1.15.92,1.98,0,.6-.2,1.12-.6,1.58-.34.39-.77.67-1.29.82.69.15,1.24.47,1.65.96.4.48.6,1.07.6,1.75Z" />
    </g>
  </g>
  <g>
    <polygon class="j" points="2732.7 290.94 2741.1 290.94 2736.9 297.01 2736.9 297.01 2732.7 290.94" />
    <g>
      <path class="j" d="m2715.36,288.83h-1.51c.12-.93.55-1.67,1.29-2.22.66-.5,1.46-.75,2.4-.75,1.07,0,1.92.3,2.57.9.57.55.85,1.25.85,2.08,0,.74-.21,1.43-.63,2.06-.34.53-.96,1.22-1.88,2.08l-2.4,2.28h4.86v1.32h-6.81v-1.32l3.42-3.29c.76-.73,1.28-1.31,1.55-1.75.27-.43.41-.89.41-1.37,0-.58-.2-1.03-.6-1.35-.35-.29-.81-.43-1.38-.43-.64,0-1.15.17-1.54.53-.34.31-.54.72-.6,1.23Z" />
      <path class="j" d="m2727.1,286.09h1.5v7.29h1.7v1.23h-1.7v1.98h-1.4v-1.98h-4.6v-1.33l4.5-7.19Zm-2.9,7.29h3v-4.96l-3,4.96Z" />
    </g>
  </g>
</svg>